<svg width="73" height="73" viewBox="0 0 73 73" fill="none" xmlns="http://www.w3.org/2000/svg">
<path opacity="0.3" d="M36.5 73C56.6584 73 73 56.6584 73 36.5C73 16.3416 56.6584 0 36.5 0C16.3416 0 0 16.3416 0 36.5C0 56.6584 16.3416 73 36.5 73Z" fill="white"/>
<path opacity="0.6" d="M56.7151 53.0655C59.6631 50.3982 61.2074 46.4674 61.2074 41.2732V23.304H11.792L17.4074 34.6751H32.0074V41.8347C32.0074 43.9405 32.2881 46.0463 32.9901 48.152L52.6439 55.7328C54.0478 55.0309 55.4516 54.1886 56.7151 53.0655ZM42.6766 43.5193C41.5535 42.5366 41.1324 40.852 41.1324 38.4655V34.6751H51.942V38.4655C52.0824 40.2905 51.6612 41.9751 50.5381 43.379C49.5555 44.3616 48.0112 44.9232 46.6074 44.7828C45.2035 44.7828 43.7997 44.3616 42.6766 43.5193Z" fill="white"/>
<path d="M36.4997 53.0655C39.4478 50.3982 40.992 46.4674 40.992 41.2732V34.5347H51.942L11.792 23.304V34.6751V41.8347C11.792 43.9405 12.0728 46.0463 12.6343 48.152L32.2881 55.7328C33.9728 55.0309 35.3766 54.1886 36.4997 53.0655ZM22.6016 43.5193C21.4785 42.5366 21.0574 40.852 21.0574 38.4655V34.6751H32.0074V38.4655C32.1478 40.2905 31.7266 41.9751 30.6035 43.379C29.4805 44.3616 28.0766 44.9232 26.6728 44.7828C25.1285 44.7828 23.7247 44.3616 22.6016 43.5193Z" fill="white"/>
</svg>
