<?xml version="1.0" standalone="no"?>
<!-- Licensee: Bradley and Montgomery (#23959) - http://vllg.com -->
<!DOCTYPE svg PUBLIC "-//W3C//DTD SVG 1.1//EN" "http://www.w3.org/Graphics/SVG/1.1/DTD/svg11.dtd" ><svg version="1.1" xmlns="http://www.w3.org/2000/svg"><defs><font horiz-adv-x="0" id="font"><font-face ascent="790" bbox="-150.9231 -266.2222 1439 1058" cap-height="750" descent="-210" font-family="Rum Sans Black Soft" font-stretch="normal" font-style="normal" font-weight="600" units-per-em="1000" x-height="510" /><missing-glyph d="M634 750Q664 750 664 720V30Q664 0 634 0H80Q50 0 50 30V720Q50 750 80 750ZM322 540V210H392V540Z" horiz-adv-x="714" /><glyph glyph-name=".null" horiz-adv-x="0" /><glyph d="M214 731Q220 750 243 750H548Q572 750 577 731L780 38Q784 24 778 12Q772 0 752 0H518Q494 0 489 22L473 100H302L286 22Q281 0 257 0H43Q23 0 17 12Q11 24 15 38ZM337 270H438L393 490H383Z" glyph-name="A" horiz-adv-x="796" unicode="A" /><glyph d="M65 0Q35 0 35 30V465Q35 536 54 592.5Q73 649 114.5 688.5Q156 728 220 749Q284 770 374 770Q462 770 524.5 749Q587 728 626.5 688.5Q666 649 684.5 592.5Q703 536 703 465V30Q703 0 673 0H476Q446 0 446 30L444 185H294L292 30Q292 0 262 0ZM295 355H442L441 485Q440 523 419.5 539Q399 555 369 555Q339 555 318.5 539Q298 523 297 485Z" glyph-name="A.round" horiz-adv-x="738" unicode="&#59697;" /><glyph d="M476 0Q446 0 446 30L444 185H294L292 30Q292 0 262 0H65Q35 0 35 30V465Q35 536 54 592.5Q73 649 114.5 688.5Q156 728 220 749Q284 770 374 770Q462 770 523 749Q584 728 621.5 688.5Q659 649 676 592.5Q693 536 693 465V210Q744 210 768.5 191Q793 172 793 119V30Q793 0 763 0ZM295 355H442L441 485Q440 523 419.5 539Q399 555 369 555Q339 555 318.5 539Q298 523 297 485Z" glyph-name="A.round.end" horiz-adv-x="803" unicode="&#59698;" /><glyph d="M532 0Q506 0 503 22L482 150H317L287 22Q282 0 258 0H43Q23 0 17 12Q11 24 15 38L214 731Q220 750 243 750H959Q989 750 989 720V570Q989 540 959 540H670L682 463H949Q979 463 979 433V315Q979 285 949 285H710L722 210H959Q989 210 989 180V30Q989 0 959 0ZM357 320H454L419 540H409Z" glyph-name="AE" horiz-adv-x="1019" unicode="&#198;" /><glyph d="M65 0Q35 0 35 30V465Q35 536 54 592.5Q73 649 114.5 688.5Q156 728 220 749Q284 770 374 770Q459 770 522 750H978Q1008 750 1008 720V570Q1008 540 978 540H687V463H968Q998 463 998 433V315Q998 285 968 285H687V210H978Q1008 210 1008 180V30Q1008 0 978 0H476Q446 0 446 30L444 185H294L292 30Q292 0 262 0ZM295 355H442L441 485Q440 523 419.5 539Q399 555 369 555Q339 555 318.5 539Q298 523 297 485Z" glyph-name="AE.round" horiz-adv-x="1028" unicode="&#59747;" /><glyph d="M214 731Q220 750 243 750H548Q572 750 577 731L780 38Q784 24 778 12Q772 0 752 0H518Q494 0 489 22L473 100H302L286 22Q281 0 257 0H43Q23 0 17 12Q11 24 15 38ZM337 270H438L393 490H383ZM341 945Q347 960 368 960H574Q589 960 595 950.5Q601 941 591 930L505 829Q498 820 481 820H321Q306 820 300 828Q294 836 300 850Z" glyph-name="Aacute" horiz-adv-x="796" unicode="&#193;" /><glyph d="M65 0Q35 0 35 30V465Q35 536 54 592.5Q73 649 114.5 688.5Q156 728 220 749Q284 770 374 770Q462 770 524.5 749Q587 728 626.5 688.5Q666 649 684.5 592.5Q703 536 703 465V30Q703 0 673 0H476Q446 0 446 30L444 185H294L292 30Q292 0 262 0ZM295 355H442L441 485Q440 523 419.5 539Q399 555 369 555Q339 555 318.5 539Q298 523 297 485ZM315 945Q321 960 342 960H548Q563 960 569 950.5Q575 941 565 930L479 829Q472 820 455 820H295Q280 820 274 828Q268 836 274 850Z" glyph-name="Aacute.round" horiz-adv-x="738" unicode="&#59702;" /><glyph d="M476 0Q446 0 446 30L444 185H294L292 30Q292 0 262 0H65Q35 0 35 30V465Q35 536 54 592.5Q73 649 114.5 688.5Q156 728 220 749Q284 770 374 770Q462 770 523 749Q584 728 621.5 688.5Q659 649 676 592.5Q693 536 693 465V210Q744 210 768.5 191Q793 172 793 119V30Q793 0 763 0ZM295 355H442L441 485Q440 523 419.5 539Q399 555 369 555Q339 555 318.5 539Q298 523 297 485ZM315 945Q321 960 342 960H548Q563 960 569 950.5Q575 941 565 930L479 829Q472 820 455 820H295Q280 820 274 828Q268 836 274 850Z" glyph-name="Aacute.round.end" horiz-adv-x="803" unicode="&#59703;" /><glyph d="M214 731Q220 750 243 750H548Q572 750 577 731L780 38Q784 24 778 12Q772 0 752 0H518Q494 0 489 22L473 100H302L286 22Q281 0 257 0H43Q23 0 17 12Q11 24 15 38ZM337 270H438L393 490H383ZM610 960Q597 902 538 870.5Q479 839 385 839Q291 839 235 870.5Q179 902 168 960Q165 975 174 982.5Q183 990 198 990H314Q336 990 342 974Q347 960 359.5 951Q372 942 389 942Q406 942 418.5 951Q431 960 436 974Q442 990 464 990H580Q595 990 604 982.5Q613 975 610 960Z" glyph-name="Abreve" horiz-adv-x="796" unicode="&#258;" /><glyph d="M65 0Q35 0 35 30V465Q35 536 54 592.5Q73 649 114.5 688.5Q156 728 220 749Q284 770 374 770Q462 770 524.5 749Q587 728 626.5 688.5Q666 649 684.5 592.5Q703 536 703 465V30Q703 0 673 0H476Q446 0 446 30L444 185H294L292 30Q292 0 262 0ZM295 355H442L441 485Q440 523 419.5 539Q399 555 369 555Q339 555 318.5 539Q298 523 297 485ZM591 950Q578 892 519 860.5Q460 829 366 829Q272 829 216 860.5Q160 892 149 950Q146 965 155 972.5Q164 980 179 980H295Q317 980 323 964Q328 950 340.5 941Q353 932 370 932Q387 932 399.5 941Q412 950 417 964Q423 980 445 980H561Q576 980 585 972.5Q594 965 591 950Z" glyph-name="Abreve.round" horiz-adv-x="738" unicode="&#59715;" /><glyph d="M476 0Q446 0 446 30L444 185H294L292 30Q292 0 262 0H65Q35 0 35 30V465Q35 536 54 592.5Q73 649 114.5 688.5Q156 728 220 749Q284 770 374 770Q462 770 523 749Q584 728 621.5 688.5Q659 649 676 592.5Q693 536 693 465V210Q744 210 768.5 191Q793 172 793 119V30Q793 0 763 0ZM295 355H442L441 485Q440 523 419.5 539Q399 555 369 555Q339 555 318.5 539Q298 523 297 485ZM591 950Q578 892 519 860.5Q460 829 366 829Q272 829 216 860.5Q160 892 149 950Q146 965 155 972.5Q164 980 179 980H295Q317 980 323 964Q328 950 340.5 941Q353 932 370 932Q387 932 399.5 941Q412 950 417 964Q423 980 445 980H561Q576 980 585 972.5Q594 965 591 950Z" glyph-name="Abreve.round.end" horiz-adv-x="803" unicode="&#59716;" /><glyph d="M214 731Q220 750 243 750H548Q572 750 577 731L780 38Q784 24 778 12Q772 0 752 0H518Q494 0 489 22L473 100H302L286 22Q281 0 257 0H43Q23 0 17 12Q11 24 15 38ZM337 270H438L393 490H383ZM392 904H383L363 835Q359 820 336 820H165Q150 820 143.5 829.5Q137 839 148 850L248 951Q256 960 272 960H504Q521 960 528 951L628 850Q638 839 632 829.5Q626 820 611 820H440Q418 820 413 835Z" glyph-name="Acircumflex" horiz-adv-x="796" unicode="&#194;" /><glyph d="M65 0Q35 0 35 30V465Q35 536 54 592.5Q73 649 114.5 688.5Q156 728 220 749Q284 770 374 770Q462 770 524.5 749Q587 728 626.5 688.5Q666 649 684.5 592.5Q703 536 703 465V30Q703 0 673 0H476Q446 0 446 30L444 185H294L292 30Q292 0 262 0ZM295 355H442L441 485Q440 523 419.5 539Q399 555 369 555Q339 555 318.5 539Q298 523 297 485ZM375 904H366L346 835Q342 820 319 820H148Q133 820 126.5 829.5Q120 839 131 850L231 951Q239 960 255 960H487Q504 960 511 951L611 850Q621 839 615 829.5Q609 820 594 820H423Q401 820 396 835Z" glyph-name="Acircumflex.round" horiz-adv-x="738" unicode="&#59728;" /><glyph d="M476 0Q446 0 446 30L444 185H294L292 30Q292 0 262 0H65Q35 0 35 30V465Q35 536 54 592.5Q73 649 114.5 688.5Q156 728 220 749Q284 770 374 770Q462 770 523 749Q584 728 621.5 688.5Q659 649 676 592.5Q693 536 693 465V210Q744 210 768.5 191Q793 172 793 119V30Q793 0 763 0ZM295 355H442L441 485Q440 523 419.5 539Q399 555 369 555Q339 555 318.5 539Q298 523 297 485ZM376 904H367L347 835Q343 820 320 820H149Q134 820 127.5 829.5Q121 839 132 850L232 951Q240 960 256 960H488Q505 960 512 951L612 850Q622 839 616 829.5Q610 820 595 820H424Q402 820 397 835Z" glyph-name="Acircumflex.round.end" horiz-adv-x="803" unicode="&#59729;" /><glyph d="M633 883Q633 839 603 815.5Q573 792 525 792Q476 792 448 814Q420 836 420 879Q420 921 450 945.5Q480 970 529 970Q577 970 605 948.5Q633 927 633 883ZM352 883Q352 839 322 815.5Q292 792 244 792Q195 792 167 814Q139 836 139 879Q139 921 169 945.5Q199 970 248 970Q296 970 324 948.5Q352 927 352 883ZM214 731Q220 750 243 750H548Q572 750 577 731L780 38Q784 24 778 12Q772 0 752 0H518Q494 0 489 22L473 100H302L286 22Q281 0 257 0H43Q23 0 17 12Q11 24 15 38ZM337 270H438L393 490H383Z" glyph-name="Adieresis" horiz-adv-x="796" unicode="&#196;" /><glyph d="M338 883Q338 839 308 815.5Q278 792 230 792Q181 792 153 814Q125 836 125 879Q125 921 155 945.5Q185 970 234 970Q282 970 310 948.5Q338 927 338 883ZM619 883Q619 839 589 815.5Q559 792 511 792Q462 792 434 814Q406 836 406 879Q406 921 436 945.5Q466 970 515 970Q563 970 591 948.5Q619 927 619 883ZM65 0Q35 0 35 30V465Q35 536 54 592.5Q73 649 114.5 688.5Q156 728 220 749Q284 770 374 770Q462 770 524.5 749Q587 728 626.5 688.5Q666 649 684.5 592.5Q703 536 703 465V30Q703 0 673 0H476Q446 0 446 30L444 185H294L292 30Q292 0 262 0ZM295 355H442L441 485Q440 523 419.5 539Q399 555 369 555Q339 555 318.5 539Q298 523 297 485Z" glyph-name="Adieresis.round" horiz-adv-x="738" unicode="&#59735;" /><glyph d="M338 883Q338 839 308 815.5Q278 792 230 792Q181 792 153 814Q125 836 125 879Q125 921 155 945.5Q185 970 234 970Q282 970 310 948.5Q338 927 338 883ZM619 883Q619 839 589 815.5Q559 792 511 792Q462 792 434 814Q406 836 406 879Q406 921 436 945.5Q466 970 515 970Q563 970 591 948.5Q619 927 619 883ZM476 0Q446 0 446 30L444 185H294L292 30Q292 0 262 0H65Q35 0 35 30V465Q35 536 54 592.5Q73 649 114.5 688.5Q156 728 220 749Q284 770 374 770Q462 770 523 749Q584 728 621.5 688.5Q659 649 676 592.5Q693 536 693 465V210Q744 210 768.5 191Q793 172 793 119V30Q793 0 763 0ZM295 355H442L441 485Q440 523 419.5 539Q399 555 369 555Q339 555 318.5 539Q298 523 297 485Z" glyph-name="Adieresis.round.end" horiz-adv-x="803" unicode="&#59736;" /><glyph d="M214 731Q220 750 243 750H548Q572 750 577 731L780 38Q784 24 778 12Q772 0 752 0H518Q494 0 489 22L473 100H302L286 22Q281 0 257 0H43Q23 0 17 12Q11 24 15 38ZM337 270H438L393 490H383ZM486 850Q492 836 486 828Q480 820 465 820H305Q289 820 281 829L195 930Q185 941 191 950.5Q197 960 212 960H418Q439 960 445 945Z" glyph-name="Agrave" horiz-adv-x="796" unicode="&#192;" /><glyph d="M65 0Q35 0 35 30V465Q35 536 54 592.5Q73 649 114.5 688.5Q156 728 220 749Q284 770 374 770Q462 770 524.5 749Q587 728 626.5 688.5Q666 649 684.5 592.5Q703 536 703 465V30Q703 0 673 0H476Q446 0 446 30L444 185H294L292 30Q292 0 262 0ZM295 355H442L441 485Q440 523 419.5 539Q399 555 369 555Q339 555 318.5 539Q298 523 297 485ZM464 850Q470 836 464 828Q458 820 443 820H283Q267 820 259 829L173 930Q163 941 169 950.5Q175 960 190 960H396Q417 960 423 945Z" glyph-name="Agrave.round" horiz-adv-x="738" unicode="&#59752;" /><glyph d="M476 0Q446 0 446 30L444 185H294L292 30Q292 0 262 0H65Q35 0 35 30V465Q35 536 54 592.5Q73 649 114.5 688.5Q156 728 220 749Q284 770 374 770Q462 770 523 749Q584 728 621.5 688.5Q659 649 676 592.5Q693 536 693 465V210Q744 210 768.5 191Q793 172 793 119V30Q793 0 763 0ZM295 355H442L441 485Q440 523 419.5 539Q399 555 369 555Q339 555 318.5 539Q298 523 297 485ZM464 850Q470 836 464 828Q458 820 443 820H283Q267 820 259 829L173 930Q163 941 169 950.5Q175 960 190 960H396Q417 960 423 945Z" glyph-name="Agrave.round.end" horiz-adv-x="803" unicode="&#59753;" /><glyph d="M214 731Q220 750 243 750H548Q572 750 577 731L780 38Q784 24 778 12Q772 0 752 0H518Q494 0 489 22L473 100H302L286 22Q281 0 257 0H43Q23 0 17 12Q11 24 15 38ZM337 270H438L393 490H383ZM209 820Q179 820 179 850V930Q179 960 209 960H569Q599 960 599 930V850Q599 820 569 820Z" glyph-name="Amacron" horiz-adv-x="796" unicode="&#256;" /><glyph d="M65 0Q35 0 35 30V465Q35 536 54 592.5Q73 649 114.5 688.5Q156 728 220 749Q284 770 374 770Q462 770 524.5 749Q587 728 626.5 688.5Q666 649 684.5 592.5Q703 536 703 465V30Q703 0 673 0H476Q446 0 446 30L444 185H294L292 30Q292 0 262 0ZM295 355H442L441 485Q440 523 419.5 539Q399 555 369 555Q339 555 318.5 539Q298 523 297 485ZM192 820Q162 820 162 850V930Q162 960 192 960H552Q582 960 582 930V850Q582 820 552 820Z" glyph-name="Amacron.round" horiz-adv-x="738" unicode="&#59765;" /><glyph d="M476 0Q446 0 446 30L444 185H294L292 30Q292 0 262 0H65Q35 0 35 30V465Q35 536 54 592.5Q73 649 114.5 688.5Q156 728 220 749Q284 770 374 770Q462 770 523 749Q584 728 621.5 688.5Q659 649 676 592.5Q693 536 693 465V210Q744 210 768.5 191Q793 172 793 119V30Q793 0 763 0ZM295 355H442L441 485Q440 523 419.5 539Q399 555 369 555Q339 555 318.5 539Q298 523 297 485ZM190 820Q160 820 160 850V930Q160 960 190 960H550Q580 960 580 930V850Q580 820 550 820Z" glyph-name="Amacron.round.end" horiz-adv-x="807" unicode="&#59766;" /><glyph d="M677 -258Q611 -258 579.5 -230Q548 -202 548 -151Q548 -127 559.5 -102Q571 -77 586.5 -56Q602 -35 619 -20Q636 -5 647 0H518Q494 0 489 22L473 100H302L286 22Q281 0 257 0H43Q23 0 17 12Q11 24 15 38L214 731Q220 750 243 750H548Q572 750 577 731L780 38Q783 27 780.5 17.5Q778 8 768 3Q735 -23 714.5 -43.5Q694 -64 682.5 -80.5Q671 -97 667 -110.5Q663 -124 663 -136Q663 -147 671 -157.5Q679 -168 694 -168Q701 -168 706.5 -165.5Q712 -163 719 -163Q729 -163 739 -175L763 -200Q783 -222 762 -237Q748 -247 724 -252.5Q700 -258 677 -258ZM337 270H438L393 490H383Z" glyph-name="Aogonek" horiz-adv-x="796" unicode="&#260;" /><glyph d="M598 -258Q532 -258 500.5 -230Q469 -202 469 -151Q469 -127 480.5 -102Q492 -77 507.5 -56Q523 -35 540 -20Q557 -5 568 0H476Q446 0 446 30L444 185H294L292 30Q292 0 262 0H65Q35 0 35 30V465Q35 536 54 592.5Q73 649 114.5 688.5Q156 728 220 749Q284 770 374 770Q462 770 524.5 749Q587 728 626.5 688.5Q666 649 684.5 592.5Q703 536 703 465V30Q703 8 688 2Q656 -24 635.5 -44Q615 -64 603.5 -80.5Q592 -97 588 -110.5Q584 -124 584 -136Q584 -147 592 -157.5Q600 -168 615 -168Q622 -168 627.5 -165.5Q633 -163 640 -163Q650 -163 660 -175L684 -200Q704 -222 683 -237Q669 -247 645 -252.5Q621 -258 598 -258ZM295 355H442L441 485Q440 523 419.5 539Q399 555 369 555Q339 555 318.5 539Q298 523 297 485Z" glyph-name="Aogonek.round" horiz-adv-x="738" unicode="&#59779;" /><glyph d="M688 -258Q622 -258 590.5 -230Q559 -202 559 -151Q559 -127 570.5 -102Q582 -77 597.5 -56Q613 -35 630 -20Q647 -5 658 0H476Q446 0 446 30L444 185H294L292 30Q292 0 262 0H65Q35 0 35 30V465Q35 536 54 592.5Q73 649 114.5 688.5Q156 728 220 749Q284 770 374 770Q462 770 523 749Q584 728 621.5 688.5Q659 649 676 592.5Q693 536 693 465V210Q744 210 768.5 191Q793 172 793 119V30Q793 8 778 2Q746 -24 725.5 -44Q705 -64 693.5 -80.5Q682 -97 678 -110.5Q674 -124 674 -136Q674 -147 682 -157.5Q690 -168 705 -168Q712 -168 717.5 -165.5Q723 -163 730 -163Q740 -163 750 -175L774 -200Q794 -222 773 -237Q759 -247 735 -252.5Q711 -258 688 -258ZM295 355H442L441 485Q440 523 419.5 539Q399 555 369 555Q339 555 318.5 539Q298 523 297 485Z" glyph-name="Aogonek.round.end" horiz-adv-x="807" unicode="&#59780;" /><glyph d="M207 745Q165 779 165 840Q165 908 225.5 947Q286 986 392 986Q498 986 555.5 953Q613 920 613 847Q613 786 566 748L780 38Q785 24 778.5 12Q772 0 752 0H518Q494 0 489 22L474 100H302L286 22Q281 0 257 0H43Q23 0 17 12Q11 24 15 38ZM335 270H440L393 510H383ZM389 804Q410 804 424 812.5Q438 821 438 842Q438 863 424 872Q410 881 389 881Q368 881 354 872Q340 863 340 842Q340 821 354 812.5Q368 804 389 804Z" glyph-name="Aring" horiz-adv-x="796" unicode="&#197;" /><glyph d="M594 847Q594 780 540 743Q626 709 664.5 638.5Q703 568 703 465V30Q703 0 673 0H476Q446 0 446 30L444 185H294L292 30Q292 0 262 0H65Q35 0 35 30V465Q35 565 72.5 635Q110 705 195 740Q146 774 146 840Q146 908 206.5 947Q267 986 373 986Q479 986 536.5 953Q594 920 594 847ZM295 355H442L441 485Q440 523 419.5 539Q399 555 369 555Q339 555 318.5 539Q298 523 297 485ZM370 804Q391 804 405 812.5Q419 821 419 842Q419 863 405 872Q391 881 370 881Q349 881 335 872Q321 863 321 842Q321 821 335 812.5Q349 804 370 804Z" glyph-name="Aring.round" horiz-adv-x="738" unicode="&#59792;" /><glyph d="M594 847Q594 813 579.5 787Q565 761 539 742Q623 709 658 638.5Q693 568 693 465V210Q744 210 768.5 191Q793 172 793 119V30Q793 0 763 0H476Q446 0 446 30L444 185H294L292 30Q292 0 262 0H65Q35 0 35 30V465Q35 565 72.5 635Q110 705 195 740Q146 774 146 840Q146 908 206.5 947Q267 986 373 986Q479 986 536.5 953Q594 920 594 847ZM295 355H442L441 485Q440 523 419.5 539Q399 555 369 555Q339 555 318.5 539Q298 523 297 485ZM370 804Q391 804 405 812.5Q419 821 419 842Q419 863 405 872Q391 881 370 881Q349 881 335 872Q321 863 321 842Q321 821 335 812.5Q349 804 370 804Z" glyph-name="Aring.round.end" horiz-adv-x="803" unicode="&#59793;" /><glyph d="M214 731Q220 750 243 750H548Q572 750 577 731L780 38Q784 24 778 12Q772 0 752 0H518Q494 0 489 22L473 100H302L286 22Q281 0 257 0H43Q23 0 17 12Q11 24 15 38ZM337 270H438L393 490H383ZM627 919Q623 902 613 880.5Q603 859 585 839.5Q567 820 539.5 807Q512 794 473 794Q424 794 398.5 807Q373 820 352 836Q343 843 332.5 848.5Q322 854 303 854Q288 854 280 845.5Q272 837 268 827Q265 819 259 813.5Q253 808 240 810L171 817Q150 819 148.5 829Q147 839 149 849Q154 866 163.5 887.5Q173 909 191 928.5Q209 948 236.5 961Q264 974 303 974Q352 974 377.5 961Q403 948 424 932Q433 925 443.5 919.5Q454 914 473 914Q487 914 495.5 922.5Q504 931 508 941Q511 949 517 954.5Q523 960 536 958L605 951Q626 949 627.5 939Q629 929 627 919Z" glyph-name="Atilde" horiz-adv-x="796" unicode="&#195;" /><glyph d="M65 0Q35 0 35 30V465Q35 536 54 592.5Q73 649 114.5 688.5Q156 728 220 749Q284 770 374 770Q462 770 524.5 749Q587 728 626.5 688.5Q666 649 684.5 592.5Q703 536 703 465V30Q703 0 673 0H476Q446 0 446 30L444 185H294L292 30Q292 0 262 0ZM295 355H442L441 485Q440 523 419.5 539Q399 555 369 555Q339 555 318.5 539Q298 523 297 485ZM610 919Q606 902 596 880.5Q586 859 568 839.5Q550 820 522.5 807Q495 794 456 794Q407 794 381.5 807Q356 820 335 836Q326 843 315.5 848.5Q305 854 286 854Q271 854 263 845.5Q255 837 251 827Q248 819 242 813.5Q236 808 223 810L154 817Q133 819 131.5 829Q130 839 132 849Q137 866 146.5 887.5Q156 909 174 928.5Q192 948 219.5 961Q247 974 286 974Q335 974 360.5 961Q386 948 407 932Q416 925 426.5 919.5Q437 914 456 914Q470 914 478.5 922.5Q487 931 491 941Q494 949 500 954.5Q506 960 519 958L588 951Q609 949 610.5 939Q612 929 610 919Z" glyph-name="Atilde.round" horiz-adv-x="738" unicode="&#59800;" /><glyph d="M476 0Q446 0 446 30L444 185H294L292 30Q292 0 262 0H65Q35 0 35 30V465Q35 536 54 592.5Q73 649 114.5 688.5Q156 728 220 749Q284 770 374 770Q462 770 523 749Q584 728 621.5 688.5Q659 649 676 592.5Q693 536 693 465V210Q744 210 768.5 191Q793 172 793 119V30Q793 0 763 0ZM295 355H442L441 485Q440 523 419.5 539Q399 555 369 555Q339 555 318.5 539Q298 523 297 485ZM610 929Q606 912 596 890.5Q586 869 568 849.5Q550 830 522.5 817Q495 804 456 804Q407 804 381.5 817Q356 830 335 846Q326 853 315.5 858.5Q305 864 286 864Q271 864 263 855.5Q255 847 251 837Q248 829 242 823.5Q236 818 223 820L154 827Q133 829 131.5 839Q130 849 132 859Q137 876 146.5 897.5Q156 919 174 938.5Q192 958 219.5 971Q247 984 286 984Q335 984 360.5 971Q386 958 407 942Q416 935 426.5 929.5Q437 924 456 924Q470 924 478.5 932.5Q487 941 491 951Q494 959 500 964.5Q506 970 519 968L588 961Q609 959 610.5 949Q612 939 610 929Z" glyph-name="Atilde.round.end" horiz-adv-x="803" unicode="&#59801;" /><glyph d="M349 455Q379 455 399 467.5Q419 480 419 510Q419 540 399 552.5Q379 565 349 565H301V455ZM349 185Q379 185 399 197.5Q419 210 419 240Q419 270 399 282.5Q379 295 349 295H301V185ZM40 720Q40 750 70 750H412Q474 750 525.5 738.5Q577 727 614.5 703.5Q652 680 673 645.5Q694 611 694 565Q694 526 682.5 495.5Q671 465 654 442.5Q637 420 616.5 405.5Q596 391 579 385Q599 379 620.5 368Q642 357 661 337Q680 317 692 286.5Q704 256 704 211Q704 154 680 114Q656 74 616 48.5Q576 23 523 11.5Q470 0 412 0H70Q40 0 40 30Z" glyph-name="B" horiz-adv-x="724" unicode="B" /><glyph d="M632 -4Q630 -4 615 -6.5Q600 -9 575 -12Q550 -15 516.5 -17.5Q483 -20 444 -20Q339 -20 259 8Q179 36 125 86.5Q71 137 43 208Q15 279 15 365Q15 455 43.5 529.5Q72 604 128 657.5Q184 711 267 740.5Q350 770 460 770Q487 770 513.5 768Q540 766 563 763Q586 760 603 757.5Q620 755 627 754Q652 750 652 724V560Q652 545 642.5 537.5Q633 530 619 533Q615 534 599.5 537.5Q584 541 563 545Q542 549 518.5 552Q495 555 475 555Q438 555 405.5 544Q373 533 350 511.5Q327 490 313.5 458Q300 426 300 385Q300 291 351.5 245.5Q403 200 485 200Q508 200 531.5 202.5Q555 205 575 208.5Q595 212 608.5 215Q622 218 624 218Q638 221 647.5 213Q657 205 657 190V26Q657 0 632 -4Z" glyph-name="C" horiz-adv-x="687" unicode="C" /><glyph d="M632 -4Q630 -4 615 -6.5Q600 -9 575 -12Q550 -15 516.5 -17.5Q483 -20 444 -20Q339 -20 259 8Q179 36 125 86.5Q71 137 43 208Q15 279 15 365Q15 455 43.5 529.5Q72 604 128 657.5Q184 711 267 740.5Q350 770 460 770Q487 770 513.5 768Q540 766 563 763Q586 760 603 757.5Q620 755 627 754Q652 750 652 724V560Q652 545 642.5 537.5Q633 530 619 533Q615 534 599.5 537.5Q584 541 563 545Q542 549 518.5 552Q495 555 475 555Q438 555 405.5 544Q373 533 350 511.5Q327 490 313.5 458Q300 426 300 385Q300 291 351.5 245.5Q403 200 485 200Q508 200 531.5 202.5Q555 205 575 208.5Q595 212 608.5 215Q622 218 624 218Q638 221 647.5 213Q657 205 657 190V26Q657 0 632 -4ZM354 945Q360 960 381 960H587Q602 960 608 950.5Q614 941 604 930L518 829Q511 820 494 820H334Q319 820 313 828Q307 836 313 850Z" glyph-name="Cacute" horiz-adv-x="687" unicode="&#262;" /><glyph d="M632 -4Q630 -4 615 -6.5Q600 -9 575 -12Q550 -15 516.5 -17.5Q483 -20 444 -20Q339 -20 259 8Q179 36 125 86.5Q71 137 43 208Q15 279 15 365Q15 455 43.5 529.5Q72 604 128 657.5Q184 711 267 740.5Q350 770 460 770Q487 770 513.5 768Q540 766 563 763Q586 760 603 757.5Q620 755 627 754Q652 750 652 724V560Q652 545 642.5 537.5Q633 530 619 533Q615 534 599.5 537.5Q584 541 563 545Q542 549 518.5 552Q495 555 475 555Q438 555 405.5 544Q373 533 350 511.5Q327 490 313.5 458Q300 426 300 385Q300 291 351.5 245.5Q403 200 485 200Q508 200 531.5 202.5Q555 205 575 208.5Q595 212 608.5 215Q622 218 624 218Q638 221 647.5 213Q657 205 657 190V26Q657 0 632 -4ZM459 945Q464 960 486 960H657Q672 960 678 950.5Q684 941 674 930L574 829Q567 820 550 820H318Q302 820 294 829L194 930Q183 941 189.5 950.5Q196 960 211 960H382Q405 960 409 945L429 876H438Z" glyph-name="Ccaron" horiz-adv-x="687" unicode="&#268;" /><glyph d="M632 -4Q630 -4 615 -6.5Q600 -9 575 -12Q550 -15 516.5 -17.5Q483 -20 444 -20Q339 -20 259 8Q179 36 125 86.5Q71 137 43 208Q15 279 15 365Q15 455 43.5 529.5Q72 604 128 657.5Q184 711 267 740.5Q350 770 460 770Q487 770 513.5 768Q540 766 563 763Q586 760 603 757.5Q620 755 627 754Q652 750 652 724V560Q652 545 642.5 537.5Q633 530 619 533Q615 534 599.5 537.5Q584 541 563 545Q542 549 518.5 552Q495 555 475 555Q438 555 405.5 544Q373 533 350 511.5Q327 490 313.5 458Q300 426 300 385Q300 291 351.5 245.5Q403 200 485 200Q508 200 531.5 202.5Q555 205 575 208.5Q595 212 608.5 215Q622 218 624 218Q638 221 647.5 213Q657 205 657 190V26Q657 0 632 -4ZM339 -60Q333 -36 359 -28Q370 -25 382 -22.5Q394 -20 407 -20Q465 -20 501 -52.5Q537 -85 537 -136Q537 -161 528 -183.5Q519 -206 501.5 -222.5Q484 -239 460 -248.5Q436 -258 406 -258Q383 -258 365 -252Q347 -246 336 -237Q317 -221 337 -200L361 -175Q376 -158 389 -165Q395 -168 406 -168Q421 -168 429 -157.5Q437 -147 437 -136Q437 -122 427 -114Q417 -106 403 -106Q395 -106 387 -107Q379 -108 372 -110Q354 -114 349 -95Z" glyph-name="Ccedilla" horiz-adv-x="687" unicode="&#199;" /><glyph d="M632 -4Q630 -4 615 -6.5Q600 -9 575 -12Q550 -15 516.5 -17.5Q483 -20 444 -20Q339 -20 259 8Q179 36 125 86.5Q71 137 43 208Q15 279 15 365Q15 455 43.5 529.5Q72 604 128 657.5Q184 711 267 740.5Q350 770 460 770Q487 770 513.5 768Q540 766 563 763Q586 760 603 757.5Q620 755 627 754Q652 750 652 724V560Q652 545 642.5 537.5Q633 530 619 533Q615 534 599.5 537.5Q584 541 563 545Q542 549 518.5 552Q495 555 475 555Q438 555 405.5 544Q373 533 350 511.5Q327 490 313.5 458Q300 426 300 385Q300 291 351.5 245.5Q403 200 485 200Q508 200 531.5 202.5Q555 205 575 208.5Q595 212 608.5 215Q622 218 624 218Q638 221 647.5 213Q657 205 657 190V26Q657 0 632 -4ZM399 904H390L370 835Q366 820 343 820H172Q157 820 150.5 829.5Q144 839 155 850L255 951Q263 960 279 960H511Q528 960 535 951L635 850Q645 839 639 829.5Q633 820 618 820H447Q425 820 420 835Z" glyph-name="Ccircumflex" horiz-adv-x="687" unicode="&#264;" /><glyph d="M513 375Q513 411 505 441.5Q497 472 477.5 494Q458 516 425.5 528.5Q393 541 345 541H311V210H345Q393 210 425.5 222.5Q458 235 477.5 256.5Q497 278 505 308.5Q513 339 513 375ZM314 750Q413 750 501 732.5Q589 715 654 672.5Q719 630 757 560Q795 490 795 385Q795 280 758.5 206.5Q722 133 657.5 87.5Q593 42 505 21Q417 0 314 0H70Q40 0 40 30V720Q40 750 70 750Z" glyph-name="D" horiz-adv-x="810" unicode="D" /><glyph d="M513 375Q513 411 505 441.5Q497 472 477.5 494Q458 516 425.5 528.5Q393 541 345 541H311V210H345Q393 210 425.5 222.5Q458 235 477.5 256.5Q497 278 505 308.5Q513 339 513 375ZM314 750Q413 750 501 732.5Q589 715 654 672.5Q719 630 757 560Q795 490 795 385Q795 280 758.5 206.5Q722 133 657.5 87.5Q593 42 505 21Q417 0 314 0H70Q40 0 40 30V720Q40 750 70 750ZM411 945Q416 960 438 960H609Q624 960 630 950.5Q636 941 626 930L526 829Q519 820 502 820H270Q254 820 246 829L146 930Q135 941 141.5 950.5Q148 960 163 960H334Q357 960 361 945L381 876H390Z" glyph-name="Dcaron" horiz-adv-x="810" unicode="&#270;" /><glyph d="M304 750Q403 750 491 732.5Q579 715 644 672.5Q709 630 747 560Q785 490 785 385Q785 280 748.5 206.5Q712 133 647.5 87.5Q583 42 495 21Q407 0 304 0H70Q40 0 40 30V290H20Q-10 290 -10 320V430Q-10 460 20 460H40V720Q40 750 70 750ZM301 290V210H335Q383 210 415.5 222.5Q448 235 467.5 256.5Q487 278 495 308.5Q503 339 503 375Q503 411 495 441.5Q487 472 467.5 494Q448 516 415.5 528.5Q383 541 335 541H301V460H350Q380 460 380 430V320Q380 290 350 290Z" glyph-name="Dcroat" horiz-adv-x="800" unicode="&#272;" /><glyph d="M333 210H442L393 410H383ZM253 731Q259 750 282 750H509Q533 750 538 731L778 38Q783 24 776.5 12Q770 0 750 0H46Q26 0 19.5 12Q13 24 18 38Z" glyph-name="Delta" horiz-adv-x="796" unicode="&#8710;" /><glyph d="M70 0Q40 0 40 30V720Q40 750 70 750H602Q632 750 632 720V570Q632 540 602 540H311V463H592Q622 463 622 433V315Q622 285 592 285H311V210H602Q632 210 632 180V30Q632 0 602 0Z" glyph-name="E" horiz-adv-x="662" unicode="E" /><glyph d="M502 281Q478 282 455 283Q434 284 413 284.5Q392 285 375 285Q345 285 325 273Q305 261 305 234Q305 205 327.5 192.5Q350 180 400 180Q425 180 454 183.5Q483 187 509 191Q535 195 554 198.5Q573 202 578 203Q592 205 602 199Q612 193 612 176V26Q612 1 594 -2Q588 -3 567 -6Q546 -9 512.5 -12Q479 -15 435.5 -17.5Q392 -20 342 -20Q276 -20 217.5 -8Q159 4 115 30Q71 56 45.5 98.5Q20 141 20 201Q20 246 32 278Q44 310 63 332Q82 354 104 366.5Q126 379 145 385Q128 391 107 405.5Q86 420 68 442.5Q50 465 37.5 495.5Q25 526 25 565Q25 615 50 653Q75 691 118 717Q161 743 219 756.5Q277 770 342 770Q392 770 436 767.5Q480 765 513.5 762Q547 759 568.5 756Q590 753 594 752Q612 749 612 724V574Q612 557 602 551Q592 545 578 547Q574 548 555.5 551.5Q537 555 511.5 559Q486 563 456.5 566.5Q427 570 400 570Q305 570 305 518Q305 488 325 475.5Q345 463 375 463Q392 463 414 463.5Q436 464 455 465Q478 466 502 467Q532 467 532 437V311Q532 281 502 281Z" glyph-name="E.round" horiz-adv-x="632" unicode="&#61448;" /><glyph d="M70 0Q40 0 40 30V720Q40 750 70 750H602Q632 750 632 720V570Q632 540 602 540H311V463H592Q622 463 622 433V315Q622 285 592 285H311V210H602Q632 210 632 180V30Q632 0 602 0ZM292 945Q298 960 319 960H525Q540 960 546 950.5Q552 941 542 930L456 829Q449 820 432 820H272Q257 820 251 828Q245 836 251 850Z" glyph-name="Eacute" horiz-adv-x="662" unicode="&#201;" /><glyph d="M502 281Q478 282 455 283Q434 284 413 284.5Q392 285 375 285Q345 285 325 273Q305 261 305 234Q305 205 327.5 192.5Q350 180 400 180Q425 180 454 183.5Q483 187 509 191Q535 195 554 198.5Q573 202 578 203Q592 205 602 199Q612 193 612 176V26Q612 1 594 -2Q588 -3 567 -6Q546 -9 512.5 -12Q479 -15 435.5 -17.5Q392 -20 342 -20Q276 -20 217.5 -8Q159 4 115 30Q71 56 45.5 98.5Q20 141 20 201Q20 246 32 278Q44 310 63 332Q82 354 104 366.5Q126 379 145 385Q128 391 107 405.5Q86 420 68 442.5Q50 465 37.5 495.5Q25 526 25 565Q25 615 50 653Q75 691 118 717Q161 743 219 756.5Q277 770 342 770Q392 770 436 767.5Q480 765 513.5 762Q547 759 568.5 756Q590 753 594 752Q612 749 612 724V574Q612 557 602 551Q592 545 578 547Q574 548 555.5 551.5Q537 555 511.5 559Q486 563 456.5 566.5Q427 570 400 570Q305 570 305 518Q305 488 325 475.5Q345 463 375 463Q392 463 414 463.5Q436 464 455 465Q478 466 502 467Q532 467 532 437V311Q532 281 502 281ZM259 945Q265 960 286 960H492Q507 960 513 950.5Q519 941 509 930L423 829Q416 820 399 820H239Q224 820 218 828Q212 836 218 850Z" glyph-name="Eacute.round" horiz-adv-x="632" unicode="&#61457;" /><glyph d="M70 0Q40 0 40 30V720Q40 750 70 750H602Q632 750 632 720V570Q632 540 602 540H311V463H592Q622 463 622 433V315Q622 285 592 285H311V210H602Q632 210 632 180V30Q632 0 602 0ZM361 945Q366 960 388 960H559Q574 960 580 950.5Q586 941 576 930L476 829Q469 820 452 820H220Q204 820 196 829L96 930Q85 941 91.5 950.5Q98 960 113 960H284Q307 960 311 945L331 876H340Z" glyph-name="Ecaron" horiz-adv-x="662" unicode="&#282;" /><glyph d="M502 281Q478 282 455 283Q434 284 413 284.5Q392 285 375 285Q345 285 325 273Q305 261 305 234Q305 205 327.5 192.5Q350 180 400 180Q425 180 454 183.5Q483 187 509 191Q535 195 554 198.5Q573 202 578 203Q592 205 602 199Q612 193 612 176V26Q612 1 594 -2Q588 -3 567 -6Q546 -9 512.5 -12Q479 -15 435.5 -17.5Q392 -20 342 -20Q276 -20 217.5 -8Q159 4 115 30Q71 56 45.5 98.5Q20 141 20 201Q20 246 32 278Q44 310 63 332Q82 354 104 366.5Q126 379 145 385Q128 391 107 405.5Q86 420 68 442.5Q50 465 37.5 495.5Q25 526 25 565Q25 615 50 653Q75 691 118 717Q161 743 219 756.5Q277 770 342 770Q392 770 436 767.5Q480 765 513.5 762Q547 759 568.5 756Q590 753 594 752Q612 749 612 724V574Q612 557 602 551Q592 545 578 547Q574 548 555.5 551.5Q537 555 511.5 559Q486 563 456.5 566.5Q427 570 400 570Q305 570 305 518Q305 488 325 475.5Q345 463 375 463Q392 463 414 463.5Q436 464 455 465Q478 466 502 467Q532 467 532 437V311Q532 281 502 281ZM371 945Q376 960 398 960H569Q584 960 590 950.5Q596 941 586 930L486 829Q479 820 462 820H230Q214 820 206 829L106 930Q95 941 101.5 950.5Q108 960 123 960H294Q317 960 321 945L341 876H350Z" glyph-name="Ecaron.round" horiz-adv-x="632" unicode="&#61460;" /><glyph d="M70 0Q40 0 40 30V720Q40 750 70 750H602Q632 750 632 720V570Q632 540 602 540H311V463H592Q622 463 622 433V315Q622 285 592 285H311V210H602Q632 210 632 180V30Q632 0 602 0ZM354 904H345L325 835Q321 820 298 820H127Q112 820 105.5 829.5Q99 839 110 850L210 951Q218 960 234 960H466Q483 960 490 951L590 850Q600 839 594 829.5Q588 820 573 820H402Q380 820 375 835Z" glyph-name="Ecircumflex" horiz-adv-x="662" unicode="&#202;" /><glyph d="M502 281Q478 282 455 283Q434 284 413 284.5Q392 285 375 285Q345 285 325 273Q305 261 305 234Q305 205 327.5 192.5Q350 180 400 180Q425 180 454 183.5Q483 187 509 191Q535 195 554 198.5Q573 202 578 203Q592 205 602 199Q612 193 612 176V26Q612 1 594 -2Q588 -3 567 -6Q546 -9 512.5 -12Q479 -15 435.5 -17.5Q392 -20 342 -20Q276 -20 217.5 -8Q159 4 115 30Q71 56 45.5 98.5Q20 141 20 201Q20 246 32 278Q44 310 63 332Q82 354 104 366.5Q126 379 145 385Q128 391 107 405.5Q86 420 68 442.5Q50 465 37.5 495.5Q25 526 25 565Q25 615 50 653Q75 691 118 717Q161 743 219 756.5Q277 770 342 770Q392 770 436 767.5Q480 765 513.5 762Q547 759 568.5 756Q590 753 594 752Q612 749 612 724V574Q612 557 602 551Q592 545 578 547Q574 548 555.5 551.5Q537 555 511.5 559Q486 563 456.5 566.5Q427 570 400 570Q305 570 305 518Q305 488 325 475.5Q345 463 375 463Q392 463 414 463.5Q436 464 455 465Q478 466 502 467Q532 467 532 437V311Q532 281 502 281ZM331 904H322L302 835Q298 820 275 820H104Q89 820 82.5 829.5Q76 839 87 850L187 951Q195 960 211 960H443Q460 960 467 951L567 850Q577 839 571 829.5Q565 820 550 820H379Q357 820 352 835Z" glyph-name="Ecircumflex.round" horiz-adv-x="632" unicode="&#61463;" /><glyph d="M315 883Q315 839 285 815.5Q255 792 207 792Q158 792 130 814Q102 836 102 879Q102 921 132 945.5Q162 970 211 970Q259 970 287 948.5Q315 927 315 883ZM596 883Q596 839 566 815.5Q536 792 488 792Q439 792 411 814Q383 836 383 879Q383 921 413 945.5Q443 970 492 970Q540 970 568 948.5Q596 927 596 883ZM70 0Q40 0 40 30V720Q40 750 70 750H602Q632 750 632 720V570Q632 540 602 540H311V463H592Q622 463 622 433V315Q622 285 592 285H311V210H602Q632 210 632 180V30Q632 0 602 0Z" glyph-name="Edieresis" horiz-adv-x="662" unicode="&#203;" /><glyph d="M305 883Q305 839 275 815.5Q245 792 197 792Q148 792 120 814Q92 836 92 879Q92 921 122 945.5Q152 970 201 970Q249 970 277 948.5Q305 927 305 883ZM586 883Q586 839 556 815.5Q526 792 478 792Q429 792 401 814Q373 836 373 879Q373 921 403 945.5Q433 970 482 970Q530 970 558 948.5Q586 927 586 883ZM502 281Q478 282 455 283Q434 284 413 284.5Q392 285 375 285Q345 285 325 273Q305 261 305 234Q305 205 327.5 192.5Q350 180 400 180Q425 180 454 183.5Q483 187 509 191Q535 195 554 198.5Q573 202 578 203Q592 205 602 199Q612 193 612 176V26Q612 1 594 -2Q588 -3 567 -6Q546 -9 512.5 -12Q479 -15 435.5 -17.5Q392 -20 342 -20Q276 -20 217.5 -8Q159 4 115 30Q71 56 45.5 98.5Q20 141 20 201Q20 246 32 278Q44 310 63 332Q82 354 104 366.5Q126 379 145 385Q128 391 107 405.5Q86 420 68 442.5Q50 465 37.5 495.5Q25 526 25 565Q25 615 50 653Q75 691 118 717Q161 743 219 756.5Q277 770 342 770Q392 770 436 767.5Q480 765 513.5 762Q547 759 568.5 756Q590 753 594 752Q612 749 612 724V574Q612 557 602 551Q592 545 578 547Q574 548 555.5 551.5Q537 555 511.5 559Q486 563 456.5 566.5Q427 570 400 570Q305 570 305 518Q305 488 325 475.5Q345 463 375 463Q392 463 414 463.5Q436 464 455 465Q478 466 502 467Q532 467 532 437V311Q532 281 502 281Z" glyph-name="Edieresis.round" horiz-adv-x="632" unicode="&#61473;" /><glyph d="M474 897Q474 840 438.5 814.5Q403 789 345 789Q287 789 254 812.5Q221 836 221 892Q221 946 256.5 973Q292 1000 350 1000Q408 1000 441 977Q474 954 474 897ZM70 0Q40 0 40 30V720Q40 750 70 750H602Q632 750 632 720V570Q632 540 602 540H311V463H592Q622 463 622 433V315Q622 285 592 285H311V210H602Q632 210 632 180V30Q632 0 602 0Z" glyph-name="Edotaccent" horiz-adv-x="662" unicode="&#278;" /><glyph d="M476 897Q476 840 440.5 814.5Q405 789 347 789Q289 789 256 812.5Q223 836 223 892Q223 946 258.5 973Q294 1000 352 1000Q410 1000 443 977Q476 954 476 897ZM502 281Q478 282 455 283Q434 284 413 284.5Q392 285 375 285Q345 285 325 273Q305 261 305 234Q305 205 327.5 192.5Q350 180 400 180Q425 180 454 183.5Q483 187 509 191Q535 195 554 198.5Q573 202 578 203Q592 205 602 199Q612 193 612 176V26Q612 1 594 -2Q588 -3 567 -6Q546 -9 512.5 -12Q479 -15 435.5 -17.5Q392 -20 342 -20Q276 -20 217.5 -8Q159 4 115 30Q71 56 45.5 98.5Q20 141 20 201Q20 246 32 278Q44 310 63 332Q82 354 104 366.5Q126 379 145 385Q128 391 107 405.5Q86 420 68 442.5Q50 465 37.5 495.5Q25 526 25 565Q25 615 50 653Q75 691 118 717Q161 743 219 756.5Q277 770 342 770Q392 770 436 767.5Q480 765 513.5 762Q547 759 568.5 756Q590 753 594 752Q612 749 612 724V574Q612 557 602 551Q592 545 578 547Q574 548 555.5 551.5Q537 555 511.5 559Q486 563 456.5 566.5Q427 570 400 570Q305 570 305 518Q305 488 325 475.5Q345 463 375 463Q392 463 414 463.5Q436 464 455 465Q478 466 502 467Q532 467 532 437V311Q532 281 502 281Z" glyph-name="Edotaccent.round" horiz-adv-x="632" unicode="&#61475;" /><glyph d="M70 0Q40 0 40 30V720Q40 750 70 750H602Q632 750 632 720V570Q632 540 602 540H311V463H592Q622 463 622 433V315Q622 285 592 285H311V210H602Q632 210 632 180V30Q632 0 602 0ZM465 850Q471 836 465 828Q459 820 444 820H284Q268 820 260 829L174 930Q164 941 170 950.5Q176 960 191 960H397Q418 960 424 945Z" glyph-name="Egrave" horiz-adv-x="662" unicode="&#200;" /><glyph d="M502 281Q478 282 455 283Q434 284 413 284.5Q392 285 375 285Q345 285 325 273Q305 261 305 234Q305 205 327.5 192.5Q350 180 400 180Q425 180 454 183.5Q483 187 509 191Q535 195 554 198.5Q573 202 578 203Q592 205 602 199Q612 193 612 176V26Q612 1 594 -2Q588 -3 567 -6Q546 -9 512.5 -12Q479 -15 435.5 -17.5Q392 -20 342 -20Q276 -20 217.5 -8Q159 4 115 30Q71 56 45.5 98.5Q20 141 20 201Q20 246 32 278Q44 310 63 332Q82 354 104 366.5Q126 379 145 385Q128 391 107 405.5Q86 420 68 442.5Q50 465 37.5 495.5Q25 526 25 565Q25 615 50 653Q75 691 118 717Q161 743 219 756.5Q277 770 342 770Q392 770 436 767.5Q480 765 513.5 762Q547 759 568.5 756Q590 753 594 752Q612 749 612 724V574Q612 557 602 551Q592 545 578 547Q574 548 555.5 551.5Q537 555 511.5 559Q486 563 456.5 566.5Q427 570 400 570Q305 570 305 518Q305 488 325 475.5Q345 463 375 463Q392 463 414 463.5Q436 464 455 465Q478 466 502 467Q532 467 532 437V311Q532 281 502 281ZM443 850Q449 836 443 828Q437 820 422 820H262Q246 820 238 829L152 930Q142 941 148 950.5Q154 960 169 960H375Q396 960 402 945Z" glyph-name="Egrave.round" horiz-adv-x="632" unicode="&#61478;" /><glyph d="M70 0Q40 0 40 30V720Q40 750 70 750H602Q632 750 632 720V570Q632 540 602 540H311V463H592Q622 463 622 433V315Q622 285 592 285H311V210H602Q632 210 632 180V30Q632 0 602 0ZM156 820Q126 820 126 850V930Q126 960 156 960H516Q546 960 546 930V850Q546 820 516 820Z" glyph-name="Emacron" horiz-adv-x="662" unicode="&#274;" /><glyph d="M502 281Q478 282 455 283Q434 284 413 284.5Q392 285 375 285Q345 285 325 273Q305 261 305 234Q305 205 327.5 192.5Q350 180 400 180Q425 180 454 183.5Q483 187 509 191Q535 195 554 198.5Q573 202 578 203Q592 205 602 199Q612 193 612 176V26Q612 1 594 -2Q588 -3 567 -6Q546 -9 512.5 -12Q479 -15 435.5 -17.5Q392 -20 342 -20Q276 -20 217.5 -8Q159 4 115 30Q71 56 45.5 98.5Q20 141 20 201Q20 246 32 278Q44 310 63 332Q82 354 104 366.5Q126 379 145 385Q128 391 107 405.5Q86 420 68 442.5Q50 465 37.5 495.5Q25 526 25 565Q25 615 50 653Q75 691 118 717Q161 743 219 756.5Q277 770 342 770Q392 770 436 767.5Q480 765 513.5 762Q547 759 568.5 756Q590 753 594 752Q612 749 612 724V574Q612 557 602 551Q592 545 578 547Q574 548 555.5 551.5Q537 555 511.5 559Q486 563 456.5 566.5Q427 570 400 570Q305 570 305 518Q305 488 325 475.5Q345 463 375 463Q392 463 414 463.5Q436 464 455 465Q478 466 502 467Q532 467 532 437V311Q532 281 502 281ZM166 820Q136 820 136 850V930Q136 960 166 960H526Q556 960 556 930V850Q556 820 526 820Z" glyph-name="Emacron.round" horiz-adv-x="632" unicode="&#61481;" /><glyph d="M527 -258Q461 -258 429.5 -230Q398 -202 398 -151Q398 -127 409.5 -102Q421 -77 436.5 -56Q452 -35 469 -20Q486 -5 497 0H70Q40 0 40 30V720Q40 750 70 750H602Q632 750 632 720V570Q632 540 602 540H311V463H592Q622 463 622 433V315Q622 285 592 285H311V210H602Q632 210 632 180V30Q632 8 617 2Q585 -24 564.5 -44Q544 -64 532.5 -80.5Q521 -97 517 -110.5Q513 -124 513 -136Q513 -147 521 -157.5Q529 -168 544 -168Q551 -168 556.5 -165.5Q562 -163 569 -163Q579 -163 589 -175L613 -200Q633 -222 612 -237Q598 -247 574 -252.5Q550 -258 527 -258Z" glyph-name="Eogonek" horiz-adv-x="662" unicode="&#280;" /><glyph d="M513 -258Q447 -258 415.5 -230Q384 -202 384 -151Q384 -132 391 -112.5Q398 -93 409 -75Q420 -57 433.5 -42Q447 -27 459 -16Q433 -18 403.5 -19Q374 -20 342 -20Q276 -20 217.5 -8Q159 4 115 30Q71 56 45.5 98.5Q20 141 20 201Q20 246 32 278Q44 310 63 332Q82 354 104 366.5Q126 379 145 385Q128 391 107 405.5Q86 420 68 442.5Q50 465 37.5 495.5Q25 526 25 565Q25 615 50 653Q75 691 118 717Q161 743 219 756.5Q277 770 342 770Q392 770 436 767.5Q480 765 513.5 762Q547 759 568.5 756Q590 753 594 752Q612 749 612 724V574Q612 557 602 551Q592 545 578 547Q574 548 555.5 551.5Q537 555 511.5 559Q486 563 456.5 566.5Q427 570 400 570Q305 570 305 518Q305 488 325 475.5Q345 463 375 463Q392 463 414 463.5Q436 464 455 465Q478 466 502 467Q532 467 532 437V311Q532 281 502 281Q478 282 455 283Q434 284 413 284.5Q392 285 375 285Q345 285 325 273Q305 261 305 234Q305 205 327.5 192.5Q350 180 400 180Q425 180 454 183.5Q483 187 509 191Q535 195 554 198.5Q573 202 578 203Q592 205 602 199Q612 193 612 176V26Q612 5 599 0Q568 -25 548.5 -45Q529 -65 518 -81Q507 -97 503 -110.5Q499 -124 499 -136Q499 -147 507 -157.5Q515 -168 530 -168Q537 -168 542.5 -165.5Q548 -163 555 -163Q565 -163 575 -175L599 -200Q619 -222 598 -237Q584 -247 560 -252.5Q536 -258 513 -258Z" glyph-name="Eogonek.round" horiz-adv-x="632" unicode="&#61490;" /><glyph d="M40 290H20Q-10 290 -10 320V430Q-10 460 20 460H40V720Q40 750 70 750H304Q403 750 491 732.5Q579 715 644 672.5Q709 630 747 560Q785 490 785 385Q785 280 748.5 206.5Q712 133 647.5 87.5Q583 42 495 21Q407 0 304 0H70Q40 0 40 30ZM301 290V210H335Q383 210 415.5 222.5Q448 235 467.5 256.5Q487 278 495 308.5Q503 339 503 375Q503 411 495 441.5Q487 472 467.5 494Q448 516 415.5 528.5Q383 541 335 541H301V460H350Q380 460 380 430V320Q380 290 350 290Z" glyph-name="Eth" horiz-adv-x="800" unicode="&#208;" /><glyph d="M687 -4Q685 -4 670 -6.5Q655 -9 630 -12Q605 -15 571.5 -17.5Q538 -20 499 -20Q406 -20 332.5 2Q259 24 206 64.5Q153 105 120 162.5Q87 220 76 290H50Q20 290 20 320V329Q20 359 50 359H70V391H50Q20 391 20 421V430Q20 460 50 460H78Q92 530 126 587.5Q160 645 215 685.5Q270 726 345 748Q420 770 515 770Q542 770 568.5 768Q595 766 618 763Q641 760 658 757.5Q675 755 682 754Q707 750 707 724V560Q707 545 697.5 537.5Q688 530 674 533Q670 534 654.5 537.5Q639 541 618 545Q597 549 573.5 552Q550 555 530 555Q474 555 431.5 531Q389 507 369 460H497Q527 460 527 430V421Q527 391 497 391H355Q355 380 355 372.5Q355 365 356 359H497Q527 359 527 329V320Q527 290 497 290H374Q396 244 439 222Q482 200 540 200Q563 200 586.5 202.5Q610 205 630 208.5Q650 212 663.5 215Q677 218 679 218Q693 221 702.5 213Q712 205 712 190V26Q712 0 687 -4Z" glyph-name="Euro" horiz-adv-x="742" unicode="&#8364;" /><glyph d="M70 0Q40 0 40 30V720Q40 750 70 750H565Q595 750 595 720V570Q595 540 565 540H311V463H555Q585 463 585 433V315Q585 285 555 285H311V30Q311 0 281 0Z" glyph-name="F" horiz-adv-x="615" unicode="F" /><glyph d="M60 0Q30 0 30 30V470Q30 554 52.5 608Q75 662 117.5 693.5Q160 725 221.5 737.5Q283 750 362 750H550Q580 750 580 720V570Q580 540 550 540H406Q345 540 322 522.5Q299 505 296 463L500 467Q530 467 530 437V311Q530 281 500 281L296 285V30Q296 0 266 0Z" glyph-name="F.round" horiz-adv-x="590" unicode="&#61493;" /><glyph d="M730 -3Q724 -4 699.5 -6.5Q675 -9 638 -12Q601 -15 555.5 -17.5Q510 -20 460 -20Q355 -20 272.5 4.5Q190 29 133 77Q76 125 45.5 197Q15 269 15 365Q15 561 140 665.5Q265 770 509 770Q541 770 576.5 768Q612 766 643 763Q674 760 697 757.5Q720 755 727 754Q752 750 752 724V560Q752 545 742.5 537.5Q733 530 719 533Q715 534 695 537.5Q675 541 645.5 545Q616 549 581 552Q546 555 513 555Q454 555 413 541Q372 527 347 502.5Q322 478 311 445.5Q300 413 300 375Q300 334 311 298.5Q322 263 344.5 236.5Q367 210 402 195Q437 180 485 180H558V250H467Q437 250 437 280V390Q437 420 467 420H724Q754 420 754 390V27Q754 0 730 -3Z" glyph-name="G" horiz-adv-x="784" unicode="G" /><glyph d="M730 -3Q724 -4 699.5 -6.5Q675 -9 638 -12Q601 -15 555.5 -17.5Q510 -20 460 -20Q355 -20 272.5 4.5Q190 29 133 77Q76 125 45.5 197Q15 269 15 365Q15 561 140 665.5Q265 770 509 770Q541 770 576.5 768Q612 766 643 763Q674 760 697 757.5Q720 755 727 754Q752 750 752 724V560Q752 545 742.5 537.5Q733 530 719 533Q715 534 695 537.5Q675 541 645.5 545Q616 549 581 552Q546 555 513 555Q454 555 413 541Q372 527 347 502.5Q322 478 311 445.5Q300 413 300 375Q300 334 311 298.5Q322 263 344.5 236.5Q367 210 402 195Q437 180 485 180H558V250H467Q437 250 437 280V390Q437 420 467 420H724Q754 420 754 390V27Q754 0 730 -3ZM658 930Q645 872 586 840.5Q527 809 433 809Q339 809 283 840.5Q227 872 216 930Q213 945 222 952.5Q231 960 246 960H362Q384 960 390 944Q395 930 407.5 921Q420 912 437 912Q454 912 466.5 921Q479 930 484 944Q490 960 512 960H628Q643 960 652 952.5Q661 945 658 930Z" glyph-name="Gbreve" horiz-adv-x="784" unicode="&#286;" /><glyph d="M730 -3Q724 -4 699.5 -6.5Q675 -9 638 -12Q601 -15 555.5 -17.5Q510 -20 460 -20Q355 -20 272.5 4.5Q190 29 133 77Q76 125 45.5 197Q15 269 15 365Q15 561 140 665.5Q265 770 509 770Q541 770 576.5 768Q612 766 643 763Q674 760 697 757.5Q720 755 727 754Q752 750 752 724V560Q752 545 742.5 537.5Q733 530 719 533Q715 534 695 537.5Q675 541 645.5 545Q616 549 581 552Q546 555 513 555Q454 555 413 541Q372 527 347 502.5Q322 478 311 445.5Q300 413 300 375Q300 334 311 298.5Q322 263 344.5 236.5Q367 210 402 195Q437 180 485 180H558V250H467Q437 250 437 280V390Q437 420 467 420H724Q754 420 754 390V27Q754 0 730 -3ZM441 904H432L412 835Q408 820 385 820H214Q199 820 192.5 829.5Q186 839 197 850L297 951Q305 960 321 960H553Q570 960 577 951L677 850Q687 839 681 829.5Q675 820 660 820H489Q467 820 462 835Z" glyph-name="Gcircumflex" horiz-adv-x="784" unicode="&#284;" /><glyph d="M730 -3Q724 -4 699.5 -6.5Q675 -9 638 -12Q601 -15 555.5 -17.5Q510 -20 460 -20Q355 -20 272.5 4.5Q190 29 133 77Q76 125 45.5 197Q15 269 15 365Q15 561 140 665.5Q265 770 509 770Q541 770 576.5 768Q612 766 643 763Q674 760 697 757.5Q720 755 727 754Q752 750 752 724V560Q752 545 742.5 537.5Q733 530 719 533Q715 534 695 537.5Q675 541 645.5 545Q616 549 581 552Q546 555 513 555Q454 555 413 541Q372 527 347 502.5Q322 478 311 445.5Q300 413 300 375Q300 334 311 298.5Q322 263 344.5 236.5Q367 210 402 195Q437 180 485 180H558V250H467Q437 250 437 280V390Q437 420 467 420H724Q754 420 754 390V27Q754 0 730 -3ZM362 -230Q362 -215 371.5 -212.5Q381 -210 386 -210Q419 -208 436 -198.5Q453 -189 453 -166Q448 -173 436.5 -181Q425 -189 406 -189Q379 -189 360 -174Q341 -159 341 -119Q341 -80 368.5 -56.5Q396 -33 434 -33Q480 -33 507 -61Q534 -89 534 -145Q534 -210 495.5 -236Q457 -262 394 -266Q386 -267 374 -263.5Q362 -260 362 -246Z" glyph-name="Gcommaaccent" horiz-adv-x="784" unicode="&#290;" /><glyph d="M70 0Q40 0 40 30V720Q40 750 70 750H281Q311 750 311 720V479H488V720Q488 750 518 750H729Q759 750 759 720V30Q759 0 729 0H518Q488 0 488 30V269H311V30Q311 0 281 0Z" glyph-name="H" horiz-adv-x="799" unicode="H" /><glyph d="M518 0Q488 0 488 30V269H311V30Q311 0 281 0H70Q40 0 40 30V720Q40 750 70 750H281Q311 750 311 720V479H488V720Q488 750 518 750H719Q749 750 749 720V210Q800 210 824.5 191Q849 172 849 119V30Q849 0 819 0Z" glyph-name="H.end" horiz-adv-x="859" unicode="&#61504;" /><glyph d="M70 0Q40 0 40 30V720Q40 750 70 750H281Q311 750 311 720V479H488V720Q488 750 518 750H729Q759 750 759 720V30Q759 0 729 0H518Q488 0 488 30V269H311V30Q311 0 281 0ZM404 904H395L375 835Q371 820 348 820H177Q162 820 155.5 829.5Q149 839 160 850L260 951Q268 960 284 960H516Q533 960 540 951L640 850Q650 839 644 829.5Q638 820 623 820H452Q430 820 425 835Z" glyph-name="Hcircumflex" horiz-adv-x="799" unicode="&#292;" /><glyph d="M518 0Q488 0 488 30V269H311V30Q311 0 281 0H70Q40 0 40 30V720Q40 750 70 750H281Q311 750 311 720V479H488V720Q488 750 518 750H719Q749 750 749 720V210Q800 210 824.5 191Q849 172 849 119V30Q849 0 819 0ZM404 904H395L375 835Q371 820 348 820H177Q162 820 155.5 829.5Q149 839 160 850L260 951Q268 960 284 960H516Q533 960 540 951L640 850Q650 839 644 829.5Q638 820 623 820H452Q430 820 425 835Z" glyph-name="Hcircumflex.end" horiz-adv-x="859" unicode="&#61507;" /><glyph d="M70 0Q40 0 40 30V720Q40 750 70 750H282Q312 750 312 720V30Q312 0 282 0Z" glyph-name="I" horiz-adv-x="352" unicode="I" /><glyph d="M70 0Q40 0 40 30V720Q40 750 70 750H282Q312 750 312 720V30Q312 0 282 0ZM119 945Q125 960 146 960H352Q367 960 373 950.5Q379 941 369 930L283 829Q276 820 259 820H99Q84 820 78 828Q72 836 78 850Z" glyph-name="Iacute" horiz-adv-x="405" unicode="&#205;" /><glyph d="M174 0Q144 0 144 30V720Q144 750 174 750H386Q416 750 416 720V30Q416 0 386 0ZM284 904H275L255 835Q251 820 228 820H57Q42 820 35.5 829.5Q29 839 40 850L140 951Q148 960 164 960H396Q413 960 420 951L520 850Q530 839 524 829.5Q518 820 503 820H332Q310 820 305 835Z" glyph-name="Icircumflex" horiz-adv-x="560" unicode="&#206;" /><glyph d="M223 883Q223 839 193 815.5Q163 792 115 792Q66 792 38 814Q10 836 10 879Q10 921 40 945.5Q70 970 119 970Q167 970 195 948.5Q223 927 223 883ZM504 883Q504 839 474 815.5Q444 792 396 792Q347 792 319 814Q291 836 291 879Q291 921 321 945.5Q351 970 400 970Q448 970 476 948.5Q504 927 504 883ZM153 0Q123 0 123 30V720Q123 750 153 750H365Q395 750 395 720V30Q395 0 365 0Z" glyph-name="Idieresis" horiz-adv-x="514" unicode="&#207;" /><glyph d="M303 897Q303 840 267.5 814.5Q232 789 174 789Q116 789 83 812.5Q50 836 50 892Q50 946 85.5 973Q121 1000 179 1000Q237 1000 270 977Q303 954 303 897ZM70 0Q40 0 40 30V720Q40 750 70 750H282Q312 750 312 720V30Q312 0 282 0Z" glyph-name="Idotaccent" horiz-adv-x="352" unicode="&#304;" /><glyph d="M118 0Q88 0 88 30V720Q88 750 118 750H330Q360 750 360 720V30Q360 0 330 0ZM327 850Q333 836 327 828Q321 820 306 820H146Q130 820 122 829L36 930Q26 941 32 950.5Q38 960 53 960H259Q280 960 286 945Z" glyph-name="Igrave" horiz-adv-x="400" unicode="&#204;" /><glyph d="M207 -258Q141 -258 109.5 -230Q78 -202 78 -151Q78 -127 89.5 -102Q101 -77 116.5 -56Q132 -35 149 -20Q166 -5 177 0H70Q40 0 40 30V720Q40 750 70 750H282Q312 750 312 720V30Q312 8 297 2Q265 -24 244.5 -44Q224 -64 212.5 -80.5Q201 -97 197 -110.5Q193 -124 193 -136Q193 -147 201 -157.5Q209 -168 224 -168Q231 -168 236.5 -165.5Q242 -163 249 -163Q259 -163 269 -175L293 -200Q313 -222 292 -237Q278 -247 254 -252.5Q230 -258 207 -258Z" glyph-name="Iogonek" horiz-adv-x="352" unicode="&#302;" /><glyph d="M50 210Q95 211 124 215.5Q153 220 169.5 231Q186 242 192 262Q198 282 198 314V540H50Q20 540 20 570V720Q20 750 50 750H440Q470 750 470 720V215Q470 151 450 107.5Q430 64 394.5 38Q359 12 309.5 1Q260 -10 201 -10Q150 -10 107 -7.5Q64 -5 50 -3Q20 0 20 28V180Q20 210 50 210Z" glyph-name="J" horiz-adv-x="500" unicode="J" /><glyph d="M80 210Q125 211 154 215.5Q183 220 199.5 231Q216 242 222 262Q228 282 228 314V540H80Q50 540 50 570V720Q50 750 80 750H470Q500 750 500 720V215Q500 151 480 107.5Q460 64 424.5 38Q389 12 339.5 1Q290 -10 231 -10Q180 -10 137 -7.5Q94 -5 80 -3Q50 0 50 28V180Q50 210 80 210ZM285 904H276L256 835Q252 820 229 820H58Q43 820 36.5 829.5Q30 839 41 850L141 951Q149 960 165 960H397Q414 960 421 951L521 850Q531 839 525 829.5Q519 820 504 820H333Q311 820 306 835Z" glyph-name="Jcircumflex" horiz-adv-x="560" unicode="&#308;" /><glyph d="M311 309H301V30Q301 0 271 0H70Q40 0 40 30V720Q40 750 70 750H271Q301 750 301 720V439H311L495 738Q503 750 521 750H727Q743 750 750 737.5Q757 725 749 712L550 399L744 38Q752 24 745 12Q738 0 722 0H482Q462 0 456 12Z" glyph-name="K" horiz-adv-x="778" unicode="K" /><glyph d="M70 0Q40 0 40 30V720Q40 750 70 750H281Q311 750 311 720V479H339Q368 479 389 489.5Q410 500 411 534L415 720Q415 750 445 750H665Q695 750 695 720V598Q695 549 687 513Q679 477 664 451.5Q649 426 628 410Q607 394 581 385Q574 382 566 379.5Q558 377 550 375Q558 373 566 370.5Q574 368 581 365Q607 356 628 340Q649 324 664 298.5Q679 273 687 237Q695 201 695 152V30Q695 0 665 0H446Q416 0 416 30L411 214Q410 248 389 258.5Q368 269 339 269H311V30Q311 0 281 0Z" glyph-name="K.round" horiz-adv-x="730" unicode="&#61522;" /><glyph d="M446 0Q416 0 416 30L411 214Q410 248 389 258.5Q368 269 339 269H311V30Q311 0 281 0H70Q40 0 40 30V720Q40 750 70 750H281Q311 750 311 720V479H339Q368 479 389 489.5Q410 500 411 534L415 720Q415 750 445 750H665Q695 750 695 720V598Q695 549 687 513Q679 477 664 451.5Q649 426 628 410Q607 394 581 385Q574 382 566 379.5Q558 377 550 375Q558 373 566 370.5Q574 368 581 365Q624 349 654 313.5Q684 278 685 210Q736 210 760.5 191Q785 172 785 119V30Q785 0 755 0Z" glyph-name="K.round.end" horiz-adv-x="795" unicode="&#61524;" /><glyph d="M311 309H301V30Q301 0 271 0H70Q40 0 40 30V720Q40 750 70 750H271Q301 750 301 720V439H311L495 738Q503 750 521 750H727Q743 750 750 737.5Q757 725 749 712L550 399L744 38Q752 24 745 12Q738 0 722 0H482Q462 0 456 12ZM306 -230Q306 -215 315.5 -212.5Q325 -210 330 -210Q363 -208 380 -198.5Q397 -189 397 -166Q392 -173 380.5 -181Q369 -189 350 -189Q323 -189 304 -174Q285 -159 285 -119Q285 -80 312.5 -56.5Q340 -33 378 -33Q424 -33 451 -61Q478 -89 478 -145Q478 -210 439.5 -236Q401 -262 338 -266Q330 -267 318 -263.5Q306 -260 306 -246Z" glyph-name="Kcommaaccent" horiz-adv-x="778" unicode="&#310;" /><glyph d="M70 0Q40 0 40 30V720Q40 750 70 750H281Q311 750 311 720V479H339Q368 479 389 489.5Q410 500 411 534L415 720Q415 750 445 750H665Q695 750 695 720V598Q695 549 687 513Q679 477 664 451.5Q649 426 628 410Q607 394 581 385Q574 382 566 379.5Q558 377 550 375Q558 373 566 370.5Q574 368 581 365Q607 356 628 340Q649 324 664 298.5Q679 273 687 237Q695 201 695 152V30Q695 0 665 0H446Q416 0 416 30L411 214Q410 248 389 258.5Q368 269 339 269H311V30Q311 0 281 0ZM289 -230Q289 -215 298.5 -212.5Q308 -210 313 -210Q346 -208 363 -198.5Q380 -189 380 -166Q375 -173 363.5 -181Q352 -189 333 -189Q306 -189 287 -174Q268 -159 268 -119Q268 -80 295.5 -56.5Q323 -33 361 -33Q407 -33 434 -61Q461 -89 461 -145Q461 -210 422.5 -236Q384 -262 321 -266Q313 -267 301 -263.5Q289 -260 289 -246Z" glyph-name="Kcommaaccent.round" horiz-adv-x="730" unicode="&#61528;" /><glyph d="M446 0Q416 0 416 30L411 214Q410 248 389 258.5Q368 269 339 269H311V30Q311 0 281 0H70Q40 0 40 30V720Q40 750 70 750H281Q311 750 311 720V479H339Q368 479 389 489.5Q410 500 411 534L415 720Q415 750 445 750H665Q695 750 695 720V598Q695 549 687 513Q679 477 664 451.5Q649 426 628 410Q607 394 581 385Q574 382 566 379.5Q558 377 550 375Q558 373 566 370.5Q574 368 581 365Q624 349 654 313.5Q684 278 685 210Q736 210 760.5 191Q785 172 785 119V30Q785 0 755 0ZM289 -230Q289 -215 298.5 -212.5Q308 -210 313 -210Q346 -208 363 -198.5Q380 -189 380 -166Q375 -173 363.5 -181Q352 -189 333 -189Q306 -189 287 -174Q268 -159 268 -119Q268 -80 295.5 -56.5Q323 -33 361 -33Q407 -33 434 -61Q461 -89 461 -145Q461 -210 422.5 -236Q384 -262 321 -266Q313 -267 301 -263.5Q289 -260 289 -246Z" glyph-name="Kcommaaccent.round.end" horiz-adv-x="795" unicode="&#61536;" /><glyph d="M70 0Q40 0 40 30V720Q40 750 70 750H282Q312 750 312 720V210H542Q572 210 572 180V30Q572 0 542 0Z" glyph-name="L" horiz-adv-x="592" unicode="L" /><glyph d="M272 750Q302 750 302 720V307Q302 281 306.5 262.5Q311 244 323 232.5Q335 221 356.5 215.5Q378 210 412 210H532Q562 210 562 180V30Q562 0 532 0H362Q283 0 221.5 12.5Q160 25 117.5 56.5Q75 88 52.5 142Q30 196 30 280V720Q30 750 60 750Z" glyph-name="L.round" horiz-adv-x="582" unicode="&#61539;" /><glyph d="M639 381Q639 321 601.5 294Q564 267 503 267Q442 267 407 292Q372 317 372 376Q372 433 409.5 461.5Q447 490 508 490Q569 490 604 465.5Q639 441 639 381ZM70 0Q40 0 40 30V720Q40 750 70 750H282Q312 750 312 720V210H542Q572 210 572 180V30Q572 0 542 0ZM709 0Q679 0 679 30V720Q679 750 709 750H921Q951 750 951 720V210H1181Q1211 210 1211 180V30Q1211 0 1181 0Z" glyph-name="L_L" horiz-adv-x="1231" unicode="&#63167;" /><glyph d="M628 381Q628 321 590.5 294Q553 267 492 267Q431 267 396 292Q361 317 361 376Q361 433 398.5 461.5Q436 490 497 490Q558 490 593 465.5Q628 441 628 381ZM272 750Q302 750 302 720V307Q302 281 306.5 262.5Q311 244 323 232.5Q335 221 356.5 215.5Q378 210 412 210H532Q562 210 562 180V30Q562 0 532 0H362Q283 0 221.5 12.5Q160 25 117.5 56.5Q75 88 52.5 142Q30 196 30 280V720Q30 750 60 750ZM910 750Q940 750 940 720V307Q940 281 944.5 262.5Q949 244 961 232.5Q973 221 994.5 215.5Q1016 210 1050 210H1170Q1200 210 1200 180V30Q1200 0 1170 0H1000Q921 0 859.5 12.5Q798 25 755.5 56.5Q713 88 690.5 142Q668 196 668 280V720Q668 750 698 750Z" glyph-name="L_L.round" horiz-adv-x="1220" unicode="&#61769;" /><glyph d="M70 0Q40 0 40 30V720Q40 750 70 750H282Q312 750 312 720V210H542Q572 210 572 180V30Q572 0 542 0ZM128 945Q134 960 155 960H361Q376 960 382 950.5Q388 941 378 930L292 829Q285 820 268 820H108Q93 820 87 828Q81 836 87 850Z" glyph-name="Lacute" horiz-adv-x="592" unicode="&#313;" /><glyph d="M118 945Q124 960 145 960H351Q366 960 372 950.5Q378 941 368 930L282 829Q275 820 258 820H98Q83 820 77 828Q71 836 77 850ZM272 750Q302 750 302 720V307Q302 281 306.5 262.5Q311 244 323 232.5Q335 221 356.5 215.5Q378 210 412 210H532Q562 210 562 180V30Q562 0 532 0H362Q283 0 221.5 12.5Q160 25 117.5 56.5Q75 88 52.5 142Q30 196 30 280V720Q30 750 60 750Z" glyph-name="Lacute.round" horiz-adv-x="582" unicode="&#61541;" /><glyph d="M360 605Q360 620 369.5 622.5Q379 625 384 625Q417 627 434 636.5Q451 646 451 669Q446 662 434.5 654Q423 646 404 646Q377 646 358 661Q339 676 339 716Q339 755 366.5 778.5Q394 802 432 802Q478 802 505 774Q532 746 532 690Q532 625 493.5 599Q455 573 392 569Q384 568 372 571.5Q360 575 360 589ZM70 0Q40 0 40 30V720Q40 750 70 750H282Q312 750 312 720V210H542Q572 210 572 180V30Q572 0 542 0Z" glyph-name="Lcaron" horiz-adv-x="592" unicode="&#317;" /><glyph d="M272 750Q302 750 302 720V307Q302 281 306.5 262.5Q311 244 323 232.5Q335 221 356.5 215.5Q378 210 412 210H532Q562 210 562 180V30Q562 0 532 0H362Q283 0 221.5 12.5Q160 25 117.5 56.5Q75 88 52.5 142Q30 196 30 280V720Q30 750 60 750ZM350 605Q350 620 359.5 622.5Q369 625 374 625Q407 627 424 636.5Q441 646 441 669Q436 662 424.5 654Q413 646 394 646Q367 646 348 661Q329 676 329 716Q329 755 356.5 778.5Q384 802 422 802Q468 802 495 774Q522 746 522 690Q522 625 483.5 599Q445 573 382 569Q374 568 362 571.5Q350 575 350 589Z" glyph-name="Lcaron.round" horiz-adv-x="582" unicode="&#61543;" /><glyph d="M236 -230Q236 -215 245.5 -212.5Q255 -210 260 -210Q293 -208 310 -198.5Q327 -189 327 -166Q322 -173 310.5 -181Q299 -189 280 -189Q253 -189 234 -174Q215 -159 215 -119Q215 -80 242.5 -56.5Q270 -33 308 -33Q354 -33 381 -61Q408 -89 408 -145Q408 -210 369.5 -236Q331 -262 268 -266Q260 -267 248 -263.5Q236 -260 236 -246ZM70 0Q40 0 40 30V720Q40 750 70 750H282Q312 750 312 720V210H542Q572 210 572 180V30Q572 0 542 0Z" glyph-name="Lcommaaccent" horiz-adv-x="592" unicode="&#315;" /><glyph d="M272 750Q302 750 302 720V307Q302 281 306.5 262.5Q311 244 323 232.5Q335 221 356.5 215.5Q378 210 412 210H532Q562 210 562 180V30Q562 0 532 0H362Q283 0 221.5 12.5Q160 25 117.5 56.5Q75 88 52.5 142Q30 196 30 280V720Q30 750 60 750ZM227 -230Q227 -215 236.5 -212.5Q246 -210 251 -210Q284 -208 301 -198.5Q318 -189 318 -166Q313 -173 301.5 -181Q290 -189 271 -189Q244 -189 225 -174Q206 -159 206 -119Q206 -80 233.5 -56.5Q261 -33 299 -33Q345 -33 372 -61Q399 -89 399 -145Q399 -210 360.5 -236Q322 -262 259 -266Q251 -267 239 -263.5Q227 -260 227 -246Z" glyph-name="Lcommaaccent.round" horiz-adv-x="582" unicode="&#61545;" /><glyph d="M639 381Q639 321 601.5 294Q564 267 503 267Q442 267 407 292Q372 317 372 376Q372 433 409.5 461.5Q447 490 508 490Q569 490 604 465.5Q639 441 639 381ZM70 0Q40 0 40 30V720Q40 750 70 750H282Q312 750 312 720V210H542Q572 210 572 180V30Q572 0 542 0Z" glyph-name="Ldot" horiz-adv-x="649" unicode="&#319;" /><glyph d="M629 381Q629 321 591.5 294Q554 267 493 267Q432 267 397 292Q362 317 362 376Q362 433 399.5 461.5Q437 490 498 490Q559 490 594 465.5Q629 441 629 381ZM272 750Q302 750 302 720V307Q302 281 306.5 262.5Q311 244 323 232.5Q335 221 356.5 215.5Q378 210 412 210H532Q562 210 562 180V30Q562 0 532 0H362Q283 0 221.5 12.5Q160 25 117.5 56.5Q75 88 52.5 142Q30 196 30 280V720Q30 750 60 750Z" glyph-name="Ldot.round" horiz-adv-x="639" unicode="&#61553;" /><glyph d="M110 0Q80 0 80 30V265Q58 261 49 286L11 389Q1 418 29 428L80 445V720Q80 750 110 750H322Q352 750 352 720V536L394 550Q421 561 432 532L470 429Q481 401 452 390L352 356V210H582Q612 210 612 180V30Q612 0 582 0Z" glyph-name="Lslash" horiz-adv-x="632" unicode="&#321;" /><glyph d="M322 750Q352 750 352 720V536L394 550Q421 561 432 532L470 429Q481 401 452 390L352 356V307Q352 281 356.5 262.5Q361 244 373 232.5Q385 221 406.5 215.5Q428 210 462 210H582Q612 210 612 180V30Q612 0 582 0H412Q335 0 274 11.5Q213 23 170.5 53Q128 83 105 134.5Q82 186 80 265Q58 261 49 286L11 389Q1 418 29 428L80 445V720Q80 750 110 750Z" glyph-name="Lslash.round" horiz-adv-x="632" unicode="&#61555;" /><glyph d="M917 750Q947 750 947 720V30Q947 0 917 0H705Q675 0 675 30L670 350H660L563 17Q558 0 535 0H419Q397 0 391 17L292 350H282L278 30Q278 0 248 0H70Q40 0 40 30V720Q40 750 70 750H345Q367 750 373 734L492 410H502L613 734Q618 750 641 750Z" glyph-name="M" horiz-adv-x="987" unicode="M" /><glyph d="M705 0Q675 0 675 30L670 350H660L563 17Q558 0 535 0H419Q397 0 391 17L292 350H282L278 30Q278 0 248 0H70Q40 0 40 30V720Q40 750 70 750H345Q367 750 373 734L492 410H502L613 734Q618 750 641 750H907Q937 750 937 720V210Q988 210 1012.5 191Q1037 172 1037 119V30Q1037 0 1007 0Z" glyph-name="M.end" horiz-adv-x="1047" unicode="&#61557;" /><glyph d="M920 0Q890 0 890 30L885 485Q884 523 863 539Q842 555 812 555Q782 555 762 539Q742 523 741 485L736 30Q736 0 706 0H498Q468 0 468 30L463 485Q462 523 441.5 539Q421 555 391 555Q361 555 340.5 539Q320 523 319 485L314 30Q314 0 284 0H70Q40 0 40 30V720Q40 750 70 750H279Q304 750 308 730L321 668Q329 683 343.5 701Q358 719 381.5 734Q405 749 438.5 759.5Q472 770 517 770Q547 770 577.5 765.5Q608 761 636.5 749.5Q665 738 689 718Q713 698 728 668Q738 687 755.5 705Q773 723 799.5 737.5Q826 752 861.5 761Q897 770 942 770Q982 770 1022 758Q1062 746 1093.5 718Q1125 690 1144.5 645.5Q1164 601 1164 535V30Q1164 0 1134 0Z" glyph-name="M.round" horiz-adv-x="1199" unicode="&#61559;" /><glyph d="M920 0Q890 0 890 30L885 485Q884 523 863 539Q842 555 812 555Q782 555 762 539Q742 523 741 485L736 30Q736 0 706 0H498Q468 0 468 30L463 485Q462 523 441.5 539Q421 555 391 555Q361 555 340.5 539Q320 523 319 485L314 30Q314 0 284 0H70Q40 0 40 30V720Q40 750 70 750H279Q304 750 308 730L321 668Q329 683 343.5 701Q358 719 381.5 734Q405 749 438.5 759.5Q472 770 517 770Q547 770 577.5 765.5Q608 761 636.5 749.5Q665 738 689 718Q713 698 728 668Q738 687 755.5 705Q773 723 799.5 737.5Q826 752 861.5 761Q897 770 942 770Q982 770 1020 758Q1058 746 1088 718Q1118 690 1136 645.5Q1154 601 1154 535V210Q1205 210 1229.5 191Q1254 172 1254 119V30Q1254 0 1224 0Z" glyph-name="M.round.end" horiz-adv-x="1264" unicode="&#61560;" /><glyph d="M522 720Q522 750 552 750H719Q749 750 749 720V30Q749 0 719 0H487Q466 0 460 13L282 360H272L268 30Q268 0 238 0H70Q40 0 40 30V720Q40 750 70 750H302Q322 750 329 737L507 400H517Z" glyph-name="N" horiz-adv-x="789" unicode="N" /><glyph d="M463 485Q462 523 441.5 539Q421 555 391 555Q361 555 340.5 539Q320 523 319 485L314 30Q314 0 284 0H70Q40 0 40 30V720Q40 750 70 750H279Q304 750 308 730L321 668Q329 683 344 701Q359 719 383 734Q407 749 441 759.5Q475 770 520 770Q560 770 600 758Q640 746 671.5 718Q703 690 722.5 645.5Q742 601 742 535V30Q742 0 712 0H498Q468 0 468 30Z" glyph-name="N.round" horiz-adv-x="777" unicode="&#61569;" /><glyph d="M498 0Q468 0 468 30L463 485Q462 523 441.5 539Q421 555 391 555Q361 555 340.5 539Q320 523 319 485L314 30Q314 0 284 0H70Q40 0 40 30V720Q40 750 70 750H279Q304 750 308 730L321 668Q329 683 344 701Q359 719 383 734Q407 749 441 759.5Q475 770 520 770Q560 770 598 758Q636 746 666 718Q696 690 714 645.5Q732 601 732 535V210Q783 210 807.5 191Q832 172 832 119V30Q832 0 802 0Z" glyph-name="N.round.end" horiz-adv-x="842" unicode="&#61570;" /><glyph d="M522 720Q522 750 552 750H719Q749 750 749 720V30Q749 0 719 0H487Q466 0 460 13L282 360H272L268 30Q268 0 238 0H70Q40 0 40 30V720Q40 750 70 750H302Q322 750 329 737L507 400H517ZM341 945Q347 960 368 960H574Q589 960 595 950.5Q601 941 591 930L505 829Q498 820 481 820H321Q306 820 300 828Q294 836 300 850Z" glyph-name="Nacute" horiz-adv-x="789" unicode="&#323;" /><glyph d="M463 485Q462 523 441.5 539Q421 555 391 555Q361 555 340.5 539Q320 523 319 485L314 30Q314 0 284 0H70Q40 0 40 30V720Q40 750 70 750H279Q304 750 308 730L321 668Q329 683 344 701Q359 719 383 734Q407 749 441 759.5Q475 770 520 770Q560 770 600 758Q640 746 671.5 718Q703 690 722.5 645.5Q742 601 742 535V30Q742 0 712 0H498Q468 0 468 30ZM351 945Q357 960 378 960H584Q599 960 605 950.5Q611 941 601 930L515 829Q508 820 491 820H331Q316 820 310 828Q304 836 310 850Z" glyph-name="Nacute.round" horiz-adv-x="777" unicode="&#61574;" /><glyph d="M498 0Q468 0 468 30L463 485Q462 523 441.5 539Q421 555 391 555Q361 555 340.5 539Q320 523 319 485L314 30Q314 0 284 0H70Q40 0 40 30V720Q40 750 70 750H279Q304 750 308 730L321 668Q329 683 344 701Q359 719 383 734Q407 749 441 759.5Q475 770 520 770Q560 770 598 758Q636 746 666 718Q696 690 714 645.5Q732 601 732 535V210Q783 210 807.5 191Q832 172 832 119V30Q832 0 802 0ZM351 945Q357 960 378 960H584Q599 960 605 950.5Q611 941 601 930L515 829Q508 820 491 820H331Q316 820 310 828Q304 836 310 850Z" glyph-name="Nacute.round.end" horiz-adv-x="842" unicode="&#61575;" /><glyph d="M522 720Q522 750 552 750H719Q749 750 749 720V30Q749 0 719 0H487Q466 0 460 13L282 360H272L268 30Q268 0 238 0H70Q40 0 40 30V720Q40 750 70 750H302Q322 750 329 737L507 400H517ZM429 945Q434 960 456 960H627Q642 960 648 950.5Q654 941 644 930L544 829Q537 820 520 820H288Q272 820 264 829L164 930Q153 941 159.5 950.5Q166 960 181 960H352Q375 960 379 945L399 876H408Z" glyph-name="Ncaron" horiz-adv-x="789" unicode="&#327;" /><glyph d="M463 485Q462 523 441.5 539Q421 555 391 555Q361 555 340.5 539Q320 523 319 485L314 30Q314 0 284 0H70Q40 0 40 30V720Q40 750 70 750H279Q304 750 308 730L321 668Q329 683 344 701Q359 719 383 734Q407 749 441 759.5Q475 770 520 770Q560 770 600 758Q640 746 671.5 718Q703 690 722.5 645.5Q742 601 742 535V30Q742 0 712 0H498Q468 0 468 30ZM416 945Q421 960 443 960H614Q629 960 635 950.5Q641 941 631 930L531 829Q524 820 507 820H275Q259 820 251 829L151 930Q140 941 146.5 950.5Q153 960 168 960H339Q362 960 366 945L386 876H395Z" glyph-name="Ncaron.round" horiz-adv-x="777" unicode="&#61585;" /><glyph d="M498 0Q468 0 468 30L463 485Q462 523 441.5 539Q421 555 391 555Q361 555 340.5 539Q320 523 319 485L314 30Q314 0 284 0H70Q40 0 40 30V720Q40 750 70 750H279Q304 750 308 730L321 668Q329 683 344 701Q359 719 383 734Q407 749 441 759.5Q475 770 520 770Q560 770 598 758Q636 746 666 718Q696 690 714 645.5Q732 601 732 535V210Q783 210 807.5 191Q832 172 832 119V30Q832 0 802 0ZM417 945Q422 960 444 960H615Q630 960 636 950.5Q642 941 632 930L532 829Q525 820 508 820H276Q260 820 252 829L152 930Q141 941 147.5 950.5Q154 960 169 960H340Q363 960 367 945L387 876H396Z" glyph-name="Ncaron.round.end" horiz-adv-x="842" unicode="&#61586;" /><glyph d="M304 -230Q304 -215 313.5 -212.5Q323 -210 328 -210Q361 -208 378 -198.5Q395 -189 395 -166Q390 -173 378.5 -181Q367 -189 348 -189Q321 -189 302 -174Q283 -159 283 -119Q283 -80 310.5 -56.5Q338 -33 376 -33Q422 -33 449 -61Q476 -89 476 -145Q476 -210 437.5 -236Q399 -262 336 -266Q328 -267 316 -263.5Q304 -260 304 -246ZM522 720Q522 750 552 750H719Q749 750 749 720V30Q749 0 719 0H487Q466 0 460 13L282 360H272L268 30Q268 0 238 0H70Q40 0 40 30V720Q40 750 70 750H302Q322 750 329 737L507 400H517Z" glyph-name="Ncommaaccent" horiz-adv-x="789" unicode="&#325;" /><glyph d="M463 485Q462 523 441.5 539Q421 555 391 555Q361 555 340.5 539Q320 523 319 485L314 30Q314 0 284 0H70Q40 0 40 30V720Q40 750 70 750H279Q304 750 308 730L321 668Q329 683 344 701Q359 719 383 734Q407 749 441 759.5Q475 770 520 770Q560 770 600 758Q640 746 671.5 718Q703 690 722.5 645.5Q742 601 742 535V30Q742 0 712 0H498Q468 0 468 30ZM318 -230Q318 -215 327.5 -212.5Q337 -210 342 -210Q375 -208 392 -198.5Q409 -189 409 -166Q404 -173 392.5 -181Q381 -189 362 -189Q335 -189 316 -174Q297 -159 297 -119Q297 -80 324.5 -56.5Q352 -33 390 -33Q436 -33 463 -61Q490 -89 490 -145Q490 -210 451.5 -236Q413 -262 350 -266Q342 -267 330 -263.5Q318 -260 318 -246Z" glyph-name="Ncommaaccent.round" horiz-adv-x="777" unicode="&#61590;" /><glyph d="M498 0Q468 0 468 30L463 485Q462 523 441.5 539Q421 555 391 555Q361 555 340.5 539Q320 523 319 485L314 30Q314 0 284 0H70Q40 0 40 30V720Q40 750 70 750H279Q304 750 308 730L321 668Q329 683 344 701Q359 719 383 734Q407 749 441 759.5Q475 770 520 770Q560 770 598 758Q636 746 666 718Q696 690 714 645.5Q732 601 732 535V210Q783 210 807.5 191Q832 172 832 119V30Q832 0 802 0ZM318 -230Q318 -215 327.5 -212.5Q337 -210 342 -210Q375 -208 392 -198.5Q409 -189 409 -166Q404 -173 392.5 -181Q381 -189 362 -189Q335 -189 316 -174Q297 -159 297 -119Q297 -80 324.5 -56.5Q352 -33 390 -33Q436 -33 463 -61Q490 -89 490 -145Q490 -210 451.5 -236Q413 -262 350 -266Q342 -267 330 -263.5Q318 -260 318 -246Z" glyph-name="Ncommaaccent.round.end" horiz-adv-x="842" unicode="&#61591;" /><glyph d="M522 720Q522 750 552 750H719Q749 750 749 720V30Q749 0 719 0H487Q466 0 460 13L282 360H272L268 30Q268 0 238 0H70Q40 0 40 30V720Q40 750 70 750H302Q322 750 329 737L507 400H517ZM659 919Q655 902 645 880.5Q635 859 617 839.5Q599 820 571.5 807Q544 794 505 794Q456 794 430.5 807Q405 820 384 836Q375 843 364.5 848.5Q354 854 335 854Q320 854 312 845.5Q304 837 300 827Q297 819 291 813.5Q285 808 272 810L203 817Q182 819 180.5 829Q179 839 181 849Q186 866 195.5 887.5Q205 909 223 928.5Q241 948 268.5 961Q296 974 335 974Q384 974 409.5 961Q435 948 456 932Q465 925 475.5 919.5Q486 914 505 914Q519 914 527.5 922.5Q536 931 540 941Q543 949 549 954.5Q555 960 568 958L637 951Q658 949 659.5 939Q661 929 659 919Z" glyph-name="Ntilde" horiz-adv-x="789" unicode="&#209;" /><glyph d="M463 485Q462 523 441.5 539Q421 555 391 555Q361 555 340.5 539Q320 523 319 485L314 30Q314 0 284 0H70Q40 0 40 30V720Q40 750 70 750H279Q304 750 308 730L321 668Q329 683 344 701Q359 719 383 734Q407 749 441 759.5Q475 770 520 770Q560 770 600 758Q640 746 671.5 718Q703 690 722.5 645.5Q742 601 742 535V30Q742 0 712 0H498Q468 0 468 30ZM659 919Q655 902 645 880.5Q635 859 617 839.5Q599 820 571.5 807Q544 794 505 794Q456 794 430.5 807Q405 820 384 836Q375 843 364.5 848.5Q354 854 335 854Q320 854 312 845.5Q304 837 300 827Q297 819 291 813.5Q285 808 272 810L203 817Q182 819 180.5 829Q179 839 181 849Q186 866 195.5 887.5Q205 909 223 928.5Q241 948 268.5 961Q296 974 335 974Q384 974 409.5 961Q435 948 456 932Q465 925 475.5 919.5Q486 914 505 914Q519 914 527.5 922.5Q536 931 540 941Q543 949 549 954.5Q555 960 568 958L637 951Q658 949 659.5 939Q661 929 659 919Z" glyph-name="Ntilde.round" horiz-adv-x="777" unicode="&#61697;" /><glyph d="M498 0Q468 0 468 30L463 485Q462 523 441.5 539Q421 555 391 555Q361 555 340.5 539Q320 523 319 485L314 30Q314 0 284 0H70Q40 0 40 30V720Q40 750 70 750H279Q304 750 308 730L321 668Q329 683 344 701Q359 719 383 734Q407 749 441 759.5Q475 770 520 770Q560 770 598 758Q636 746 666 718Q696 690 714 645.5Q732 601 732 535V210Q783 210 807.5 191Q832 172 832 119V30Q832 0 802 0ZM659 929Q655 912 645 890.5Q635 869 617 849.5Q599 830 571.5 817Q544 804 505 804Q456 804 430.5 817Q405 830 384 846Q375 853 364.5 858.5Q354 864 335 864Q320 864 312 855.5Q304 847 300 837Q297 829 291 823.5Q285 818 272 820L203 827Q182 829 180.5 839Q179 849 181 859Q186 876 195.5 897.5Q205 919 223 938.5Q241 958 268.5 971Q296 984 335 984Q384 984 409.5 971Q435 958 456 942Q465 935 475.5 929.5Q486 924 505 924Q519 924 527.5 932.5Q536 941 540 951Q543 959 549 964.5Q555 970 568 968L637 961Q658 959 659.5 949Q661 939 659 929Z" glyph-name="Ntilde.round.end" horiz-adv-x="842" unicode="&#61698;" /><glyph d="M865 385Q865 288 834.5 212.5Q804 137 747 85Q690 33 609.5 6.5Q529 -20 430 -20Q342 -20 266.5 5.5Q191 31 135 80.5Q79 130 47 201.5Q15 273 15 365Q15 461 48 536.5Q81 612 139 664Q197 716 276.5 743Q356 770 450 770Q542 770 618.5 745.5Q695 721 749.5 672.5Q804 624 834.5 552Q865 480 865 385ZM582 376Q582 414 574 446.5Q566 479 549 503Q532 527 505.5 540.5Q479 554 441 554Q403 554 376.5 540.5Q350 527 333 503Q316 479 308 446.5Q300 414 300 376Q300 338 308 305.5Q316 273 333 249Q350 225 376.5 211Q403 197 441 197Q479 197 505.5 211Q532 225 549 249Q566 273 574 305.5Q582 338 582 376Z" glyph-name="O" horiz-adv-x="880" unicode="O" /><glyph d="M646 0Q626 0 618 7.5Q610 15 610 30V50Q599 38 582 25.5Q565 13 540 3Q515 -7 481 -13.5Q447 -20 402 -20Q325 -20 255 5.5Q185 31 131.5 80.5Q78 130 46.5 201.5Q15 273 15 365Q15 461 47 536.5Q79 612 132.5 664Q186 716 256 743Q326 770 402 770Q447 770 481 763.5Q515 757 540 747Q565 737 582 724.5Q599 712 610 700V720Q610 750 640 750H1168Q1198 750 1198 720V570Q1198 540 1168 540H857V463H1158Q1188 463 1188 433V315Q1188 285 1158 285H857V210H1168Q1198 210 1198 180V30Q1198 0 1168 0ZM576 376Q576 414 568 446.5Q560 479 543 503Q526 527 499.5 540.5Q473 554 435 554Q397 554 370.5 540.5Q344 527 327 503Q310 479 302 446.5Q294 414 294 376Q294 338 302 305.5Q310 273 327 249Q344 225 370.5 211Q397 197 435 197Q473 197 499.5 211Q526 225 543 249Q560 273 568 305.5Q576 338 576 376Z" glyph-name="OE" horiz-adv-x="1228" unicode="&#338;" /><glyph d="M572 376Q572 414 564 446.5Q556 479 539 503Q522 527 495.5 540.5Q469 554 431 554Q393 554 366.5 540.5Q340 527 323 503Q306 479 298 446.5Q290 414 290 376Q290 338 298 305.5Q306 273 323 249Q340 225 366.5 211Q393 197 431 197Q469 197 495.5 211Q522 225 539 249Q556 273 564 305.5Q572 338 572 376ZM829 285Q829 251 842.5 230.5Q856 210 877 199Q898 188 923.5 184Q949 180 974 180Q999 180 1033 183.5Q1067 187 1098.5 191Q1130 195 1153.5 198.5Q1177 202 1182 203Q1196 205 1206 199Q1216 193 1216 176V26Q1216 1 1198 -2Q1192 -3 1166 -6Q1140 -9 1101 -12Q1062 -15 1014 -17.5Q966 -20 916 -20Q843 -20 784 2.5Q725 25 682 60Q638 25 569.5 2.5Q501 -20 420 -20Q332 -20 258 5.5Q184 31 130 80.5Q76 130 45.5 201.5Q15 273 15 365Q15 461 46.5 536.5Q78 612 134 664Q190 716 268 743Q346 770 440 770Q519 770 579.5 747.5Q640 725 682 690Q728 722 789.5 746Q851 770 936 770Q986 770 1031.5 767.5Q1077 765 1112.5 762Q1148 759 1171 756Q1194 753 1198 752Q1216 749 1216 724V574Q1216 557 1206 551Q1196 545 1182 547Q1178 548 1155 551.5Q1132 555 1100.5 559Q1069 563 1035 566.5Q1001 570 974 570Q950 570 924.5 566Q899 562 877.5 550.5Q856 539 842.5 518.5Q829 498 829 464Q837 464 853.5 464Q870 464 891 464.5Q912 465 936.5 465Q961 465 984 466Q1040 466 1106 467Q1136 467 1136 437V311Q1136 281 1106 281Q1040 282 984 283Q951 284 930 284Q909 284 889.5 284.5Q870 285 853.5 285Q837 285 829 285Z" glyph-name="OE.round" horiz-adv-x="1236" unicode="&#61701;" /><glyph d="M865 385Q865 288 834.5 212.5Q804 137 747 85Q690 33 609.5 6.5Q529 -20 430 -20Q342 -20 266.5 5.5Q191 31 135 80.5Q79 130 47 201.5Q15 273 15 365Q15 461 48 536.5Q81 612 139 664Q197 716 276.5 743Q356 770 450 770Q542 770 618.5 745.5Q695 721 749.5 672.5Q804 624 834.5 552Q865 480 865 385ZM582 376Q582 414 574 446.5Q566 479 549 503Q532 527 505.5 540.5Q479 554 441 554Q403 554 376.5 540.5Q350 527 333 503Q316 479 308 446.5Q300 414 300 376Q300 338 308 305.5Q316 273 333 249Q350 225 376.5 211Q403 197 441 197Q479 197 505.5 211Q532 225 549 249Q566 273 574 305.5Q582 338 582 376ZM385 945Q391 960 412 960H618Q633 960 639 950.5Q645 941 635 930L549 829Q542 820 525 820H365Q350 820 344 828Q338 836 344 850Z" glyph-name="Oacute" horiz-adv-x="880" unicode="&#211;" /><glyph d="M865 385Q865 288 834.5 212.5Q804 137 747 85Q690 33 609.5 6.5Q529 -20 430 -20Q342 -20 266.5 5.5Q191 31 135 80.5Q79 130 47 201.5Q15 273 15 365Q15 461 48 536.5Q81 612 139 664Q197 716 276.5 743Q356 770 450 770Q542 770 618.5 745.5Q695 721 749.5 672.5Q804 624 834.5 552Q865 480 865 385ZM582 376Q582 414 574 446.5Q566 479 549 503Q532 527 505.5 540.5Q479 554 441 554Q403 554 376.5 540.5Q350 527 333 503Q316 479 308 446.5Q300 414 300 376Q300 338 308 305.5Q316 273 333 249Q350 225 376.5 211Q403 197 441 197Q479 197 505.5 211Q532 225 549 249Q566 273 574 305.5Q582 338 582 376ZM449 904H440L420 835Q416 820 393 820H222Q207 820 200.5 829.5Q194 839 205 850L305 951Q313 960 329 960H561Q578 960 585 951L685 850Q695 839 689 829.5Q683 820 668 820H497Q475 820 470 835Z" glyph-name="Ocircumflex" horiz-adv-x="880" unicode="&#212;" /><glyph d="M865 385Q865 288 834.5 212.5Q804 137 747 85Q690 33 609.5 6.5Q529 -20 430 -20Q342 -20 266.5 5.5Q191 31 135 80.5Q79 130 47 201.5Q15 273 15 365Q15 461 48 536.5Q81 612 139 664Q197 716 276.5 743Q356 770 450 770Q542 770 618.5 745.5Q695 721 749.5 672.5Q804 624 834.5 552Q865 480 865 385ZM582 376Q582 414 574 446.5Q566 479 549 503Q532 527 505.5 540.5Q479 554 441 554Q403 554 376.5 540.5Q350 527 333 503Q316 479 308 446.5Q300 414 300 376Q300 338 308 305.5Q316 273 333 249Q350 225 376.5 211Q403 197 441 197Q479 197 505.5 211Q532 225 549 249Q566 273 574 305.5Q582 338 582 376ZM412 883Q412 839 382 815.5Q352 792 304 792Q255 792 227 814Q199 836 199 879Q199 921 229 945.5Q259 970 308 970Q356 970 384 948.5Q412 927 412 883ZM693 883Q693 839 663 815.5Q633 792 585 792Q536 792 508 814Q480 836 480 879Q480 921 510 945.5Q540 970 589 970Q637 970 665 948.5Q693 927 693 883Z" glyph-name="Odieresis" horiz-adv-x="880" unicode="&#214;" /><glyph d="M865 385Q865 288 834.5 212.5Q804 137 747 85Q690 33 609.5 6.5Q529 -20 430 -20Q342 -20 266.5 5.5Q191 31 135 80.5Q79 130 47 201.5Q15 273 15 365Q15 461 48 536.5Q81 612 139 664Q197 716 276.5 743Q356 770 450 770Q542 770 618.5 745.5Q695 721 749.5 672.5Q804 624 834.5 552Q865 480 865 385ZM582 376Q582 414 574 446.5Q566 479 549 503Q532 527 505.5 540.5Q479 554 441 554Q403 554 376.5 540.5Q350 527 333 503Q316 479 308 446.5Q300 414 300 376Q300 338 308 305.5Q316 273 333 249Q350 225 376.5 211Q403 197 441 197Q479 197 505.5 211Q532 225 549 249Q566 273 574 305.5Q582 338 582 376ZM554 850Q560 836 554 828Q548 820 533 820H373Q357 820 349 829L263 930Q253 941 259 950.5Q265 960 280 960H486Q507 960 513 945Z" glyph-name="Ograve" horiz-adv-x="880" unicode="&#210;" /><glyph d="M865 385Q865 288 834.5 212.5Q804 137 747 85Q690 33 609.5 6.5Q529 -20 430 -20Q342 -20 266.5 5.5Q191 31 135 80.5Q79 130 47 201.5Q15 273 15 365Q15 461 48 536.5Q81 612 139 664Q197 716 276.5 743Q356 770 450 770Q542 770 618.5 745.5Q695 721 749.5 672.5Q804 624 834.5 552Q865 480 865 385ZM582 376Q582 414 574 446.5Q566 479 549 503Q532 527 505.5 540.5Q479 554 441 554Q403 554 376.5 540.5Q350 527 333 503Q316 479 308 446.5Q300 414 300 376Q300 338 308 305.5Q316 273 333 249Q350 225 376.5 211Q403 197 441 197Q479 197 505.5 211Q532 225 549 249Q566 273 574 305.5Q582 338 582 376ZM255 945Q261 960 282 960H478Q493 960 499 950.5Q505 941 495 930L409 829Q402 820 385 820H235Q220 820 214 828Q208 836 214 850ZM535 945Q541 960 562 960H758Q773 960 779 950.5Q785 941 775 930L689 829Q682 820 665 820H515Q500 820 494 828Q488 836 494 850Z" glyph-name="Ohungarumlaut" horiz-adv-x="880" unicode="&#336;" /><glyph d="M865 385Q865 288 834.5 212.5Q804 137 747 85Q690 33 609.5 6.5Q529 -20 430 -20Q342 -20 266.5 5.5Q191 31 135 80.5Q79 130 47 201.5Q15 273 15 365Q15 461 48 536.5Q81 612 139 664Q197 716 276.5 743Q356 770 450 770Q542 770 618.5 745.5Q695 721 749.5 672.5Q804 624 834.5 552Q865 480 865 385ZM582 376Q582 414 574 446.5Q566 479 549 503Q532 527 505.5 540.5Q479 554 441 554Q403 554 376.5 540.5Q350 527 333 503Q316 479 308 446.5Q300 414 300 376Q300 338 308 305.5Q316 273 333 249Q350 225 376.5 211Q403 197 441 197Q479 197 505.5 211Q532 225 549 249Q566 273 574 305.5Q582 338 582 376ZM260 820Q230 820 230 850V930Q230 960 260 960H620Q650 960 650 930V850Q650 820 620 820Z" glyph-name="Omacron" horiz-adv-x="880" unicode="&#332;" /><glyph d="M483 0Q453 0 453 30V210Q470 246 486.5 298.5Q503 351 503 410Q503 481 481.5 525.5Q460 570 408 570Q356 570 334.5 525.5Q313 481 313 410Q313 351 329.5 298.5Q346 246 363 210V30Q363 0 333 0H40Q10 0 10 30V119Q10 172 37 191Q64 210 130 210Q104 236 84 269Q65 299 51.5 337Q38 375 38 424Q38 504 63 568Q88 632 135 677Q182 722 251 746Q320 770 408 770Q496 770 565 746Q634 722 681 677Q728 632 753 568Q778 504 778 424Q778 375 763.5 336Q749 297 732 269Q712 236 686 210Q752 210 779 191Q806 172 806 119V30Q806 0 776 0Z" glyph-name="Omega" horiz-adv-x="816" unicode="&#8486;" /><glyph d="M83 137Q51 182 33 239Q15 296 15 365Q15 461 48 536.5Q81 612 139 664Q197 716 276.5 743Q356 770 450 770Q584 770 680 719L752 790Q773 811 794 790L865 719Q886 698 865 677L801 614Q832 569 848.5 512Q865 455 865 385Q865 288 834.5 212.5Q804 137 747 85Q690 33 609.5 6.5Q529 -20 430 -20Q303 -20 205 32L140 -32Q119 -53 98 -32L27 39Q6 60 27 81ZM300 376Q300 352 303 331L513 536Q499 544 481 549Q463 554 441 554Q403 554 376.5 540.5Q350 527 333 503Q316 479 308 446.5Q300 414 300 376ZM582 376Q582 387 581 397Q580 407 579 418L370 213Q398 197 441 197Q479 197 505.5 211Q532 225 549 249Q566 273 574 305.5Q582 338 582 376Z" glyph-name="Oslash" horiz-adv-x="880" unicode="&#216;" /><glyph d="M865 385Q865 288 834.5 212.5Q804 137 747 85Q690 33 609.5 6.5Q529 -20 430 -20Q342 -20 266.5 5.5Q191 31 135 80.5Q79 130 47 201.5Q15 273 15 365Q15 461 48 536.5Q81 612 139 664Q197 716 276.5 743Q356 770 450 770Q542 770 618.5 745.5Q695 721 749.5 672.5Q804 624 834.5 552Q865 480 865 385ZM582 376Q582 414 574 446.5Q566 479 549 503Q532 527 505.5 540.5Q479 554 441 554Q403 554 376.5 540.5Q350 527 333 503Q316 479 308 446.5Q300 414 300 376Q300 338 308 305.5Q316 273 333 249Q350 225 376.5 211Q403 197 441 197Q479 197 505.5 211Q532 225 549 249Q566 273 574 305.5Q582 338 582 376ZM682 919Q678 902 668 880.5Q658 859 640 839.5Q622 820 594.5 807Q567 794 528 794Q479 794 453.5 807Q428 820 407 836Q398 843 387.5 848.5Q377 854 358 854Q343 854 335 845.5Q327 837 323 827Q320 819 314 813.5Q308 808 295 810L226 817Q205 819 203.5 829Q202 839 204 849Q209 866 218.5 887.5Q228 909 246 928.5Q264 948 291.5 961Q319 974 358 974Q407 974 432.5 961Q458 948 479 932Q488 925 498.5 919.5Q509 914 528 914Q542 914 550.5 922.5Q559 931 563 941Q566 949 572 954.5Q578 960 591 958L660 951Q681 949 682.5 939Q684 929 682 919Z" glyph-name="Otilde" horiz-adv-x="880" unicode="&#213;" /><glyph d="M70 0Q40 0 40 30V720Q40 750 70 750H372Q440 750 497.5 737Q555 724 596.5 696.5Q638 669 661 625.5Q684 582 684 520Q684 444 651.5 396.5Q619 349 565 322Q511 295 442 284Q373 273 301 269V30Q301 0 271 0ZM349 455Q379 455 399 467.5Q419 480 419 510Q419 540 399 552.5Q379 565 349 565H301V455Z" glyph-name="P" horiz-adv-x="694" unicode="P" /><glyph d="M941 30Q941 0 911 0H653Q630 0 625 17L615 50Q601 34 578 21Q555 8 525 -1Q495 -10 460.5 -15Q426 -20 390 -20Q317 -20 249.5 4.5Q182 29 130 77Q78 125 46.5 197Q15 269 15 365Q15 461 48 536.5Q81 612 139 664Q197 716 276.5 743Q356 770 450 770Q542 770 618.5 745.5Q695 721 749.5 672.5Q804 624 834.5 552Q865 480 865 385Q865 336 853 290.5Q841 245 821 210H841Q892 210 916.5 191Q941 172 941 120ZM582 376Q582 414 574 446.5Q566 479 549 503Q532 527 505.5 540.5Q479 554 441 554Q403 554 376.5 540.5Q350 527 333 503Q316 479 308 446.5Q300 414 300 376Q300 338 308 305.5Q316 273 333 249Q350 225 376.5 211Q403 197 441 197Q479 197 505.5 211Q532 225 549 249Q566 273 574 305.5Q582 338 582 376Z" glyph-name="Q" horiz-adv-x="951" unicode="Q" /><glyph d="M70 0Q40 0 40 30V720Q40 750 70 750H380Q525 750 604.5 695.5Q684 641 684 540Q684 495 674 461Q664 427 647.5 402.5Q631 378 611 361.5Q591 345 571 335L699 37Q705 22 697.5 11Q690 0 675 0H435Q412 0 407 17L331 269H301V30Q301 0 271 0ZM349 455Q379 455 399 467.5Q419 480 419 510Q419 540 399 552.5Q379 565 349 565H301V455Z" glyph-name="R" horiz-adv-x="719" unicode="R" /><glyph d="M390 750Q535 750 614.5 700.5Q694 651 694 550Q694 516 684.5 486Q675 456 659.5 432Q644 408 623.5 391Q603 374 581 365Q607 356 628 340Q649 324 664 298.5Q679 273 687 237Q695 201 695 152V30Q695 0 665 0H446Q416 0 416 30L411 214Q410 248 389 258.5Q368 269 339 269H301V30Q301 0 271 0H70Q40 0 40 30V720Q40 750 70 750ZM349 455Q379 455 399 467.5Q419 480 419 510Q419 540 399 552.5Q379 565 349 565H301V455Z" glyph-name="R.round" horiz-adv-x="725" unicode="&#61704;" /><glyph d="M446 0Q416 0 416 30L411 214Q410 248 389 258.5Q368 269 339 269H301V30Q301 0 271 0H70Q40 0 40 30V720Q40 750 70 750H390Q535 750 614.5 700.5Q694 651 694 550Q694 516 684.5 486Q675 456 659.5 432Q644 408 623.5 391Q603 374 581 365Q624 349 654 313.5Q684 278 685 210Q736 210 760.5 191Q785 172 785 119V30Q785 0 755 0ZM349 455Q379 455 399 467.5Q419 480 419 510Q419 540 399 552.5Q379 565 349 565H301V455Z" glyph-name="R.round.end" horiz-adv-x="795" unicode="&#61705;" /><glyph d="M296 945Q302 960 323 960H529Q544 960 550 950.5Q556 941 546 930L460 829Q453 820 436 820H276Q261 820 255 828Q249 836 255 850ZM70 0Q40 0 40 30V720Q40 750 70 750H380Q525 750 604.5 695.5Q684 641 684 540Q684 495 674 461Q664 427 647.5 402.5Q631 378 611 361.5Q591 345 571 335L699 37Q705 22 697.5 11Q690 0 675 0H435Q412 0 407 17L331 269H301V30Q301 0 271 0ZM349 455Q379 455 399 467.5Q419 480 419 510Q419 540 399 552.5Q379 565 349 565H301V455Z" glyph-name="Racute" horiz-adv-x="719" unicode="&#340;" /><glyph d="M286 945Q292 960 313 960H519Q534 960 540 950.5Q546 941 536 930L450 829Q443 820 426 820H266Q251 820 245 828Q239 836 245 850ZM390 750Q535 750 614.5 700.5Q694 651 694 550Q694 516 684.5 486Q675 456 659.5 432Q644 408 623.5 391Q603 374 581 365Q607 356 628 340Q649 324 664 298.5Q679 273 687 237Q695 201 695 152V30Q695 0 665 0H446Q416 0 416 30L411 214Q410 248 389 258.5Q368 269 339 269H301V30Q301 0 271 0H70Q40 0 40 30V720Q40 750 70 750ZM349 455Q379 455 399 467.5Q419 480 419 510Q419 540 399 552.5Q379 565 349 565H301V455Z" glyph-name="Racute.round" horiz-adv-x="725" unicode="&#61714;" /><glyph d="M446 0Q416 0 416 30L411 214Q410 248 389 258.5Q368 269 339 269H301V30Q301 0 271 0H70Q40 0 40 30V720Q40 750 70 750H390Q535 750 614.5 700.5Q694 651 694 550Q694 516 684.5 486Q675 456 659.5 432Q644 408 623.5 391Q603 374 581 365Q624 349 654 313.5Q684 278 685 210Q736 210 760.5 191Q785 172 785 119V30Q785 0 755 0ZM349 455Q379 455 399 467.5Q419 480 419 510Q419 540 399 552.5Q379 565 349 565H301V455ZM286 945Q292 960 313 960H519Q534 960 540 950.5Q546 941 536 930L450 829Q443 820 426 820H266Q251 820 245 828Q239 836 245 850Z" glyph-name="Racute.round.end" horiz-adv-x="795" unicode="&#61715;" /><glyph d="M378 945Q383 960 405 960H576Q591 960 597 950.5Q603 941 593 930L493 829Q486 820 469 820H237Q221 820 213 829L113 930Q102 941 108.5 950.5Q115 960 130 960H301Q324 960 328 945L348 876H357ZM70 0Q40 0 40 30V720Q40 750 70 750H380Q525 750 604.5 695.5Q684 641 684 540Q684 495 674 461Q664 427 647.5 402.5Q631 378 611 361.5Q591 345 571 335L699 37Q705 22 697.5 11Q690 0 675 0H435Q412 0 407 17L331 269H301V30Q301 0 271 0ZM349 455Q379 455 399 467.5Q419 480 419 510Q419 540 399 552.5Q379 565 349 565H301V455Z" glyph-name="Rcaron" horiz-adv-x="719" unicode="&#344;" /><glyph d="M390 750Q535 750 614.5 700.5Q694 651 694 550Q694 516 684.5 486Q675 456 659.5 432Q644 408 623.5 391Q603 374 581 365Q607 356 628 340Q649 324 664 298.5Q679 273 687 237Q695 201 695 152V30Q695 0 665 0H446Q416 0 416 30L411 214Q410 248 389 258.5Q368 269 339 269H301V30Q301 0 271 0H70Q40 0 40 30V720Q40 750 70 750ZM349 455Q379 455 399 467.5Q419 480 419 510Q419 540 399 552.5Q379 565 349 565H301V455ZM383 945Q388 960 410 960H581Q596 960 602 950.5Q608 941 598 930L498 829Q491 820 474 820H242Q226 820 218 829L118 930Q107 941 113.5 950.5Q120 960 135 960H306Q329 960 333 945L353 876H362Z" glyph-name="Rcaron.round" horiz-adv-x="725" unicode="&#61718;" /><glyph d="M446 0Q416 0 416 30L411 214Q410 248 389 258.5Q368 269 339 269H301V30Q301 0 271 0H70Q40 0 40 30V720Q40 750 70 750H390Q535 750 614.5 700.5Q694 651 694 550Q694 516 684.5 486Q675 456 659.5 432Q644 408 623.5 391Q603 374 581 365Q624 349 654 313.5Q684 278 685 210Q736 210 760.5 191Q785 172 785 119V30Q785 0 755 0ZM349 455Q379 455 399 467.5Q419 480 419 510Q419 540 399 552.5Q379 565 349 565H301V455ZM383 945Q388 960 410 960H581Q596 960 602 950.5Q608 941 598 930L498 829Q491 820 474 820H242Q226 820 218 829L118 930Q107 941 113.5 950.5Q120 960 135 960H306Q329 960 333 945L353 876H362Z" glyph-name="Rcaron.round.end" horiz-adv-x="795" unicode="&#61719;" /><glyph d="M284 -230Q284 -215 293.5 -212.5Q303 -210 308 -210Q341 -208 358 -198.5Q375 -189 375 -166Q370 -173 358.5 -181Q347 -189 328 -189Q301 -189 282 -174Q263 -159 263 -119Q263 -80 290.5 -56.5Q318 -33 356 -33Q402 -33 429 -61Q456 -89 456 -145Q456 -210 417.5 -236Q379 -262 316 -266Q308 -267 296 -263.5Q284 -260 284 -246ZM70 0Q40 0 40 30V720Q40 750 70 750H380Q525 750 604.5 695.5Q684 641 684 540Q684 495 674 461Q664 427 647.5 402.5Q631 378 611 361.5Q591 345 571 335L699 37Q705 22 697.5 11Q690 0 675 0H435Q412 0 407 17L331 269H301V30Q301 0 271 0ZM349 455Q379 455 399 467.5Q419 480 419 510Q419 540 399 552.5Q379 565 349 565H301V455Z" glyph-name="Rcommaaccent" horiz-adv-x="719" unicode="&#342;" /><glyph d="M390 750Q535 750 614.5 700.5Q694 651 694 550Q694 516 684.5 486Q675 456 659.5 432Q644 408 623.5 391Q603 374 581 365Q607 356 628 340Q649 324 664 298.5Q679 273 687 237Q695 201 695 152V30Q695 0 665 0H446Q416 0 416 30L411 214Q410 248 389 258.5Q368 269 339 269H301V30Q301 0 271 0H70Q40 0 40 30V720Q40 750 70 750ZM349 455Q379 455 399 467.5Q419 480 419 510Q419 540 399 552.5Q379 565 349 565H301V455ZM284 -230Q284 -215 293.5 -212.5Q303 -210 308 -210Q341 -208 358 -198.5Q375 -189 375 -166Q370 -173 358.5 -181Q347 -189 328 -189Q301 -189 282 -174Q263 -159 263 -119Q263 -80 290.5 -56.5Q318 -33 356 -33Q402 -33 429 -61Q456 -89 456 -145Q456 -210 417.5 -236Q379 -262 316 -266Q308 -267 296 -263.5Q284 -260 284 -246Z" glyph-name="Rcommaaccent.round" horiz-adv-x="725" unicode="&#61728;" /><glyph d="M446 0Q416 0 416 30L411 214Q410 248 389 258.5Q368 269 339 269H301V30Q301 0 271 0H70Q40 0 40 30V720Q40 750 70 750H390Q535 750 614.5 700.5Q694 651 694 550Q694 516 684.5 486Q675 456 659.5 432Q644 408 623.5 391Q603 374 581 365Q624 349 654 313.5Q684 278 685 210Q736 210 760.5 191Q785 172 785 119V30Q785 0 755 0ZM349 455Q379 455 399 467.5Q419 480 419 510Q419 540 399 552.5Q379 565 349 565H301V455ZM283 -230Q283 -215 292.5 -212.5Q302 -210 307 -210Q340 -208 357 -198.5Q374 -189 374 -166Q369 -173 357.5 -181Q346 -189 327 -189Q300 -189 281 -174Q262 -159 262 -119Q262 -80 289.5 -56.5Q317 -33 355 -33Q401 -33 428 -61Q455 -89 455 -145Q455 -210 416.5 -236Q378 -262 315 -266Q307 -267 295 -263.5Q283 -260 283 -246Z" glyph-name="Rcommaaccent.round.end" horiz-adv-x="795" unicode="&#61729;" /><glyph d="M583 753Q605 750 605 724V553Q605 525 575 532Q556 537 528 543.5Q500 550 468 556Q436 562 402 566Q368 570 338 570Q278 570 278 536Q278 512 308.5 501.5Q339 491 384 480Q424 470 468.5 455.5Q513 441 550.5 414Q588 387 613 344.5Q638 302 638 236Q638 99 556.5 39.5Q475 -20 325 -20Q280 -20 238.5 -18Q197 -16 161 -13.5Q125 -11 97 -8Q69 -5 52 -3Q30 0 30 26V197Q30 226 60 218Q80 213 110.5 206.5Q141 200 175.5 194Q210 188 245.5 184Q281 180 312 180Q338 180 355 187Q372 194 372 220Q372 242 345.5 252.5Q319 263 279.5 272Q240 281 193.5 293.5Q147 306 107.5 332.5Q68 359 41.5 405Q15 451 15 526Q15 592 39.5 638Q64 684 109.5 713.5Q155 743 218.5 756.5Q282 770 360 770Q388 770 420 768Q452 766 482.5 763.5Q513 761 539.5 758Q566 755 583 753Z" glyph-name="S" horiz-adv-x="658" unicode="S" /><glyph d="M583 753Q605 750 605 724V553Q605 525 575 532Q556 537 528 543.5Q500 550 468 556Q436 562 402 566Q368 570 338 570Q278 570 278 536Q278 512 308.5 501.5Q339 491 384 480Q424 470 468.5 455.5Q513 441 550.5 414Q588 387 613 344.5Q638 302 638 236Q638 99 556.5 39.5Q475 -20 325 -20Q280 -20 238.5 -18Q197 -16 161 -13.5Q125 -11 97 -8Q69 -5 52 -3Q30 0 30 26V197Q30 226 60 218Q80 213 110.5 206.5Q141 200 175.5 194Q210 188 245.5 184Q281 180 312 180Q338 180 355 187Q372 194 372 220Q372 242 345.5 252.5Q319 263 279.5 272Q240 281 193.5 293.5Q147 306 107.5 332.5Q68 359 41.5 405Q15 451 15 526Q15 592 39.5 638Q64 684 109.5 713.5Q155 743 218.5 756.5Q282 770 360 770Q388 770 420 768Q452 766 482.5 763.5Q513 761 539.5 758Q566 755 583 753ZM278 945Q284 960 305 960H511Q526 960 532 950.5Q538 941 528 930L442 829Q435 820 418 820H258Q243 820 237 828Q231 836 237 850Z" glyph-name="Sacute" horiz-adv-x="658" unicode="&#346;" /><glyph d="M368 945Q373 960 395 960H566Q581 960 587 950.5Q593 941 583 930L483 829Q476 820 459 820H227Q211 820 203 829L103 930Q92 941 98.5 950.5Q105 960 120 960H291Q314 960 318 945L338 876H347ZM583 753Q605 750 605 724V553Q605 525 575 532Q556 537 528 543.5Q500 550 468 556Q436 562 402 566Q368 570 338 570Q278 570 278 536Q278 512 308.5 501.5Q339 491 384 480Q424 470 468.5 455.5Q513 441 550.5 414Q588 387 613 344.5Q638 302 638 236Q638 99 556.5 39.5Q475 -20 325 -20Q280 -20 238.5 -18Q197 -16 161 -13.5Q125 -11 97 -8Q69 -5 52 -3Q30 0 30 26V197Q30 226 60 218Q80 213 110.5 206.5Q141 200 175.5 194Q210 188 245.5 184Q281 180 312 180Q338 180 355 187Q372 194 372 220Q372 242 345.5 252.5Q319 263 279.5 272Q240 281 193.5 293.5Q147 306 107.5 332.5Q68 359 41.5 405Q15 451 15 526Q15 592 39.5 638Q64 684 109.5 713.5Q155 743 218.5 756.5Q282 770 360 770Q388 770 420 768Q452 766 482.5 763.5Q513 761 539.5 758Q566 755 583 753Z" glyph-name="Scaron" horiz-adv-x="658" unicode="&#352;" /><glyph d="M253 -60Q247 -36 273 -28Q288 -21 308 -20Q266 -20 226.5 -18Q187 -16 153 -13.5Q119 -11 93 -8Q67 -5 52 -3Q30 0 30 26V197Q30 226 60 218Q80 213 110.5 206.5Q141 200 175.5 194Q210 188 245.5 184Q281 180 312 180Q338 180 355 187Q372 194 372 220Q372 242 345.5 252.5Q319 263 279.5 272Q240 281 193.5 293.5Q147 306 107.5 332.5Q68 359 41.5 405Q15 451 15 526Q15 592 39.5 638Q64 684 109.5 713.5Q155 743 218.5 756.5Q282 770 360 770Q388 770 420 768Q452 766 482.5 763.5Q513 761 539.5 758Q566 755 583 753Q605 750 605 724V553Q605 525 575 532Q556 537 528 543.5Q500 550 468 556Q436 562 402 566Q368 570 338 570Q278 570 278 536Q278 512 308.5 501.5Q339 491 384 480Q424 470 468.5 455.5Q513 441 550.5 414Q588 387 613 344.5Q638 302 638 236Q638 168 617.5 119.5Q597 71 558 40.5Q519 10 461.5 -4.5Q404 -19 330 -20Q383 -22 417 -54Q451 -86 451 -136Q451 -161 442 -183.5Q433 -206 415.5 -222.5Q398 -239 374 -248.5Q350 -258 320 -258Q297 -258 279 -252Q261 -246 250 -237Q231 -221 251 -200L275 -175Q290 -158 303 -165Q309 -168 320 -168Q335 -168 343 -157.5Q351 -147 351 -136Q351 -122 341 -114Q331 -106 317 -106Q309 -106 301 -107Q293 -108 286 -110Q268 -114 263 -95Z" glyph-name="Scedilla" horiz-adv-x="658" unicode="&#350;" /><glyph d="M583 753Q605 750 605 724V553Q605 525 575 532Q556 537 528 543.5Q500 550 468 556Q436 562 402 566Q368 570 338 570Q278 570 278 536Q278 512 308.5 501.5Q339 491 384 480Q424 470 468.5 455.5Q513 441 550.5 414Q588 387 613 344.5Q638 302 638 236Q638 99 556.5 39.5Q475 -20 325 -20Q280 -20 238.5 -18Q197 -16 161 -13.5Q125 -11 97 -8Q69 -5 52 -3Q30 0 30 26V197Q30 226 60 218Q80 213 110.5 206.5Q141 200 175.5 194Q210 188 245.5 184Q281 180 312 180Q338 180 355 187Q372 194 372 220Q372 242 345.5 252.5Q319 263 279.5 272Q240 281 193.5 293.5Q147 306 107.5 332.5Q68 359 41.5 405Q15 451 15 526Q15 592 39.5 638Q64 684 109.5 713.5Q155 743 218.5 756.5Q282 770 360 770Q388 770 420 768Q452 766 482.5 763.5Q513 761 539.5 758Q566 755 583 753ZM334 904H325L305 835Q301 820 278 820H107Q92 820 85.5 829.5Q79 839 90 850L190 951Q198 960 214 960H446Q463 960 470 951L570 850Q580 839 574 829.5Q568 820 553 820H382Q360 820 355 835Z" glyph-name="Scircumflex" horiz-adv-x="658" unicode="&#348;" /><glyph d="M253 -230Q253 -215 262.5 -212.5Q272 -210 277 -210Q310 -208 327 -198.5Q344 -189 344 -166Q339 -173 327.5 -181Q316 -189 297 -189Q270 -189 251 -174Q232 -159 232 -119Q232 -80 259.5 -56.5Q287 -33 325 -33Q371 -33 398 -61Q425 -89 425 -145Q425 -210 386.5 -236Q348 -262 285 -266Q277 -267 265 -263.5Q253 -260 253 -246ZM583 753Q605 750 605 724V553Q605 525 575 532Q556 537 528 543.5Q500 550 468 556Q436 562 402 566Q368 570 338 570Q278 570 278 536Q278 512 308.5 501.5Q339 491 384 480Q424 470 468.5 455.5Q513 441 550.5 414Q588 387 613 344.5Q638 302 638 236Q638 99 556.5 39.5Q475 -20 325 -20Q280 -20 238.5 -18Q197 -16 161 -13.5Q125 -11 97 -8Q69 -5 52 -3Q30 0 30 26V197Q30 226 60 218Q80 213 110.5 206.5Q141 200 175.5 194Q210 188 245.5 184Q281 180 312 180Q338 180 355 187Q372 194 372 220Q372 242 345.5 252.5Q319 263 279.5 272Q240 281 193.5 293.5Q147 306 107.5 332.5Q68 359 41.5 405Q15 451 15 526Q15 592 39.5 638Q64 684 109.5 713.5Q155 743 218.5 756.5Q282 770 360 770Q388 770 420 768Q452 766 482.5 763.5Q513 761 539.5 758Q566 755 583 753Z" glyph-name="Scommaaccent" horiz-adv-x="658" unicode="&#536;" /><glyph d="M467 540V30Q467 0 437 0H225Q195 0 195 30V540H40Q10 540 10 570V720Q10 750 40 750H622Q652 750 652 720V570Q652 540 622 540Z" glyph-name="T" horiz-adv-x="662" unicode="T" /><glyph d="M467 540V30Q467 0 437 0H225Q195 0 195 30V540H40Q10 540 10 570V720Q10 750 40 750H622Q652 750 652 720V570Q652 540 622 540ZM357 945Q362 960 384 960H555Q570 960 576 950.5Q582 941 572 930L472 829Q465 820 448 820H216Q200 820 192 829L92 930Q81 941 87.5 950.5Q94 960 109 960H280Q303 960 307 945L327 876H336Z" glyph-name="Tcaron" horiz-adv-x="662" unicode="&#356;" /><glyph d="M257 -230Q257 -215 266.5 -212.5Q276 -210 281 -210Q314 -208 331 -198.5Q348 -189 348 -166Q343 -173 331.5 -181Q320 -189 301 -189Q274 -189 255 -174Q236 -159 236 -119Q236 -80 263.5 -56.5Q291 -33 329 -33Q375 -33 402 -61Q429 -89 429 -145Q429 -210 390.5 -236Q352 -262 289 -266Q281 -267 269 -263.5Q257 -260 257 -246ZM467 540V30Q467 0 437 0H225Q195 0 195 30V540H40Q10 540 10 570V720Q10 750 40 750H622Q652 750 652 720V570Q652 540 622 540Z" glyph-name="Tcommaaccent" horiz-adv-x="662" unicode="&#354;" /><glyph d="M70 0Q40 0 40 30V720Q40 750 70 750H272Q302 750 302 720V609H373Q441 609 498.5 596.5Q556 584 597.5 557Q639 530 662 487Q685 444 685 382Q685 321 662 276Q639 231 597.5 202Q556 173 498.5 159Q441 145 373 145H302V30Q302 0 272 0ZM350 327Q380 327 400 339.5Q420 352 420 382Q420 412 400 424.5Q380 437 350 437H302V327Z" glyph-name="Thorn" horiz-adv-x="695" unicode="&#222;" /><glyph d="M296 265Q297 227 317.5 211Q338 195 368 195Q398 195 418.5 211Q439 227 440 265L445 720Q445 750 475 750H672Q702 750 702 720V285Q702 214 683 157.5Q664 101 622.5 61.5Q581 22 517 1Q453 -20 363 -20Q275 -20 212 1Q149 22 108.5 61.5Q68 101 49 157.5Q30 214 30 285V720Q30 750 60 750H261Q291 750 291 720Z" glyph-name="U" horiz-adv-x="732" unicode="U" /><glyph d="M296 265Q297 227 317.5 211Q338 195 368 195Q398 195 418.5 211Q439 227 440 265L445 720Q445 750 475 750H672Q702 750 702 720V285Q702 214 683 157.5Q664 101 622.5 61.5Q581 22 517 1Q453 -20 363 -20Q275 -20 212 1Q149 22 108.5 61.5Q68 101 49 157.5Q30 214 30 285V720Q30 750 60 750H261Q291 750 291 720ZM319 945Q325 960 346 960H552Q567 960 573 950.5Q579 941 569 930L483 829Q476 820 459 820H299Q284 820 278 828Q272 836 278 850Z" glyph-name="Uacute" horiz-adv-x="732" unicode="&#218;" /><glyph d="M296 265Q297 227 317.5 211Q338 195 368 195Q398 195 418.5 211Q439 227 440 265L445 720Q445 750 475 750H672Q702 750 702 720V285Q702 214 683 157.5Q664 101 622.5 61.5Q581 22 517 1Q453 -20 363 -20Q275 -20 212 1Q149 22 108.5 61.5Q68 101 49 157.5Q30 214 30 285V720Q30 750 60 750H261Q291 750 291 720ZM587 950Q574 892 515 860.5Q456 829 362 829Q268 829 212 860.5Q156 892 145 950Q142 965 151 972.5Q160 980 175 980H291Q313 980 319 964Q324 950 336.5 941Q349 932 366 932Q383 932 395.5 941Q408 950 413 964Q419 980 441 980H557Q572 980 581 972.5Q590 965 587 950Z" glyph-name="Ubreve" horiz-adv-x="732" unicode="&#364;" /><glyph d="M296 265Q297 227 317.5 211Q338 195 368 195Q398 195 418.5 211Q439 227 440 265L445 720Q445 750 475 750H672Q702 750 702 720V285Q702 214 683 157.5Q664 101 622.5 61.5Q581 22 517 1Q453 -20 363 -20Q275 -20 212 1Q149 22 108.5 61.5Q68 101 49 157.5Q30 214 30 285V720Q30 750 60 750H261Q291 750 291 720ZM373 904H364L344 835Q340 820 317 820H146Q131 820 124.5 829.5Q118 839 129 850L229 951Q237 960 253 960H485Q502 960 509 951L609 850Q619 839 613 829.5Q607 820 592 820H421Q399 820 394 835Z" glyph-name="Ucircumflex" horiz-adv-x="732" unicode="&#219;" /><glyph d="M335 883Q335 839 305 815.5Q275 792 227 792Q178 792 150 814Q122 836 122 879Q122 921 152 945.5Q182 970 231 970Q279 970 307 948.5Q335 927 335 883ZM616 883Q616 839 586 815.5Q556 792 508 792Q459 792 431 814Q403 836 403 879Q403 921 433 945.5Q463 970 512 970Q560 970 588 948.5Q616 927 616 883ZM296 265Q297 227 317.5 211Q338 195 368 195Q398 195 418.5 211Q439 227 440 265L445 720Q445 750 475 750H672Q702 750 702 720V285Q702 214 683 157.5Q664 101 622.5 61.5Q581 22 517 1Q453 -20 363 -20Q275 -20 212 1Q149 22 108.5 61.5Q68 101 49 157.5Q30 214 30 285V720Q30 750 60 750H261Q291 750 291 720Z" glyph-name="Udieresis" horiz-adv-x="732" unicode="&#220;" /><glyph d="M296 265Q297 227 317.5 211Q338 195 368 195Q398 195 418.5 211Q439 227 440 265L445 720Q445 750 475 750H672Q702 750 702 720V285Q702 214 683 157.5Q664 101 622.5 61.5Q581 22 517 1Q453 -20 363 -20Q275 -20 212 1Q149 22 108.5 61.5Q68 101 49 157.5Q30 214 30 285V720Q30 750 60 750H261Q291 750 291 720ZM464 850Q470 836 464 828Q458 820 443 820H283Q267 820 259 829L173 930Q163 941 169 950.5Q175 960 190 960H396Q417 960 423 945Z" glyph-name="Ugrave" horiz-adv-x="732" unicode="&#217;" /><glyph d="M296 265Q297 227 317.5 211Q338 195 368 195Q398 195 418.5 211Q439 227 440 265L445 720Q445 750 475 750H672Q702 750 702 720V285Q702 214 683 157.5Q664 101 622.5 61.5Q581 22 517 1Q453 -20 363 -20Q275 -20 212 1Q149 22 108.5 61.5Q68 101 49 157.5Q30 214 30 285V720Q30 750 60 750H261Q291 750 291 720ZM173 945Q179 960 200 960H396Q411 960 417 950.5Q423 941 413 930L327 829Q320 820 303 820H153Q138 820 132 828Q126 836 132 850ZM453 945Q459 960 480 960H676Q691 960 697 950.5Q703 941 693 930L607 829Q600 820 583 820H433Q418 820 412 828Q406 836 412 850Z" glyph-name="Uhungarumlaut" horiz-adv-x="732" unicode="&#368;" /><glyph d="M296 265Q297 227 317.5 211Q338 195 368 195Q398 195 418.5 211Q439 227 440 265L445 720Q445 750 475 750H672Q702 750 702 720V285Q702 214 683 157.5Q664 101 622.5 61.5Q581 22 517 1Q453 -20 363 -20Q275 -20 212 1Q149 22 108.5 61.5Q68 101 49 157.5Q30 214 30 285V720Q30 750 60 750H261Q291 750 291 720ZM186 820Q156 820 156 850V930Q156 960 186 960H546Q576 960 576 930V850Q576 820 546 820Z" glyph-name="Umacron" horiz-adv-x="732" unicode="&#362;" /><glyph d="M409 -258Q343 -258 311.5 -230Q280 -202 280 -151Q280 -133 286.5 -114Q293 -95 303 -78Q313 -61 325.5 -46Q338 -31 350 -20Q265 -19 204.5 3Q144 25 105 64Q66 103 48 159Q30 215 30 285V720Q30 750 60 750H261Q291 750 291 720L296 265Q297 227 317.5 211Q338 195 368 195Q398 195 418.5 211Q439 227 440 265L445 720Q445 750 475 750H672Q702 750 702 720V285Q702 170 651.5 94.5Q601 19 487 -7Q459 -30 441 -48.5Q423 -67 412.5 -82.5Q402 -98 398.5 -111Q395 -124 395 -136Q395 -147 403 -157.5Q411 -168 426 -168Q433 -168 438.5 -165.5Q444 -163 451 -163Q461 -163 471 -175L495 -200Q515 -222 494 -237Q480 -247 456 -252.5Q432 -258 409 -258Z" glyph-name="Uogonek" horiz-adv-x="732" unicode="&#370;" /><glyph d="M594 919Q594 847 533 810Q472 773 366 773Q260 773 203 806.5Q146 840 146 912Q146 980 206.5 1019Q267 1058 373 1058Q479 1058 536.5 1025Q594 992 594 919ZM370 876Q391 876 405 884.5Q419 893 419 914Q419 935 405 944Q391 953 370 953Q349 953 335 944Q321 935 321 914Q321 893 335 884.5Q349 876 370 876ZM296 265Q297 227 317.5 211Q338 195 368 195Q398 195 418.5 211Q439 227 440 265L445 720Q445 750 475 750H672Q702 750 702 720V285Q702 214 683 157.5Q664 101 622.5 61.5Q581 22 517 1Q453 -20 363 -20Q275 -20 212 1Q149 22 108.5 61.5Q68 101 49 157.5Q30 214 30 285V720Q30 750 60 750H261Q291 750 291 720Z" glyph-name="Uring" horiz-adv-x="732" unicode="&#366;" /><glyph d="M597 19Q593 0 568 0H224Q200 0 195 19L15 712Q11 726 17 738Q23 750 43 750H277Q301 750 306 728L398 260H408L500 728Q505 750 529 750H743Q763 750 769 738Q775 726 771 712Z" glyph-name="V" horiz-adv-x="786" unicode="V" /><glyph d="M672 750Q702 750 702 720V285Q702 214 683 157.5Q664 101 622.5 61.5Q581 22 517 1Q453 -20 363 -20Q275 -20 212 1Q149 22 108.5 61.5Q68 101 49 157.5Q30 214 30 285V720Q30 750 60 750H261Q291 750 291 720L296 265Q297 227 317.5 211Q338 195 368 195Q398 195 418.5 211Q439 227 440 265L443 555H398Q368 555 368 585V720Q368 750 398 750Z" glyph-name="V.round" horiz-adv-x="732" unicode="&#61747;" /><glyph d="M1023 19Q1019 0 994 0H686Q660 0 657 19L604 339H594L543 19Q540 0 514 0H190Q166 0 161 19L13 712Q10 726 15.5 738Q21 750 41 750H266Q292 750 295 728L363 260H373L448 728Q451 750 477 750H722Q748 750 751 728L825 260H835L903 728Q906 750 932 750H1137Q1157 750 1162.5 738Q1168 726 1165 712Z" glyph-name="W" horiz-adv-x="1178" unicode="W" /><glyph d="M296 265Q297 227 317.5 211Q338 195 368 195Q398 195 418.5 211Q439 227 440 265L445 720Q445 750 475 750H667Q697 750 697 720L702 265Q703 227 723.5 211Q744 195 774 195Q804 195 824.5 211Q845 227 846 265L849 555H804Q774 555 774 585V720Q774 750 804 750H1078Q1108 750 1108 720V285Q1108 214 1089 157.5Q1070 101 1028.5 61.5Q987 22 923 1Q859 -20 769 -20Q706 -20 652.5 -3Q599 14 568 42Q536 14 482 -3Q428 -20 363 -20Q275 -20 212 1Q149 22 108.5 61.5Q68 101 49 157.5Q30 214 30 285V720Q30 750 60 750H261Q291 750 291 720Z" glyph-name="W.round" horiz-adv-x="1138" unicode="&#61749;" /><glyph d="M373 163 289 12Q282 0 263 0H43Q28 0 22 8.5Q16 17 24 30L237 367L23 720Q15 733 20.5 741.5Q26 750 41 750H282Q302 750 310 736L390 587L474 738Q482 750 500 750H720Q735 750 741 741.5Q747 733 739 720L525 383L740 30Q748 17 742.5 8.5Q737 0 722 0H481Q461 0 453 14Z" glyph-name="X" horiz-adv-x="763" unicode="X" /><glyph d="M20 152Q20 201 28.5 237Q37 273 52 298.5Q67 324 88 340Q109 356 134 365Q141 368 148.5 370.5Q156 373 164 375Q156 377 148.5 379.5Q141 382 134 385Q109 394 88 410Q67 426 52 451.5Q37 477 28.5 513Q20 549 20 598V720Q20 750 50 750H270Q300 750 300 720L304 534Q305 508 322.5 493.5Q340 479 366 479Q392 479 409.5 493.5Q427 508 428 534L432 720Q432 750 462 750H682Q712 750 712 720V598Q712 549 704 513Q696 477 681 451.5Q666 426 645 410Q624 394 598 385Q591 382 583 379.5Q575 377 567 375Q575 373 583 370.5Q591 368 598 365Q624 356 645 340Q666 324 681 298.5Q696 273 704 237Q712 201 712 152V30Q712 0 682 0H462Q432 0 432 30L428 214Q427 240 409.5 254.5Q392 269 366 269Q340 269 322.5 254.5Q305 240 304 214L300 30Q300 0 270 0H50Q20 0 20 30Z" glyph-name="X.round" horiz-adv-x="732" unicode="&#61752;" /><glyph d="M274 0Q244 0 244 30V270L20 720Q13 734 18 742Q23 750 38 750H279Q303 750 307 736L373 530H383L450 738Q454 750 476 750H688Q703 750 708 742Q713 734 707 720L506 270V30Q506 0 476 0Z" glyph-name="Y" horiz-adv-x="726" unicode="Y" /><glyph d="M213 249Q109 277 64.5 352Q20 427 20 539V720Q20 750 50 750H252Q282 750 282 720L286 514Q286 484 303.5 466.5Q321 449 347 449Q373 449 391.5 466.5Q410 484 410 514L414 720Q414 750 444 750H642Q672 750 672 720V539Q672 427 626.5 352Q581 277 475 249V30Q475 0 445 0H243Q213 0 213 30Z" glyph-name="Y.round" horiz-adv-x="692" unicode="&#61760;" /><glyph d="M335 945Q341 960 362 960H568Q583 960 589 950.5Q595 941 585 930L499 829Q492 820 475 820H315Q300 820 294 828Q288 836 294 850ZM274 0Q244 0 244 30V270L20 720Q13 734 18 742Q23 750 38 750H279Q303 750 307 736L373 530H383L450 738Q454 750 476 750H688Q703 750 708 742Q713 734 707 720L506 270V30Q506 0 476 0Z" glyph-name="Yacute" horiz-adv-x="726" unicode="&#221;" /><glyph d="M213 249Q109 277 64.5 352Q20 427 20 539V720Q20 750 50 750H252Q282 750 282 720L286 514Q286 484 303.5 466.5Q321 449 347 449Q373 449 391.5 466.5Q410 484 410 514L414 720Q414 750 444 750H642Q672 750 672 720V539Q672 427 626.5 352Q581 277 475 249V30Q475 0 445 0H243Q213 0 213 30ZM298 945Q304 960 325 960H531Q546 960 552 950.5Q558 941 548 930L462 829Q455 820 438 820H278Q263 820 257 828Q251 836 257 850Z" glyph-name="Yacute.round" horiz-adv-x="692" unicode="&#61762;" /><glyph d="M344 883Q344 839 314 815.5Q284 792 236 792Q187 792 159 814Q131 836 131 879Q131 921 161 945.5Q191 970 240 970Q288 970 316 948.5Q344 927 344 883ZM625 883Q625 839 595 815.5Q565 792 517 792Q468 792 440 814Q412 836 412 879Q412 921 442 945.5Q472 970 521 970Q569 970 597 948.5Q625 927 625 883ZM274 0Q244 0 244 30V270L20 720Q13 734 18 742Q23 750 38 750H279Q303 750 307 736L373 530H383L450 738Q454 750 476 750H688Q703 750 708 742Q713 734 707 720L506 270V30Q506 0 476 0Z" glyph-name="Ydieresis" horiz-adv-x="726" unicode="&#376;" /><glyph d="M597 883Q597 839 567 815.5Q537 792 489 792Q440 792 412 814Q384 836 384 879Q384 921 414 945.5Q444 970 493 970Q541 970 569 948.5Q597 927 597 883ZM316 883Q316 839 286 815.5Q256 792 208 792Q159 792 131 814Q103 836 103 879Q103 921 133 945.5Q163 970 212 970Q260 970 288 948.5Q316 927 316 883ZM213 249Q109 277 64.5 352Q20 427 20 539V720Q20 750 50 750H252Q282 750 282 720L286 514Q286 484 303.5 466.5Q321 449 347 449Q373 449 391.5 466.5Q410 484 410 514L414 720Q414 750 444 750H642Q672 750 672 720V539Q672 427 626.5 352Q581 277 475 249V30Q475 0 445 0H243Q213 0 213 30Z" glyph-name="Ydieresis.round" horiz-adv-x="692" unicode="&#61765;" /><glyph d="M307 540H55Q25 540 25 570V720Q25 750 55 750H583Q613 750 613 720V573Q613 560 607 552L334 210H583Q613 210 613 180V30Q613 0 583 0H55Q25 0 25 30V177Q25 191 31 198Z" glyph-name="Z" horiz-adv-x="638" unicode="Z" /><glyph d="M307 540H55Q25 540 25 570V720Q25 750 55 750H583Q613 750 613 720V573Q613 560 607 552L334 210H583Q613 210 613 180V30Q613 0 583 0H55Q25 0 25 30V177Q25 191 31 198ZM265 945Q271 960 292 960H498Q513 960 519 950.5Q525 941 515 930L429 829Q422 820 405 820H245Q230 820 224 828Q218 836 224 850Z" glyph-name="Zacute" horiz-adv-x="638" unicode="&#377;" /><glyph d="M360 945Q365 960 387 960H558Q573 960 579 950.5Q585 941 575 930L475 829Q468 820 451 820H219Q203 820 195 829L95 930Q84 941 90.5 950.5Q97 960 112 960H283Q306 960 310 945L330 876H339ZM307 540H55Q25 540 25 570V720Q25 750 55 750H583Q613 750 613 720V573Q613 560 607 552L334 210H583Q613 210 613 180V30Q613 0 583 0H55Q25 0 25 30V177Q25 191 31 198Z" glyph-name="Zcaron" horiz-adv-x="638" unicode="&#381;" /><glyph d="M451 897Q451 840 415.5 814.5Q380 789 322 789Q264 789 231 812.5Q198 836 198 892Q198 946 233.5 973Q269 1000 327 1000Q385 1000 418 977Q451 954 451 897ZM307 540H55Q25 540 25 570V720Q25 750 55 750H583Q613 750 613 720V573Q613 560 607 552L334 210H583Q613 210 613 180V30Q613 0 583 0H55Q25 0 25 30V177Q25 191 31 198Z" glyph-name="Zdotaccent" horiz-adv-x="638" unicode="&#379;" /><glyph d="M406 489Q411 510 435 510H626Q656 510 656 480V30Q656 0 626 0H433Q409 0 404 21L393 77Q387 62 374.5 46Q362 30 343 17Q324 4 298 -4Q272 -12 238 -12Q178 -12 136 7Q94 26 68 60.5Q42 95 30 143.5Q18 192 18 250Q18 308 33 358.5Q48 409 78 446Q108 483 153 504Q198 525 258 525Q307 525 346 502.5Q385 480 393 428ZM393 255Q393 285 380.5 305Q368 325 338 325Q308 325 295.5 305Q283 285 283 255Q283 225 295.5 205Q308 185 338 185Q368 185 380.5 205Q393 225 393 255Z" glyph-name="a" horiz-adv-x="696" unicode="a" /><glyph d="M433 0Q409 0 404 21L393 77Q387 62 374.5 46Q362 30 343 17Q324 4 298 -4Q272 -12 238 -12Q178 -12 136 7Q94 26 68 60.5Q42 95 30 143.5Q18 192 18 250Q18 308 33 358.5Q48 409 78 446Q108 483 153 504Q198 525 258 525Q307 525 346 502.5Q385 480 393 428L406 489Q411 510 435 510H606Q636 510 636 480V210Q687 210 711.5 191Q736 172 736 119V30Q736 0 706 0ZM393 255Q393 285 380.5 305Q368 325 338 325Q308 325 295.5 305Q283 285 283 255Q283 225 295.5 205Q308 185 338 185Q368 185 380.5 205Q393 225 393 255Z" glyph-name="a.end" horiz-adv-x="746" unicode="&#58016;" /><glyph d="M406 489Q411 510 435 510H626Q656 510 656 480V30Q656 0 626 0H433Q409 0 404 21L393 77Q387 62 374.5 46Q362 30 343 17Q324 4 298 -4Q272 -12 238 -12Q178 -12 136 7Q94 26 68 60.5Q42 95 30 143.5Q18 192 18 250Q18 308 33 358.5Q48 409 78 446Q108 483 153 504Q198 525 258 525Q307 525 346 502.5Q385 480 393 428ZM393 255Q393 285 380.5 305Q368 325 338 325Q308 325 295.5 305Q283 285 283 255Q283 225 295.5 205Q308 185 338 185Q368 185 380.5 205Q393 225 393 255ZM308 735Q314 750 335 750H541Q556 750 562 740.5Q568 731 558 720L472 619Q465 610 448 610H288Q273 610 267 618Q261 626 267 640Z" glyph-name="aacute" horiz-adv-x="696" unicode="&#225;" /><glyph d="M308 735Q314 750 335 750H541Q556 750 562 740.5Q568 731 558 720L472 619Q465 610 448 610H288Q273 610 267 618Q261 626 267 640ZM433 0Q409 0 404 21L393 77Q387 62 374.5 46Q362 30 343 17Q324 4 298 -4Q272 -12 238 -12Q178 -12 136 7Q94 26 68 60.5Q42 95 30 143.5Q18 192 18 250Q18 308 33 358.5Q48 409 78 446Q108 483 153 504Q198 525 258 525Q307 525 346 502.5Q385 480 393 428L406 489Q411 510 435 510H606Q636 510 636 480V210Q687 210 711.5 191Q736 172 736 119V30Q736 0 706 0ZM393 255Q393 285 380.5 305Q368 325 338 325Q308 325 295.5 305Q283 285 283 255Q283 225 295.5 205Q308 185 338 185Q368 185 380.5 205Q393 225 393 255Z" glyph-name="aacute.end" horiz-adv-x="746" unicode="&#59701;" /><glyph d="M406 489Q411 510 435 510H626Q656 510 656 480V30Q656 0 626 0H433Q409 0 404 21L393 77Q387 62 374.5 46Q362 30 343 17Q324 4 298 -4Q272 -12 238 -12Q178 -12 136 7Q94 26 68 60.5Q42 95 30 143.5Q18 192 18 250Q18 308 33 358.5Q48 409 78 446Q108 483 153 504Q198 525 258 525Q307 525 346 502.5Q385 480 393 428ZM393 255Q393 285 380.5 305Q368 325 338 325Q308 325 295.5 305Q283 285 283 255Q283 225 295.5 205Q308 185 338 185Q368 185 380.5 205Q393 225 393 255ZM569 720Q556 662 497 630.5Q438 599 344 599Q250 599 194 630.5Q138 662 127 720Q124 735 133 742.5Q142 750 157 750H273Q295 750 301 734Q306 720 318.5 711Q331 702 348 702Q365 702 377.5 711Q390 720 395 734Q401 750 423 750H539Q554 750 563 742.5Q572 735 569 720Z" glyph-name="abreve" horiz-adv-x="696" unicode="&#259;" /><glyph d="M433 0Q409 0 404 21L393 77Q387 62 374.5 46Q362 30 343 17Q324 4 298 -4Q272 -12 238 -12Q178 -12 136 7Q94 26 68 60.5Q42 95 30 143.5Q18 192 18 250Q18 308 33 358.5Q48 409 78 446Q108 483 153 504Q198 525 258 525Q307 525 346 502.5Q385 480 393 428L406 489Q411 510 435 510H606Q636 510 636 480V210Q687 210 711.5 191Q736 172 736 119V30Q736 0 706 0ZM393 255Q393 285 380.5 305Q368 325 338 325Q308 325 295.5 305Q283 285 283 255Q283 225 295.5 205Q308 185 338 185Q368 185 380.5 205Q393 225 393 255ZM570 720Q557 662 498 630.5Q439 599 345 599Q251 599 195 630.5Q139 662 128 720Q125 735 134 742.5Q143 750 158 750H274Q296 750 302 734Q307 720 319.5 711Q332 702 349 702Q366 702 378.5 711Q391 720 396 734Q402 750 424 750H540Q555 750 564 742.5Q573 735 570 720Z" glyph-name="abreve.end" horiz-adv-x="746" unicode="&#59714;" /><glyph d="M406 489Q411 510 435 510H626Q656 510 656 480V30Q656 0 626 0H433Q409 0 404 21L393 77Q387 62 374.5 46Q362 30 343 17Q324 4 298 -4Q272 -12 238 -12Q178 -12 136 7Q94 26 68 60.5Q42 95 30 143.5Q18 192 18 250Q18 308 33 358.5Q48 409 78 446Q108 483 153 504Q198 525 258 525Q307 525 346 502.5Q385 480 393 428ZM393 255Q393 285 380.5 305Q368 325 338 325Q308 325 295.5 305Q283 285 283 255Q283 225 295.5 205Q308 185 338 185Q368 185 380.5 205Q393 225 393 255ZM378 694H369L349 625Q345 610 322 610H151Q136 610 129.5 619.5Q123 629 134 640L234 741Q242 750 258 750H490Q507 750 514 741L614 640Q624 629 618 619.5Q612 610 597 610H426Q404 610 399 625Z" glyph-name="acircumflex" horiz-adv-x="696" unicode="&#226;" /><glyph d="M369 694H360L340 625Q336 610 313 610H142Q127 610 120.5 619.5Q114 629 125 640L225 741Q233 750 249 750H481Q498 750 505 741L605 640Q615 629 609 619.5Q603 610 588 610H417Q395 610 390 625ZM433 0Q409 0 404 21L393 77Q387 62 374.5 46Q362 30 343 17Q324 4 298 -4Q272 -12 238 -12Q178 -12 136 7Q94 26 68 60.5Q42 95 30 143.5Q18 192 18 250Q18 308 33 358.5Q48 409 78 446Q108 483 153 504Q198 525 258 525Q307 525 346 502.5Q385 480 393 428L406 489Q411 510 435 510H606Q636 510 636 480V210Q687 210 711.5 191Q736 172 736 119V30Q736 0 706 0ZM393 255Q393 285 380.5 305Q368 325 338 325Q308 325 295.5 305Q283 285 283 255Q283 225 295.5 205Q308 185 338 185Q368 185 380.5 205Q393 225 393 255Z" glyph-name="acircumflex.end" horiz-adv-x="746" unicode="&#59721;" /><glyph d="M114 735Q120 750 141 750H347Q362 750 368 740.5Q374 731 364 720L278 619Q271 610 254 610H94Q79 610 73 618Q67 626 73 640Z" glyph-name="acute" horiz-adv-x="390" unicode="&#180;" /><glyph d="M406 489Q411 510 435 510H626Q656 510 656 480V30Q656 0 626 0H433Q409 0 404 21L393 77Q387 62 374.5 46Q362 30 343 17Q324 4 298 -4Q272 -12 238 -12Q178 -12 136 7Q94 26 68 60.5Q42 95 30 143.5Q18 192 18 250Q18 308 33 358.5Q48 409 78 446Q108 483 153 504Q198 525 258 525Q307 525 346 502.5Q385 480 393 428ZM393 255Q393 285 380.5 305Q368 325 338 325Q308 325 295.5 305Q283 285 283 255Q283 225 295.5 205Q308 185 338 185Q368 185 380.5 205Q393 225 393 255ZM335 673Q335 629 305 605.5Q275 582 227 582Q178 582 150 604Q122 626 122 669Q122 711 152 735.5Q182 760 231 760Q279 760 307 738.5Q335 717 335 673ZM616 673Q616 629 586 605.5Q556 582 508 582Q459 582 431 604Q403 626 403 669Q403 711 433 735.5Q463 760 512 760Q560 760 588 738.5Q616 717 616 673Z" glyph-name="adieresis" horiz-adv-x="696" unicode="&#228;" /><glyph d="M338 673Q338 629 308 605.5Q278 582 230 582Q181 582 153 604Q125 626 125 669Q125 711 155 735.5Q185 760 234 760Q282 760 310 738.5Q338 717 338 673ZM619 673Q619 629 589 605.5Q559 582 511 582Q462 582 434 604Q406 626 406 669Q406 711 436 735.5Q466 760 515 760Q563 760 591 738.5Q619 717 619 673ZM433 0Q409 0 404 21L393 77Q387 62 374.5 46Q362 30 343 17Q324 4 298 -4Q272 -12 238 -12Q178 -12 136 7Q94 26 68 60.5Q42 95 30 143.5Q18 192 18 250Q18 308 33 358.5Q48 409 78 446Q108 483 153 504Q198 525 258 525Q307 525 346 502.5Q385 480 393 428L406 489Q411 510 435 510H606Q636 510 636 480V210Q687 210 711.5 191Q736 172 736 119V30Q736 0 706 0ZM393 255Q393 285 380.5 305Q368 325 338 325Q308 325 295.5 305Q283 285 283 255Q283 225 295.5 205Q308 185 338 185Q368 185 380.5 205Q393 225 393 255Z" glyph-name="adieresis.end" horiz-adv-x="746" unicode="&#59734;" /><glyph d="M387 255Q387 285 374.5 305Q362 325 332 325Q302 325 289.5 305Q277 285 277 255Q277 225 289.5 205Q302 185 332 185Q362 185 374.5 205Q387 225 387 255ZM608 267Q672 251 716 269Q714 301 698 313Q682 325 662 325Q644 325 627 312.5Q610 300 608 267ZM700 -15Q667 -15 634 -10Q601 -5 572 3.5Q543 12 520.5 24Q498 36 487 50Q449 14 399 -0.5Q349 -15 283 -15Q219 -15 170 4.5Q121 24 87 59.5Q53 95 35.5 143.5Q18 192 18 250Q18 308 35.5 359Q53 410 87 448Q121 486 170 508Q219 530 283 530Q312 530 342 526Q372 522 399 513Q426 504 449 491Q472 478 487 460Q510 489 558 509.5Q606 530 672 530Q803 530 872.5 459.5Q942 389 947 261Q948 246 940 240.5Q932 235 917 231Q892 224 852 217Q812 210 766 210Q734 210 705.5 214Q677 218 656 223Q630 228 609 235Q616 206 653.5 185.5Q691 165 766 165Q805 165 846 171.5Q887 178 913 183Q928 186 935.5 177Q943 168 943 153V27Q943 11 936 5Q929 -1 913 -3Q881 -6 824 -10.5Q767 -15 700 -15Z" glyph-name="ae" horiz-adv-x="963" unicode="&#230;" /><glyph d="M406 489Q411 510 435 510H626Q656 510 656 480V30Q656 0 626 0H433Q409 0 404 21L393 77Q387 62 374.5 46Q362 30 343 17Q324 4 298 -4Q272 -12 238 -12Q178 -12 136 7Q94 26 68 60.5Q42 95 30 143.5Q18 192 18 250Q18 308 33 358.5Q48 409 78 446Q108 483 153 504Q198 525 258 525Q307 525 346 502.5Q385 480 393 428ZM393 255Q393 285 380.5 305Q368 325 338 325Q308 325 295.5 305Q283 285 283 255Q283 225 295.5 205Q308 185 338 185Q368 185 380.5 205Q393 225 393 255ZM478 640Q484 626 478 618Q472 610 457 610H297Q281 610 273 619L187 720Q177 731 183 740.5Q189 750 204 750H410Q431 750 437 735Z" glyph-name="agrave" horiz-adv-x="696" unicode="&#224;" /><glyph d="M478 640Q484 626 478 618Q472 610 457 610H297Q281 610 273 619L187 720Q177 731 183 740.5Q189 750 204 750H410Q431 750 437 735ZM433 0Q409 0 404 21L393 77Q387 62 374.5 46Q362 30 343 17Q324 4 298 -4Q272 -12 238 -12Q178 -12 136 7Q94 26 68 60.5Q42 95 30 143.5Q18 192 18 250Q18 308 33 358.5Q48 409 78 446Q108 483 153 504Q198 525 258 525Q307 525 346 502.5Q385 480 393 428L406 489Q411 510 435 510H606Q636 510 636 480V210Q687 210 711.5 191Q736 172 736 119V30Q736 0 706 0ZM393 255Q393 285 380.5 305Q368 325 338 325Q308 325 295.5 305Q283 285 283 255Q283 225 295.5 205Q308 185 338 185Q368 185 380.5 205Q393 225 393 255Z" glyph-name="agrave.end" horiz-adv-x="746" unicode="&#59751;" /><glyph d="M192 610Q162 610 162 640V720Q162 750 192 750H552Q582 750 582 720V640Q582 610 552 610ZM406 489Q411 510 435 510H626Q656 510 656 480V30Q656 0 626 0H433Q409 0 404 21L393 77Q387 62 374.5 46Q362 30 343 17Q324 4 298 -4Q272 -12 238 -12Q178 -12 136 7Q94 26 68 60.5Q42 95 30 143.5Q18 192 18 250Q18 308 33 358.5Q48 409 78 446Q108 483 153 504Q198 525 258 525Q307 525 346 502.5Q385 480 393 428ZM393 255Q393 285 380.5 305Q368 325 338 325Q308 325 295.5 305Q283 285 283 255Q283 225 295.5 205Q308 185 338 185Q368 185 380.5 205Q393 225 393 255Z" glyph-name="amacron" horiz-adv-x="696" unicode="&#257;" /><glyph d="M433 0Q409 0 404 21L393 77Q387 62 374.5 46Q362 30 343 17Q324 4 298 -4Q272 -12 238 -12Q178 -12 136 7Q94 26 68 60.5Q42 95 30 143.5Q18 192 18 250Q18 308 33 358.5Q48 409 78 446Q108 483 153 504Q198 525 258 525Q307 525 346 502.5Q385 480 393 428L406 489Q411 510 435 510H606Q636 510 636 480V210Q687 210 711.5 191Q736 172 736 119V30Q736 0 706 0ZM393 255Q393 285 380.5 305Q368 325 338 325Q308 325 295.5 305Q283 285 283 255Q283 225 295.5 205Q308 185 338 185Q368 185 380.5 205Q393 225 393 255ZM192 610Q162 610 162 640V720Q162 750 192 750H552Q582 750 582 720V640Q582 610 552 610Z" glyph-name="amacron.end" horiz-adv-x="746" unicode="&#59764;" /><glyph d="M706 467Q736 467 736 437V311Q736 281 706 281H689Q696 265 700 243Q704 221 704 193Q704 141 680.5 101Q657 61 614.5 34Q572 7 513 -6.5Q454 -20 382 -20Q316 -20 256 -8Q196 4 150.5 30Q105 56 77.5 98.5Q50 141 50 201Q50 243 61.5 274Q73 305 90 327Q107 349 127 363Q147 377 165 385Q151 393 135 406.5Q119 420 105.5 441Q92 462 83.5 490.5Q75 519 75 555Q75 608 98.5 648.5Q122 689 163.5 716Q205 743 261 756.5Q317 770 382 770Q410 770 443 767.5Q476 765 506 762Q536 759 558 756Q580 753 584 752Q602 749 602 724V574Q602 557 592 551Q582 545 568 547Q564 548 550 551.5Q536 555 516 559Q496 563 470.5 566.5Q445 570 417 570Q379 570 352 555Q325 540 325 510Q325 485 336.5 476Q348 467 367 467Q397 467 397 437V311Q397 281 367 281Q352 281 338.5 271Q325 261 325 234Q325 205 345 192.5Q365 180 384 180Q409 180 424 188.5Q439 197 447 211Q455 225 457 243.5Q459 262 458 281H447Q417 281 417 311V437Q417 467 447 467Z" glyph-name="ampersand" horiz-adv-x="786" unicode="&amp;" /><glyph d="M330 556Q330 539 341 524.5Q352 510 371 496Q393 511 406.5 525.5Q420 540 420 557Q420 577 409 591Q398 605 378 605Q358 605 344 592Q330 579 330 556ZM368 159Q383 159 396.5 164Q410 169 424 182L347 248Q326 224 326 205Q326 183 338.5 171Q351 159 368 159ZM789 178Q812 158 793 136L685 2Q665 -23 642 -3L573 55Q525 18 473.5 -1.5Q422 -21 355 -21Q214 -21 144.5 41Q75 103 75 204Q75 265 108.5 309Q142 353 190 388Q152 430 130 474Q108 518 108 566Q108 613 127 650.5Q146 688 180.5 714.5Q215 741 262.5 755.5Q310 770 367 770Q435 770 485.5 753Q536 736 569 708Q602 680 618.5 644Q635 608 635 570Q635 517 603 470Q571 423 528 385L572 349L624 408Q643 431 667 412L776 322Q800 304 780 280L731 224Z" glyph-name="ampersand.001" horiz-adv-x="813" unicode="&#60060;" /><glyph d="M406 489Q411 510 435 510H626Q656 510 656 480V30Q656 8 641 2Q609 -24 588.5 -44Q568 -64 556.5 -80.5Q545 -97 541 -110.5Q537 -124 537 -136Q537 -147 545 -157.5Q553 -168 568 -168Q575 -168 580.5 -165.5Q586 -163 593 -163Q603 -163 613 -175L637 -200Q657 -222 636 -237Q622 -247 598 -252.5Q574 -258 551 -258Q485 -258 453.5 -230Q422 -202 422 -151Q422 -127 433.5 -102Q445 -77 460.5 -56Q476 -35 493 -20Q510 -5 521 0H433Q409 0 404 21L393 77Q387 62 374.5 46Q362 30 343 17Q324 4 298 -4Q272 -12 238 -12Q178 -12 136 7Q94 26 68 60.5Q42 95 30 143.5Q18 192 18 250Q18 308 33 358.5Q48 409 78 446Q108 483 153 504Q198 525 258 525Q307 525 346 502.5Q385 480 393 428ZM393 255Q393 285 380.5 305Q368 325 338 325Q308 325 295.5 305Q283 285 283 255Q283 225 295.5 205Q308 185 338 185Q368 185 380.5 205Q393 225 393 255Z" glyph-name="aogonek" horiz-adv-x="696" unicode="&#261;" /><glyph d="M631 -258Q565 -258 533.5 -230Q502 -202 502 -151Q502 -127 513.5 -102Q525 -77 540.5 -56Q556 -35 573 -20Q590 -5 601 0H433Q409 0 404 21L393 77Q387 62 374.5 46Q362 30 343 17Q324 4 298 -4Q272 -12 238 -12Q178 -12 136 7Q94 26 68 60.5Q42 95 30 143.5Q18 192 18 250Q18 308 33 358.5Q48 409 78 446Q108 483 153 504Q198 525 258 525Q307 525 346 502.5Q385 480 393 428L406 489Q411 510 435 510H606Q636 510 636 480V210Q687 210 711.5 191Q736 172 736 119V30Q736 8 721 2Q689 -24 668.5 -44Q648 -64 636.5 -80.5Q625 -97 621 -110.5Q617 -124 617 -136Q617 -147 625 -157.5Q633 -168 648 -168Q655 -168 660.5 -165.5Q666 -163 673 -163Q683 -163 693 -175L717 -200Q737 -222 716 -237Q702 -247 678 -252.5Q654 -258 631 -258ZM393 255Q393 285 380.5 305Q368 325 338 325Q308 325 295.5 305Q283 285 283 255Q283 225 295.5 205Q308 185 338 185Q368 185 380.5 205Q393 225 393 255Z" glyph-name="aogonek.end" horiz-adv-x="746" unicode="&#59778;" /><glyph d="M865 349Q888 341 914.5 310Q941 279 952 222Q955 207 958 188Q961 169 963.5 150Q966 131 967.5 114Q969 97 969 85Q969 30 912.5 10Q856 -10 744 -10Q679 -10 639 -4.5Q599 1 575 7.5Q551 14 540 19.5Q529 25 521 25Q513 25 506 19.5Q499 14 480.5 8Q462 2 426.5 -3.5Q391 -9 325 -9Q294 -9 261.5 -8Q229 -7 201 -2Q173 3 151 13Q129 23 118 40Q109 54 100.5 88.5Q92 123 85.5 169.5Q79 216 74.5 269.5Q70 323 70 374Q70 425 72.5 478Q75 531 82.5 577.5Q90 624 103 659.5Q116 695 137 711Q148 719 167.5 728Q187 737 229 744Q271 751 342.5 755.5Q414 760 529 760Q640 760 721.5 749.5Q803 739 857 712.5Q911 686 937 641Q963 596 963 526Q963 481 952 451Q941 421 926 401.5Q911 382 894 370.5Q877 359 865 352Q862 351 865 349ZM778 343Q773 344 773 348Q773 353 778 355Q802 367 824.5 379Q847 391 865 409Q883 427 894 455Q905 483 905 526Q905 583 879 618.5Q853 654 804 674Q755 694 685.5 701Q616 708 529 708Q488 708 436 706.5Q384 705 334.5 701Q285 697 245 690.5Q205 684 187 674Q157 657 142.5 577.5Q128 498 128 374Q128 331 130.5 285Q133 239 138 198Q143 157 150.5 124.5Q158 92 168 77Q183 53 221.5 48Q260 43 323 43Q344 43 373.5 43Q403 43 429 47Q455 51 473.5 61Q492 71 492 92L494 400H397Q388 400 385 408Q382 416 382 424Q383 432 387.5 442.5Q392 453 400 453H647Q654 453 656.5 447Q659 441 659 433Q659 425 655.5 412.5Q652 400 642 400H549L550 92Q550 74 570.5 64.5Q591 55 620.5 50Q650 45 683 44Q716 43 742 43Q825 43 868.5 53Q912 63 912 101Q912 105 910.5 116Q909 127 907.5 141.5Q906 156 904 171Q902 186 900 198Q896 224 887 248Q878 272 863 291.5Q848 311 827 325Q806 339 778 343Z" glyph-name="apple" horiz-adv-x="1019" unicode="&#63743;" /><glyph d="M562 552Q557 534 546 510Q535 486 515.5 465Q496 444 466 429.5Q436 415 393 415Q366 415 346.5 419Q327 423 311.5 429.5Q296 436 284 444Q272 452 260 461Q250 469 238 475Q226 481 206 481Q189 481 180.5 471.5Q172 462 168 451Q164 443 157.5 436.5Q151 430 137 432L61 440Q38 443 36 453.5Q34 464 37 475Q42 494 52.5 518Q63 542 82.5 563Q102 584 132.5 598.5Q163 613 206 613Q233 613 253 609Q273 605 288 598.5Q303 592 315 584Q327 576 339 567Q349 559 361 553Q373 547 393 547Q409 547 418 556.5Q427 566 432 577Q435 585 441.5 591Q448 597 462 595L538 588Q561 585 563 574Q565 563 562 552ZM562 306Q557 288 546 264Q535 240 515.5 219Q496 198 466 183.5Q436 169 393 169Q366 169 346.5 173Q327 177 311.5 183.5Q296 190 284 198Q272 206 260 215Q250 223 238 229Q226 235 206 235Q189 235 180.5 225.5Q172 216 168 205Q164 197 157.5 190.5Q151 184 137 186L61 194Q38 197 36 207.5Q34 218 37 229Q42 248 52.5 272Q63 296 82.5 317Q102 338 132.5 352.5Q163 367 206 367Q233 367 253 363Q273 359 288 352.5Q303 346 315 338Q327 330 339 321Q349 313 361 307Q373 301 393 301Q409 301 418 310.5Q427 320 432 331Q435 339 441.5 345Q448 351 462 349L538 342Q561 339 563 328Q565 317 562 306Z" glyph-name="approxequal" horiz-adv-x="599" unicode="&#8776;" /><glyph d="M406 489Q411 510 435 510H626Q656 510 656 480V30Q656 0 626 0H433Q409 0 404 21L393 77Q387 62 374.5 46Q362 30 343 17Q324 4 298 -4Q272 -12 238 -12Q178 -12 136 7Q94 26 68 60.5Q42 95 30 143.5Q18 192 18 250Q18 308 33 358.5Q48 409 78 446Q108 483 153 504Q198 525 258 525Q307 525 346 502.5Q385 480 393 428ZM393 255Q393 285 380.5 305Q368 325 338 325Q308 325 295.5 305Q283 285 283 255Q283 225 295.5 205Q308 185 338 185Q368 185 380.5 205Q393 225 393 255ZM594 699Q594 627 533 590Q472 553 366 553Q260 553 203 586.5Q146 620 146 692Q146 760 206.5 799Q267 838 373 838Q479 838 536.5 805Q594 772 594 699ZM370 656Q391 656 405 664.5Q419 673 419 694Q419 715 405 724Q391 733 370 733Q349 733 335 724Q321 715 321 694Q321 673 335 664.5Q349 656 370 656Z" glyph-name="aring" horiz-adv-x="696" unicode="&#229;" /><glyph d="M584 699Q584 627 523 590Q462 553 356 553Q250 553 193 586.5Q136 620 136 692Q136 760 196.5 799Q257 838 363 838Q469 838 526.5 805Q584 772 584 699ZM360 656Q381 656 395 664.5Q409 673 409 694Q409 715 395 724Q381 733 360 733Q339 733 325 724Q311 715 311 694Q311 673 325 664.5Q339 656 360 656ZM433 0Q409 0 404 21L393 77Q387 62 374.5 46Q362 30 343 17Q324 4 298 -4Q272 -12 238 -12Q178 -12 136 7Q94 26 68 60.5Q42 95 30 143.5Q18 192 18 250Q18 308 33 358.5Q48 409 78 446Q108 483 153 504Q198 525 258 525Q307 525 346 502.5Q385 480 393 428L406 489Q411 510 435 510H606Q636 510 636 480V210Q687 210 711.5 191Q736 172 736 119V30Q736 0 706 0ZM393 255Q393 285 380.5 305Q368 325 338 325Q308 325 295.5 305Q283 285 283 255Q283 225 295.5 205Q308 185 338 185Q368 185 380.5 205Q393 225 393 255Z" glyph-name="aring.end" horiz-adv-x="746" unicode="&#59785;" /><glyph d="M295 635H285L253 465Q251 457 244 453.5Q237 450 226 450H51Q36 450 32 458.5Q28 467 34 480L154 736Q161 750 180 750H400Q408 750 415.5 747Q423 744 426 737L546 480Q552 466 546 458Q540 450 525 450H354Q343 450 336 453.5Q329 457 327 465Z" glyph-name="asciicircum" horiz-adv-x="580" unicode="^" /><glyph d="M584 424Q580 407 570 385.5Q560 364 542 344.5Q524 325 496.5 312Q469 299 430 299Q381 299 355.5 312Q330 325 309 341Q300 348 289.5 353.5Q279 359 260 359Q245 359 237 350.5Q229 342 225 332Q222 324 216 318.5Q210 313 197 315L128 322Q107 324 105.5 334Q104 344 106 354Q111 371 120.5 392.5Q130 414 148 433.5Q166 453 193.5 466Q221 479 260 479Q309 479 334.5 466Q360 453 381 437Q390 430 400.5 424.5Q411 419 430 419Q444 419 452.5 427.5Q461 436 465 446Q468 454 474 459.5Q480 465 493 463L562 456Q583 454 584.5 444Q586 434 584 424Z" glyph-name="asciitilde" horiz-adv-x="690" unicode="~" /><glyph d="M384 675 484 712Q511 722 521 690L544 604Q552 571 523 567L418 549L498 474Q518 454 498 432L434 369Q423 358 412 357.5Q401 357 391 369L319 455L300 344Q295 315 263 323L177 347Q148 354 156 384L187 487L88 450Q61 440 51 472L28 558Q20 591 49 595L153 613L74 688Q54 708 74 730L138 793Q149 804 160 804.5Q171 805 181 793L252 707L272 818Q278 847 309 839L395 815Q424 808 416 778Z" glyph-name="asterisk" horiz-adv-x="572" unicode="*" /><glyph d="M396 266Q396 277 390 289Q384 301 369 301Q354 301 347.5 290.5Q341 280 341 269Q341 254 347.5 242.5Q354 231 369 231Q384 231 390 243Q396 255 396 266ZM480 394Q509 394 510 364L518 231Q528 237 538 256.5Q548 276 548 318Q548 375 506 405Q464 435 373 435Q328 435 292.5 422.5Q257 410 233 388Q209 366 196 335.5Q183 305 183 269Q183 175 240.5 137.5Q298 100 404 100Q437 100 460 102.5Q483 105 488 106Q518 109 518 79V-2Q518 -32 488 -32Q471 -33 456 -34Q441 -34 427.5 -34.5Q414 -35 404 -35Q317 -35 246 -18.5Q175 -2 124 34Q73 70 45.5 126.5Q18 183 18 264Q18 332 45.5 388Q73 444 122 484.5Q171 525 237.5 547.5Q304 570 383 570Q466 570 526 550Q586 530 625.5 495.5Q665 461 684 415Q703 369 703 318Q703 269 687.5 232.5Q672 196 645 172Q618 148 581.5 136.5Q545 125 502 125Q457 125 404 139L396 177Q393 171 387 163.5Q381 156 371.5 148.5Q362 141 349 136Q336 131 319 131Q259 131 231.5 168Q204 205 204 264Q204 293 212.5 318.5Q221 344 236.5 363Q252 382 275.5 393Q299 404 329 404Q355 404 374.5 388.5Q394 373 396 353L401 376Q403 385 408 389.5Q413 394 425 394Z" glyph-name="at" horiz-adv-x="718" unicode="@" /><glyph d="M406 489Q411 510 435 510H626Q656 510 656 480V30Q656 0 626 0H433Q409 0 404 21L393 77Q387 62 374.5 46Q362 30 343 17Q324 4 298 -4Q272 -12 238 -12Q178 -12 136 7Q94 26 68 60.5Q42 95 30 143.5Q18 192 18 250Q18 308 33 358.5Q48 409 78 446Q108 483 153 504Q198 525 258 525Q307 525 346 502.5Q385 480 393 428ZM393 255Q393 285 380.5 305Q368 325 338 325Q308 325 295.5 305Q283 285 283 255Q283 225 295.5 205Q308 185 338 185Q368 185 380.5 205Q393 225 393 255ZM620 709Q616 692 606 670.5Q596 649 578 629.5Q560 610 532.5 597Q505 584 466 584Q417 584 391.5 597Q366 610 345 626Q336 633 325.5 638.5Q315 644 296 644Q281 644 273 635.5Q265 627 261 617Q258 609 252 603.5Q246 598 233 600L164 607Q143 609 141.5 619Q140 629 142 639Q147 656 156.5 677.5Q166 699 184 718.5Q202 738 229.5 751Q257 764 296 764Q345 764 370.5 751Q396 738 417 722Q426 715 436.5 709.5Q447 704 466 704Q480 704 488.5 712.5Q497 721 501 731Q504 739 510 744.5Q516 750 529 748L598 741Q619 739 620.5 729Q622 719 620 709Z" glyph-name="atilde" horiz-adv-x="696" unicode="&#227;" /><glyph d="M433 0Q409 0 404 21L393 77Q387 62 374.5 46Q362 30 343 17Q324 4 298 -4Q272 -12 238 -12Q178 -12 136 7Q94 26 68 60.5Q42 95 30 143.5Q18 192 18 250Q18 308 33 358.5Q48 409 78 446Q108 483 153 504Q198 525 258 525Q307 525 346 502.5Q385 480 393 428L406 489Q411 510 435 510H606Q636 510 636 480V210Q687 210 711.5 191Q736 172 736 119V30Q736 0 706 0ZM393 255Q393 285 380.5 305Q368 325 338 325Q308 325 295.5 305Q283 285 283 255Q283 225 295.5 205Q308 185 338 185Q368 185 380.5 205Q393 225 393 255ZM610 709Q606 692 596 670.5Q586 649 568 629.5Q550 610 522.5 597Q495 584 456 584Q407 584 381.5 597Q356 610 335 626Q326 633 315.5 638.5Q305 644 286 644Q271 644 263 635.5Q255 627 251 617Q248 609 242 603.5Q236 598 223 600L154 607Q133 609 131.5 619Q130 629 132 639Q137 656 146.5 677.5Q156 699 174 718.5Q192 738 219.5 751Q247 764 286 764Q335 764 360.5 751Q386 738 407 722Q416 715 426.5 709.5Q437 704 456 704Q470 704 478.5 712.5Q487 721 491 731Q494 739 500 744.5Q506 750 519 748L588 741Q609 739 610.5 729Q612 719 610 709Z" glyph-name="atilde.end" horiz-adv-x="746" unicode="&#59799;" /><glyph d="M415 255Q415 285 402.5 305Q390 325 360 325Q330 325 317.5 305Q305 285 305 255Q305 225 317.5 205Q330 185 360 185Q390 185 402.5 205Q415 225 415 255ZM305 428Q313 443 325.5 460.5Q338 478 357.5 492Q377 506 403.5 515.5Q430 525 465 525Q518 525 557 506.5Q596 488 622.5 454Q649 420 662 373Q675 326 675 270Q675 212 660 160.5Q645 109 616 71Q587 33 544.5 10.5Q502 -12 446 -12Q407 -12 381 0Q355 12 338.5 27.5Q322 43 314.5 57.5Q307 72 305 77L294 21Q290 0 265 0H70Q40 0 40 30V720Q40 750 70 750H275Q305 750 305 720Z" glyph-name="b" horiz-adv-x="693" unicode="b" /><glyph d="M565 -15Q570 -29 562 -39.5Q554 -50 539 -50H349Q328 -50 322 -35L33 755Q28 769 36 779.5Q44 790 59 790H249Q270 790 276 775Z" glyph-name="backslash" horiz-adv-x="598" unicode="\" /><glyph d="M90 -210Q60 -210 60 -180V817Q60 847 90 847H280Q310 847 310 817V-180Q310 -210 280 -210Z" glyph-name="bar" horiz-adv-x="370" unicode="|" /><glyph d="M356 -5Q293 -4 237.5 1Q182 6 140 21.5Q98 37 73.5 66.5Q49 96 49 145Q49 171 58 189.5Q67 208 77.5 222.5Q88 237 97 249.5Q106 262 106 276Q106 293 94.5 300.5Q83 308 60 310Q45 312 37.5 318.5Q30 325 30 340V410Q30 425 37.5 431.5Q45 438 60 440Q83 442 94.5 449.5Q106 457 106 474Q106 488 98.5 500.5Q91 513 82.5 527.5Q74 542 66.5 560.5Q59 579 59 605Q59 654 82 683.5Q105 713 145 728.5Q185 744 239.5 749Q294 754 356 755Q386 755 386 725V649Q386 634 378.5 627.5Q371 621 356 619Q334 616 318.5 606.5Q303 597 303 580Q303 565 310.5 555Q318 545 326.5 534.5Q335 524 342.5 509.5Q350 495 350 470Q350 448 339.5 431Q329 414 317 403Q302 390 283 380V370Q302 359 317 345Q330 332 340 316Q350 300 350 280Q350 253 341 238.5Q332 224 321.5 214.5Q311 205 302 196Q293 187 293 172Q293 153 312 143.5Q331 134 356 131Q386 128 386 101V25Q386 -5 356 -5Z" glyph-name="braceleft" horiz-adv-x="416" unicode="{" /><glyph d="M60 755Q123 754 178.5 749Q234 744 276 728.5Q318 713 342.5 683.5Q367 654 367 605Q367 579 358 560.5Q349 542 338.5 527.5Q328 513 319 500.5Q310 488 310 474Q310 457 321.5 449.5Q333 442 356 440Q371 438 378.5 431.5Q386 425 386 410V340Q386 325 378.5 318.5Q371 312 356 310Q333 308 321.5 300.5Q310 293 310 276Q310 262 317.5 249.5Q325 237 333.5 222.5Q342 208 349.5 189.5Q357 171 357 145Q357 96 334 66.5Q311 37 271 21.5Q231 6 176.5 1Q122 -4 60 -5Q30 -5 30 25V101Q30 116 37.5 122.5Q45 129 60 131Q82 134 97.5 143.5Q113 153 113 170Q113 185 105.5 195Q98 205 89.5 215.5Q81 226 73.5 240.5Q66 255 66 280Q66 302 76.5 319Q87 336 100 347Q114 360 133 370V380Q114 391 100 405Q86 418 76 434Q66 450 66 470Q66 497 75 511.5Q84 526 94.5 535.5Q105 545 114 554Q123 563 123 578Q123 597 104 606.5Q85 616 60 619Q30 622 30 649V725Q30 755 60 755Z" glyph-name="braceright" horiz-adv-x="416" unicode="}" /><glyph d="M90 0Q60 0 60 30V720Q60 750 90 750H397Q427 750 427 720V651Q427 621 397 621H312V129H397Q427 129 427 99V30Q427 0 397 0Z" glyph-name="bracketleft" horiz-adv-x="457" unicode="[" /><glyph d="M367 750Q397 750 397 720V30Q397 0 367 0H60Q30 0 30 30V99Q30 129 60 129H145V621H60Q30 621 30 651V720Q30 750 60 750Z" glyph-name="bracketright" horiz-adv-x="457" unicode="]" /><glyph d="M500 720Q487 662 428 630.5Q369 599 275 599Q181 599 125 630.5Q69 662 58 720Q55 735 64 742.5Q73 750 88 750H204Q226 750 232 734Q237 720 249.5 711Q262 702 279 702Q296 702 308.5 711Q321 720 326 734Q332 750 354 750H470Q485 750 494 742.5Q503 735 500 720Z" glyph-name="breve" horiz-adv-x="560" unicode="&#728;" /><glyph d="M90 379Q60 379 60 409V817Q60 847 90 847H280Q310 847 310 817V409Q310 379 280 379ZM90 -210Q60 -210 60 -180V257Q60 287 90 287H280Q310 287 310 257V-180Q310 -210 280 -210Z" glyph-name="brokenbar" horiz-adv-x="370" unicode="&#166;" /><glyph d="M338 359Q338 299 300.5 269.5Q263 240 202 240Q141 240 106 267.5Q71 295 71 354Q71 411 108.5 442Q146 473 207 473Q268 473 303 446Q338 419 338 359Z" glyph-name="bullet" horiz-adv-x="407" unicode="&#8226;" /><glyph d="M463 -5Q440 -8 401.5 -11.5Q363 -15 309 -15Q242 -15 188 3Q134 21 96 55.5Q58 90 38 139Q18 188 18 250Q18 382 96.5 456Q175 530 318 530Q365 530 402.5 525.5Q440 521 463 516Q478 513 485.5 507Q493 501 493 486V356Q493 341 485.5 332Q478 323 463 326Q446 329 425.5 332Q405 335 388 335Q333 335 308 311Q283 287 283 260Q283 245 288 231.5Q293 218 305 207.5Q317 197 337 191Q357 185 388 185Q405 185 425.5 186Q446 187 463 188Q493 190 493 158V25Q493 10 485.5 3.5Q478 -3 463 -5Z" glyph-name="c" horiz-adv-x="523" unicode="c" /><glyph d="M240 735Q246 750 267 750H473Q488 750 494 740.5Q500 731 490 720L404 619Q397 610 380 610H220Q205 610 199 618Q193 626 199 640ZM463 -5Q440 -8 401.5 -11.5Q363 -15 309 -15Q242 -15 188 3Q134 21 96 55.5Q58 90 38 139Q18 188 18 250Q18 382 96.5 456Q175 530 318 530Q365 530 402.5 525.5Q440 521 463 516Q478 513 485.5 507Q493 501 493 486V356Q493 341 485.5 332Q478 323 463 326Q446 329 425.5 332Q405 335 388 335Q333 335 308 311Q283 287 283 260Q283 245 288 231.5Q293 218 305 207.5Q317 197 337 191Q357 185 388 185Q405 185 425.5 186Q446 187 463 188Q493 190 493 158V25Q493 10 485.5 3.5Q478 -3 463 -5Z" glyph-name="cacute" horiz-adv-x="523" unicode="&#263;" /><glyph d="M315 735Q320 750 342 750H513Q528 750 534 740.5Q540 731 530 720L430 619Q423 610 406 610H174Q158 610 150 619L50 720Q39 731 45.5 740.5Q52 750 67 750H238Q261 750 265 735L285 666H294Z" glyph-name="caron" horiz-adv-x="580" unicode="&#711;" /><glyph d="M463 -5Q440 -8 401.5 -11.5Q363 -15 309 -15Q242 -15 188 3Q134 21 96 55.5Q58 90 38 139Q18 188 18 250Q18 382 96.5 456Q175 530 318 530Q365 530 402.5 525.5Q440 521 463 516Q478 513 485.5 507Q493 501 493 486V356Q493 341 485.5 332Q478 323 463 326Q446 329 425.5 332Q405 335 388 335Q333 335 308 311Q283 287 283 260Q283 245 288 231.5Q293 218 305 207.5Q317 197 337 191Q357 185 388 185Q405 185 425.5 186Q446 187 463 188Q493 190 493 158V25Q493 10 485.5 3.5Q478 -3 463 -5ZM338 735Q343 750 365 750H536Q551 750 557 740.5Q563 731 553 720L453 619Q446 610 429 610H197Q181 610 173 619L73 720Q62 731 68.5 740.5Q75 750 90 750H261Q284 750 288 735L308 666H317Z" glyph-name="ccaron" horiz-adv-x="523" unicode="&#269;" /><glyph d="M463 -5Q440 -8 401.5 -11.5Q363 -15 309 -15Q242 -15 188 3Q134 21 96 55.5Q58 90 38 139Q18 188 18 250Q18 382 96.5 456Q175 530 318 530Q365 530 402.5 525.5Q440 521 463 516Q478 513 485.5 507Q493 501 493 486V356Q493 341 485.5 332Q478 323 463 326Q446 329 425.5 332Q405 335 388 335Q333 335 308 311Q283 287 283 260Q283 245 288 231.5Q293 218 305 207.5Q317 197 337 191Q357 185 388 185Q405 185 425.5 186Q446 187 463 188Q493 190 493 158V25Q493 10 485.5 3.5Q478 -3 463 -5ZM221 -55Q215 -31 241 -23Q252 -20 264 -17.5Q276 -15 289 -15Q347 -15 383 -47.5Q419 -80 419 -131Q419 -156 410 -178.5Q401 -201 383.5 -217.5Q366 -234 342 -243.5Q318 -253 288 -253Q265 -253 247 -247Q229 -241 218 -232Q199 -216 219 -195L243 -170Q258 -153 271 -160Q277 -163 288 -163Q303 -163 311 -152.5Q319 -142 319 -131Q319 -117 309 -109Q299 -101 285 -101Q277 -101 269 -102Q261 -103 254 -105Q236 -109 231 -90Z" glyph-name="ccedilla" horiz-adv-x="523" unicode="&#231;" /><glyph d="M463 -5Q440 -8 401.5 -11.5Q363 -15 309 -15Q242 -15 188 3Q134 21 96 55.5Q58 90 38 139Q18 188 18 250Q18 382 96.5 456Q175 530 318 530Q365 530 402.5 525.5Q440 521 463 516Q478 513 485.5 507Q493 501 493 486V356Q493 341 485.5 332Q478 323 463 326Q446 329 425.5 332Q405 335 388 335Q333 335 308 311Q283 287 283 260Q283 245 288 231.5Q293 218 305 207.5Q317 197 337 191Q357 185 388 185Q405 185 425.5 186Q446 187 463 188Q493 190 493 158V25Q493 10 485.5 3.5Q478 -3 463 -5ZM307 694H298L278 625Q274 610 251 610H80Q65 610 58.5 619.5Q52 629 63 640L163 741Q171 750 187 750H419Q436 750 443 741L543 640Q553 629 547 619.5Q541 610 526 610H355Q333 610 328 625Z" glyph-name="ccircumflex" horiz-adv-x="523" unicode="&#265;" /><glyph d="M235 -60Q229 -36 255 -28Q266 -25 278 -22.5Q290 -20 303 -20Q361 -20 397 -52.5Q433 -85 433 -136Q433 -161 424 -183.5Q415 -206 397.5 -222.5Q380 -239 356 -248.5Q332 -258 302 -258Q279 -258 261 -252Q243 -246 232 -237Q213 -221 233 -200L257 -175Q272 -158 285 -165Q291 -168 302 -168Q317 -168 325 -157.5Q333 -147 333 -136Q333 -122 323 -114Q313 -106 299 -106Q291 -106 283 -107Q275 -108 268 -110Q250 -114 245 -95Z" glyph-name="cedilla" horiz-adv-x="547" unicode="&#184;" /><glyph d="M430 -9V-180Q430 -210 400 -210H200Q170 -210 170 -180V10Q98 39 58 100.5Q18 162 18 250Q18 342 57 406Q96 470 170 502V721Q170 751 200 751H400Q430 751 430 721V521L463 516Q478 513 485.5 507Q493 501 493 486V356Q493 341 485.5 332Q478 323 463 326Q446 329 425.5 332Q405 335 388 335Q333 335 308 311Q283 287 283 260Q283 245 288 231.5Q293 218 305 207.5Q317 197 337 191Q357 185 388 185Q405 185 425.5 186Q446 187 463 188Q493 190 493 158V25Q493 10 485.5 3.5Q478 -3 463 -5Z" glyph-name="cent" horiz-adv-x="523" unicode="&#162;" /><glyph d="M294 694H285L265 625Q261 610 238 610H67Q52 610 45.5 619.5Q39 629 50 640L150 741Q158 750 174 750H406Q423 750 430 741L530 640Q540 629 534 619.5Q528 610 513 610H342Q320 610 315 625Z" glyph-name="circumflex" horiz-adv-x="580" unicode="&#710;" /><glyph d="M307 99Q307 39 269.5 9.5Q232 -20 171 -20Q110 -20 75 7.5Q40 35 40 94Q40 151 77.5 182Q115 213 176 213Q237 213 272 186Q307 159 307 99ZM307 409Q307 349 269.5 319.5Q232 290 171 290Q110 290 75 317.5Q40 345 40 404Q40 461 77.5 492Q115 523 176 523Q237 523 272 496Q307 469 307 409Z" glyph-name="colon" horiz-adv-x="347" unicode=":" /><glyph d="M92 -111Q106 -108 124.5 -100.5Q143 -93 159 -78.5Q175 -64 186 -41.5Q197 -19 197 14Q191 3 175 -8.5Q159 -20 131 -20Q93 -20 66.5 7.5Q40 35 40 90Q40 151 76 182Q112 213 166 213Q195 213 220.5 203Q246 193 265.5 172.5Q285 152 296 120.5Q307 89 307 45Q307 -9 290.5 -50Q274 -91 246 -120Q218 -149 181 -165.5Q144 -182 102 -188Q90 -190 81 -184.5Q72 -179 72 -164V-138Q72 -115 92 -111Z" glyph-name="comma" horiz-adv-x="347" unicode="," /><glyph d="M84 -230Q84 -215 93.5 -212.5Q103 -210 108 -210Q141 -208 158 -198.5Q175 -189 175 -166Q170 -173 158.5 -181Q147 -189 128 -189Q101 -189 82 -174Q63 -159 63 -119Q63 -80 90.5 -56.5Q118 -33 156 -33Q202 -33 229 -61Q256 -89 256 -145Q256 -210 217.5 -236Q179 -262 116 -266Q108 -267 96 -263.5Q84 -260 84 -246Z" glyph-name="commaaccent" horiz-adv-x="320" unicode="&#58388;" /><glyph d="M30 373Q30 461 62 533Q94 605 150 656.5Q206 708 282 736.5Q358 765 446 765Q534 765 610 736.5Q686 708 742.5 656.5Q799 605 831 533Q863 461 863 373Q863 285 831 213.5Q799 142 742.5 91Q686 40 610 12.5Q534 -15 446 -15Q358 -15 282 12.5Q206 40 150 91Q94 142 62 213.5Q30 285 30 373ZM569 187Q581 189 581 202V284Q581 302 565 298Q563 297 540.5 293Q518 289 495 289Q453 289 428 311Q403 333 403 381Q403 423 427.5 444.5Q452 466 490 466Q500 466 511.5 464.5Q523 463 533.5 461Q544 459 552 457Q560 455 562 455Q569 453 574 457Q579 461 579 469V551Q579 563 566 566Q559 567 534 570.5Q509 574 483 574Q428 574 386 559Q344 544 316 517.5Q288 491 274 453.5Q260 416 260 371Q260 284 314.5 231.5Q369 179 475 179Q514 179 540.5 182.5Q567 186 569 187Z" glyph-name="copyright" horiz-adv-x="893" unicode="&#169;" /><glyph d="M662 540Q686 507 699 466.5Q712 426 712 380Q712 333 698.5 292.5Q685 252 661 219L715 164Q737 143 715 121L673 80Q652 59 630 80L570 140Q535 121 496 111Q457 101 413 101Q370 101 331 111Q292 121 258 139L200 83Q179 62 157 83L116 125Q95 147 116 168L166 218Q141 251 127.5 292Q114 333 114 380Q114 428 128 469.5Q142 511 168 545L118 595Q97 617 118 638L160 679Q182 701 203 679L260 622Q329 659 413 659Q457 659 497 649Q537 639 572 620L631 678Q653 700 674 678L715 636Q737 615 715 593ZM512 380Q512 426 483.5 452.5Q455 479 413 479Q371 479 342.5 452.5Q314 426 314 380Q314 334 342.5 307.5Q371 281 413 281Q455 281 483.5 307.5Q512 334 512 380Z" glyph-name="currency" horiz-adv-x="833" unicode="&#164;" /><glyph d="M393 255Q393 285 380.5 305Q368 325 338 325Q308 325 295.5 305Q283 285 283 255Q283 225 295.5 205Q308 185 338 185Q368 185 380.5 205Q393 225 393 255ZM393 77Q387 62 374.5 46Q362 30 343 17Q324 4 298 -4Q272 -12 238 -12Q178 -12 136 7Q94 26 68 60.5Q42 95 30 143.5Q18 192 18 250Q18 308 33 358.5Q48 409 78 446Q108 483 153 504Q198 525 258 525Q307 525 346 502.5Q385 480 393 428V720Q393 750 423 750H626Q656 750 656 720V30Q656 0 626 0H433Q409 0 404 21Z" glyph-name="d" horiz-adv-x="696" unicode="d" /><glyph d="M433 0Q409 0 404 21L393 77Q387 62 374.5 46Q362 30 343 17Q324 4 298 -4Q272 -12 238 -12Q178 -12 136 7Q94 26 68 60.5Q42 95 30 143.5Q18 192 18 250Q18 308 33 358.5Q48 409 78 446Q108 483 153 504Q198 525 258 525Q307 525 346 502.5Q385 480 393 428V720Q393 750 423 750H616Q646 750 646 720V210Q697 210 721.5 191Q746 172 746 119V30Q746 0 716 0ZM393 255Q393 285 380.5 305Q368 325 338 325Q308 325 295.5 305Q283 285 283 255Q283 225 295.5 205Q308 185 338 185Q368 185 380.5 205Q393 225 393 255Z" glyph-name="d.end" horiz-adv-x="756" unicode="&#58019;" /><glyph d="M180 290 207 353 205 355 140 300Q95 300 69 314Q43 328 30 346.5Q17 365 13.5 384.5Q10 404 10 415Q10 426 13.5 445.5Q17 465 30 484Q43 503 69 516.5Q95 530 140 530L205 475L207 477L180 540V720Q180 750 210 750H410Q440 750 440 720V540L413 477L415 475L480 530Q525 530 551 516.5Q577 503 590 484Q603 465 606.5 445.5Q610 426 610 415Q610 404 606.5 384.5Q603 365 590 346.5Q577 328 551 314Q525 300 480 300L415 355L413 353L440 290L405 -180Q404 -210 375 -210H245Q217 -210 215 -180Z" glyph-name="dagger" horiz-adv-x="620" unicode="&#8224;" /><glyph d="M440 560 413 497 415 495 480 550Q525 550 551 536.5Q577 523 590 504Q603 485 606.5 465.5Q610 446 610 435Q610 424 606.5 404.5Q603 385 590 366.5Q577 348 551 334Q525 320 480 320L415 375L413 373L440 310L423 255L440 200L413 137L415 135L480 190Q525 190 551 176.5Q577 163 590 144Q603 125 606.5 105.5Q610 86 610 75Q610 64 606.5 44.5Q603 25 590 6Q577 -13 551 -26.5Q525 -40 480 -40L415 15L413 13L440 -50V-180Q440 -210 410 -210H210Q180 -210 180 -180V-50L207 13L205 15L140 -40Q95 -40 69 -26.5Q43 -13 30 6Q17 25 13.5 44.5Q10 64 10 75Q10 86 13.5 105.5Q17 125 30 144Q43 163 69 176.5Q95 190 140 190L205 135L207 137L180 200L197 255L180 310L207 373L205 375L140 320Q95 320 69 334Q43 348 30 366.5Q17 385 13.5 404.5Q10 424 10 435Q10 446 13.5 465.5Q17 485 30 504Q43 523 69 536.5Q95 550 140 550L205 495L207 497L180 560V720Q180 750 210 750H410Q440 750 440 720Z" glyph-name="daggerdbl" horiz-adv-x="620" unicode="&#8225;" /><glyph d="M393 255Q393 285 380.5 305Q368 325 338 325Q308 325 295.5 305Q283 285 283 255Q283 225 295.5 205Q308 185 338 185Q368 185 380.5 205Q393 225 393 255ZM393 77Q387 62 374.5 46Q362 30 343 17Q324 4 298 -4Q272 -12 238 -12Q178 -12 136 7Q94 26 68 60.5Q42 95 30 143.5Q18 192 18 250Q18 308 33 358.5Q48 409 78 446Q108 483 153 504Q198 525 258 525Q307 525 346 502.5Q385 480 393 428V720Q393 750 423 750H626Q656 750 656 720V30Q656 0 626 0H433Q409 0 404 21ZM704 605Q704 620 713.5 622.5Q723 625 728 625Q761 627 778 636.5Q795 646 795 669Q790 662 778.5 654Q767 646 748 646Q721 646 702 661Q683 676 683 716Q683 755 710.5 778.5Q738 802 776 802Q822 802 849 774Q876 746 876 690Q876 625 837.5 599Q799 573 736 569Q728 568 716 571.5Q704 575 704 589Z" glyph-name="dcaron" horiz-adv-x="883" unicode="&#271;" /><glyph d="M433 0Q409 0 404 21L393 77Q387 62 374.5 46Q362 30 343 17Q324 4 298 -4Q272 -12 238 -12Q178 -12 136 7Q94 26 68 60.5Q42 95 30 143.5Q18 192 18 250Q18 308 33 358.5Q48 409 78 446Q108 483 153 504Q198 525 258 525Q307 525 346 502.5Q385 480 393 428V720Q393 750 423 750H616Q646 750 646 720V210Q697 210 721.5 191Q746 172 746 119V30Q746 0 716 0ZM393 255Q393 285 380.5 305Q368 325 338 325Q308 325 295.5 305Q283 285 283 255Q283 225 295.5 205Q308 185 338 185Q368 185 380.5 205Q393 225 393 255ZM694 605Q694 620 703.5 622.5Q713 625 718 625Q751 627 768 636.5Q785 646 785 669Q780 662 768.5 654Q757 646 738 646Q711 646 692 661Q673 676 673 716Q673 755 700.5 778.5Q728 802 766 802Q812 802 839 774Q866 746 866 690Q866 625 827.5 599Q789 573 726 569Q718 568 706 571.5Q694 575 694 589Z" glyph-name="dcaron.end" horiz-adv-x="873" unicode="&#61445;" /><glyph d="M656 542V30Q656 0 626 0H433Q409 0 404 21L393 77Q387 62 374.5 46Q362 30 343 17Q324 4 298 -4Q272 -12 238 -12Q178 -12 136 7Q94 26 68 60.5Q42 95 30 143.5Q18 192 18 250Q18 308 33 358.5Q48 409 78 446Q108 483 153 504Q198 525 258 525Q307 525 346 502.5Q385 480 393 428V542H323Q293 542 293 572V652Q293 682 323 682H393V720Q393 750 423 750H626Q656 750 656 720V682H666Q696 682 696 652V572Q696 542 666 542ZM393 255Q393 285 380.5 305Q368 325 338 325Q308 325 295.5 305Q283 285 283 255Q283 225 295.5 205Q308 185 338 185Q368 185 380.5 205Q393 225 393 255Z" glyph-name="dcroat" horiz-adv-x="696" unicode="&#273;" /><glyph d="M646 542V210Q697 210 721.5 191Q746 172 746 119V30Q746 0 716 0H433Q409 0 404 21L393 77Q387 62 374.5 46Q362 30 343 17Q324 4 298 -4Q272 -12 238 -12Q178 -12 136 7Q94 26 68 60.5Q42 95 30 143.5Q18 192 18 250Q18 308 33 358.5Q48 409 78 446Q108 483 153 504Q198 525 258 525Q307 525 346 502.5Q385 480 393 428V542H323Q293 542 293 572V652Q293 682 323 682H393V720Q393 750 423 750H616Q646 750 646 720V682H656Q686 682 686 652V572Q686 542 656 542ZM393 255Q393 285 380.5 305Q368 325 338 325Q308 325 295.5 305Q283 285 283 255Q283 225 295.5 205Q308 185 338 185Q368 185 380.5 205Q393 225 393 255Z" glyph-name="dcroat.end" horiz-adv-x="756" unicode="&#61446;" /><glyph d="M10 648Q10 686 23 717.5Q36 749 60 771.5Q84 794 117.5 807Q151 820 192 820Q233 820 266.5 807Q300 794 324 771.5Q348 749 361 717.5Q374 686 374 648Q374 611 361 579Q348 547 324 524.5Q300 502 266.5 489Q233 476 192 476Q151 476 117.5 489Q84 502 60 524.5Q36 547 23 579Q10 611 10 648ZM161 648Q161 635 170 626Q179 617 192 617Q205 617 214 626Q223 635 223 648Q223 661 214 670Q205 679 192 679Q179 679 170 670Q161 661 161 648Z" glyph-name="degree" horiz-adv-x="384" unicode="&#176;" /><glyph d="M196 673Q196 629 166 605.5Q136 582 88 582Q39 582 11 604Q-17 626 -17 669Q-17 711 13 735.5Q43 760 92 760Q140 760 168 738.5Q196 717 196 673ZM477 673Q477 629 447 605.5Q417 582 369 582Q320 582 292 604Q264 626 264 669Q264 711 294 735.5Q324 760 373 760Q421 760 449 738.5Q477 717 477 673Z" glyph-name="dieresis" horiz-adv-x="460" unicode="&#168;" /><glyph d="M437 603Q437 546 401.5 520.5Q366 495 308 495Q250 495 217 518.5Q184 542 184 598Q184 652 219.5 679Q255 706 313 706Q371 706 404 683Q437 660 437 603ZM437 162Q437 105 401.5 79.5Q366 54 308 54Q250 54 217 77.5Q184 101 184 157Q184 211 219.5 238Q255 265 313 265Q371 265 404 242Q437 219 437 162ZM60 295Q30 295 30 325V435Q30 465 60 465H560Q590 465 590 435V325Q590 295 560 295Z" glyph-name="divide" horiz-adv-x="620" unicode="&#247;" /><glyph d="M371 -100Q341 -100 341 -70V-20H309V-70Q309 -100 279 -100H225Q195 -100 195 -70V-16Q147 -13 109.5 -9Q72 -5 52 -3Q30 0 30 26V197Q30 226 60 218Q83 212 118.5 204.5Q154 197 195 190V293Q161 303 129 319.5Q97 336 71.5 363Q46 390 30.5 429.5Q15 469 15 526Q15 619 62.5 673Q110 727 195 750V820Q195 850 225 850H279Q309 850 309 820V768Q317 769 325 769.5Q333 770 341 770V820Q341 850 371 850H425Q455 850 455 820V765Q493 762 527.5 758.5Q562 755 583 753Q605 750 605 724V553Q605 525 575 532Q554 537 522.5 544.5Q491 552 455 558V460Q489 449 522 432Q555 415 580.5 389Q606 363 622 325.5Q638 288 638 236Q638 131 591 73Q544 15 455 -6V-70Q455 -100 425 -100ZM372 220Q372 238 354.5 247.5Q337 257 309 265V180H312Q338 180 355 187Q372 194 372 220ZM278 536Q278 518 295 508.5Q312 499 341 491V570H338Q278 570 278 536Z" glyph-name="dollar" horiz-adv-x="658" unicode="$" /><glyph d="M311 657Q311 600 275.5 574.5Q240 549 182 549Q124 549 91 572.5Q58 596 58 652Q58 706 93.5 733Q129 760 187 760Q245 760 278 737Q311 714 311 657Z" glyph-name="dotaccent" horiz-adv-x="370" unicode="&#729;" /><glyph d="M70 0Q40 0 40 30V480Q40 510 70 510H280Q310 510 310 480V30Q310 0 280 0Z" glyph-name="dotlessi" horiz-adv-x="350" unicode="&#305;" /><glyph d="M70 0Q40 0 40 30V480Q40 510 70 510H270Q300 510 300 480V210Q351 210 375.5 191Q400 172 400 119V30Q400 0 370 0Z" glyph-name="dotlessi.end" horiz-adv-x="410" unicode="&#61447;" /><glyph d="M260 267Q324 251 368 269Q366 301 350 313Q334 325 314 325Q296 325 279 312.5Q262 300 260 267ZM569 231Q544 224 504 217Q464 210 418 210Q386 210 357.5 214Q329 218 308 223Q282 228 261 235Q268 206 305.5 185.5Q343 165 418 165Q457 165 498 171.5Q539 178 565 183Q580 186 587.5 177Q595 168 595 153V27Q595 11 588 5Q581 -1 565 -3Q533 -6 476 -10.5Q419 -15 352 -15Q185 -15 100 50.5Q15 116 15 250Q15 319 36.5 371.5Q58 424 97.5 459.5Q137 495 192 512.5Q247 530 314 530Q445 530 519 459.5Q593 389 599 261Q600 246 592 240.5Q584 235 569 231Z" glyph-name="e" horiz-adv-x="615" unicode="e" /><glyph d="M260 267Q324 251 368 269Q366 301 350 313Q334 325 314 325Q296 325 279 312.5Q262 300 260 267ZM569 231Q544 224 504 217Q464 210 418 210Q386 210 357.5 214Q329 218 308 223Q282 228 261 235Q268 206 305.5 185.5Q343 165 418 165Q457 165 498 171.5Q539 178 565 183Q580 186 587.5 177Q595 168 595 153V27Q595 11 588 5Q581 -1 565 -3Q533 -6 476 -10.5Q419 -15 352 -15Q185 -15 100 50.5Q15 116 15 250Q15 319 36.5 371.5Q58 424 97.5 459.5Q137 495 192 512.5Q247 530 314 530Q445 530 519 459.5Q593 389 599 261Q600 246 592 240.5Q584 235 569 231ZM254 735Q260 750 281 750H487Q502 750 508 740.5Q514 731 504 720L418 619Q411 610 394 610H234Q219 610 213 618Q207 626 213 640Z" glyph-name="eacute" horiz-adv-x="615" unicode="&#233;" /><glyph d="M344 735Q349 750 371 750H542Q557 750 563 740.5Q569 731 559 720L459 619Q452 610 435 610H203Q187 610 179 619L79 720Q68 731 74.5 740.5Q81 750 96 750H267Q290 750 294 735L314 666H323ZM260 267Q324 251 368 269Q366 301 350 313Q334 325 314 325Q296 325 279 312.5Q262 300 260 267ZM569 231Q544 224 504 217Q464 210 418 210Q386 210 357.5 214Q329 218 308 223Q282 228 261 235Q268 206 305.5 185.5Q343 165 418 165Q457 165 498 171.5Q539 178 565 183Q580 186 587.5 177Q595 168 595 153V27Q595 11 588 5Q581 -1 565 -3Q533 -6 476 -10.5Q419 -15 352 -15Q185 -15 100 50.5Q15 116 15 250Q15 319 36.5 371.5Q58 424 97.5 459.5Q137 495 192 512.5Q247 530 314 530Q445 530 519 459.5Q593 389 599 261Q600 246 592 240.5Q584 235 569 231Z" glyph-name="ecaron" horiz-adv-x="615" unicode="&#283;" /><glyph d="M260 267Q324 251 368 269Q366 301 350 313Q334 325 314 325Q296 325 279 312.5Q262 300 260 267ZM569 231Q544 224 504 217Q464 210 418 210Q386 210 357.5 214Q329 218 308 223Q282 228 261 235Q268 206 305.5 185.5Q343 165 418 165Q457 165 498 171.5Q539 178 565 183Q580 186 587.5 177Q595 168 595 153V27Q595 11 588 5Q581 -1 565 -3Q533 -6 476 -10.5Q419 -15 352 -15Q185 -15 100 50.5Q15 116 15 250Q15 319 36.5 371.5Q58 424 97.5 459.5Q137 495 192 512.5Q247 530 314 530Q445 530 519 459.5Q593 389 599 261Q600 246 592 240.5Q584 235 569 231ZM319 694H310L290 625Q286 610 263 610H92Q77 610 70.5 619.5Q64 629 75 640L175 741Q183 750 199 750H431Q448 750 455 741L555 640Q565 629 559 619.5Q553 610 538 610H367Q345 610 340 625Z" glyph-name="ecircumflex" horiz-adv-x="615" unicode="&#234;" /><glyph d="M260 267Q324 251 368 269Q366 301 350 313Q334 325 314 325Q296 325 279 312.5Q262 300 260 267ZM569 231Q544 224 504 217Q464 210 418 210Q386 210 357.5 214Q329 218 308 223Q282 228 261 235Q268 206 305.5 185.5Q343 165 418 165Q457 165 498 171.5Q539 178 565 183Q580 186 587.5 177Q595 168 595 153V27Q595 11 588 5Q581 -1 565 -3Q533 -6 476 -10.5Q419 -15 352 -15Q185 -15 100 50.5Q15 116 15 250Q15 319 36.5 371.5Q58 424 97.5 459.5Q137 495 192 512.5Q247 530 314 530Q445 530 519 459.5Q593 389 599 261Q600 246 592 240.5Q584 235 569 231ZM282 673Q282 629 252 605.5Q222 582 174 582Q125 582 97 604Q69 626 69 669Q69 711 99 735.5Q129 760 178 760Q226 760 254 738.5Q282 717 282 673ZM563 673Q563 629 533 605.5Q503 582 455 582Q406 582 378 604Q350 626 350 669Q350 711 380 735.5Q410 760 459 760Q507 760 535 738.5Q563 717 563 673Z" glyph-name="edieresis" horiz-adv-x="615" unicode="&#235;" /><glyph d="M438 657Q438 600 402.5 574.5Q367 549 309 549Q251 549 218 572.5Q185 596 185 652Q185 706 220.5 733Q256 760 314 760Q372 760 405 737Q438 714 438 657ZM260 267Q324 251 368 269Q366 301 350 313Q334 325 314 325Q296 325 279 312.5Q262 300 260 267ZM569 231Q544 224 504 217Q464 210 418 210Q386 210 357.5 214Q329 218 308 223Q282 228 261 235Q268 206 305.5 185.5Q343 165 418 165Q457 165 498 171.5Q539 178 565 183Q580 186 587.5 177Q595 168 595 153V27Q595 11 588 5Q581 -1 565 -3Q533 -6 476 -10.5Q419 -15 352 -15Q185 -15 100 50.5Q15 116 15 250Q15 319 36.5 371.5Q58 424 97.5 459.5Q137 495 192 512.5Q247 530 314 530Q445 530 519 459.5Q593 389 599 261Q600 246 592 240.5Q584 235 569 231Z" glyph-name="edotaccent" horiz-adv-x="615" unicode="&#279;" /><glyph d="M260 267Q324 251 368 269Q366 301 350 313Q334 325 314 325Q296 325 279 312.5Q262 300 260 267ZM569 231Q544 224 504 217Q464 210 418 210Q386 210 357.5 214Q329 218 308 223Q282 228 261 235Q268 206 305.5 185.5Q343 165 418 165Q457 165 498 171.5Q539 178 565 183Q580 186 587.5 177Q595 168 595 153V27Q595 11 588 5Q581 -1 565 -3Q533 -6 476 -10.5Q419 -15 352 -15Q185 -15 100 50.5Q15 116 15 250Q15 319 36.5 371.5Q58 424 97.5 459.5Q137 495 192 512.5Q247 530 314 530Q445 530 519 459.5Q593 389 599 261Q600 246 592 240.5Q584 235 569 231ZM412 640Q418 626 412 618Q406 610 391 610H231Q215 610 207 619L121 720Q111 731 117 740.5Q123 750 138 750H344Q365 750 371 735Z" glyph-name="egrave" horiz-adv-x="615" unicode="&#232;" /><glyph d="M290 480Q290 457 299.5 438.5Q309 420 335 420Q361 420 370.5 438.5Q380 457 380 480Q380 503 370.5 521.5Q361 540 335 540Q309 540 299.5 521.5Q290 503 290 480ZM20 205Q20 259 42.5 296.5Q65 334 117 365Q72 394 54.5 427Q37 460 37 510Q37 562 58.5 602Q80 642 119 669.5Q158 697 213 711Q268 725 335 725Q403 725 458 711Q513 697 552 669.5Q591 642 612 602Q633 562 633 510Q633 460 615.5 427Q598 394 553 365Q605 334 625.5 296.5Q646 259 646 205Q646 150 623.5 108Q601 66 560 37.5Q519 9 461.5 -5.5Q404 -20 333 -20Q262 -20 204.5 -5.5Q147 9 106 37.5Q65 66 42.5 108Q20 150 20 205ZM288 225Q288 202 297.5 183.5Q307 165 333 165Q359 165 368.5 183.5Q378 202 378 225Q378 248 368.5 266.5Q359 285 333 285Q307 285 297.5 266.5Q288 248 288 225Z" glyph-name="eight" horiz-adv-x="666" unicode="8" /><glyph d="M290 480Q290 457 299.5 438.5Q309 420 335 420Q361 420 370.5 438.5Q380 457 380 480Q380 503 370.5 521.5Q361 540 335 540Q309 540 299.5 521.5Q290 503 290 480ZM20 205Q20 259 42.5 296.5Q65 334 117 365Q72 394 54.5 427Q37 460 37 510Q37 562 58.5 602Q80 642 119 669.5Q158 697 213 711Q268 725 335 725Q403 725 458 711Q513 697 552 669.5Q591 642 612 602Q633 562 633 510Q633 460 615.5 427Q598 394 553 365Q605 334 625.5 296.5Q646 259 646 205Q646 150 623.5 108Q601 66 560 37.5Q519 9 461.5 -5.5Q404 -20 333 -20Q262 -20 204.5 -5.5Q147 9 106 37.5Q65 66 42.5 108Q20 150 20 205ZM288 225Q288 202 297.5 183.5Q307 165 333 165Q359 165 368.5 183.5Q378 202 378 225Q378 248 368.5 266.5Q359 285 333 285Q307 285 297.5 266.5Q288 248 288 225Z" glyph-name="eight.lnum" horiz-adv-x="666" unicode="&#59656;" /><glyph d="M297 480Q297 457 306.5 438.5Q316 420 342 420Q368 420 377.5 438.5Q387 457 387 480Q387 503 377.5 521.5Q368 540 342 540Q316 540 306.5 521.5Q297 503 297 480ZM27 205Q27 259 49.5 296.5Q72 334 124 365Q79 394 61.5 427Q44 460 44 510Q44 562 65.5 602Q87 642 126 669.5Q165 697 220 711Q275 725 342 725Q410 725 465 711Q520 697 559 669.5Q598 642 619 602Q640 562 640 510Q640 460 622.5 427Q605 394 560 365Q612 334 632.5 296.5Q653 259 653 205Q653 150 630.5 108Q608 66 567 37.5Q526 9 468.5 -5.5Q411 -20 340 -20Q269 -20 211.5 -5.5Q154 9 113 37.5Q72 66 49.5 108Q27 150 27 205ZM295 225Q295 202 304.5 183.5Q314 165 340 165Q366 165 375.5 183.5Q385 202 385 225Q385 248 375.5 266.5Q366 285 340 285Q314 285 304.5 266.5Q295 248 295 225Z" glyph-name="eight.lnum_tnum" horiz-adv-x="680" unicode="&#59672;" /><glyph d="M297 480Q297 457 306.5 438.5Q316 420 342 420Q368 420 377.5 438.5Q387 457 387 480Q387 503 377.5 521.5Q368 540 342 540Q316 540 306.5 521.5Q297 503 297 480ZM27 205Q27 259 49.5 296.5Q72 334 124 365Q79 394 61.5 427Q44 460 44 510Q44 562 65.5 602Q87 642 126 669.5Q165 697 220 711Q275 725 342 725Q410 725 465 711Q520 697 559 669.5Q598 642 619 602Q640 562 640 510Q640 460 622.5 427Q605 394 560 365Q612 334 632.5 296.5Q653 259 653 205Q653 150 630.5 108Q608 66 567 37.5Q526 9 468.5 -5.5Q411 -20 340 -20Q269 -20 211.5 -5.5Q154 9 113 37.5Q72 66 49.5 108Q27 150 27 205ZM295 225Q295 202 304.5 183.5Q314 165 340 165Q366 165 375.5 183.5Q385 202 385 225Q385 248 375.5 266.5Q366 285 340 285Q314 285 304.5 266.5Q295 248 295 225Z" glyph-name="eight.tnum_onum" horiz-adv-x="680" unicode="&#59688;" /><glyph d="M317 99Q317 39 279.5 9.5Q242 -20 181 -20Q120 -20 85 7.5Q50 35 50 94Q50 151 87.5 182Q125 213 186 213Q247 213 282 186Q317 159 317 99ZM617 99Q617 39 579.5 9.5Q542 -20 481 -20Q420 -20 385 7.5Q350 35 350 94Q350 151 387.5 182Q425 213 486 213Q547 213 582 186Q617 159 617 99ZM917 99Q917 39 879.5 9.5Q842 -20 781 -20Q720 -20 685 7.5Q650 35 650 94Q650 151 687.5 182Q725 213 786 213Q847 213 882 186Q917 159 917 99Z" glyph-name="ellipsis" horiz-adv-x="967" unicode="&#8230;" /><glyph d="M135 610Q105 610 105 640V720Q105 750 135 750H495Q525 750 525 720V640Q525 610 495 610ZM260 267Q324 251 368 269Q366 301 350 313Q334 325 314 325Q296 325 279 312.5Q262 300 260 267ZM569 231Q544 224 504 217Q464 210 418 210Q386 210 357.5 214Q329 218 308 223Q282 228 261 235Q268 206 305.5 185.5Q343 165 418 165Q457 165 498 171.5Q539 178 565 183Q580 186 587.5 177Q595 168 595 153V27Q595 11 588 5Q581 -1 565 -3Q533 -6 476 -10.5Q419 -15 352 -15Q185 -15 100 50.5Q15 116 15 250Q15 319 36.5 371.5Q58 424 97.5 459.5Q137 495 192 512.5Q247 530 314 530Q445 530 519 459.5Q593 389 599 261Q600 246 592 240.5Q584 235 569 231Z" glyph-name="emacron" horiz-adv-x="615" unicode="&#275;" /><glyph d="M130 320Q100 320 100 350V480Q100 510 130 510H1038Q1068 510 1068 480V350Q1068 320 1038 320Z" glyph-name="emdash" horiz-adv-x="1168" unicode="&#8212;" /><glyph d="M130 320Q100 320 100 350V480Q100 510 130 510H702Q732 510 732 480V350Q732 320 702 320Z" glyph-name="endash" horiz-adv-x="832" unicode="&#8211;" /><glyph d="M569 231Q544 224 504 217Q464 210 418 210Q386 210 357.5 214Q329 218 308 223Q282 228 261 235Q268 206 305.5 185.5Q343 165 418 165Q457 165 498 171.5Q539 178 565 183Q580 186 587.5 177Q595 168 595 153V27Q595 9 583 1Q551 -24 531 -44Q511 -64 499.5 -80.5Q488 -97 484 -110.5Q480 -124 480 -136Q480 -147 488 -157.5Q496 -168 511 -168Q518 -168 523.5 -165.5Q529 -163 536 -163Q546 -163 556 -175L580 -200Q600 -222 579 -237Q565 -247 541 -252.5Q517 -258 494 -258Q428 -258 396.5 -230Q365 -202 365 -151Q365 -131 372.5 -110.5Q380 -90 392 -71.5Q404 -53 418 -37.5Q432 -22 444 -12Q401 -15 352 -15Q185 -15 100 50.5Q15 116 15 250Q15 319 36.5 371.5Q58 424 97.5 459.5Q137 495 192 512.5Q247 530 314 530Q445 530 519 459.5Q593 389 599 261Q600 246 592 240.5Q584 235 569 231ZM260 267Q324 251 368 269Q366 301 350 313Q334 325 314 325Q296 325 279 312.5Q262 300 260 267Z" glyph-name="eogonek" horiz-adv-x="615" unicode="&#281;" /><glyph d="M60 423Q30 423 30 453V563Q30 593 60 593H560Q590 593 590 563V453Q590 423 560 423ZM60 167Q30 167 30 197V307Q30 337 60 337H560Q590 337 590 307V197Q590 167 560 167Z" glyph-name="equal" horiz-adv-x="620" unicode="=" /><glyph d="M109 754Q120 756 137.5 758.5Q155 761 176.5 763.5Q198 766 222.5 768Q247 770 271 770Q300 770 326 766.5Q352 763 376 757L425 827Q442 852 467 834L557 771Q582 754 564 730L525 675H526Q587 618 617.5 535Q648 452 648 356Q648 254 626 182.5Q604 111 563.5 66Q523 21 466 0.5Q409 -20 338 -20Q267 -20 208 -3.5Q149 13 107 49Q65 85 41.5 142Q18 199 18 280Q18 333 30.5 378.5Q43 424 69.5 457.5Q96 491 136.5 510.5Q177 530 233 530Q268 530 294 522.5Q320 515 338.5 503.5Q357 492 369.5 478.5Q382 465 388 453Q388 489 372.5 512.5Q357 536 333 550Q309 564 280.5 569.5Q252 575 226 575Q192 575 165.5 572.5Q139 570 117 567Q87 563 87 592V725Q87 737 91 744.5Q95 752 109 754ZM388 255Q388 285 375.5 305Q363 325 333 325Q303 325 290.5 305Q278 285 278 255Q278 225 290.5 205Q303 185 333 185Q363 185 375.5 205Q388 225 388 255Z" glyph-name="eth" horiz-adv-x="666" unicode="&#240;" /><glyph d="M349 99Q349 39 311.5 9.5Q274 -20 213 -20Q152 -20 117 7.5Q82 35 82 94Q82 151 119.5 182Q157 213 218 213Q279 213 314 186Q349 159 349 99ZM115 267Q85 267 85 297L80 720Q80 750 110 750H320Q350 750 350 720L345 297Q345 267 315 267Z" glyph-name="exclam" horiz-adv-x="430" unicode="!" /><glyph d="M81 574Q81 634 118.5 663.5Q156 693 217 693Q278 693 313 665.5Q348 638 348 579Q348 522 310.5 491Q273 460 212 460Q151 460 116 487Q81 514 81 574ZM315 420Q345 420 345 390L350 -41Q350 -71 320 -71H110Q80 -71 80 -41L85 390Q85 420 115 420Z" glyph-name="exclamdown" horiz-adv-x="430" unicode="&#161;" /><glyph d="M313 320V30Q313 0 283 0H93Q63 0 63 30V320H40Q10 320 10 350V480Q10 510 40 510H63V555Q63 615 77 655Q91 695 117 719.5Q143 744 179.5 754.5Q216 765 260 765Q298 765 327 762Q356 759 375 756Q390 754 397.5 747.5Q405 741 405 726V597Q405 568 375 568H366Q343 568 328 559.5Q313 551 313 523V510H374Q404 510 404 480V350Q404 320 374 320Z" glyph-name="f" horiz-adv-x="415" unicode="f" /><glyph d="M690 320V30Q690 0 660 0H470Q440 0 440 30V330H313V30Q313 0 283 0H93Q63 0 63 30V320H40Q10 320 10 350V480Q10 510 40 510H63V555Q63 615 77 655Q91 695 117 719.5Q143 744 179.5 754.5Q216 765 260 765Q298 765 327 762Q356 759 375 756Q390 754 397.5 747.5Q405 741 405 726V597Q405 568 375 568H366Q343 568 328 559.5Q313 551 313 523V510H440V555Q440 615 454 655Q468 695 494 719.5Q520 744 556.5 754.5Q593 765 637 765Q675 765 704 762Q733 759 752 756Q767 754 774.5 747.5Q782 741 782 726V597Q782 568 752 568H743Q720 568 705 559.5Q690 551 690 523V510H751Q781 510 781 480V350Q781 320 751 320Z" glyph-name="f_f" horiz-adv-x="792" unicode="&#64256;" /><glyph d="M743 510Q773 510 773 480V350Q773 320 743 320H692V232Q692 204 707 195.5Q722 187 745 187Q774 187 774 158V24Q774 9 766.5 2.5Q759 -4 744 -6Q725 -9 701 -12Q677 -15 639 -15Q587 -15 550.5 -4.5Q514 6 491 30.5Q468 55 457.5 95Q447 135 447 195V330H313V30Q313 0 283 0H93Q63 0 63 30V320H40Q10 320 10 350V480Q10 510 40 510H63V555Q63 615 77 655Q91 695 117 719.5Q143 744 179.5 754.5Q216 765 260 765Q298 765 327 762Q356 759 375 756Q390 754 397.5 747.5Q405 741 405 726V597Q405 568 375 568H366Q343 568 328 559.5Q313 551 313 523V510H447V630Q447 660 477 660H662Q692 660 692 630V510Z" glyph-name="f_t" horiz-adv-x="794" unicode="&#59250;" /><glyph d="M460 0Q430 0 430 30V330H313V30Q313 0 283 0H93Q63 0 63 30V320H40Q10 320 10 350V480Q10 510 40 510H63V555Q63 615 77 655Q91 695 117 719.5Q143 744 179.5 754.5Q216 765 260 765Q298 765 327 762Q356 759 375 756Q390 754 397.5 747.5Q405 741 405 726V597Q405 568 375 568H366Q343 568 328 559.5Q313 551 313 523V510H670Q700 510 700 480V30Q700 0 670 0ZM691 657Q691 600 655.5 574.5Q620 549 562 549Q504 549 471 572.5Q438 596 438 652Q438 706 473.5 733Q509 760 567 760Q625 760 658 737Q691 714 691 657Z" glyph-name="fi" horiz-adv-x="740" unicode="&#64257;" /><glyph d="M460 0Q430 0 430 30V330H313V30Q313 0 283 0H93Q63 0 63 30V320H40Q10 320 10 350V480Q10 510 40 510H63V555Q63 615 77 655Q91 695 117 719.5Q143 744 179.5 754.5Q216 765 260 765Q298 765 327 762Q356 759 375 756Q390 754 397.5 747.5Q405 741 405 726V597Q405 568 375 568H366Q343 568 328 559.5Q313 551 313 523V510H660Q690 510 690 480V210Q741 210 765.5 191Q790 172 790 119V30Q790 0 760 0ZM688 657Q688 600 652.5 574.5Q617 549 559 549Q501 549 468 572.5Q435 596 435 652Q435 706 470.5 733Q506 760 564 760Q622 760 655 737Q688 714 688 657Z" glyph-name="fi.end" horiz-adv-x="800" unicode="&#61778;" /><glyph d="M73 -213Q50 -210 50 -183V-33Q50 -18 57.5 -9.5Q65 -1 80 -3Q95 -5 114 -6.5Q133 -8 152 -9Q171 -10 188 -11Q205 -12 215 -12Q254 -12 272 -2Q290 8 290 28Q290 35 286 42Q282 49 271 54.5Q260 60 241 63.5Q222 67 192 67H80Q50 67 50 97V480Q50 510 80 510H498Q528 510 528 480V350Q528 320 498 320H280V270Q337 269 387 255.5Q437 242 474.5 214Q512 186 533.5 141.5Q555 97 555 33Q555 -26 537.5 -73.5Q520 -121 484.5 -154.5Q449 -188 394 -206.5Q339 -225 264 -225Q201 -225 150 -220.5Q99 -216 73 -213Z" glyph-name="five" horiz-adv-x="575" unicode="5" /><glyph d="M63 -3Q40 0 40 27V177Q40 192 47.5 200.5Q55 209 70 207Q85 206 104 204Q123 202 142 201Q161 200 178 199Q195 198 205 198Q244 198 262 208Q280 218 280 238Q280 245 276 252Q272 259 261 264.5Q250 270 231 273.5Q212 277 182 277H70Q40 277 40 307V675Q40 705 70 705H488Q518 705 518 675V545Q518 515 488 515H270V465Q327 464 377 451Q427 438 464.5 411Q502 384 523.5 342.5Q545 301 545 243Q545 185 527.5 137Q510 89 474.5 55.5Q439 22 384 3.5Q329 -15 254 -15Q191 -15 140 -10.5Q89 -6 63 -3Z" glyph-name="five.lnum" horiz-adv-x="565" unicode="&#59653;" /><glyph d="M130 -3Q107 0 107 27V177Q107 192 114.5 200.5Q122 209 137 207Q152 206 171 204Q190 202 209 201Q228 200 245 199Q262 198 272 198Q311 198 329 208Q347 218 347 238Q347 245 343 252Q339 259 328 264.5Q317 270 298 273.5Q279 277 249 277H137Q107 277 107 307V675Q107 705 137 705H555Q585 705 585 675V545Q585 515 555 515H337V465Q394 464 444 451Q494 438 531.5 411Q569 384 590.5 342.5Q612 301 612 243Q612 185 594.5 137Q577 89 541.5 55.5Q506 22 451 3.5Q396 -15 321 -15Q258 -15 207 -10.5Q156 -6 130 -3Z" glyph-name="five.lnum_tnum" horiz-adv-x="680" unicode="&#59669;" /><glyph d="M130 -213Q107 -210 107 -183V-33Q107 -18 114.5 -9.5Q122 -1 137 -3Q152 -5 171 -6.5Q190 -8 209 -9Q228 -10 245 -11Q262 -12 272 -12Q311 -12 329 -2Q347 8 347 28Q347 35 343 42Q339 49 328 54.5Q317 60 298 63.5Q279 67 249 67H137Q107 67 107 97V480Q107 510 137 510H555Q585 510 585 480V350Q585 320 555 320H337V270Q394 269 444 255.5Q494 242 531.5 214Q569 186 590.5 141.5Q612 97 612 33Q612 -26 594.5 -73.5Q577 -121 541.5 -154.5Q506 -188 451 -206.5Q396 -225 321 -225Q258 -225 207 -220.5Q156 -216 130 -213Z" glyph-name="five.tnum_onum" horiz-adv-x="680" unicode="&#59685;" /><glyph d="M313 320V30Q313 0 283 0H93Q63 0 63 30V320H40Q10 320 10 350V480Q10 510 40 510H63V555Q63 615 77 655Q91 695 117 719.5Q143 744 179.5 754.5Q216 765 260 765Q298 765 327 762Q356 759 375 756Q390 754 397.5 747.5Q405 741 405 726V597Q405 568 375 568H366Q343 568 328 559.5Q313 551 313 523V510H374Q404 510 404 480V350Q404 320 374 320ZM484 0Q454 0 454 30V720Q454 750 484 750H679Q709 750 709 720V210Q760 210 784.5 191Q809 172 809 119V30Q809 0 779 0Z" glyph-name="fl" horiz-adv-x="814" unicode="&#64258;" /><glyph d="M352 510H414Q444 510 444 480V350Q444 320 414 320H352V-15Q352 -75 338 -115Q324 -155 298 -179.5Q272 -204 235.5 -214.5Q199 -225 155 -225Q117 -225 88 -222Q59 -219 40 -216Q25 -214 17.5 -207.5Q10 -201 10 -186V-47Q10 -18 40 -18H49Q72 -18 87 -9.5Q102 -1 102 27V320H59Q29 320 29 350V480Q29 510 59 510H102V555Q102 615 116 655Q130 695 156 719.5Q182 744 218.5 754.5Q255 765 299 765Q337 765 366 762Q395 759 414 756Q429 754 436.5 747.5Q444 741 444 726V587Q444 558 414 558H405Q382 558 367 550Q352 542 352 518Z" glyph-name="florin" horiz-adv-x="454" unicode="&#402;" /><glyph d="M286 180H340L396 424Q400 440 424 440H560Q590 440 590 410V-180Q590 -210 560 -210H370Q340 -210 340 -180V0H60Q30 0 30 30V160L110 493Q115 510 138 510H333Q348 510 355 502Q362 494 357 480Z" glyph-name="four" horiz-adv-x="630" unicode="4" /><glyph d="M286 390H340L396 634Q400 650 424 650H560Q590 650 590 620V30Q590 0 560 0H370Q340 0 340 30V210H60Q30 210 30 240V370L106 688Q111 705 134 705H329Q359 705 353 675Z" glyph-name="four.lnum" horiz-adv-x="630" unicode="&#59652;" /><glyph d="M309 390H363L419 634Q423 650 447 650H583Q613 650 613 620V30Q613 0 583 0H393Q363 0 363 30V210H83Q53 210 53 240V370L129 688Q134 705 157 705H352Q382 705 376 675Z" glyph-name="four.lnum_tnum" horiz-adv-x="680" unicode="&#59668;" /><glyph d="M309 180H363L419 424Q423 440 447 440H583Q613 440 613 410V-180Q613 -210 583 -210H393Q363 -210 363 -180V0H83Q53 0 53 30V160L133 493Q138 510 161 510H356Q371 510 378 502Q385 494 380 480Z" glyph-name="four.tnum_onum" horiz-adv-x="680" unicode="&#59684;" /><glyph d="M302 735Q306 741 312 745.5Q318 750 329 750H528Q543 750 550.5 739Q558 728 550 715L102 15Q97 8 91.5 4Q86 0 75 0H-124Q-144 0 -149 11Q-154 22 -146 35Z" glyph-name="fraction" horiz-adv-x="451" unicode="&#8260;" /><glyph d="M393 255Q393 285 380.5 305Q368 325 338 325Q308 325 295.5 305Q283 285 283 255Q283 225 295.5 205Q308 185 338 185Q368 185 380.5 205Q393 225 393 255ZM87 -15Q110 -25 146 -35Q182 -45 228 -45Q249 -45 277.5 -40.5Q306 -36 331.5 -23Q357 -10 375 14Q393 38 393 77Q387 65 374.5 51.5Q362 38 343 26.5Q324 15 298 7.5Q272 0 238 0Q126 0 72 67Q18 134 18 250Q18 308 33 358.5Q48 409 78 446Q108 483 153 504Q198 525 258 525Q311 525 349 497.5Q387 470 393 428L406 489Q411 510 435 510H627Q657 510 657 480V77Q657 -81 558 -153Q459 -225 249 -225Q204 -225 159.5 -221Q115 -217 87 -214Q72 -212 64.5 -205.5Q57 -199 57 -184V-35Q57 -2 87 -15Z" glyph-name="g" horiz-adv-x="697" unicode="g" /><glyph d="M579 720Q566 662 507 630.5Q448 599 354 599Q260 599 204 630.5Q148 662 137 720Q134 735 143 742.5Q152 750 167 750H283Q305 750 311 734Q316 720 328.5 711Q341 702 358 702Q375 702 387.5 711Q400 720 405 734Q411 750 433 750H549Q564 750 573 742.5Q582 735 579 720ZM393 255Q393 285 380.5 305Q368 325 338 325Q308 325 295.5 305Q283 285 283 255Q283 225 295.5 205Q308 185 338 185Q368 185 380.5 205Q393 225 393 255ZM87 -15Q110 -25 146 -35Q182 -45 228 -45Q249 -45 277.5 -40.5Q306 -36 331.5 -23Q357 -10 375 14Q393 38 393 77Q387 65 374.5 51.5Q362 38 343 26.5Q324 15 298 7.5Q272 0 238 0Q126 0 72 67Q18 134 18 250Q18 308 33 359Q48 410 78 448Q108 486 153 508Q198 530 258 530Q284 530 307.5 522Q331 514 349 500Q367 486 378.5 467.5Q390 449 393 428L406 489Q411 510 435 510H627Q657 510 657 480V77Q657 -81 558 -153Q459 -225 249 -225Q204 -225 159.5 -221Q115 -217 87 -214Q72 -212 64.5 -205.5Q57 -199 57 -184V-35Q57 -2 87 -15Z" glyph-name="gbreve" horiz-adv-x="697" unicode="&#287;" /><glyph d="M365 694H356L336 625Q332 610 309 610H138Q123 610 116.5 619.5Q110 629 121 640L221 741Q229 750 245 750H477Q494 750 501 741L601 640Q611 629 605 619.5Q599 610 584 610H413Q391 610 386 625ZM393 255Q393 285 380.5 305Q368 325 338 325Q308 325 295.5 305Q283 285 283 255Q283 225 295.5 205Q308 185 338 185Q368 185 380.5 205Q393 225 393 255ZM87 -15Q110 -25 146 -35Q182 -45 228 -45Q249 -45 277.5 -40.5Q306 -36 331.5 -23Q357 -10 375 14Q393 38 393 77Q387 65 374.5 51.5Q362 38 343 26.5Q324 15 298 7.5Q272 0 238 0Q126 0 72 67Q18 134 18 250Q18 308 33 359Q48 410 78 448Q108 486 153 508Q198 530 258 530Q284 530 307.5 522Q331 514 349 500Q367 486 378.5 467.5Q390 449 393 428L406 489Q411 510 435 510H627Q657 510 657 480V77Q657 -81 558 -153Q459 -225 249 -225Q204 -225 159.5 -221Q115 -217 87 -214Q72 -212 64.5 -205.5Q57 -199 57 -184V-35Q57 -2 87 -15Z" glyph-name="gcircumflex" horiz-adv-x="697" unicode="&#285;" /><glyph d="M393 255Q393 285 380.5 305Q368 325 338 325Q308 325 295.5 305Q283 285 283 255Q283 225 295.5 205Q308 185 338 185Q368 185 380.5 205Q393 225 393 255ZM87 -15Q110 -25 146 -35Q182 -45 228 -45Q249 -45 277.5 -40.5Q306 -36 331.5 -23Q357 -10 375 14Q393 38 393 77Q387 65 374.5 51.5Q362 38 343 26.5Q324 15 298 7.5Q272 0 238 0Q126 0 72 67Q18 134 18 250Q18 308 33 359Q48 410 78 448Q108 486 153 508Q198 530 258 530Q284 530 307.5 522Q331 514 349 500Q367 486 378.5 467.5Q390 449 393 428L406 489Q411 510 435 510H627Q657 510 657 480V77Q657 -81 558 -153Q459 -225 249 -225Q204 -225 159.5 -221Q115 -217 87 -214Q72 -212 64.5 -205.5Q57 -199 57 -184V-35Q57 -2 87 -15ZM429 770Q429 755 419.5 752.5Q410 750 405 750Q372 748 355 738.5Q338 729 338 706Q343 713 354.5 721Q366 729 385 729Q412 729 431 714Q450 699 450 659Q450 620 422.5 596.5Q395 573 357 573Q311 573 284 601Q257 629 257 685Q257 750 295.5 776Q334 802 397 806Q405 807 417 803.5Q429 800 429 786Z" glyph-name="gcommaaccent" horiz-adv-x="697" unicode="&#291;" /><glyph d="M63 510Q63 583 88 632Q113 681 156.5 710.5Q200 740 259.5 752.5Q319 765 388 765Q435 765 488.5 754Q542 743 587 717Q632 691 661.5 647Q691 603 691 537Q691 502 683 479Q675 456 667 441Q657 421 648.5 408.5Q640 396 640 380Q640 358 663.5 341Q687 324 715 301.5Q743 279 766.5 247Q790 215 790 162Q790 111 771.5 76Q753 41 720.5 20Q688 -1 643 -10.5Q598 -20 545 -20Q520 -20 492.5 -18Q465 -16 441 -13Q417 -10 398.5 -7.5Q380 -5 372 -3Q350 1 350 26V156Q350 188 378 173Q383 170 397 162.5Q411 155 430 146.5Q449 138 469.5 131.5Q490 125 507 125Q517 125 523.5 128.5Q530 132 530 140Q530 151 515 160Q500 169 479 183Q462 194 444 209Q426 224 411 244Q396 264 386.5 290Q377 316 377 348Q377 385 386 409Q395 433 406 450.5Q417 468 426 482.5Q435 497 435 515Q435 538 418.5 553Q402 568 376 568Q364 568 352.5 564Q341 560 332 550.5Q323 541 318 524Q313 507 313 480V30Q313 0 283 0H93Q63 0 63 30V320H40Q10 320 10 350V480Q10 510 40 510Z" glyph-name="germandbls" horiz-adv-x="800" unicode="&#223;" /><glyph d="M317 640Q323 626 317 618Q311 610 296 610H136Q120 610 112 619L26 720Q16 731 22 740.5Q28 750 43 750H249Q270 750 276 735Z" glyph-name="grave" horiz-adv-x="390" unicode="`" /><glyph d="M111 99Q82 88 73 117L39 228Q30 257 57 267L365 380L57 493Q30 503 39 532L73 643Q82 672 111 661L575 472Q591 466 591 444V317Q591 295 576 289Z" glyph-name="greater" horiz-adv-x="621" unicode="&gt;" /><glyph d="M60 78Q30 78 30 108V218Q30 248 60 248H560Q590 248 590 218V108Q590 78 560 78ZM66 252Q52 250 41 256Q30 262 30 279V352Q30 380 56 383L301 406L58 503Q30 515 40 542L72 634Q81 663 110 652L574 460Q590 454 590 432V335Q590 309 566 306Z" glyph-name="greaterequal" horiz-adv-x="620" unicode="&#8805;" /><glyph d="M212 330 336 196Q356 174 333 154L257 83Q235 64 215 86L28 302Q20 312 20 321V338Q20 342 21.5 347Q23 352 27 356L216 574Q236 597 258 577L332 512Q355 493 335 470ZM467 330 591 196Q611 174 588 154L512 83Q490 64 470 86L283 302Q275 312 275 321V338Q275 342 276.5 347Q278 352 282 356L471 574Q491 597 513 577L587 512Q610 493 590 470Z" glyph-name="guillemotleft" horiz-adv-x="630" unicode="&#171;" /><glyph d="M418 330 294 464Q275 487 297 506L373 577Q396 597 415 574L602 358Q610 348 610 339V322Q610 318 608.5 313Q607 308 603 304L414 86Q395 64 372 83L298 148Q276 168 295 190ZM163 330 39 464Q20 487 42 506L118 577Q141 597 160 574L347 358Q355 348 355 339V322Q355 318 353.5 313Q352 308 348 304L159 86Q140 64 117 83L43 148Q21 168 40 190Z" glyph-name="guillemotright" horiz-adv-x="630" unicode="&#187;" /><glyph d="M212 330 336 196Q356 174 333 154L257 83Q235 64 215 86L28 302Q20 312 20 321V338Q20 342 21.5 347Q23 352 27 356L216 574Q236 597 258 577L332 512Q355 493 335 470Z" glyph-name="guilsinglleft" horiz-adv-x="375" unicode="&#8249;" /><glyph d="M163 330 39 464Q20 487 42 506L118 577Q141 597 160 574L347 358Q355 348 355 339V322Q355 318 353.5 313Q352 308 348 304L159 86Q140 64 117 83L43 148Q21 168 40 190Z" glyph-name="guilsinglright" horiz-adv-x="375" unicode="&#8250;" /><glyph d="M312 428Q320 443 333.5 460Q347 477 367.5 491.5Q388 506 414.5 515.5Q441 525 475 525Q515 525 549 513.5Q583 502 607.5 475.5Q632 449 646 405Q660 361 660 295V30Q660 0 630 0H425Q395 0 395 30L390 288Q390 307 379.5 318.5Q369 330 350 330Q331 330 320.5 318.5Q310 307 310 288L305 30Q305 0 275 0H70Q40 0 40 30V720Q40 750 70 750H282Q312 750 312 720Z" glyph-name="h" horiz-adv-x="690" unicode="h" /><glyph d="M425 0Q395 0 395 30L390 288Q390 307 379.5 318.5Q369 330 350 330Q331 330 320.5 318.5Q310 307 310 288L305 30Q305 0 275 0H70Q40 0 40 30V720Q40 750 70 750H282Q312 750 312 720V428Q320 443 333.5 460Q347 477 367.5 491.5Q388 506 414.5 515.5Q441 525 475 525Q515 525 547.5 513.5Q580 502 602.5 475.5Q625 449 637.5 405Q650 361 650 295V210Q701 210 725.5 191Q750 172 750 119V30Q750 0 720 0Z" glyph-name="h.end" horiz-adv-x="760" unicode="&#58023;" /><glyph d="M285 904H276L256 835Q252 820 229 820H58Q43 820 36.5 829.5Q30 839 41 850L141 951Q149 960 165 960H397Q414 960 421 951L521 850Q531 839 525 829.5Q519 820 504 820H333Q311 820 306 835ZM415 428Q423 443 436.5 460Q450 477 470.5 491.5Q491 506 517.5 515.5Q544 525 578 525Q618 525 652 513.5Q686 502 710.5 475.5Q735 449 749 405Q763 361 763 295V30Q763 0 733 0H528Q498 0 498 30L493 288Q493 307 482.5 318.5Q472 330 453 330Q434 330 423.5 318.5Q413 307 413 288L408 30Q408 0 378 0H173Q143 0 143 30V720Q143 750 173 750H385Q415 750 415 720Z" glyph-name="hcircumflex" horiz-adv-x="793" unicode="&#293;" /><glyph d="M528 0Q498 0 498 30L493 288Q493 307 482.5 318.5Q472 330 453 330Q434 330 423.5 318.5Q413 307 413 288L408 30Q408 0 378 0H173Q143 0 143 30V720Q143 750 173 750H385Q415 750 415 720V428Q423 443 436.5 460Q450 477 470.5 491.5Q491 506 517.5 515.5Q544 525 578 525Q618 525 650.5 513.5Q683 502 705.5 475.5Q728 449 740.5 405Q753 361 753 295V210Q804 210 828.5 191Q853 172 853 119V30Q853 0 823 0ZM285 904H276L256 835Q252 820 229 820H58Q43 820 36.5 829.5Q30 839 41 850L141 951Q149 960 165 960H397Q414 960 421 951L521 850Q531 839 525 829.5Q519 820 504 820H333Q311 820 306 835Z" glyph-name="hcircumflex.end" horiz-adv-x="863" unicode="&#61506;" /><glyph d="M124 735Q130 750 151 750H347Q362 750 368 740.5Q374 731 364 720L278 619Q271 610 254 610H104Q89 610 83 618Q77 626 83 640ZM404 735Q410 750 431 750H627Q642 750 648 740.5Q654 731 644 720L558 619Q551 610 534 610H384Q369 610 363 618Q357 626 363 640Z" glyph-name="hungarumlaut" horiz-adv-x="746" unicode="&#733;" /><glyph d="M130 320Q100 320 100 350V480Q100 510 130 510H470Q500 510 500 480V350Q500 320 470 320Z" glyph-name="hyphen" horiz-adv-x="600" unicode="-" /><glyph d="M301 657Q301 600 265.5 574.5Q230 549 172 549Q114 549 81 572.5Q48 596 48 652Q48 706 83.5 733Q119 760 177 760Q235 760 268 737Q301 714 301 657ZM70 0Q40 0 40 30V480Q40 510 70 510H280Q310 510 310 480V30Q310 0 280 0Z" glyph-name="i" horiz-adv-x="350" unicode="i" /><glyph d="M70 0Q40 0 40 30V480Q40 510 70 510H270Q300 510 300 480V210Q351 210 375.5 191Q400 172 400 119V30Q400 0 370 0ZM297 657Q297 600 261.5 574.5Q226 549 168 549Q110 549 77 572.5Q44 596 44 652Q44 706 79.5 733Q115 760 173 760Q231 760 264 737Q297 714 297 657Z" glyph-name="i.end" horiz-adv-x="410" unicode="&#58024;" /><glyph d="M70 0Q40 0 40 30V480Q40 510 70 510H280Q310 510 310 480V30Q310 0 280 0ZM95 735Q101 750 122 750H328Q343 750 349 740.5Q355 731 345 720L259 619Q252 610 235 610H75Q60 610 54 618Q48 626 54 640Z" glyph-name="iacute" horiz-adv-x="381" unicode="&#237;" /><glyph d="M70 0Q40 0 40 30V480Q40 510 70 510H270Q300 510 300 480V210Q351 210 375.5 191Q400 172 400 119V30Q400 0 370 0ZM95 735Q101 750 122 750H328Q343 750 349 740.5Q355 731 345 720L259 619Q252 610 235 610H75Q60 610 54 618Q48 626 54 640Z" glyph-name="iacute.end" horiz-adv-x="410" unicode="&#61509;" /><glyph d="M175 0Q145 0 145 30V480Q145 510 175 510H385Q415 510 415 480V30Q415 0 385 0ZM284 694H275L255 625Q251 610 228 610H57Q42 610 35.5 619.5Q29 629 40 640L140 741Q148 750 164 750H396Q413 750 420 741L520 640Q530 629 524 619.5Q518 610 503 610H332Q310 610 305 625Z" glyph-name="icircumflex" horiz-adv-x="560" unicode="&#238;" /><glyph d="M175 0Q145 0 145 30V480Q145 510 175 510H375Q405 510 405 480V210Q456 210 480.5 191Q505 172 505 119V30Q505 0 475 0ZM285 694H276L256 625Q252 610 229 610H58Q43 610 36.5 619.5Q30 629 41 640L141 741Q149 750 165 750H397Q414 750 421 741L521 640Q531 629 525 619.5Q519 610 504 610H333Q311 610 306 625Z" glyph-name="icircumflex.end" horiz-adv-x="515" unicode="&#61510;" /><glyph d="M152 0Q122 0 122 30V480Q122 510 152 510H362Q392 510 392 480V30Q392 0 362 0ZM223 673Q223 629 193 605.5Q163 582 115 582Q66 582 38 604Q10 626 10 669Q10 711 40 735.5Q70 760 119 760Q167 760 195 738.5Q223 717 223 673ZM504 673Q504 629 474 605.5Q444 582 396 582Q347 582 319 604Q291 626 291 669Q291 711 321 735.5Q351 760 400 760Q448 760 476 738.5Q504 717 504 673Z" glyph-name="idieresis" horiz-adv-x="514" unicode="&#239;" /><glyph d="M223 673Q223 629 193 605.5Q163 582 115 582Q66 582 38 604Q10 626 10 669Q10 711 40 735.5Q70 760 119 760Q167 760 195 738.5Q223 717 223 673ZM504 673Q504 629 474 605.5Q444 582 396 582Q347 582 319 604Q291 626 291 669Q291 711 321 735.5Q351 760 400 760Q448 760 476 738.5Q504 717 504 673ZM152 0Q122 0 122 30V480Q122 510 152 510H352Q382 510 382 480V210Q433 210 457.5 191Q482 172 482 119V30Q482 0 452 0Z" glyph-name="idieresis.end" horiz-adv-x="492" unicode="&#61511;" /><glyph d="M101 0Q71 0 71 30V480Q71 510 101 510H311Q341 510 341 480V30Q341 0 311 0ZM327 640Q333 626 327 618Q321 610 306 610H146Q130 610 122 619L36 720Q26 731 32 740.5Q38 750 53 750H259Q280 750 286 735Z" glyph-name="igrave" horiz-adv-x="381" unicode="&#236;" /><glyph d="M101 0Q71 0 71 30V480Q71 510 101 510H301Q331 510 331 480V210Q382 210 406.5 191Q431 172 431 119V30Q431 0 401 0ZM327 640Q333 626 327 618Q321 610 306 610H146Q130 610 122 619L36 720Q26 731 32 740.5Q38 750 53 750H259Q280 750 286 735Z" glyph-name="igrave.end" horiz-adv-x="441" unicode="&#61512;" /><glyph d="M40 610Q10 610 10 640V720Q10 750 40 750H400Q430 750 430 720V640Q430 610 400 610ZM114 0Q84 0 84 30V480Q84 510 114 510H324Q354 510 354 480V30Q354 0 324 0Z" glyph-name="imacron" horiz-adv-x="440" unicode="&#299;" /><glyph d="M40 610Q10 610 10 640V720Q10 750 40 750H400Q430 750 430 720V640Q430 610 400 610ZM119 0Q89 0 89 30V480Q89 510 119 510H319Q349 510 349 480V210Q400 210 424.5 191Q449 172 449 119V30Q449 0 419 0Z" glyph-name="imacron.end" horiz-adv-x="459" unicode="&#61513;" /><glyph d="M40 348Q40 386 51.5 417.5Q63 449 85 471.5Q107 494 139 507Q171 520 212 520Q228 520 247.5 516.5Q267 513 285 506Q303 499 318.5 490Q334 481 341 470Q348 481 363 490Q378 499 396.5 506Q415 513 434.5 516.5Q454 520 470 520Q511 520 543 507Q575 494 597 471.5Q619 449 630.5 417.5Q642 386 642 348Q642 311 630.5 279Q619 247 597 224.5Q575 202 543 189Q511 176 470 176Q454 176 434.5 179.5Q415 183 396.5 190Q378 197 363 206Q348 215 341 226Q334 215 318.5 206Q303 197 285 190Q267 183 247.5 179.5Q228 176 212 176Q171 176 139 189Q107 202 85 224.5Q63 247 51.5 279Q40 311 40 348ZM191 348Q191 335 200 326Q209 317 222 317Q235 317 244 326Q253 335 253 348Q253 361 244 370Q235 379 222 379Q209 379 200 370Q191 361 191 348ZM429 348Q429 335 438 326Q447 317 460 317Q473 317 482 326Q491 335 491 348Q491 361 482 370Q473 379 460 379Q447 379 438 370Q429 361 429 348Z" glyph-name="infinity" horiz-adv-x="682" unicode="&#8734;" /><glyph d="M352 -15Q352 -75 338 -115Q324 -155 298 -179.5Q272 -204 235.5 -214.5Q199 -225 155 -225Q117 -225 88 -222Q59 -219 40 -216Q25 -214 17.5 -207.5Q10 -201 10 -186V-47Q10 -18 40 -18H49Q72 -18 87 -9.5Q102 -1 102 27V555Q102 615 116 655Q130 695 156 719.5Q182 744 218.5 754.5Q255 765 299 765Q337 765 366 762Q395 759 414 756Q429 754 436.5 747.5Q444 741 444 726V587Q444 558 414 558H405Q382 558 367 550Q352 542 352 518Z" glyph-name="integral" horiz-adv-x="454" unicode="&#8747;" /><glyph d="M205 -258Q139 -258 107.5 -230Q76 -202 76 -151Q76 -127 87.5 -102Q99 -77 114.5 -56Q130 -35 147 -20Q164 -5 175 0H70Q40 0 40 30V480Q40 510 70 510H280Q310 510 310 480V30Q310 8 295 2Q263 -24 242.5 -44Q222 -64 210.5 -80.5Q199 -97 195 -110.5Q191 -124 191 -136Q191 -147 199 -157.5Q207 -168 222 -168Q229 -168 234.5 -165.5Q240 -163 247 -163Q257 -163 267 -175L291 -200Q311 -222 290 -237Q276 -247 252 -252.5Q228 -258 205 -258ZM301 657Q301 600 265.5 574.5Q230 549 172 549Q114 549 81 572.5Q48 596 48 652Q48 706 83.5 733Q119 760 177 760Q235 760 268 737Q301 714 301 657Z" glyph-name="iogonek" horiz-adv-x="350" unicode="&#303;" /><glyph d="M295 -258Q229 -258 197.5 -230Q166 -202 166 -151Q166 -127 177.5 -102Q189 -77 204.5 -56Q220 -35 237 -20Q254 -5 265 0H70Q40 0 40 30V480Q40 510 70 510H270Q300 510 300 480V210Q351 210 375.5 191Q400 172 400 119V30Q400 8 385 2Q353 -24 332.5 -44Q312 -64 300.5 -80.5Q289 -97 285 -110.5Q281 -124 281 -136Q281 -147 289 -157.5Q297 -168 312 -168Q319 -168 324.5 -165.5Q330 -163 337 -163Q347 -163 357 -175L381 -200Q401 -222 380 -237Q366 -247 342 -252.5Q318 -258 295 -258ZM297 657Q297 600 261.5 574.5Q226 549 168 549Q110 549 77 572.5Q44 596 44 652Q44 706 79.5 733Q115 760 173 760Q231 760 264 737Q297 714 297 657Z" glyph-name="iogonek.end" horiz-adv-x="410" unicode="&#61520;" /><glyph d="M0 -216Q-15 -214 -22.5 -207.5Q-30 -201 -30 -186V-35Q-30 -5 0 -5H9Q26 -5 39 6Q52 17 52 55V480Q52 510 82 510H289Q319 510 319 480V0Q319 -120 265.5 -172.5Q212 -225 88 -225Q65 -225 41.5 -222Q18 -219 0 -216ZM312 657Q312 600 276.5 574.5Q241 549 183 549Q125 549 92 572.5Q59 596 59 652Q59 706 94.5 733Q130 760 188 760Q246 760 279 737Q312 714 312 657Z" glyph-name="j" horiz-adv-x="359" unicode="j" /><glyph d="M95 -216Q80 -214 72.5 -207.5Q65 -201 65 -186V-35Q65 -5 95 -5H104Q121 -5 134 6Q147 17 147 55V480Q147 510 177 510H384Q414 510 414 480V0Q414 -120 360.5 -172.5Q307 -225 183 -225Q160 -225 136.5 -222Q113 -219 95 -216ZM285 694H276L256 625Q252 610 229 610H58Q43 610 36.5 619.5Q30 629 41 640L141 741Q149 750 165 750H397Q414 750 421 741L521 640Q531 629 525 619.5Q519 610 504 610H333Q311 610 306 625Z" glyph-name="jcircumflex" horiz-adv-x="560" unicode="&#309;" /><glyph d="M681 30Q689 16 685.5 8Q682 0 667 0H429Q409 0 403 12L313 190H303V30Q303 0 273 0H70Q40 0 40 30V720Q40 750 70 750H273Q303 750 303 720V320H313L427 498Q435 510 453 510H661Q676 510 679.5 501.5Q683 493 675 480L539 280Z" glyph-name="k" horiz-adv-x="708" unicode="k" /><glyph d="M385 135Q383 169 362.5 179.5Q342 190 313 190H303V30Q303 0 273 0H70Q40 0 40 30V720Q40 750 70 750H273Q303 750 303 720V320H313Q342 320 362.5 330.5Q383 341 385 375L389 480Q391 510 419 510H634Q664 510 664 480V439Q664 368 635 320.5Q606 273 561 256Q606 238 635 191Q664 144 664 73V30Q664 0 634 0H419Q391 0 389 30Z" glyph-name="k.round" horiz-adv-x="684" unicode="&#61521;" /><glyph d="M419 0Q391 0 389 30L385 135Q383 169 362.5 179.5Q342 190 313 190H303V30Q303 0 273 0H70Q40 0 40 30V720Q40 750 70 750H273Q303 750 303 720V320H313Q342 320 362.5 330.5Q383 341 385 375L389 480Q391 510 419 510H634Q664 510 664 480V439Q664 368 635 320.5Q606 273 561 256Q595 241 611 210Q662 210 686.5 191Q711 172 711 119V30Q711 0 681 0Z" glyph-name="k.round.end" horiz-adv-x="721" unicode="&#61523;" /><glyph d="M278 -230Q278 -215 287.5 -212.5Q297 -210 302 -210Q335 -208 352 -198.5Q369 -189 369 -166Q364 -173 352.5 -181Q341 -189 322 -189Q295 -189 276 -174Q257 -159 257 -119Q257 -80 284.5 -56.5Q312 -33 350 -33Q396 -33 423 -61Q450 -89 450 -145Q450 -210 411.5 -236Q373 -262 310 -266Q302 -267 290 -263.5Q278 -260 278 -246ZM681 30Q689 16 685.5 8Q682 0 667 0H429Q409 0 403 12L313 190H303V30Q303 0 273 0H70Q40 0 40 30V720Q40 750 70 750H273Q303 750 303 720V320H313L427 498Q435 510 453 510H661Q676 510 679.5 501.5Q683 493 675 480L539 280Z" glyph-name="kcommaaccent" horiz-adv-x="708" unicode="&#311;" /><glyph d="M385 135Q383 169 362.5 179.5Q342 190 313 190H303V30Q303 0 273 0H70Q40 0 40 30V720Q40 750 70 750H273Q303 750 303 720V320H313Q342 320 362.5 330.5Q383 341 385 375L389 480Q391 510 419 510H634Q664 510 664 480V439Q664 368 635 320.5Q606 273 561 256Q606 238 635 191Q664 144 664 73V30Q664 0 634 0H419Q391 0 389 30ZM271 -230Q271 -215 280.5 -212.5Q290 -210 295 -210Q328 -208 345 -198.5Q362 -189 362 -166Q357 -173 345.5 -181Q334 -189 315 -189Q288 -189 269 -174Q250 -159 250 -119Q250 -80 277.5 -56.5Q305 -33 343 -33Q389 -33 416 -61Q443 -89 443 -145Q443 -210 404.5 -236Q366 -262 303 -266Q295 -267 283 -263.5Q271 -260 271 -246Z" glyph-name="kcommaaccent.round" horiz-adv-x="684" unicode="&#61527;" /><glyph d="M419 0Q391 0 389 30L385 135Q383 169 362.5 179.5Q342 190 313 190H303V30Q303 0 273 0H70Q40 0 40 30V720Q40 750 70 750H273Q303 750 303 720V320H313Q342 320 362.5 330.5Q383 341 385 375L389 480Q391 510 419 510H634Q664 510 664 480V439Q664 368 635 320.5Q606 273 561 256Q595 241 611 210Q662 210 686.5 191Q711 172 711 119V30Q711 0 681 0ZM271 -230Q271 -215 280.5 -212.5Q290 -210 295 -210Q328 -208 345 -198.5Q362 -189 362 -166Q357 -173 345.5 -181Q334 -189 315 -189Q288 -189 269 -174Q250 -159 250 -119Q250 -80 277.5 -56.5Q305 -33 343 -33Q389 -33 416 -61Q443 -89 443 -145Q443 -210 404.5 -236Q366 -262 303 -266Q295 -267 283 -263.5Q271 -260 271 -246Z" glyph-name="kcommaaccent.round.end" horiz-adv-x="721" unicode="&#61529;" /><glyph d="M70 0Q40 0 40 30V720Q40 750 70 750H265Q295 750 295 720V210Q346 210 370.5 191Q395 172 395 119V30Q395 0 365 0Z" glyph-name="l" horiz-adv-x="400" unicode="l" /><glyph d="M602 381Q602 321 564.5 294Q527 267 466 267Q405 267 370 292Q335 317 335 376Q335 433 372.5 461.5Q410 490 471 490Q532 490 567 465.5Q602 441 602 381ZM70 0Q40 0 40 30V720Q40 750 70 750H265Q295 750 295 720V210Q346 210 370.5 191Q395 172 395 119V30Q395 0 365 0ZM672 0Q642 0 642 30V720Q642 750 672 750H867Q897 750 897 720V210Q948 210 972.5 191Q997 172 997 119V30Q997 0 967 0Z" glyph-name="l_l" horiz-adv-x="1002" unicode="&#63168;" /><glyph d="M104 945Q110 960 131 960H337Q352 960 358 950.5Q364 941 354 930L268 829Q261 820 244 820H84Q69 820 63 828Q57 836 63 850ZM70 0Q40 0 40 30V720Q40 750 70 750H265Q295 750 295 720V210Q346 210 370.5 191Q395 172 395 119V30Q395 0 365 0Z" glyph-name="lacute" horiz-adv-x="400" unicode="&#314;" /><glyph d="M343 605Q343 620 352.5 622.5Q362 625 367 625Q400 627 417 636.5Q434 646 434 669Q429 662 417.5 654Q406 646 387 646Q360 646 341 661Q322 676 322 716Q322 755 349.5 778.5Q377 802 415 802Q461 802 488 774Q515 746 515 690Q515 625 476.5 599Q438 573 375 569Q367 568 355 571.5Q343 575 343 589ZM70 0Q40 0 40 30V720Q40 750 70 750H265Q295 750 295 720V210Q346 210 370.5 191Q395 172 395 119V30Q395 0 365 0Z" glyph-name="lcaron" horiz-adv-x="522" unicode="&#318;" /><glyph d="M134 -230Q134 -215 143.5 -212.5Q153 -210 158 -210Q191 -208 208 -198.5Q225 -189 225 -166Q220 -173 208.5 -181Q197 -189 178 -189Q151 -189 132 -174Q113 -159 113 -119Q113 -80 140.5 -56.5Q168 -33 206 -33Q252 -33 279 -61Q306 -89 306 -145Q306 -210 267.5 -236Q229 -262 166 -266Q158 -267 146 -263.5Q134 -260 134 -246ZM70 0Q40 0 40 30V720Q40 750 70 750H265Q295 750 295 720V210Q346 210 370.5 191Q395 172 395 119V30Q395 0 365 0Z" glyph-name="lcommaaccent" horiz-adv-x="400" unicode="&#316;" /><glyph d="M602 381Q602 321 564.5 294Q527 267 466 267Q405 267 370 292Q335 317 335 376Q335 433 372.5 461.5Q410 490 471 490Q532 490 567 465.5Q602 441 602 381ZM70 0Q40 0 40 30V720Q40 750 70 750H265Q295 750 295 720V210Q346 210 370.5 191Q395 172 395 119V30Q395 0 365 0Z" glyph-name="ldot" horiz-adv-x="612" unicode="&#320;" /><glyph d="M45 289Q30 295 30 317V444Q30 466 46 472L510 661Q539 672 548 643L582 532Q591 503 564 493L256 380L564 267Q591 257 582 228L548 117Q539 88 510 99Z" glyph-name="less" horiz-adv-x="621" unicode="&lt;" /><glyph d="M60 78Q30 78 30 108V218Q30 248 60 248H560Q590 248 590 218V108Q590 78 560 78ZM54 306Q30 309 30 335V432Q30 454 46 460L510 652Q539 663 548 634L580 542Q590 515 562 503L319 406L564 383Q590 380 590 352V279Q590 262 579 256Q568 250 554 252Z" glyph-name="lessequal" horiz-adv-x="620" unicode="&#8804;" /><glyph d="M390 140Q360 140 360 170V320H82Q52 320 52 350V480Q52 510 82 510H590Q620 510 620 480V170Q620 140 590 140Z" glyph-name="logicalnot" horiz-adv-x="833" unicode="&#172;" /><glyph d="M290 375 335 210H345L390 375L345 540H335ZM496 16Q490 0 470 0H210Q190 0 184 16L53 367Q50 375 53 383L184 734Q190 750 210 750H470Q490 750 496 734L627 383Q630 375 627 367Z" glyph-name="lozenge" horiz-adv-x="680" unicode="&#9674;" /><glyph d="M90 0Q60 0 60 30V267Q37 261 28 287L-10 390Q-21 419 8 429L60 448V720Q60 750 90 750H285Q315 750 315 720V542L334 549Q361 560 372 531L410 428Q421 400 392 389L315 360V210Q366 210 390.5 191Q415 172 415 119V30Q415 0 385 0Z" glyph-name="lslash" horiz-adv-x="420" unicode="&#322;" /><glyph d="M425 0Q395 0 395 30L390 288Q390 307 379.5 318.5Q369 330 350 330Q331 330 320.5 318.5Q310 307 310 288L305 30Q305 0 275 0H70Q40 0 40 30V480Q40 510 70 510H270Q295 510 299 489L312 428Q320 443 334 460Q348 477 368.5 491.5Q389 506 414.5 515.5Q440 525 470 525Q526 525 569 506Q612 487 642 428Q652 443 668.5 460.5Q685 478 707 492Q729 506 757.5 515.5Q786 525 820 525Q917 525 963.5 468.5Q1010 412 1010 285V30Q1010 0 980 0H775Q745 0 745 30L740 288Q740 307 729.5 318.5Q719 330 700 330Q681 330 670.5 318.5Q660 307 660 288L655 30Q655 0 625 0Z" glyph-name="m" horiz-adv-x="1040" unicode="m" /><glyph d="M775 0Q745 0 745 30L740 288Q740 307 729.5 318.5Q719 330 700 330Q681 330 670.5 318.5Q660 307 660 288L655 30Q655 0 625 0H425Q395 0 395 30L390 288Q390 307 379.5 318.5Q369 330 350 330Q331 330 320.5 318.5Q310 307 310 288L305 30Q305 0 275 0H70Q40 0 40 30V480Q40 510 70 510H270Q295 510 299 489L312 428Q320 443 334 460Q348 477 368.5 491.5Q389 506 414.5 515.5Q440 525 470 525Q526 525 569 506Q612 487 642 428Q652 443 668.5 460.5Q685 478 707 492Q729 506 757.5 515.5Q786 525 820 525Q917 525 958.5 468.5Q1000 412 1000 285V210Q1051 210 1075.5 191Q1100 172 1100 119V30Q1100 0 1070 0Z" glyph-name="m.end" horiz-adv-x="1110" unicode="&#58028;" /><glyph d="M120 610Q90 610 90 640V720Q90 750 120 750H480Q510 750 510 720V640Q510 610 480 610Z" glyph-name="macron" horiz-adv-x="600" unicode="&#175;" /><glyph d="M60 295Q30 295 30 325V435Q30 465 60 465H560Q590 465 590 435V325Q590 295 560 295Z" glyph-name="minus" horiz-adv-x="620" unicode="&#8722;" /><glyph d="M30 480Q30 510 60 510H265Q295 510 295 480L300 222Q300 203 310.5 191.5Q321 180 340 180Q359 180 369.5 191.5Q380 203 380 222L385 480Q385 510 415 510H620Q650 510 650 480V30Q650 0 620 0H427Q403 0 398 21L387 77Q372 35 346.5 17.5Q321 0 295 0V-180Q295 -210 265 -210H60Q30 -210 30 -180Z" glyph-name="mu" horiz-adv-x="690" unicode="&#181;" /><glyph d="M437 382 580 249Q602 228 581 206L500 122Q479 101 458 121L318 259L185 117Q164 95 142 116L58 197Q37 219 57 239L195 378L53 512Q31 533 52 555L133 639Q155 661 175 640L314 501L448 644Q469 666 491 645L575 564Q597 543 576 522Z" glyph-name="multiply" horiz-adv-x="633" unicode="&#215;" /><glyph d="M390 288Q390 307 379.5 318.5Q369 330 350 330Q331 330 320.5 318.5Q310 307 310 288L305 30Q305 0 275 0H70Q40 0 40 30V480Q40 510 70 510H270Q295 510 299 489L312 428Q320 443 333.5 460Q347 477 367.5 491.5Q388 506 414.5 515.5Q441 525 475 525Q515 525 549 513.5Q583 502 607.5 475.5Q632 449 646 405Q660 361 660 295V30Q660 0 630 0H425Q395 0 395 30Z" glyph-name="n" horiz-adv-x="690" unicode="n" /><glyph d="M425 0Q395 0 395 30L390 288Q390 307 379.5 318.5Q369 330 350 330Q331 330 320.5 318.5Q310 307 310 288L305 30Q305 0 275 0H70Q40 0 40 30V480Q40 510 70 510H270Q295 510 299 489L312 428Q320 443 333.5 460Q347 477 367.5 491.5Q388 506 414.5 515.5Q441 525 475 525Q515 525 547.5 513.5Q580 502 602.5 475.5Q625 449 637.5 405Q650 361 650 295V210Q701 210 725.5 191Q750 172 750 119V30Q750 0 720 0Z" glyph-name="n.end" horiz-adv-x="760" unicode="&#58029;" /><glyph d="M304 735Q310 750 331 750H537Q552 750 558 740.5Q564 731 554 720L468 619Q461 610 444 610H284Q269 610 263 618Q257 626 263 640ZM390 288Q390 307 379.5 318.5Q369 330 350 330Q331 330 320.5 318.5Q310 307 310 288L305 30Q305 0 275 0H70Q40 0 40 30V480Q40 510 70 510H270Q295 510 299 489L312 428Q320 443 333.5 460Q347 477 367.5 491.5Q388 506 414.5 515.5Q441 525 475 525Q515 525 549 513.5Q583 502 607.5 475.5Q632 449 646 405Q660 361 660 295V30Q660 0 630 0H425Q395 0 395 30Z" glyph-name="nacute" horiz-adv-x="690" unicode="&#324;" /><glyph d="M425 0Q395 0 395 30L390 288Q390 307 379.5 318.5Q369 330 350 330Q331 330 320.5 318.5Q310 307 310 288L305 30Q305 0 275 0H70Q40 0 40 30V480Q40 510 70 510H270Q295 510 299 489L312 428Q320 443 333.5 460Q347 477 367.5 491.5Q388 506 414.5 515.5Q441 525 475 525Q515 525 547.5 513.5Q580 502 602.5 475.5Q625 449 637.5 405Q650 361 650 295V210Q701 210 725.5 191Q750 172 750 119V30Q750 0 720 0ZM304 735Q310 750 331 750H537Q552 750 558 740.5Q564 731 554 720L468 619Q461 610 444 610H284Q269 610 263 618Q257 626 263 640Z" glyph-name="nacute.end" horiz-adv-x="760" unicode="&#61573;" /><glyph d="M376 735Q381 750 403 750H574Q589 750 595 740.5Q601 731 591 720L491 619Q484 610 467 610H235Q219 610 211 619L111 720Q100 731 106.5 740.5Q113 750 128 750H299Q322 750 326 735L346 666H355ZM390 288Q390 307 379.5 318.5Q369 330 350 330Q331 330 320.5 318.5Q310 307 310 288L305 30Q305 0 275 0H70Q40 0 40 30V480Q40 510 70 510H270Q295 510 299 489L312 428Q320 443 333.5 460Q347 477 367.5 491.5Q388 506 414.5 515.5Q441 525 475 525Q515 525 549 513.5Q583 502 607.5 475.5Q632 449 646 405Q660 361 660 295V30Q660 0 630 0H425Q395 0 395 30Z" glyph-name="ncaron" horiz-adv-x="690" unicode="&#328;" /><glyph d="M425 0Q395 0 395 30L390 288Q390 307 379.5 318.5Q369 330 350 330Q331 330 320.5 318.5Q310 307 310 288L305 30Q305 0 275 0H70Q40 0 40 30V480Q40 510 70 510H270Q295 510 299 489L312 428Q320 443 333.5 460Q347 477 367.5 491.5Q388 506 414.5 515.5Q441 525 475 525Q515 525 547.5 513.5Q580 502 602.5 475.5Q625 449 637.5 405Q650 361 650 295V210Q701 210 725.5 191Q750 172 750 119V30Q750 0 720 0ZM376 735Q381 750 403 750H574Q589 750 595 740.5Q601 731 591 720L491 619Q484 610 467 610H235Q219 610 211 619L111 720Q100 731 106.5 740.5Q113 750 128 750H299Q322 750 326 735L346 666H355Z" glyph-name="ncaron.end" horiz-adv-x="760" unicode="&#61584;" /><glyph d="M277 -230Q277 -215 286.5 -212.5Q296 -210 301 -210Q334 -208 351 -198.5Q368 -189 368 -166Q363 -173 351.5 -181Q340 -189 321 -189Q294 -189 275 -174Q256 -159 256 -119Q256 -80 283.5 -56.5Q311 -33 349 -33Q395 -33 422 -61Q449 -89 449 -145Q449 -210 410.5 -236Q372 -262 309 -266Q301 -267 289 -263.5Q277 -260 277 -246ZM390 288Q390 307 379.5 318.5Q369 330 350 330Q331 330 320.5 318.5Q310 307 310 288L305 30Q305 0 275 0H70Q40 0 40 30V480Q40 510 70 510H270Q295 510 299 489L312 428Q320 443 333.5 460Q347 477 367.5 491.5Q388 506 414.5 515.5Q441 525 475 525Q515 525 549 513.5Q583 502 607.5 475.5Q632 449 646 405Q660 361 660 295V30Q660 0 630 0H425Q395 0 395 30Z" glyph-name="ncommaaccent" horiz-adv-x="690" unicode="&#326;" /><glyph d="M425 0Q395 0 395 30L390 288Q390 307 379.5 318.5Q369 330 350 330Q331 330 320.5 318.5Q310 307 310 288L305 30Q305 0 275 0H70Q40 0 40 30V480Q40 510 70 510H270Q295 510 299 489L312 428Q320 443 333.5 460Q347 477 367.5 491.5Q388 506 414.5 515.5Q441 525 475 525Q515 525 547.5 513.5Q580 502 602.5 475.5Q625 449 637.5 405Q650 361 650 295V210Q701 210 725.5 191Q750 172 750 119V30Q750 0 720 0ZM277 -230Q277 -215 286.5 -212.5Q296 -210 301 -210Q334 -208 351 -198.5Q368 -189 368 -166Q363 -173 351.5 -181Q340 -189 321 -189Q294 -189 275 -174Q256 -159 256 -119Q256 -80 283.5 -56.5Q311 -33 349 -33Q395 -33 422 -61Q449 -89 449 -145Q449 -210 410.5 -236Q372 -262 309 -266Q301 -267 289 -263.5Q277 -260 277 -246Z" glyph-name="ncommaaccent.end" horiz-adv-x="760" unicode="&#61589;" /><glyph d="M385 255Q385 285 375.5 305Q366 325 340 325Q314 325 304.5 305Q295 285 295 255Q295 225 304.5 205Q314 185 340 185Q366 185 375.5 205Q385 225 385 255ZM204 -40Q225 -40 256 -38Q287 -36 316 -24.5Q345 -13 365.5 10.5Q386 34 386 77Q380 65 367.5 51.5Q355 38 336.5 26.5Q318 15 293 7.5Q268 0 237 0Q193 0 155 16Q117 32 89.5 63.5Q62 95 46 141.5Q30 188 30 250Q30 319 53.5 371.5Q77 424 117.5 459.5Q158 495 212.5 512.5Q267 530 328 530Q402 530 461.5 511Q521 492 563 449.5Q605 407 627.5 338Q650 269 650 170Q650 64 625.5 -11Q601 -86 551 -133.5Q501 -181 424 -203Q347 -225 242 -225Q220 -225 195.5 -223.5Q171 -222 149.5 -220.5Q128 -219 110 -217Q92 -215 81 -213Q60 -210 60 -184V-47Q60 -17 90 -24Q109 -29 139 -34.5Q169 -40 204 -40Z" glyph-name="nine" horiz-adv-x="680" unicode="9" /><glyph d="M375 458Q375 488 365.5 508Q356 528 330 528Q304 528 294.5 508Q285 488 285 458Q285 428 294.5 408Q304 388 330 388Q356 388 365.5 408Q375 428 375 458ZM194 170Q215 170 246 172.5Q277 175 306 186Q335 197 355.5 220.5Q376 244 376 287Q370 275 357.5 261.5Q345 248 326.5 236.5Q308 225 283 217.5Q258 210 227 210Q183 210 145 225Q107 240 79.5 270Q52 300 36 345.5Q20 391 20 453Q20 522 43.5 573.5Q67 625 107.5 658.5Q148 692 202.5 708.5Q257 725 318 725Q392 725 451.5 707.5Q511 690 553 648.5Q595 607 617.5 539.5Q640 472 640 373Q640 267 615.5 193Q591 119 541 73Q491 27 414 6Q337 -15 232 -15Q210 -15 185.5 -13.5Q161 -12 139.5 -10.5Q118 -9 100 -7Q82 -5 71 -3Q50 0 50 26V163Q50 194 80 186Q99 181 129 175.5Q159 170 194 170Z" glyph-name="nine.lnum" horiz-adv-x="670" unicode="&#59657;" /></font>
</defs>
</svg>
