<?xml version="1.0" standalone="no"?>
<!-- Licensee: Bradley and Montgomery (#23959) - http://vllg.com -->
<!DOCTYPE svg PUBLIC "-//W3C//DTD SVG 1.1//EN" "http://www.w3.org/Graphics/SVG/1.1/DTD/svg11.dtd" ><svg version="1.1" xmlns="http://www.w3.org/2000/svg"><defs><font horiz-adv-x="0" id="font"><font-face ascent="750" bbox="-129 -225 1265 960" cap-height="750" descent="-250" font-family="Rum Sans Thin" font-stretch="normal" font-style="italic" font-weight="600" units-per-em="1000" x-height="510" /><missing-glyph d="M487 0H50L209 750H646ZM97 34H454L599 716H242Z" horiz-adv-x="666" /><glyph glyph-name=".null" horiz-adv-x="0" /><glyph d="M-20 0 405 750H443L552 0H512L489 163H116L26 0ZM135 197H485L416 703Z" glyph-name="A" horiz-adv-x="627" unicode="A" /><glyph d="M600 -5Q502 -5 523 94L546 203H128L85 0H45L135 424Q155 518 184 582Q213 646 252 685.5Q291 725 340 742.5Q389 760 448 760Q489 760 526 749.5Q563 739 590.5 715.5Q618 692 634 654Q650 616 650 561Q650 502 634 426L563 94Q555 56 566 42.5Q577 29 609 29Q615 29 622 30Q629 31 636 32Q644 33 652 34V0Q643 -1 634 -3Q625 -4 616.5 -4.5Q608 -5 600 -5ZM135 237H553L593 424Q601 464 606 498.5Q611 533 611 563Q611 643 567 684.5Q523 726 443 726Q386 726 343.5 706.5Q301 687 269 649Q237 611 214.5 555Q192 499 176 426Z" glyph-name="A.round" horiz-adv-x="712" unicode="&#59697;" /><glyph d="M620 -10Q564 -10 538.5 18.5Q513 47 525 105L546 203H128L85 0H45L135 424Q155 518 184 582Q213 646 252 685.5Q291 725 340 742.5Q389 760 448 760Q489 760 526 749.5Q563 739 590.5 715.5Q618 692 634 654Q650 616 650 561Q650 502 634 426L565 105Q556 62 572.5 43Q589 24 629 24Q642 24 655 25.5Q668 27 679 29Q691 31 702 34V0Q690 -3 676 -5Q664 -7 649.5 -8.5Q635 -10 620 -10ZM135 237H553L593 424Q601 464 606 498.5Q611 533 611 563Q611 643 567 684.5Q523 726 443 726Q386 726 343.5 706.5Q301 687 269 649Q237 611 214.5 555Q192 499 176 426Z" glyph-name="A.round.end" horiz-adv-x="712" unicode="&#59698;" /><glyph d="M-69 0 375 750H811V716H414L420 392H736V358H421L427 34H737V0H391L388 163H70L-26 0ZM90 197H387L379 687Z" glyph-name="AE" horiz-adv-x="801" unicode="&#198;" /><glyph d="M536 203H128L85 0H45L133 414Q153 508 182.5 572Q212 636 253 675.5Q294 715 348 732.5Q402 750 470 750H1092V716H685L616 392H996V358H609L557 114Q547 69 559.5 51.5Q572 34 610 34H940V0H610Q554 0 528.5 24Q503 48 517 114ZM135 237H543L645 716H470Q403 716 354 696.5Q305 677 270.5 639Q236 601 213 545Q190 489 174 416Z" glyph-name="AE.round" horiz-adv-x="1072" unicode="&#59747;" /><glyph d="M-20 0 405 750H443L552 0H512L489 163H116L26 0ZM135 197H485L416 703ZM451 790H411L521 930H571Z" glyph-name="Aacute" horiz-adv-x="627" unicode="&#193;" /><glyph d="M591 -5Q493 -5 514 94L537 203H119L76 0H36L126 424Q146 518 175 582Q204 646 243 685.5Q282 725 331 742.5Q380 760 439 760Q480 760 517 749.5Q554 739 581.5 715.5Q609 692 625 654Q641 616 641 561Q641 502 625 426L554 94Q546 56 557 42.5Q568 29 600 29Q606 29 613 30Q620 31 627 32Q635 33 643 34V0Q634 -1 625 -3Q616 -4 607.5 -4.5Q599 -5 591 -5ZM126 237H544L584 424Q592 464 597 498.5Q602 533 602 563Q602 643 558 684.5Q514 726 434 726Q377 726 334.5 706.5Q292 687 260 649Q228 611 205.5 555Q183 499 167 426ZM472 790H432L542 930H592Z" glyph-name="Aacute.round" horiz-adv-x="703" unicode="&#59702;" /><glyph d="M620 -10Q564 -10 538.5 18.5Q513 47 525 105L546 203H128L85 0H45L135 424Q155 518 184 582Q213 646 252 685.5Q291 725 340 742.5Q389 760 448 760Q489 760 526 749.5Q563 739 590.5 715.5Q618 692 634 654Q650 616 650 561Q650 502 634 426L565 105Q556 62 572.5 43Q589 24 629 24Q642 24 655 25.5Q668 27 679 29Q691 31 702 34V0Q690 -3 676 -5Q664 -7 649.5 -8.5Q635 -10 620 -10ZM135 237H553L593 424Q601 464 606 498.5Q611 533 611 563Q611 643 567 684.5Q523 726 443 726Q386 726 343.5 706.5Q301 687 269 649Q237 611 214.5 555Q192 499 176 426ZM482 790H442L552 930H602Z" glyph-name="Aacute.round.end" horiz-adv-x="712" unicode="&#59703;" /><glyph d="M-20 0 405 750H443L552 0H512L489 163H116L26 0ZM135 197H485L416 703ZM566 886Q566 867 558 849.5Q550 832 534.5 818Q519 804 495 795.5Q471 787 439 787Q407 787 384 795.5Q361 804 346 818Q331 832 323.5 849.5Q316 867 316 886H354Q356 852 380 834Q404 816 441 816Q479 816 502.5 834Q526 852 528 886Z" glyph-name="Abreve" horiz-adv-x="627" unicode="&#258;" /><glyph d="M600 -5Q502 -5 523 94L546 203H128L85 0H45L135 424Q155 518 184 582Q213 646 252 685.5Q291 725 340 742.5Q389 760 448 760Q489 760 526 749.5Q563 739 590.5 715.5Q618 692 634 654Q650 616 650 561Q650 502 634 426L563 94Q555 56 566 42.5Q577 29 609 29Q615 29 622 30Q629 31 636 32Q644 33 652 34V0Q643 -1 634 -3Q625 -4 616.5 -4.5Q608 -5 600 -5ZM135 237H553L593 424Q601 464 606 498.5Q611 533 611 563Q611 643 567 684.5Q523 726 443 726Q386 726 343.5 706.5Q301 687 269 649Q237 611 214.5 555Q192 499 176 426ZM592 886Q592 867 584 849.5Q576 832 560.5 818Q545 804 521 795.5Q497 787 465 787Q433 787 410 795.5Q387 804 372 818Q357 832 349.5 849.5Q342 867 342 886H380Q382 852 406 834Q430 816 467 816Q505 816 528.5 834Q552 852 554 886Z" glyph-name="Abreve.round" horiz-adv-x="712" unicode="&#59715;" /><glyph d="M620 -10Q564 -10 538.5 18.5Q513 47 525 105L546 203H128L85 0H45L135 424Q155 518 184 582Q213 646 252 685.5Q291 725 340 742.5Q389 760 448 760Q489 760 526 749.5Q563 739 590.5 715.5Q618 692 634 654Q650 616 650 561Q650 502 634 426L565 105Q556 62 572.5 43Q589 24 629 24Q642 24 655 25.5Q668 27 679 29Q691 31 702 34V0Q690 -3 676 -5Q664 -7 649.5 -8.5Q635 -10 620 -10ZM135 237H553L593 424Q601 464 606 498.5Q611 533 611 563Q611 643 567 684.5Q523 726 443 726Q386 726 343.5 706.5Q301 687 269 649Q237 611 214.5 555Q192 499 176 426ZM592 886Q592 867 584 849.5Q576 832 560.5 818Q545 804 521 795.5Q497 787 465 787Q433 787 410 795.5Q387 804 372 818Q357 832 349.5 849.5Q342 867 342 886H380Q382 852 406 834Q430 816 467 816Q505 816 528.5 834Q552 852 554 886Z" glyph-name="Abreve.round.end" horiz-adv-x="712" unicode="&#59716;" /><glyph d="M-20 0 405 750H443L552 0H512L489 163H116L26 0ZM135 197H485L416 703ZM457 904 345 790H298L442 930H480L566 790H525Z" glyph-name="Acircumflex" horiz-adv-x="627" unicode="&#194;" /><glyph d="M591 -5Q493 -5 514 94L537 203H119L76 0H36L126 424Q146 518 175 582Q204 646 243 685.5Q282 725 331 742.5Q380 760 439 760Q480 760 517 749.5Q554 739 581.5 715.5Q609 692 625 654Q641 616 641 561Q641 502 625 426L554 94Q546 56 557 42.5Q568 29 600 29Q606 29 613 30Q620 31 627 32Q635 33 643 34V0Q634 -1 625 -3Q616 -4 607.5 -4.5Q599 -5 591 -5ZM126 237H544L584 424Q592 464 597 498.5Q602 533 602 563Q602 643 558 684.5Q514 726 434 726Q377 726 334.5 706.5Q292 687 260 649Q228 611 205.5 555Q183 499 167 426ZM474 904 362 790H315L459 930H497L583 790H542Z" glyph-name="Acircumflex.round" horiz-adv-x="703" unicode="&#59728;" /><glyph d="M620 -10Q564 -10 538.5 18.5Q513 47 525 105L546 203H128L85 0H45L135 424Q155 518 184 582Q213 646 252 685.5Q291 725 340 742.5Q389 760 448 760Q489 760 526 749.5Q563 739 590.5 715.5Q618 692 634 654Q650 616 650 561Q650 502 634 426L565 105Q556 62 572.5 43Q589 24 629 24Q642 24 655 25.5Q668 27 679 29Q691 31 702 34V0Q690 -3 676 -5Q664 -7 649.5 -8.5Q635 -10 620 -10ZM135 237H553L593 424Q601 464 606 498.5Q611 533 611 563Q611 643 567 684.5Q523 726 443 726Q386 726 343.5 706.5Q301 687 269 649Q237 611 214.5 555Q192 499 176 426ZM483 904 371 790H324L468 930H506L592 790H551Z" glyph-name="Acircumflex.round.end" horiz-adv-x="712" unicode="&#59729;" /><glyph d="M-20 0 405 750H443L552 0H512L489 163H116L26 0ZM135 197H485L416 703ZM390 860Q390 831 359 831Q345 831 337 838Q329 845 329 859Q329 872 337.5 880Q346 888 360 888Q374 888 382 881Q390 874 390 860ZM570 860Q570 831 539 831Q525 831 517 838Q509 845 509 859Q509 872 517.5 880Q526 888 540 888Q554 888 562 881Q570 874 570 860Z" glyph-name="Adieresis" horiz-adv-x="627" unicode="&#196;" /><glyph d="M600 -5Q502 -5 523 94L546 203H128L85 0H45L135 424Q155 518 184 582Q213 646 252 685.5Q291 725 340 742.5Q389 760 448 760Q489 760 526 749.5Q563 739 590.5 715.5Q618 692 634 654Q650 616 650 561Q650 502 634 426L563 94Q555 56 566 42.5Q577 29 609 29Q615 29 622 30Q629 31 636 32Q644 33 652 34V0Q643 -1 634 -3Q625 -4 616.5 -4.5Q608 -5 600 -5ZM135 237H553L593 424Q601 464 606 498.5Q611 533 611 563Q611 643 567 684.5Q523 726 443 726Q386 726 343.5 706.5Q301 687 269 649Q237 611 214.5 555Q192 499 176 426ZM591 860Q591 831 560 831Q546 831 538 838Q530 845 530 859Q530 872 538.5 880Q547 888 561 888Q575 888 583 881Q591 874 591 860ZM411 860Q411 831 380 831Q366 831 358 838Q350 845 350 859Q350 872 358.5 880Q367 888 381 888Q395 888 403 881Q411 874 411 860Z" glyph-name="Adieresis.round" horiz-adv-x="712" unicode="&#59735;" /><glyph d="M620 -10Q564 -10 538.5 18.5Q513 47 525 105L546 203H128L85 0H45L135 424Q155 518 184 582Q213 646 252 685.5Q291 725 340 742.5Q389 760 448 760Q489 760 526 749.5Q563 739 590.5 715.5Q618 692 634 654Q650 616 650 561Q650 502 634 426L565 105Q556 62 572.5 43Q589 24 629 24Q642 24 655 25.5Q668 27 679 29Q691 31 702 34V0Q690 -3 676 -5Q664 -7 649.5 -8.5Q635 -10 620 -10ZM135 237H553L593 424Q601 464 606 498.5Q611 533 611 563Q611 643 567 684.5Q523 726 443 726Q386 726 343.5 706.5Q301 687 269 649Q237 611 214.5 555Q192 499 176 426ZM596 860Q596 831 565 831Q551 831 543 838Q535 845 535 859Q535 872 543.5 880Q552 888 566 888Q580 888 588 881Q596 874 596 860ZM416 860Q416 831 385 831Q371 831 363 838Q355 845 355 859Q355 872 363.5 880Q372 888 386 888Q400 888 408 881Q416 874 416 860Z" glyph-name="Adieresis.round.end" horiz-adv-x="712" unicode="&#59736;" /><glyph d="M-20 0 405 750H443L552 0H512L489 163H116L26 0ZM135 197H485L416 703ZM287 930H337L447 790H407Z" glyph-name="Agrave" horiz-adv-x="627" unicode="&#192;" /><glyph d="M600 -5Q502 -5 523 94L546 203H128L85 0H45L135 424Q155 518 184 582Q213 646 252 685.5Q291 725 340 742.5Q389 760 448 760Q489 760 526 749.5Q563 739 590.5 715.5Q618 692 634 654Q650 616 650 561Q650 502 634 426L563 94Q555 56 566 42.5Q577 29 609 29Q615 29 622 30Q629 31 636 32Q644 33 652 34V0Q643 -1 634 -3Q625 -4 616.5 -4.5Q608 -5 600 -5ZM135 237H553L593 424Q601 464 606 498.5Q611 533 611 563Q611 643 567 684.5Q523 726 443 726Q386 726 343.5 706.5Q301 687 269 649Q237 611 214.5 555Q192 499 176 426ZM324 930H374L484 790H444Z" glyph-name="Agrave.round" horiz-adv-x="712" unicode="&#59752;" /><glyph d="M620 -10Q564 -10 538.5 18.5Q513 47 525 105L546 203H128L85 0H45L135 424Q155 518 184 582Q213 646 252 685.5Q291 725 340 742.5Q389 760 448 760Q489 760 526 749.5Q563 739 590.5 715.5Q618 692 634 654Q650 616 650 561Q650 502 634 426L565 105Q556 62 572.5 43Q589 24 629 24Q642 24 655 25.5Q668 27 679 29Q691 31 702 34V0Q690 -3 676 -5Q664 -7 649.5 -8.5Q635 -10 620 -10ZM135 237H553L593 424Q601 464 606 498.5Q611 533 611 563Q611 643 567 684.5Q523 726 443 726Q386 726 343.5 706.5Q301 687 269 649Q237 611 214.5 555Q192 499 176 426ZM325 930H375L485 790H445Z" glyph-name="Agrave.round.end" horiz-adv-x="712" unicode="&#59753;" /><glyph d="M-20 0 405 750H443L552 0H512L489 163H116L26 0ZM135 197H485L416 703ZM274 836V870H591V836Z" glyph-name="Amacron" horiz-adv-x="627" unicode="&#256;" /><glyph d="M600 -5Q502 -5 523 94L546 203H128L85 0H45L135 424Q155 518 184 582Q213 646 252 685.5Q291 725 340 742.5Q389 760 448 760Q489 760 526 749.5Q563 739 590.5 715.5Q618 692 634 654Q650 616 650 561Q650 502 634 426L563 94Q555 56 566 42.5Q577 29 609 29Q615 29 622 30Q629 31 636 32Q644 33 652 34V0Q643 -1 634 -3Q625 -4 616.5 -4.5Q608 -5 600 -5ZM135 237H553L593 424Q601 464 606 498.5Q611 533 611 563Q611 643 567 684.5Q523 726 443 726Q386 726 343.5 706.5Q301 687 269 649Q237 611 214.5 555Q192 499 176 426ZM310 836V870H627V836Z" glyph-name="Amacron.round" horiz-adv-x="712" unicode="&#59765;" /><glyph d="M620 -10Q564 -10 538.5 18.5Q513 47 525 105L546 203H128L85 0H45L135 424Q155 518 184 582Q213 646 252 685.5Q291 725 340 742.5Q389 760 448 760Q489 760 526 749.5Q563 739 590.5 715.5Q618 692 634 654Q650 616 650 561Q650 502 634 426L565 105Q556 62 572.5 43Q589 24 629 24Q642 24 655 25.5Q668 27 679 29Q691 31 702 34V0Q690 -3 676 -5Q664 -7 649.5 -8.5Q635 -10 620 -10ZM135 237H553L593 424Q601 464 606 498.5Q611 533 611 563Q611 643 567 684.5Q523 726 443 726Q386 726 343.5 706.5Q301 687 269 649Q237 611 214.5 555Q192 499 176 426ZM313 836V870H630V836Z" glyph-name="Amacron.round.end" horiz-adv-x="712" unicode="&#59766;" /><glyph d="M512 0 489 163H116L26 0H-20L405 750H443L552 0Q515 -38 501.5 -60Q488 -82 488 -98Q488 -112 496.5 -118Q505 -124 518 -124Q525 -124 532 -122Q539 -120 545 -118Q552 -115 558 -111V-142Q552 -145 545 -148Q538 -150 530 -152Q522 -154 513 -154Q487 -154 467.5 -142.5Q448 -131 448 -103Q448 -77 467.5 -52.5Q487 -28 522 0ZM135 197H485L416 703Z" glyph-name="Aogonek" horiz-adv-x="627" unicode="&#260;" /><glyph d="M548 -103Q548 -78 565 -54Q582 -30 611 -4Q607 -5 600 -5Q502 -5 523 94L546 203H128L85 0H45L135 424Q155 518 184 582Q213 646 252 685.5Q291 725 340 742.5Q389 760 448 760Q489 760 526 749.5Q563 739 590.5 715.5Q618 692 634 654Q650 616 650 561Q650 502 634 426L563 94Q555 56 566 42.5Q577 29 609 29Q615 29 622 30Q629 31 636 32Q644 33 652 34V0Q615 -38 601.5 -60Q588 -82 588 -98Q588 -112 596.5 -118Q605 -124 618 -124Q625 -124 632 -122Q639 -120 645 -118Q652 -115 658 -111V-142Q652 -145 645 -148Q638 -150 630 -152Q622 -154 613 -154Q587 -154 567.5 -142.5Q548 -131 548 -103ZM135 237H553L593 424Q601 464 606 498.5Q611 533 611 563Q611 643 567 684.5Q523 726 443 726Q386 726 343.5 706.5Q301 687 269 649Q237 611 214.5 555Q192 499 176 426Z" glyph-name="Aogonek.round" horiz-adv-x="712" unicode="&#59779;" /><glyph d="M598 -103Q598 -79 614.5 -56Q631 -33 658 -7Q640 -10 620 -10Q564 -10 538.5 18.5Q513 47 525 105L546 203H128L85 0H45L135 424Q155 518 184 582Q213 646 252 685.5Q291 725 340 742.5Q389 760 448 760Q489 760 526 749.5Q563 739 590.5 715.5Q618 692 634 654Q650 616 650 561Q650 502 634 426L565 105Q556 62 572.5 43Q589 24 629 24Q642 24 655 25.5Q668 27 679 29Q691 31 702 34V0Q665 -38 651.5 -60Q638 -82 638 -98Q638 -112 646.5 -118Q655 -124 668 -124Q675 -124 682 -122Q689 -120 695 -118Q702 -115 708 -111V-142Q702 -145 695 -148Q688 -150 680 -152Q672 -154 663 -154Q637 -154 617.5 -142.5Q598 -131 598 -103ZM135 237H553L593 424Q601 464 606 498.5Q611 533 611 563Q611 643 567 684.5Q523 726 443 726Q386 726 343.5 706.5Q301 687 269 649Q237 611 214.5 555Q192 499 176 426Z" glyph-name="Aogonek.round.end" horiz-adv-x="712" unicode="&#59780;" /><glyph d="M443 735 552 0H512L489 163H117L26 0H-20L398 735ZM136 197H484L415 698ZM574 861Q574 842 566 824Q558 806 542.5 792Q527 778 503 769.5Q479 761 447 761Q415 761 392 769.5Q369 778 354 791.5Q339 805 331.5 822.5Q324 840 324 859Q324 878 332 896Q340 914 355.5 928.5Q371 943 395 951.5Q419 960 451 960Q483 960 506 951.5Q529 943 544 929Q559 915 566.5 897.5Q574 880 574 861ZM449 790Q487 790 511.5 808Q536 826 536 860Q536 893 511.5 912Q487 931 449 931Q412 931 387 912Q362 893 362 860Q362 826 387 808Q412 790 449 790Z" glyph-name="Aring" horiz-adv-x="627" unicode="&#197;" /><glyph d="M600 -5Q502 -5 523 94L546 203H128L85 0H45L133 414Q153 508 182 572Q211 636 250 675.5Q289 715 338 732.5Q387 750 446 750Q487 750 524 739.5Q561 729 588.5 705.5Q616 682 632 644Q648 606 648 551Q648 492 632 416L563 94Q555 56 566 42.5Q577 29 609 29Q615 29 622 30Q629 31 636 32Q644 33 652 34V0Q643 -1 634 -3Q625 -4 616.5 -4.5Q608 -5 600 -5ZM136 237H553L591 414Q599 454 604 488.5Q609 523 609 553Q609 633 565 674.5Q521 716 441 716Q384 716 341.5 696.5Q299 677 267 639Q235 601 212.5 545Q190 489 174 416ZM595 861Q595 842 587 824Q579 806 563.5 792Q548 778 524 769.5Q500 761 468 761Q436 761 413 769.5Q390 778 375 791.5Q360 805 352.5 822.5Q345 840 345 859Q345 878 353 896Q361 914 376.5 928.5Q392 943 416 951.5Q440 960 472 960Q504 960 527 951.5Q550 943 565 929Q580 915 587.5 897.5Q595 880 595 861ZM470 790Q508 790 532.5 808Q557 826 557 860Q557 893 532.5 912Q508 931 470 931Q433 931 408 912Q383 893 383 860Q383 826 408 808Q433 790 470 790Z" glyph-name="Aring.round" horiz-adv-x="712" unicode="&#59792;" /><glyph d="M620 -10Q564 -10 538.5 18.5Q513 47 525 105L546 203H128L85 0H45L133 414Q153 508 182 572Q211 636 250 675.5Q289 715 338 732.5Q387 750 446 750Q487 750 524 739.5Q561 729 588.5 705.5Q616 682 632 644Q648 606 648 551Q648 492 632 416L565 105Q556 62 572.5 43Q589 24 629 24Q642 24 655 25.5Q668 27 679 29Q691 31 702 34V0Q690 -3 676 -5Q664 -7 649.5 -8.5Q635 -10 620 -10ZM136 237H553L591 414Q599 454 604 488.5Q609 523 609 553Q609 633 565 674.5Q521 716 441 716Q384 716 341.5 696.5Q299 677 267 639Q235 601 212.5 545Q190 489 174 416ZM604 861Q604 842 596 824Q588 806 572.5 792Q557 778 533 769.5Q509 761 477 761Q445 761 422 769.5Q399 778 384 791.5Q369 805 361.5 822.5Q354 840 354 859Q354 878 362 896Q370 914 385.5 928.5Q401 943 425 951.5Q449 960 481 960Q513 960 536 951.5Q559 943 574 929Q589 915 596.5 897.5Q604 880 604 861ZM479 790Q517 790 541.5 808Q566 826 566 860Q566 893 541.5 912Q517 931 479 931Q442 931 417 912Q392 893 392 860Q392 826 417 808Q442 790 479 790Z" glyph-name="Aring.round.end" horiz-adv-x="712" unicode="&#59793;" /><glyph d="M-20 0 405 750H443L552 0H512L489 163H116L26 0ZM135 197H485L416 703ZM286 830Q293 850 306 866Q318 881 336.5 891.5Q355 902 383 902Q407 902 423.5 894Q440 886 454 877Q468 868 481.5 860Q495 852 514 852Q531 852 542.5 859.5Q554 867 561 876Q570 887 575 900L613 890Q606 870 593 854Q581 839 562.5 828.5Q544 818 516 818Q491 818 473.5 826Q456 834 442 843Q428 852 415 860Q402 868 385 868Q368 868 356.5 860.5Q345 853 338 844Q329 833 324 820Z" glyph-name="Atilde" horiz-adv-x="627" unicode="&#195;" /><glyph d="M600 -5Q502 -5 523 94L546 203H128L85 0H45L135 424Q155 518 184 582Q213 646 252 685.5Q291 725 340 742.5Q389 760 448 760Q489 760 526 749.5Q563 739 590.5 715.5Q618 692 634 654Q650 616 650 561Q650 502 634 426L563 94Q555 56 566 42.5Q577 29 609 29Q615 29 622 30Q629 31 636 32Q644 33 652 34V0Q643 -1 634 -3Q625 -4 616.5 -4.5Q608 -5 600 -5ZM135 237H553L593 424Q601 464 606 498.5Q611 533 611 563Q611 643 567 684.5Q523 726 443 726Q386 726 343.5 706.5Q301 687 269 649Q237 611 214.5 555Q192 499 176 426ZM298 830Q305 850 318 866Q330 881 348.5 891.5Q367 902 395 902Q419 902 435.5 894Q452 886 466 877Q480 868 493.5 860Q507 852 526 852Q543 852 554.5 859.5Q566 867 573 876Q582 887 587 900L625 890Q618 870 605 854Q593 839 574.5 828.5Q556 818 528 818Q503 818 485.5 826Q468 834 454 843Q440 852 427 860Q414 868 397 868Q380 868 368.5 860.5Q357 853 350 844Q341 833 336 820Z" glyph-name="Atilde.round" horiz-adv-x="712" unicode="&#59800;" /><glyph d="M620 -10Q564 -10 538.5 18.5Q513 47 525 105L546 203H128L85 0H45L135 424Q155 518 184 582Q213 646 252 685.5Q291 725 340 742.5Q389 760 448 760Q489 760 526 749.5Q563 739 590.5 715.5Q618 692 634 654Q650 616 650 561Q650 502 634 426L565 105Q556 62 572.5 43Q589 24 629 24Q642 24 655 25.5Q668 27 679 29Q691 31 702 34V0Q690 -3 676 -5Q664 -7 649.5 -8.5Q635 -10 620 -10ZM135 237H553L593 424Q601 464 606 498.5Q611 533 611 563Q611 643 567 684.5Q523 726 443 726Q386 726 343.5 706.5Q301 687 269 649Q237 611 214.5 555Q192 499 176 426ZM314 830Q321 850 334 866Q346 881 364.5 891.5Q383 902 411 902Q435 902 451.5 894Q468 886 482 877Q496 868 509.5 860Q523 852 542 852Q559 852 570.5 859.5Q582 867 589 876Q598 887 603 900L641 890Q634 870 621 854Q609 839 590.5 828.5Q572 818 544 818Q519 818 501.5 826Q484 834 470 843Q456 852 443 860Q430 868 413 868Q396 868 384.5 860.5Q373 853 366 844Q357 833 352 820Z" glyph-name="Atilde.round.end" horiz-adv-x="712" unicode="&#59801;" /><glyph d="M563 237Q563 177 540 132.5Q517 88 476.5 58.5Q436 29 380.5 14.5Q325 0 260 0H55L214 750H409Q516 750 577.5 712Q639 674 639 595Q639 538 619 499Q599 460 570.5 435Q542 410 511.5 396Q481 382 460 375Q475 370 493 360Q511 350 526.5 333.5Q542 317 552.5 293.5Q563 270 563 237ZM338 392Q388 392 435 403.5Q482 415 518 439.5Q554 464 576 502.5Q598 541 598 595Q598 660 546.5 688Q495 716 407 716H247L178 392ZM262 34Q312 34 359 45.5Q406 57 442 81.5Q478 106 500 144.5Q522 183 522 237Q522 302 470.5 330Q419 358 331 358H171L102 34Z" glyph-name="B" horiz-adv-x="644" unicode="B" /><glyph d="M332 -10Q266 -10 214.5 10Q163 30 127.5 66.5Q92 103 73.5 155.5Q55 208 55 272Q55 365 85 452.5Q115 540 172 608.5Q229 677 310.5 718.5Q392 760 495 760Q522 760 549 756.5Q576 753 599.5 748Q623 743 641 738.5Q659 734 668 731V693Q642 702 613 710Q586 716 555 721Q524 726 490 726Q408 726 335.5 691.5Q263 657 210 596Q157 535 126 452Q95 369 95 272Q95 216 110.5 170.5Q126 125 156.5 92.5Q187 60 233.5 42Q280 24 342 24Q371 24 399.5 28Q428 32 453.5 37.5Q479 43 498.5 48.5Q518 54 527 57V19Q496 11 463 5Q433 -1 399.5 -5.5Q366 -10 332 -10Z" glyph-name="C" horiz-adv-x="633" unicode="C" /><glyph d="M332 -10Q266 -10 214.5 10Q163 30 127.5 66.5Q92 103 73.5 155.5Q55 208 55 272Q55 365 85 452.5Q115 540 172 608.5Q229 677 310.5 718.5Q392 760 495 760Q522 760 549 756.5Q576 753 599.5 748Q623 743 641 738.5Q659 734 668 731V693Q642 702 613 710Q586 716 555 721Q524 726 490 726Q408 726 335.5 691.5Q263 657 210 596Q157 535 126 452Q95 369 95 272Q95 216 110.5 170.5Q126 125 156.5 92.5Q187 60 233.5 42Q280 24 342 24Q371 24 399.5 28Q428 32 453.5 37.5Q479 43 498.5 48.5Q518 54 527 57V19Q496 11 463 5Q433 -1 399.5 -5.5Q366 -10 332 -10ZM521 790H481L591 930H641Z" glyph-name="Cacute" horiz-adv-x="633" unicode="&#262;" /><glyph d="M332 -10Q266 -10 214.5 10Q163 30 127.5 66.5Q92 103 73.5 155.5Q55 208 55 272Q55 365 85 452.5Q115 540 172 608.5Q229 677 310.5 718.5Q392 760 495 760Q522 760 549 756.5Q576 753 599.5 748Q623 743 641 738.5Q659 734 668 731V693Q642 702 613 710Q586 716 555 721Q524 726 490 726Q408 726 335.5 691.5Q263 657 210 596Q157 535 126 452Q95 369 95 272Q95 216 110.5 170.5Q126 125 156.5 92.5Q187 60 233.5 42Q280 24 342 24Q371 24 399.5 28Q428 32 453.5 37.5Q479 43 498.5 48.5Q518 54 527 57V19Q496 11 463 5Q433 -1 399.5 -5.5Q366 -10 332 -10ZM499 816 611 930H658L514 790H478L392 930H431Z" glyph-name="Ccaron" horiz-adv-x="633" unicode="&#268;" /><glyph d="M332 -10Q266 -10 214.5 10Q163 30 127.5 66.5Q92 103 73.5 155.5Q55 208 55 272Q55 365 85 452.5Q115 540 172 608.5Q229 677 310.5 718.5Q392 760 495 760Q522 760 549 756.5Q576 753 599.5 748Q623 743 641 738.5Q659 734 668 731V693Q642 702 613 710Q586 716 555 721Q524 726 490 726Q408 726 335.5 691.5Q263 657 210 596Q157 535 126 452Q95 369 95 272Q95 216 110.5 170.5Q126 125 156.5 92.5Q187 60 233.5 42Q280 24 342 24Q371 24 399.5 28Q428 32 453.5 37.5Q479 43 498.5 48.5Q518 54 527 57V19Q496 11 463 5Q433 -1 399.5 -5.5Q366 -10 332 -10ZM263 -15Q280 -10 297 -10Q328 -10 345 -25.5Q362 -41 362 -66Q362 -88 354.5 -103Q347 -118 335 -127Q323 -136 307 -140Q291 -144 274 -144Q267 -144 258.5 -143Q250 -142 245 -140V-114Q250 -116 259.5 -117Q269 -118 274 -118Q295 -118 313 -108.5Q331 -99 331 -71Q331 -55 322 -45.5Q313 -36 295 -36Q278 -36 263 -41Z" glyph-name="Ccedilla" horiz-adv-x="633" unicode="&#199;" /><glyph d="M332 -10Q266 -10 214.5 10Q163 30 127.5 66.5Q92 103 73.5 155.5Q55 208 55 272Q55 365 85 452.5Q115 540 172 608.5Q229 677 310.5 718.5Q392 760 495 760Q522 760 549 756.5Q576 753 599.5 748Q623 743 641 738.5Q659 734 668 731V693Q642 702 613 710Q586 716 555 721Q524 726 490 726Q408 726 335.5 691.5Q263 657 210 596Q157 535 126 452Q95 369 95 272Q95 216 110.5 170.5Q126 125 156.5 92.5Q187 60 233.5 42Q280 24 342 24Q371 24 399.5 28Q428 32 453.5 37.5Q479 43 498.5 48.5Q518 54 527 57V19Q496 11 463 5Q433 -1 399.5 -5.5Q366 -10 332 -10ZM521 904 409 790H362L506 930H544L630 790H589Z" glyph-name="Ccircumflex" horiz-adv-x="633" unicode="&#264;" /><glyph d="M214 750H477Q602 750 663.5 685Q725 620 725 501Q725 413 700.5 324Q676 235 626.5 163Q577 91 501 45.5Q425 0 323 0H55ZM686 497Q686 546 674 586.5Q662 627 636 655.5Q610 684 569 700Q528 716 471 716H246L100 34H326Q414 34 481.5 75.5Q549 117 594.5 183Q640 249 663 331.5Q686 414 686 497Z" glyph-name="D" horiz-adv-x="750" unicode="D" /><glyph d="M214 750H477Q602 750 663.5 685Q725 620 725 501Q725 413 700.5 324Q676 235 626.5 163Q577 91 501 45.5Q425 0 323 0H55ZM686 497Q686 546 674 586.5Q662 627 636 655.5Q610 684 569 700Q528 716 471 716H246L100 34H326Q414 34 481.5 75.5Q549 117 594.5 183Q640 249 663 331.5Q686 414 686 497ZM481 816 593 930H640L496 790H460L374 930H413Z" glyph-name="Dcaron" horiz-adv-x="750" unicode="&#270;" /><glyph d="M131 358H21V392H138L214 750H477Q602 750 663.5 685Q725 620 725 501Q725 413 700.5 324Q676 235 626.5 163Q577 91 501 45.5Q425 0 323 0H55ZM686 497Q686 546 674 586.5Q662 627 636 655.5Q610 684 569 700Q528 716 471 716H246L176 392H391V358H169L100 34H326Q414 34 481.5 75.5Q549 117 594.5 183Q640 249 663 331.5Q686 414 686 497Z" glyph-name="Dcroat" horiz-adv-x="750" unicode="&#272;" /><glyph d="M66 34H590L465 679ZM636 0H0L464 750H490Z" glyph-name="Delta" horiz-adv-x="736" unicode="&#8710;" /><glyph d="M214 750H644V716H247L178 392H548V358H171L102 34H492V0H55Z" glyph-name="E" horiz-adv-x="626" unicode="E" /><glyph d="M328 358Q283 358 239 344Q195 330 159.5 303.5Q124 277 102 240Q80 203 80 157Q80 93 129.5 58.5Q179 24 260 24Q326 24 374.5 35Q423 46 461 57V19Q420 8 371 -1Q322 -10 253 -10Q155 -10 97.5 35Q40 80 40 157Q40 205 58.5 242Q77 279 106.5 305.5Q136 332 172.5 349Q209 366 245 375Q194 389 159.5 429.5Q125 470 125 530Q125 584 148 626.5Q171 669 210.5 699Q250 729 303 744.5Q356 760 416 760Q483 760 526.5 751Q570 742 605 731V693Q570 705 522.5 715.5Q475 726 409 726Q359 726 314.5 712.5Q270 699 237 673.5Q204 648 185 611.5Q166 575 166 530Q166 498 179 472.5Q192 447 214.5 429Q237 411 268 401.5Q299 392 335 392H473V358Z" glyph-name="E.round" horiz-adv-x="556" unicode="&#61448;" /><glyph d="M214 750H644V716H247L178 392H548V358H171L102 34H492V0H55ZM469 790H429L539 930H589Z" glyph-name="Eacute" horiz-adv-x="626" unicode="&#201;" /><glyph d="M328 358Q283 358 239 344Q195 330 159.5 303.5Q124 277 102 240Q80 203 80 157Q80 93 129.5 58.5Q179 24 260 24Q326 24 374.5 35Q423 46 461 57V19Q420 8 371 -1Q322 -10 253 -10Q155 -10 97.5 35Q40 80 40 157Q40 205 58.5 242Q77 279 106.5 305.5Q136 332 172.5 349Q209 366 245 375Q194 389 159.5 429.5Q125 470 125 530Q125 584 148 626.5Q171 669 210.5 699Q250 729 303 744.5Q356 760 416 760Q483 760 526.5 751Q570 742 605 731V693Q570 705 522.5 715.5Q475 726 409 726Q359 726 314.5 712.5Q270 699 237 673.5Q204 648 185 611.5Q166 575 166 530Q166 498 179 472.5Q192 447 214.5 429Q237 411 268 401.5Q299 392 335 392H473V358ZM438 790H398L508 930H558Z" glyph-name="Eacute.round" horiz-adv-x="556" unicode="&#61457;" /><glyph d="M214 750H644V716H247L178 392H548V358H171L102 34H492V0H55ZM447 816 559 930H606L462 790H426L340 930H379Z" glyph-name="Ecaron" horiz-adv-x="626" unicode="&#282;" /><glyph d="M328 358Q283 358 239 344Q195 330 159.5 303.5Q124 277 102 240Q80 203 80 157Q80 93 129.5 58.5Q179 24 260 24Q326 24 374.5 35Q423 46 461 57V19Q420 8 371 -1Q322 -10 253 -10Q155 -10 97.5 35Q40 80 40 157Q40 205 58.5 242Q77 279 106.5 305.5Q136 332 172.5 349Q209 366 245 375Q194 389 159.5 429.5Q125 470 125 530Q125 584 148 626.5Q171 669 210.5 699Q250 729 303 744.5Q356 760 416 760Q483 760 526.5 751Q570 742 605 731V693Q570 705 522.5 715.5Q475 726 409 726Q359 726 314.5 712.5Q270 699 237 673.5Q204 648 185 611.5Q166 575 166 530Q166 498 179 472.5Q192 447 214.5 429Q237 411 268 401.5Q299 392 335 392H473V358ZM432 816 544 930H591L447 790H411L325 930H364Z" glyph-name="Ecaron.round" horiz-adv-x="556" unicode="&#61460;" /><glyph d="M214 750H644V716H247L178 392H548V358H171L102 34H492V0H55ZM463 904 351 790H304L448 930H486L572 790H531Z" glyph-name="Ecircumflex" horiz-adv-x="626" unicode="&#202;" /><glyph d="M328 358Q283 358 239 344Q195 330 159.5 303.5Q124 277 102 240Q80 203 80 157Q80 93 129.5 58.5Q179 24 260 24Q326 24 374.5 35Q423 46 461 57V19Q420 8 371 -1Q322 -10 253 -10Q155 -10 97.5 35Q40 80 40 157Q40 205 58.5 242Q77 279 106.5 305.5Q136 332 172.5 349Q209 366 245 375Q194 389 159.5 429.5Q125 470 125 530Q125 584 148 626.5Q171 669 210.5 699Q250 729 303 744.5Q356 760 416 760Q483 760 526.5 751Q570 742 605 731V693Q570 705 522.5 715.5Q475 726 409 726Q359 726 314.5 712.5Q270 699 237 673.5Q204 648 185 611.5Q166 575 166 530Q166 498 179 472.5Q192 447 214.5 429Q237 411 268 401.5Q299 392 335 392H473V358ZM444 904 332 790H285L429 930H467L553 790H512Z" glyph-name="Ecircumflex.round" horiz-adv-x="556" unicode="&#61463;" /><glyph d="M214 750H644V716H247L178 392H548V358H171L102 34H492V0H55ZM392 860Q392 831 361 831Q347 831 339 838Q331 845 331 859Q331 872 339.5 880Q348 888 362 888Q376 888 384 881Q392 874 392 860ZM572 860Q572 831 541 831Q527 831 519 838Q511 845 511 859Q511 872 519.5 880Q528 888 542 888Q556 888 564 881Q572 874 572 860Z" glyph-name="Edieresis" horiz-adv-x="626" unicode="&#203;" /><glyph d="M328 358Q283 358 239 344Q195 330 159.5 303.5Q124 277 102 240Q80 203 80 157Q80 93 129.5 58.5Q179 24 260 24Q326 24 374.5 35Q423 46 461 57V19Q420 8 371 -1Q322 -10 253 -10Q155 -10 97.5 35Q40 80 40 157Q40 205 58.5 242Q77 279 106.5 305.5Q136 332 172.5 349Q209 366 245 375Q194 389 159.5 429.5Q125 470 125 530Q125 584 148 626.5Q171 669 210.5 699Q250 729 303 744.5Q356 760 416 760Q483 760 526.5 751Q570 742 605 731V693Q570 705 522.5 715.5Q475 726 409 726Q359 726 314.5 712.5Q270 699 237 673.5Q204 648 185 611.5Q166 575 166 530Q166 498 179 472.5Q192 447 214.5 429Q237 411 268 401.5Q299 392 335 392H473V358ZM370 860Q370 831 339 831Q325 831 317 838Q309 845 309 859Q309 872 317.5 880Q326 888 340 888Q354 888 362 881Q370 874 370 860ZM550 860Q550 831 519 831Q505 831 497 838Q489 845 489 859Q489 872 497.5 880Q506 888 520 888Q534 888 542 881Q550 874 550 860Z" glyph-name="Edieresis.round" horiz-adv-x="556" unicode="&#61473;" /><glyph d="M214 750H644V716H247L178 392H548V358H171L102 34H492V0H55ZM483 864Q483 831 447 831Q435 831 427.5 837Q420 843 420 854Q420 888 457 888Q469 888 476 881.5Q483 875 483 864Z" glyph-name="Edotaccent" horiz-adv-x="626" unicode="&#278;" /><glyph d="M328 358Q283 358 239 344Q195 330 159.5 303.5Q124 277 102 240Q80 203 80 157Q80 93 129.5 58.5Q179 24 260 24Q326 24 374.5 35Q423 46 461 57V19Q420 8 371 -1Q322 -10 253 -10Q155 -10 97.5 35Q40 80 40 157Q40 205 58.5 242Q77 279 106.5 305.5Q136 332 172.5 349Q209 366 245 375Q194 389 159.5 429.5Q125 470 125 530Q125 584 148 626.5Q171 669 210.5 699Q250 729 303 744.5Q356 760 416 760Q483 760 526.5 751Q570 742 605 731V693Q570 705 522.5 715.5Q475 726 409 726Q359 726 314.5 712.5Q270 699 237 673.5Q204 648 185 611.5Q166 575 166 530Q166 498 179 472.5Q192 447 214.5 429Q237 411 268 401.5Q299 392 335 392H473V358ZM469 864Q469 831 433 831Q421 831 413.5 837Q406 843 406 854Q406 888 443 888Q455 888 462 881.5Q469 875 469 864Z" glyph-name="Edotaccent.round" horiz-adv-x="556" unicode="&#61475;" /><glyph d="M214 750H644V716H247L178 392H548V358H171L102 34H492V0H55ZM320 930H370L480 790H440Z" glyph-name="Egrave" horiz-adv-x="626" unicode="&#200;" /><glyph d="M328 358Q283 358 239 344Q195 330 159.5 303.5Q124 277 102 240Q80 203 80 157Q80 93 129.5 58.5Q179 24 260 24Q326 24 374.5 35Q423 46 461 57V19Q420 8 371 -1Q322 -10 253 -10Q155 -10 97.5 35Q40 80 40 157Q40 205 58.5 242Q77 279 106.5 305.5Q136 332 172.5 349Q209 366 245 375Q194 389 159.5 429.5Q125 470 125 530Q125 584 148 626.5Q171 669 210.5 699Q250 729 303 744.5Q356 760 416 760Q483 760 526.5 751Q570 742 605 731V693Q570 705 522.5 715.5Q475 726 409 726Q359 726 314.5 712.5Q270 699 237 673.5Q204 648 185 611.5Q166 575 166 530Q166 498 179 472.5Q192 447 214.5 429Q237 411 268 401.5Q299 392 335 392H473V358ZM293 930H343L453 790H413Z" glyph-name="Egrave.round" horiz-adv-x="556" unicode="&#61478;" /><glyph d="M214 750H644V716H247L178 392H548V358H171L102 34H492V0H55ZM293 836V870H610V836Z" glyph-name="Emacron" horiz-adv-x="626" unicode="&#274;" /><glyph d="M328 358Q283 358 239 344Q195 330 159.5 303.5Q124 277 102 240Q80 203 80 157Q80 93 129.5 58.5Q179 24 260 24Q326 24 374.5 35Q423 46 461 57V19Q420 8 371 -1Q322 -10 253 -10Q155 -10 97.5 35Q40 80 40 157Q40 205 58.5 242Q77 279 106.5 305.5Q136 332 172.5 349Q209 366 245 375Q194 389 159.5 429.5Q125 470 125 530Q125 584 148 626.5Q171 669 210.5 699Q250 729 303 744.5Q356 760 416 760Q483 760 526.5 751Q570 742 605 731V693Q570 705 522.5 715.5Q475 726 409 726Q359 726 314.5 712.5Q270 699 237 673.5Q204 648 185 611.5Q166 575 166 530Q166 498 179 472.5Q192 447 214.5 429Q237 411 268 401.5Q299 392 335 392H473V358ZM271 836V870H588V836Z" glyph-name="Emacron.round" horiz-adv-x="556" unicode="&#61481;" /><glyph d="M214 750H644V716H247L178 392H548V358H171L102 34H492V0Q455 -38 441.5 -60Q428 -82 428 -98Q428 -112 436.5 -118Q445 -124 458 -124Q465 -124 472 -122Q479 -120 485 -118Q492 -115 498 -111V-142Q492 -145 485 -148Q478 -150 470 -152Q462 -154 453 -154Q427 -154 407.5 -142.5Q388 -131 388 -103Q388 -77 407 -52.5Q426 -28 457 0H55Z" glyph-name="Eogonek" horiz-adv-x="626" unicode="&#280;" /><glyph d="M328 358Q283 358 239 344Q195 330 159.5 303.5Q124 277 102 240Q80 203 80 157Q80 93 129.5 58.5Q179 24 260 24Q326 24 374.5 35Q423 46 461 57V19Q436 -7 419.5 -25.5Q403 -44 394 -57.5Q385 -71 381.5 -80.5Q378 -90 378 -98Q378 -112 386.5 -118Q395 -124 408 -124Q415 -124 422 -122Q429 -120 435 -118Q442 -115 448 -111V-142Q442 -145 435 -148Q428 -150 420 -152Q412 -154 403 -154Q377 -154 357.5 -142.5Q338 -131 338 -103Q338 -77 358 -51.5Q378 -26 415 7Q382 -1 342.5 -5.5Q303 -10 253 -10Q155 -10 97.5 35Q40 80 40 157Q40 205 58.5 242Q77 279 106.5 305.5Q136 332 172.5 349Q209 366 245 375Q194 389 159.5 429.5Q125 470 125 530Q125 584 148 626.5Q171 669 210.5 699Q250 729 303 744.5Q356 760 416 760Q483 760 526.5 751Q570 742 605 731V693Q570 705 522.5 715.5Q475 726 409 726Q359 726 314.5 712.5Q270 699 237 673.5Q204 648 185 611.5Q166 575 166 530Q166 498 179 472.5Q192 447 214.5 429Q237 411 268 401.5Q299 392 335 392H473V358Z" glyph-name="Eogonek.round" horiz-adv-x="556" unicode="&#61490;" /><glyph d="M131 358H36V392H138L214 750H477Q602 750 663.5 685Q725 620 725 501Q725 413 700.5 324Q676 235 626.5 163Q577 91 501 45.5Q425 0 323 0H55ZM686 497Q686 546 674 586.5Q662 627 636 655.5Q610 684 569 700Q528 716 471 716H246L176 392H406V358H169L100 34H326Q414 34 481.5 75.5Q549 117 594.5 183Q640 249 663 331.5Q686 414 686 497Z" glyph-name="Eth" horiz-adv-x="750" unicode="&#208;" /><glyph d="M355 -10Q289 -10 237.5 10Q186 30 150.5 66.5Q115 103 96.5 155.5Q78 208 78 272Q78 281 78 290Q78 299 79 308H10V342H82Q84 359 87 375Q90 391 95 408H31V442H104Q125 508 163 566Q201 624 253.5 667Q306 710 372.5 735Q439 760 518 760Q545 760 572 756.5Q599 753 622.5 748Q646 743 664 738.5Q682 734 691 731V693Q665 702 636 710Q609 716 578 721Q547 726 513 726Q450 726 392.5 705.5Q335 685 287.5 647.5Q240 610 203.5 557.5Q167 505 145 442H505V408H135Q130 392 127 375.5Q124 359 122 342H484V308H119Q118 299 118 290Q118 281 118 272Q118 216 133.5 170.5Q149 125 179.5 92.5Q210 60 256.5 42Q303 24 365 24Q394 24 422.5 28Q451 32 476.5 37.5Q502 43 521.5 48.5Q541 54 550 57V19Q519 11 486 5Q456 -1 422.5 -5.5Q389 -10 355 -10Z" glyph-name="Euro" horiz-adv-x="611" unicode="&#8364;" /><glyph d="M214 750H614V716H247L178 392H518V358H171L95 0H55Z" glyph-name="F" horiz-adv-x="574" unicode="F" /><glyph d="M185 636Q199 702 231 726Q263 750 319 750H639V716H315Q277 716 256 698.5Q235 681 225 636L173 392H543V358H166L90 0H50Z" glyph-name="F.round" horiz-adv-x="589" unicode="&#61493;" /><glyph d="M398 358H677L607 30Q564 19 521 10Q481 2 439.5 -4Q398 -10 360 -10Q290 -10 233.5 9Q177 28 137.5 64.5Q98 101 76.5 154.5Q55 208 55 276Q55 389 94.5 478.5Q134 568 200 630.5Q266 693 352.5 726.5Q439 760 533 760Q567 760 599.5 755.5Q632 751 658 746Q689 739 716 731V693Q687 702 656 710Q627 716 594.5 721Q562 726 528 726Q438 726 359 693Q280 660 221 600.5Q162 541 128 459Q94 377 94 279Q94 160 165 92Q236 24 370 24Q404 24 439.5 29Q475 34 505 40Q539 46 572 55L629 324H398Z" glyph-name="G" horiz-adv-x="751" unicode="G" /><glyph d="M413 358H677L607 30Q564 19 521 10Q481 2 439.5 -4Q398 -10 360 -10Q290 -10 233.5 9Q177 28 137.5 64.5Q98 101 76.5 154.5Q55 208 55 276Q55 389 94.5 478.5Q134 568 200 630.5Q266 693 352.5 726.5Q439 760 533 760Q567 760 599.5 755.5Q632 751 658 746Q689 739 716 731V693Q687 702 656 710Q627 716 594.5 721Q562 726 528 726Q438 726 359 693Q280 660 221 600.5Q162 541 128 459Q94 377 94 279Q94 160 165 92Q236 24 370 24Q404 24 439.5 29Q475 34 505 40Q539 46 572 55L629 324H405ZM666 886Q666 867 658 849.5Q650 832 634.5 818Q619 804 595 795.5Q571 787 539 787Q507 787 484 795.5Q461 804 446 818Q431 832 423.5 849.5Q416 867 416 886H454Q456 852 480 834Q504 816 541 816Q579 816 602.5 834Q626 852 628 886Z" glyph-name="Gbreve" horiz-adv-x="751" unicode="&#286;" /><glyph d="M413 358H677L607 30Q564 19 521 10Q481 2 439.5 -4Q398 -10 360 -10Q290 -10 233.5 9Q177 28 137.5 64.5Q98 101 76.5 154.5Q55 208 55 276Q55 389 94.5 478.5Q134 568 200 630.5Q266 693 352.5 726.5Q439 760 533 760Q567 760 599.5 755.5Q632 751 658 746Q689 739 716 731V693Q687 702 656 710Q627 716 594.5 721Q562 726 528 726Q438 726 359 693Q280 660 221 600.5Q162 541 128 459Q94 377 94 279Q94 160 165 92Q236 24 370 24Q404 24 439.5 29Q475 34 505 40Q539 46 572 55L629 324H405ZM560 904 448 790H401L545 930H583L669 790H628Z" glyph-name="Gcircumflex" horiz-adv-x="751" unicode="&#284;" /><glyph d="M413 358H677L607 30Q564 19 521 10Q481 2 439.5 -4Q398 -10 360 -10Q290 -10 233.5 9Q177 28 137.5 64.5Q98 101 76.5 154.5Q55 208 55 276Q55 389 94.5 478.5Q134 568 200 630.5Q266 693 352.5 726.5Q439 760 533 760Q567 760 599.5 755.5Q632 751 658 746Q689 739 716 731V693Q687 702 656 710Q627 716 594.5 721Q562 726 528 726Q438 726 359 693Q280 660 221 600.5Q162 541 128 459Q94 377 94 279Q94 160 165 92Q236 24 370 24Q404 24 439.5 29Q475 34 505 40Q539 46 572 55L629 324H405ZM305 -130Q344 -114 349 -78Q347 -80 344 -81.5Q341 -83 334 -83Q327 -83 321 -76.5Q315 -70 315 -59Q315 -43 324.5 -33.5Q334 -24 352 -24Q363 -24 372.5 -31.5Q382 -39 382 -59Q382 -78 375 -94.5Q368 -111 357 -123.5Q346 -136 332.5 -144.5Q319 -153 305 -156Z" glyph-name="Gcommaaccent" horiz-adv-x="751" unicode="&#290;" /><glyph d="M621 358H171L95 0H55L214 750H254L178 392H628L704 750H744L585 0H545Z" glyph-name="H" horiz-adv-x="764" unicode="H" /><glyph d="M620 358H171L95 0H55L214 750H254L178 392H627L704 750H744L607 105Q598 62 614.5 43Q631 24 671 24Q684 24 697 25.5Q710 27 721 29Q733 31 744 34V0Q732 -3 718 -5Q706 -7 691.5 -8.5Q677 -10 662 -10Q606 -10 580.5 18.5Q555 47 567 105Z" glyph-name="H.end" horiz-adv-x="754" unicode="&#61504;" /><glyph d="M583 358H133L57 0H17L176 750H216L140 392H590L666 750H706L547 0H507ZM479 904 367 790H320L464 930H502L588 790H547Z" glyph-name="Hcircumflex" horiz-adv-x="764" unicode="&#292;" /><glyph d="M620 358H171L95 0H55L214 750H254L178 392H627L704 750H744L607 105Q598 62 614.5 43Q631 24 671 24Q684 24 697 25.5Q710 27 721 29Q733 31 744 34V0Q732 -3 718 -5Q706 -7 691.5 -8.5Q677 -10 662 -10Q606 -10 580.5 18.5Q555 47 567 105ZM509 904 397 790H350L494 930H532L618 790H577Z" glyph-name="Hcircumflex.end" horiz-adv-x="754" unicode="&#61507;" /><glyph d="M229 750H269L110 0H70Z" glyph-name="I" horiz-adv-x="304" unicode="I" /><glyph d="M229 750H269L110 0H70ZM278 790H238L348 930H398Z" glyph-name="Iacute" horiz-adv-x="304" unicode="&#205;" /><glyph d="M229 750H269L110 0H70ZM282 904 170 790H123L267 930H305L391 790H350Z" glyph-name="Icircumflex" horiz-adv-x="304" unicode="&#206;" /><glyph d="M229 750H269L110 0H70ZM213 860Q213 831 182 831Q168 831 160 838Q152 845 152 859Q152 872 160.5 880Q169 888 183 888Q197 888 205 881Q213 874 213 860ZM393 860Q393 831 362 831Q348 831 340 838Q332 845 332 859Q332 872 340.5 880Q349 888 363 888Q377 888 385 881Q393 874 393 860Z" glyph-name="Idieresis" horiz-adv-x="304" unicode="&#207;" /><glyph d="M229 750H269L110 0H70ZM305 864Q305 831 269 831Q257 831 249.5 837Q242 843 242 854Q242 888 279 888Q291 888 298 881.5Q305 875 305 864Z" glyph-name="Idotaccent" horiz-adv-x="304" unicode="&#304;" /><glyph d="M229 750H269L110 0H70ZM115 930H165L275 790H235Z" glyph-name="Igrave" horiz-adv-x="304" unicode="&#204;" /><glyph d="M229 750H269L110 0Q73 -38 59.5 -60Q46 -82 46 -98Q46 -112 54.5 -118Q63 -124 76 -124Q83 -124 90 -122Q97 -120 103 -118Q110 -115 116 -111V-142Q110 -145 103 -148Q96 -150 88 -152Q80 -154 71 -154Q45 -154 25.5 -142.5Q6 -131 6 -103Q6 -77 25.5 -52.5Q45 -28 80 0H70Z" glyph-name="Iogonek" horiz-adv-x="304" unicode="&#302;" /><glyph d="M170 750H528L407 180Q396 127 373 90.5Q350 54 317 31.5Q284 9 242 -0.5Q200 -10 152 -10Q122 -10 96 -5.5Q70 -1 51 5Q29 12 10 20V59Q30 49 52 42Q73 34 98 29Q123 24 151 24Q185 24 219 30Q253 36 282.5 53Q312 70 334.5 100.5Q357 131 367 180L481 716H170Z" glyph-name="J" horiz-adv-x="528" unicode="J" /><glyph d="M170 750H528L407 180Q396 127 373 90.5Q350 54 317 31.5Q284 9 242 -0.5Q200 -10 152 -10Q122 -10 96 -5.5Q70 -1 51 5Q29 12 10 20V59Q30 49 52 42Q73 34 98 29Q123 24 151 24Q185 24 219 30Q253 36 282.5 53Q312 70 334.5 100.5Q357 131 367 180L481 716H170ZM383 904 271 790H224L368 930H406L492 790H451Z" glyph-name="Jcircumflex" horiz-adv-x="528" unicode="&#308;" /><glyph d="M500 0 248 376 157 301 94 0H55L214 750H253L169 352L646 750H702L279 401L547 0Z" glyph-name="K" horiz-adv-x="622" unicode="K" /><glyph d="M171 358 95 0H55L214 750H254L178 392H335Q402 393 447.5 410.5Q493 428 522.5 456Q552 484 568 519Q584 554 591 590L625 750H665L631 590Q614 508 569 452Q524 396 446 375Q517 352 544.5 298.5Q572 245 555 160L541 94Q533 56 544 42.5Q555 29 587 29Q593 29 600 30Q607 31 614 32Q622 33 630 34V0Q621 -1 612 -3Q603 -4 594.5 -4.5Q586 -5 578 -5Q480 -5 501 94L515 160Q523 198 520 233.5Q517 269 496.5 297Q476 325 434.5 341.5Q393 358 323 358Z" glyph-name="K.round" horiz-adv-x="690" unicode="&#61522;" /><glyph d="M514 157Q522 197 519 233.5Q516 270 496 297.5Q476 325 434.5 341.5Q393 358 323 358H171L95 0H55L214 750H254L178 392H335Q402 393 447.5 410.5Q493 428 522.5 456Q552 484 568 519Q584 554 591 590L625 750H665L631 590Q614 508 568.5 452Q523 396 445 375Q590 329 554 157L543 105Q534 62 550.5 43Q567 24 607 24Q620 24 633 25.5Q646 27 657 29Q669 31 680 34V0Q668 -3 654 -5Q642 -7 627.5 -8.5Q613 -10 598 -10Q542 -10 516.5 18.5Q491 47 503 105Z" glyph-name="K.round.end" horiz-adv-x="690" unicode="&#61524;" /><glyph d="M500 0 248 376 157 301 94 0H55L214 750H253L169 352L646 750H702L279 401L547 0ZM245 -130Q284 -114 289 -78Q287 -80 284 -81.5Q281 -83 274 -83Q267 -83 261 -76.5Q255 -70 255 -59Q255 -43 264.5 -33.5Q274 -24 292 -24Q303 -24 312.5 -31.5Q322 -39 322 -59Q322 -78 315 -94.5Q308 -111 297 -123.5Q286 -136 272.5 -144.5Q259 -153 245 -156Z" glyph-name="Kcommaaccent" horiz-adv-x="622" unicode="&#310;" /><glyph d="M171 358 95 0H55L214 750H254L178 392H330Q399 392 445.5 409.5Q492 427 522 455Q552 483 568 518.5Q584 554 591 590L625 750H665L631 590Q614 508 569 452Q524 396 446 375Q517 352 544.5 298.5Q572 245 555 160L541 94Q533 56 544 42.5Q555 29 587 29Q593 29 600 30Q607 31 614 32Q622 33 630 34V0Q621 -1 612 -3Q603 -4 594.5 -4.5Q586 -5 578 -5Q480 -5 501 94L515 160Q523 198 520 233.5Q517 269 496.5 297Q476 325 434.5 341.5Q393 358 323 358ZM266 -130Q305 -114 310 -78Q308 -80 305 -81.5Q302 -83 295 -83Q288 -83 282 -76.5Q276 -70 276 -59Q276 -43 285.5 -33.5Q295 -24 313 -24Q324 -24 333.5 -31.5Q343 -39 343 -59Q343 -78 336 -94.5Q329 -111 318 -123.5Q307 -136 293.5 -144.5Q280 -153 266 -156Z" glyph-name="Kcommaaccent.round" horiz-adv-x="690" unicode="&#61528;" /><glyph d="M514 157Q522 197 519 233.5Q516 270 496 297.5Q476 325 434.5 341.5Q393 358 323 358H171L95 0H55L214 750H254L178 392H330Q399 392 445.5 409.5Q492 427 522 455Q552 483 568 518.5Q584 554 591 590L625 750H665L631 590Q614 508 568.5 452Q523 396 445 375Q590 329 554 157L543 105Q534 62 550.5 43Q567 24 607 24Q620 24 633 25.5Q646 27 657 29Q669 31 680 34V0Q668 -3 654 -5Q642 -7 627.5 -8.5Q613 -10 598 -10Q542 -10 516.5 18.5Q491 47 503 105ZM268 -130Q307 -114 312 -78Q310 -80 307 -81.5Q304 -83 297 -83Q290 -83 284 -76.5Q278 -70 278 -59Q278 -43 287.5 -33.5Q297 -24 315 -24Q326 -24 335.5 -31.5Q345 -39 345 -59Q345 -78 338 -94.5Q331 -111 320 -123.5Q309 -136 295.5 -144.5Q282 -153 268 -156Z" glyph-name="Kcommaaccent.round.end" horiz-adv-x="690" unicode="&#61536;" /><glyph d="M214 750H254L102 34H492V0H55Z" glyph-name="L" horiz-adv-x="542" unicode="L" /><glyph d="M190 750H230L95 114Q85 69 97.5 51.5Q110 34 148 34H468V0H148Q92 0 66.5 24Q41 48 55 114Z" glyph-name="L.round" horiz-adv-x="518" unicode="&#61539;" /><glyph d="M214 750H254L102 34H492V0H55ZM751 750H791L639 34H1029V0H592ZM450 379Q450 346 414 346Q402 346 394.5 352Q387 358 387 369Q387 403 424 403Q436 403 443 396.5Q450 390 450 379Z" glyph-name="L_L" horiz-adv-x="1079" unicode="&#63167;" /><glyph d="M190 750H230L95 114Q85 69 97.5 51.5Q110 34 148 34H468V0H148Q92 0 66.5 24Q41 48 55 114ZM708 750H748L613 114Q603 69 615.5 51.5Q628 34 666 34H986V0H666Q610 0 584.5 24Q559 48 573 114ZM422 379Q422 346 386 346Q374 346 366.5 352Q359 358 359 369Q359 403 396 403Q408 403 415 396.5Q422 390 422 379Z" glyph-name="L_L.round" horiz-adv-x="1036" unicode="&#61769;" /><glyph d="M214 750H254L102 34H492V0H55ZM262 790H222L332 930H382Z" glyph-name="Lacute" horiz-adv-x="542" unicode="&#313;" /><glyph d="M190 750H230L95 114Q85 69 97.5 51.5Q110 34 148 34H468V0H148Q92 0 66.5 24Q41 48 55 114ZM239 790H199L309 930H359Z" glyph-name="Lacute.round" horiz-adv-x="518" unicode="&#61541;" /><glyph d="M214 750H254L102 34H492V0H55ZM291 660Q330 676 335 712Q333 710 330 708.5Q327 707 320 707Q313 707 307 713.5Q301 720 301 731Q301 747 310.5 756.5Q320 766 338 766Q349 766 358.5 758.5Q368 751 368 731Q368 712 361 696Q354 680 343 667Q332 654 318.5 645.5Q305 637 291 634Z" glyph-name="Lcaron" horiz-adv-x="542" unicode="&#317;" /><glyph d="M190 750H230L95 114Q85 69 97.5 51.5Q110 34 148 34H468V0H148Q92 0 66.5 24Q41 48 55 114ZM267 660Q306 676 311 712Q309 710 306 708.5Q303 707 296 707Q289 707 283 713.5Q277 720 277 731Q277 747 286.5 756.5Q296 766 314 766Q325 766 334.5 758.5Q344 751 344 731Q344 712 337 696Q330 680 319 667Q308 654 294.5 645.5Q281 637 267 634Z" glyph-name="Lcaron.round" horiz-adv-x="518" unicode="&#61543;" /><glyph d="M214 750H254L102 34H492V0H55ZM242 -130Q281 -114 286 -78Q284 -80 281 -81.5Q278 -83 271 -83Q264 -83 258 -76.5Q252 -70 252 -59Q252 -43 261.5 -33.5Q271 -24 289 -24Q300 -24 309.5 -31.5Q319 -39 319 -59Q319 -78 312 -94.5Q305 -111 294 -123.5Q283 -136 269.5 -144.5Q256 -153 242 -156Z" glyph-name="Lcommaaccent" horiz-adv-x="542" unicode="&#315;" /><glyph d="M190 750H230L95 114Q85 69 97.5 51.5Q110 34 148 34H468V0H148Q92 0 66.5 24Q41 48 55 114ZM217 -130Q256 -114 261 -78Q259 -80 256 -81.5Q253 -83 246 -83Q239 -83 233 -76.5Q227 -70 227 -59Q227 -43 236.5 -33.5Q246 -24 264 -24Q275 -24 284.5 -31.5Q294 -39 294 -59Q294 -78 287 -94.5Q280 -111 269 -123.5Q258 -136 244.5 -144.5Q231 -153 217 -156Z" glyph-name="Lcommaaccent.round" horiz-adv-x="518" unicode="&#61545;" /><glyph d="M214 750H254L102 34H492V0H55ZM450 379Q450 346 414 346Q402 346 394.5 352Q387 358 387 369Q387 403 424 403Q436 403 443 396.5Q450 390 450 379Z" glyph-name="Ldot" horiz-adv-x="542" unicode="&#319;" /><glyph d="M190 750H230L95 114Q85 69 97.5 51.5Q110 34 148 34H468V0H148Q92 0 66.5 24Q41 48 55 114ZM422 379Q422 346 386 346Q374 346 366.5 352Q359 358 359 369Q359 403 396 403Q408 403 415 396.5Q422 390 422 379Z" glyph-name="Ldot.round" horiz-adv-x="518" unicode="&#61553;" /><glyph d="M129 350 31 315 19 347 138 390 214 750H254L181 405L367 473L379 441L172 366L102 34H492V0H55Z" glyph-name="Lslash" horiz-adv-x="542" unicode="&#321;" /><glyph d="M124 350 26 315 14 347 132 389 209 750H249L176 405L362 473L374 441L167 366L114 114Q104 69 116.5 51.5Q129 34 167 34H487V0H167Q111 0 85.5 24Q60 48 74 114Z" glyph-name="Lslash.round" horiz-adv-x="537" unicode="&#61555;" /><glyph d="M214 750H252L400 55L844 750H882L723 0H683L822 650L407 0H374L233 662L93 0H55Z" glyph-name="M" horiz-adv-x="902" unicode="M" /><glyph d="M214 750H252L400 55L844 750H882L745 105Q736 62 752.5 43Q769 24 809 24Q822 24 835 25.5Q848 27 859 29Q871 31 882 34V0Q870 -3 856 -5Q844 -7 829.5 -8.5Q815 -10 800 -10Q744 -10 718.5 18.5Q693 47 705 105L822 650L407 0H374L233 662L93 0H55Z" glyph-name="M.end" horiz-adv-x="892" unicode="&#61557;" /><glyph d="M573 94 553 0H513L533 94Q554 193 572 270.5Q590 348 602.5 406Q615 464 622.5 504.5Q630 545 630 570Q630 649 586.5 687.5Q543 726 461 726Q422 726 381 712.5Q340 699 304.5 673.5Q269 648 242.5 610.5Q216 573 206 525L95 0H55L214 750H249L232 648Q276 698 338 729Q400 760 473 760Q549 760 601.5 725.5Q654 691 667 616Q717 689 789 724.5Q861 760 934 760Q1021 760 1074 714Q1127 668 1127 570Q1127 544 1119.5 503.5Q1112 463 1098.5 405Q1085 347 1067.5 270Q1050 193 1029 94Q1021 56 1032 42.5Q1043 29 1075 29Q1081 29 1088 30Q1095 31 1102 32Q1110 33 1118 34V0Q1109 -1 1100 -3Q1091 -4 1082.5 -4.5Q1074 -5 1066 -5Q1018 -5 998 18.5Q978 42 989 94Q1010 193 1028 270.5Q1046 348 1058.5 406Q1071 464 1078.5 504.5Q1086 545 1086 570Q1086 726 922 726Q883 726 842 712.5Q801 699 766 673.5Q731 648 704.5 610.5Q678 573 667 525Z" glyph-name="M.round" horiz-adv-x="1202" unicode="&#61559;" /><glyph d="M992 105Q1014 209 1031.5 286Q1049 363 1061 418.5Q1073 474 1079.5 510.5Q1086 547 1086 570Q1086 726 922 726Q883 726 842 712.5Q801 699 766 673.5Q731 648 704.5 610.5Q678 573 667 525L553 0H513L533 94Q554 193 572 270.5Q590 348 602.5 406Q615 464 622.5 504.5Q630 545 630 570Q630 649 586.5 687.5Q543 726 461 726Q422 726 381 712.5Q340 699 304.5 673.5Q269 648 242.5 610.5Q216 573 206 525L95 0H55L214 750H249L232 648Q276 698 338 729Q400 760 473 760Q549 760 601.5 725.5Q654 691 667 616Q717 689 789 724.5Q861 760 934 760Q1021 760 1074 714Q1127 668 1127 570Q1127 546 1120.5 509.5Q1114 473 1101.5 417.5Q1089 362 1071.5 285.5Q1054 209 1032 105Q1023 62 1039.5 43Q1056 24 1096 24Q1109 24 1122 25.5Q1135 27 1146 29Q1158 31 1169 34V0Q1157 -3 1143 -5Q1131 -7 1116.5 -8.5Q1102 -10 1087 -10Q1031 -10 1005.5 18.5Q980 47 992 105Z" glyph-name="M.round.end" horiz-adv-x="1179" unicode="&#61560;" /><glyph d="M238 686 93 0H55L214 750H252L552 63L698 750H736L577 0H539Z" glyph-name="N" horiz-adv-x="756" unicode="N" /><glyph d="M573 94Q565 56 576 42.5Q587 29 619 29Q625 29 632 30Q639 31 646 32Q654 33 662 34V0Q653 -1 644 -3Q635 -4 626.5 -4.5Q618 -5 610 -5Q562 -5 542 18.5Q522 42 533 94Q554 193 572 270.5Q590 348 602.5 406Q615 464 622.5 504.5Q630 545 630 570Q630 649 586.5 687.5Q543 726 461 726Q422 726 381 712.5Q340 699 304.5 673.5Q269 648 242.5 610.5Q216 573 206 525L95 0H55L214 750H249L232 648Q276 698 338 729Q400 760 473 760Q517 760 553 748.5Q589 737 615.5 714Q642 691 656.5 655Q671 619 671 570Q671 544 663.5 503.5Q656 463 642.5 405Q629 347 611.5 270Q594 193 573 94Z" glyph-name="N.round" horiz-adv-x="746" unicode="&#61569;" /><glyph d="M530 105Q550 200 567 275Q584 350 597 407Q610 464 617.5 504.5Q625 545 625 570Q625 726 461 726Q422 726 381 712.5Q340 699 304.5 673.5Q269 648 242.5 610.5Q216 573 206 525L95 0H55L214 750H249L232 648Q276 698 338 729Q400 760 473 760Q560 760 613 714Q666 668 666 570Q666 544 658.5 504Q651 464 638 407Q625 350 607.5 275Q590 200 570 105Q567 90 567 78Q567 49 584 36.5Q601 24 634 24Q647 24 660 25.5Q673 27 684 29Q696 31 707 34V0Q695 -3 681 -5Q669 -7 654.5 -8.5Q640 -10 625 -10Q577 -10 551.5 10Q526 30 526 72Q526 80 527 88Q528 96 530 105Z" glyph-name="N.round.end" horiz-adv-x="717" unicode="&#61570;" /><glyph d="M238 686 93 0H55L214 750H252L552 63L698 750H736L577 0H539ZM498 790H458L568 930H618Z" glyph-name="Nacute" horiz-adv-x="756" unicode="&#323;" /><glyph d="M573 94Q565 56 576 42.5Q587 29 619 29Q625 29 632 30Q639 31 646 32Q654 33 662 34V0Q653 -1 644 -3Q635 -4 626.5 -4.5Q618 -5 610 -5Q562 -5 542 18.5Q522 42 533 94Q554 193 572 270.5Q590 348 602.5 406Q615 464 622.5 504.5Q630 545 630 570Q630 649 586.5 687.5Q543 726 461 726Q422 726 381 712.5Q340 699 304.5 673.5Q269 648 242.5 610.5Q216 573 206 525L95 0H55L214 750H249L232 648Q276 698 338 729Q400 760 473 760Q517 760 553 748.5Q589 737 615.5 714Q642 691 656.5 655Q671 619 671 570Q671 544 663.5 503.5Q656 463 642.5 405Q629 347 611.5 270Q594 193 573 94ZM503 790H463L573 930H623Z" glyph-name="Nacute.round" horiz-adv-x="746" unicode="&#61574;" /><glyph d="M503 790H463L573 930H623ZM530 105Q550 200 567 275Q584 350 597 407Q610 464 617.5 504.5Q625 545 625 570Q625 726 461 726Q422 726 381 712.5Q340 699 304.5 673.5Q269 648 242.5 610.5Q216 573 206 525L95 0H55L214 750H249L232 648Q276 698 338 729Q400 760 473 760Q560 760 613 714Q666 668 666 570Q666 544 658.5 504Q651 464 638 407Q625 350 607.5 275Q590 200 570 105Q567 90 567 78Q567 49 584 36.5Q601 24 634 24Q647 24 660 25.5Q673 27 684 29Q696 31 707 34V0Q695 -3 681 -5Q669 -7 654.5 -8.5Q640 -10 625 -10Q577 -10 551.5 10Q526 30 526 72Q526 80 527 88Q528 96 530 105Z" glyph-name="Nacute.round.end" horiz-adv-x="717" unicode="&#61575;" /><glyph d="M238 686 93 0H55L214 750H252L552 63L698 750H736L577 0H539ZM475 816 587 930H634L490 790H454L368 930H407Z" glyph-name="Ncaron" horiz-adv-x="756" unicode="&#327;" /><glyph d="M573 94Q565 56 576 42.5Q587 29 619 29Q625 29 632 30Q639 31 646 32Q654 33 662 34V0Q653 -1 644 -3Q635 -4 626.5 -4.5Q618 -5 610 -5Q562 -5 542 18.5Q522 42 533 94Q554 193 572 270.5Q590 348 602.5 406Q615 464 622.5 504.5Q630 545 630 570Q630 649 586.5 687.5Q543 726 461 726Q422 726 381 712.5Q340 699 304.5 673.5Q269 648 242.5 610.5Q216 573 206 525L95 0H55L214 750H249L232 648Q276 698 338 729Q400 760 473 760Q517 760 553 748.5Q589 737 615.5 714Q642 691 656.5 655Q671 619 671 570Q671 544 663.5 503.5Q656 463 642.5 405Q629 347 611.5 270Q594 193 573 94ZM485 816 597 930H644L500 790H464L378 930H417Z" glyph-name="Ncaron.round" horiz-adv-x="746" unicode="&#61585;" /><glyph d="M485 816 597 930H644L500 790H464L378 930H417ZM530 105Q550 200 567 275Q584 350 597 407Q610 464 617.5 504.5Q625 545 625 570Q625 726 461 726Q422 726 381 712.5Q340 699 304.5 673.5Q269 648 242.5 610.5Q216 573 206 525L95 0H55L214 750H249L232 648Q276 698 338 729Q400 760 473 760Q560 760 613 714Q666 668 666 570Q666 544 658.5 504Q651 464 638 407Q625 350 607.5 275Q590 200 570 105Q567 90 567 78Q567 49 584 36.5Q601 24 634 24Q647 24 660 25.5Q673 27 684 29Q696 31 707 34V0Q695 -3 681 -5Q669 -7 654.5 -8.5Q640 -10 625 -10Q577 -10 551.5 10Q526 30 526 72Q526 80 527 88Q528 96 530 105Z" glyph-name="Ncaron.round.end" horiz-adv-x="717" unicode="&#61586;" /><glyph d="M238 686 93 0H55L214 750H252L552 63L698 750H736L577 0H539ZM273 -130Q312 -114 317 -78Q315 -80 312 -81.5Q309 -83 302 -83Q295 -83 289 -76.5Q283 -70 283 -59Q283 -43 292.5 -33.5Q302 -24 320 -24Q331 -24 340.5 -31.5Q350 -39 350 -59Q350 -78 343 -94.5Q336 -111 325 -123.5Q314 -136 300.5 -144.5Q287 -153 273 -156Z" glyph-name="Ncommaaccent" horiz-adv-x="756" unicode="&#325;" /><glyph d="M573 94Q565 56 576 42.5Q587 29 619 29Q625 29 632 30Q639 31 646 32Q654 33 662 34V0Q653 -1 644 -3Q635 -4 626.5 -4.5Q618 -5 610 -5Q562 -5 542 18.5Q522 42 533 94Q554 193 572 270.5Q590 348 602.5 406Q615 464 622.5 504.5Q630 545 630 570Q630 649 586.5 687.5Q543 726 461 726Q422 726 381 712.5Q340 699 304.5 673.5Q269 648 242.5 610.5Q216 573 206 525L95 0H55L214 750H249L232 648Q276 698 338 729Q400 760 473 760Q517 760 553 748.5Q589 737 615.5 714Q642 691 656.5 655Q671 619 671 570Q671 544 663.5 503.5Q656 463 642.5 405Q629 347 611.5 270Q594 193 573 94ZM287 -130Q326 -114 331 -78Q329 -80 326 -81.5Q323 -83 316 -83Q309 -83 303 -76.5Q297 -70 297 -59Q297 -43 306.5 -33.5Q316 -24 334 -24Q345 -24 354.5 -31.5Q364 -39 364 -59Q364 -78 357 -94.5Q350 -111 339 -123.5Q328 -136 314.5 -144.5Q301 -153 287 -156Z" glyph-name="Ncommaaccent.round" horiz-adv-x="746" unicode="&#61590;" /><glyph d="M281 -130Q320 -114 325 -78Q323 -80 320 -81.5Q317 -83 310 -83Q303 -83 297 -76.5Q291 -70 291 -59Q291 -43 300.5 -33.5Q310 -24 328 -24Q339 -24 348.5 -31.5Q358 -39 358 -59Q358 -78 351 -94.5Q344 -111 333 -123.5Q322 -136 308.5 -144.5Q295 -153 281 -156ZM530 105Q550 200 567 275Q584 350 597 407Q610 464 617.5 504.5Q625 545 625 570Q625 726 461 726Q422 726 381 712.5Q340 699 304.5 673.5Q269 648 242.5 610.5Q216 573 206 525L95 0H55L214 750H249L232 648Q276 698 338 729Q400 760 473 760Q560 760 613 714Q666 668 666 570Q666 544 658.5 504Q651 464 638 407Q625 350 607.5 275Q590 200 570 105Q567 90 567 78Q567 49 584 36.5Q601 24 634 24Q647 24 660 25.5Q673 27 684 29Q696 31 707 34V0Q695 -3 681 -5Q669 -7 654.5 -8.5Q640 -10 625 -10Q577 -10 551.5 10Q526 30 526 72Q526 80 527 88Q528 96 530 105Z" glyph-name="Ncommaaccent.round.end" horiz-adv-x="717" unicode="&#61591;" /><glyph d="M238 686 93 0H55L214 750H252L552 63L698 750H736L577 0H539ZM335 830Q342 850 355 866Q367 881 385.5 891.5Q404 902 432 902Q456 902 472.5 894Q489 886 503 877Q517 868 530.5 860Q544 852 563 852Q580 852 591.5 859.5Q603 867 610 876Q619 887 624 900L662 890Q655 870 642 854Q630 839 611.5 828.5Q593 818 565 818Q540 818 522.5 826Q505 834 491 843Q477 852 464 860Q451 868 434 868Q417 868 405.5 860.5Q394 853 387 844Q378 833 373 820Z" glyph-name="Ntilde" horiz-adv-x="756" unicode="&#209;" /><glyph d="M573 94Q565 56 576 42.5Q587 29 619 29Q625 29 632 30Q639 31 646 32Q654 33 662 34V0Q653 -1 644 -3Q635 -4 626.5 -4.5Q618 -5 610 -5Q562 -5 542 18.5Q522 42 533 94Q554 193 572 270.5Q590 348 602.5 406Q615 464 622.5 504.5Q630 545 630 570Q630 649 586.5 687.5Q543 726 461 726Q422 726 381 712.5Q340 699 304.5 673.5Q269 648 242.5 610.5Q216 573 206 525L95 0H55L214 750H249L232 648Q276 698 338 729Q400 760 473 760Q517 760 553 748.5Q589 737 615.5 714Q642 691 656.5 655Q671 619 671 570Q671 544 663.5 503.5Q656 463 642.5 405Q629 347 611.5 270Q594 193 573 94ZM330 830Q337 850 350 866Q362 881 380.5 891.5Q399 902 427 902Q451 902 467.5 894Q484 886 498 877Q512 868 525.5 860Q539 852 558 852Q575 852 586.5 859.5Q598 867 605 876Q614 887 619 900L657 890Q650 870 637 854Q625 839 606.5 828.5Q588 818 560 818Q535 818 517.5 826Q500 834 486 843Q472 852 459 860Q446 868 429 868Q412 868 400.5 860.5Q389 853 382 844Q373 833 368 820Z" glyph-name="Ntilde.round" horiz-adv-x="746" unicode="&#61697;" /><glyph d="M317 814Q324 834 337 850Q349 865 367.5 875.5Q386 886 414 886Q438 886 454.5 878Q471 870 485 861Q499 852 512.5 844Q526 836 545 836Q562 836 573.5 843.5Q585 851 592 860Q601 871 606 884L644 874Q637 854 624 838Q612 823 593.5 812.5Q575 802 547 802Q522 802 504.5 810Q487 818 473 827Q459 836 446 844Q433 852 416 852Q399 852 387.5 844.5Q376 837 369 828Q360 817 355 804ZM530 105Q550 200 567 275Q584 350 597 407Q610 464 617.5 504.5Q625 545 625 570Q625 726 461 726Q422 726 381 712.5Q340 699 304.5 673.5Q269 648 242.5 610.5Q216 573 206 525L95 0H55L214 750H249L232 648Q276 698 338 729Q400 760 473 760Q560 760 613 714Q666 668 666 570Q666 544 658.5 504Q651 464 638 407Q625 350 607.5 275Q590 200 570 105Q567 90 567 78Q567 49 584 36.5Q601 24 634 24Q647 24 660 25.5Q673 27 684 29Q696 31 707 34V0Q695 -3 681 -5Q669 -7 654.5 -8.5Q640 -10 625 -10Q577 -10 551.5 10Q526 30 526 72Q526 80 527 88Q528 96 530 105Z" glyph-name="Ntilde.round.end" horiz-adv-x="717" unicode="&#61698;" /><glyph d="M703 499Q703 413 680 323Q657 233 608.5 159Q560 85 483.5 37.5Q407 -10 299 -10Q238 -10 191 8.5Q144 27 113 61Q82 95 66 143Q50 191 50 251Q50 337 73 427Q96 517 145.5 591Q195 665 272.5 712.5Q350 760 458 760Q581 760 642 689.5Q703 619 703 499ZM302 24Q394 24 462 67.5Q530 111 575 180Q620 249 642 333.5Q664 418 664 500Q664 550 652 591.5Q640 633 614.5 663Q589 693 548.5 709.5Q508 726 451 726Q359 726 290.5 683Q222 640 177 572Q132 504 110 420Q88 336 88 254Q88 203 100 161Q112 119 137.5 88.5Q163 58 204 41Q245 24 302 24Z" glyph-name="O" horiz-adv-x="733" unicode="O" /><glyph d="M606 159Q582 123 552 92.5Q522 62 484.5 39Q447 16 401 3Q355 -10 299 -10Q238 -10 191 8.5Q144 27 113 61Q82 95 66 143Q50 191 50 251Q50 337 73 427Q96 517 145.5 591Q195 665 272.5 712.5Q350 760 458 760Q512 760 553 746Q594 732 623 706.5Q652 681 669 646Q686 611 693 570L731 750H1161V716H764L695 392H1065V358H688L619 34H1009V0H572ZM302 24Q394 24 462 67.5Q530 111 575 180Q620 249 642 333.5Q664 418 664 500Q664 550 652 591.5Q640 633 614.5 663Q589 693 548.5 709.5Q508 726 451 726Q359 726 290.5 683Q222 640 177 572Q132 504 110 420Q88 336 88 254Q88 203 100 161Q112 119 137.5 88.5Q163 58 204 41Q245 24 302 24Z" glyph-name="OE" horiz-adv-x="1143" unicode="&#338;" /><glyph d="M919 -10Q800 -10 729 52.5Q658 115 645 224Q622 175 589.5 132Q557 89 514 57.5Q471 26 417.5 8Q364 -10 299 -10Q238 -10 191 8.5Q144 27 113 61Q82 95 66 143Q50 191 50 251Q50 337 73 427Q96 517 145.5 591Q195 665 272.5 712.5Q350 760 458 760Q576 760 636.5 696.5Q697 633 702 522Q729 574 767 617.5Q805 661 853 692.5Q901 724 958.5 742Q1016 760 1082 760Q1109 760 1137.5 757Q1166 754 1191.5 749.5Q1217 745 1236.5 740.5Q1256 736 1265 733V691Q1236 701 1205 709Q1176 716 1143.5 721Q1111 726 1077 726Q1008 726 946 701.5Q884 677 833.5 633Q783 589 747.5 527.5Q712 466 695 392H1177V358H688Q682 316 682 272Q682 216 697.5 170.5Q713 125 743.5 92.5Q774 60 820.5 42Q867 24 929 24Q958 24 988.5 28Q1019 32 1046 38Q1073 44 1094 49.5Q1115 55 1124 58V21Q1090 12 1055 6Q1023 -1 988 -5.5Q953 -10 919 -10ZM302 24Q376 24 434.5 53Q493 82 536.5 130.5Q580 179 608.5 241.5Q637 304 651 371L654 386Q664 440 664 500Q664 550 652 591.5Q640 633 614.5 663Q589 693 548.5 709.5Q508 726 451 726Q359 726 290.5 683Q222 640 177 572Q132 504 110 420Q88 336 88 254Q88 203 100 161Q112 119 137.5 88.5Q163 58 204 41Q245 24 302 24Z" glyph-name="OE.round" horiz-adv-x="1235" unicode="&#61701;" /><glyph d="M703 499Q703 413 680 323Q657 233 608.5 159Q560 85 483.5 37.5Q407 -10 299 -10Q238 -10 191 8.5Q144 27 113 61Q82 95 66 143Q50 191 50 251Q50 337 73 427Q96 517 145.5 591Q195 665 272.5 712.5Q350 760 458 760Q581 760 642 689.5Q703 619 703 499ZM302 24Q394 24 462 67.5Q530 111 575 180Q620 249 642 333.5Q664 418 664 500Q664 550 652 591.5Q640 633 614.5 663Q589 693 548.5 709.5Q508 726 451 726Q359 726 290.5 683Q222 640 177 572Q132 504 110 420Q88 336 88 254Q88 203 100 161Q112 119 137.5 88.5Q163 58 204 41Q245 24 302 24ZM485 790H445L555 930H605Z" glyph-name="Oacute" horiz-adv-x="733" unicode="&#211;" /><glyph d="M703 499Q703 413 680 323Q657 233 608.5 159Q560 85 483.5 37.5Q407 -10 299 -10Q238 -10 191 8.5Q144 27 113 61Q82 95 66 143Q50 191 50 251Q50 337 73 427Q96 517 145.5 591Q195 665 272.5 712.5Q350 760 458 760Q581 760 642 689.5Q703 619 703 499ZM302 24Q394 24 462 67.5Q530 111 575 180Q620 249 642 333.5Q664 418 664 500Q664 550 652 591.5Q640 633 614.5 663Q589 693 548.5 709.5Q508 726 451 726Q359 726 290.5 683Q222 640 177 572Q132 504 110 420Q88 336 88 254Q88 203 100 161Q112 119 137.5 88.5Q163 58 204 41Q245 24 302 24ZM489 904 377 790H330L474 930H512L598 790H557Z" glyph-name="Ocircumflex" horiz-adv-x="733" unicode="&#212;" /><glyph d="M703 499Q703 413 680 323Q657 233 608.5 159Q560 85 483.5 37.5Q407 -10 299 -10Q238 -10 191 8.5Q144 27 113 61Q82 95 66 143Q50 191 50 251Q50 337 73 427Q96 517 145.5 591Q195 665 272.5 712.5Q350 760 458 760Q581 760 642 689.5Q703 619 703 499ZM302 24Q394 24 462 67.5Q530 111 575 180Q620 249 642 333.5Q664 418 664 500Q664 550 652 591.5Q640 633 614.5 663Q589 693 548.5 709.5Q508 726 451 726Q359 726 290.5 683Q222 640 177 572Q132 504 110 420Q88 336 88 254Q88 203 100 161Q112 119 137.5 88.5Q163 58 204 41Q245 24 302 24ZM426 860Q426 831 395 831Q381 831 373 838Q365 845 365 859Q365 872 373.5 880Q382 888 396 888Q410 888 418 881Q426 874 426 860ZM606 860Q606 831 575 831Q561 831 553 838Q545 845 545 859Q545 872 553.5 880Q562 888 576 888Q590 888 598 881Q606 874 606 860Z" glyph-name="Odieresis" horiz-adv-x="733" unicode="&#214;" /><glyph d="M703 499Q703 413 680 323Q657 233 608.5 159Q560 85 483.5 37.5Q407 -10 299 -10Q238 -10 191 8.5Q144 27 113 61Q82 95 66 143Q50 191 50 251Q50 337 73 427Q96 517 145.5 591Q195 665 272.5 712.5Q350 760 458 760Q581 760 642 689.5Q703 619 703 499ZM302 24Q394 24 462 67.5Q530 111 575 180Q620 249 642 333.5Q664 418 664 500Q664 550 652 591.5Q640 633 614.5 663Q589 693 548.5 709.5Q508 726 451 726Q359 726 290.5 683Q222 640 177 572Q132 504 110 420Q88 336 88 254Q88 203 100 161Q112 119 137.5 88.5Q163 58 204 41Q245 24 302 24ZM327 930H377L487 790H447Z" glyph-name="Ograve" horiz-adv-x="733" unicode="&#210;" /><glyph d="M703 499Q703 413 680 323Q657 233 608.5 159Q560 85 483.5 37.5Q407 -10 299 -10Q238 -10 191 8.5Q144 27 113 61Q82 95 66 143Q50 191 50 251Q50 337 73 427Q96 517 145.5 591Q195 665 272.5 712.5Q350 760 458 760Q581 760 642 689.5Q703 619 703 499ZM302 24Q394 24 462 67.5Q530 111 575 180Q620 249 642 333.5Q664 418 664 500Q664 550 652 591.5Q640 633 614.5 663Q589 693 548.5 709.5Q508 726 451 726Q359 726 290.5 683Q222 640 177 572Q132 504 110 420Q88 336 88 254Q88 203 100 161Q112 119 137.5 88.5Q163 58 204 41Q245 24 302 24ZM442 790H402L512 930H562ZM550 790H510L620 930H670Z" glyph-name="Ohungarumlaut" horiz-adv-x="733" unicode="&#336;" /><glyph d="M703 499Q703 413 680 323Q657 233 608.5 159Q560 85 483.5 37.5Q407 -10 299 -10Q238 -10 191 8.5Q144 27 113 61Q82 95 66 143Q50 191 50 251Q50 337 73 427Q96 517 145.5 591Q195 665 272.5 712.5Q350 760 458 760Q581 760 642 689.5Q703 619 703 499ZM302 24Q394 24 462 67.5Q530 111 575 180Q620 249 642 333.5Q664 418 664 500Q664 550 652 591.5Q640 633 614.5 663Q589 693 548.5 709.5Q508 726 451 726Q359 726 290.5 683Q222 640 177 572Q132 504 110 420Q88 336 88 254Q88 203 100 161Q112 119 137.5 88.5Q163 58 204 41Q245 24 302 24ZM320 836V870H637V836Z" glyph-name="Omacron" horiz-adv-x="733" unicode="&#332;" /><glyph d="M383 34Q428 62 472.5 111.5Q517 161 553 223.5Q589 286 611 358Q633 430 633 502Q633 552 621 593Q609 634 585 663.5Q561 693 524 709.5Q487 726 437 726Q363 726 301.5 693Q240 660 196 603.5Q152 547 127.5 471.5Q103 396 103 310Q103 266 110.5 224Q118 182 130.5 145.5Q143 109 159.5 80.5Q176 52 194 34V0H0V34H147Q135 49 120 76.5Q105 104 92.5 140Q80 176 71 219Q62 262 62 308Q62 390 86.5 471Q111 552 158.5 616Q206 680 276.5 720Q347 760 439 760Q493 760 536 743Q579 726 610 694Q641 662 657.5 615.5Q674 569 674 510Q674 432 650.5 357Q627 282 592 218.5Q557 155 515 106.5Q473 58 436 34H587V0H383Z" glyph-name="Omega" horiz-adv-x="708" unicode="&#8486;" /><glyph d="M-23 7 80 108Q50 168 50 251Q50 337 73 427Q96 517 145.5 591Q195 665 272.5 712.5Q350 760 458 760Q526 760 574.5 738Q623 716 654 675L748 768L773 744L672 644Q703 585 703 499Q703 413 680 323Q657 233 608.5 159Q560 85 483.5 37.5Q407 -10 299 -10Q230 -10 180 13Q130 36 99 78L2 -18ZM302 24Q394 24 462 67.5Q530 111 575 180Q620 249 642 333.5Q664 418 664 500Q664 566 643 615L126 104Q151 66 194 45Q237 24 302 24ZM88 254Q88 221 92.5 191.5Q97 162 108 136L626 647Q600 684 557.5 705Q515 726 451 726Q359 726 290.5 683Q222 640 177 572Q132 504 110 420Q88 336 88 254Z" glyph-name="Oslash" horiz-adv-x="733" unicode="&#216;" /><glyph d="M703 499Q703 413 680 323Q657 233 608.5 159Q560 85 483.5 37.5Q407 -10 299 -10Q238 -10 191 8.5Q144 27 113 61Q82 95 66 143Q50 191 50 251Q50 337 73 427Q96 517 145.5 591Q195 665 272.5 712.5Q350 760 458 760Q581 760 642 689.5Q703 619 703 499ZM302 24Q394 24 462 67.5Q530 111 575 180Q620 249 642 333.5Q664 418 664 500Q664 550 652 591.5Q640 633 614.5 663Q589 693 548.5 709.5Q508 726 451 726Q359 726 290.5 683Q222 640 177 572Q132 504 110 420Q88 336 88 254Q88 203 100 161Q112 119 137.5 88.5Q163 58 204 41Q245 24 302 24ZM307 830Q314 850 327 866Q339 881 357.5 891.5Q376 902 404 902Q428 902 444.5 894Q461 886 475 877Q489 868 502.5 860Q516 852 535 852Q552 852 563.5 859.5Q575 867 582 876Q591 887 596 900L634 890Q627 870 614 854Q602 839 583.5 828.5Q565 818 537 818Q512 818 494.5 826Q477 834 463 843Q449 852 436 860Q423 868 406 868Q389 868 377.5 860.5Q366 853 359 844Q350 833 345 820Z" glyph-name="Otilde" horiz-adv-x="733" unicode="&#213;" /><glyph d="M171 358 95 0H55L214 750H419Q527 750 582 709.5Q637 669 637 595Q637 530 611 485Q585 440 542 411.5Q499 383 443.5 370.5Q388 358 329 358ZM338 392Q388 392 435 403.5Q482 415 518 439.5Q554 464 576 502.5Q598 541 598 595Q598 660 546.5 688Q495 716 407 716H247L178 392Z" glyph-name="P" horiz-adv-x="597" unicode="P" /><glyph d="M703 499Q703 448 695 394Q687 340 670 288.5Q653 237 627.5 190Q602 143 566 104Q574 69 587.5 49Q601 29 635 29Q643 29 651 30Q659 31 665 32Q672 33 679 34V0Q671 -1 662 -3Q654 -4 645 -4.5Q636 -5 626 -5Q602 -5 587 -0.5Q572 4 562 14Q552 24 545 38.5Q538 53 532 72Q487 34 429 12Q371 -10 299 -10Q238 -10 191 8.5Q144 27 113 61Q82 95 66 143Q50 191 50 251Q50 337 73 427Q96 517 145.5 591Q195 665 272.5 712.5Q350 760 458 760Q581 760 642 689.5Q703 619 703 499ZM302 24Q370 24 424.5 47.5Q479 71 521 113Q513 141 499.5 156Q486 171 457 171Q449 171 441 170Q433 169 427 169Q420 167 413 166V200Q421 201 430 203Q438 204 447 204.5Q456 205 466 205Q507 205 524 191Q541 177 552 148Q580 184 601 226Q622 268 636 314Q650 360 657 407Q664 454 664 500Q664 550 652 591.5Q640 633 614.5 663Q589 693 548.5 709.5Q508 726 451 726Q359 726 290.5 683Q222 640 177 572Q132 504 110 420Q88 336 88 254Q88 203 100 161Q112 119 137.5 88.5Q163 58 204 41Q245 24 302 24Z" glyph-name="Q" horiz-adv-x="733" unicode="Q" /><glyph d="M171 358 95 0H55L214 750H419Q527 750 582 709.5Q637 669 637 595Q637 541 618.5 500.5Q600 460 568.5 432Q537 404 494.5 387Q452 370 405 363L542 0H500L364 359Q355 358 346.5 358Q338 358 329 358ZM338 392Q388 392 435 403.5Q482 415 518 439.5Q554 464 576 502.5Q598 541 598 595Q598 660 546.5 688Q495 716 407 716H247L178 392Z" glyph-name="R" horiz-adv-x="622" unicode="R" /><glyph d="M500 160Q508 197 505 231.5Q502 266 483 293.5Q464 321 425 338.5Q386 356 321 358H171L95 0H55L214 750H412Q521 750 580 711Q639 672 639 597Q639 549 623.5 511.5Q608 474 581.5 446.5Q555 419 519 400.5Q483 382 442 371Q573 322 540 160L526 94Q518 56 529 42.5Q540 29 572 29Q578 29 585 30Q592 31 599 32Q607 33 615 34V0Q606 -1 597 -3Q588 -4 579.5 -4.5Q571 -5 563 -5Q465 -5 486 94ZM338 392Q388 392 434.5 403.5Q481 415 517.5 439.5Q554 464 576 502Q598 540 598 594Q598 660 547 688Q496 716 407 716H247L178 392Z" glyph-name="R.round" horiz-adv-x="669" unicode="&#61704;" /><glyph d="M499 157Q507 196 504.5 231.5Q502 267 483 294.5Q464 322 425 339Q386 356 321 358H171L95 0H55L214 750H412Q521 750 580 711Q639 672 639 597Q639 549 623.5 511.5Q608 474 581 446.5Q554 419 518 400.5Q482 382 441 371Q574 322 539 157L528 105Q519 62 535.5 43Q552 24 592 24Q605 24 618 25.5Q631 27 642 29Q654 31 665 34V0Q653 -3 639 -5Q627 -7 612.5 -8.5Q598 -10 583 -10Q527 -10 501.5 18.5Q476 47 488 105ZM338 392Q388 392 434.5 403.5Q481 415 517.5 439.5Q554 464 576 502Q598 540 598 594Q598 660 547 688Q496 716 407 716H247L178 392Z" glyph-name="R.round.end" horiz-adv-x="675" unicode="&#61705;" /><glyph d="M171 358 95 0H55L214 750H419Q527 750 582 709.5Q637 669 637 595Q637 541 618.5 500.5Q600 460 568.5 432Q537 404 494.5 387Q452 370 405 363L542 0H500L364 359Q355 358 346.5 358Q338 358 329 358ZM338 392Q388 392 435 403.5Q482 415 518 439.5Q554 464 576 502.5Q598 541 598 595Q598 660 546.5 688Q495 716 407 716H247L178 392ZM446 790H406L516 930H566Z" glyph-name="Racute" horiz-adv-x="622" unicode="&#340;" /><glyph d="M500 160Q508 197 505 231.5Q502 266 483 293.5Q464 321 425 338.5Q386 356 321 358H171L95 0H55L214 750H412Q521 750 580 711Q639 672 639 597Q639 549 623.5 511.5Q608 474 581.5 446.5Q555 419 519 400.5Q483 382 442 371Q573 322 540 160L526 94Q518 56 529 42.5Q540 29 572 29Q578 29 585 30Q592 31 599 32Q607 33 615 34V0Q606 -1 597 -3Q588 -4 579.5 -4.5Q571 -5 563 -5Q465 -5 486 94ZM338 392Q388 392 434.5 403.5Q481 415 517.5 439.5Q554 464 576 502Q598 540 598 594Q598 660 547 688Q496 716 407 716H247L178 392ZM456 790H416L526 930H576Z" glyph-name="Racute.round" horiz-adv-x="669" unicode="&#61714;" /><glyph d="M499 157Q507 196 504.5 231.5Q502 267 483 294.5Q464 322 425 339Q386 356 321 358H171L95 0H55L214 750H412Q521 750 580 711Q639 672 639 597Q639 549 623.5 511.5Q608 474 581 446.5Q554 419 518 400.5Q482 382 441 371Q574 322 539 157L528 105Q519 62 535.5 43Q552 24 592 24Q605 24 618 25.5Q631 27 642 29Q654 31 665 34V0Q653 -3 639 -5Q627 -7 612.5 -8.5Q598 -10 583 -10Q527 -10 501.5 18.5Q476 47 488 105ZM338 392Q388 392 434.5 403.5Q481 415 517.5 439.5Q554 464 576 502Q598 540 598 594Q598 660 547 688Q496 716 407 716H247L178 392ZM450 790H410L520 930H570Z" glyph-name="Racute.round.end" horiz-adv-x="675" unicode="&#61715;" /><glyph d="M171 358 95 0H55L214 750H419Q527 750 582 709.5Q637 669 637 595Q637 541 618.5 500.5Q600 460 568.5 432Q537 404 494.5 387Q452 370 405 363L542 0H500L364 359Q355 358 346.5 358Q338 358 329 358ZM338 392Q388 392 435 403.5Q482 415 518 439.5Q554 464 576 502.5Q598 541 598 595Q598 660 546.5 688Q495 716 407 716H247L178 392ZM423 816 535 930H582L438 790H402L316 930H355Z" glyph-name="Rcaron" horiz-adv-x="622" unicode="&#344;" /><glyph d="M500 160Q508 197 505 231.5Q502 266 483 293.5Q464 321 425 338.5Q386 356 321 358H171L95 0H55L214 750H412Q521 750 580 711Q639 672 639 597Q639 549 623.5 511.5Q608 474 581.5 446.5Q555 419 519 400.5Q483 382 442 371Q573 322 540 160L526 94Q518 56 529 42.5Q540 29 572 29Q578 29 585 30Q592 31 599 32Q607 33 615 34V0Q606 -1 597 -3Q588 -4 579.5 -4.5Q571 -5 563 -5Q465 -5 486 94ZM338 392Q388 392 434.5 403.5Q481 415 517.5 439.5Q554 464 576 502Q598 540 598 594Q598 660 547 688Q496 716 407 716H247L178 392ZM440 816 552 930H599L455 790H419L333 930H372Z" glyph-name="Rcaron.round" horiz-adv-x="669" unicode="&#61718;" /><glyph d="M499 157Q507 196 504.5 231.5Q502 267 483 294.5Q464 322 425 339Q386 356 321 358H171L95 0H55L214 750H412Q521 750 580 711Q639 672 639 597Q639 549 623.5 511.5Q608 474 581 446.5Q554 419 518 400.5Q482 382 441 371Q574 322 539 157L528 105Q519 62 535.5 43Q552 24 592 24Q605 24 618 25.5Q631 27 642 29Q654 31 665 34V0Q653 -3 639 -5Q627 -7 612.5 -8.5Q598 -10 583 -10Q527 -10 501.5 18.5Q476 47 488 105ZM338 392Q388 392 434.5 403.5Q481 415 517.5 439.5Q554 464 576 502Q598 540 598 594Q598 660 547 688Q496 716 407 716H247L178 392ZM441 816 553 930H600L456 790H420L334 930H373Z" glyph-name="Rcaron.round.end" horiz-adv-x="675" unicode="&#61719;" /><glyph d="M171 358 95 0H55L214 750H419Q527 750 582 709.5Q637 669 637 595Q637 541 618.5 500.5Q600 460 568.5 432Q537 404 494.5 387Q452 370 405 363L542 0H500L364 359Q355 358 346.5 358Q338 358 329 358ZM338 392Q388 392 435 403.5Q482 415 518 439.5Q554 464 576 502.5Q598 541 598 595Q598 660 546.5 688Q495 716 407 716H247L178 392ZM245 -130Q284 -114 289 -78Q287 -80 284 -81.5Q281 -83 274 -83Q267 -83 261 -76.5Q255 -70 255 -59Q255 -43 264.5 -33.5Q274 -24 292 -24Q303 -24 312.5 -31.5Q322 -39 322 -59Q322 -78 315 -94.5Q308 -111 297 -123.5Q286 -136 272.5 -144.5Q259 -153 245 -156Z" glyph-name="Rcommaaccent" horiz-adv-x="622" unicode="&#342;" /><glyph d="M500 160Q508 197 505 231.5Q502 266 483 293.5Q464 321 425 338.5Q386 356 321 358H171L95 0H55L214 750H412Q521 750 580 711Q639 672 639 597Q639 549 623.5 511.5Q608 474 581.5 446.5Q555 419 519 400.5Q483 382 442 371Q573 322 540 160L526 94Q518 56 529 42.5Q540 29 572 29Q578 29 585 30Q592 31 599 32Q607 33 615 34V0Q606 -1 597 -3Q588 -4 579.5 -4.5Q571 -5 563 -5Q465 -5 486 94ZM338 392Q388 392 434.5 403.5Q481 415 517.5 439.5Q554 464 576 502Q598 540 598 594Q598 660 547 688Q496 716 407 716H247L178 392ZM254 -130Q293 -114 298 -78Q296 -80 293 -81.5Q290 -83 283 -83Q276 -83 270 -76.5Q264 -70 264 -59Q264 -43 273.5 -33.5Q283 -24 301 -24Q312 -24 321.5 -31.5Q331 -39 331 -59Q331 -78 324 -94.5Q317 -111 306 -123.5Q295 -136 281.5 -144.5Q268 -153 254 -156Z" glyph-name="Rcommaaccent.round" horiz-adv-x="669" unicode="&#61728;" /><glyph d="M499 157Q507 197 504 233.5Q501 270 481 297.5Q461 325 419.5 341.5Q378 358 308 358H171L95 0H55L214 750H412Q521 750 580 711Q639 672 639 597Q639 549 623.5 511.5Q608 474 581 446.5Q554 419 518 400.5Q482 382 441 371Q574 322 539 157L528 105Q519 62 535.5 43Q552 24 592 24Q605 24 618 25.5Q631 27 642 29Q654 31 665 34V0Q653 -3 639 -5Q627 -7 612.5 -8.5Q598 -10 583 -10Q527 -10 501.5 18.5Q476 47 488 105ZM338 392Q388 392 434.5 403.5Q481 415 517.5 439.5Q554 464 576 502Q598 540 598 594Q598 660 547 688Q496 716 407 716H247L178 392ZM261 -130Q300 -114 305 -78Q303 -80 300 -81.5Q297 -83 290 -83Q283 -83 277 -76.5Q271 -70 271 -59Q271 -43 280.5 -33.5Q290 -24 308 -24Q319 -24 328.5 -31.5Q338 -39 338 -59Q338 -78 331 -94.5Q324 -111 313 -123.5Q302 -136 288.5 -144.5Q275 -153 261 -156Z" glyph-name="Rcommaaccent.round.end" horiz-adv-x="675" unicode="&#61729;" /><glyph d="M392 726Q351 726 306 717Q261 708 223.5 686Q186 664 161.5 626.5Q137 589 137 533Q137 489 164 464.5Q191 440 232 423.5Q273 407 320.5 394Q368 381 409 360.5Q450 340 477 307.5Q504 275 504 220Q504 155 479 111Q454 67 411 40Q368 13 312 1.5Q256 -10 193 -10Q165 -10 135 -6.5Q105 -3 78 2Q51 7 30.5 11.5Q10 16 0 19V57Q29 48 61 41Q90 34 122.5 29Q155 24 189 24Q240 24 289.5 32.5Q339 41 378 62.5Q417 84 440.5 122Q464 160 464 218Q464 265 437 291Q410 317 369 334Q328 351 281 364Q234 377 193 396Q152 415 125 446.5Q98 478 98 532Q98 588 120.5 630.5Q143 673 182 702Q221 731 275 745.5Q329 760 392 760Q420 760 449 756.5Q478 753 504 748Q530 743 550 738.5Q570 734 580 731V693Q551 702 520 710Q491 716 458.5 721Q426 726 392 726Z" glyph-name="S" horiz-adv-x="570" unicode="S" /><glyph d="M392 726Q351 726 306 717Q261 708 223.5 686Q186 664 161.5 626.5Q137 589 137 533Q137 489 164 464.5Q191 440 232 423.5Q273 407 320.5 394Q368 381 409 360.5Q450 340 477 307.5Q504 275 504 220Q504 155 479 111Q454 67 411 40Q368 13 312 1.5Q256 -10 193 -10Q165 -10 135 -6.5Q105 -3 78 2Q51 7 30.5 11.5Q10 16 0 19V57Q29 48 61 41Q90 34 122.5 29Q155 24 189 24Q240 24 289.5 32.5Q339 41 378 62.5Q417 84 440.5 122Q464 160 464 218Q464 265 437 291Q410 317 369 334Q328 351 281 364Q234 377 193 396Q152 415 125 446.5Q98 478 98 532Q98 588 120.5 630.5Q143 673 182 702Q221 731 275 745.5Q329 760 392 760Q420 760 449 756.5Q478 753 504 748Q530 743 550 738.5Q570 734 580 731V693Q551 702 520 710Q491 716 458.5 721Q426 726 392 726ZM414 790H374L484 930H534Z" glyph-name="Sacute" horiz-adv-x="570" unicode="&#346;" /><glyph d="M392 726Q351 726 306 717Q261 708 223.5 686Q186 664 161.5 626.5Q137 589 137 533Q137 489 164 464.5Q191 440 232 423.5Q273 407 320.5 394Q368 381 409 360.5Q450 340 477 307.5Q504 275 504 220Q504 155 479 111Q454 67 411 40Q368 13 312 1.5Q256 -10 193 -10Q165 -10 135 -6.5Q105 -3 78 2Q51 7 30.5 11.5Q10 16 0 19V57Q29 48 61 41Q90 34 122.5 29Q155 24 189 24Q240 24 289.5 32.5Q339 41 378 62.5Q417 84 440.5 122Q464 160 464 218Q464 265 437 291Q410 317 369 334Q328 351 281 364Q234 377 193 396Q152 415 125 446.5Q98 478 98 532Q98 588 120.5 630.5Q143 673 182 702Q221 731 275 745.5Q329 760 392 760Q420 760 449 756.5Q478 753 504 748Q530 743 550 738.5Q570 734 580 731V693Q551 702 520 710Q491 716 458.5 721Q426 726 392 726ZM394 816 506 930H553L409 790H373L287 930H326Z" glyph-name="Scaron" horiz-adv-x="570" unicode="&#352;" /><glyph d="M392 726Q351 726 306 717Q261 708 223.5 686Q186 664 161.5 626.5Q137 589 137 533Q137 489 164 464.5Q191 440 232 423.5Q273 407 320.5 394Q368 381 409 360.5Q450 340 477 307.5Q504 275 504 220Q504 155 479 111Q454 67 411 40Q368 13 312 1.5Q256 -10 193 -10Q165 -10 135 -6.5Q105 -3 78 2Q51 7 30.5 11.5Q10 16 0 19V57Q29 48 61 41Q90 34 122.5 29Q155 24 189 24Q240 24 289.5 32.5Q339 41 378 62.5Q417 84 440.5 122Q464 160 464 218Q464 265 437 291Q410 317 369 334Q328 351 281 364Q234 377 193 396Q152 415 125 446.5Q98 478 98 532Q98 588 120.5 630.5Q143 673 182 702Q221 731 275 745.5Q329 760 392 760Q420 760 449 756.5Q478 753 504 748Q530 743 550 738.5Q570 734 580 731V693Q551 702 520 710Q491 716 458.5 721Q426 726 392 726ZM180 -15Q197 -10 214 -10Q245 -10 262 -25.5Q279 -41 279 -66Q279 -88 271.5 -103Q264 -118 252 -127Q240 -136 224 -140Q208 -144 191 -144Q184 -144 175.5 -143Q167 -142 162 -140V-114Q167 -116 176.5 -117Q186 -118 191 -118Q212 -118 230 -108.5Q248 -99 248 -71Q248 -55 239 -45.5Q230 -36 212 -36Q195 -36 180 -41Z" glyph-name="Scedilla" horiz-adv-x="570" unicode="&#350;" /><glyph d="M392 726Q351 726 306 717Q261 708 223.5 686Q186 664 161.5 626.5Q137 589 137 533Q137 489 164 464.5Q191 440 232 423.5Q273 407 320.5 394Q368 381 409 360.5Q450 340 477 307.5Q504 275 504 220Q504 155 479 111Q454 67 411 40Q368 13 312 1.5Q256 -10 193 -10Q165 -10 135 -6.5Q105 -3 78 2Q51 7 30.5 11.5Q10 16 0 19V57Q29 48 61 41Q90 34 122.5 29Q155 24 189 24Q240 24 289.5 32.5Q339 41 378 62.5Q417 84 440.5 122Q464 160 464 218Q464 265 437 291Q410 317 369 334Q328 351 281 364Q234 377 193 396Q152 415 125 446.5Q98 478 98 532Q98 588 120.5 630.5Q143 673 182 702Q221 731 275 745.5Q329 760 392 760Q420 760 449 756.5Q478 753 504 748Q530 743 550 738.5Q570 734 580 731V693Q551 702 520 710Q491 716 458.5 721Q426 726 392 726ZM423 904 311 790H264L408 930H446L532 790H491Z" glyph-name="Scircumflex" horiz-adv-x="570" unicode="&#348;" /><glyph d="M392 726Q351 726 306 717Q261 708 223.5 686Q186 664 161.5 626.5Q137 589 137 533Q137 489 164 464.5Q191 440 232 423.5Q273 407 320.5 394Q368 381 409 360.5Q450 340 477 307.5Q504 275 504 220Q504 155 479 111Q454 67 411 40Q368 13 312 1.5Q256 -10 193 -10Q165 -10 135 -6.5Q105 -3 78 2Q51 7 30.5 11.5Q10 16 0 19V57Q29 48 61 41Q90 34 122.5 29Q155 24 189 24Q240 24 289.5 32.5Q339 41 378 62.5Q417 84 440.5 122Q464 160 464 218Q464 265 437 291Q410 317 369 334Q328 351 281 364Q234 377 193 396Q152 415 125 446.5Q98 478 98 532Q98 588 120.5 630.5Q143 673 182 702Q221 731 275 745.5Q329 760 392 760Q420 760 449 756.5Q478 753 504 748Q530 743 550 738.5Q570 734 580 731V693Q551 702 520 710Q491 716 458.5 721Q426 726 392 726ZM189 -130Q228 -114 233 -78Q231 -80 228 -81.5Q225 -83 218 -83Q211 -83 205 -76.5Q199 -70 199 -59Q199 -43 208.5 -33.5Q218 -24 236 -24Q247 -24 256.5 -31.5Q266 -39 266 -59Q266 -78 259 -94.5Q252 -111 241 -123.5Q230 -136 216.5 -144.5Q203 -153 189 -156Z" glyph-name="Scommaaccent" horiz-adv-x="570" unicode="&#536;" /><glyph d="M60 750H631V716H362L210 0H170L322 716H60Z" glyph-name="T" horiz-adv-x="538" unicode="T" /><glyph d="M60 750H631V716H362L210 0H170L322 716H60ZM357 816 469 930H516L372 790H336L250 930H289Z" glyph-name="Tcaron" horiz-adv-x="538" unicode="&#356;" /><glyph d="M60 750H631V716H362L210 0H170L322 716H60ZM137 -130Q176 -114 181 -78Q179 -80 176 -81.5Q173 -83 166 -83Q159 -83 153 -76.5Q147 -70 147 -59Q147 -43 156.5 -33.5Q166 -24 184 -24Q195 -24 204.5 -31.5Q214 -39 214 -59Q214 -78 207 -94.5Q200 -111 189 -123.5Q178 -136 164.5 -144.5Q151 -153 137 -156Z" glyph-name="Tcommaaccent" horiz-adv-x="538" unicode="&#354;" /><glyph d="M133 177 95 0H55L215 750H255L216 569H381Q489 569 544 528.5Q599 488 599 414Q599 349 573 304Q547 259 504 230.5Q461 202 405.5 189.5Q350 177 291 177ZM300 211Q350 211 397 222.5Q444 234 480 258.5Q516 283 538 321.5Q560 360 560 414Q560 479 508.5 507Q457 535 369 535H209L140 211Z" glyph-name="Thorn" horiz-adv-x="599" unicode="&#222;" /><glyph d="M656 750H696L606 326Q586 232 555.5 168Q525 104 483.5 64.5Q442 25 390.5 7.5Q339 -10 278 -10Q235 -10 195.5 0.5Q156 11 126 34.5Q96 58 78.5 96Q61 134 61 189Q61 248 77 324L168 750H203L118 326Q110 286 105 251.5Q100 217 100 187Q100 107 149.5 65.5Q199 24 283 24Q400 24 467 101Q534 178 565 324Z" glyph-name="U" horiz-adv-x="673" unicode="U" /><glyph d="M656 750H696L606 326Q586 232 555.5 168Q525 104 483.5 64.5Q442 25 390.5 7.5Q339 -10 278 -10Q235 -10 195.5 0.5Q156 11 126 34.5Q96 58 78.5 96Q61 134 61 189Q61 248 77 324L168 750H203L118 326Q110 286 105 251.5Q100 217 100 187Q100 107 149.5 65.5Q199 24 283 24Q400 24 467 101Q534 178 565 324ZM460 790H420L530 930H580Z" glyph-name="Uacute" horiz-adv-x="673" unicode="&#218;" /><glyph d="M656 750H696L606 326Q586 232 555.5 168Q525 104 483.5 64.5Q442 25 390.5 7.5Q339 -10 278 -10Q235 -10 195.5 0.5Q156 11 126 34.5Q96 58 78.5 96Q61 134 61 189Q61 248 77 324L168 750H203L118 326Q110 286 105 251.5Q100 217 100 187Q100 107 149.5 65.5Q199 24 283 24Q400 24 467 101Q534 178 565 324ZM568 886Q568 867 560 849.5Q552 832 536.5 818Q521 804 497 795.5Q473 787 441 787Q409 787 386 795.5Q363 804 348 818Q333 832 325.5 849.5Q318 867 318 886H356Q358 852 382 834Q406 816 443 816Q481 816 504.5 834Q528 852 530 886Z" glyph-name="Ubreve" horiz-adv-x="673" unicode="&#364;" /><glyph d="M656 750H696L606 326Q586 232 555.5 168Q525 104 483.5 64.5Q442 25 390.5 7.5Q339 -10 278 -10Q235 -10 195.5 0.5Q156 11 126 34.5Q96 58 78.5 96Q61 134 61 189Q61 248 77 324L168 750H203L118 326Q110 286 105 251.5Q100 217 100 187Q100 107 149.5 65.5Q199 24 283 24Q400 24 467 101Q534 178 565 324ZM468 904 356 790H309L453 930H491L577 790H536Z" glyph-name="Ucircumflex" horiz-adv-x="673" unicode="&#219;" /><glyph d="M656 750H696L606 326Q586 232 555.5 168Q525 104 483.5 64.5Q442 25 390.5 7.5Q339 -10 278 -10Q235 -10 195.5 0.5Q156 11 126 34.5Q96 58 78.5 96Q61 134 61 189Q61 248 77 324L168 750H203L118 326Q110 286 105 251.5Q100 217 100 187Q100 107 149.5 65.5Q199 24 283 24Q400 24 467 101Q534 178 565 324ZM386 860Q386 831 355 831Q341 831 333 838Q325 845 325 859Q325 872 333.5 880Q342 888 356 888Q370 888 378 881Q386 874 386 860ZM566 860Q566 831 535 831Q521 831 513 838Q505 845 505 859Q505 872 513.5 880Q522 888 536 888Q550 888 558 881Q566 874 566 860Z" glyph-name="Udieresis" horiz-adv-x="673" unicode="&#220;" /><glyph d="M656 750H696L606 326Q586 232 555.5 168Q525 104 483.5 64.5Q442 25 390.5 7.5Q339 -10 278 -10Q235 -10 195.5 0.5Q156 11 126 34.5Q96 58 78.5 96Q61 134 61 189Q61 248 77 324L168 750H203L118 326Q110 286 105 251.5Q100 217 100 187Q100 107 149.5 65.5Q199 24 283 24Q400 24 467 101Q534 178 565 324ZM306 930H356L466 790H426Z" glyph-name="Ugrave" horiz-adv-x="673" unicode="&#217;" /><glyph d="M656 750H696L606 326Q586 232 555.5 168Q525 104 483.5 64.5Q442 25 390.5 7.5Q339 -10 278 -10Q235 -10 195.5 0.5Q156 11 126 34.5Q96 58 78.5 96Q61 134 61 189Q61 248 77 324L168 750H203L118 326Q110 286 105 251.5Q100 217 100 187Q100 107 149.5 65.5Q199 24 283 24Q400 24 467 101Q534 178 565 324ZM401 790H361L471 930H521ZM509 790H469L579 930H629Z" glyph-name="Uhungarumlaut" horiz-adv-x="673" unicode="&#368;" /><glyph d="M656 750H696L606 326Q586 232 555.5 168Q525 104 483.5 64.5Q442 25 390.5 7.5Q339 -10 278 -10Q235 -10 195.5 0.5Q156 11 126 34.5Q96 58 78.5 96Q61 134 61 189Q61 248 77 324L168 750H203L118 326Q110 286 105 251.5Q100 217 100 187Q100 107 149.5 65.5Q199 24 283 24Q400 24 467 101Q534 178 565 324ZM291 836V870H608V836Z" glyph-name="Umacron" horiz-adv-x="673" unicode="&#362;" /><glyph d="M656 750H696L606 326Q584 225 550.5 159Q517 93 472 54Q435 15 412 -11Q389 -37 377 -53.5Q365 -70 361 -80Q357 -90 357 -98Q357 -112 365.5 -118Q374 -124 387 -124Q394 -124 401 -122Q408 -120 414 -118Q421 -115 427 -111V-142Q421 -145 414 -148Q407 -150 399 -152Q391 -154 382 -154Q356 -154 336.5 -142.5Q317 -131 317 -103Q317 -77 337 -51.5Q357 -26 395 9Q342 -10 278 -10Q235 -10 195.5 0.5Q156 11 126 34.5Q96 58 78.5 96Q61 134 61 189Q61 248 77 324L168 750H203L118 326Q110 286 105 251.5Q100 217 100 187Q100 107 149.5 65.5Q199 24 283 24Q400 24 467 101Q534 178 565 324Z" glyph-name="Uogonek" horiz-adv-x="673" unicode="&#370;" /><glyph d="M656 750H696L606 326Q586 232 555.5 168Q525 104 483.5 64.5Q442 25 390.5 7.5Q339 -10 278 -10Q235 -10 195.5 0.5Q156 11 126 34.5Q96 58 78.5 96Q61 134 61 189Q61 248 77 324L168 750H203L118 326Q110 286 105 251.5Q100 217 100 187Q100 107 149.5 65.5Q199 24 283 24Q400 24 467 101Q534 178 565 324ZM570 861Q570 842 562 824Q554 806 538.5 792Q523 778 499 769.5Q475 761 443 761Q411 761 388 769.5Q365 778 350 791.5Q335 805 327.5 822.5Q320 840 320 859Q320 878 328 896Q336 914 351.5 928.5Q367 943 391 951.5Q415 960 447 960Q479 960 502 951.5Q525 943 540 929Q555 915 562.5 897.5Q570 880 570 861ZM445 790Q483 790 507.5 808Q532 826 532 860Q532 893 507.5 912Q483 931 445 931Q408 931 383 912Q358 893 358 860Q358 826 383 808Q408 790 445 790Z" glyph-name="Uring" horiz-adv-x="673" unicode="&#366;" /><glyph d="M647 750 222 0H184L75 750H115L211 47L601 750Z" glyph-name="V" horiz-adv-x="547" unicode="V" /><glyph d="M615 326Q595 232 566 168Q537 104 497.5 64.5Q458 25 408 7.5Q358 -10 297 -10Q254 -10 216 0.5Q178 11 150 34.5Q122 58 106 96Q90 134 90 189Q90 248 106 324L197 750H237L147 326Q139 286 134 251.5Q129 217 129 187Q129 107 173.5 65.5Q218 24 302 24Q361 24 404.5 43.5Q448 63 480.5 101Q513 139 535.5 195Q558 251 574 324L644 652Q647 666 647 677Q647 721 598 721Q589 721 578.5 720Q568 719 558 719Q547 717 535 716V750Q547 751 560 753Q571 754 583.5 754.5Q596 755 607 755Q687 755 687 684Q687 670 684 652Z" glyph-name="V.round" horiz-adv-x="685" unicode="&#61747;" /><glyph d="M1118 750 703 0H665L584 688L217 0H179L80 750H120L206 47L576 750H618L692 47L1072 750Z" glyph-name="W" horiz-adv-x="1018" unicode="W" /><glyph d="M1073 326Q1053 232 1024 168Q995 104 955.5 64.5Q916 25 866 7.5Q816 -10 755 -10Q715 -10 680 -1Q645 8 617.5 27.5Q590 47 572.5 78.5Q555 110 550 155Q505 64 441.5 27Q378 -10 292 -10Q251 -10 214 0.5Q177 11 149.5 34.5Q122 58 106 96Q90 134 90 189Q90 248 106 324L197 750H232L147 326Q139 286 134 251.5Q129 217 129 187Q129 107 173 65.5Q217 24 297 24Q407 24 468.5 96Q530 168 560 307L655 750H695L605 326Q598 295 592.5 259Q587 223 587 187Q587 107 631.5 65.5Q676 24 760 24Q819 24 862.5 43.5Q906 63 938.5 101Q971 139 993.5 195Q1016 251 1032 324L1102 652Q1105 666 1105 677Q1105 721 1056 721Q1047 721 1036.5 720Q1026 719 1016 719Q1005 717 993 716V750Q1005 751 1018 753Q1029 754 1041.5 754.5Q1054 755 1065 755Q1145 755 1145 684Q1145 670 1142 652Z" glyph-name="W.round" horiz-adv-x="1143" unicode="&#61749;" /><glyph d="M331 371 500 0H460L305 340L19 0H-30L288 378L119 750H159L314 409L600 750H649Z" glyph-name="X" horiz-adv-x="579" unicode="X" /><glyph d="M77 750Q86 751 96 753Q104 754 112.5 754.5Q121 755 129 755Q164 755 185.5 745.5Q207 736 218 707L329 411L604 750H649L343 374L459 65Q467 43 483 36Q499 29 525 29Q531 29 538 30Q545 31 552 32Q560 33 568 34V0Q559 -1 550 -3Q541 -4 532.5 -4.5Q524 -5 516 -5Q481 -5 459.5 5Q438 15 427 43L315 340L39 0H-5L301 377L186 685Q178 707 162 714Q146 721 120 721Q114 721 107 720Q100 719 93 719Q85 717 77 716Z" glyph-name="X.round" horiz-adv-x="609" unicode="&#61752;" /><glyph d="M620 750 291 356 216 0H176L251 357L90 750H130L276 392L575 750Z" glyph-name="Y" horiz-adv-x="520" unicode="Y" /><glyph d="M605 619Q586 528 558 464.5Q530 401 493 361.5Q456 322 411 303.5Q366 285 312 283L252 0H212L272 284Q237 287 205.5 299.5Q174 312 150.5 335.5Q127 359 113.5 395Q100 431 100 482Q100 541 116 617L144 750H183L157 619Q149 579 144 544.5Q139 510 139 480Q139 400 182.5 358.5Q226 317 302 317Q412 317 473 394Q534 471 565 617Q572 649 573.5 660Q575 671 575 677Q575 721 526 721Q517 721 506.5 720Q496 719 486 719Q475 717 463 716V750Q474 751 486 753Q496 754 508 754.5Q520 755 531 755Q571 755 593 737Q615 719 615 684Q615 676 614 664.5Q613 653 605 619Z" glyph-name="Y.round" horiz-adv-x="595" unicode="&#61760;" /><glyph d="M620 750 291 356 216 0H176L251 357L90 750H130L276 392L575 750ZM371 790H331L441 930H491Z" glyph-name="Yacute" horiz-adv-x="520" unicode="&#221;" /><glyph d="M605 619Q586 528 558 464.5Q530 401 493 361.5Q456 322 411 303.5Q366 285 312 283L252 0H212L272 284Q237 287 205.5 299.5Q174 312 150.5 335.5Q127 359 113.5 395Q100 431 100 482Q100 541 116 617L144 750H183L157 619Q149 579 144 544.5Q139 510 139 480Q139 400 182.5 358.5Q226 317 302 317Q412 317 473 394Q534 471 565 617Q572 649 573.5 660Q575 671 575 677Q575 721 526 721Q517 721 506.5 720Q496 719 486 719Q475 717 463 716V750Q474 751 486 753Q496 754 508 754.5Q520 755 531 755Q571 755 593 737Q615 719 615 684Q615 676 614 664.5Q613 653 605 619ZM385 790H345L455 930H505Z" glyph-name="Yacute.round" horiz-adv-x="595" unicode="&#61762;" /><glyph d="M620 750 291 356 216 0H176L251 357L90 750H130L276 392L575 750ZM489 860Q489 831 458 831Q444 831 436 838Q428 845 428 859Q428 872 436.5 880Q445 888 459 888Q473 888 481 881Q489 874 489 860ZM309 860Q309 831 278 831Q264 831 256 838Q248 845 248 859Q248 872 256.5 880Q265 888 279 888Q293 888 301 881Q309 874 309 860Z" glyph-name="Ydieresis" horiz-adv-x="520" unicode="&#376;" /><glyph d="M605 619Q586 528 558 464.5Q530 401 493 361.5Q456 322 411 303.5Q366 285 312 283L252 0H212L272 284Q237 287 205.5 299.5Q174 312 150.5 335.5Q127 359 113.5 395Q100 431 100 482Q100 541 116 617L144 750H183L157 619Q149 579 144 544.5Q139 510 139 480Q139 400 182.5 358.5Q226 317 302 317Q412 317 473 394Q534 471 565 617Q572 649 573.5 660Q575 671 575 677Q575 721 526 721Q517 721 506.5 720Q496 719 486 719Q475 717 463 716V750Q474 751 486 753Q496 754 508 754.5Q520 755 531 755Q571 755 593 737Q615 719 615 684Q615 676 614 664.5Q613 653 605 619ZM334 860Q334 831 303 831Q289 831 281 838Q273 845 273 859Q273 872 281.5 880Q290 888 304 888Q318 888 326 881Q334 874 334 860ZM514 860Q514 831 483 831Q469 831 461 838Q453 845 453 859Q453 872 461.5 880Q470 888 484 888Q498 888 506 881Q514 874 514 860Z" glyph-name="Ydieresis.round" horiz-adv-x="595" unicode="&#61765;" /><glyph d="M-10 0V34L555 716H115V750H602V716L37 34H470V0Z" glyph-name="Z" horiz-adv-x="552" unicode="Z" /><glyph d="M-10 0V34L555 716H115V750H602V716L37 34H470V0ZM379 790H339L449 930H499Z" glyph-name="Zacute" horiz-adv-x="552" unicode="&#377;" /><glyph d="M-10 0V34L555 716H115V750H602V716L37 34H470V0ZM374 816 486 930H533L389 790H353L267 930H306Z" glyph-name="Zcaron" horiz-adv-x="552" unicode="&#381;" /><glyph d="M-10 0V34L555 716H115V750H602V716L37 34H470V0ZM408 864Q408 831 372 831Q360 831 352.5 837Q345 843 345 854Q345 888 382 888Q394 888 401 881.5Q408 875 408 864Z" glyph-name="Zdotaccent" horiz-adv-x="552" unicode="&#379;" /><glyph d="M375 94Q342 48 299.5 19Q257 -10 195 -10Q122 -10 82.5 34.5Q43 79 43 160Q43 221 58 284.5Q73 348 104.5 400.5Q136 453 185.5 486.5Q235 520 304 520Q357 520 392 493.5Q427 467 442 419L461 510H501L412 94Q404 56 415 42.5Q426 29 458 29Q464 29 471 30Q478 31 485 32Q493 33 501 34V0Q492 -1 483 -3Q474 -4 465.5 -4.5Q457 -5 449 -5Q401 -5 380 18.5Q359 42 375 94ZM299 486Q244 486 203.5 455.5Q163 425 136 377.5Q109 330 96 273.5Q83 217 83 165Q83 96 112 60Q141 24 200 24Q255 24 295.5 54.5Q336 85 363 132Q390 179 403 235.5Q416 292 416 343Q416 413 387.5 449.5Q359 486 299 486Z" glyph-name="a" horiz-adv-x="559" unicode="a" /><glyph d="M195 -10Q122 -10 82.5 34.5Q43 79 43 160Q43 221 58 284.5Q73 348 104.5 400.5Q136 453 185.5 486.5Q235 520 304 520Q357 520 392 493.5Q427 467 442 419L461 510H501L414 105Q405 62 421.5 43Q438 24 478 24Q491 24 504 25.5Q517 27 528 29Q540 31 551 34V0Q539 -3 525 -5Q513 -7 498.5 -8.5Q484 -10 469 -10Q417 -10 391 14.5Q365 39 371 89Q339 45 297 17.5Q255 -10 195 -10ZM299 486Q244 486 203.5 455.5Q163 425 136 377.5Q109 330 96 273.5Q83 217 83 165Q83 96 112 60Q141 24 200 24Q255 24 295.5 54.5Q336 85 363 132Q390 179 403 235.5Q416 292 416 343Q416 413 387.5 449.5Q359 486 299 486Z" glyph-name="a.end" horiz-adv-x="561" unicode="&#58016;" /><glyph d="M375 94Q342 48 299.5 19Q257 -10 195 -10Q122 -10 82.5 34.5Q43 79 43 160Q43 221 58 284.5Q73 348 104.5 400.5Q136 453 185.5 486.5Q235 520 304 520Q357 520 392 493.5Q427 467 442 419L461 510H501L412 94Q404 56 415 42.5Q426 29 458 29Q464 29 471 30Q478 31 485 32Q493 33 501 34V0Q492 -1 483 -3Q474 -4 465.5 -4.5Q457 -5 449 -5Q401 -5 380 18.5Q359 42 375 94ZM299 486Q244 486 203.5 455.5Q163 425 136 377.5Q109 330 96 273.5Q83 217 83 165Q83 96 112 60Q141 24 200 24Q255 24 295.5 54.5Q336 85 363 132Q390 179 403 235.5Q416 292 416 343Q416 413 387.5 449.5Q359 486 299 486ZM340 590H300L410 730H460Z" glyph-name="aacute" horiz-adv-x="559" unicode="&#225;" /><glyph d="M342 590H302L412 730H462ZM195 -10Q122 -10 82.5 34.5Q43 79 43 160Q43 221 58 284.5Q73 348 104.5 400.5Q136 453 185.5 486.5Q235 520 304 520Q357 520 392 493.5Q427 467 442 419L461 510H501L414 105Q405 62 421.5 43Q438 24 478 24Q491 24 504 25.5Q517 27 528 29Q540 31 551 34V0Q539 -3 525 -5Q513 -7 498.5 -8.5Q484 -10 469 -10Q417 -10 391 14.5Q365 39 371 89Q339 45 297 17.5Q255 -10 195 -10ZM299 486Q244 486 203.5 455.5Q163 425 136 377.5Q109 330 96 273.5Q83 217 83 165Q83 96 112 60Q141 24 200 24Q255 24 295.5 54.5Q336 85 363 132Q390 179 403 235.5Q416 292 416 343Q416 413 387.5 449.5Q359 486 299 486Z" glyph-name="aacute.end" horiz-adv-x="561" unicode="&#59701;" /><glyph d="M375 94Q342 48 299.5 19Q257 -10 195 -10Q122 -10 82.5 34.5Q43 79 43 160Q43 221 58 284.5Q73 348 104.5 400.5Q136 453 185.5 486.5Q235 520 304 520Q357 520 392 493.5Q427 467 442 419L461 510H501L412 94Q404 56 415 42.5Q426 29 458 29Q464 29 471 30Q478 31 485 32Q493 33 501 34V0Q492 -1 483 -3Q474 -4 465.5 -4.5Q457 -5 449 -5Q401 -5 380 18.5Q359 42 375 94ZM299 486Q244 486 203.5 455.5Q163 425 136 377.5Q109 330 96 273.5Q83 217 83 165Q83 96 112 60Q141 24 200 24Q255 24 295.5 54.5Q336 85 363 132Q390 179 403 235.5Q416 292 416 343Q416 413 387.5 449.5Q359 486 299 486ZM473 686Q473 667 465 649.5Q457 632 441.5 618Q426 604 402 595.5Q378 587 346 587Q314 587 291 595.5Q268 604 253 618Q238 632 230.5 649.5Q223 667 223 686H261Q263 652 287 634Q311 616 348 616Q386 616 409.5 634Q433 652 435 686Z" glyph-name="abreve" horiz-adv-x="559" unicode="&#259;" /><glyph d="M195 -10Q122 -10 82.5 34.5Q43 79 43 160Q43 221 58 284.5Q73 348 104.5 400.5Q136 453 185.5 486.5Q235 520 304 520Q357 520 392 493.5Q427 467 442 419L461 510H501L414 105Q405 62 421.5 43Q438 24 478 24Q491 24 504 25.5Q517 27 528 29Q540 31 551 34V0Q539 -3 525 -5Q513 -7 498.5 -8.5Q484 -10 469 -10Q417 -10 391 14.5Q365 39 371 89Q339 45 297 17.5Q255 -10 195 -10ZM299 486Q244 486 203.5 455.5Q163 425 136 377.5Q109 330 96 273.5Q83 217 83 165Q83 96 112 60Q141 24 200 24Q255 24 295.5 54.5Q336 85 363 132Q390 179 403 235.5Q416 292 416 343Q416 413 387.5 449.5Q359 486 299 486ZM473 686Q473 667 465 649.5Q457 632 441.5 618Q426 604 402 595.5Q378 587 346 587Q314 587 291 595.5Q268 604 253 618Q238 632 230.5 649.5Q223 667 223 686H261Q263 652 287 634Q311 616 348 616Q386 616 409.5 634Q433 652 435 686Z" glyph-name="abreve.end" horiz-adv-x="561" unicode="&#59714;" /><glyph d="M375 94Q342 48 299.5 19Q257 -10 195 -10Q122 -10 82.5 34.5Q43 79 43 160Q43 221 58 284.5Q73 348 104.5 400.5Q136 453 185.5 486.5Q235 520 304 520Q357 520 392 493.5Q427 467 442 419L461 510H501L412 94Q404 56 415 42.5Q426 29 458 29Q464 29 471 30Q478 31 485 32Q493 33 501 34V0Q492 -1 483 -3Q474 -4 465.5 -4.5Q457 -5 449 -5Q401 -5 380 18.5Q359 42 375 94ZM299 486Q244 486 203.5 455.5Q163 425 136 377.5Q109 330 96 273.5Q83 217 83 165Q83 96 112 60Q141 24 200 24Q255 24 295.5 54.5Q336 85 363 132Q390 179 403 235.5Q416 292 416 343Q416 413 387.5 449.5Q359 486 299 486ZM349 704 237 590H190L334 730H372L458 590H417Z" glyph-name="acircumflex" horiz-adv-x="559" unicode="&#226;" /><glyph d="M347 704 235 590H188L332 730H370L456 590H415ZM195 -10Q122 -10 82.5 34.5Q43 79 43 160Q43 221 58 284.5Q73 348 104.5 400.5Q136 453 185.5 486.5Q235 520 304 520Q357 520 392 493.5Q427 467 442 419L461 510H501L414 105Q405 62 421.5 43Q438 24 478 24Q491 24 504 25.5Q517 27 528 29Q540 31 551 34V0Q539 -3 525 -5Q513 -7 498.5 -8.5Q484 -10 469 -10Q417 -10 391 14.5Q365 39 371 89Q339 45 297 17.5Q255 -10 195 -10ZM299 486Q244 486 203.5 455.5Q163 425 136 377.5Q109 330 96 273.5Q83 217 83 165Q83 96 112 60Q141 24 200 24Q255 24 295.5 54.5Q336 85 363 132Q390 179 403 235.5Q416 292 416 343Q416 413 387.5 449.5Q359 486 299 486Z" glyph-name="acircumflex.end" horiz-adv-x="561" unicode="&#59721;" /><glyph d="M180 590H140L250 730H300Z" glyph-name="acute" horiz-adv-x="390" unicode="&#180;" /><glyph d="M375 94Q342 48 299.5 19Q257 -10 195 -10Q122 -10 82.5 34.5Q43 79 43 160Q43 221 58 284.5Q73 348 104.5 400.5Q136 453 185.5 486.5Q235 520 304 520Q357 520 392 493.5Q427 467 442 419L461 510H501L412 94Q404 56 415 42.5Q426 29 458 29Q464 29 471 30Q478 31 485 32Q493 33 501 34V0Q492 -1 483 -3Q474 -4 465.5 -4.5Q457 -5 449 -5Q401 -5 380 18.5Q359 42 375 94ZM299 486Q244 486 203.5 455.5Q163 425 136 377.5Q109 330 96 273.5Q83 217 83 165Q83 96 112 60Q141 24 200 24Q255 24 295.5 54.5Q336 85 363 132Q390 179 403 235.5Q416 292 416 343Q416 413 387.5 449.5Q359 486 299 486ZM275 660Q275 631 244 631Q230 631 222 638Q214 645 214 659Q214 672 222.5 680Q231 688 245 688Q259 688 267 681Q275 674 275 660ZM455 660Q455 631 424 631Q410 631 402 638Q394 645 394 659Q394 672 402.5 680Q411 688 425 688Q439 688 447 681Q455 674 455 660Z" glyph-name="adieresis" horiz-adv-x="559" unicode="&#228;" /><glyph d="M279 660Q279 631 248 631Q234 631 226 638Q218 645 218 659Q218 672 226.5 680Q235 688 249 688Q263 688 271 681Q279 674 279 660ZM459 660Q459 631 428 631Q414 631 406 638Q398 645 398 659Q398 672 406.5 680Q415 688 429 688Q443 688 451 681Q459 674 459 660ZM195 -10Q122 -10 82.5 34.5Q43 79 43 160Q43 221 58 284.5Q73 348 104.5 400.5Q136 453 185.5 486.5Q235 520 304 520Q357 520 392 493.5Q427 467 442 419L461 510H501L414 105Q405 62 421.5 43Q438 24 478 24Q491 24 504 25.5Q517 27 528 29Q540 31 551 34V0Q539 -3 525 -5Q513 -7 498.5 -8.5Q484 -10 469 -10Q417 -10 391 14.5Q365 39 371 89Q339 45 297 17.5Q255 -10 195 -10ZM299 486Q244 486 203.5 455.5Q163 425 136 377.5Q109 330 96 273.5Q83 217 83 165Q83 96 112 60Q141 24 200 24Q255 24 295.5 54.5Q336 85 363 132Q390 179 403 235.5Q416 292 416 343Q416 413 387.5 449.5Q359 486 299 486Z" glyph-name="adieresis.end" horiz-adv-x="561" unicode="&#59734;" /><glyph d="M441 183Q441 141 452.5 111Q464 81 483.5 61.5Q503 42 530.5 33Q558 24 589 24Q619 24 645 29.5Q671 35 691 42Q714 49 733 59V23Q715 14 691 7Q670 0 642.5 -5Q615 -10 580 -10Q508 -10 462.5 29.5Q417 69 407 140Q375 74 322.5 32Q270 -10 195 -10Q122 -10 82.5 34.5Q43 79 43 160Q43 221 58 284.5Q73 348 104.5 400.5Q136 453 185.5 486.5Q235 520 304 520Q367 520 405 484.5Q443 449 451 383Q483 443 534 481.5Q585 520 657 520Q726 520 765.5 480.5Q805 441 805 381Q805 347 793.5 317.5Q782 288 757.5 266.5Q733 245 695.5 232.5Q658 220 605 220Q535 220 491 228Q447 236 444 237Q441 210 441 183ZM299 486Q244 486 203.5 455.5Q163 425 136 377.5Q109 330 96 273.5Q83 217 83 165Q83 96 112 60Q141 24 200 24Q255 24 295.5 54.5Q336 85 363 132Q390 179 403 235.5Q416 292 416 343Q416 413 387.5 449.5Q359 486 299 486ZM652 486Q610 486 576.5 467.5Q543 449 517.5 419Q492 389 475.5 349.5Q459 310 450 268Q455 267 497.5 259.5Q540 252 613 252Q654 252 682.5 262Q711 272 729.5 290Q748 308 756.5 331.5Q765 355 765 382Q765 429 734 457.5Q703 486 652 486Z" glyph-name="ae" horiz-adv-x="827" unicode="&#230;" /><glyph d="M445 183Q445 141 456.5 111Q468 81 487.5 61.5Q507 42 534.5 33Q562 24 593 24Q623 24 649 29.5Q675 35 695 42Q718 49 737 59V23Q719 14 695 7Q674 0 646.5 -5Q619 -10 584 -10Q512 -10 466.5 29.5Q421 69 411 140Q379 74 326.5 32Q274 -10 199 -10Q126 -10 86.5 34.5Q47 79 47 160Q47 221 62 284.5Q77 348 108.5 400.5Q140 453 189.5 486.5Q239 520 308 520Q371 520 409 484.5Q447 449 455 383Q487 443 538 481.5Q589 520 661 520Q730 520 769.5 475Q809 430 809 348Q809 293 797 237H448Q445 210 445 183ZM303 486Q248 486 207.5 455.5Q167 425 140 377.5Q113 330 100 273.5Q87 217 87 165Q87 96 116 60Q145 24 204 24Q259 24 299.5 54.5Q340 85 367 132Q394 179 407 235.5Q420 292 420 343Q420 413 391.5 449.5Q363 486 303 486ZM656 486Q614 486 580.5 467.5Q547 449 521.5 419Q496 389 479.5 350Q463 311 454 269H762Q768 307 768 343Q768 413 740 449.5Q712 486 656 486Z" glyph-name="ae.ss01" horiz-adv-x="855" unicode="&#59749;" /><glyph d="M375 94Q342 48 299.5 19Q257 -10 195 -10Q122 -10 82.5 34.5Q43 79 43 160Q43 221 58 284.5Q73 348 104.5 400.5Q136 453 185.5 486.5Q235 520 304 520Q357 520 392 493.5Q427 467 442 419L461 510H501L412 94Q404 56 415 42.5Q426 29 458 29Q464 29 471 30Q478 31 485 32Q493 33 501 34V0Q492 -1 483 -3Q474 -4 465.5 -4.5Q457 -5 449 -5Q401 -5 380 18.5Q359 42 375 94ZM299 486Q244 486 203.5 455.5Q163 425 136 377.5Q109 330 96 273.5Q83 217 83 165Q83 96 112 60Q141 24 200 24Q255 24 295.5 54.5Q336 85 363 132Q390 179 403 235.5Q416 292 416 343Q416 413 387.5 449.5Q359 486 299 486ZM193 730H243L353 590H313Z" glyph-name="agrave" horiz-adv-x="559" unicode="&#224;" /><glyph d="M187 730H237L347 590H307ZM195 -10Q122 -10 82.5 34.5Q43 79 43 160Q43 221 58 284.5Q73 348 104.5 400.5Q136 453 185.5 486.5Q235 520 304 520Q357 520 392 493.5Q427 467 442 419L461 510H501L414 105Q405 62 421.5 43Q438 24 478 24Q491 24 504 25.5Q517 27 528 29Q540 31 551 34V0Q539 -3 525 -5Q513 -7 498.5 -8.5Q484 -10 469 -10Q417 -10 391 14.5Q365 39 371 89Q339 45 297 17.5Q255 -10 195 -10ZM299 486Q244 486 203.5 455.5Q163 425 136 377.5Q109 330 96 273.5Q83 217 83 165Q83 96 112 60Q141 24 200 24Q255 24 295.5 54.5Q336 85 363 132Q390 179 403 235.5Q416 292 416 343Q416 413 387.5 449.5Q359 486 299 486Z" glyph-name="agrave.end" horiz-adv-x="561" unicode="&#59751;" /><glyph d="M375 94Q342 48 299.5 19Q257 -10 195 -10Q122 -10 82.5 34.5Q43 79 43 160Q43 221 58 284.5Q73 348 104.5 400.5Q136 453 185.5 486.5Q235 520 304 520Q357 520 392 493.5Q427 467 442 419L461 510H501L412 94Q404 56 415 42.5Q426 29 458 29Q464 29 471 30Q478 31 485 32Q493 33 501 34V0Q492 -1 483 -3Q474 -4 465.5 -4.5Q457 -5 449 -5Q401 -5 380 18.5Q359 42 375 94ZM299 486Q244 486 203.5 455.5Q163 425 136 377.5Q109 330 96 273.5Q83 217 83 165Q83 96 112 60Q141 24 200 24Q255 24 295.5 54.5Q336 85 363 132Q390 179 403 235.5Q416 292 416 343Q416 413 387.5 449.5Q359 486 299 486ZM177 636V670H494V636Z" glyph-name="amacron" horiz-adv-x="559" unicode="&#257;" /><glyph d="M182 636V670H499V636ZM195 -10Q122 -10 82.5 34.5Q43 79 43 160Q43 221 58 284.5Q73 348 104.5 400.5Q136 453 185.5 486.5Q235 520 304 520Q357 520 392 493.5Q427 467 442 419L461 510H501L414 105Q405 62 421.5 43Q438 24 478 24Q491 24 504 25.5Q517 27 528 29Q540 31 551 34V0Q539 -3 525 -5Q513 -7 498.5 -8.5Q484 -10 469 -10Q417 -10 391 14.5Q365 39 371 89Q339 45 297 17.5Q255 -10 195 -10ZM299 486Q244 486 203.5 455.5Q163 425 136 377.5Q109 330 96 273.5Q83 217 83 165Q83 96 112 60Q141 24 200 24Q255 24 295.5 54.5Q336 85 363 132Q390 179 403 235.5Q416 292 416 343Q416 413 387.5 449.5Q359 486 299 486Z" glyph-name="amacron.end" horiz-adv-x="561" unicode="&#59764;" /><glyph d="M458 92Q458 104 457 115Q456 126 454 137Q406 71 346.5 30.5Q287 -10 209 -10Q173 -10 142 0.5Q111 11 88.5 30Q66 49 53.5 76Q41 103 41 136Q41 186 60.5 224Q80 262 111.5 292Q143 322 183 346Q223 370 265 391Q243 410 223.5 429Q204 448 189 469.5Q174 491 165.5 515Q157 539 157 568Q157 613 174 648.5Q191 684 220.5 709Q250 734 290 747Q330 760 376 760Q409 760 437.5 749Q466 738 487.5 717.5Q509 697 521 668Q533 639 533 604Q533 561 516.5 529Q500 497 472 471.5Q444 446 408 426Q372 406 333 386Q371 355 408 317.5Q445 280 468 230Q483 260 494.5 293Q506 326 513 358H553Q530 264 487 187Q498 148 498 102Q498 86 497.5 73Q497 60 501 50Q505 40 516 34.5Q527 29 549 29Q555 29 562 30Q569 31 576 32Q584 33 592 34V0Q583 -1 574 -3Q565 -4 556.5 -4.5Q548 -5 540 -5Q499 -5 478.5 9Q458 23 458 58ZM216 24Q249 24 280.5 36.5Q312 49 341 70.5Q370 92 396 122Q422 152 443 186Q422 246 381 288.5Q340 331 295 367Q255 347 216.5 325Q178 303 148.5 276Q119 249 101 215Q83 181 83 136Q83 82 120 53Q157 24 216 24ZM197 568Q197 543 205.5 521.5Q214 500 228 481Q242 462 261.5 444.5Q281 427 302 410Q340 429 374 448Q408 467 434.5 489.5Q461 512 476.5 539.5Q492 567 492 604Q492 660 456.5 693Q421 726 369 726Q332 726 300.5 715Q269 704 246 683Q223 662 210 633Q197 604 197 568Z" glyph-name="ampersand" horiz-adv-x="632" unicode="&amp;" /><glyph d="M725 0Q716 -1 707 -3Q698 -4 688 -4.5Q678 -5 667 -5Q604 -5 577 26.5Q550 58 556 117Q516 61 456 25.5Q396 -10 317 -10Q223 -10 166.5 37Q110 84 110 188Q110 247 125 306Q140 365 171.5 412.5Q203 460 251 490Q299 520 365 520Q395 520 420.5 509.5Q446 499 464.5 480.5Q483 462 493 436.5Q503 411 503 381Q503 347 490 317.5Q477 288 451.5 266.5Q426 245 389 232.5Q352 220 303 220Q272 220 245 222.5Q218 225 198 228Q178 231 166 234Q154 237 152 237Q150 223 149.5 212Q149 201 149 188Q149 103 194 63.5Q239 24 324 24Q376 24 420 45.5Q464 67 497.5 102Q531 137 554 180.5Q577 224 586 269L630 476H517V510H818V476H670L601 150Q587 81 608 55Q629 29 676 29Q685 29 693.5 30Q702 31 709 33Q717 34 725 36ZM360 486Q318 486 284.5 467.5Q251 449 225.5 419Q200 389 183.5 349.5Q167 310 158 268Q163 267 204 259.5Q245 252 311 252Q385 252 424 290Q463 328 463 382Q463 429 433 457.5Q403 486 360 486Z" glyph-name="ampersand.001" horiz-adv-x="848" unicode="&#60060;" /><glyph d="M375 94Q342 48 299.5 19Q257 -10 195 -10Q122 -10 82.5 34.5Q43 79 43 160Q43 221 58 284.5Q73 348 104.5 400.5Q136 453 185.5 486.5Q235 520 304 520Q357 520 392 493.5Q427 467 442 419L461 510H501L412 94Q404 56 415 42.5Q426 29 458 29Q464 29 471 30Q478 31 485 32Q493 33 501 34V0Q464 -38 450.5 -60Q437 -82 437 -98Q437 -112 445.5 -118Q454 -124 467 -124Q474 -124 481 -122Q488 -120 494 -118Q501 -115 507 -111V-142Q501 -145 494 -148Q487 -150 479 -152Q471 -154 462 -154Q436 -154 416.5 -142.5Q397 -131 397 -103Q397 -78 414 -54Q431 -30 460 -4Q456 -5 449 -5Q401 -5 380 18.5Q359 42 375 94ZM299 486Q244 486 203.5 455.5Q163 425 136 377.5Q109 330 96 273.5Q83 217 83 165Q83 96 112 60Q141 24 200 24Q255 24 295.5 54.5Q336 85 363 132Q390 179 403 235.5Q416 292 416 343Q416 413 387.5 449.5Q359 486 299 486Z" glyph-name="aogonek" horiz-adv-x="559" unicode="&#261;" /><glyph d="M195 -10Q122 -10 82.5 34.5Q43 79 43 160Q43 221 58 284.5Q73 348 104.5 400.5Q136 453 185.5 486.5Q235 520 304 520Q357 520 392 493.5Q427 467 442 419L461 510H501L414 105Q405 62 421.5 43Q438 24 478 24Q491 24 504 25.5Q517 27 528 29Q540 31 551 34V0Q514 -38 500.5 -60Q487 -82 487 -98Q487 -112 495.5 -118Q504 -124 517 -124Q524 -124 531 -122Q538 -120 544 -118Q551 -115 557 -111V-142Q551 -145 544 -148Q537 -150 529 -152Q521 -154 512 -154Q486 -154 466.5 -142.5Q447 -131 447 -103Q447 -79 463.5 -56Q480 -33 507 -7Q489 -10 469 -10Q417 -10 391 14.5Q365 39 371 89Q339 45 297 17.5Q255 -10 195 -10ZM299 486Q244 486 203.5 455.5Q163 425 136 377.5Q109 330 96 273.5Q83 217 83 165Q83 96 112 60Q141 24 200 24Q255 24 295.5 54.5Q336 85 363 132Q390 179 403 235.5Q416 292 416 343Q416 413 387.5 449.5Q359 486 299 486Z" glyph-name="aogonek.end" horiz-adv-x="561" unicode="&#59778;" /><glyph d="M865 349Q888 341 914.5 310Q941 279 952 222Q955 207 958 188Q961 169 963.5 150Q966 131 967.5 114Q969 97 969 85Q969 30 912.5 10Q856 -10 744 -10Q679 -10 639 -4.5Q599 1 575 7.5Q551 14 540 19.5Q529 25 521 25Q513 25 506 19.5Q499 14 480.5 8Q462 2 426.5 -3.5Q391 -9 325 -9Q294 -9 261.5 -8Q229 -7 201 -2Q173 3 151 13Q129 23 118 40Q109 54 100.5 88.5Q92 123 85.5 169.5Q79 216 74.5 269.5Q70 323 70 374Q70 425 72.5 478Q75 531 82.5 577.5Q90 624 103 659.5Q116 695 137 711Q148 719 167.5 728Q187 737 229 744Q271 751 342.5 755.5Q414 760 529 760Q640 760 721.5 749.5Q803 739 857 712.5Q911 686 937 641Q963 596 963 526Q963 481 952 451Q941 421 926 401.5Q911 382 894 370.5Q877 359 865 352Q862 351 865 349ZM778 343Q773 344 773 348Q773 353 778 355Q802 367 824.5 379Q847 391 865 409Q883 427 894 455Q905 483 905 526Q905 583 879 618.5Q853 654 804 674Q755 694 685.5 701Q616 708 529 708Q488 708 436 706.5Q384 705 334.5 701Q285 697 245 690.5Q205 684 187 674Q157 657 142.5 577.5Q128 498 128 374Q128 331 130.5 285Q133 239 138 198Q143 157 150.5 124.5Q158 92 168 77Q183 53 221.5 48Q260 43 323 43Q344 43 373.5 43Q403 43 429 47Q455 51 473.5 61Q492 71 492 92L494 400H397Q388 400 385 408Q382 416 382 424Q383 432 387.5 442.5Q392 453 400 453H647Q654 453 656.5 447Q659 441 659 433Q659 425 655.5 412.5Q652 400 642 400H549L550 92Q550 74 570.5 64.5Q591 55 620.5 50Q650 45 683 44Q716 43 742 43Q825 43 868.5 53Q912 63 912 101Q912 105 910.5 116Q909 127 907.5 141.5Q906 156 904 171Q902 186 900 198Q896 224 887 248Q878 272 863 291.5Q848 311 827 325Q806 339 778 343Z" glyph-name="apple" horiz-adv-x="1019" unicode="&#63743;" /><glyph d="M117 399Q124 419 137 435Q149 450 167.5 460.5Q186 471 214 471Q238 471 254.5 463Q271 455 285 446Q299 437 312.5 429Q326 421 345 421Q362 421 373.5 428.5Q385 436 392 445Q401 456 406 469L444 459Q437 439 424 423Q412 408 393.5 397.5Q375 387 347 387Q322 387 304.5 395Q287 403 273 412Q259 421 246 429Q233 437 216 437Q199 437 187.5 429.5Q176 422 169 413Q160 402 155 389ZM90 260Q97 280 110 296Q122 311 140.5 321.5Q159 332 187 332Q211 332 227.5 324Q244 316 258 307Q272 298 285.5 290Q299 282 318 282Q335 282 346.5 289.5Q358 297 365 306Q374 317 379 330L417 320Q410 300 397 284Q385 269 366.5 258.5Q348 248 320 248Q295 248 277.5 256Q260 264 246 273Q232 282 219 290Q206 298 189 298Q172 298 160.5 290.5Q149 283 142 274Q133 263 128 250Z" glyph-name="approxequal" horiz-adv-x="474" unicode="&#8776;" /><glyph d="M375 94Q342 48 299.5 19Q257 -10 195 -10Q122 -10 82.5 34.5Q43 79 43 160Q43 221 58 284.5Q73 348 104.5 400.5Q136 453 185.5 486.5Q235 520 304 520Q357 520 392 493.5Q427 467 442 419L461 510H501L412 94Q404 56 415 42.5Q426 29 458 29Q464 29 471 30Q478 31 485 32Q493 33 501 34V0Q492 -1 483 -3Q474 -4 465.5 -4.5Q457 -5 449 -5Q401 -5 380 18.5Q359 42 375 94ZM299 486Q244 486 203.5 455.5Q163 425 136 377.5Q109 330 96 273.5Q83 217 83 165Q83 96 112 60Q141 24 200 24Q255 24 295.5 54.5Q336 85 363 132Q390 179 403 235.5Q416 292 416 343Q416 413 387.5 449.5Q359 486 299 486ZM470 661Q470 642 462 624Q454 606 438.5 592Q423 578 399 569.5Q375 561 343 561Q311 561 288 569.5Q265 578 250 591.5Q235 605 227.5 622.5Q220 640 220 659Q220 678 228 696Q236 714 251.5 728.5Q267 743 291 751.5Q315 760 347 760Q379 760 402 751.5Q425 743 440 729Q455 715 462.5 697.5Q470 680 470 661ZM345 590Q383 590 407.5 608Q432 626 432 660Q432 693 407.5 712Q383 731 345 731Q308 731 283 712Q258 693 258 660Q258 626 283 608Q308 590 345 590Z" glyph-name="aring" horiz-adv-x="559" unicode="&#229;" /><glyph d="M466 661Q466 642 458 624Q450 606 434.5 592Q419 578 395 569.5Q371 561 339 561Q307 561 284 569.5Q261 578 246 591.5Q231 605 223.5 622.5Q216 640 216 659Q216 678 224 696Q232 714 247.5 728.5Q263 743 287 751.5Q311 760 343 760Q375 760 398 751.5Q421 743 436 729Q451 715 458.5 697.5Q466 680 466 661ZM341 590Q379 590 403.5 608Q428 626 428 660Q428 693 403.5 712Q379 731 341 731Q304 731 279 712Q254 693 254 660Q254 626 279 608Q304 590 341 590ZM195 -10Q122 -10 82.5 34.5Q43 79 43 160Q43 221 58 284.5Q73 348 104.5 400.5Q136 453 185.5 486.5Q235 520 304 520Q357 520 392 493.5Q427 467 442 419L461 510H501L414 105Q405 62 421.5 43Q438 24 478 24Q491 24 504 25.5Q517 27 528 29Q540 31 551 34V0Q539 -3 525 -5Q513 -7 498.5 -8.5Q484 -10 469 -10Q417 -10 391 14.5Q365 39 371 89Q339 45 297 17.5Q255 -10 195 -10ZM299 486Q244 486 203.5 455.5Q163 425 136 377.5Q109 330 96 273.5Q83 217 83 165Q83 96 112 60Q141 24 200 24Q255 24 295.5 54.5Q336 85 363 132Q390 179 403 235.5Q416 292 416 343Q416 413 387.5 449.5Q359 486 299 486Z" glyph-name="aring.end" horiz-adv-x="561" unicode="&#59785;" /><glyph d="M306 724 185 580H140L292 750H332L410 580H365Z" glyph-name="asciicircum" horiz-adv-x="450" unicode="^" /><glyph d="M113 370Q120 390 133 406Q145 421 163.5 431.5Q182 442 210 442Q234 442 250.5 434Q267 426 281 417Q295 408 308.5 400Q322 392 341 392Q358 392 369.5 399.5Q381 407 388 416Q397 427 402 440L440 430Q433 410 420 394Q408 379 389.5 368.5Q371 358 343 358Q318 358 300.5 366Q283 374 269 383Q255 392 242 400Q229 408 212 408Q195 408 183.5 400.5Q172 393 165 384Q156 373 151 360Z" glyph-name="asciitilde" horiz-adv-x="530" unicode="~" /><glyph d="M355 569 588 645 600 607 367 531 511 333 479 310 335 508 191 310 159 333 302 531 70 607 82 645 315 569V814H355Z" glyph-name="asterisk" horiz-adv-x="610" unicode="*" /><glyph d="M446 119Q418 119 402.5 129.5Q387 140 383 166Q345 122 292 122Q251 122 228 146Q205 170 205 214Q205 253 217 285Q229 317 248.5 339.5Q268 362 294.5 374.5Q321 387 349 387Q376 387 394.5 374Q413 361 418 341L428 382H459L419 193Q417 183 417 178Q417 152 453 152Q465 152 484.5 160.5Q504 169 522.5 189.5Q541 210 554 244.5Q567 279 567 330Q567 368 553 397Q539 426 513.5 445.5Q488 465 452.5 475.5Q417 486 375 486Q315 486 262 467Q209 448 168.5 411.5Q128 375 104.5 322.5Q81 270 81 202Q81 157 96.5 123.5Q112 90 139.5 68Q167 46 204.5 35Q242 24 287 24Q324 24 355.5 29.5Q387 35 410 42Q438 49 460 59V20Q436 12 408 5Q382 -1 351 -5.5Q320 -10 285 -10Q231 -10 186 3.5Q141 17 108.5 43Q76 69 58 108Q40 147 40 199Q40 277 67.5 336.5Q95 396 141.5 437Q188 478 249 499Q310 520 377 520Q427 520 469 507Q511 494 542 470Q573 446 590.5 411.5Q608 377 608 333Q608 297 598 259Q588 221 568 190Q548 159 517.5 139Q487 119 446 119ZM343 358Q317 358 297.5 345Q278 332 264.5 311.5Q251 291 244.5 266Q238 241 238 217Q238 151 299 151Q318 151 337 160Q356 169 371 186.5Q386 204 395.5 230Q405 256 405 290Q405 323 388.5 340.5Q372 358 343 358Z" glyph-name="at" horiz-adv-x="648" unicode="@" /><glyph d="M375 94Q342 48 299.5 19Q257 -10 195 -10Q122 -10 82.5 34.5Q43 79 43 160Q43 221 58 284.5Q73 348 104.5 400.5Q136 453 185.5 486.5Q235 520 304 520Q357 520 392 493.5Q427 467 442 419L461 510H501L412 94Q404 56 415 42.5Q426 29 458 29Q464 29 471 30Q478 31 485 32Q493 33 501 34V0Q492 -1 483 -3Q474 -4 465.5 -4.5Q457 -5 449 -5Q401 -5 380 18.5Q359 42 375 94ZM299 486Q244 486 203.5 455.5Q163 425 136 377.5Q109 330 96 273.5Q83 217 83 165Q83 96 112 60Q141 24 200 24Q255 24 295.5 54.5Q336 85 363 132Q390 179 403 235.5Q416 292 416 343Q416 413 387.5 449.5Q359 486 299 486ZM166 630Q173 650 186 666Q198 681 216.5 691.5Q235 702 263 702Q287 702 303.5 694Q320 686 334 677Q348 668 361.5 660Q375 652 394 652Q411 652 422.5 659.5Q434 667 441 676Q450 687 455 700L493 690Q486 670 473 654Q461 639 442.5 628.5Q424 618 396 618Q371 618 353.5 626Q336 634 322 643Q308 652 295 660Q282 668 265 668Q248 668 236.5 660.5Q225 653 218 644Q209 633 204 620Z" glyph-name="atilde" horiz-adv-x="559" unicode="&#227;" /><glyph d="M173 630Q180 650 193 666Q205 681 223.5 691.5Q242 702 270 702Q294 702 310.5 694Q327 686 341 677Q355 668 368.5 660Q382 652 401 652Q418 652 429.5 659.5Q441 667 448 676Q457 687 462 700L500 690Q493 670 480 654Q468 639 449.5 628.5Q431 618 403 618Q378 618 360.5 626Q343 634 329 643Q315 652 302 660Q289 668 272 668Q255 668 243.5 660.5Q232 653 225 644Q216 633 211 620ZM195 -10Q122 -10 82.5 34.5Q43 79 43 160Q43 221 58 284.5Q73 348 104.5 400.5Q136 453 185.5 486.5Q235 520 304 520Q357 520 392 493.5Q427 467 442 419L461 510H501L414 105Q405 62 421.5 43Q438 24 478 24Q491 24 504 25.5Q517 27 528 29Q540 31 551 34V0Q539 -3 525 -5Q513 -7 498.5 -8.5Q484 -10 469 -10Q417 -10 391 14.5Q365 39 371 89Q339 45 297 17.5Q255 -10 195 -10ZM299 486Q244 486 203.5 455.5Q163 425 136 377.5Q109 330 96 273.5Q83 217 83 165Q83 96 112 60Q141 24 200 24Q255 24 295.5 54.5Q336 85 363 132Q390 179 403 235.5Q416 292 416 343Q416 413 387.5 449.5Q359 486 299 486Z" glyph-name="atilde.end" horiz-adv-x="561" unicode="&#59799;" /><glyph d="M346 520Q419 520 458.5 475.5Q498 431 498 350Q498 289 483 225.5Q468 162 436.5 109.5Q405 57 355.5 23.5Q306 -10 237 -10Q184 -10 149 16.5Q114 43 99 91L80 0H40L200 750H240L166 416Q199 462 241.5 491Q284 520 346 520ZM341 486Q286 486 245.5 455.5Q205 425 178 377.5Q151 330 138 273.5Q125 217 125 165Q125 96 154 60Q183 24 242 24Q297 24 337.5 54.5Q378 85 405 132Q432 179 445 235.5Q458 292 458 343Q458 413 429.5 449.5Q401 486 341 486Z" glyph-name="b" horiz-adv-x="542" unicode="b" /><glyph d="M100 790H141L270 -50H229Z" glyph-name="backslash" horiz-adv-x="380" unicode="\" /><glyph d="M245 847H285L60 -210H20Z" glyph-name="bar" horiz-adv-x="305" unicode="|" /><glyph d="M356 716Q316 716 283.5 704Q251 692 228 671.5Q205 651 192.5 623.5Q180 596 180 566Q180 546 184 526Q188 506 188 485Q188 449 168.5 415Q149 381 105 358Q126 344 135.5 324.5Q145 305 145 283Q145 254 135 231Q125 208 113 186.5Q101 165 91 143Q81 121 81 94Q81 55 109 28.5Q137 2 196 0V-34Q117 -34 78.5 4Q40 42 40 95Q40 124 50 146.5Q60 169 72 189Q84 209 94 229.5Q104 250 104 274Q104 295 91 314Q78 333 48 343V372Q77 379 96 391.5Q115 404 126.5 419.5Q138 435 143 452Q148 469 148 484Q148 504 144 524Q140 544 140 565Q140 604 155 637Q170 670 197.5 695Q225 720 265 734.5Q305 749 356 750Z" glyph-name="braceleft" horiz-adv-x="286" unicode="{" /><glyph d="M-40 0Q0 0 32 12Q64 24 87 44.5Q110 65 122.5 92Q135 119 135 150Q135 170 131 190Q127 210 127 231Q127 263 146.5 299Q166 335 211 358Q189 372 179.5 391.5Q170 411 170 433Q170 459 180 481.5Q190 504 202 526Q214 548 224 571.5Q234 595 234 622Q234 661 206 687.5Q178 714 119 716V750Q198 750 236.5 714.5Q275 679 275 625Q275 594 265 571Q255 548 243 527.5Q231 507 221 486.5Q211 466 211 442Q211 421 223.5 402Q236 383 267 373V344Q238 337 219 324.5Q200 312 188.5 296.5Q177 281 172 264Q167 247 167 232Q167 212 171 192Q175 172 175 150Q175 112 160.5 78.5Q146 45 118 20.5Q90 -4 50 -18.5Q10 -33 -40 -34Z" glyph-name="braceright" horiz-adv-x="275" unicode="}" /><glyph d="M0 -34 165 750H325V716H198L46 0H166V-34Z" glyph-name="bracketleft" horiz-adv-x="255" unicode="[" /><glyph d="M-50 -34V0H76L228 716H108V750H275L109 -34Z" glyph-name="bracketright" horiz-adv-x="255" unicode="]" /><glyph d="M404 686Q404 667 396 649.5Q388 632 372.5 618Q357 604 333 595.5Q309 587 277 587Q245 587 222 595.5Q199 604 184 618Q169 632 161.5 649.5Q154 667 154 686H192Q194 652 218 634Q242 616 279 616Q317 616 340.5 634Q364 652 366 686Z" glyph-name="breve" horiz-adv-x="560" unicode="&#728;" /><glyph d="M145 379 245 847H285L185 379ZM166 287 60 -210H20L126 287Z" glyph-name="brokenbar" horiz-adv-x="305" unicode="&#166;" /><glyph d="M213 374Q213 341 177 341Q165 341 157.5 347Q150 353 150 364Q150 398 187 398Q199 398 206 391.5Q213 385 213 374Z" glyph-name="bullet" horiz-adv-x="363" unicode="&#8226;" /><glyph d="M449 451Q434 461 415 469Q397 476 374 481Q351 486 321 486Q284 486 242.5 467.5Q201 449 165.5 411.5Q130 374 107 317Q84 260 84 183Q84 141 95.5 111Q107 81 126.5 61.5Q146 42 173.5 33Q201 24 232 24Q262 24 288 29.5Q314 35 334 42Q357 49 376 59V23Q358 14 334 7Q313 0 285.5 -5Q258 -10 223 -10Q137 -10 91 41.5Q45 93 45 183Q45 245 63 305Q81 365 116 413Q151 461 203.5 490.5Q256 520 326 520Q354 520 376.5 516Q399 512 415 507Q434 501 449 494Z" glyph-name="c" horiz-adv-x="459" unicode="c" /><glyph d="M449 451Q434 461 415 469Q397 476 374 481Q351 486 321 486Q284 486 242.5 467.5Q201 449 165.5 411.5Q130 374 107 317Q84 260 84 183Q84 141 95.5 111Q107 81 126.5 61.5Q146 42 173.5 33Q201 24 232 24Q262 24 288 29.5Q314 35 334 42Q357 49 376 59V23Q358 14 334 7Q313 0 285.5 -5Q258 -10 223 -10Q137 -10 91 41.5Q45 93 45 183Q45 245 63 305Q81 365 116 413Q151 461 203.5 490.5Q256 520 326 520Q354 520 376.5 516Q399 512 415 507Q434 501 449 494ZM363 590H323L433 730H483Z" glyph-name="cacute" horiz-adv-x="459" unicode="&#263;" /><glyph d="M251 616 363 730H410L266 590H230L144 730H183Z" glyph-name="caron" horiz-adv-x="580" unicode="&#711;" /><glyph d="M449 451Q434 461 415 469Q397 476 374 481Q351 486 321 486Q284 486 242.5 467.5Q201 449 165.5 411.5Q130 374 107 317Q84 260 84 183Q84 141 95.5 111Q107 81 126.5 61.5Q146 42 173.5 33Q201 24 232 24Q262 24 288 29.5Q314 35 334 42Q357 49 376 59V23Q358 14 334 7Q313 0 285.5 -5Q258 -10 223 -10Q137 -10 91 41.5Q45 93 45 183Q45 245 63 305Q81 365 116 413Q151 461 203.5 490.5Q256 520 326 520Q354 520 376.5 516Q399 512 415 507Q434 501 449 494ZM344 616 456 730H503L359 590H323L237 730H276Z" glyph-name="ccaron" horiz-adv-x="459" unicode="&#269;" /><glyph d="M449 451Q434 461 415 469Q397 476 374 481Q351 486 321 486Q284 486 242.5 467.5Q201 449 165.5 411.5Q130 374 107 317Q84 260 84 183Q84 141 95.5 111Q107 81 126.5 61.5Q146 42 173.5 33Q201 24 232 24Q262 24 288 29.5Q314 35 334 42Q357 49 376 59V23Q358 14 334 7Q313 0 285.5 -5Q258 -10 223 -10Q137 -10 91 41.5Q45 93 45 183Q45 245 63 305Q81 365 116 413Q151 461 203.5 490.5Q256 520 326 520Q354 520 376.5 516Q399 512 415 507Q434 501 449 494ZM168 -15Q185 -10 202 -10Q233 -10 250 -25.5Q267 -41 267 -66Q267 -88 259.5 -103Q252 -118 240 -127Q228 -136 212 -140Q196 -144 179 -144Q172 -144 163.5 -143Q155 -142 150 -140V-114Q155 -116 164.5 -117Q174 -118 179 -118Q200 -118 218 -108.5Q236 -99 236 -71Q236 -55 227 -45.5Q218 -36 200 -36Q183 -36 168 -41Z" glyph-name="ccedilla" horiz-adv-x="459" unicode="&#231;" /><glyph d="M449 451Q434 461 415 469Q397 476 374 481Q351 486 321 486Q284 486 242.5 467.5Q201 449 165.5 411.5Q130 374 107 317Q84 260 84 183Q84 141 95.5 111Q107 81 126.5 61.5Q146 42 173.5 33Q201 24 232 24Q262 24 288 29.5Q314 35 334 42Q357 49 376 59V23Q358 14 334 7Q313 0 285.5 -5Q258 -10 223 -10Q137 -10 91 41.5Q45 93 45 183Q45 245 63 305Q81 365 116 413Q151 461 203.5 490.5Q256 520 326 520Q354 520 376.5 516Q399 512 415 507Q434 501 449 494ZM353 704 241 590H194L338 730H376L462 590H421Z" glyph-name="ccircumflex" horiz-adv-x="459" unicode="&#265;" /><glyph d="M210 -15Q227 -10 244 -10Q275 -10 292 -25.5Q309 -41 309 -66Q309 -88 301.5 -103Q294 -118 282 -127Q270 -136 254 -140Q238 -144 221 -144Q214 -144 205.5 -143Q197 -142 192 -140V-114Q197 -116 206.5 -117Q216 -118 221 -118Q242 -118 260 -108.5Q278 -99 278 -71Q278 -55 269 -45.5Q260 -36 242 -36Q225 -36 210 -41Z" glyph-name="cedilla" horiz-adv-x="547" unicode="&#184;" /><glyph d="M449 451Q435 460 417 467Q401 474 379 479.5Q357 485 329 486L231 24H232Q262 24 288 29.5Q314 35 334 42Q357 49 376 59V23Q358 14 334 7Q313 0 285.5 -5Q258 -10 223 -10L181 -210H141L184 -7Q116 4 80.5 54Q45 104 45 183Q45 241 61 298Q77 355 108.5 401.5Q140 448 187 479.5Q234 511 296 518L346 750H386L337 520Q362 519 382.5 514.5Q403 510 418 506Q435 500 449 494ZM84 183Q84 113 114 75.5Q144 38 192 28L289 483Q253 476 216.5 454Q180 432 150.5 394.5Q121 357 102.5 304.5Q84 252 84 183Z" glyph-name="cent" horiz-adv-x="476" unicode="&#162;" /><glyph d="M269 704 157 590H110L254 730H292L378 590H337Z" glyph-name="circumflex" horiz-adv-x="580" unicode="&#710;" /><glyph d="M80 31Q80 -9 37 -9Q23 -9 13.5 -1.5Q4 6 4 19Q4 38 16 49Q28 60 49 60Q63 60 71.5 52Q80 44 80 31ZM170 452Q170 412 127 412Q113 412 103.5 419.5Q94 427 94 440Q94 459 106 470Q118 481 139 481Q153 481 161.5 473Q170 465 170 452Z" glyph-name="colon" horiz-adv-x="180" unicode=":" /><glyph d="M-14 -88Q8 -82 27.5 -60.5Q47 -39 48 -5Q46 -6 44 -8Q39 -10 32 -10Q19 -10 11 -2Q3 6 3 21Q3 40 16 50Q29 60 46 60Q63 60 72.5 49.5Q82 39 82 10Q82 -38 55 -73.5Q28 -109 -14 -117Z" glyph-name="comma" horiz-adv-x="180" unicode="," /><glyph d="M120 -130Q159 -114 164 -78Q162 -80 159 -81.5Q156 -83 149 -83Q142 -83 136 -76.5Q130 -70 130 -59Q130 -43 139.5 -33.5Q149 -24 167 -24Q178 -24 187.5 -31.5Q197 -39 197 -59Q197 -78 190 -94.5Q183 -111 172 -123.5Q161 -136 147.5 -144.5Q134 -153 120 -156Z" glyph-name="commaaccent" horiz-adv-x="320" unicode="&#58388;" /><glyph d="M430 184Q357 184 314.5 222Q272 260 272 326Q272 385 290 430Q308 475 339.5 506Q371 537 412.5 553Q454 569 500 569Q517 569 533 566.5Q549 564 561 562Q576 558 589 554V521Q576 526 561 530Q548 533 532.5 535.5Q517 538 500 538Q460 538 425.5 523.5Q391 509 365 482Q339 455 324 415.5Q309 376 309 326Q309 272 340 243.5Q371 215 432 215Q449 215 465 217.5Q481 220 494 224Q509 227 522 232V199Q508 195 493 192Q479 188 463 186Q447 184 430 184ZM40 293Q40 385 76 469Q112 553 175.5 616.5Q239 680 326 717.5Q413 755 516 755Q590 755 651 733Q712 711 755 671Q798 631 821.5 575.5Q845 520 845 454Q845 351 807 266Q769 181 704.5 121Q640 61 553.5 28Q467 -5 369 -5Q295 -5 234 17Q173 39 130 78Q87 117 63.5 172Q40 227 40 293ZM516 721Q429 721 350.5 688.5Q272 656 212 599.5Q152 543 116.5 466Q81 389 81 300Q81 240 101 190Q121 140 158.5 104.5Q196 69 249.5 49Q303 29 369 29Q454 29 532.5 58.5Q611 88 671.5 143Q732 198 768 275Q804 352 804 447Q804 507 784 557.5Q764 608 726.5 644.5Q689 681 635.5 701Q582 721 516 721Z" glyph-name="copyright" horiz-adv-x="865" unicode="&#169;" /><glyph d="M0 112 132 222Q99 269 99 335Q99 395 123 449Q147 503 191 542L111 642L140 665L220 564Q255 588 298 601.5Q341 615 391 615Q436 615 473 600Q510 585 536 559L667 668L692 642L559 532Q593 483 593 418Q593 352 568 299.5Q543 247 501 211L580 112L551 89L471 189Q434 164 390.5 151.5Q347 139 300 139Q255 139 218 154Q181 169 155 195L24 86ZM389 581Q338 581 292.5 562.5Q247 544 213.5 511Q180 478 160 434Q140 390 140 339Q140 303 152 273Q164 243 185 220.5Q206 198 236 185.5Q266 173 302 173Q349 173 394 190Q439 207 474 238.5Q509 270 530.5 314.5Q552 359 552 414Q552 450 540 480.5Q528 511 506.5 533.5Q485 556 455 568.5Q425 581 389 581Z" glyph-name="currency" horiz-adv-x="672" unicode="&#164;" /><glyph d="M414 94Q406 56 417 42.5Q428 29 460 29Q466 29 473 30Q480 31 487 32Q495 33 503 34V0Q494 -1 485 -3Q476 -4 467.5 -4.5Q459 -5 451 -5Q403 -5 382 18.5Q361 42 377 94Q344 48 301.5 19Q259 -10 197 -10Q124 -10 84.5 34.5Q45 79 45 160Q45 221 60 284.5Q75 348 106.5 400.5Q138 453 187.5 486.5Q237 520 306 520Q359 520 394 493.5Q429 467 444 419L514 750H554ZM301 486Q246 486 205.5 455.5Q165 425 138 377.5Q111 330 98 273.5Q85 217 85 165Q85 96 114 60Q143 24 202 24Q257 24 297.5 54.5Q338 85 365 132Q392 179 405 235.5Q418 292 418 343Q418 413 389.5 449.5Q361 486 301 486Z" glyph-name="d" horiz-adv-x="561" unicode="d" /><glyph d="M416 105Q407 62 423.5 43Q440 24 480 24Q493 24 506 25.5Q519 27 530 29Q542 31 553 34V0Q541 -3 527 -5Q515 -7 500.5 -8.5Q486 -10 471 -10Q419 -10 393 14.5Q367 39 373 89Q341 45 299 17.5Q257 -10 197 -10Q124 -10 84.5 34.5Q45 79 45 160Q45 221 60 284.5Q75 348 106.5 400.5Q138 453 187.5 486.5Q237 520 306 520Q359 520 394 493.5Q429 467 444 419L514 750H554ZM301 486Q246 486 205.5 455.5Q165 425 138 377.5Q111 330 98 273.5Q85 217 85 165Q85 96 114 60Q143 24 202 24Q257 24 297.5 54.5Q338 85 365 132Q392 179 405 235.5Q418 292 418 343Q418 413 389.5 449.5Q361 486 301 486Z" glyph-name="d.end" horiz-adv-x="564" unicode="&#58019;" /><glyph d="M265 476 117 -210H81L225 476H61V510H233L284 750H324L273 510H437V476Z" glyph-name="dagger" horiz-adv-x="420" unicode="&#8224;" /><glyph d="M234 237 137 -210H101L194 237H30V271H202L245 476H81V510H253L304 750H344L293 510H457V476H285L242 271H406V237Z" glyph-name="daggerdbl" horiz-adv-x="460" unicode="&#8225;" /><glyph d="M197 -10Q124 -10 84.5 34.5Q45 79 45 160Q45 221 60 284.5Q75 348 106.5 400.5Q138 453 187.5 486.5Q237 520 306 520Q359 520 394 493.5Q429 467 444 419L514 750H554L414 94Q406 56 417 42.5Q428 29 460 29Q466 29 473 30Q480 31 487 32Q495 33 503 34V0Q494 -1 485 -3Q476 -4 467.5 -4.5Q459 -5 451 -5Q403 -5 382 18.5Q361 42 377 94Q344 48 301.5 19Q259 -10 197 -10ZM301 486Q246 486 205.5 455.5Q165 425 138 377.5Q111 330 98 273.5Q85 217 85 165Q85 96 114 60Q143 24 202 24Q257 24 297.5 54.5Q338 85 365 132Q392 179 405 235.5Q418 292 418 343Q418 413 389.5 449.5Q361 486 301 486ZM581 660Q620 676 625 712Q623 710 620 708.5Q617 707 610 707Q603 707 597 713.5Q591 720 591 731Q591 747 600.5 756.5Q610 766 628 766Q639 766 648.5 758.5Q658 751 658 731Q658 712 651 696Q644 680 633 667Q622 654 608.5 645.5Q595 637 581 634Z" glyph-name="dcaron" horiz-adv-x="609" unicode="&#271;" /><glyph d="M581 660Q620 676 625 712Q623 710 620 708.5Q617 707 610 707Q603 707 597 713.5Q591 720 591 731Q591 747 600.5 756.5Q610 766 628 766Q639 766 648.5 758.5Q658 751 658 731Q658 712 651 696Q644 680 633 667Q622 654 608.5 645.5Q595 637 581 634ZM416 105Q407 62 423.5 43Q440 24 480 24Q493 24 506 25.5Q519 27 530 29Q542 31 553 34V0Q541 -3 527 -5Q515 -7 500.5 -8.5Q486 -10 471 -10Q419 -10 393 14.5Q367 39 373 89Q341 45 299 17.5Q257 -10 197 -10Q124 -10 84.5 34.5Q45 79 45 160Q45 221 60 284.5Q75 348 106.5 400.5Q138 453 187.5 486.5Q237 520 306 520Q359 520 394 493.5Q429 467 444 419L514 750H554ZM301 486Q246 486 205.5 455.5Q165 425 138 377.5Q111 330 98 273.5Q85 217 85 165Q85 96 114 60Q143 24 202 24Q257 24 297.5 54.5Q338 85 365 132Q392 179 405 235.5Q418 292 418 343Q418 413 389.5 449.5Q361 486 301 486Z" glyph-name="dcaron.end" horiz-adv-x="563" unicode="&#61445;" /><glyph d="M197 -10Q124 -10 84.5 34.5Q45 79 45 160Q45 221 60 284.5Q75 348 106.5 400.5Q138 453 187.5 486.5Q237 520 306 520Q359 520 394 493.5Q429 467 444 419L481 596H320V630H488L514 750H554L528 630H616V596H521L414 94Q406 56 417 42.5Q428 29 460 29Q466 29 473 30Q480 31 487 32Q495 33 503 34V0Q494 -1 485 -3Q476 -4 467.5 -4.5Q459 -5 451 -5Q403 -5 382 18.5Q361 42 377 94Q344 48 301.5 19Q259 -10 197 -10ZM301 486Q246 486 205.5 455.5Q165 425 138 377.5Q111 330 98 273.5Q85 217 85 165Q85 96 114 60Q143 24 202 24Q257 24 297.5 54.5Q338 85 365 132Q392 179 405 235.5Q418 292 418 343Q418 413 389.5 449.5Q361 486 301 486Z" glyph-name="dcroat" horiz-adv-x="573" unicode="&#273;" /><glyph d="M528 630H616V596H521L416 105Q407 62 423.5 43Q440 24 480 24Q493 24 506 25.5Q519 27 530 29Q542 31 553 34V0Q541 -3 527 -5Q515 -7 500.5 -8.5Q486 -10 471 -10Q419 -10 393 14.5Q367 39 373 89Q341 45 299 17.5Q257 -10 197 -10Q124 -10 84.5 34.5Q45 79 45 160Q45 221 60 284.5Q75 348 106.5 400.5Q138 453 187.5 486.5Q237 520 306 520Q359 520 394 493.5Q429 467 444 419L481 596H320V630H488L514 750H554ZM301 486Q246 486 205.5 455.5Q165 425 138 377.5Q111 330 98 273.5Q85 217 85 165Q85 96 114 60Q143 24 202 24Q257 24 297.5 54.5Q338 85 365 132Q392 179 405 235.5Q418 292 418 343Q418 413 389.5 449.5Q361 486 301 486Z" glyph-name="dcroat.end" horiz-adv-x="563" unicode="&#61446;" /><glyph d="M100 648Q100 676 109.5 698Q119 720 135.5 735Q152 750 174 758Q196 766 221 766Q246 766 268 758Q290 750 306.5 735Q323 720 332.5 698Q342 676 342 648Q342 620 332.5 598Q323 576 306.5 561Q290 546 268 538Q246 530 221 530Q196 530 174 538Q152 546 135.5 561Q119 576 109.5 598Q100 620 100 648ZM138 648Q138 607 162 584.5Q186 562 221 562Q256 562 280 584Q304 606 304 648Q304 689 280 711.5Q256 734 221 734Q186 734 162 711.5Q138 689 138 648Z" glyph-name="degree" horiz-adv-x="342" unicode="&#176;" /><glyph d="M170 660Q170 631 139 631Q125 631 117 638Q109 645 109 659Q109 672 117.5 680Q126 688 140 688Q154 688 162 681Q170 674 170 660ZM350 660Q350 631 319 631Q305 631 297 638Q289 645 289 659Q289 672 297.5 680Q306 688 320 688Q334 688 342 681Q350 674 350 660Z" glyph-name="dieresis" horiz-adv-x="370" unicode="&#168;" /><glyph d="M100 343V377H470V343ZM350 520Q350 487 314 487Q302 487 294.5 493Q287 499 287 510Q287 544 324 544Q336 544 343 537.5Q350 531 350 520ZM284 209Q284 176 248 176Q236 176 228.5 182Q221 188 221 199Q221 233 258 233Q270 233 277 226.5Q284 220 284 209Z" glyph-name="divide" horiz-adv-x="570" unicode="&#247;" /><glyph d="M453 756Q496 751 531.5 743Q567 735 582 731V693Q563 699 541 705Q521 710 497 715Q473 720 446 723L373 376Q400 366 424 353Q448 340 466.5 321.5Q485 303 495.5 278.5Q506 254 506 220Q506 168 489.5 130Q473 92 444.5 65Q416 38 377 22Q338 6 292 -2L272 -100H238L258 -7Q227 -10 195 -10H191L172 -100H138L157 -8Q133 -6 108.5 -2.5Q84 1 63 5Q42 9 26 13Q10 17 2 19V57Q26 49 53 43Q77 37 105 32Q133 27 164 25L239 378Q211 388 185.5 400.5Q160 413 141 431Q122 449 111 473.5Q100 498 100 532Q100 579 116 617Q132 655 161 683Q190 711 230.5 729Q271 747 319 754L339 847H373L354 758Q364 759 373.5 759.5Q383 760 394 760Q400 760 406.5 759.5Q413 759 420 759L439 847H473ZM139 533Q139 486 170.5 460.5Q202 435 248 418L311 717Q278 710 247 696.5Q216 683 192 661Q168 639 153.5 607.5Q139 576 139 533ZM466 218Q466 266 437 293Q408 320 364 337L300 34Q335 41 365 54.5Q395 68 417.5 90Q440 112 453 143.5Q466 175 466 218ZM271 367 198 24Q215 24 231.5 25Q248 26 265 28L333 348ZM394 726Q370 726 346 723L279 407Q294 402 310 397.5Q326 393 341 388L413 725Q408 726 403.5 726Q399 726 394 726Z" glyph-name="dollar" horiz-adv-x="556" unicode="$" /><glyph d="M215 664Q215 631 179 631Q167 631 159.5 637Q152 643 152 654Q152 688 189 688Q201 688 208 681.5Q215 675 215 664Z" glyph-name="dotaccent" horiz-adv-x="370" unicode="&#729;" /><glyph d="M189 510 99 90Q91 55 103 42Q115 29 147 29Q153 29 160 30Q167 31 174 32Q182 33 190 34V0Q181 -1 172 -3Q163 -4 154.5 -4.5Q146 -5 138 -5Q90 -5 69 16Q48 37 59 88L149 510Z" glyph-name="dotlessi" horiz-adv-x="264" unicode="&#305;" /><glyph d="M149 510H189L103 105Q94 62 110.5 43Q127 24 167 24Q180 24 193 25.5Q206 27 217 29Q229 31 240 34V0Q228 -3 214 -5Q202 -7 187.5 -8.5Q173 -10 158 -10Q102 -10 76.5 18.5Q51 47 63 105Z" glyph-name="dotlessi.end" horiz-adv-x="250" unicode="&#61447;" /><glyph d="M94 183Q94 141 105.5 111Q117 81 136.5 61.5Q156 42 183.5 33Q211 24 242 24Q272 24 298 29.5Q324 35 344 42Q367 49 386 59V23Q368 14 344 7Q323 0 295.5 -5Q268 -10 233 -10Q147 -10 101 41.5Q55 93 55 183Q55 242 70 302Q85 362 116.5 410.5Q148 459 196 489.5Q244 520 310 520Q379 520 418.5 480.5Q458 441 458 381Q458 347 446.5 317.5Q435 288 410.5 266.5Q386 245 348.5 232.5Q311 220 258 220Q188 220 144 228Q100 236 97 237Q94 210 94 183ZM305 486Q263 486 229.5 467.5Q196 449 170.5 419Q145 389 128.5 349.5Q112 310 103 268Q108 267 150.5 259.5Q193 252 266 252Q307 252 335.5 262Q364 272 382.5 290Q401 308 409.5 331.5Q418 355 418 382Q418 429 387 457.5Q356 486 305 486Z" glyph-name="e" horiz-adv-x="483" unicode="e" /><glyph d="M89 183Q89 141 100.5 111Q112 81 131.5 61.5Q151 42 178.5 33Q206 24 237 24Q267 24 293 29.5Q319 35 339 42Q362 49 381 59V23Q363 14 339 7Q318 0 290.5 -5Q263 -10 228 -10Q142 -10 96 41.5Q50 93 50 183Q50 242 65 302Q80 362 111.5 410.5Q143 459 191 489.5Q239 520 305 520Q374 520 413.5 475Q453 430 453 348Q453 293 441 237H92Q89 210 89 183ZM300 486Q258 486 224.5 467.5Q191 449 165.5 419Q140 389 123.5 350Q107 311 98 269H406Q412 307 412 343Q412 413 384 449.5Q356 486 300 486Z" glyph-name="e.ss01" horiz-adv-x="499" unicode="&#58564;" /><glyph d="M94 183Q94 141 105.5 111Q117 81 136.5 61.5Q156 42 183.5 33Q211 24 242 24Q272 24 298 29.5Q324 35 344 42Q367 49 386 59V23Q368 14 344 7Q323 0 295.5 -5Q268 -10 233 -10Q147 -10 101 41.5Q55 93 55 183Q55 242 70 302Q85 362 116.5 410.5Q148 459 196 489.5Q244 520 310 520Q379 520 418.5 480.5Q458 441 458 381Q458 347 446.5 317.5Q435 288 410.5 266.5Q386 245 348.5 232.5Q311 220 258 220Q188 220 144 228Q100 236 97 237Q94 210 94 183ZM305 486Q263 486 229.5 467.5Q196 449 170.5 419Q145 389 128.5 349.5Q112 310 103 268Q108 267 150.5 259.5Q193 252 266 252Q307 252 335.5 262Q364 272 382.5 290Q401 308 409.5 331.5Q418 355 418 382Q418 429 387 457.5Q356 486 305 486ZM350 590H310L420 730H470Z" glyph-name="eacute" horiz-adv-x="483" unicode="&#233;" /><glyph d="M89 183Q89 141 100.5 111Q112 81 131.5 61.5Q151 42 178.5 33Q206 24 237 24Q267 24 293 29.5Q319 35 339 42Q362 49 381 59V23Q363 14 339 7Q318 0 290.5 -5Q263 -10 228 -10Q142 -10 96 41.5Q50 93 50 183Q50 242 65 302Q80 362 111.5 410.5Q143 459 191 489.5Q239 520 305 520Q374 520 413.5 475Q453 430 453 348Q453 293 441 237H92Q89 210 89 183ZM300 486Q258 486 224.5 467.5Q191 449 165.5 419Q140 389 123.5 350Q107 311 98 269H406Q412 307 412 343Q412 413 384 449.5Q356 486 300 486ZM342 590H302L412 730H462Z" glyph-name="eacute.ss01" horiz-adv-x="499" unicode="&#61793;" /><glyph d="M94 183Q94 141 105.5 111Q117 81 136.5 61.5Q156 42 183.5 33Q211 24 242 24Q272 24 298 29.5Q324 35 344 42Q367 49 386 59V23Q368 14 344 7Q323 0 295.5 -5Q268 -10 233 -10Q147 -10 101 41.5Q55 93 55 183Q55 242 70 302Q85 362 116.5 410.5Q148 459 196 489.5Q244 520 310 520Q379 520 418.5 480.5Q458 441 458 381Q458 347 446.5 317.5Q435 288 410.5 266.5Q386 245 348.5 232.5Q311 220 258 220Q188 220 144 228Q100 236 97 237Q94 210 94 183ZM305 486Q263 486 229.5 467.5Q196 449 170.5 419Q145 389 128.5 349.5Q112 310 103 268Q108 267 150.5 259.5Q193 252 266 252Q307 252 335.5 262Q364 272 382.5 290Q401 308 409.5 331.5Q418 355 418 382Q418 429 387 457.5Q356 486 305 486ZM329 616 441 730H488L344 590H308L222 730H261Z" glyph-name="ecaron" horiz-adv-x="483" unicode="&#283;" /><glyph d="M89 183Q89 141 100.5 111Q112 81 131.5 61.5Q151 42 178.5 33Q206 24 237 24Q267 24 293 29.5Q319 35 339 42Q362 49 381 59V23Q363 14 339 7Q318 0 290.5 -5Q263 -10 228 -10Q142 -10 96 41.5Q50 93 50 183Q50 242 65 302Q80 362 111.5 410.5Q143 459 191 489.5Q239 520 305 520Q374 520 413.5 475Q453 430 453 348Q453 293 441 237H92Q89 210 89 183ZM300 486Q258 486 224.5 467.5Q191 449 165.5 419Q140 389 123.5 350Q107 311 98 269H406Q412 307 412 343Q412 413 384 449.5Q356 486 300 486ZM326 616 438 730H485L341 590H305L219 730H258Z" glyph-name="ecaron.ss01" horiz-adv-x="499" unicode="&#61800;" /><glyph d="M94 183Q94 141 105.5 111Q117 81 136.5 61.5Q156 42 183.5 33Q211 24 242 24Q272 24 298 29.5Q324 35 344 42Q367 49 386 59V23Q368 14 344 7Q323 0 295.5 -5Q268 -10 233 -10Q147 -10 101 41.5Q55 93 55 183Q55 242 70 302Q85 362 116.5 410.5Q148 459 196 489.5Q244 520 310 520Q379 520 418.5 480.5Q458 441 458 381Q458 347 446.5 317.5Q435 288 410.5 266.5Q386 245 348.5 232.5Q311 220 258 220Q188 220 144 228Q100 236 97 237Q94 210 94 183ZM305 486Q263 486 229.5 467.5Q196 449 170.5 419Q145 389 128.5 349.5Q112 310 103 268Q108 267 150.5 259.5Q193 252 266 252Q307 252 335.5 262Q364 272 382.5 290Q401 308 409.5 331.5Q418 355 418 382Q418 429 387 457.5Q356 486 305 486ZM351 704 239 590H192L336 730H374L460 590H419Z" glyph-name="ecircumflex" horiz-adv-x="483" unicode="&#234;" /><glyph d="M89 183Q89 141 100.5 111Q112 81 131.5 61.5Q151 42 178.5 33Q206 24 237 24Q267 24 293 29.5Q319 35 339 42Q362 49 381 59V23Q363 14 339 7Q318 0 290.5 -5Q263 -10 228 -10Q142 -10 96 41.5Q50 93 50 183Q50 242 65 302Q80 362 111.5 410.5Q143 459 191 489.5Q239 520 305 520Q374 520 413.5 475Q453 430 453 348Q453 293 441 237H92Q89 210 89 183ZM300 486Q258 486 224.5 467.5Q191 449 165.5 419Q140 389 123.5 350Q107 311 98 269H406Q412 307 412 343Q412 413 384 449.5Q356 486 300 486ZM346 704 234 590H187L331 730H369L455 590H414Z" glyph-name="ecircumflex.ss01" horiz-adv-x="499" unicode="&#61795;" /><glyph d="M94 183Q94 141 105.5 111Q117 81 136.5 61.5Q156 42 183.5 33Q211 24 242 24Q272 24 298 29.5Q324 35 344 42Q367 49 386 59V23Q368 14 344 7Q323 0 295.5 -5Q268 -10 233 -10Q147 -10 101 41.5Q55 93 55 183Q55 242 70 302Q85 362 116.5 410.5Q148 459 196 489.5Q244 520 310 520Q379 520 418.5 480.5Q458 441 458 381Q458 347 446.5 317.5Q435 288 410.5 266.5Q386 245 348.5 232.5Q311 220 258 220Q188 220 144 228Q100 236 97 237Q94 210 94 183ZM305 486Q263 486 229.5 467.5Q196 449 170.5 419Q145 389 128.5 349.5Q112 310 103 268Q108 267 150.5 259.5Q193 252 266 252Q307 252 335.5 262Q364 272 382.5 290Q401 308 409.5 331.5Q418 355 418 382Q418 429 387 457.5Q356 486 305 486ZM276 660Q276 631 245 631Q231 631 223 638Q215 645 215 659Q215 672 223.5 680Q232 688 246 688Q260 688 268 681Q276 674 276 660ZM456 660Q456 631 425 631Q411 631 403 638Q395 645 395 659Q395 672 403.5 680Q412 688 426 688Q440 688 448 681Q456 674 456 660Z" glyph-name="edieresis" horiz-adv-x="483" unicode="&#235;" /><glyph d="M89 183Q89 141 100.5 111Q112 81 131.5 61.5Q151 42 178.5 33Q206 24 237 24Q267 24 293 29.5Q319 35 339 42Q362 49 381 59V23Q363 14 339 7Q318 0 290.5 -5Q263 -10 228 -10Q142 -10 96 41.5Q50 93 50 183Q50 242 65 302Q80 362 111.5 410.5Q143 459 191 489.5Q239 520 305 520Q374 520 413.5 475Q453 430 453 348Q453 293 441 237H92Q89 210 89 183ZM300 486Q258 486 224.5 467.5Q191 449 165.5 419Q140 389 123.5 350Q107 311 98 269H406Q412 307 412 343Q412 413 384 449.5Q356 486 300 486ZM275 660Q275 631 244 631Q230 631 222 638Q214 645 214 659Q214 672 222.5 680Q231 688 245 688Q259 688 267 681Q275 674 275 660ZM455 660Q455 631 424 631Q410 631 402 638Q394 645 394 659Q394 672 402.5 680Q411 688 425 688Q439 688 447 681Q455 674 455 660Z" glyph-name="edieresis.ss01" horiz-adv-x="499" unicode="&#61796;" /><glyph d="M94 183Q94 141 105.5 111Q117 81 136.5 61.5Q156 42 183.5 33Q211 24 242 24Q272 24 298 29.5Q324 35 344 42Q367 49 386 59V23Q368 14 344 7Q323 0 295.5 -5Q268 -10 233 -10Q147 -10 101 41.5Q55 93 55 183Q55 242 70 302Q85 362 116.5 410.5Q148 459 196 489.5Q244 520 310 520Q379 520 418.5 480.5Q458 441 458 381Q458 347 446.5 317.5Q435 288 410.5 266.5Q386 245 348.5 232.5Q311 220 258 220Q188 220 144 228Q100 236 97 237Q94 210 94 183ZM305 486Q263 486 229.5 467.5Q196 449 170.5 419Q145 389 128.5 349.5Q112 310 103 268Q108 267 150.5 259.5Q193 252 266 252Q307 252 335.5 262Q364 272 382.5 290Q401 308 409.5 331.5Q418 355 418 382Q418 429 387 457.5Q356 486 305 486ZM377 664Q377 631 341 631Q329 631 321.5 637Q314 643 314 654Q314 688 351 688Q363 688 370 681.5Q377 675 377 664Z" glyph-name="edotaccent" horiz-adv-x="483" unicode="&#279;" /><glyph d="M89 183Q89 141 100.5 111Q112 81 131.5 61.5Q151 42 178.5 33Q206 24 237 24Q267 24 293 29.5Q319 35 339 42Q362 49 381 59V23Q363 14 339 7Q318 0 290.5 -5Q263 -10 228 -10Q142 -10 96 41.5Q50 93 50 183Q50 242 65 302Q80 362 111.5 410.5Q143 459 191 489.5Q239 520 305 520Q374 520 413.5 475Q453 430 453 348Q453 293 441 237H92Q89 210 89 183ZM300 486Q258 486 224.5 467.5Q191 449 165.5 419Q140 389 123.5 350Q107 311 98 269H406Q412 307 412 343Q412 413 384 449.5Q356 486 300 486ZM368 664Q368 631 332 631Q320 631 312.5 637Q305 643 305 654Q305 688 342 688Q354 688 361 681.5Q368 675 368 664Z" glyph-name="edotaccent.ss01" horiz-adv-x="499" unicode="&#61798;" /><glyph d="M94 183Q94 141 105.5 111Q117 81 136.5 61.5Q156 42 183.5 33Q211 24 242 24Q272 24 298 29.5Q324 35 344 42Q367 49 386 59V23Q368 14 344 7Q323 0 295.5 -5Q268 -10 233 -10Q147 -10 101 41.5Q55 93 55 183Q55 242 70 302Q85 362 116.5 410.5Q148 459 196 489.5Q244 520 310 520Q379 520 418.5 480.5Q458 441 458 381Q458 347 446.5 317.5Q435 288 410.5 266.5Q386 245 348.5 232.5Q311 220 258 220Q188 220 144 228Q100 236 97 237Q94 210 94 183ZM305 486Q263 486 229.5 467.5Q196 449 170.5 419Q145 389 128.5 349.5Q112 310 103 268Q108 267 150.5 259.5Q193 252 266 252Q307 252 335.5 262Q364 272 382.5 290Q401 308 409.5 331.5Q418 355 418 382Q418 429 387 457.5Q356 486 305 486ZM193 730H243L353 590H313Z" glyph-name="egrave" horiz-adv-x="483" unicode="&#232;" /><glyph d="M89 183Q89 141 100.5 111Q112 81 131.5 61.5Q151 42 178.5 33Q206 24 237 24Q267 24 293 29.5Q319 35 339 42Q362 49 381 59V23Q363 14 339 7Q318 0 290.5 -5Q263 -10 228 -10Q142 -10 96 41.5Q50 93 50 183Q50 242 65 302Q80 362 111.5 410.5Q143 459 191 489.5Q239 520 305 520Q374 520 413.5 475Q453 430 453 348Q453 293 441 237H92Q89 210 89 183ZM300 486Q258 486 224.5 467.5Q191 449 165.5 419Q140 389 123.5 350Q107 311 98 269H406Q412 307 412 343Q412 413 384 449.5Q356 486 300 486ZM187 730H237L347 590H307Z" glyph-name="egrave.ss01" horiz-adv-x="499" unicode="&#61794;" /><glyph d="M402 360Q448 345 479.5 313Q511 281 511 223Q511 171 490.5 128Q470 85 433.5 54Q397 23 347 6.5Q297 -10 238 -10Q144 -10 92.5 29.5Q41 69 41 137Q41 186 57.5 223.5Q74 261 100.5 288Q127 315 160.5 333Q194 351 228 360Q181 376 152 408Q123 440 123 496Q123 546 141.5 588.5Q160 631 194.5 662.5Q229 694 277.5 712Q326 730 386 730Q479 730 531 690Q583 650 583 585Q583 537 567 499.5Q551 462 525 434Q499 406 467 388Q435 370 402 360ZM311 343Q267 343 225.5 328.5Q184 314 152 288Q120 262 101 225.5Q82 189 82 145Q82 89 123 56.5Q164 24 239 24Q286 24 328 37.5Q370 51 401.5 76Q433 101 451.5 136Q470 171 470 214Q470 274 426.5 308.5Q383 343 311 343ZM318 377Q362 377 402.5 391.5Q443 406 474 432.5Q505 459 523.5 495.5Q542 532 542 577Q542 632 501 664Q460 696 386 696Q339 696 298.5 682Q258 668 228 643Q198 618 181 583Q164 548 164 506Q164 446 205 411.5Q246 377 318 377Z" glyph-name="eight" horiz-adv-x="567" unicode="8" /><glyph d="M407 360Q453 345 484.5 313Q516 281 516 223Q516 171 495.5 128Q475 85 438.5 54Q402 23 352 6.5Q302 -10 243 -10Q149 -10 97.5 29.5Q46 69 46 137Q46 186 62.5 223.5Q79 261 105.5 288Q132 315 165.5 333Q199 351 233 360Q186 376 157 408Q128 440 128 496Q128 546 146.5 588.5Q165 631 199.5 662.5Q234 694 282.5 712Q331 730 391 730Q484 730 536 690Q588 650 588 585Q588 537 572 499.5Q556 462 530 434Q504 406 472 388Q440 370 407 360ZM316 343Q272 343 230.5 328.5Q189 314 157 288Q125 262 106 225.5Q87 189 87 145Q87 89 128 56.5Q169 24 244 24Q291 24 333 37.5Q375 51 406.5 76Q438 101 456.5 136Q475 171 475 214Q475 274 431.5 308.5Q388 343 316 343ZM323 377Q367 377 407.5 391.5Q448 406 479 432.5Q510 459 528.5 495.5Q547 532 547 577Q547 632 506 664Q465 696 391 696Q344 696 303.5 682Q263 668 233 643Q203 618 186 583Q169 548 169 506Q169 446 210 411.5Q251 377 323 377Z" glyph-name="eight.lnum" horiz-adv-x="577" unicode="&#59656;" /><glyph d="M415 360Q461 345 492.5 313Q524 281 524 223Q524 171 503.5 128Q483 85 446.5 54Q410 23 360 6.5Q310 -10 251 -10Q157 -10 105.5 29.5Q54 69 54 137Q54 186 70.5 223.5Q87 261 113.5 288Q140 315 173.5 333Q207 351 241 360Q194 376 165 408Q136 440 136 496Q136 546 154.5 588.5Q173 631 207.5 662.5Q242 694 290.5 712Q339 730 399 730Q492 730 544 690Q596 650 596 585Q596 537 580 499.5Q564 462 538 434Q512 406 480 388Q448 370 415 360ZM324 343Q280 343 238.5 328.5Q197 314 165 288Q133 262 114 225.5Q95 189 95 145Q95 89 136 56.5Q177 24 252 24Q299 24 341 37.5Q383 51 414.5 76Q446 101 464.5 136Q483 171 483 214Q483 274 439.5 308.5Q396 343 324 343ZM331 377Q375 377 415.5 391.5Q456 406 487 432.5Q518 459 536.5 495.5Q555 532 555 577Q555 632 514 664Q473 696 399 696Q352 696 311.5 682Q271 668 241 643Q211 618 194 583Q177 548 177 506Q177 446 218 411.5Q259 377 331 377Z" glyph-name="eight.lnum_tnum" horiz-adv-x="650" unicode="&#59672;" /><glyph d="M415 360Q461 345 492.5 313Q524 281 524 223Q524 171 503.5 128Q483 85 446.5 54Q410 23 360 6.5Q310 -10 251 -10Q157 -10 105.5 29.5Q54 69 54 137Q54 186 70.5 223.5Q87 261 113.5 288Q140 315 173.5 333Q207 351 241 360Q194 376 165 408Q136 440 136 496Q136 546 154.5 588.5Q173 631 207.5 662.5Q242 694 290.5 712Q339 730 399 730Q492 730 544 690Q596 650 596 585Q596 537 580 499.5Q564 462 538 434Q512 406 480 388Q448 370 415 360ZM324 343Q280 343 238.5 328.5Q197 314 165 288Q133 262 114 225.5Q95 189 95 145Q95 89 136 56.5Q177 24 252 24Q299 24 341 37.5Q383 51 414.5 76Q446 101 464.5 136Q483 171 483 214Q483 274 439.5 308.5Q396 343 324 343ZM331 377Q375 377 415.5 391.5Q456 406 487 432.5Q518 459 536.5 495.5Q555 532 555 577Q555 632 514 664Q473 696 399 696Q352 696 311.5 682Q271 668 241 643Q211 618 194 583Q177 548 177 506Q177 446 218 411.5Q259 377 331 377Z" glyph-name="eight.tnum_onum" horiz-adv-x="650" unicode="&#59688;" /><glyph d="M80 31Q80 -9 37 -9Q23 -9 13.5 -1.5Q4 6 4 19Q4 38 16 49Q28 60 49 60Q63 60 71.5 52Q80 44 80 31ZM290 31Q290 -9 247 -9Q233 -9 223.5 -1.5Q214 6 214 19Q214 38 226 49Q238 60 259 60Q273 60 281.5 52Q290 44 290 31ZM500 31Q500 -9 457 -9Q443 -9 433.5 -1.5Q424 6 424 19Q424 38 436 49Q448 60 469 60Q483 60 491.5 52Q500 44 500 31Z" glyph-name="ellipsis" horiz-adv-x="600" unicode="&#8230;" /><glyph d="M94 183Q94 141 105.5 111Q117 81 136.5 61.5Q156 42 183.5 33Q211 24 242 24Q272 24 298 29.5Q324 35 344 42Q367 49 386 59V23Q368 14 344 7Q323 0 295.5 -5Q268 -10 233 -10Q147 -10 101 41.5Q55 93 55 183Q55 242 70 302Q85 362 116.5 410.5Q148 459 196 489.5Q244 520 310 520Q379 520 418.5 480.5Q458 441 458 381Q458 347 446.5 317.5Q435 288 410.5 266.5Q386 245 348.5 232.5Q311 220 258 220Q188 220 144 228Q100 236 97 237Q94 210 94 183ZM305 486Q263 486 229.5 467.5Q196 449 170.5 419Q145 389 128.5 349.5Q112 310 103 268Q108 267 150.5 259.5Q193 252 266 252Q307 252 335.5 262Q364 272 382.5 290Q401 308 409.5 331.5Q418 355 418 382Q418 429 387 457.5Q356 486 305 486ZM175 636V670H492V636Z" glyph-name="emacron" horiz-adv-x="483" unicode="&#275;" /><glyph d="M89 183Q89 141 100.5 111Q112 81 131.5 61.5Q151 42 178.5 33Q206 24 237 24Q267 24 293 29.5Q319 35 339 42Q362 49 381 59V23Q363 14 339 7Q318 0 290.5 -5Q263 -10 228 -10Q142 -10 96 41.5Q50 93 50 183Q50 242 65 302Q80 362 111.5 410.5Q143 459 191 489.5Q239 520 305 520Q374 520 413.5 475Q453 430 453 348Q453 293 441 237H92Q89 210 89 183ZM300 486Q258 486 224.5 467.5Q191 449 165.5 419Q140 389 123.5 350Q107 311 98 269H406Q412 307 412 343Q412 413 384 449.5Q356 486 300 486ZM171 636V670H488V636Z" glyph-name="emacron.ss01" horiz-adv-x="499" unicode="&#61797;" /><glyph d="M100 313V347H814V313Z" glyph-name="emdash" horiz-adv-x="914" unicode="&#8212;" /><glyph d="M100 313V347H527V313Z" glyph-name="endash" horiz-adv-x="627" unicode="&#8211;" /><glyph d="M94 183Q94 141 105.5 111Q117 81 136.5 61.5Q156 42 183.5 33Q211 24 242 24Q272 24 298 29.5Q324 35 344 42Q367 49 386 59V23Q359 -5 342.5 -24.5Q326 -44 316.5 -57.5Q307 -71 303.5 -80.5Q300 -90 300 -98Q300 -112 308.5 -118Q317 -124 330 -124Q337 -124 344 -122Q351 -120 357 -118Q364 -115 370 -111V-142Q364 -145 357 -148Q350 -150 342 -152Q334 -154 325 -154Q299 -154 279.5 -142.5Q260 -131 260 -103Q260 -77 279.5 -52Q299 -27 332 3Q312 -2 288 -6Q264 -10 233 -10Q147 -10 101 41.5Q55 93 55 183Q55 242 70 302Q85 362 116.5 410.5Q148 459 196 489.5Q244 520 310 520Q379 520 418.5 480.5Q458 441 458 381Q458 347 446.5 317.5Q435 288 410.5 266.5Q386 245 348.5 232.5Q311 220 258 220Q188 220 144 228Q100 236 97 237Q94 210 94 183ZM305 486Q263 486 229.5 467.5Q196 449 170.5 419Q145 389 128.5 349.5Q112 310 103 268Q108 267 150.5 259.5Q193 252 266 252Q307 252 335.5 262Q364 272 382.5 290Q401 308 409.5 331.5Q418 355 418 382Q418 429 387 457.5Q356 486 305 486Z" glyph-name="eogonek" horiz-adv-x="483" unicode="&#281;" /><glyph d="M89 183Q89 141 100.5 111Q112 81 131.5 61.5Q151 42 178.5 33Q206 24 237 24Q267 24 293 29.5Q319 35 339 42Q362 49 381 59V23Q354 -5 337.5 -24.5Q321 -44 311.5 -57.5Q302 -71 298.5 -80.5Q295 -90 295 -98Q295 -112 303.5 -118Q312 -124 325 -124Q332 -124 339 -122Q346 -120 352 -118Q359 -115 365 -111V-142Q359 -145 352 -148Q345 -150 337 -152Q329 -154 320 -154Q294 -154 274.5 -142.5Q255 -131 255 -103Q255 -77 274.5 -52Q294 -27 327 3Q307 -2 283 -6Q259 -10 228 -10Q142 -10 96 41.5Q50 93 50 183Q50 242 65 302Q80 362 111.5 410.5Q143 459 191 489.5Q239 520 305 520Q374 520 413.5 475Q453 430 453 348Q453 293 441 237H92Q89 210 89 183ZM300 486Q258 486 224.5 467.5Q191 449 165.5 419Q140 389 123.5 350Q107 311 98 269H406Q412 307 412 343Q412 413 384 449.5Q356 486 300 486Z" glyph-name="eogonek.ss01" horiz-adv-x="499" unicode="&#61799;" /><glyph d="M119 425V459H489V425ZM85 261V295H455V261Z" glyph-name="equal" horiz-adv-x="524" unicode="=" /><glyph d="M517 763 443 692Q466 658 474.5 612.5Q483 567 483 514Q483 457 475.5 397.5Q468 338 458 285Q432 146 371.5 68Q311 -10 204 -10Q129 -10 89.5 34.5Q50 79 50 161Q50 236 69.5 301.5Q89 367 123.5 415.5Q158 464 205.5 492Q253 520 308 520Q362 520 396 493Q430 466 443 428Q445 447 446 471Q447 495 447 512Q447 614 415 665L339 592L314 614L395 691Q358 726 295 726Q274 726 255.5 723.5Q237 721 223 719Q207 715 193 711V750Q208 753 225 755Q240 757 257.5 758.5Q275 760 295 760Q338 760 369 748.5Q400 737 422 717L492 785ZM306 486Q251 486 210.5 455.5Q170 425 143 377.5Q116 330 103 273.5Q90 217 90 165Q90 96 119 60Q148 24 207 24Q262 24 302.5 54.5Q343 85 370 132Q397 179 410 235.5Q423 292 423 343Q423 413 394.5 449.5Q366 486 306 486Z" glyph-name="eth" horiz-adv-x="509" unicode="&#240;" /><glyph d="M108 27Q108 12 98 3.5Q88 -5 72 -5Q60 -5 52.5 1.5Q45 8 45 19Q45 35 55.5 43.5Q66 52 82 52Q94 52 101 45Q108 38 108 27ZM211 750H253L119 130H80Z" glyph-name="exclam" horiz-adv-x="283" unicode="!" /><glyph d="M199 656Q199 671 209 679.5Q219 688 235 688Q247 688 254.5 681.5Q262 675 262 664Q262 648 251.5 639.5Q241 631 225 631Q213 631 206 638Q199 645 199 656ZM96 -67H54L188 553H227Z" glyph-name="exclamdown" horiz-adv-x="283" unicode="&#161;" /><glyph d="M-100 -174Q-93 -176 -86 -178Q-79 -179 -71 -180Q-63 -181 -54 -181Q-35 -181 -16 -176.5Q3 -172 20 -158.5Q37 -145 50.5 -121.5Q64 -98 71 -60L175 476H92V510H182L200 600Q217 685 259 720Q301 755 372 755Q383 755 392 754Q401 753 407 753Q414 751 420 750V714Q411 716 402 718Q394 719 385 720Q376 721 367 721Q344 721 324 715.5Q304 710 287.5 696.5Q271 683 259 659.5Q247 636 240 600L222 510H363V476H215L111 -60Q95 -143 52.5 -179Q10 -215 -60 -215Q-68 -215 -75.5 -214Q-83 -213 -88 -213Q-95 -211 -100 -210Z" glyph-name="f" horiz-adv-x="324" unicode="f" /><glyph d="M80 0 172 476H89V510H179L197 600Q214 685 256 720Q298 755 369 755Q380 755 389 754Q398 753 404 753Q411 751 417 750V714Q408 716 399 718Q391 719 382 720Q373 721 364 721Q341 721 321 715.5Q301 710 284.5 696.5Q268 683 256 659.5Q244 636 237 600L219 510H360V476H212L120 0Z" glyph-name="f.ss01" horiz-adv-x="321" unicode="&#58565;" /><glyph d="M207 -174Q214 -176 221 -178Q228 -179 236 -180Q244 -181 253 -181Q272 -181 291 -176.5Q310 -172 327 -158.5Q344 -145 357.5 -121.5Q371 -98 378 -60L482 476H215L111 -60Q95 -143 52.5 -179Q10 -215 -60 -215Q-68 -215 -75.5 -214Q-83 -213 -88 -213Q-95 -211 -100 -210V-174Q-93 -176 -86 -178Q-79 -179 -71 -180Q-63 -181 -54 -181Q-35 -181 -16 -176.5Q3 -172 20 -158.5Q37 -145 50.5 -121.5Q64 -98 71 -60L175 476H92V510H182L200 600Q217 685 259 720Q301 755 372 755Q383 755 392 754Q401 753 407 753Q414 751 420 750V714Q411 716 402 718Q394 719 385 720Q376 721 367 721Q344 721 324 715.5Q304 710 287.5 696.5Q271 683 259 659.5Q247 636 240 600L222 510H489L507 600Q524 685 566 720Q608 755 679 755Q690 755 699 754Q708 753 714 753Q721 751 727 750V714Q718 716 709 718Q701 719 692 720Q683 721 674 721Q651 721 631 715.5Q611 710 594.5 696.5Q578 683 566 659.5Q554 636 547 600L529 510H670V476H522L418 -60Q402 -143 359.5 -179Q317 -215 247 -215Q239 -215 231.5 -214Q224 -213 219 -213Q212 -211 207 -210Z" glyph-name="f_f" horiz-adv-x="631" unicode="&#64256;" /><glyph d="M120 0H80L172 476H89V510H179L197 600Q214 685 256 720Q298 755 369 755Q380 755 389 754Q398 753 404 753Q411 751 417 750V714Q408 716 399 718Q391 719 382 720Q373 721 364 721Q341 721 321 715.5Q301 710 284.5 696.5Q268 683 256 659.5Q244 636 237 600L219 510H486L504 600Q521 685 563 720Q605 755 676 755Q687 755 696 754Q705 753 711 753Q718 751 724 750V714Q715 716 706 718Q698 719 689 720Q680 721 671 721Q648 721 628 715.5Q608 710 591.5 696.5Q575 683 563 659.5Q551 636 544 600L526 510H667V476H519L427 0H387L479 476H212Z" glyph-name="f_f.ss01" horiz-adv-x="628" unicode="&#61781;" /><glyph d="M111 -60Q95 -143 52.5 -179Q10 -215 -60 -215Q-68 -215 -75.5 -214Q-83 -213 -88 -213Q-95 -211 -100 -210V-174Q-93 -176 -86 -178Q-79 -179 -71 -180Q-63 -181 -54 -181Q-35 -181 -16 -176.5Q3 -172 20 -158.5Q37 -145 50.5 -121.5Q64 -98 71 -60L175 476H92V510H182L200 600Q217 685 259 720Q301 755 372 755Q383 755 392 754Q401 753 407 753Q414 751 420 750V714Q411 716 402 718Q394 719 385 720Q376 721 367 721Q344 721 324 715.5Q304 710 287.5 696.5Q271 683 259 659.5Q247 636 240 600L222 510H470L502 660H542L510 510H651V476H503L434 150Q420 81 441 55Q462 29 509 29Q518 29 526.5 30Q535 31 542 33Q550 34 558 36V0Q549 -1 540 -3Q531 -4 521 -4.5Q511 -5 500 -5Q429 -5 403.5 35.5Q378 76 394 150L463 476H215Z" glyph-name="f_t" horiz-adv-x="626" unicode="&#59250;" /><glyph d="M550 0Q541 -1 532 -3Q523 -4 513 -4.5Q503 -5 492 -5Q421 -5 395.5 35.5Q370 76 386 150L455 476H212L120 0H80L172 476H89V510H179L197 600Q214 685 256 720Q298 755 369 755Q380 755 389 754Q398 753 404 753Q411 751 417 750V714Q408 716 399 718Q391 719 382 720Q373 721 364 721Q341 721 321 715.5Q301 710 284.5 696.5Q268 683 256 659.5Q244 636 237 600L219 510H462L494 660H534L502 510H643V476H495L426 150Q412 81 433 55Q454 29 501 29Q510 29 518.5 30Q527 31 534 33Q542 34 550 36Z" glyph-name="f_t.ss01" horiz-adv-x="618" unicode="&#61785;" /><glyph d="M518 510 428 90Q420 55 432 42Q444 29 476 29Q482 29 489 30Q496 31 503 32Q511 33 519 34V0Q510 -1 501 -3Q492 -4 483.5 -4.5Q475 -5 467 -5Q419 -5 398 16Q377 37 388 88L478 510ZM557 664Q557 631 521 631Q509 631 501.5 637Q494 643 494 654Q494 688 531 688Q543 688 550 681.5Q557 675 557 664ZM-100 -174Q-93 -176 -86 -178Q-79 -179 -71 -180Q-63 -181 -54 -181Q-35 -181 -16 -176.5Q3 -172 20 -158.5Q37 -145 50.5 -121.5Q64 -98 71 -60L175 476H92V510H182L200 600Q217 685 259 720Q301 755 372 755Q383 755 392 754Q401 753 407 753Q414 751 420 750V714Q411 716 402 718Q394 719 385 720Q376 721 367 721Q344 721 324 715.5Q304 710 287.5 696.5Q271 683 259 659.5Q247 636 240 600L222 510H363V476H215L111 -60Q95 -143 52.5 -179Q10 -215 -60 -215Q-68 -215 -75.5 -214Q-83 -213 -88 -213Q-95 -211 -100 -210Z" glyph-name="fi" horiz-adv-x="593" unicode="&#64257;" /><glyph d="M557 664Q557 631 521 631Q509 631 501.5 637Q494 643 494 654Q494 688 531 688Q543 688 550 681.5Q557 675 557 664ZM-100 -174Q-93 -176 -86 -178Q-79 -179 -71 -180Q-63 -181 -54 -181Q-35 -181 -16 -176.5Q3 -172 20 -158.5Q37 -145 50.5 -121.5Q64 -98 71 -60L175 476H92V510H182L200 600Q217 685 259 720Q301 755 372 755Q383 755 392 754Q401 753 407 753Q414 751 420 750V714Q411 716 402 718Q394 719 385 720Q376 721 367 721Q344 721 324 715.5Q304 710 287.5 696.5Q271 683 259 659.5Q247 636 240 600L222 510H363V476H215L111 -60Q95 -143 52.5 -179Q10 -215 -60 -215Q-68 -215 -75.5 -214Q-83 -213 -88 -213Q-95 -211 -100 -210ZM478 510H518L432 105Q423 62 439.5 43Q456 24 496 24Q509 24 522 25.5Q535 27 546 29Q558 31 569 34V0Q557 -3 543 -5Q531 -7 516.5 -8.5Q502 -10 487 -10Q431 -10 405.5 18.5Q380 47 392 105Z" glyph-name="fi.end" horiz-adv-x="579" unicode="&#61778;" /><glyph d="M80 0 172 476H89V510H179L197 600Q214 685 256 720Q298 755 369 755Q380 755 389 754Q398 753 404 753Q411 751 417 750V714Q408 716 399 718Q391 719 382 720Q373 721 364 721Q341 721 321 715.5Q301 710 284.5 696.5Q268 683 256 659.5Q244 636 237 600L219 510H360V476H212L120 0ZM475 510H515L429 105Q420 62 436.5 43Q453 24 493 24Q506 24 519 25.5Q532 27 543 29Q555 31 566 34V0Q554 -3 540 -5Q528 -7 513.5 -8.5Q499 -10 484 -10Q428 -10 402.5 18.5Q377 47 389 105ZM554 664Q554 631 518 631Q506 631 498.5 637Q491 643 491 654Q491 688 528 688Q540 688 547 681.5Q554 675 554 664Z" glyph-name="fi.end.ss01" horiz-adv-x="576" unicode="&#61783;" /><glyph d="M80 0 172 476H89V510H179L197 600Q214 685 256 720Q298 755 369 755Q380 755 389 754Q398 753 404 753Q411 751 417 750V714Q408 716 399 718Q391 719 382 720Q373 721 364 721Q341 721 321 715.5Q301 710 284.5 696.5Q268 683 256 659.5Q244 636 237 600L219 510H360V476H212L120 0ZM515 510 425 90Q417 55 429 42Q441 29 473 29Q479 29 486 30Q493 31 500 32Q508 33 516 34V0Q507 -1 498 -3Q489 -4 480.5 -4.5Q472 -5 464 -5Q416 -5 395 16Q374 37 385 88L475 510ZM554 664Q554 631 518 631Q506 631 498.5 637Q491 643 491 654Q491 688 528 688Q540 688 547 681.5Q554 675 554 664Z" glyph-name="fi.ss01" horiz-adv-x="590" unicode="&#61782;" /><glyph d="M62 153 138 510H483V476H169L107 187H158Q206 187 251.5 177.5Q297 168 332.5 146.5Q368 125 389.5 90Q411 55 411 4Q411 -46 390.5 -87Q370 -128 335 -157.5Q300 -187 252 -203.5Q204 -220 148 -220Q85 -220 45 -212.5Q5 -205 -30 -194V-154Q3 -166 44.5 -176Q86 -186 148 -186Q193 -186 233 -172.5Q273 -159 303.5 -134Q334 -109 352 -74Q370 -39 370 4Q370 81 310 117Q250 153 148 153Z" glyph-name="five" horiz-adv-x="473" unicode="5" /><glyph d="M102 363 178 720H523V686H209L147 397H198Q246 397 291.5 387.5Q337 378 372.5 356.5Q408 335 429.5 300Q451 265 451 214Q451 165 430.5 123.5Q410 82 375 52.5Q340 23 292 6.5Q244 -10 188 -10Q125 -10 85 -2.5Q45 5 10 16V56Q43 44 84.5 34Q126 24 188 24Q233 24 273 37.5Q313 51 343.5 76Q374 101 392 136Q410 171 410 214Q410 291 350 327Q290 363 188 363Z" glyph-name="five.lnum" horiz-adv-x="513" unicode="&#59653;" /><glyph d="M150 363 226 720H571V686H257L195 397H246Q294 397 339.5 387.5Q385 378 420.5 356.5Q456 335 477.5 300Q499 265 499 214Q499 165 478.5 123.5Q458 82 423 52.5Q388 23 340 6.5Q292 -10 236 -10Q173 -10 133 -2.5Q93 5 58 16V56Q91 44 132.5 34Q174 24 236 24Q281 24 321 37.5Q361 51 391.5 76Q422 101 440 136Q458 171 458 214Q458 291 398 327Q338 363 236 363Z" glyph-name="five.lnum_tnum" horiz-adv-x="650" unicode="&#59669;" /><glyph d="M150 153 226 510H571V476H257L195 187H246Q294 187 339.5 177.5Q385 168 420.5 146.5Q456 125 477.5 90Q499 55 499 4Q499 -46 478.5 -87Q458 -128 423 -157.5Q388 -187 340 -203.5Q292 -220 236 -220Q173 -220 133 -212.5Q93 -205 58 -194V-154Q91 -166 132.5 -176Q174 -186 236 -186Q281 -186 321 -172.5Q361 -159 391.5 -134Q422 -109 440 -74Q458 -39 458 4Q458 81 398 117Q338 153 236 153Z" glyph-name="five.tnum_onum" horiz-adv-x="650" unicode="&#59685;" /><glyph d="M531 750H571L430 90Q422 55 434 42Q446 29 478 29Q484 29 491 30Q498 31 505 32Q513 33 521 34V0Q512 -1 503 -3Q494 -4 485.5 -4.5Q477 -5 469 -5Q421 -5 400 16Q379 37 390 88ZM-100 -174Q-93 -176 -86 -178Q-79 -179 -71 -180Q-63 -181 -54 -181Q-35 -181 -16 -176.5Q3 -172 20 -158.5Q37 -145 50.5 -121.5Q64 -98 71 -60L175 476H92V510H182L200 600Q217 685 259 720Q301 755 372 755Q383 755 392 754Q401 753 407 753Q414 751 420 750V714Q411 716 402 718Q394 719 385 720Q376 721 367 721Q344 721 324 715.5Q304 710 287.5 696.5Q271 683 259 659.5Q247 636 240 600L222 510H363V476H215L111 -60Q95 -143 52.5 -179Q10 -215 -60 -215Q-68 -215 -75.5 -214Q-83 -213 -88 -213Q-95 -211 -100 -210Z" glyph-name="fl" horiz-adv-x="595" unicode="&#64258;" /><glyph d="M80 0 172 476H89V510H179L197 600Q214 685 256 720Q298 755 369 755Q380 755 389 754Q398 753 404 753Q411 751 417 750V714Q408 716 399 718Q391 719 382 720Q373 721 364 721Q341 721 321 715.5Q301 710 284.5 696.5Q268 683 256 659.5Q244 636 237 600L219 510H360V476H212L120 0ZM528 750H568L427 90Q419 55 431 42Q443 29 475 29Q481 29 488 30Q495 31 502 32Q510 33 518 34V0Q509 -1 500 -3Q491 -4 482.5 -4.5Q474 -5 466 -5Q418 -5 397 16Q376 37 387 88Z" glyph-name="fl.ss01" horiz-adv-x="592" unicode="&#61784;" /><glyph d="M-100 -174Q-93 -176 -86 -178Q-79 -179 -71 -180Q-63 -181 -54 -181Q-35 -181 -16 -176.5Q3 -172 20 -158.5Q37 -145 50.5 -121.5Q64 -98 71 -60L175 476H92V510H182L200 600Q217 685 259 720Q301 755 372 755Q383 755 392 754Q401 753 407 753Q414 751 420 750V714Q411 716 402 718Q394 719 385 720Q376 721 367 721Q344 721 324 715.5Q304 710 287.5 696.5Q271 683 259 659.5Q247 636 240 600L222 510H363V476H215L111 -60Q95 -143 52.5 -179Q10 -215 -60 -215Q-68 -215 -75.5 -214Q-83 -213 -88 -213Q-95 -211 -100 -210Z" glyph-name="florin" horiz-adv-x="340" unicode="&#402;" /><glyph d="M350 0H10V36L293 510H337L54 34H357L434 392H474L398 34H480V0H391L346 -210H306Z" glyph-name="four" horiz-adv-x="540" unicode="4" /><glyph d="M385 210H45V246L328 720H372L89 244H392L469 602H509L433 244H515V210H426L381 0H341Z" glyph-name="four.lnum" horiz-adv-x="560" unicode="&#59652;" /><glyph d="M420 210H80V246L363 720H407L124 244H427L504 602H544L468 244H550V210H461L416 0H376Z" glyph-name="four.lnum_tnum" horiz-adv-x="650" unicode="&#59668;" /><glyph d="M420 0H80V36L363 510H407L124 34H427L504 392H544L468 34H550V0H461L416 -210H376Z" glyph-name="four.tnum_onum" horiz-adv-x="650" unicode="&#59684;" /><glyph d="M-52 0H-100L534 750H582Z" glyph-name="fraction" horiz-adv-x="422" unicode="&#8260;" /><glyph d="M197 -10Q124 -10 84.5 34.5Q45 79 45 160Q45 221 60 284.5Q75 348 106.5 400.5Q138 453 187.5 486.5Q237 520 306 520Q359 520 394 493.5Q429 467 444 419L463 510H503L412 84Q396 11 372 -45.5Q348 -102 312.5 -141Q277 -180 228.5 -200Q180 -220 116 -220Q68 -220 34 -210Q0 -200 -12 -194V-154Q6 -163 27 -170Q47 -177 71.5 -181.5Q96 -186 125 -186Q178 -186 219 -167Q260 -148 290.5 -112Q321 -76 342 -24Q363 28 377 94Q344 48 301.5 19Q259 -10 197 -10ZM301 486Q246 486 205.5 455.5Q165 425 138 377.5Q111 330 98 273.5Q85 217 85 165Q85 96 114 60Q143 24 202 24Q257 24 297.5 54.5Q338 85 365 132Q392 179 405 235.5Q418 292 418 343Q418 413 389.5 449.5Q361 486 301 486Z" glyph-name="g" horiz-adv-x="541" unicode="g" /><glyph d="M197 -10Q124 -10 84.5 34.5Q45 79 45 160Q45 221 60 284.5Q75 348 106.5 400.5Q138 453 187.5 486.5Q237 520 306 520Q359 520 394 493.5Q429 467 444 419L463 510H503L412 84Q396 11 372 -45.5Q348 -102 312.5 -141Q277 -180 228.5 -200Q180 -220 116 -220Q68 -220 34 -210Q0 -200 -12 -194V-154Q6 -163 27 -170Q47 -177 71.5 -181.5Q96 -186 125 -186Q178 -186 219 -167Q260 -148 290.5 -112Q321 -76 342 -24Q363 28 377 94Q344 48 301.5 19Q259 -10 197 -10ZM301 486Q246 486 205.5 455.5Q165 425 138 377.5Q111 330 98 273.5Q85 217 85 165Q85 96 114 60Q143 24 202 24Q257 24 297.5 54.5Q338 85 365 132Q392 179 405 235.5Q418 292 418 343Q418 413 389.5 449.5Q361 486 301 486ZM462 686Q462 667 454 649.5Q446 632 430.5 618Q415 604 391 595.5Q367 587 335 587Q303 587 280 595.5Q257 604 242 618Q227 632 219.5 649.5Q212 667 212 686H250Q252 652 276 634Q300 616 337 616Q375 616 398.5 634Q422 652 424 686Z" glyph-name="gbreve" horiz-adv-x="541" unicode="&#287;" /><glyph d="M197 -10Q124 -10 84.5 34.5Q45 79 45 160Q45 221 60 284.5Q75 348 106.5 400.5Q138 453 187.5 486.5Q237 520 306 520Q359 520 394 493.5Q429 467 444 419L463 510H503L412 84Q396 11 372 -45.5Q348 -102 312.5 -141Q277 -180 228.5 -200Q180 -220 116 -220Q68 -220 34 -210Q0 -200 -12 -194V-154Q6 -163 27 -170Q47 -177 71.5 -181.5Q96 -186 125 -186Q178 -186 219 -167Q260 -148 290.5 -112Q321 -76 342 -24Q363 28 377 94Q344 48 301.5 19Q259 -10 197 -10ZM301 486Q246 486 205.5 455.5Q165 425 138 377.5Q111 330 98 273.5Q85 217 85 165Q85 96 114 60Q143 24 202 24Q257 24 297.5 54.5Q338 85 365 132Q392 179 405 235.5Q418 292 418 343Q418 413 389.5 449.5Q361 486 301 486ZM348 704 236 590H189L333 730H371L457 590H416Z" glyph-name="gcircumflex" horiz-adv-x="541" unicode="&#285;" /><glyph d="M197 -10Q124 -10 84.5 34.5Q45 79 45 160Q45 221 60 284.5Q75 348 106.5 400.5Q138 453 187.5 486.5Q237 520 306 520Q359 520 394 493.5Q429 467 444 419L463 510H503L412 84Q396 11 372 -45.5Q348 -102 312.5 -141Q277 -180 228.5 -200Q180 -220 116 -220Q68 -220 34 -210Q0 -200 -12 -194V-154Q6 -163 27 -170Q47 -177 71.5 -181.5Q96 -186 125 -186Q178 -186 219 -167Q260 -148 290.5 -112Q321 -76 342 -24Q363 28 377 94Q344 48 301.5 19Q259 -10 197 -10ZM301 486Q246 486 205.5 455.5Q165 425 138 377.5Q111 330 98 273.5Q85 217 85 165Q85 96 114 60Q143 24 202 24Q257 24 297.5 54.5Q338 85 365 132Q392 179 405 235.5Q418 292 418 343Q418 413 389.5 449.5Q361 486 301 486ZM369 689Q330 673 325 637Q327 639 330 640.5Q333 642 340 642Q347 642 353 635.5Q359 629 359 618Q359 602 349.5 592.5Q340 583 322 583Q311 583 301.5 590.5Q292 598 292 618Q292 637 299 653.5Q306 670 317 682.5Q328 695 341.5 703.5Q355 712 369 715Z" glyph-name="gcommaaccent" horiz-adv-x="541" unicode="&#291;" /><glyph d="M-129 -184Q-122 -186 -115 -188Q-108 -189 -100 -190Q-92 -191 -83 -191Q-64 -191 -45 -186.5Q-26 -182 -9.5 -168.5Q7 -155 20.5 -131.5Q34 -108 42 -70L156 476H73V510H164L175 562Q197 664 251.5 709.5Q306 755 387 755Q455 755 498.5 726Q542 697 542 640Q542 599 530 572Q518 545 499.5 526Q481 507 460 493.5Q439 480 420.5 465.5Q402 451 390 432.5Q378 414 378 385Q378 365 389.5 351.5Q401 338 418 326Q435 314 455 302Q475 290 492 273.5Q509 257 520.5 234.5Q532 212 532 180Q532 142 519 107.5Q506 73 479.5 47Q453 21 414 5.5Q375 -10 322 -10Q290 -10 264.5 -5.5Q239 -1 222 5Q201 12 186 20V59Q203 49 224 42Q244 34 269 29Q294 24 326 24Q360 24 389.5 34.5Q419 45 441.5 65Q464 85 477 113Q490 141 490 176Q490 204 478.5 223Q467 242 450 256Q433 270 413.5 282Q394 294 377 307Q360 320 348.5 337Q337 354 337 379Q337 413 349 436Q361 459 379.5 476.5Q398 494 419 508.5Q440 523 458.5 540Q477 557 489 580Q501 603 501 636Q501 681 469 701Q437 721 383 721Q356 721 330 713Q304 705 281.5 686.5Q259 668 241.5 637.5Q224 607 215 562L82 -70Q65 -153 23 -189Q-19 -225 -89 -225Q-97 -225 -104.5 -224Q-112 -223 -117 -223Q-124 -221 -129 -220Z" glyph-name="germandbls" horiz-adv-x="562" unicode="&#223;" /><glyph d="M383 721Q356 721 330 713Q304 705 281.5 686.5Q259 668 242 637.5Q225 607 215 562L95 0H55L156 476H73V510H164L175 562Q196 662 251 708.5Q306 755 387 755Q455 755 498.5 726Q542 697 542 640Q542 599 530 572Q518 545 499.5 526Q481 507 460 493.5Q439 480 420.5 465.5Q402 451 390 432.5Q378 414 378 385Q378 365 389.5 351.5Q401 338 418 326Q435 314 455 302Q475 290 492 273.5Q509 257 520.5 234.5Q532 212 532 180Q532 142 519 107.5Q506 73 479.5 47Q453 21 414 5.5Q375 -10 322 -10Q290 -10 264.5 -5.5Q239 -1 222 5Q201 12 186 20V59Q203 49 224 42Q244 34 269 29Q294 24 326 24Q360 24 389.5 34.5Q419 45 441.5 65Q464 85 477 113Q490 141 490 176Q490 204 478.5 223Q467 242 450 256Q433 270 413.5 282Q394 294 377 307Q360 320 348.5 337Q337 354 337 379Q337 413 349 436Q361 459 379.5 476.5Q398 494 419 508.5Q440 523 458.5 540Q477 557 489 580Q501 603 501 636Q501 681 469 701Q437 721 383 721Z" glyph-name="germandbls.ss01" horiz-adv-x="562" unicode="&#61808;" /><glyph d="M100 730H150L260 590H220Z" glyph-name="grave" horiz-adv-x="390" unicode="`" /><glyph d="M421 344 63 219 50 253 367 360 95 467 108 501 421 376Z" glyph-name="greater" horiz-adv-x="450" unicode="&gt;" /><glyph d="M70 186V220H440V186ZM467 404 109 279 96 313 413 420 141 527 154 561 467 436Z" glyph-name="greaterequal" horiz-adv-x="507" unicode="&#8805;" /><glyph d="M298 161 175 329 361 505 390 481 225 327 327 187ZM153 161 30 329 216 505 245 481 80 327 182 187Z" glyph-name="guillemotleft" horiz-adv-x="380" unicode="&#171;" /><glyph d="M20 187 183 335 82 481 111 505 233 329 48 161ZM164 187 328 335 227 481 256 505 378 329 193 161Z" glyph-name="guillemotright" horiz-adv-x="398" unicode="&#187;" /><glyph d="M153 161 30 329 216 505 245 481 80 327 182 187Z" glyph-name="guilsinglleft" horiz-adv-x="235" unicode="&#8249;" /><glyph d="M20 187 184 335 83 481 112 505 234 329 49 161Z" glyph-name="guilsinglright" horiz-adv-x="254" unicode="&#8250;" /><glyph d="M425 315Q442 396 421.5 441Q401 486 331 486Q305 486 276 474.5Q247 463 220 437.5Q193 412 171 370.5Q149 329 137 270L80 0H40L200 750H240L166 416Q196 463 241 491.5Q286 520 343 520Q377 520 404.5 508.5Q432 497 449.5 472Q467 447 472 408Q477 369 465 315L417 90Q409 55 420.5 42Q432 29 464 29Q470 29 477 30Q484 31 491 32Q499 33 507 34V0Q498 -1 489 -3Q480 -4 471.5 -4.5Q463 -5 455 -5Q407 -5 386 16Q365 37 376 88Z" glyph-name="h" horiz-adv-x="557" unicode="h" /><glyph d="M425 315Q442 396 421.5 441Q401 486 331 486Q305 486 276 474.5Q247 463 220 437.5Q193 412 171 370.5Q149 329 137 270L80 0H40L200 750H240L166 416Q196 463 241 491.5Q286 520 343 520Q377 520 404.5 508.5Q432 497 449.5 472Q467 447 472 408Q477 369 465 315L420 105Q411 62 427.5 43Q444 24 484 24Q497 24 510 25.5Q523 27 534 29Q546 31 557 34V0Q545 -3 531 -5Q519 -7 504.5 -8.5Q490 -10 475 -10Q419 -10 393.5 18.5Q368 47 380 105Z" glyph-name="h.end" horiz-adv-x="567" unicode="&#58023;" /><glyph d="M507 0Q498 -1 489 -3Q480 -4 471.5 -4.5Q463 -5 455 -5Q407 -5 386 16Q365 37 376 88L425 315Q442 396 421.5 441Q401 486 331 486Q305 486 276 474.5Q247 463 220 437.5Q193 412 171 370.5Q149 329 137 270L80 0H40L200 750H240L166 416Q196 463 241 491.5Q286 520 343 520Q377 520 404.5 508.5Q432 497 449.5 472Q467 447 472 408Q477 369 465 315L417 90Q409 55 420.5 42Q432 29 464 29Q470 29 477 30Q484 31 491 32Q499 33 507 34ZM249 904 137 790H90L234 930H272L358 790H317Z" glyph-name="hcircumflex" horiz-adv-x="557" unicode="&#293;" /><glyph d="M246 904 134 790H87L231 930H269L355 790H314ZM425 315Q442 396 421.5 441Q401 486 331 486Q305 486 276 474.5Q247 463 220 437.5Q193 412 171 370.5Q149 329 137 270L80 0H40L200 750H240L166 416Q196 463 241 491.5Q286 520 343 520Q377 520 404.5 508.5Q432 497 449.5 472Q467 447 472 408Q477 369 465 315L420 105Q411 62 427.5 43Q444 24 484 24Q497 24 510 25.5Q523 27 534 29Q546 31 557 34V0Q545 -3 531 -5Q519 -7 504.5 -8.5Q490 -10 475 -10Q419 -10 393.5 18.5Q368 47 380 105Z" glyph-name="hcircumflex.end" horiz-adv-x="567" unicode="&#61506;" /><glyph d="M180 590H140L250 730H300ZM288 590H248L358 730H408Z" glyph-name="hungarumlaut" horiz-adv-x="390" unicode="&#733;" /><glyph d="M100 313V347H470V313Z" glyph-name="hyphen" horiz-adv-x="570" unicode="-" /><glyph d="M231 664Q231 631 195 631Q183 631 175.5 637Q168 643 168 654Q168 688 205 688Q217 688 224 681.5Q231 675 231 664ZM189 510 99 90Q91 55 103 42Q115 29 147 29Q153 29 160 30Q167 31 174 32Q182 33 190 34V0Q181 -1 172 -3Q163 -4 154.5 -4.5Q146 -5 138 -5Q90 -5 69 16Q48 37 59 88L149 510Z" glyph-name="i" horiz-adv-x="264" unicode="i" /><glyph d="M149 510H189L103 105Q94 62 110.5 43Q127 24 167 24Q180 24 193 25.5Q206 27 217 29Q229 31 240 34V0Q228 -3 214 -5Q202 -7 187.5 -8.5Q173 -10 158 -10Q102 -10 76.5 18.5Q51 47 63 105ZM231 664Q231 631 195 631Q183 631 175.5 637Q168 643 168 654Q168 688 205 688Q217 688 224 681.5Q231 675 231 664Z" glyph-name="i.end" horiz-adv-x="250" unicode="&#58024;" /><glyph d="M189 510 99 90Q91 55 103 42Q115 29 147 29Q153 29 160 30Q167 31 174 32Q182 33 190 34V0Q181 -1 172 -3Q163 -4 154.5 -4.5Q146 -5 138 -5Q90 -5 69 16Q48 37 59 88L149 510ZM204 590H164L274 730H324Z" glyph-name="iacute" horiz-adv-x="264" unicode="&#237;" /><glyph d="M203 590H163L273 730H323ZM149 510H189L103 105Q94 62 110.5 43Q127 24 167 24Q180 24 193 25.5Q206 27 217 29Q229 31 240 34V0Q228 -3 214 -5Q202 -7 187.5 -8.5Q173 -10 158 -10Q102 -10 76.5 18.5Q51 47 63 105Z" glyph-name="iacute.end" horiz-adv-x="250" unicode="&#61509;" /><glyph d="M189 510 99 90Q91 55 103 42Q115 29 147 29Q153 29 160 30Q167 31 174 32Q182 33 190 34V0Q181 -1 172 -3Q163 -4 154.5 -4.5Q146 -5 138 -5Q90 -5 69 16Q48 37 59 88L149 510ZM209 704 97 590H50L194 730H232L318 590H277Z" glyph-name="icircumflex" horiz-adv-x="264" unicode="&#238;" /><glyph d="M208 704 96 590H49L193 730H231L317 590H276ZM149 510H189L103 105Q94 62 110.5 43Q127 24 167 24Q180 24 193 25.5Q206 27 217 29Q229 31 240 34V0Q228 -3 214 -5Q202 -7 187.5 -8.5Q173 -10 158 -10Q102 -10 76.5 18.5Q51 47 63 105Z" glyph-name="icircumflex.end" horiz-adv-x="250" unicode="&#61510;" /><glyph d="M189 510 99 90Q91 55 103 42Q115 29 147 29Q153 29 160 30Q167 31 174 32Q182 33 190 34V0Q181 -1 172 -3Q163 -4 154.5 -4.5Q146 -5 138 -5Q90 -5 69 16Q48 37 59 88L149 510ZM136 660Q136 631 105 631Q91 631 83 638Q75 645 75 659Q75 672 83.5 680Q92 688 106 688Q120 688 128 681Q136 674 136 660ZM316 660Q316 631 285 631Q271 631 263 638Q255 645 255 659Q255 672 263.5 680Q272 688 286 688Q300 688 308 681Q316 674 316 660Z" glyph-name="idieresis" horiz-adv-x="264" unicode="&#239;" /><glyph d="M139 660Q139 631 108 631Q94 631 86 638Q78 645 78 659Q78 672 86.5 680Q95 688 109 688Q123 688 131 681Q139 674 139 660ZM319 660Q319 631 288 631Q274 631 266 638Q258 645 258 659Q258 672 266.5 680Q275 688 289 688Q303 688 311 681Q319 674 319 660ZM149 510H189L103 105Q94 62 110.5 43Q127 24 167 24Q180 24 193 25.5Q206 27 217 29Q229 31 240 34V0Q228 -3 214 -5Q202 -7 187.5 -8.5Q173 -10 158 -10Q102 -10 76.5 18.5Q51 47 63 105Z" glyph-name="idieresis.end" horiz-adv-x="250" unicode="&#61511;" /><glyph d="M189 510 99 90Q91 55 103 42Q115 29 147 29Q153 29 160 30Q167 31 174 32Q182 33 190 34V0Q181 -1 172 -3Q163 -4 154.5 -4.5Q146 -5 138 -5Q90 -5 69 16Q48 37 59 88L149 510ZM42 730H92L202 590H162Z" glyph-name="igrave" horiz-adv-x="264" unicode="&#236;" /><glyph d="M40 730H90L200 590H160ZM149 510H189L103 105Q94 62 110.5 43Q127 24 167 24Q180 24 193 25.5Q206 27 217 29Q229 31 240 34V0Q228 -3 214 -5Q202 -7 187.5 -8.5Q173 -10 158 -10Q102 -10 76.5 18.5Q51 47 63 105Z" glyph-name="igrave.end" horiz-adv-x="250" unicode="&#61512;" /><glyph d="M189 510 99 90Q91 55 103 42Q115 29 147 29Q153 29 160 30Q167 31 174 32Q182 33 190 34V0Q181 -1 172 -3Q163 -4 154.5 -4.5Q146 -5 138 -5Q90 -5 69 16Q48 37 59 88L149 510ZM20 636V670H337V636Z" glyph-name="imacron" horiz-adv-x="264" unicode="&#299;" /><glyph d="M29 636V670H346V636ZM149 510H189L103 105Q94 62 110.5 43Q127 24 167 24Q180 24 193 25.5Q206 27 217 29Q229 31 240 34V0Q228 -3 214 -5Q202 -7 187.5 -8.5Q173 -10 158 -10Q102 -10 76.5 18.5Q51 47 63 105Z" glyph-name="imacron.end" horiz-adv-x="250" unicode="&#61513;" /><glyph d="M644 360Q644 326 632.5 297.5Q621 269 601 248.5Q581 228 553 216.5Q525 205 493 205Q443 205 406.5 230Q370 255 352 292Q333 255 296.5 230Q260 205 211 205Q179 205 151.5 216.5Q124 228 103.5 248.5Q83 269 71.5 297.5Q60 326 60 360Q60 394 71.5 422.5Q83 451 103.5 471.5Q124 492 151.5 503.5Q179 515 211 515Q260 515 296.5 489.5Q333 464 352 427Q370 464 406.5 489.5Q443 515 493 515Q525 515 553 503.5Q581 492 601 471.5Q621 451 632.5 422.5Q644 394 644 360ZM606 360Q606 387 597 410Q588 433 572.5 449Q557 465 536.5 474Q516 483 493 483Q468 483 446 473.5Q424 464 407.5 448Q391 432 381 410.5Q371 389 370 365V360Q370 335 380 312.5Q390 290 406.5 273Q423 256 445.5 246.5Q468 237 493 237Q516 237 536.5 246Q557 255 572.5 271Q588 287 597 310Q606 333 606 360ZM98 360Q98 333 107 310Q116 287 131.5 271Q147 255 167.5 246Q188 237 211 237Q236 237 258.5 246.5Q281 256 297.5 273Q314 290 324 312.5Q334 335 334 360V365Q333 389 322.5 410.5Q312 432 295.5 448Q279 464 257 473.5Q235 483 211 483Q188 483 167.5 474Q147 465 131.5 449Q116 433 107 410Q98 387 98 360Z" glyph-name="infinity" horiz-adv-x="684" unicode="&#8734;" /><glyph d="M-95 -174Q-88 -176 -81 -178Q-74 -179 -66 -180Q-58 -181 -49 -181Q-30 -181 -11 -176.5Q8 -172 25 -158.5Q42 -145 55.5 -121.5Q69 -98 76 -60L205 600Q222 685 264 720Q306 755 377 755Q388 755 397 754Q406 753 412 753Q419 751 425 750V714Q416 716 407 718Q399 719 390 720Q381 721 372 721Q349 721 329 715.5Q309 710 292.5 696.5Q276 683 264 659.5Q252 636 245 600L116 -60Q99 -143 57 -179Q15 -215 -55 -215Q-63 -215 -70.5 -214Q-78 -213 -83 -213Q-90 -211 -95 -210Z" glyph-name="integral" horiz-adv-x="356" unicode="&#8747;" /><glyph d="M189 510 99 90Q91 55 103 42Q115 29 147 29Q153 29 160 30Q167 31 174 32Q182 33 190 34V0Q153 -38 139.5 -60Q126 -82 126 -98Q126 -112 134.5 -118Q143 -124 156 -124Q163 -124 170 -122Q177 -120 183 -118Q190 -115 196 -111V-142Q190 -145 183 -148Q176 -150 168 -152Q160 -154 151 -154Q125 -154 105.5 -142.5Q86 -131 86 -103Q86 -78 103 -54Q120 -30 149 -4Q145 -5 138 -5Q90 -5 69 16Q48 37 59 88L149 510ZM231 664Q231 631 195 631Q183 631 175.5 637Q168 643 168 654Q168 688 205 688Q217 688 224 681.5Q231 675 231 664Z" glyph-name="iogonek" horiz-adv-x="264" unicode="&#303;" /><glyph d="M149 510H189L103 105Q94 62 110.5 43Q127 24 167 24Q180 24 193 25.5Q206 27 217 29Q229 31 240 34V0Q203 -38 189.5 -60Q176 -82 176 -98Q176 -112 184.5 -118Q193 -124 206 -124Q213 -124 220 -122Q227 -120 233 -118Q240 -115 246 -111V-142Q240 -145 233 -148Q226 -150 218 -152Q210 -154 201 -154Q175 -154 155.5 -142.5Q136 -131 136 -103Q136 -79 152.5 -56Q169 -33 196 -7Q178 -10 158 -10Q102 -10 76.5 18.5Q51 47 63 105ZM231 664Q231 631 195 631Q183 631 175.5 637Q168 643 168 654Q168 688 205 688Q217 688 224 681.5Q231 675 231 664Z" glyph-name="iogonek.end" horiz-adv-x="250" unicode="&#61520;" /><glyph d="M-126 -174Q-119 -176 -112 -178Q-105 -179 -97 -180Q-89 -181 -80 -181Q-61 -181 -42 -176.5Q-23 -172 -6.5 -158.5Q10 -145 23.5 -121.5Q37 -98 45 -60L167 510H207L85 -60Q68 -141 26 -178Q-16 -215 -86 -215Q-94 -215 -101.5 -214Q-109 -213 -114 -213Q-121 -211 -126 -210ZM246 664Q246 631 210 631Q198 631 190.5 637Q183 643 183 654Q183 688 220 688Q232 688 239 681.5Q246 675 246 664Z" glyph-name="j" horiz-adv-x="262" unicode="j" /><glyph d="M-126 -174Q-119 -176 -112 -178Q-105 -179 -97 -180Q-89 -181 -80 -181Q-61 -181 -42 -176.5Q-23 -172 -6.5 -158.5Q10 -145 23.5 -121.5Q37 -98 45 -60L167 510H207L85 -60Q68 -141 26 -178Q-16 -215 -86 -215Q-94 -215 -101.5 -214Q-109 -213 -114 -213Q-121 -211 -126 -210ZM224 704 112 590H65L209 730H247L333 590H292Z" glyph-name="jcircumflex" horiz-adv-x="262" unicode="&#309;" /><glyph d="M375 0 218 277 128 203 85 0H45L204 750H244L138 252L450 510H503L249 302L420 0Z" glyph-name="k" horiz-adv-x="478" unicode="k" /><glyph d="M137 246 85 0H45L204 750H244L173 416Q206 467 254 493.5Q302 520 358 520Q427 520 462 483.5Q497 447 497 387Q497 332 464.5 292Q432 252 365 237Q391 221 400.5 198Q410 175 408 152Q405 123 400.5 104Q396 85 396 66Q396 45 408.5 37Q421 29 447 29Q453 29 460 30Q467 31 474 32Q482 33 490 34V0Q481 -1 472 -3Q463 -4 454.5 -4.5Q446 -5 438 -5Q397 -5 375.5 9Q354 23 354 58Q354 79 359.5 101.5Q365 124 367 144Q370 175 351 200Q332 225 281 230Q218 231 182 237.5Q146 244 139 246ZM349 486Q311 486 277.5 468.5Q244 451 217 422Q190 393 171.5 355.5Q153 318 144 278Q147 277 185 269.5Q223 262 298 262Q379 262 418 297.5Q457 333 457 387Q457 434 430 460Q403 486 349 486Z" glyph-name="k.round" horiz-adv-x="534" unicode="&#61521;" /><glyph d="M137 246 85 0H45L204 750H244L173 416Q206 467 254 493.5Q302 520 358 520Q427 520 462 483.5Q497 447 497 387Q497 332 464.5 292Q432 252 365 237Q388 223 398 203Q408 183 408 162Q408 141 401.5 121.5Q395 102 395 80Q395 44 415.5 34Q436 24 462 24Q475 24 488 25.5Q501 27 512 29Q524 31 535 34V0Q523 -3 509 -5Q497 -7 482.5 -8.5Q468 -10 453 -10Q413 -10 383.5 8Q354 26 354 72Q354 99 361 120.5Q368 142 368 164Q368 185 348 205Q328 225 280 230Q217 231 181.5 237.5Q146 244 139 246ZM349 486Q311 486 277.5 468.5Q244 451 217 422Q190 393 171.5 355.5Q153 318 144 278Q147 277 185 269.5Q223 262 298 262Q379 262 418 297.5Q457 333 457 387Q457 434 430 460Q403 486 349 486Z" glyph-name="k.round.end" horiz-adv-x="545" unicode="&#61523;" /><glyph d="M375 0 218 277 128 203 85 0H45L204 750H244L138 252L450 510H503L249 302L420 0ZM180 -130Q219 -114 224 -78Q222 -80 219 -81.5Q216 -83 209 -83Q202 -83 196 -76.5Q190 -70 190 -59Q190 -43 199.5 -33.5Q209 -24 227 -24Q238 -24 247.5 -31.5Q257 -39 257 -59Q257 -78 250 -94.5Q243 -111 232 -123.5Q221 -136 207.5 -144.5Q194 -153 180 -156Z" glyph-name="kcommaaccent" horiz-adv-x="478" unicode="&#311;" /><glyph d="M137 246 85 0H45L204 750H244L173 416Q206 467 254 493.5Q302 520 358 520Q427 520 462 483.5Q497 447 497 387Q497 332 464.5 292Q432 252 365 237Q391 221 400.5 198Q410 175 408 152Q405 123 400.5 104Q396 85 396 66Q396 45 408.5 37Q421 29 447 29Q453 29 460 30Q467 31 474 32Q482 33 490 34V0Q481 -1 472 -3Q463 -4 454.5 -4.5Q446 -5 438 -5Q397 -5 375.5 9Q354 23 354 58Q354 79 359.5 101.5Q365 124 367 144Q370 175 351 200Q332 225 281 230Q218 231 182 237.5Q146 244 139 246ZM349 486Q311 486 277.5 468.5Q244 451 217 422Q190 393 171.5 355.5Q153 318 144 278Q147 277 185 269.5Q223 262 298 262Q379 262 418 297.5Q457 333 457 387Q457 434 430 460Q403 486 349 486ZM188 -130Q227 -114 232 -78Q230 -80 227 -81.5Q224 -83 217 -83Q210 -83 204 -76.5Q198 -70 198 -59Q198 -43 207.5 -33.5Q217 -24 235 -24Q246 -24 255.5 -31.5Q265 -39 265 -59Q265 -78 258 -94.5Q251 -111 240 -123.5Q229 -136 215.5 -144.5Q202 -153 188 -156Z" glyph-name="kcommaaccent.round" horiz-adv-x="534" unicode="&#61527;" /><glyph d="M137 246 85 0H45L204 750H244L173 416Q204 467 248.5 493.5Q293 520 349 520Q425 520 461 480.5Q497 441 497 381Q497 326 464.5 288.5Q432 251 365 237Q388 223 398 203Q408 183 408 162Q408 141 401.5 121.5Q395 102 395 80Q395 44 415.5 34Q436 24 462 24Q475 24 488 25.5Q501 27 512 29Q524 31 535 34V0Q523 -3 509 -5Q497 -7 482.5 -8.5Q468 -10 453 -10Q413 -10 383.5 8Q354 26 354 72Q354 99 361 120.5Q368 142 368 164Q368 185 348 205Q328 225 280 230Q218 231 182 237.5Q146 244 139 246ZM344 486Q302 486 268.5 468.5Q235 451 210.5 422Q186 393 169.5 355.5Q153 318 144 278Q147 277 185 269.5Q223 262 298 262Q379 262 418 295Q457 328 457 382Q457 429 429.5 457.5Q402 486 344 486ZM187 -130Q226 -114 231 -78Q229 -80 226 -81.5Q223 -83 216 -83Q209 -83 203 -76.5Q197 -70 197 -59Q197 -43 206.5 -33.5Q216 -24 234 -24Q245 -24 254.5 -31.5Q264 -39 264 -59Q264 -78 257 -94.5Q250 -111 239 -123.5Q228 -136 214.5 -144.5Q201 -153 187 -156Z" glyph-name="kcommaaccent.round.end" horiz-adv-x="545" unicode="&#61529;" /><glyph d="M200 750H240L99 90Q91 55 103 42Q115 29 147 29Q153 29 160 30Q167 31 174 32Q182 33 190 34V0Q181 -1 172 -3Q163 -4 154.5 -4.5Q146 -5 138 -5Q90 -5 69 16Q48 37 59 88Z" glyph-name="l" horiz-adv-x="264" unicode="l" /><glyph d="M506 750H546L405 90Q397 55 409 42Q421 29 453 29Q459 29 466 30Q473 31 480 32Q488 33 496 34V0Q487 -1 478 -3Q469 -4 460.5 -4.5Q452 -5 444 -5Q396 -5 375 16Q354 37 365 88ZM200 750H240L99 90Q91 55 103 42Q115 29 147 29Q153 29 160 30Q167 31 174 32Q182 33 190 34V0Q181 -1 172 -3Q163 -4 154.5 -4.5Q146 -5 138 -5Q90 -5 69 16Q48 37 59 88ZM327 379Q327 346 291 346Q279 346 271.5 352Q264 358 264 369Q264 403 301 403Q313 403 320 396.5Q327 390 327 379Z" glyph-name="l_l" horiz-adv-x="570" unicode="&#63168;" /><glyph d="M200 750H240L99 90Q91 55 103 42Q115 29 147 29Q153 29 160 30Q167 31 174 32Q182 33 190 34V0Q181 -1 172 -3Q163 -4 154.5 -4.5Q146 -5 138 -5Q90 -5 69 16Q48 37 59 88ZM251 790H211L321 930H371Z" glyph-name="lacute" horiz-adv-x="264" unicode="&#314;" /><glyph d="M200 750H240L99 90Q91 55 103 42Q115 29 147 29Q153 29 160 30Q167 31 174 32Q182 33 190 34V0Q181 -1 172 -3Q163 -4 154.5 -4.5Q146 -5 138 -5Q90 -5 69 16Q48 37 59 88ZM267 660Q306 676 311 712Q309 710 306 708.5Q303 707 296 707Q289 707 283 713.5Q277 720 277 731Q277 747 286.5 756.5Q296 766 314 766Q325 766 334.5 758.5Q344 751 344 731Q344 712 337 696Q330 680 319 667Q308 654 294.5 645.5Q281 637 267 634Z" glyph-name="lcaron" horiz-adv-x="284" unicode="&#318;" /><glyph d="M200 750H240L99 90Q91 55 103 42Q115 29 147 29Q153 29 160 30Q167 31 174 32Q182 33 190 34V0Q181 -1 172 -3Q163 -4 154.5 -4.5Q146 -5 138 -5Q90 -5 69 16Q48 37 59 88ZM73 -130Q112 -114 117 -78Q115 -80 112 -81.5Q109 -83 102 -83Q95 -83 89 -76.5Q83 -70 83 -59Q83 -43 92.5 -33.5Q102 -24 120 -24Q131 -24 140.5 -31.5Q150 -39 150 -59Q150 -78 143 -94.5Q136 -111 125 -123.5Q114 -136 100.5 -144.5Q87 -153 73 -156Z" glyph-name="lcommaaccent" horiz-adv-x="264" unicode="&#316;" /><glyph d="M327 379Q327 346 291 346Q279 346 271.5 352Q264 358 264 369Q264 403 301 403Q313 403 320 396.5Q327 390 327 379ZM200 750H240L99 90Q91 55 103 42Q115 29 147 29Q153 29 160 30Q167 31 174 32Q182 33 190 34V0Q181 -1 172 -3Q163 -4 154.5 -4.5Q146 -5 138 -5Q90 -5 69 16Q48 37 59 88Z" glyph-name="ldot" horiz-adv-x="306" unicode="&#320;" /><glyph d="M53 376 411 501 424 467 108 360 379 253 366 219 53 344Z" glyph-name="less" horiz-adv-x="450" unicode="&lt;" /><glyph d="M80 186V220H450V186ZM116 436 474 561 487 527 171 420 442 313 429 279 116 404Z" glyph-name="lessequal" horiz-adv-x="517" unicode="&#8804;" /><glyph d="M363 296H323L361 476H60V510H408Z" glyph-name="logicalnot" horiz-adv-x="436" unicode="&#172;" /><glyph d="M355 750H381L521 375L221 0H197L57 375ZM100 370 218 56 478 380 359 692Z" glyph-name="lozenge" horiz-adv-x="544" unicode="&#9674;" /><glyph d="M114 348 22 315 10 347 123 388 200 750H240L166 403L275 443L287 411L157 364L99 90Q91 55 103 42Q115 29 147 29Q153 29 160 30Q167 31 174 32Q182 33 190 34V0Q181 -1 172 -3Q163 -4 154.5 -4.5Q146 -5 138 -5Q90 -5 69 16Q48 37 59 88Z" glyph-name="lslash" horiz-adv-x="272" unicode="&#322;" /><glyph d="M704 88Q719 155 729.5 204Q740 253 747 287.5Q754 322 757.5 345Q761 368 761 383Q761 433 737 459.5Q713 486 659 486Q633 486 604 474.5Q575 463 548 437.5Q521 412 499 370.5Q477 329 465 270L408 0H368L422 254Q432 302 437.5 335.5Q443 369 443 383Q443 433 416.5 459.5Q390 486 336 486Q310 486 280 474.5Q250 463 222.5 437.5Q195 412 172 370.5Q149 329 137 270L80 0H40L149 510H184L166 416Q196 463 243.5 491.5Q291 520 348 520Q401 520 439 492.5Q477 465 483 404L491 416Q521 463 567.5 491.5Q614 520 671 520Q728 520 765 488Q802 456 802 384Q802 365 798.5 341.5Q795 318 787.5 284Q780 250 769.5 203Q759 156 745 90Q742 75 742 65Q742 45 754 37Q766 29 792 29Q798 29 805 30Q812 31 819 32Q827 33 835 34V0Q826 -1 817 -3Q808 -4 799.5 -4.5Q791 -5 783 -5Q743 -5 721.5 9Q700 23 700 57Q700 72 704 88Z" glyph-name="m" horiz-adv-x="885" unicode="m" /><glyph d="M885 0Q873 -3 859 -5Q847 -7 832.5 -8.5Q818 -10 803 -10Q747 -10 721.5 18.5Q696 47 708 105Q723 173 733 220.5Q743 268 749 299.5Q755 331 758 350.5Q761 370 761 383Q761 433 737 459.5Q713 486 659 486Q633 486 604 474.5Q575 463 548 437.5Q521 412 499 370.5Q477 329 465 270L408 0H368L422 254Q432 302 437.5 335.5Q443 369 443 383Q443 433 416.5 459.5Q390 486 336 486Q310 486 280 474.5Q250 463 222.5 437.5Q195 412 172 370.5Q149 329 137 270L80 0H40L149 510H184L166 416Q196 463 243.5 491.5Q291 520 348 520Q401 520 439 492.5Q477 465 483 404L491 416Q521 463 567.5 491.5Q614 520 671 520Q728 520 765 488Q802 456 802 384Q802 368 799 347.5Q796 327 789.5 295.5Q783 264 773 218Q763 172 748 105Q739 62 755.5 43Q772 24 812 24Q825 24 838 25.5Q851 27 862 29Q874 31 885 34Z" glyph-name="m.end" horiz-adv-x="895" unicode="&#58028;" /><glyph d="M141 636V670H458V636Z" glyph-name="macron" horiz-adv-x="600" unicode="&#175;" /><glyph d="M100 343V377H470V343Z" glyph-name="minus" horiz-adv-x="530" unicode="&#8722;" /><glyph d="M175 510 108 195Q89 107 120 65.5Q151 24 213 24Q241 24 270 36.5Q299 49 324 71.5Q349 94 368 125.5Q387 157 395 195L462 510H502L394 0H359L371 82Q340 40 300.5 15Q261 -10 207 -10Q165 -10 131 7Q97 24 80 65L22 -210H-18L135 510Z" glyph-name="mu" horiz-adv-x="539" unicode="&#181;" /><glyph d="M166 503 260 384 399 501 426 479 280 357 372 241 344 217 252 333 113 217 87 239 231 360 138 479Z" glyph-name="multiply" horiz-adv-x="490" unicode="&#215;" /><glyph d="M376 88Q391 155 401.5 204Q412 253 419 287.5Q426 322 429.5 345Q433 368 433 383Q433 433 409 459.5Q385 486 331 486Q305 486 276 474.5Q247 463 220 437.5Q193 412 171 370.5Q149 329 137 270L80 0H40L149 510H184L166 416Q196 463 241 491.5Q286 520 343 520Q400 520 437 488Q474 456 474 384Q474 365 470.5 341.5Q467 318 459.5 284Q452 250 441.5 203Q431 156 417 90Q414 75 414 65Q414 45 426 37Q438 29 464 29Q470 29 477 30Q484 31 491 32Q499 33 507 34V0Q498 -1 489 -3Q480 -4 471.5 -4.5Q463 -5 455 -5Q415 -5 393.5 9Q372 23 372 57Q372 72 376 88Z" glyph-name="n" horiz-adv-x="557" unicode="n" /><glyph d="M380 105Q395 173 405 220.5Q415 268 421 299.5Q427 331 430 350.5Q433 370 433 383Q433 433 409 459.5Q385 486 331 486Q305 486 276 474.5Q247 463 220 437.5Q193 412 171 370.5Q149 329 137 270L80 0H40L149 510H184L166 416Q196 463 241 491.5Q286 520 343 520Q400 520 437 488Q474 456 474 384Q474 368 471 347.5Q468 327 461.5 295.5Q455 264 445 218Q435 172 420 105Q411 62 427.5 43Q444 24 484 24Q497 24 510 25.5Q523 27 534 29Q546 31 557 34V0Q545 -3 531 -5Q519 -7 504.5 -8.5Q490 -10 475 -10Q419 -10 393.5 18.5Q368 47 380 105Z" glyph-name="n.end" horiz-adv-x="567" unicode="&#58029;" /><glyph d="M376 88Q391 155 401.5 204Q412 253 419 287.5Q426 322 429.5 345Q433 368 433 383Q433 433 409 459.5Q385 486 331 486Q305 486 276 474.5Q247 463 220 437.5Q193 412 171 370.5Q149 329 137 270L80 0H40L149 510H184L166 416Q196 463 241 491.5Q286 520 343 520Q400 520 437 488Q474 456 474 384Q474 365 470.5 341.5Q467 318 459.5 284Q452 250 441.5 203Q431 156 417 90Q414 75 414 65Q414 45 426 37Q438 29 464 29Q470 29 477 30Q484 31 491 32Q499 33 507 34V0Q498 -1 489 -3Q480 -4 471.5 -4.5Q463 -5 455 -5Q415 -5 393.5 9Q372 23 372 57Q372 72 376 88ZM377 590H337L447 730H497Z" glyph-name="nacute" horiz-adv-x="557" unicode="&#324;" /><glyph d="M374 590H334L444 730H494ZM380 105Q395 173 405 220.5Q415 268 421 299.5Q427 331 430 350.5Q433 370 433 383Q433 433 409 459.5Q385 486 331 486Q305 486 276 474.5Q247 463 220 437.5Q193 412 171 370.5Q149 329 137 270L80 0H40L149 510H184L166 416Q196 463 241 491.5Q286 520 343 520Q400 520 437 488Q474 456 474 384Q474 368 471 347.5Q468 327 461.5 295.5Q455 264 445 218Q435 172 420 105Q411 62 427.5 43Q444 24 484 24Q497 24 510 25.5Q523 27 534 29Q546 31 557 34V0Q545 -3 531 -5Q519 -7 504.5 -8.5Q490 -10 475 -10Q419 -10 393.5 18.5Q368 47 380 105Z" glyph-name="nacute.end" horiz-adv-x="567" unicode="&#61573;" /><glyph d="M376 88Q391 155 401.5 204Q412 253 419 287.5Q426 322 429.5 345Q433 368 433 383Q433 433 409 459.5Q385 486 331 486Q305 486 276 474.5Q247 463 220 437.5Q193 412 171 370.5Q149 329 137 270L80 0H40L149 510H184L166 416Q196 463 241 491.5Q286 520 343 520Q400 520 437 488Q474 456 474 384Q474 365 470.5 341.5Q467 318 459.5 284Q452 250 441.5 203Q431 156 417 90Q414 75 414 65Q414 45 426 37Q438 29 464 29Q470 29 477 30Q484 31 491 32Q499 33 507 34V0Q498 -1 489 -3Q480 -4 471.5 -4.5Q463 -5 455 -5Q415 -5 393.5 9Q372 23 372 57Q372 72 376 88ZM363 616 475 730H522L378 590H342L256 730H295Z" glyph-name="ncaron" horiz-adv-x="557" unicode="&#328;" /><glyph d="M364 616 476 730H523L379 590H343L257 730H296ZM380 105Q395 173 405 220.5Q415 268 421 299.5Q427 331 430 350.5Q433 370 433 383Q433 433 409 459.5Q385 486 331 486Q305 486 276 474.5Q247 463 220 437.5Q193 412 171 370.5Q149 329 137 270L80 0H40L149 510H184L166 416Q196 463 241 491.5Q286 520 343 520Q400 520 437 488Q474 456 474 384Q474 368 471 347.5Q468 327 461.5 295.5Q455 264 445 218Q435 172 420 105Q411 62 427.5 43Q444 24 484 24Q497 24 510 25.5Q523 27 534 29Q546 31 557 34V0Q545 -3 531 -5Q519 -7 504.5 -8.5Q490 -10 475 -10Q419 -10 393.5 18.5Q368 47 380 105Z" glyph-name="ncaron.end" horiz-adv-x="567" unicode="&#61584;" /><glyph d="M376 88Q391 155 401.5 204Q412 253 419 287.5Q426 322 429.5 345Q433 368 433 383Q433 433 409 459.5Q385 486 331 486Q305 486 276 474.5Q247 463 220 437.5Q193 412 171 370.5Q149 329 137 270L80 0H40L149 510H184L166 416Q196 463 241 491.5Q286 520 343 520Q400 520 437 488Q474 456 474 384Q474 365 470.5 341.5Q467 318 459.5 284Q452 250 441.5 203Q431 156 417 90Q414 75 414 65Q414 45 426 37Q438 29 464 29Q470 29 477 30Q484 31 491 32Q499 33 507 34V0Q498 -1 489 -3Q480 -4 471.5 -4.5Q463 -5 455 -5Q415 -5 393.5 9Q372 23 372 57Q372 72 376 88ZM190 -130Q229 -114 234 -78Q232 -80 229 -81.5Q226 -83 219 -83Q212 -83 206 -76.5Q200 -70 200 -59Q200 -43 209.5 -33.5Q219 -24 237 -24Q248 -24 257.5 -31.5Q267 -39 267 -59Q267 -78 260 -94.5Q253 -111 242 -123.5Q231 -136 217.5 -144.5Q204 -153 190 -156Z" glyph-name="ncommaaccent" horiz-adv-x="557" unicode="&#326;" /><glyph d="M380 105Q395 173 405 220.5Q415 268 421 299.5Q427 331 430 350.5Q433 370 433 383Q433 433 409 459.5Q385 486 331 486Q305 486 276 474.5Q247 463 220 437.5Q193 412 171 370.5Q149 329 137 270L80 0H40L149 510H184L166 416Q196 463 241 491.5Q286 520 343 520Q400 520 437 488Q474 456 474 384Q474 368 471 347.5Q468 327 461.5 295.5Q455 264 445 218Q435 172 420 105Q411 62 427.5 43Q444 24 484 24Q497 24 510 25.5Q523 27 534 29Q546 31 557 34V0Q545 -3 531 -5Q519 -7 504.5 -8.5Q490 -10 475 -10Q419 -10 393.5 18.5Q368 47 380 105ZM188 -130Q227 -114 232 -78Q230 -80 227 -81.5Q224 -83 217 -83Q210 -83 204 -76.5Q198 -70 198 -59Q198 -43 207.5 -33.5Q217 -24 235 -24Q246 -24 255.5 -31.5Q265 -39 265 -59Q265 -78 258 -94.5Q251 -111 240 -123.5Q229 -136 215.5 -144.5Q202 -153 188 -156Z" glyph-name="ncommaaccent.end" horiz-adv-x="567" unicode="&#61589;" /><glyph d="M491 147Q467 64 435.5 -3.5Q404 -71 361.5 -119Q319 -167 262.5 -193.5Q206 -220 133 -220Q102 -220 76.5 -216Q51 -212 32 -207Q10 -201 -7 -194V-154Q12 -163 34 -170Q54 -177 79 -181.5Q104 -186 133 -186Q192 -186 239.5 -165Q287 -144 324.5 -105.5Q362 -67 391 -13Q420 41 443 108Q408 56 354 23Q300 -10 231 -10Q190 -10 155 1Q120 12 94 34.5Q68 57 53 91.5Q38 126 38 173Q38 235 57.5 296.5Q77 358 115 408Q153 458 208 489Q263 520 335 520Q385 520 420 505.5Q455 491 477 465.5Q499 440 509 404.5Q519 369 519 328Q519 288 511.5 240.5Q504 193 491 147ZM231 24Q290 24 337 51Q384 78 416.5 122Q449 166 466 221Q483 276 483 331Q483 411 440.5 448.5Q398 486 330 486Q285 486 240 465Q195 444 159.5 404.5Q124 365 101.5 307.5Q79 250 79 177Q79 97 121 60.5Q163 24 231 24Z" glyph-name="nine" horiz-adv-x="562" unicode="9" /><glyph d="M538 357Q514 274 482.5 206.5Q451 139 408.5 91Q366 43 309.5 16.5Q253 -10 180 -10Q149 -10 123.5 -6Q98 -2 79 3Q57 9 40 16V56Q59 47 81 40Q101 33 126 28.5Q151 24 180 24Q239 24 286.5 45Q334 66 371.5 104.5Q409 143 438 197Q467 251 490 318Q455 266 401 233Q347 200 278 200Q237 200 202 211Q167 222 141 244.5Q115 267 100 301.5Q85 336 85 383Q85 445 104.5 506.5Q124 568 162 618Q200 668 255 699Q310 730 382 730Q432 730 467 715.5Q502 701 524 675.5Q546 650 556 614.5Q566 579 566 538Q566 498 558.5 450.5Q551 403 538 357ZM278 234Q337 234 384 261Q431 288 463.5 332Q496 376 513 431Q530 486 530 541Q530 621 487.5 658.5Q445 696 377 696Q332 696 287 675Q242 654 206.5 614.5Q171 575 148.5 517.5Q126 460 126 387Q126 307 168 270.5Q210 234 278 234Z" glyph-name="nine.lnum" horiz-adv-x="586" unicode="&#59657;" /><glyph d="M560 357Q536 274 504.5 206.5Q473 139 430.5 91Q388 43 331.5 16.5Q275 -10 202 -10Q171 -10 145.5 -6Q120 -2 101 3Q79 9 62 16V56Q81 47 103 40Q123 33 148 28.5Q173 24 202 24Q261 24 308.5 45Q356 66 393.5 104.5Q431 143 460 197Q489 251 512 318Q477 266 423 233Q369 200 300 200Q259 200 224 211Q189 222 163 244.5Q137 267 122 301.5Q107 336 107 383Q107 445 126.5 506.5Q146 568 184 618Q222 668 277 699Q332 730 404 730Q454 730 489 715.5Q524 701 546 675.5Q568 650 578 614.5Q588 579 588 538Q588 498 580.5 450.5Q573 403 560 357ZM300 234Q359 234 406 261Q453 288 485.5 332Q518 376 535 431Q552 486 552 541Q552 621 509.5 658.5Q467 696 399 696Q354 696 309 675Q264 654 228.5 614.5Q193 575 170.5 517.5Q148 460 148 387Q148 307 190 270.5Q232 234 300 234Z" glyph-name="nine.lnum_tnum" horiz-adv-x="650" unicode="&#59673;" /><glyph d="M560 147Q536 64 504.5 -3.5Q473 -71 430.5 -119Q388 -167 331.5 -193.5Q275 -220 202 -220Q171 -220 145.5 -216Q120 -212 101 -207Q79 -201 62 -194V-154Q81 -163 103 -170Q123 -177 148 -181.5Q173 -186 202 -186Q261 -186 308.5 -165Q356 -144 393.5 -105.5Q431 -67 460 -13Q489 41 512 108Q477 56 423 23Q369 -10 300 -10Q259 -10 224 1Q189 12 163 34.5Q137 57 122 91.5Q107 126 107 173Q107 235 126.5 296.5Q146 358 184 408Q222 458 277 489Q332 520 404 520Q454 520 489 505.5Q524 491 546 465.5Q568 440 578 404.5Q588 369 588 328Q588 288 580.5 240.5Q573 193 560 147ZM300 24Q359 24 406 51Q453 78 485.5 122Q518 166 535 221Q552 276 552 331Q552 411 509.5 448.5Q467 486 399 486Q354 486 309 465Q264 444 228.5 404.5Q193 365 170.5 307.5Q148 250 148 177Q148 97 190 60.5Q232 24 300 24Z" glyph-name="nine.tnum_onum" horiz-adv-x="650" unicode="&#59689;" /><glyph glyph-name="nonmarkingreturn" horiz-adv-x="250" unicode="" /><glyph d="M269 261 229 152 194 163 230 261H85V295H243L291 425H119V459H304L345 569L380 558L343 459H489V425H330L282 295H455V261Z" glyph-name="notequal" horiz-adv-x="524" unicode="&#8800;" /><glyph d="M376 88Q391 155 401.5 204Q412 253 419 287.5Q426 322 429.5 345Q433 368 433 383Q433 433 409 459.5Q385 486 331 486Q305 486 276 474.5Q247 463 220 437.5Q193 412 171 370.5Q149 329 137 270L80 0H40L149 510H184L166 416Q196 463 241 491.5Q286 520 343 520Q400 520 437 488Q474 456 474 384Q474 365 470.5 341.5Q467 318 459.5 284Q452 250 441.5 203Q431 156 417 90Q414 75 414 65Q414 45 426 37Q438 29 464 29Q470 29 477 30Q484 31 491 32Q499 33 507 34V0Q498 -1 489 -3Q480 -4 471.5 -4.5Q463 -5 455 -5Q415 -5 393.5 9Q372 23 372 57Q372 72 376 88ZM204 630Q211 650 224 666Q236 681 254.5 691.5Q273 702 301 702Q325 702 341.5 694Q358 686 372 677Q386 668 399.5 660Q413 652 432 652Q449 652 460.5 659.5Q472 667 479 676Q488 687 493 700L531 690Q524 670 511 654Q499 639 480.5 628.5Q462 618 434 618Q409 618 391.5 626Q374 634 360 643Q346 652 333 660Q320 668 303 668Q286 668 274.5 660.5Q263 653 256 644Q247 633 242 620Z" glyph-name="ntilde" horiz-adv-x="557" unicode="&#241;" /><glyph d="M204 630Q211 650 224 666Q236 681 254.5 691.5Q273 702 301 702Q325 702 341.5 694Q358 686 372 677Q386 668 399.5 660Q413 652 432 652Q449 652 460.5 659.5Q472 667 479 676Q488 687 493 700L531 690Q524 670 511 654Q499 639 480.5 628.5Q462 618 434 618Q409 618 391.5 626Q374 634 360 643Q346 652 333 660Q320 668 303 668Q286 668 274.5 660.5Q263 653 256 644Q247 633 242 620ZM380 105Q395 173 405 220.5Q415 268 421 299.5Q427 331 430 350.5Q433 370 433 383Q433 433 409 459.5Q385 486 331 486Q305 486 276 474.5Q247 463 220 437.5Q193 412 171 370.5Q149 329 137 270L80 0H40L149 510H184L166 416Q196 463 241 491.5Q286 520 343 520Q400 520 437 488Q474 456 474 384Q474 368 471 347.5Q468 327 461.5 295.5Q455 264 445 218Q435 172 420 105Q411 62 427.5 43Q444 24 484 24Q497 24 510 25.5Q523 27 534 29Q546 31 557 34V0Q545 -3 531 -5Q519 -7 504.5 -8.5Q490 -10 475 -10Q419 -10 393.5 18.5Q368 47 380 105Z" glyph-name="ntilde.end" horiz-adv-x="567" unicode="&#61696;" /><glyph d="M88 510H251L329 750H369L291 510H481L559 750H599L521 510H649V476H510L445 275H599V241H434L356 0H316L394 241H204L126 0H86L164 241H38V275H175L240 476H88ZM215 275H405L470 476H280Z" glyph-name="numbersign" horiz-adv-x="661" unicode="#" /><glyph d="M464 348Q464 287 448.5 223.5Q433 160 401 108Q369 56 319.5 23Q270 -10 202 -10Q129 -10 89.5 34.5Q50 79 50 160Q50 221 65 284.5Q80 348 111.5 400.5Q143 453 192.5 486.5Q242 520 311 520Q384 520 424 475Q464 430 464 348ZM306 486Q251 486 210.5 455.5Q170 425 143 377.5Q116 330 103 273.5Q90 217 90 165Q90 96 119 60Q148 24 207 24Q262 24 302.5 54.5Q343 85 370 132Q397 179 410 235.5Q423 292 423 343Q423 413 394.5 449.5Q366 486 306 486Z" glyph-name="o" horiz-adv-x="514" unicode="o" /><glyph d="M355 590H315L425 730H475ZM464 348Q464 287 448.5 223.5Q433 160 401 108Q369 56 319.5 23Q270 -10 202 -10Q129 -10 89.5 34.5Q50 79 50 160Q50 221 65 284.5Q80 348 111.5 400.5Q143 453 192.5 486.5Q242 520 311 520Q384 520 424 475Q464 430 464 348ZM306 486Q251 486 210.5 455.5Q170 425 143 377.5Q116 330 103 273.5Q90 217 90 165Q90 96 119 60Q148 24 207 24Q262 24 302.5 54.5Q343 85 370 132Q397 179 410 235.5Q423 292 423 343Q423 413 394.5 449.5Q366 486 306 486Z" glyph-name="oacute" horiz-adv-x="514" unicode="&#243;" /><glyph d="M350 704 238 590H191L335 730H373L459 590H418ZM464 348Q464 287 448.5 223.5Q433 160 401 108Q369 56 319.5 23Q270 -10 202 -10Q129 -10 89.5 34.5Q50 79 50 160Q50 221 65 284.5Q80 348 111.5 400.5Q143 453 192.5 486.5Q242 520 311 520Q384 520 424 475Q464 430 464 348ZM306 486Q251 486 210.5 455.5Q170 425 143 377.5Q116 330 103 273.5Q90 217 90 165Q90 96 119 60Q148 24 207 24Q262 24 302.5 54.5Q343 85 370 132Q397 179 410 235.5Q423 292 423 343Q423 413 394.5 449.5Q366 486 306 486Z" glyph-name="ocircumflex" horiz-adv-x="514" unicode="&#244;" /><glyph d="M278 660Q278 631 247 631Q233 631 225 638Q217 645 217 659Q217 672 225.5 680Q234 688 248 688Q262 688 270 681Q278 674 278 660ZM458 660Q458 631 427 631Q413 631 405 638Q397 645 397 659Q397 672 405.5 680Q414 688 428 688Q442 688 450 681Q458 674 458 660ZM464 348Q464 287 448.5 223.5Q433 160 401 108Q369 56 319.5 23Q270 -10 202 -10Q129 -10 89.5 34.5Q50 79 50 160Q50 221 65 284.5Q80 348 111.5 400.5Q143 453 192.5 486.5Q242 520 311 520Q384 520 424 475Q464 430 464 348ZM306 486Q251 486 210.5 455.5Q170 425 143 377.5Q116 330 103 273.5Q90 217 90 165Q90 96 119 60Q148 24 207 24Q262 24 302.5 54.5Q343 85 370 132Q397 179 410 235.5Q423 292 423 343Q423 413 394.5 449.5Q366 486 306 486Z" glyph-name="odieresis" horiz-adv-x="514" unicode="&#246;" /></font>
</defs>
</svg>
