<svg width="16" height="16" viewBox="0 0 16 16" fill="none" xmlns="http://www.w3.org/2000/svg">
<path d="M8.47192 12.4141C8.10278 12.4141 7.75122 12.3408 7.41724 12.1943C7.08325 12.042 6.79028 11.8428 6.53833 11.5967C6.29224 11.3447 6.09302 11.0518 5.94067 10.7178C5.79419 10.3838 5.72095 10.0322 5.72095 9.66309V2.79004C5.72095 2.4209 5.79419 2.06934 5.94067 1.73535C6.09302 1.40137 6.29224 1.11133 6.53833 0.865234C6.79028 0.613281 7.08325 0.414063 7.41724 0.267578C7.75122 0.115234 8.10278 0.0390625 8.47192 0.0390625H13.095C13.4641 0.0390625 13.8157 0.115234 14.1497 0.267578C14.4836 0.414063 14.7737 0.613281 15.0198 0.865234C15.2717 1.11133 15.4709 1.40137 15.6174 1.73535C15.7698 2.06934 15.8459 2.4209 15.8459 2.79004V9.66309C15.8459 10.0322 15.7698 10.3838 15.6174 10.7178C15.4709 11.0518 15.2717 11.3447 15.0198 11.5967C14.7737 11.8428 14.4836 12.042 14.1497 12.1943C13.8157 12.3408 13.4641 12.4141 13.095 12.4141H8.47192ZM13.0334 11.2891C13.262 11.2891 13.4788 11.2451 13.6838 11.1572C13.8889 11.0693 14.0676 10.9492 14.22 10.7969C14.3782 10.6387 14.5012 10.457 14.5891 10.252C14.677 10.0469 14.7209 9.83008 14.7209 9.60156V2.85156C14.7209 2.62305 14.677 2.40625 14.5891 2.20117C14.5012 1.99609 14.3782 1.81738 14.22 1.66504C14.0676 1.50684 13.8889 1.38379 13.6838 1.2959C13.4788 1.20801 13.262 1.16406 13.0334 1.16406H8.53345C8.30493 1.16406 8.08813 1.20801 7.88306 1.2959C7.67798 1.38379 7.49634 1.50684 7.33813 1.66504C7.18579 1.81738 7.06567 1.99609 6.97778 2.20117C6.88989 2.40625 6.84595 2.62305 6.84595 2.85156V9.60156C6.84595 9.83008 6.88989 10.0469 6.97778 10.252C7.06567 10.457 7.18579 10.6387 7.33813 10.7969C7.49634 10.9492 7.67798 11.0693 7.88306 11.1572C8.08813 11.2451 8.30493 11.2891 8.53345 11.2891H13.0334ZM2.84692 15.7891C2.47778 15.7891 2.12622 15.7158 1.79224 15.5693C1.45825 15.417 1.16528 15.2178 0.91333 14.9717C0.667236 14.7197 0.468018 14.4268 0.315674 14.0928C0.169189 13.7588 0.0959473 13.4072 0.0959473 13.0381V6.16504C0.0959473 5.7959 0.169189 5.44434 0.315674 5.11035C0.468018 4.77637 0.667236 4.48633 0.91333 4.24023C1.16528 3.98828 1.45825 3.78906 1.79224 3.64258C2.12622 3.49023 2.47778 3.41406 2.84692 3.41406H4.59595V4.53906H2.90845C2.67993 4.53906 2.46313 4.58301 2.25806 4.6709C2.05298 4.75879 1.87134 4.88184 1.71313 5.04004C1.56079 5.19238 1.44067 5.37109 1.35278 5.57617C1.26489 5.78125 1.22095 5.99805 1.22095 6.22656V12.9766C1.22095 13.2051 1.26489 13.4219 1.35278 13.627C1.44067 13.832 1.56079 14.0137 1.71313 14.1719C1.87134 14.3242 2.05298 14.4443 2.25806 14.5322C2.46313 14.6201 2.67993 14.6641 2.90845 14.6641H7.40845C7.59009 14.6641 7.76294 14.6377 7.927 14.585C8.09106 14.5322 8.24341 14.4561 8.38403 14.3564C8.52466 14.2568 8.64771 14.1396 8.75317 14.0049C8.85864 13.8643 8.94067 13.709 8.99927 13.5391H10.1682C10.1038 13.8613 9.98364 14.1602 9.80786 14.4355C9.63794 14.7109 9.42993 14.9482 9.18384 15.1475C8.93774 15.3467 8.66235 15.5049 8.35767 15.6221C8.05298 15.7334 7.73657 15.7891 7.40845 15.7891H2.84692Z" fill="#4F3FB6"/>
</svg>
