<svg width="13" height="19" viewBox="0 0 13 19" fill="none" xmlns="http://www.w3.org/2000/svg">
<path d="M0.755371 11.0391C0.755371 10.8867 0.811035 10.7549 0.922363 10.6436C1.03369 10.5322 1.16553 10.4766 1.31787 10.4766C1.47021 10.4766 1.60205 10.5322 1.71338 10.6436L5.81787 14.7393V1.47656C5.81787 1.32422 5.87354 1.19238 5.98486 1.08105C6.09619 0.969727 6.22803 0.914062 6.38037 0.914062C6.53271 0.914062 6.66455 0.969727 6.77588 1.08105C6.88721 1.19238 6.94287 1.32422 6.94287 1.47656V14.7393L11.0474 10.6436C11.1587 10.5322 11.2905 10.4766 11.4429 10.4766C11.5952 10.4766 11.7271 10.5322 11.8384 10.6436C11.9497 10.7549 12.0054 10.8867 12.0054 11.0391C12.0054 11.1914 11.9497 11.3232 11.8384 11.4346L6.80225 16.4707C6.73779 16.5352 6.67334 16.585 6.60889 16.6201C6.55029 16.6494 6.47412 16.6641 6.38037 16.6641C6.28662 16.6641 6.20752 16.6494 6.14307 16.6201C6.08447 16.585 6.02295 16.5352 5.9585 16.4707L0.922363 11.4346C0.811035 11.3232 0.755371 11.1914 0.755371 11.0391ZM12.0054 17.7891C12.1577 17.7891 12.2896 17.8447 12.4009 17.9561C12.5122 18.0674 12.5679 18.1992 12.5679 18.3516C12.5679 18.5039 12.5122 18.6357 12.4009 18.7471C12.2896 18.8584 12.1577 18.9141 12.0054 18.9141H0.755371C0.603027 18.9141 0.471191 18.8584 0.359863 18.7471C0.248535 18.6357 0.192871 18.5039 0.192871 18.3516C0.192871 18.1992 0.248535 18.0674 0.359863 17.9561C0.471191 17.8447 0.603027 17.7891 0.755371 17.7891H12.0054Z" fill="#4F3FB6"/>
</svg>
