<svg width="35" height="24" viewBox="0 0 35 24" fill="none" xmlns="http://www.w3.org/2000/svg">
<path d="M16.6561 23.0335C15.3698 24.2969 13.9507 24.0999 12.5979 23.5043C11.1597 22.8966 9.84498 22.8582 8.32612 23.5043C6.43466 24.3305 5.43079 24.0903 4.29164 23.0335C-2.13979 16.3324 -1.1905 6.12466 6.11902 5.74037C7.89182 5.83644 9.13301 6.73232 10.1772 6.80678C11.7293 6.48734 13.215 5.57224 14.8762 5.69233C16.8721 5.85566 18.3648 6.65306 19.3616 8.08695C15.2559 10.5849 16.2289 16.061 20 17.5982C19.2453 19.6037 18.277 21.5852 16.6538 23.0503L16.6561 23.0335ZM10.0348 5.66831C9.84261 2.69005 12.2277 0.240183 14.9711 0C15.3485 3.43461 11.886 6.00457 10.0348 5.66831Z" fill="black"/>
</svg>
