<svg width="14" height="13" viewBox="0 0 14 13" fill="none" xmlns="http://www.w3.org/2000/svg">
<path d="M3.49774 1.6662H5.80722C6.08335 1.6662 6.30722 1.89006 6.30722 2.1662C6.30722 2.41933 6.11909 2.62852 5.87509 2.66163L5.80722 2.6662H3.49774C2.70384 2.6662 2.05398 3.28297 2.0012 4.0635L1.99774 4.1662V10.4995C1.99774 11.2934 2.61451 11.9433 3.39504 11.9961L3.49774 11.9995H9.83155C10.6255 11.9995 11.2754 11.3828 11.3281 10.6022L11.3316 10.4995V10.1677C11.3316 9.8915 11.5554 9.6677 11.8316 9.6677C12.0847 9.6677 12.2939 9.85577 12.327 10.0998L12.3316 10.1677V10.4995C12.3316 11.8357 11.2834 12.927 9.96435 12.996L9.83155 12.9995H3.49774C2.16157 12.9995 1.07023 11.9513 1.00121 10.6323L0.997742 10.4995V4.1662C0.997742 2.83002 2.04598 1.73868 3.36497 1.66966L3.49774 1.6662H5.80722H3.49774ZM8.66709 3.3461V1.49953C8.66709 1.08355 9.13829 0.859497 9.45842 1.09273L9.51315 1.13869L13.5096 4.97202C13.6961 5.15092 13.7131 5.43827 13.5605 5.63691L13.5096 5.69364L9.51322 9.52824C9.21309 9.81624 8.72515 9.6313 8.67182 9.23877L8.66709 9.16744V7.35057L8.43809 7.37064C6.83829 7.5375 5.30492 8.2581 3.82837 9.54444C3.4823 9.8459 2.94688 9.56084 3.0038 9.10544C3.447 5.55906 5.30157 3.6044 8.46749 3.3592L8.66709 3.3461V1.49953V3.3461ZM9.66709 2.67196V3.83286C9.66709 4.109 9.44322 4.33286 9.16709 4.33286C6.58482 4.33286 4.98439 5.45028 4.29289 7.77097L4.24019 7.9567L4.47498 7.79884C5.96595 6.8243 7.53222 6.33284 9.16709 6.33284C9.42022 6.33284 9.62942 6.52097 9.66249 6.76504L9.66709 6.83284V7.99477L12.4412 5.33292L9.66709 2.67196Z" fill="#ffffff"/>
</svg>
