<?xml version="1.0" standalone="no"?><!DOCTYPE svg PUBLIC "-//W3C//DTD SVG 1.1//EN" "http://www.w3.org/Graphics/SVG/1.1/DTD/svg11.dtd" ><svg xmlns="http://www.w3.org/2000/svg"><metadata></metadata><defs><font id="1.300;UKWN;Bitter-Bold" horiz-adv-x="2201"><font-face font-family="Bitter" font-weight="700" font-stretch="normal" units-per-em="2048" panose-1="0 0 8 0 0 0 0 0 0 0" ascent="2302" descent="-788" x-height="0" bbox="-63 -543 2109 1958" underline-thickness="102" underline-position="-765" unicode-range="U+0000-fb02" /><missing-glyph horiz-adv-x="748" d="M68 0 l0 1365 l544 0 l0 -1365 l-544 0 ZM136 68 l408 0 l0 1229 l-408 0 l0 -1229 Z" /><glyph glyph-name=".null" unicode="" d="" /><glyph glyph-name="nonmarkingreturn" unicode="" d="" /><glyph glyph-name="nonmarkingreturn" unicode="" d="" /><glyph glyph-name="space" unicode=" " d="" /><glyph glyph-name="exclam" unicode="!" d="M174 160 q0 84 51.5 134 q51.5 50 124.5 50 q84 0 128 -48 q44 -48 44 -136 q0 -85 -52.5 -136 q-52.5 -51 -125.5 -51 q-84 0 -127 48.5 q-43 48.5 -43 138.5 ZM186 1567 l320 0 l-37 -1032 l-246 -11 l-37 1043 Z" /><glyph glyph-name="quotedbl" unicode="&quot;" d="M117 1024 l0 578 l276 0 l-45 -578 l-231 0 ZM528 1024 l0 578 l279 0 l-47 -578 l-232 0 Z" /><glyph glyph-name="numbersign" unicode="#" d="M123 289 l0 211 l217 0 l35 252 l-201 0 l0 211 l227 0 l37 266 l260 0 l-36 -266 l258 0 l34 266 l260 0 l-34 -266 l192 0 l0 -211 l-221 0 l-33 -252 l203 0 l0 -211 l-231 0 l-37 -289 l-260 0 l36 289 l-256 0 l-38 -289 l-261 0 l39 289 l-190 0 ZM600 500 l258 0 l33 252 l-256 0 l-35 -252 Z" /><glyph glyph-name="dollar" unicode="$" d="M113 43 l0 363 l188 0 l31 -154 q69 -37 178 -37 q98 0 163.5 37.5 q65.5 37.5 65.5 107.5 q0 35 -21.5 62 q-21.5 27 -57.5 46 q-36 19 -83 36 q-47 17 -99 35.5 q-52 18.5 -104 39.5 q-52 21 -99 53.5 q-47 32.5 -83 73 q-36 40.5 -57.5 101 q-21.5 60.5 -21.5 135.5 q0 155 94.5 254 q94.5 99 253.5 129 l0 242 l219 0 l0 -234 q78 -6 158 -24.5 q80 -18.5 120 -33.5 l41 -15 l-8 -336 l-176 0 l-39 151 q-86 31 -164 31 q-95 0 -146.5 -35.5 q-51.5 -35.5 -51.5 -93.5 q0 -44 34.5 -76.5 q34.5 -32.5 89.5 -54.5 q55 -22 121.5 -44.5 q66.5 -22.5 133 -53.5 q66.5 -31 121.5 -72 q55 -41 89.5 -110.5 q34.5 -69.5 34.5 -159.5 q0 -167 -97 -274 q-97 -107 -261 -142 l0 -289 l-219 0 l0 276 q-84 4 -171 20.5 q-87 16.5 -132 30.5 l-45 15 Z" /><glyph glyph-name="percent" unicode="%" d="M113 1083 q0 178 104 281.5 q104 103.5 264 103.5 q156 0 251 -93.5 q95 -93.5 95 -268.5 q0 -177 -104.5 -283 q-104.5 -106 -265.5 -106 q-157 0 -250.5 91 q-93.5 91 -93.5 275 ZM348 1092 q0 -97 27 -147 q27 -50 92 -50 q67 0 96 50.5 q29 50.5 29 152.5 q0 96 -27.5 145 q-27.5 49 -93.5 49 q-66 0 -94.5 -51 q-28.5 -51 -28.5 -149 ZM367 -16 l856 1474 l297 0 l-856 -1474 l-297 0 ZM1063 338 q0 178 104.5 281.5 q104.5 103.5 264.5 103.5 q156 0 251 -94 q95 -94 95 -269 q0 -177 -105 -283 q-105 -106 -266 -106 q-157 0 -250.5 91.5 q-93.5 91.5 -93.5 275.5 ZM1298 346 q0 -97 27 -146.5 q27 -49.5 92 -49.5 q67 0 96 50 q29 50 29 152 q0 96 -27.5 145.5 q-27.5 49.5 -93.5 49.5 q-66 0 -94.5 -51.5 q-28.5 -51.5 -28.5 -149.5 Z" /><glyph glyph-name="ampersand" unicode="&amp;" d="M113 385 q0 62 22.5 120 q22.5 58 53 97 q30.5 39 70.5 73.5 q40 34.5 66 51 q26 16.5 48 27.5 q-1 1 -19 12 q-18 11 -25 16 q-7 5 -26.5 19 q-19.5 14 -30 23.5 q-10.5 9.5 -28.5 27.5 q-18 18 -28 34 q-10 16 -23 38.5 q-13 22.5 -20 44.5 q-7 22 -12 50 q-5 28 -5 58 q0 191 138 291 q138 100 378 100 q107 0 230 -30.5 q123 -30.5 173 -55.5 l-10 -323 l-193 0 q-15 55 -32 133 q-70 27 -185 27 q-93 0 -143.5 -47 q-50.5 -47 -50.5 -115 q0 -88 68.5 -137.5 q68.5 -49.5 166.5 -49.5 l629 0 l0 -174 l-143 -47 l0 -217 q0 -214 -148 -335.5 q-148 -121.5 -403 -121.5 q-260 0 -389 110.5 q-129 110.5 -129 299.5 ZM430 428 q0 -97 59 -150 q59 -53 162 -53 q108 0 171 61.5 q63 61.5 63 174.5 l0 188 l-154 0 q-133 0 -217 -55.5 q-84 -55.5 -84 -165.5 Z" /><glyph glyph-name="quotesingle" unicode="&#39;" d="M113 1024 l0 578 l276 0 l-45 -578 l-231 0 Z" /><glyph glyph-name="parenleft" unicode="(" d="M111 573 q0 283 82 515 q82 232 258 489 l266 0 q-148 -225 -234 -491 q-86 -266 -86 -508 q0 -266 85.5 -551 q85.5 -285 232.5 -498 l-264 0 q-178 252 -259 494.5 q-81 242.5 -81 549.5 Z" /><glyph glyph-name="parenright" unicode=")" d="M-2 1577 l266 0 q176 -257 258 -489 q82 -232 82 -515 q0 -308 -81 -550.5 q-81 -242.5 -259 -493.5 l-264 0 q147 212 232 497.5 q85 285.5 85 551.5 q0 242 -85.5 508 q-85.5 266 -233.5 491 Z" /><glyph glyph-name="asterisk" unicode="*" d="M51 1174 l62 182 l235 -92 l37 -88 l-80 -46 l-254 44 ZM137 930 l168 200 l92 7 l21 -90 l-123 -228 l-158 111 ZM319 1507 l191 4 l-18 -249 l-74 -60 l-70 62 l-29 243 ZM418 1047 l22 90 l92 -11 l168 -194 l-149 -113 l-133 228 ZM457 1180 l35 82 l227 100 l63 -184 l-250 -52 l-75 54 Z" /><glyph glyph-name="plus" unicode="+" d="M86 432 l0 242 l414 0 l0 418 l272 0 l0 -418 l410 0 l0 -242 l-410 0 l0 -432 l-272 0 l0 432 l-414 0 Z" /><glyph glyph-name="comma" unicode="," d="M82 -272 q14 18 34.5 47.5 q20.5 29.5 54.5 95.5 q34 66 34 102 q0 24 -30 80 q-30 56 -30 109 q0 82 50.5 132 q50.5 50 126.5 50 q78 0 125 -49 q47 -49 47 -139 q0 -230 -283 -535 l-129 107 Z" /><glyph glyph-name="hyphen" unicode="-" d="M113 430 l0 256 l583 0 l0 -256 l-583 0 Z" /><glyph glyph-name="period" unicode="." d="M133 160 q0 84 51.5 134 q51.5 50 124.5 50 q84 0 128 -48 q44 -48 44 -136 q0 -86 -51.5 -136.5 q-51.5 -50.5 -124.5 -50.5 q-84 0 -128 48.5 q-44 48.5 -44 138.5 Z" /><glyph glyph-name="slash" unicode="/" d="M41 0 l682 1444 l313 0 l-684 -1444 l-311 0 Z" /><glyph glyph-name="zero" unicode="0" d="M123 711 q0 183 30.5 320 q30.5 137 96.5 236.5 q66 99.5 173.5 150 q107.5 50.5 256.5 50.5 q150 0 253.5 -47 q103.5 -47 163 -142.5 q59.5 -95.5 85.5 -225.5 q26 -130 26 -312 q0 -378 -133 -573 q-133 -195 -416 -195 q-280 0 -408 186 q-128 186 -128 552 ZM455 721 q0 -267 49 -379.5 q49 -112.5 164 -112.5 q114 0 160 112.5 q46 112.5 46 389.5 q0 271 -44 376 q-44 105 -162 105 q-118 0 -165.5 -108 q-47.5 -108 -47.5 -383 Z" /><glyph glyph-name="one" unicode="1" d="M31 1133 l487 311 l262 0 l0 -1208 l277 0 l0 -236 l-881 0 l0 236 l287 0 l0 880 l-313 -201 l-119 218 Z" /><glyph glyph-name="two" unicode="2" d="M82 0 l0 250 q114 92 178 144.5 q64 52.5 148.5 125 q84.5 72.5 130.5 117.5 q46 45 98 102 q52 57 76.5 99 q24.5 42 41.5 87.5 q17 45.5 17 88.5 q0 94 -65.5 149.5 q-65.5 55.5 -174.5 55.5 q-48 0 -95.5 -9.5 q-47.5 -9.5 -70.5 -18.5 l-24 -9 l-20 -174 l-216 0 l-10 378 q26 9 70.5 22.5 q44.5 13.5 164 36.5 q119.5 23 216.5 23 q128 0 226.5 -20.5 q98.5 -20.5 175 -65.5 q76.5 -45 117 -125 q40.5 -80 40.5 -192 q0 -85 -27 -166.5 q-27 -81.5 -70.5 -153 q-43.5 -71.5 -122 -157.5 q-78.5 -86 -158 -159.5 q-79.5 -73.5 -202.5 -178.5 l615 0 l0 -250 l-1059 0 Z" /><glyph glyph-name="three" unicode="3" d="M51 86 l86 225 q21 -10 56.5 -24 q35.5 -14 132 -38 q96.5 -24 176.5 -24 q124 0 192 53.5 q68 53.5 68 155.5 q0 94 -76 147.5 q-76 53.5 -215 53.5 l-160 0 l0 215 l170 0 q128 0 197.5 50.5 q69.5 50.5 69.5 148.5 q0 78 -60 124 q-60 46 -166 46 q-45 0 -95 -7.5 q-50 -7.5 -77 -15.5 l-28 -8 l-21 -164 l-215 0 l-10 358 q28 10 75.5 24 q47.5 14 168.5 38 q121 24 212 24 q527 0 527 -368 q0 -132 -65.5 -222.5 q-65.5 -90.5 -190.5 -123.5 q130 -29 208.5 -118.5 q78.5 -89.5 78.5 -205.5 q0 -97 -33.5 -175 q-33.5 -78 -89.5 -129.5 q-56 -51.5 -132.5 -86 q-76.5 -34.5 -159.5 -49.5 q-83 -15 -173 -15 q-73 0 -146.5 11.5 q-73.5 11.5 -126 27.5 q-52.5 16 -94.5 32.5 q-42 16.5 -63 27.5 l-21 12 Z" /><glyph glyph-name="four" unicode="4" d="M31 532 q44 65 279.5 412 q235.5 347 361.5 531 l342 -31 l0 -901 l205 0 l0 -252 l-205 0 l0 -291 l-316 0 l0 291 l-637 0 l-30 241 ZM338 543 l364 0 l0 540 l-364 -540 Z" /><glyph glyph-name="five" unicode="5" d="M35 86 l88 225 q21 -10 56.5 -24 q35.5 -14 131 -38 q95.5 -24 174.5 -24 q102 0 168 55 q66 55 66 150 q0 115 -94.5 167 q-94.5 52 -286.5 52 l-221 0 l35 795 l839 0 l-6 -252 l-543 0 l-14 -307 q297 0 464 -111.5 q167 -111.5 167 -312.5 q0 -151 -77 -263.5 q-77 -112.5 -198.5 -167.5 q-121.5 -55 -265.5 -55 q-78 0 -156.5 11.5 q-78.5 11.5 -135 27.5 q-56.5 16 -101.5 32.5 q-45 16.5 -67 27.5 l-23 12 Z" /><glyph glyph-name="six" unicode="6" d="M113 604 q0 187 47.5 343 q47.5 156 140 273 q92.5 117 241 182.5 q148.5 65.5 339.5 65.5 q54 0 100 -5 q46 -5 65 -10 l19 -5 l-14 -240 q-62 11 -160 11 q-90 0 -163.5 -22.5 q-73.5 -22.5 -119.5 -58 q-46 -35.5 -81 -79 q-35 -43.5 -52 -87 q-17 -43.5 -27 -79 q-10 -35.5 -12 -57.5 l-2 -23 q16 10 45 24.5 q29 14.5 113.5 39 q84.5 24.5 161.5 24.5 q95 0 176 -27.5 q81 -27.5 142.5 -79.5 q61.5 -52 96.5 -135 q35 -83 35 -188 q0 -141 -70 -255.5 q-70 -114.5 -193 -178.5 q-123 -64 -275 -64 q-133 0 -239 48 q-106 48 -174 133.5 q-68 85.5 -104 200 q-36 114.5 -36 249.5 ZM426 539 q0 -159 67 -236.5 q67 -77.5 171 -77.5 q98 0 157.5 58 q59.5 58 59.5 157 q0 105 -56.5 162 q-56.5 57 -165.5 57 q-58 0 -116.5 -17.5 q-58.5 -17.5 -87.5 -35.5 l-29 -18 l0 -49 Z" /><glyph glyph-name="seven" unicode="7" d="M10 997 l0 447 l1045 0 l0 -221 l-537 -1223 l-338 0 l531 1188 l-453 0 l-41 -191 l-207 0 Z" /><glyph glyph-name="eight" unicode="8" d="M92 393 q0 215 262 346 q-102 57 -158.5 134 q-56.5 77 -56.5 194 q0 190 139 295.5 q139 105.5 379 105.5 q231 0 356.5 -106.5 q125.5 -106.5 125.5 -280.5 q0 -63 -22 -116.5 q-22 -53.5 -59.5 -90.5 q-37.5 -37 -71 -59.5 q-33.5 -22.5 -71.5 -40.5 q120 -57 189.5 -139.5 q69.5 -82.5 69.5 -212.5 q0 -200 -155.5 -324.5 q-155.5 -124.5 -408.5 -124.5 q-249 0 -383.5 116 q-134.5 116 -134.5 304 ZM414 408 q0 -89 56.5 -136 q56.5 -47 160.5 -47 q104 0 161.5 50 q57.5 50 57.5 139 q0 41 -18 74 q-18 33 -56.5 59.5 q-38.5 26.5 -75 43.5 q-36.5 17 -96.5 40 q-190 -87 -190 -223 ZM444 1067 q0 -38 16.5 -68.5 q16.5 -30.5 51 -54.5 q34.5 -24 68 -40 q33.5 -16 86.5 -36 q28 12 53 27.5 q25 15.5 52.5 39.5 q27.5 24 43.5 58.5 q16 34.5 16 73.5 q0 68 -52.5 110 q-52.5 42 -141.5 42 q-90 0 -141.5 -42 q-51.5 -42 -51.5 -110 Z" /><glyph glyph-name="nine" unicode="9" d="M66 971 q0 218 153 357.5 q153 139.5 385 139.5 q133 0 239 -47.5 q106 -47.5 174 -132.5 q68 -85 104 -199 q36 -114 36 -249 q0 -149 -29 -279 q-29 -130 -90 -238.5 q-61 -108.5 -150.5 -186 q-89.5 -77.5 -216.5 -120.5 q-127 -43 -282 -43 q-54 0 -100 5 q-46 5 -65 10 l-19 6 l14 239 q62 -8 160 -8 q92 0 166.5 22 q74.5 22 120.5 57.5 q46 35.5 81 78.5 q35 43 51 86 q16 43 25.5 78.5 q9.5 35.5 10.5 57.5 l2 22 q-16 -9 -45 -23 q-29 -14 -113.5 -37.5 q-84.5 -23.5 -161.5 -23.5 q-95 0 -176 27 q-81 27 -142.5 79 q-61.5 52 -96.5 134.5 q-35 82.5 -35 187.5 ZM389 1001 q0 -104 56 -161.5 q56 -57.5 165 -57.5 q58 0 116.5 18.5 q58.5 18.5 87.5 37.5 l30 18 l0 55 q0 155 -67.5 231.5 q-67.5 76.5 -170.5 76.5 q-98 0 -157.5 -59 q-59.5 -59 -59.5 -159 Z" /><glyph glyph-name="colon" unicode=":" d="M137 160 q0 84 52.5 134 q52.5 50 125.5 50 q84 0 127 -47.5 q43 -47.5 43 -136.5 q0 -86 -51.5 -136.5 q-51.5 -50.5 -124.5 -50.5 q-84 0 -128 48.5 q-44 48.5 -44 138.5 ZM137 774 q0 85 52.5 136 q52.5 51 125.5 51 q84 0 127 -48.5 q43 -48.5 43 -138.5 q0 -84 -51.5 -134 q-51.5 -50 -124.5 -50 q-84 0 -128 48 q-44 48 -44 136 Z" /><glyph glyph-name="semicolon" unicode=";" d="M86 -272 q14 18 34.5 47.5 q20.5 29.5 54.5 95.5 q34 66 34 102 q0 24 -29.5 80 q-29.5 56 -29.5 109 q0 82 50 132 q50 50 128 50 q78 0 124 -49 q46 -49 46 -139 q0 -229 -281 -535 l-131 107 ZM150 774 q0 86 51.5 136.5 q51.5 50.5 124.5 50.5 q84 0 128 -48.5 q44 -48.5 44 -138.5 q0 -84 -51.5 -134 q-51.5 -50 -124.5 -50 q-84 0 -128 48 q-44 48 -44 136 Z" /><glyph glyph-name="less" unicode="&lt;" d="M82 426 l0 246 l1059 448 l0 -266 l-727 -307 l727 -297 l0 -270 l-1059 446 Z" /><glyph glyph-name="equal" unicode="=" d="M102 219 l0 236 l1024 0 l0 -236 l-1024 0 ZM102 659 l0 236 l1024 0 l0 -236 l-1024 0 Z" /><glyph glyph-name="greater" unicode="&gt;" d="M82 -20 l0 270 l727 297 l-727 307 l0 266 l1059 -448 l0 -246 l-1059 -446 Z" /><glyph glyph-name="question" unicode="?" d="M133 1526 q170 49 305 49 q82 0 151.5 -16.5 q69.5 -16.5 129.5 -51.5 q60 -35 94.5 -99 q34.5 -64 34.5 -151 q0 -64 -20.5 -123 q-20.5 -59 -53 -105 q-32.5 -46 -71.5 -88 q-39 -42 -78.5 -79.5 q-39.5 -37.5 -72 -73 q-32.5 -35.5 -53 -74.5 q-20.5 -39 -20.5 -77 l4 -119 l-272 -12 q-18 133 -18 201 q0 46 25.5 92.5 q25.5 46.5 64 82 q38.5 35.5 83.5 76 q45 40.5 83.5 75.5 q38.5 35 64 79 q25.5 44 25.5 88 q0 135 -185 135 q-39 0 -84.5 -5.5 q-45.5 -5.5 -71.5 -11.5 l-26 -5 l-39 213 ZM193 160 q0 84 51.5 134 q51.5 50 124.5 50 q84 0 128 -48 q44 -48 44 -136 q0 -85 -53 -136 q-53 -51 -126 -51 q-84 0 -126.5 48.5 q-42.5 48.5 -42.5 138.5 Z" /><glyph glyph-name="at" unicode="@" d="M96 707 q0 352 208 556.5 q208 204.5 558 204.5 q343 0 539 -186.5 q196 -186.5 196 -531.5 q0 -211 -107.5 -330 q-107.5 -119 -275.5 -119 q-171 0 -245 127 q-4 -5 -12 -13 q-8 -8 -33.5 -28.5 q-25.5 -20.5 -52 -36 q-26.5 -15.5 -66.5 -28.5 q-40 -13 -78 -13 q-108 0 -169.5 63.5 q-61.5 63.5 -61.5 172.5 q0 243 344 243 l94 0 l0 70 q0 50 -29 73 q-29 23 -90 23 q-41 0 -96 -8.5 q-55 -8.5 -90 -17.5 l-35 -8 l-39 151 q18 7 49.5 17.5 q31.5 10.5 113.5 27.5 q82 17 146 17 q157 0 229 -62 q72 -62 72 -197 l0 -339 q0 -34 19 -53 q19 -19 53 -19 q64 0 99.5 70.5 q35.5 70.5 35.5 205.5 q0 251 -134 391 q-134 140 -386 140 q-254 0 -392 -145 q-138 -145 -138 -408 q0 -266 120 -407.5 q120 -141.5 363 -141.5 q62 0 126 13 q64 13 97 25 l33 13 l84 -168 q-6 -3 -16.5 -8.5 q-10.5 -5.5 -45.5 -20 q-35 -14.5 -73.5 -25 q-38.5 -10.5 -98 -19.5 q-59.5 -9 -120.5 -9 q-335 0 -515 190 q-180 190 -180 548 ZM711 563 q0 -35 23 -55.5 q23 -20.5 61 -20.5 q69 0 139 70 l0 96 l-80 0 q-76 0 -109.5 -22 q-33.5 -22 -33.5 -68 Z" /><glyph glyph-name="A" unicode="a" d="M10 0 l0 174 l150 57 l450 1207 l328 6 l440 -1213 l144 -57 l0 -174 l-652 0 l0 174 l154 55 l-49 150 l-455 0 l-51 -148 l160 -57 l0 -174 l-619 0 ZM592 598 l315 0 l-153 485 l-162 -485 Z" /><glyph glyph-name="B" unicode="b" d="M72 0 l0 174 l153 62 l0 962 l-153 62 l0 174 l471 10 l215 0 q207 0 328.5 -89 q121.5 -89 121.5 -265 q0 -261 -245 -338 q144 -41 218 -125 q74 -84 74 -203 q0 -424 -532 -424 l-651 0 ZM543 246 l170 0 q107 0 163 46.5 q56 46.5 56 131.5 q0 112 -65.5 163.5 q-65.5 51.5 -204.5 51.5 l-119 0 l0 -393 ZM543 854 l119 0 q229 0 229 190 q0 76 -48 115 q-48 39 -126 39 l-174 0 l0 -344 Z" /><glyph glyph-name="C" unicode="c" d="M113 700 q0 358 186.5 563 q186.5 205 503.5 205 q110 0 229.5 -24 q119.5 -24 183.5 -48 l64 -24 l-10 -389 l-201 0 l-47 197 q-96 32 -229 32 q-164 0 -251 -124.5 q-87 -124.5 -87 -376.5 q0 -471 348 -471 q57 0 118.5 14.5 q61.5 14.5 107.5 35.5 q46 21 84.5 42.5 q38.5 21.5 58.5 35.5 l20 15 l113 -184 q-9 -9 -25.5 -24 q-16.5 -15 -71 -54 q-54.5 -39 -113 -68.5 q-58.5 -29.5 -148 -53.5 q-89.5 -24 -179.5 -24 q-314 0 -484.5 185.5 q-170.5 185.5 -170.5 539.5 Z" /><glyph glyph-name="D" unicode="d" d="M82 0 l0 174 l154 62 l0 962 l-154 62 l0 174 l471 10 l195 0 q311 0 481 -180.5 q170 -180.5 170 -522.5 q0 -344 -184 -542.5 q-184 -198.5 -498 -198.5 l-635 0 ZM553 246 l170 0 q78 0 136.5 24.5 q58.5 24.5 103.5 79 q45 54.5 68.5 150.5 q23.5 96 23.5 231 q0 249 -80.5 358 q-80.5 109 -237.5 109 l-184 0 l0 -952 Z" /><glyph glyph-name="E" unicode="e" d="M92 0 l0 174 l154 62 l0 962 l-154 62 l0 174 l471 10 l574 0 l0 -395 l-185 0 l-51 149 l-338 0 l0 -338 l414 0 l0 -225 l-414 0 l0 -389 l367 0 l47 168 l184 0 l0 -414 l-1069 0 Z" /><glyph glyph-name="F" unicode="f" d="M92 0 l0 174 l154 62 l0 962 l-154 62 l0 174 l471 10 l574 0 l0 -389 l-191 0 l-51 143 l-332 0 l0 -358 l424 0 l0 -226 l-424 0 l0 -378 l189 -62 l0 -174 l-660 0 Z" /><glyph glyph-name="G" unicode="g" d="M113 700 q0 358 186.5 563 q186.5 205 503.5 205 q110 0 229.5 -24 q119.5 -24 183.5 -48 l64 -24 l-10 -368 l-191 0 l-51 176 q-96 32 -231 32 q-167 0 -254.5 -124 q-87.5 -124 -87.5 -377 q0 -475 348 -475 q47 0 103.5 9 q56.5 9 89.5 18 l32 9 l0 258 l-154 48 l0 167 l590 11 l0 -178 l-139 -48 l0 -417 q-9 -6 -25 -15 q-16 -9 -71 -33 q-55 -24 -115.5 -42 q-60.5 -18 -154.5 -33 q-94 -15 -191 -15 q-314 0 -484.5 185.5 q-170.5 185.5 -170.5 539.5 Z" /><glyph glyph-name="H" unicode="h" d="M72 0 l0 174 l153 62 l0 962 l-153 62 l0 174 l635 10 l0 -184 l-164 -62 l0 -328 l536 0 l0 328 l-164 62 l0 174 l635 10 l0 -184 l-153 -62 l0 -962 l153 -62 l0 -174 l-635 0 l0 174 l164 62 l0 389 l-536 0 l0 -389 l164 -62 l0 -174 l-635 0 Z" /><glyph glyph-name="I" unicode="i" d="M82 0 l0 174 l154 62 l0 962 l-154 62 l0 174 l625 10 l0 -184 l-154 -62 l0 -962 l154 -62 l0 -174 l-625 0 Z" /><glyph glyph-name="J" unicode="j" d="M-61 -313 l26 211 l98 0 q181 0 181 196 l0 1104 l-154 62 l0 174 l625 10 l0 -184 l-154 -62 l0 -981 q0 -139 -22.5 -236.5 q-22.5 -97.5 -75.5 -169 q-53 -71.5 -144.5 -105.5 q-91.5 -34 -224.5 -34 q-29 0 -68 4 q-39 4 -63 8 l-24 3 Z" /><glyph glyph-name="K" unicode="k" d="M72 0 l0 174 l153 62 l0 966 l-153 62 l0 170 l624 10 l0 -180 l-153 -62 l0 -352 l139 0 l342 584 l379 10 l0 -180 l-195 -58 l-268 -446 l381 -524 l154 -62 l0 -174 l-625 0 l0 174 l123 62 l-281 389 l-149 0 l0 -389 l153 -62 l0 -174 l-624 0 Z" /><glyph glyph-name="L" unicode="l" d="M61 0 l0 174 l154 62 l0 962 l-154 62 l0 174 l625 10 l0 -184 l-154 -62 l0 -952 l314 0 l45 225 l194 0 l0 -471 l-1024 0 Z" /><glyph glyph-name="M" unicode="m" d="M72 0 l0 174 l153 62 l0 962 l-153 62 l0 174 l528 10 l307 -682 l322 672 l491 10 l0 -184 l-147 -62 l0 -962 l153 -62 l0 -174 l-610 0 l0 174 l160 62 l0 770 l-55 -136 l-232 -481 l-221 -10 l-236 485 l-34 107 l0 -735 l157 -62 l0 -174 l-583 0 Z" /><glyph glyph-name="N" unicode="n" d="M72 0 l0 174 l153 62 l0 962 l-153 62 l0 174 l491 10 l553 -946 l0 700 l-149 62 l0 174 l583 10 l0 -184 l-153 -62 l0 -1198 l-342 0 l-549 928 l0 -692 l160 -62 l0 -174 l-594 0 Z" /><glyph glyph-name="O" unicode="o" d="M113 711 q0 352 181 554.5 q181 202.5 494 202.5 q307 0 476.5 -191.5 q169.5 -191.5 169.5 -535.5 q0 -345 -189 -556.5 q-189 -211.5 -497 -211.5 q-308 0 -471.5 189 q-163.5 189 -163.5 549 ZM461 721 q0 -254 71.5 -373 q71.5 -119 225.5 -119 q161 0 244 117.5 q83 117.5 83 384.5 q0 250 -75.5 365.5 q-75.5 115.5 -231.5 115.5 q-160 0 -238.5 -113 q-78.5 -113 -78.5 -378 Z" /><glyph glyph-name="P" unicode="p" d="M72 0 l0 174 l153 62 l0 962 l-153 62 l0 174 l471 10 l194 0 q234 0 366 -115 q132 -115 132 -315 q0 -255 -150.5 -383.5 q-150.5 -128.5 -433.5 -128.5 l-108 0 l0 -266 l153 -62 l0 -174 l-624 0 ZM543 741 l108 0 q128 0 197.5 59.5 q69.5 59.5 69.5 172.5 q0 103 -54.5 164 q-54.5 61 -156.5 61 l-164 0 l0 -457 Z" /><glyph glyph-name="Q" unicode="q" d="M113 711 q0 350 186 553.5 q186 203.5 504 203.5 q313 0 482 -191 q169 -191 169 -536 q0 -263 -113 -452 q-113 -189 -313 -266 q24 -15 74.5 -49.5 q50.5 -34.5 83.5 -55 q33 -20.5 77.5 -44.5 q44.5 -24 84 -36 q39.5 -12 75.5 -12 q29 0 76.5 18 q47.5 18 80.5 36 l32 18 q21 -30 57 -86 q36 -56 51 -78 q-9 -6 -24 -15.5 q-15 -9.5 -59.5 -34.5 q-44.5 -25 -85 -44 q-40.5 -19 -91.5 -34.5 q-51 -15.5 -88 -15.5 q-61 0 -122 28 q-61 28 -140 81 l-414 278 q-284 19 -433.5 206 q-149.5 187 -149.5 528 ZM451 721 q0 -247 79 -369.5 q79 -122.5 242 -122.5 q174 0 259 123 q85 123 85 379 q0 247 -77.5 364 q-77.5 117 -245.5 117 q-174 0 -258 -118 q-84 -118 -84 -373 Z" /><glyph glyph-name="R" unicode="r" d="M72 0 l0 174 l153 62 l0 962 l-153 62 l0 174 l471 10 l155 0 q256 0 394.5 -106 q138.5 -106 138.5 -312 q0 -270 -232 -387 q50 -59 86 -133 l138 -281 l139 -51 l0 -174 l-379 0 l-172 379 q-20 46 -31.5 69 q-11.5 23 -26.5 48.5 q-15 25.5 -26 35.5 q-11 10 -28.5 20 q-17.5 10 -37 12.5 q-19.5 2.5 -47.5 2.5 l-71 0 l0 -331 l147 -62 l0 -174 l-618 0 ZM543 782 l116 0 q122 0 189 56 q67 56 67 159 q0 89 -55 145 q-55 56 -149 56 l-168 0 l0 -416 Z" /><glyph glyph-name="S" unicode="s" d="M123 1034 q0 138 68.5 237.5 q68.5 99.5 185 148 q116.5 48.5 266.5 48.5 q103 0 215.5 -20.5 q112.5 -20.5 173.5 -41.5 l62 -20 l-11 -372 l-188 0 l-51 174 q-92 31 -180 31 q-105 0 -161.5 -41 q-56.5 -41 -56.5 -105 q0 -38 23.5 -68 q23.5 -30 63.5 -51.5 q40 -21.5 92 -41 q52 -19.5 109.5 -39.5 q57.5 -20 114.5 -43.5 q57 -23.5 109 -58 q52 -34.5 92 -77 q40 -42.5 63.5 -105.5 q23.5 -63 23.5 -140 q0 -150 -73 -259 q-73 -109 -197 -163 q-124 -54 -283 -54 q-103 0 -217 19.5 q-114 19.5 -177 39.5 l-63 19 l0 393 l209 0 l31 -172 q9 -5 26 -12 q17 -7 69 -19 q52 -12 105 -12 q104 0 176 44 q72 44 72 122 q0 38 -23.5 68 q-23.5 30 -63.5 51.5 q-40 21.5 -92 40.5 q-52 19 -109.5 39 q-57.5 20 -115 44 q-57.5 24 -109.5 59 q-52 35 -92 79.5 q-40 44.5 -63.5 110.5 q-23.5 66 -23.5 147 Z" /><glyph glyph-name="T" unicode="t" d="M20 1004 l0 440 l1188 0 l0 -440 l-190 0 l-51 194 l-195 0 l0 -962 l195 -62 l0 -174 l-707 0 l0 174 l195 62 l0 962 l-195 0 l-51 -194 l-189 0 Z" /><glyph glyph-name="U" unicode="u" d="M72 1260 l0 174 l628 10 l0 -184 l-159 -62 l0 -645 q0 -179 59.5 -253.5 q59.5 -74.5 208.5 -74.5 q81 0 133 21 q52 21 80.5 68.5 q28.5 47.5 39.5 110.5 q11 63 11 159 l0 614 l-160 62 l0 174 l631 10 l0 -184 l-153 -62 l0 -614 q0 -152 -31 -262.5 q-31 -110.5 -100 -189.5 q-69 -79 -183.5 -118 q-114.5 -39 -277.5 -39 q-306 0 -441 139 q-135 139 -135 439 l0 645 l-151 62 Z" /><glyph glyph-name="V" unicode="v" d="M10 1260 l0 174 l635 10 l0 -184 l-151 -60 l188 -588 l66 -252 l65 242 l203 596 l-156 62 l0 174 l613 10 l0 -184 l-150 -62 l-432 -1198 l-328 0 l-413 1202 l-140 58 Z" /><glyph glyph-name="W" unicode="w" d="M10 1260 l0 174 l608 10 l0 -184 l-149 -62 l176 -737 l287 966 l276 17 l275 -981 l196 735 l-153 62 l0 174 l583 10 l0 -184 l-147 -62 l-350 -1198 l-291 0 l-268 973 l-49 -195 l-236 -778 l-283 0 l-331 1200 l-144 60 Z" /><glyph glyph-name="X" unicode="x" d="M20 0 l0 174 l127 51 l414 500 l-381 496 l-119 39 l0 174 l615 10 l0 -184 l-103 -35 l211 -281 l201 273 l-111 43 l0 174 l590 10 l0 -184 l-135 -41 l-377 -478 l400 -518 l143 -49 l0 -174 l-635 0 l0 174 l94 41 l-225 303 l-229 -295 l129 -49 l0 -174 l-609 0 Z" /><glyph glyph-name="Y" unicode="y" d="M14 1260 l0 174 l580 10 l0 -184 l-105 -43 l205 -441 l217 438 l-112 46 l0 174 l553 10 l0 -184 l-142 -56 l-370 -702 l0 -266 l153 -62 l0 -174 l-624 0 l0 174 l153 62 l0 264 l-375 704 l-133 56 Z" /><glyph glyph-name="Z" unicode="z" d="M61 0 l0 215 l727 983 l-430 0 l-51 -184 l-194 0 l0 430 l1085 0 l0 -232 l-713 -966 l467 0 l45 205 l195 0 l0 -451 l-1131 0 Z" /><glyph glyph-name="bracketleft" unicode="[" d="M137 -471 l0 2048 l512 -10 l0 -211 l-243 -23 l0 -1562 l243 -23 l0 -209 l-512 -10 Z" /><glyph glyph-name="backslash" unicode="\" d="M14 1444 l314 0 l682 -1444 l-312 0 l-684 1444 Z" /><glyph glyph-name="bracketright" unicode="]" d="M66 -250 l245 23 l0 1560 l-245 23 l0 211 l512 10 l0 -2048 l-512 10 l0 211 Z" /><glyph glyph-name="asciicircum" unicode="^" d="M102 655 l394 789 l225 0 l395 -789 l-264 0 l-248 502 l-246 -502 l-256 0 Z" /><glyph glyph-name="underscore" unicode="_" d="M-4 -164 l1024 0 l0 -205 l-1024 0 l0 205 Z" /><glyph glyph-name="grave" unicode="`" d="M49 1526 l139 213 l457 -365 l-100 -149 l-496 301 Z" /><glyph glyph-name="a" unicode="a" d="M82 301 q0 176 126 257 q126 81 367 81 l144 0 l0 113 q0 149 -158 149 q-46 0 -91 -7.5 q-45 -7.5 -67 -15.5 l-22 -8 l-31 -129 l-184 0 l-14 303 q28 9 74.5 22.5 q46.5 13.5 164 36.5 q117.5 23 205.5 23 q234 0 332 -91.5 q98 -91.5 98 -313.5 l0 -506 l154 -37 l0 -164 l-410 -14 l-37 133 q-6 -6 -18 -16.5 q-12 -10.5 -48.5 -37 q-36.5 -26.5 -73.5 -46.5 q-37 -20 -90 -36.5 q-53 -16.5 -102 -16.5 q-150 0 -234.5 84 q-84.5 84 -84.5 237 ZM379 332 q0 -59 31.5 -91 q31.5 -32 89.5 -32 q31 0 64.5 12.5 q33.5 12.5 60 29.5 q26.5 17 48.5 34.5 q22 17.5 34 30.5 l12 12 l0 137 l-117 0 q-119 0 -171 -31.5 q-52 -31.5 -52 -101.5 Z" /><glyph glyph-name="b" unicode="b" d="M10 1407 l0 164 l461 16 l0 -569 q140 108 293 108 q204 0 312 -141 q108 -141 108 -401 q0 -292 -151 -450.5 q-151 -158.5 -443 -158.5 q-100 0 -206.5 11 q-106.5 11 -163.5 22 l-56 12 l0 1346 l-154 41 ZM471 238 q48 -17 152 -17 q243 0 243 342 q0 158 -47.5 238 q-47.5 80 -152.5 80 q-55 0 -103.5 -23.5 q-48.5 -23.5 -70.5 -46.5 l-21 -23 l0 -550 Z" /><glyph glyph-name="c" unicode="c" d="M72 537 q0 275 148 432 q148 157 415 157 q78 0 167.5 -18 q89.5 -18 139.5 -36 l51 -17 l-10 -336 l-184 0 l-29 145 q-59 17 -141 17 q-113 0 -176.5 -76.5 q-63.5 -76.5 -63.5 -226.5 q0 -169 65 -261 q65 -92 191 -92 q41 0 78 6.5 q37 6.5 72.5 22 q35.5 15.5 54 25 q18.5 9.5 53 31 q34.5 21.5 39.5 24.5 l102 -180 q-28 -24 -60.5 -47 q-32.5 -23 -90 -55.5 q-57.5 -32.5 -133.5 -52 q-76 -19.5 -156 -19.5 q-252 0 -392 147.5 q-140 147.5 -140 409.5 Z" /><glyph glyph-name="d" unicode="d" d="M82 526 q0 292 140.5 446 q140.5 154 418.5 154 q64 0 154 -20 l0 260 l-164 41 l0 164 l471 16 l0 -1368 l164 -41 l0 -164 l-437 -14 l-18 109 q-129 -129 -309 -129 q-210 0 -315 143 q-105 143 -105 403 ZM399 543 q0 -159 47.5 -238.5 q47.5 -79.5 149.5 -79.5 q37 0 71 12 q34 12 56 29 q22 17 39 34.5 q17 17.5 25 29.5 l8 12 l0 508 q-67 31 -160 31 q-236 0 -236 -338 Z" /><glyph glyph-name="e" unicode="e" d="M72 532 q0 271 145.5 432.5 q145.5 161.5 400.5 161.5 q225 0 345 -128.5 q120 -128.5 120 -352.5 q0 -35 -3 -73 q-3 -38 -6 -62 q-3 -24 -3 -25 l-680 0 q9 -122 75.5 -191 q66.5 -69 172.5 -69 q76 0 162 24.5 q86 24.5 134 48.5 l48 24 l88 -170 q-8 -7 -23.5 -18.5 q-15.5 -11.5 -65 -41 q-49.5 -29.5 -101 -52.5 q-51.5 -23 -128 -41.5 q-76.5 -18.5 -149.5 -18.5 q-261 0 -396.5 144 q-135.5 144 -135.5 408 ZM395 676 l371 0 q0 93 -41.5 149 q-41.5 56 -126.5 56 q-84 0 -137.5 -56 q-53.5 -56 -65.5 -149 Z" /><glyph glyph-name="f" unicode="f" d="M82 881 l0 174 l184 30 l0 93 q0 200 114 317 q114 117 327 117 q98 0 188.5 -19 q90.5 -19 132.5 -38 l41 -19 l-6 -301 l-184 0 l-31 143 q-49 8 -117 8 q-158 0 -158 -174 l0 -127 l267 0 l-6 -204 l-261 0 l0 -666 l205 -51 l0 -164 l-676 0 l0 164 l164 51 l0 666 l-184 0 Z" /><glyph glyph-name="g" unicode="g" d="M82 -225 q0 49 22 92.5 q22 43.5 54 70 q32 26.5 63.5 46.5 q31.5 20 53.5 28 l22 8 q-5 1 -13.5 3 q-8.5 2 -29.5 11.5 q-21 9.5 -37 23 q-16 13.5 -29.5 39.5 q-13.5 26 -13.5 59 q0 64 107 231 q-158 106 -158 320 q0 137 65 233 q65 96 174 141 q109 45 252 45 q136 0 242 -49 l352 8 l0 -163 l-168 -29 q0 -2 10 -27.5 q10 -25.5 17.5 -60.5 q7.5 -35 7.5 -74 q0 -109 -36.5 -190.5 q-36.5 -81.5 -103.5 -131 q-67 -49.5 -154.5 -74 q-87.5 -24.5 -196.5 -24.5 q-24 0 -48.5 2.5 q-24.5 2.5 -39.5 5.5 q-15 3 -17 3 l-8 -138 l303 0 q196 0 303 -82 q107 -82 107 -235 q0 -177 -145 -283 q-145 -106 -429 -106 q-125 0 -219 15 q-94 15 -165 49 q-71 34 -107.5 92 q-36.5 58 -36.5 141 ZM379 -174 q0 -73 60.5 -98 q60.5 -25 195.5 -25 q138 0 200 33 q62 33 62 106 q0 66 -48.5 91.5 q-48.5 25.5 -156.5 25.5 l-215 0 q-4 -2 -10.5 -5.5 q-6.5 -3.5 -23.5 -16 q-17 -12.5 -30 -26.5 q-13 -14 -23.5 -37 q-10.5 -23 -10.5 -48 ZM430 721 q0 -205 164 -205 q94 0 134 49.5 q40 49.5 40 155.5 q0 98 -40 146 q-40 48 -124 48 q-91 0 -132.5 -48 q-41.5 -48 -41.5 -146 Z" /><glyph glyph-name="h" unicode="h" d="M41 0 l0 164 l164 51 l0 1151 l-164 41 l0 164 l471 16 l0 -600 q63 52 153.5 95.5 q90.5 43.5 190.5 43.5 q155 0 238.5 -97 q83.5 -97 83.5 -271 l0 -543 l143 -51 l0 -164 l-557 0 l0 164 l106 49 l0 496 q0 163 -135 163 q-32 0 -67 -11 q-35 -11 -61.5 -27 q-26.5 -16 -48.5 -32 q-22 -16 -34 -27 l-12 -11 l0 -549 l109 -51 l0 -164 l-580 0 Z" /><glyph glyph-name="i" unicode="i" d="M72 0 l0 164 l164 51 l0 666 l-164 51 l0 164 l471 10 l0 -891 l143 -51 l0 -164 l-614 0 ZM199 1444 q0 84 51.5 134 q51.5 50 124.5 50 q172 0 172 -184 q0 -86 -52 -136.5 q-52 -50.5 -120 -50.5 q-84 0 -130 48.5 q-46 48.5 -46 138.5 Z" /><glyph glyph-name="j" unicode="j" d="M-63 -487 l24 200 l107 0 q90 0 129 50.5 q39 50.5 39 152.5 l0 965 l-164 51 l0 164 l471 10 l0 -1079 q0 -137 -22 -232.5 q-22 -95.5 -73.5 -164 q-51.5 -68.5 -139 -100.5 q-87.5 -32 -216.5 -32 q-29 0 -68 4 q-39 4 -63 8 l-24 3 ZM199 1444 q0 82 50.5 133 q50.5 51 125.5 51 q172 0 172 -184 q0 -83 -50.5 -135 q-50.5 -52 -121.5 -52 q-84 0 -130 48.5 q-46 48.5 -46 138.5 Z" /><glyph glyph-name="k" unicode="k" d="M41 0 l0 164 l164 51 l0 1151 l-164 41 l0 164 l471 16 l0 -893 l135 0 l139 209 l-90 29 l0 164 l529 10 l0 -174 l-144 -27 l-190 -268 l229 -424 l156 -49 l0 -164 l-379 0 l-254 500 l-131 0 l0 -285 l113 -51 l0 -164 l-584 0 Z" /><glyph glyph-name="l" unicode="l" d="M41 0 l0 164 l164 51 l0 1151 l-164 41 l0 164 l473 16 l0 -1372 l184 -51 l0 -164 l-657 0 Z" /><glyph glyph-name="m" unicode="m" d="M72 0 l0 164 l157 51 l0 666 l-155 51 l0 164 l428 10 l14 -145 q7 7 20 18 q13 11 53.5 39.5 q40.5 28.5 81 50 q40.5 21.5 97 39.5 q56.5 18 106.5 18 q207 0 283 -176 q20 20 49 43 q29 23 79.5 56.5 q50.5 33.5 115 55 q64.5 21.5 127.5 21.5 q158 0 236.5 -96 q78.5 -96 78.5 -272 l0 -543 l139 -51 l0 -164 l-555 0 l0 164 l109 51 l0 487 q0 86 -28 127 q-28 41 -91 41 q-37 0 -74 -11 q-37 -11 -63.5 -26.5 q-26.5 -15.5 -47.5 -31 q-21 -15.5 -32 -26.5 l-10 -11 l0 -549 l106 -51 l0 -164 l-520 0 l0 164 l107 51 l0 487 q0 87 -26.5 127.5 q-26.5 40.5 -90.5 40.5 q-37 0 -74.5 -11 q-37.5 -11 -64 -26.5 q-26.5 -15.5 -48 -31 q-21.5 -15.5 -31.5 -26.5 l-11 -11 l0 -549 l108 -51 l0 -164 l-573 0 Z" /><glyph glyph-name="n" unicode="n" d="M72 0 l0 164 l164 51 l0 666 l-164 51 l0 164 l434 10 l14 -141 q8 6 22 17 q14 11 57.5 38 q43.5 27 86.5 47.5 q43 20.5 101.5 37.5 q58.5 17 109.5 17 q148 0 229.5 -97.5 q81.5 -97.5 81.5 -266.5 l0 -543 l144 -51 l0 -164 l-564 0 l0 164 l113 51 l0 487 q0 72 -38 118 q-38 46 -101 46 q-36 0 -71.5 -12 q-35.5 -12 -61 -29 q-25.5 -17 -46 -34 q-20.5 -17 -30.5 -29 l-10 -12 l0 -535 l112 -51 l0 -164 l-583 0 Z" /><glyph glyph-name="o" unicode="o" d="M72 543 q0 274 150 428.5 q150 154.5 403 154.5 q248 0 382 -144 q134 -144 134 -409 q0 -275 -148 -434 q-148 -159 -399 -159 q-522 0 -522 563 ZM389 553 q0 -169 51.5 -248.5 q51.5 -79.5 163.5 -79.5 q113 0 166 78.5 q53 78.5 53 259.5 q0 160 -50.5 239 q-50.5 79 -158.5 79 q-116 0 -170.5 -74.5 q-54.5 -74.5 -54.5 -253.5 Z" /><glyph glyph-name="p" unicode="p" d="M41 932 l0 164 l436 10 l19 -115 q6 5 16 14.5 q10 9.5 43 32.5 q33 23 66.5 41 q33.5 18 82.5 32.5 q49 14.5 95 14.5 q209 0 317.5 -143.5 q108.5 -143.5 108.5 -398.5 q0 -288 -137 -446 q-137 -158 -402 -158 q-86 0 -174 20 l0 -260 l195 -47 l0 -164 l-662 0 l0 164 l160 47 l0 1141 l-164 51 ZM512 246 q73 -31 160 -31 q127 0 181 83.5 q54 83.5 54 248.5 q0 163 -48.5 248.5 q-48.5 85.5 -156.5 85.5 q-37 0 -70.5 -11.5 q-33.5 -11.5 -54.5 -28 q-21 -16.5 -36.5 -33.5 q-15.5 -17 -22.5 -28 l-6 -12 l0 -522 Z" /><glyph glyph-name="q" unicode="q" d="M72 522 q0 285 152 444.5 q152 159.5 442 159.5 q100 0 206.5 -12 q106.5 -12 163.5 -24 l56 -13 l0 -1333 l153 -51 l0 -164 l-655 0 l0 164 l194 51 l0 346 q-5 -4 -15 -11.5 q-10 -7.5 -42 -26.5 q-32 -19 -64.5 -33.5 q-32.5 -14.5 -79.5 -26.5 q-47 -12 -91 -12 q-209 0 -314.5 144 q-105.5 144 -105.5 398 ZM389 543 q0 -158 48.5 -238 q48.5 -80 154.5 -80 q56 0 104 23 q48 23 68 46 l20 23 l0 557 q-57 17 -159 17 q-122 0 -179 -92.5 q-57 -92.5 -57 -255.5 Z" /><glyph glyph-name="r" unicode="r" d="M72 0 l0 164 l164 51 l0 666 l-164 51 l0 164 l430 10 l18 -141 q6 7 17 17.5 q11 10.5 43.5 38.5 q32.5 28 65 49 q32.5 21 77 38.5 q44.5 17.5 82.5 17.5 q50 0 97.5 -9 q47.5 -9 69.5 -18 l23 -9 l-16 -394 l-184 0 l-31 174 q-53 0 -108 -28.5 q-55 -28.5 -84 -57.5 l-29 -28 l0 -541 l205 -51 l0 -164 l-676 0 Z" /><glyph glyph-name="s" unicode="s" d="M72 776 q0 92 35 162 q35 70 95.5 109.5 q60.5 39.5 133.5 59 q73 19.5 158 19.5 q82 0 177 -15 q95 -15 149 -31 l54 -15 l-8 -307 l-174 0 l-30 123 q-60 20 -142 20 q-67 0 -104 -27 q-37 -27 -37 -77 q0 -33 30 -58 q30 -25 78.5 -42 q48.5 -17 107 -34.5 q58.5 -17.5 116.5 -42 q58 -24.5 106.5 -57.5 q48.5 -33 78.5 -88 q30 -55 30 -127 q0 -174 -128 -271 q-128 -97 -343 -97 q-87 0 -181 11 q-94 11 -145 23 l-51 11 l0 333 l184 0 l17 -133 q72 -20 172 -20 q167 0 167 100 q0 34 -30 59.5 q-30 25.5 -78.5 44 q-48.5 18.5 -106.5 37 q-58 18.5 -116 45 q-58 26.5 -106.5 61.5 q-48.5 35 -78.5 92.5 q-30 57.5 -30 131.5 Z" /><glyph glyph-name="t" unicode="t" d="M31 850 l0 199 l190 26 l0 283 l307 55 l0 -338 l287 0 l0 -225 l-287 0 l0 -451 q0 -101 23 -142.5 q23 -41.5 86 -41.5 q36 0 84.5 16 q48.5 16 77.5 31 l73 -156 q-170 -126 -348 -126 q-86 0 -146.5 28.5 q-60.5 28.5 -94 83.5 q-33.5 55 -48 124.5 q-14.5 69.5 -14.5 162.5 l0 471 l-190 0 Z" /><glyph glyph-name="u" unicode="u" d="M31 932 l0 164 l471 10 l0 -707 q0 -86 28.5 -124.5 q28.5 -38.5 96.5 -38.5 q37 0 74.5 11.5 q37.5 11.5 64.5 27.5 q27 16 48.5 32 q21.5 16 32.5 27 l11 12 l0 535 l-164 51 l0 164 l471 10 l0 -891 l164 -41 l0 -160 l-432 -14 l-20 143 q-7 -7 -19 -18 q-12 -11 -51 -39 q-39 -28 -79 -49.5 q-40 -21.5 -97.5 -39 q-57.5 -17.5 -112.5 -17.5 q-153 0 -238 97 q-85 97 -85 269 l0 535 l-164 51 Z" /><glyph glyph-name="v" unicode="v" d="M10 932 l0 164 l537 10 l0 -174 l-115 -21 l186 -604 l181 598 l-119 27 l0 164 l537 10 l0 -174 l-117 -27 l-330 -905 l-338 0 l-323 899 l-99 33 Z" /><glyph glyph-name="w" unicode="w" d="M10 932 l0 164 l537 10 l0 -174 l-129 -25 l135 -575 l217 739 l270 45 l224 -784 l120 569 l-124 31 l0 164 l524 10 l0 -174 l-109 -25 l-272 -907 l-313 0 l-162 522 l-37 160 l-51 -223 l-150 -459 l-311 0 l-279 903 l-90 29 Z" /><glyph glyph-name="x" unicode="x" d="M10 0 l0 164 l154 41 l225 338 l-248 362 l-110 27 l0 164 l530 10 l0 -174 l-61 -12 l106 -181 l213 357 l342 10 l0 -174 l-127 -27 l-235 -352 l231 -348 l152 -41 l0 -164 l-557 0 l0 164 l63 22 l-108 181 l-222 -367 l-348 0 Z" /><glyph glyph-name="y" unicode="y" d="M10 932 l0 164 l547 10 l0 -174 l-115 -21 l183 -573 l174 567 l-119 27 l0 164 l551 10 l0 -174 l-127 -27 l-301 -839 q-24 -66 -44.5 -116.5 q-20.5 -50.5 -51.5 -111.5 q-31 -61 -62 -105.5 q-31 -44.5 -73.5 -89 q-42.5 -44.5 -89.5 -72.5 q-47 -28 -107.5 -45.5 q-60.5 -17.5 -128.5 -17.5 q-31 0 -81 4 q-50 4 -84 8 l-34 5 l29 219 l133 0 q47 0 88.5 20 q41.5 20 68 45 q26.5 25 53.5 66.5 q27 41.5 37.5 63.5 q10.5 22 26.5 59 l-364 901 l-109 33 Z" /><glyph glyph-name="z" unicode="z" d="M82 0 l0 188 l520 693 l-280 0 l-31 -150 l-185 0 l0 375 l861 0 l0 -191 l-512 -690 l299 0 l34 174 l185 0 l0 -399 l-891 0 Z" /><glyph glyph-name="braceleft" unicode="{" d="M61 502 l0 205 q108 0 151.5 55.5 q43.5 55.5 43.5 157.5 l0 288 q0 198 92.5 288.5 q92.5 90.5 280.5 90.5 l137 0 l0 -211 q-146 0 -197 -43 q-51 -43 -51 -166 l0 -215 q0 -142 -41.5 -225 q-41.5 -83 -146.5 -123 q188 -73 188 -291 l0 -354 q0 -123 51 -166 q51 -43 197 -43 l0 -211 l-137 0 q-204 0 -288.5 100 q-84.5 100 -84.5 334 l0 316 q0 102 -43.5 157.5 q-43.5 55.5 -151.5 55.5 Z" /><glyph glyph-name="bar" unicode="|" d="M164 -471 l0 2017 l242 0 l0 -2017 l-242 0 Z" /><glyph glyph-name="braceright" unicode="}" d="M82 -250 q146 0 196 43 q50 43 50 166 l0 354 q0 217 190 291 q-190 74 -190 289 l0 274 q0 123 -50 166 q-50 43 -196 43 l0 211 l137 0 q190 0 281.5 -91 q91.5 -91 91.5 -288 l0 -288 q0 -102 43 -157.5 q43 -55.5 151 -55.5 l0 -205 q-108 0 -151 -55.5 q-43 -55.5 -43 -157.5 l0 -316 q0 -233 -86 -333.5 q-86 -100.5 -289 -100.5 l-135 0 l0 211 Z" /><glyph glyph-name="asciitilde" unicode="~" d="M88 532 q4 10 13 26 q9 16 39.5 58 q30.5 42 66 74 q35.5 32 92.5 58 q57 26 119 26 q58 0 119 -21.5 q61 -21.5 103.5 -47 q42.5 -25.5 97.5 -47 q55 -21.5 104 -21.5 q50 0 99 28.5 q49 28.5 73 56.5 l24 28 l136 -103 q-5 -10 -14 -26.5 q-9 -16.5 -41 -59 q-32 -42.5 -66.5 -75 q-34.5 -32.5 -90 -59 q-55.5 -26.5 -112.5 -26.5 q-58 0 -121 21.5 q-63 21.5 -109.5 47.5 q-46.5 26 -105 47.5 q-58.5 21.5 -108.5 21.5 q-31 0 -61.5 -11.5 q-30.5 -11.5 -53 -27.5 q-22.5 -16 -40.5 -32.5 q-18 -16.5 -27 -27.5 l-9 -12 l-127 104 Z" /><glyph glyph-name="nonbreakingspace" unicode=" " d="" /><glyph glyph-name="exclamdown" unicode="¡" d="M168 954 q0 85 52.5 136 q52.5 51 125.5 51 q84 0 127 -48.5 q43 -48.5 43 -138.5 q0 -84 -51.5 -134 q-51.5 -50 -124.5 -50 q-84 0 -128 48 q-44 48 -44 136 ZM188 -453 l37 1033 l246 10 l39 -1043 l-322 0 Z" /><glyph glyph-name="cent" unicode="¢" d="M78 723 q0 209 97 346 q97 137 282 176 l0 199 l221 0 l0 -187 q64 -5 132.5 -22.5 q68.5 -17.5 105.5 -32.5 l36 -14 l-10 -311 l-174 0 l-29 141 q-59 16 -131 16 q-229 0 -229 -272 q0 -322 244 -322 q31 0 61.5 5.5 q30.5 5.5 52 11.5 q21.5 6 49 18.5 q27.5 12.5 40 19.5 q12.5 7 37.5 22 q25 15 30 18 l100 -160 q-27 -24 -62.5 -49.5 q-35.5 -25.5 -108 -59.5 q-72.5 -34 -144.5 -45 l0 -221 l-221 0 l0 225 q-183 33 -281 164 q-98 131 -98 334 Z" /><glyph glyph-name="sterling" unicode="£" d="M123 0 l0 174 l102 41 q60 24 78.5 67 q18.5 43 18.5 142 l-11 231 l-188 0 l0 191 l174 28 q-6 85 -6 170 q0 200 107 312 q107 112 329 112 q116 0 224.5 -18 q108.5 -18 158.5 -36 l51 -17 l0 -332 l-184 0 l-41 152 q-76 12 -174 12 q-168 0 -168 -180 q0 -86 4 -168 l295 0 l0 -226 l-279 0 q11 -132 11 -200 q0 -38 -6 -72.5 q-6 -34.5 -15.5 -58.5 q-9.5 -24 -20 -42.5 q-10.5 -18.5 -19.5 -27 q-9 -8.5 -15 -8.5 l381 0 l47 205 l190 0 l0 -451 l-1044 0 Z" /><glyph glyph-name="currency" unicode="¤" d="M104 240 l156 153 q-45 95 -45 213 q0 121 53 213 l-162 164 l152 164 l164 -164 q109 61 227 61 q116 0 213 -51 l158 156 l151 -164 l-151 -151 q51 -94 51 -216 q0 -125 -57 -227 l160 -158 l-154 -161 l-162 159 q-97 -57 -219 -57 q-136 0 -227 55 l-154 -153 l-154 164 ZM465 610 q0 -223 178 -223 q180 0 180 223 q0 215 -180 215 q-178 0 -178 -215 Z" /><glyph glyph-name="yen" unicode="¥" d="M20 1260 l0 174 l578 10 l0 -184 l-104 -43 l206 -429 l218 426 l-115 46 l0 174 l553 10 l0 -184 l-144 -56 l-211 -379 l195 0 l0 -184 l-1024 0 l0 184 l193 0 l-209 377 l-136 58 ZM172 334 l0 184 l1024 0 l0 -184 l-352 0 l0 -109 l153 -51 l0 -174 l-624 0 l0 174 l153 51 l0 109 l-354 0 Z" /><glyph glyph-name="brokenbar" unicode="¦" d="M178 297 l242 0 l0 -840 l-242 0 l0 840 ZM178 748 l0 819 l242 0 l0 -819 l-242 0 Z" /><glyph glyph-name="section" unicode="§" d="M127 715 q0 201 143 303 q-61 97 -61 219 q0 165 116 270 q116 105 296 105 q80 0 159.5 -16 q79.5 -16 118.5 -32 l39 -16 l-8 -338 l-162 0 l-35 176 q-51 13 -96 13 q-75 0 -117.5 -38.5 q-42.5 -38.5 -42.5 -100.5 q0 -50 28.5 -94.5 q28.5 -44.5 73.5 -81 q45 -36.5 100 -73 q55 -36.5 110 -78.5 q55 -42 100 -89 q45 -47 73.5 -112.5 q28.5 -65.5 28.5 -141.5 q0 -103 -41 -179 q-41 -76 -102 -120 q61 -94 61 -209 q0 -173 -114.5 -279 q-114.5 -106 -296.5 -106 q-76 0 -155.5 14.5 q-79.5 14.5 -120.5 29.5 l-42 15 l4 350 l168 0 l29 -180 q43 -12 104 -12 q73 0 115.5 37 q42.5 37 42.5 100 q0 48 -28.5 91.5 q-28.5 43.5 -74 79 q-45.5 35.5 -100.5 71.5 q-55 36 -110 77.5 q-55 41.5 -100.5 88.5 q-45.5 47 -74 113 q-28.5 66 -28.5 143 ZM385 750 q0 -36 18 -69 q18 -33 53 -63 q35 -30 70 -54.5 q35 -24.5 86.5 -59.5 q51.5 -35 85.5 -62 q37 46 37 115 q0 36 -18 68.5 q-18 32.5 -53.5 62.5 q-35.5 30 -71 54.5 q-35.5 24.5 -87 58.5 q-51.5 34 -85.5 61 q-35 -50 -35 -112 Z" /><glyph glyph-name="dieresis" unicode="¨" d="M184 1458 q0 72 44.5 116 q44.5 44 107.5 44 q71 0 109 -42 q38 -42 38 -118 q0 -74 -44 -117 q-44 -43 -107 -43 q-72 0 -110 41.5 q-38 41.5 -38 118.5 ZM631 1458 q0 72 45 116 q45 44 106 44 q72 0 110 -42 q38 -42 38 -118 q0 -73 -44.5 -116.5 q-44.5 -43.5 -107.5 -43.5 q-72 0 -109.5 41.5 q-37.5 41.5 -37.5 118.5 Z" /><glyph glyph-name="copyright" unicode="©" d="M76 707 q0 163 58 305 q58 142 159.5 243.5 q101.5 101.5 243.5 159.5 q142 58 305 58 q218 0 392.5 -94 q174.5 -94 274 -265 q99.5 -171 99.5 -387 q0 -216 -104.5 -392 q-104.5 -176 -284.5 -275 q-180 -99 -398 -99 q-218 0 -387.5 94 q-169.5 94 -263.5 264 q-94 170 -94 388 ZM285 717 q0 -252 149 -407.5 q149 -155.5 397 -155.5 q250 0 409 156.5 q159 156.5 159 406.5 q0 248 -159 405.5 q-159 157.5 -409 157.5 q-247 0 -396.5 -156 q-149.5 -156 -149.5 -407 ZM459 700 q0 198 105 315.5 q105 117.5 294 117.5 q56 0 122 -15.5 q66 -15.5 104 -31.5 l38 -15 l-6 -229 l-141 0 l-23 112 q-51 13 -98 13 q-170 0 -170 -240 q0 -246 178 -246 q57 0 117 26 q60 26 92 52 l76 -117 q-156 -131 -311 -131 q-175 0 -276 101.5 q-101 101.5 -101 287.5 Z" /><glyph glyph-name="ordfeminine" unicode="ª" d="M92 883 q0 125 88.5 183 q88.5 58 261.5 58 l95 0 l0 74 q0 44 -27.5 69 q-27.5 25 -75.5 25 q-31 0 -63 -4.5 q-32 -4.5 -48 -9.5 l-16 -4 l-18 -88 l-146 0 l-12 223 q195 59 334 59 q167 0 235 -68 q68 -68 68 -224 l0 -345 l109 -24 l0 -135 l-285 -13 l-29 103 q-4 -5 -12 -13 q-8 -8 -33 -28 q-25 -20 -51 -35.5 q-26 -15.5 -65.5 -28 q-39.5 -12.5 -77.5 -12.5 q-111 0 -171.5 61.5 q-60.5 61.5 -60.5 176.5 ZM113 276 l0 205 l764 0 l0 -205 l-764 0 ZM313 899 q0 -34 22.5 -54 q22.5 -20 59.5 -20 q33 0 68.5 17.5 q35.5 17.5 54.5 35.5 l19 17 l0 96 l-80 0 q-75 0 -109.5 -21.5 q-34.5 -21.5 -34.5 -70.5 Z" /><glyph glyph-name="guillemotleft" unicode="«" d="M113 463 l0 158 l311 362 l170 -113 l-223 -327 l223 -328 l-170 -115 l-311 363 ZM625 463 l0 158 l319 362 l170 -113 l-231 -327 l231 -328 l-170 -115 l-319 363 Z" /><glyph glyph-name="logicalnot" unicode="¬" d="M123 532 l0 236 l1079 0 l0 -604 l-260 0 l0 368 l-819 0 Z" /><glyph glyph-name="uni00AD" unicode="­" d="M113 430 l0 256 l583 0 l0 -256 l-583 0 Z" /><glyph glyph-name="registered" unicode="®" d="M92 920 q0 184 84 332.5 q84 148.5 232.5 232.5 q148.5 84 332.5 84 q182 0 329.5 -78 q147.5 -78 233 -222 q85.5 -144 85.5 -327 q0 -183 -89.5 -332.5 q-89.5 -149.5 -242.5 -233 q-153 -83.5 -338 -83.5 q-277 0 -452 174.5 q-175 174.5 -175 452.5 ZM411 1263.5 q-118 -125.5 -118 -331.5 q0 -206 118 -332.5 q118 -126.5 320 -126.5 q204 0 331.5 127.5 q127.5 127.5 127.5 331.5 q0 204 -127.5 330.5 q-127.5 126.5 -331.5 126.5 q-202 0 -320 -125.5 ZM455 618 l0 93 l69 24 l0 406 l-69 28 l0 86 l293 5 q114 2 182.5 -47 q68.5 -49 68.5 -140 q0 -120 -108 -172 q17 -10 35 -45 l63 -121 l68 -24 l0 -93 l-185 0 l-84 187 q-17 38 -28.5 49.5 q-11.5 11.5 -30.5 11.5 l-47 0 l0 -131 l68 -24 l0 -93 l-295 0 ZM682 975 l53 0 q42 0 73.5 22.5 q31.5 22.5 31.5 59.5 q0 38 -23.5 60 q-23.5 22 -66.5 22 l-68 0 l0 -164 Z" /><glyph glyph-name="macron" unicode="¯" d="M10 1315 l0 215 l615 0 l0 -215 l-615 0 Z" /><glyph glyph-name="degree" unicode="°" d="M92 1188 q0 147 96 238.5 q96 91.5 248 91.5 q153 0 248.5 -87 q95.5 -87 95.5 -233 q0 -155 -95.5 -247.5 q-95.5 -92.5 -248.5 -92.5 q-154 0 -249 88 q-95 88 -95 242 ZM297 1196 q0 -74 36 -115 q36 -41 103 -41 q67 0 103 41 q36 41 36 115 q0 66 -38 102.5 q-38 36.5 -101 36.5 q-63 0 -101 -36.5 q-38 -36.5 -38 -102.5 Z" /><glyph glyph-name="plusminus" unicode="±" d="M106 -74 l0 234 l1061 0 l0 -234 l-1061 0 ZM106 590 l0 239 l396 0 l0 301 l272 0 l0 -301 l393 0 l0 -239 l-393 0 l0 -309 l-272 0 l0 309 l-396 0 Z" /><glyph glyph-name="twosuperior" unicode="²" d="M68 573 l0 205 q16 12 47 36 q198 151 256 208 q90 89 90 164 q0 80 -105 80 q-22 0 -44 -4 q-22 -4 -33 -8 l-11 -3 l-14 -108 l-174 0 l-6 270 q158 51 303 51 q168 0 265 -60 q97 -60 97 -185 q0 -61 -17.5 -111 q-17.5 -50 -61 -102.5 q-43.5 -52.5 -97 -99.5 q-53.5 -47 -145.5 -118 l330 0 l0 -215 l-680 0 Z" /><glyph glyph-name="threesuperior" unicode="³" d="M35 635 l55 172 q14 -6 38.5 -15 q24.5 -9 89 -24.5 q64.5 -15.5 116.5 -15.5 q64 0 101.5 30 q37.5 30 37.5 66 q0 92 -149 92 l-111 0 l0 154 l113 0 q139 0 139 98 q0 82 -113 82 q-26 0 -53 -3 q-27 -3 -41 -6 l-14 -3 l-11 -86 l-167 0 l-7 241 q177 47 318 47 q166 0 255 -58.5 q89 -58.5 89 -168.5 q0 -80 -45 -132 q-45 -52 -121 -73 q77 -14 131.5 -68 q54.5 -54 54.5 -130 q0 -95 -54.5 -159 q-54.5 -64 -139.5 -91 q-85 -27 -195 -27 q-71 0 -150.5 19.5 q-79.5 19.5 -123.5 39.5 l-43 19 Z" /><glyph glyph-name="acute" unicode="´" d="M0 1378 l100 -149 l496 301 l-139 213 l-457 -365 Z" /><glyph glyph-name="mu" unicode="µ" d="M35 926 l0 164 l452 16 l0 -715 q0 -151 119 -151 q59 0 120 28 q61 28 92 56 l32 28 l0 533 l-152 41 l0 164 l453 16 l0 -891 l156 -41 l0 -160 l-416 -14 l-21 145 q-7 -7 -19 -18 q-12 -11 -48.5 -39.5 q-36.5 -28.5 -71.5 -50 q-35 -21.5 -82 -39.5 q-47 -18 -86 -18 q-41 0 -76 12 l0 -473 l-301 0 l0 1366 l-151 41 Z" /><glyph glyph-name="paragraph" unicode="¶" d="M102 1006 q0 190 123.5 314 q123.5 124 337.5 124 l379 0 l422 -17 l0 -163 l-164 -41 l0 -1571 l-258 0 l0 1571 l-215 0 l0 -1571 l-412 0 l0 170 l168 45 l0 692 q-163 17 -272 142.5 q-109 125.5 -109 304.5 Z" /><glyph glyph-name="periodcentered" unicode="·" d="M125 627 q0 91 51.5 141.5 q51.5 50.5 132.5 50.5 q176 0 176 -192 q0 -91 -50.5 -141 q-50.5 -50 -131.5 -50 q-178 0 -178 191 Z" /><glyph glyph-name="cedilla" unicode="¸" d="M195 -412 l63 113 q82 -43 160 -43 q48 0 75 21.5 q27 21.5 27 56.5 q0 43 -45.5 65.5 q-45.5 22.5 -122.5 22.5 l0 176 l174 0 l0 -88 q81 -15 128.5 -63 q47.5 -48 47.5 -119 q0 -92 -71.5 -149.5 q-71.5 -57.5 -186.5 -57.5 q-61 0 -123 16.5 q-62 16.5 -94 32.5 l-32 16 Z" /><glyph glyph-name="onesuperior" unicode="¹" d="M31 1241 l323 203 l224 0 l0 -688 l186 0 l0 -183 l-643 0 l0 183 l196 0 l0 428 l-186 -113 l-100 170 Z" /><glyph glyph-name="ordmasculine" unicode="º" d="M92 1044 q0 193 117.5 308.5 q117.5 115.5 300.5 115.5 q182 0 285.5 -104 q103.5 -104 103.5 -291 q0 -189 -115.5 -308.5 q-115.5 -119.5 -298.5 -119.5 q-184 0 -288.5 101 q-104.5 101 -104.5 298 ZM109 276 l0 205 l774 0 l0 -205 l-774 0 ZM348 1053 q0 -107 37.5 -163 q37.5 -56 110.5 -56 q147 0 147 231 q0 215 -143 215 q-152 0 -152 -227 Z" /><glyph glyph-name="guillemotright" unicode="»" d="M113 215 l231 328 l-231 327 l170 113 l319 -362 l0 -158 l-319 -363 l-170 115 ZM633 215 l223 328 l-223 327 l170 113 l311 -362 l0 -158 l-311 -363 l-170 115 Z" /><glyph glyph-name="onequarter" unicode="¼" d="M92 1241 l324 203 l223 0 l0 -688 l164 0 l0 -183 l-621 0 l0 183 l197 0 l0 428 l-186 -113 l-101 170 ZM522 0 l836 1444 l297 0 l-836 -1444 l-297 0 ZM1266 330 l403 551 l295 -35 l0 -498 l119 0 l0 -190 l-119 0 l0 -158 l-260 0 l0 158 l-410 0 l-28 172 ZM1509 348 l195 0 l0 260 l-195 -260 Z" /><glyph glyph-name="onehalf" unicode="½" d="M92 1241 l324 203 l223 0 l0 -688 l164 0 l0 -183 l-621 0 l0 183 l197 0 l0 428 l-186 -113 l-101 170 ZM524 0 l836 1444 l297 0 l-836 -1444 l-297 0 ZM1399 0 l0 205 q217 168 257 202 q109 95 130 163 q6 22 6 44 q0 78 -106 78 q-22 0 -44 -3.5 q-22 -3.5 -34 -6.5 l-11 -4 l-12 -109 l-174 0 l-6 271 q156 51 301 51 q170 0 267.5 -60.5 q97.5 -60.5 97.5 -185.5 q0 -61 -17.5 -111 q-17.5 -50 -61.5 -102.5 q-44 -52.5 -97 -98.5 q-53 -46 -146 -118 l330 0 l0 -215 l-680 0 Z" /><glyph glyph-name="threequarters" unicode="¾" d="M82 616 l55 172 q14 -6 38 -15 q24 -9 88 -23.5 q64 -14.5 116 -14.5 q54 0 97.5 25 q43.5 25 43.5 71 q0 93 -151 93 l-109 0 l0 151 l113 0 q137 0 137 103 q0 37 -28 58 q-28 21 -83 21 q-26 0 -53.5 -3.5 q-27.5 -3.5 -41.5 -7.5 l-15 -3 l-10 -84 l-166 0 l-9 240 q179 47 320 47 q166 0 254 -58 q88 -58 88 -167 q0 -81 -45 -133.5 q-45 -52.5 -121 -73.5 q76 -13 132 -68 q56 -55 56 -131 q0 -94 -55 -157 q-55 -63 -140 -90 q-85 -27 -194 -27 q-72 0 -151.5 18.5 q-79.5 18.5 -122.5 37.5 l-43 19 ZM487 0 l836 1444 l297 0 l-836 -1444 l-297 0 ZM1231 330 l401 551 l295 -35 l0 -498 l119 0 l0 -190 l-119 0 l0 -158 l-260 0 l0 158 l-407 0 l-29 172 ZM1468 348 l199 0 l0 270 l-199 -270 Z" /><glyph glyph-name="questiondown" unicode="¿" d="M102 -143 q0 64 20.5 123 q20.5 59 53 105 q32.5 46 71.5 88 q39 42 78.5 79.5 q39.5 37.5 72 73 q32.5 35.5 53 74.5 q20.5 39 20.5 77 l-4 119 l270 12 q19 -132 19 -200 q0 -55 -35.5 -108.5 q-35.5 -53.5 -86 -98 q-50.5 -44.5 -101 -88.5 q-50.5 -44 -86 -95.5 q-35.5 -51.5 -35.5 -103.5 q0 -135 184 -135 q38 0 83.5 5.5 q45.5 5.5 72.5 11.5 l26 5 l39 -213 q-172 -49 -305 -49 q-82 0 -151.5 16.5 q-69.5 16.5 -129.5 51.5 q-60 35 -94.5 99 q-34.5 64 -34.5 151 ZM410 954 q0 86 51.5 136.5 q51.5 50.5 124.5 50.5 q84 0 128 -48.5 q44 -48.5 44 -138.5 q0 -84 -51.5 -134 q-51.5 -50 -124.5 -50 q-84 0 -128 48 q-44 48 -44 136 Z" /><glyph glyph-name="Agrave" unicode="à" d="M10 0 l0 174 l150 57 l450 1207 l328 6 l440 -1213 l144 -57 l0 -174 l-652 0 l0 174 l154 55 l-49 150 l-455 0 l-51 -148 l160 -57 l0 -174 l-619 0 ZM502 1735 l119 223 l440 -289 l-94 -164 l-465 230 ZM592 598 l315 0 l-153 485 l-162 -485 Z" /><glyph glyph-name="Aacute" unicode="á" d="M10 0 l0 174 l150 57 l450 1207 l328 6 l440 -1213 l144 -57 l0 -174 l-652 0 l0 174 l154 55 l-49 150 l-455 0 l-51 -148 l160 -57 l0 -174 l-619 0 ZM592 598 l315 0 l-153 485 l-162 -485 ZM627 1669 l440 289 l119 -223 l-465 -230 l-94 164 Z" /><glyph glyph-name="Acircumflex" unicode="â" d="M10 0 l0 174 l150 57 l450 1207 l328 6 l440 -1213 l144 -57 l0 -174 l-652 0 l0 174 l154 55 l-49 150 l-455 0 l-51 -148 l160 -57 l0 -174 l-619 0 ZM369 1655 l313 268 l182 16 l332 -284 l-98 -135 l-310 200 l-321 -200 l-98 135 ZM592 598 l315 0 l-153 485 l-162 -485 Z" /><glyph glyph-name="Atilde" unicode="ã" d="M10 0 l0 174 l150 57 l450 1207 l328 6 l440 -1213 l144 -57 l0 -174 l-652 0 l0 174 l154 55 l-49 150 l-455 0 l-51 -148 l160 -57 l0 -174 l-619 0 ZM369 1671 q4 9 10.5 24 q6.5 15 30.5 54 q24 39 51.5 68.5 q27.5 29.5 71.5 54 q44 24.5 92 24.5 q60 0 123.5 -23.5 q63.5 -23.5 122.5 -47 q59 -23.5 110 -23.5 q36 0 71 21.5 q35 21.5 52 42.5 l18 22 l113 -86 q-4 -9 -12.5 -23 q-8.5 -14 -36 -51 q-27.5 -37 -57.5 -65 q-30 -28 -76.5 -51 q-46.5 -23 -94.5 -23 q-74 0 -179.5 40 q-105.5 40 -164.5 40 q-38 0 -75 -19.5 q-37 -19.5 -55 -39.5 l-17 -19 l-98 80 ZM592 598 l315 0 l-153 485 l-162 -485 Z" /><glyph glyph-name="Adieresis" unicode="ä" d="M10 0 l0 174 l150 57 l450 1207 l328 6 l440 -1213 l144 -57 l0 -174 l-652 0 l0 174 l154 55 l-49 150 l-455 0 l-51 -148 l160 -57 l0 -174 l-619 0 ZM463 1735 q0 72 44 115.5 q44 43.5 107 43.5 q71 0 109.5 -41.5 q38.5 -41.5 38.5 -117.5 q0 -73 -44.5 -116.5 q-44.5 -43.5 -107.5 -43.5 q-72 0 -109.5 41.5 q-37.5 41.5 -37.5 118.5 ZM592 598 l315 0 l-153 485 l-162 -485 ZM909 1735 q0 72 45 115.5 q45 43.5 107 43.5 q72 0 109.5 -41.5 q37.5 -41.5 37.5 -117.5 q0 -74 -44 -117 q-44 -43 -107 -43 q-72 0 -110 41.5 q-38 41.5 -38 118.5 Z" /><glyph glyph-name="Aring" unicode="å" d="M10 0 l0 174 l150 57 l450 1207 l2 0 q-100 73 -100 204 q0 123 83 198 q83 75 191 75 q108 0 190.5 -70 q82.5 -70 82.5 -190 q0 -72 -32 -130 q-32 -58 -85 -93 l436 -1201 l144 -57 l0 -174 l-652 0 l0 174 l154 55 l-49 150 l-455 0 l-51 -148 l160 -57 l0 -174 l-619 0 ZM592 598 l315 0 l-153 485 l-162 -485 ZM686 1649 q0 -58 26 -87.5 q26 -29.5 74 -29.5 q43 0 71 31.5 q28 31.5 28 87.5 q0 57 -26 86.5 q-26 29.5 -73 29.5 q-44 0 -72 -30.5 q-28 -30.5 -28 -87.5 Z" /><glyph glyph-name="AE" unicode="æ" d="M10 0 l0 174 l172 62 l469 962 l-174 62 l0 174 l391 10 l994 0 l0 -400 l-191 0 l-51 154 l-332 0 l0 -338 l414 0 l0 -225 l-414 0 l0 -389 l363 0 l47 168 l188 0 l0 -414 l-1067 0 l0 174 l152 62 l0 157 l-396 0 l-79 -166 l125 -53 l0 -174 l-611 0 ZM672 614 l299 0 l0 584 l-29 0 l-270 -584 Z" /><glyph glyph-name="Ccedilla" unicode="ç" d="M113 700 q0 358 186.5 563 q186.5 205 503.5 205 q110 0 229.5 -24 q119.5 -24 183.5 -48 l64 -24 l-10 -389 l-201 0 l-47 197 q-96 32 -229 32 q-164 0 -251 -124.5 q-87 -124.5 -87 -376.5 q0 -471 348 -471 q57 0 118.5 14.5 q61.5 14.5 107.5 35.5 q46 21 84.5 42.5 q38.5 21.5 58.5 35.5 l20 15 l113 -184 q-7 -7 -20 -19 q-13 -12 -56 -44 q-43 -32 -89.5 -59 q-46.5 -27 -118 -54.5 q-71.5 -27.5 -144.5 -38.5 l0 -74 q81 -16 127.5 -63 q46.5 -47 46.5 -121 q0 -90 -73.5 -147.5 q-73.5 -57.5 -184.5 -57.5 q-62 0 -126 17.5 q-64 17.5 -97 34.5 l-33 17 l65 115 q86 -47 168 -47 q43 0 68.5 21 q25.5 21 25.5 55 q0 43 -45.5 65.5 q-45.5 22.5 -122.5 22.5 l0 158 q-281 19 -432 202.5 q-151 183.5 -151 517.5 Z" /><glyph glyph-name="Egrave" unicode="è" d="M92 0 l0 174 l154 62 l0 962 l-154 62 l0 174 l471 10 l574 0 l0 -395 l-185 0 l-51 149 l-338 0 l0 -338 l414 0 l0 -225 l-414 0 l0 -389 l367 0 l47 168 l184 0 l0 -414 l-1069 0 ZM326 1735 l118 223 l441 -289 l-94 -164 l-465 230 Z" /><glyph glyph-name="Eacute" unicode="é" d="M92 0 l0 174 l154 62 l0 962 l-154 62 l0 174 l471 10 l574 0 l0 -395 l-185 0 l-51 149 l-338 0 l0 -338 l414 0 l0 -225 l-414 0 l0 -389 l367 0 l47 168 l184 0 l0 -414 l-1069 0 ZM451 1669 l440 289 l119 -223 l-465 -230 l-94 164 Z" /><glyph glyph-name="Ecircumflex" unicode="ê" d="M92 0 l0 174 l154 62 l0 962 l-154 62 l0 174 l471 10 l574 0 l0 -395 l-185 0 l-51 149 l-338 0 l0 -338 l414 0 l0 -225 l-414 0 l0 -389 l367 0 l47 168 l184 0 l0 -414 l-1069 0 ZM260 1655 l313 268 l183 16 l331 -284 l-98 -135 l-309 200 l-322 -200 l-98 135 Z" /><glyph glyph-name="Edieresis" unicode="ë" d="M92 0 l0 174 l154 62 l0 962 l-154 62 l0 174 l471 10 l574 0 l0 -395 l-185 0 l-51 149 l-338 0 l0 -338 l414 0 l0 -225 l-414 0 l0 -389 l367 0 l47 168 l184 0 l0 -414 l-1069 0 ZM287 1737 q0 72 44 115.5 q44 43.5 107 43.5 q71 0 109.5 -41.5 q38.5 -41.5 38.5 -117.5 q0 -73 -44.5 -116.5 q-44.5 -43.5 -107.5 -43.5 q-72 0 -109.5 41.5 q-37.5 41.5 -37.5 118.5 ZM733 1737 q0 72 45 115.5 q45 43.5 107 43.5 q72 0 109.5 -41.5 q37.5 -41.5 37.5 -117.5 q0 -74 -44 -117 q-44 -43 -107 -43 q-72 0 -110 41.5 q-38 41.5 -38 118.5 Z" /><glyph glyph-name="Igrave" unicode="ì" d="M39 1735 l119 223 l440 -289 l-94 -164 l-465 230 ZM82 0 l0 174 l154 62 l0 962 l-154 62 l0 174 l625 10 l0 -184 l-154 -62 l0 -962 l154 -62 l0 -174 l-625 0 Z" /><glyph glyph-name="Iacute" unicode="í" d="M82 0 l0 174 l154 62 l0 962 l-154 62 l0 174 l625 10 l0 -184 l-154 -62 l0 -962 l154 -62 l0 -174 l-625 0 ZM178 1669 l440 289 l119 -223 l-465 -230 l-94 164 Z" /><glyph glyph-name="Icircumflex" unicode="î" d="M-31 1655 l314 268 l182 16 l332 -284 l-99 -135 l-309 200 l-321 -200 l-99 135 ZM82 0 l0 174 l154 62 l0 962 l-154 62 l0 174 l625 10 l0 -184 l-154 -62 l0 -962 l154 -62 l0 -174 l-625 0 Z" /><glyph glyph-name="Idieresis" unicode="ï" d="M53 1735 q0 72 44.5 115.5 q44.5 43.5 107.5 43.5 q71 0 109 -41.5 q38 -41.5 38 -117.5 q0 -74 -44 -117 q-44 -43 -107 -43 q-72 0 -110 41.5 q-38 41.5 -38 118.5 ZM111 0 l0 174 l153 62 l0 962 l-153 62 l0 174 l624 10 l0 -184 l-153 -62 l0 -962 l153 -62 l0 -174 l-624 0 ZM479 1735 q0 72 45 115.5 q45 43.5 107 43.5 q72 0 109.5 -41.5 q37.5 -41.5 37.5 -117.5 q0 -74 -44 -117 q-44 -43 -107 -43 q-72 0 -110 41.5 q-38 41.5 -38 118.5 Z" /><glyph glyph-name="Eth" unicode="ð" d="M82 0 l0 174 l154 62 l0 403 l-140 0 l0 225 l140 0 l0 334 l-154 62 l0 174 l471 10 l203 0 q310 0 479.5 -180 q169.5 -180 169.5 -523 q0 -344 -184 -542.5 q-184 -198.5 -496 -198.5 l-643 0 ZM551 246 l178 0 q79 0 138 24.5 q59 24.5 104 79 q45 54.5 68.5 150.5 q23.5 96 23.5 231 q0 249 -81 358 q-81 109 -237 109 l-194 0 l0 -334 l248 0 l0 -225 l-248 0 l0 -393 Z" /><glyph glyph-name="Ntilde" unicode="ñ" d="M72 0 l0 174 l153 62 l0 962 l-153 62 l0 174 l491 10 l553 -946 l0 700 l-149 62 l0 174 l583 10 l0 -184 l-153 -62 l0 -1198 l-342 0 l-549 928 l0 -692 l160 -62 l0 -174 l-594 0 ZM373 1671 q4 9 10.5 24 q6.5 15 30.5 54 q24 39 51.5 68.5 q27.5 29.5 71.5 54 q44 24.5 92 24.5 q60 0 123.5 -23.5 q63.5 -23.5 122.5 -47 q59 -23.5 110 -23.5 q36 0 71 21.5 q35 21.5 52 42.5 l18 22 l113 -86 q-4 -9 -12.5 -23 q-8.5 -14 -36 -51 q-27.5 -37 -57 -65 q-29.5 -28 -76 -51 q-46.5 -23 -94.5 -23 q-74 0 -180 40 q-106 40 -165 40 q-38 0 -75 -19.5 q-37 -19.5 -55 -39.5 l-17 -19 l-98 80 Z" /><glyph glyph-name="Ograve" unicode="ò" d="M113 711 q0 352 181 554.5 q181 202.5 494 202.5 q307 0 476.5 -191.5 q169.5 -191.5 169.5 -535.5 q0 -345 -189 -556.5 q-189 -211.5 -497 -211.5 q-308 0 -471.5 189 q-163.5 189 -163.5 549 ZM428 1735 l119 223 l440 -289 l-94 -164 l-465 230 ZM461 721 q0 -254 71.5 -373 q71.5 -119 225.5 -119 q161 0 244 117.5 q83 117.5 83 384.5 q0 250 -75.5 365.5 q-75.5 115.5 -231.5 115.5 q-160 0 -238.5 -113 q-78.5 -113 -78.5 -378 Z" /><glyph glyph-name="Oacute" unicode="ó" d="M113 711 q0 352 181 554.5 q181 202.5 494 202.5 q307 0 476.5 -191.5 q169.5 -191.5 169.5 -535.5 q0 -345 -189 -556.5 q-189 -211.5 -497 -211.5 q-308 0 -471.5 189 q-163.5 189 -163.5 549 ZM461 721 q0 -254 71.5 -373 q71.5 -119 225.5 -119 q161 0 244 117.5 q83 117.5 83 384.5 q0 250 -75.5 365.5 q-75.5 115.5 -231.5 115.5 q-160 0 -238.5 -113 q-78.5 -113 -78.5 -378 ZM543 1669 l440 289 l119 -223 l-465 -230 l-94 164 Z" /><glyph glyph-name="Ocircumflex" unicode="ô" d="M113 711 q0 352 181 554.5 q181 202.5 494 202.5 q307 0 476.5 -191.5 q169.5 -191.5 169.5 -535.5 q0 -345 -189 -556.5 q-189 -211.5 -497 -211.5 q-308 0 -471.5 189 q-163.5 189 -163.5 549 ZM367 1655 l313 268 l182 16 l332 -284 l-98 -135 l-310 200 l-321 -200 l-98 135 ZM461 721 q0 -254 71.5 -373 q71.5 -119 225.5 -119 q161 0 244 117.5 q83 117.5 83 384.5 q0 250 -75.5 365.5 q-75.5 115.5 -231.5 115.5 q-160 0 -238.5 -113 q-78.5 -113 -78.5 -378 Z" /><glyph glyph-name="Otilde" unicode="õ" d="M113 711 q0 352 181 554.5 q181 202.5 494 202.5 q307 0 476.5 -191.5 q169.5 -191.5 169.5 -535.5 q0 -345 -189 -556.5 q-189 -211.5 -497 -211.5 q-308 0 -471.5 189 q-163.5 189 -163.5 549 ZM336 1671 q4 9 10.5 24 q6.5 15 30.5 54 q24 39 51.5 68.5 q27.5 29.5 71.5 54 q44 24.5 92 24.5 q60 0 123.5 -23.5 q63.5 -23.5 122.5 -47 q59 -23.5 110 -23.5 q22 0 45 9 q23 9 39.5 21.5 q16.5 12.5 30 25 q13.5 12.5 20.5 21.5 l7 9 l112 -86 q-4 -9 -12.5 -23 q-8.5 -14 -36 -51 q-27.5 -37 -57 -65 q-29.5 -28 -76 -51 q-46.5 -23 -94.5 -23 q-74 0 -179.5 40 q-105.5 40 -164.5 40 q-38 0 -75 -19.5 q-37 -19.5 -55 -39.5 l-18 -19 l-98 80 ZM461 721 q0 -254 71.5 -373 q71.5 -119 225.5 -119 q161 0 244 117.5 q83 117.5 83 384.5 q0 250 -75.5 365.5 q-75.5 115.5 -231.5 115.5 q-160 0 -238.5 -113 q-78.5 -113 -78.5 -378 Z" /><glyph glyph-name="Odieresis" unicode="ö" d="M113 711 q0 352 181 554.5 q181 202.5 494 202.5 q307 0 476.5 -191.5 q169.5 -191.5 169.5 -535.5 q0 -345 -189 -556.5 q-189 -211.5 -497 -211.5 q-308 0 -471.5 189 q-163.5 189 -163.5 549 ZM397 1735 q0 72 44.5 115.5 q44.5 43.5 107.5 43.5 q71 0 109 -41.5 q38 -41.5 38 -117.5 q0 -74 -44 -117 q-44 -43 -107 -43 q-72 0 -110 41.5 q-38 41.5 -38 118.5 ZM461 721 q0 -254 71.5 -373 q71.5 -119 225.5 -119 q161 0 244 117.5 q83 117.5 83 384.5 q0 250 -75.5 365.5 q-75.5 115.5 -231.5 115.5 q-160 0 -238.5 -113 q-78.5 -113 -78.5 -378 ZM844 1735 q0 72 44.5 115.5 q44.5 43.5 106.5 43.5 q73 0 110.5 -41.5 q37.5 -41.5 37.5 -117.5 q0 -73 -44.5 -116.5 q-44.5 -43.5 -107.5 -43.5 q-72 0 -109.5 41.5 q-37.5 41.5 -37.5 118.5 Z" /><glyph glyph-name="multiply" unicode="×" d="M109 207 l346 346 l-346 346 l172 174 l346 -348 l348 348 l172 -174 l-346 -346 l346 -346 l-172 -174 l-348 348 l-346 -348 l-172 174 Z" /><glyph glyph-name="Oslash" unicode="ø" d="M123 711 q0 352 182 554.5 q182 202.5 494 202.5 q159 0 284 -55 l127 211 l183 -104 l-138 -224 q189 -192 189 -555 q0 -345 -189 -555.5 q-189 -210.5 -497 -210.5 q-156 0 -277 50 l-151 -250 l-183 104 l160 262 q-184 187 -184 570 ZM467 743 q0 -176 43 -270 q83 138 239.5 395 q156.5 257 188.5 310 q-64 34 -150 34 q-158 0 -239.5 -110.5 q-81.5 -110.5 -81.5 -358.5 ZM627 264 q59 -35 141 -35 q334 0 334 502 q0 146 -45 238 l-430 -705 Z" /><glyph glyph-name="Ugrave" unicode="ù" d="M72 1260 l0 174 l628 10 l0 -184 l-159 -62 l0 -645 q0 -179 59.5 -253.5 q59.5 -74.5 208.5 -74.5 q81 0 133 21 q52 21 80.5 68.5 q28.5 47.5 39.5 110.5 q11 63 11 159 l0 614 l-160 62 l0 174 l631 10 l0 -184 l-153 -62 l0 -614 q0 -152 -31 -262.5 q-31 -110.5 -100 -189.5 q-69 -79 -183.5 -118 q-114.5 -39 -277.5 -39 q-306 0 -441 139 q-135 139 -135 439 l0 645 l-151 62 ZM449 1735 l118 223 l441 -289 l-95 -164 l-464 230 Z" /><glyph glyph-name="Uacute" unicode="ú" d="M72 1260 l0 174 l628 10 l0 -184 l-159 -62 l0 -645 q0 -179 59.5 -253.5 q59.5 -74.5 208.5 -74.5 q81 0 133 21 q52 21 80.5 68.5 q28.5 47.5 39.5 110.5 q11 63 11 159 l0 614 l-160 62 l0 174 l631 10 l0 -184 l-153 -62 l0 -614 q0 -152 -31 -262.5 q-31 -110.5 -100 -189.5 q-69 -79 -183.5 -118 q-114.5 -39 -277.5 -39 q-306 0 -441 139 q-135 139 -135 439 l0 645 l-151 62 ZM584 1669 l440 289 l119 -223 l-465 -230 l-94 164 Z" /><glyph glyph-name="Ucircumflex" unicode="û" d="M72 1260 l0 174 l628 10 l0 -184 l-159 -62 l0 -645 q0 -179 59.5 -253.5 q59.5 -74.5 208.5 -74.5 q81 0 133 21 q52 21 80.5 68.5 q28.5 47.5 39.5 110.5 q11 63 11 159 l0 614 l-160 62 l0 174 l631 10 l0 -184 l-153 -62 l0 -614 q0 -152 -31 -262.5 q-31 -110.5 -100 -189.5 q-69 -79 -183.5 -118 q-114.5 -39 -277.5 -39 q-306 0 -441 139 q-135 139 -135 439 l0 645 l-151 62 ZM389 1655 l313 268 l183 16 l332 -284 l-99 -135 l-309 200 l-322 -200 l-98 135 Z" /><glyph glyph-name="Udieresis" unicode="ü" d="M72 1260 l0 174 l628 10 l0 -184 l-159 -62 l0 -645 q0 -179 59.5 -253.5 q59.5 -74.5 208.5 -74.5 q81 0 133 21 q52 21 80.5 68.5 q28.5 47.5 39.5 110.5 q11 63 11 159 l0 614 l-160 62 l0 174 l631 10 l0 -184 l-153 -62 l0 -614 q0 -152 -31 -262.5 q-31 -110.5 -100 -189.5 q-69 -79 -183.5 -118 q-114.5 -39 -277.5 -39 q-306 0 -441 139 q-135 139 -135 439 l0 645 l-151 62 ZM436 1735 q0 72 44.5 115.5 q44.5 43.5 107.5 43.5 q71 0 109 -41.5 q38 -41.5 38 -117.5 q0 -74 -44 -117 q-44 -43 -107 -43 q-72 0 -110 41.5 q-38 41.5 -38 118.5 ZM883 1735 q0 72 44.5 115.5 q44.5 43.5 106.5 43.5 q73 0 110.5 -41.5 q37.5 -41.5 37.5 -117.5 q0 -73 -44.5 -116.5 q-44.5 -43.5 -107.5 -43.5 q-72 0 -109.5 41.5 q-37.5 41.5 -37.5 118.5 Z" /><glyph glyph-name="Yacute" unicode="ý" d="M14 1260 l0 174 l580 10 l0 -184 l-105 -43 l205 -441 l217 438 l-112 46 l0 174 l553 10 l0 -184 l-142 -56 l-370 -702 l0 -266 l153 -62 l0 -174 l-624 0 l0 174 l153 62 l0 264 l-375 704 l-133 56 ZM532 1669 l441 289 l119 -223 l-465 -230 l-95 164 Z" /><glyph glyph-name="Thorn" unicode="þ" d="M72 0 l0 174 l153 62 l0 962 l-153 62 l0 174 l645 10 l0 -184 l-174 -62 l0 -61 l202 0 q233 0 362.5 -98 q129.5 -98 129.5 -281 q0 -220 -154.5 -325 q-154.5 -105 -429.5 -105 l-110 0 l0 -92 l174 -62 l0 -174 l-645 0 ZM543 547 l131 0 q118 0 184 47.5 q66 47.5 66 142.5 q0 83 -58 128.5 q-58 45.5 -157 45.5 l-166 0 l0 -364 Z" /><glyph glyph-name="germandbls" unicode="ß" d="M72 860 l0 178 l204 31 l0 98 q0 201 137 323 q137 122 361 122 q247 0 381.5 -93 q134.5 -93 134.5 -253 q0 -67 -24 -122.5 q-24 -55.5 -58 -92.5 q-34 -37 -67.5 -69 q-33.5 -32 -57.5 -68 q-24 -36 -24 -74 q0 -38 26 -68 q26 -30 68 -51.5 q42 -21.5 92.5 -42.5 q50.5 -21 100.5 -48 q50 -27 92 -61.5 q42 -34.5 68 -90 q26 -55.5 26 -126.5 q0 -167 -125.5 -269.5 q-125.5 -102.5 -323.5 -102.5 q-73 0 -160.5 11 q-87.5 11 -138.5 23 l-51 11 l0 329 l185 0 l20 -137 q55 -22 135 -22 q72 0 110 29 q38 29 38 81 q0 36 -26 64.5 q-26 28.5 -68 49.5 q-42 21 -92.5 42.5 q-50.5 21.5 -100.5 49.5 q-50 28 -92 64 q-42 36 -68 94 q-26 58 -26 132 q0 66 25 118.5 q25 52.5 60 86.5 q35 34 70.5 64 q35.5 30 60.5 68.5 q25 38.5 25 84.5 q0 77 -63 120 q-63 43 -148 43 q-93 0 -145.5 -54 q-52.5 -54 -52.5 -150 l0 -1182 l-467 0 l0 164 l163 51 l0 645 l-204 0 Z" /><glyph glyph-name="agrave" unicode="à" d="M82 301 q0 176 126 257 q126 81 367 81 l144 0 l0 113 q0 149 -158 149 q-46 0 -91 -7.5 q-45 -7.5 -67 -15.5 l-22 -8 l-31 -129 l-184 0 l-14 303 q28 9 74.5 22.5 q46.5 13.5 164 36.5 q117.5 23 205.5 23 q234 0 332 -91.5 q98 -91.5 98 -313.5 l0 -506 l154 -37 l0 -164 l-410 -14 l-37 133 q-6 -6 -18 -16.5 q-12 -10.5 -48.5 -37 q-36.5 -26.5 -73.5 -46.5 q-37 -20 -90 -36.5 q-53 -16.5 -102 -16.5 q-150 0 -234.5 84 q-84.5 84 -84.5 237 ZM227 1526 l140 213 l456 -365 l-100 -149 l-496 301 ZM379 332 q0 -59 31.5 -91 q31.5 -32 89.5 -32 q31 0 64.5 12.5 q33.5 12.5 60 29.5 q26.5 17 48.5 34.5 q22 17.5 34 30.5 l12 12 l0 137 l-117 0 q-119 0 -171 -31.5 q-52 -31.5 -52 -101.5 Z" /><glyph glyph-name="aacute" unicode="á" d="M82 301 q0 176 126 257 q126 81 367 81 l144 0 l0 113 q0 149 -158 149 q-46 0 -91 -7.5 q-45 -7.5 -67 -15.5 l-22 -8 l-31 -129 l-184 0 l-14 303 q28 9 74.5 22.5 q46.5 13.5 164 36.5 q117.5 23 205.5 23 q234 0 332 -91.5 q98 -91.5 98 -313.5 l0 -506 l154 -37 l0 -164 l-410 -14 l-37 133 q-6 -6 -18 -16.5 q-12 -10.5 -48.5 -37 q-36.5 -26.5 -73.5 -46.5 q-37 -20 -90 -36.5 q-53 -16.5 -102 -16.5 q-150 0 -234.5 84 q-84.5 84 -84.5 237 ZM297 1378 l100 -149 l496 301 l-139 213 l-457 -365 ZM379 332 q0 -59 31.5 -91 q31.5 -32 89.5 -32 q31 0 64.5 12.5 q33.5 12.5 60 29.5 q26.5 17 48.5 34.5 q22 17.5 34 30.5 l12 12 l0 137 l-117 0 q-119 0 -171 -31.5 q-52 -31.5 -52 -101.5 Z" /><glyph glyph-name="acircumflex" unicode="â" d="M82 301 q0 176 126 257 q126 81 367 81 l144 0 l0 113 q0 149 -158 149 q-46 0 -91 -7.5 q-45 -7.5 -67 -15.5 l-22 -8 l-31 -129 l-184 0 l-14 303 q28 9 74.5 22.5 q46.5 13.5 164 36.5 q117.5 23 205.5 23 q234 0 332 -91.5 q98 -91.5 98 -313.5 l0 -506 l154 -37 l0 -164 l-410 -14 l-37 133 q-6 -6 -18 -16.5 q-12 -10.5 -48.5 -37 q-36.5 -26.5 -73.5 -46.5 q-37 -20 -90 -36.5 q-53 -16.5 -102 -16.5 q-150 0 -234.5 84 q-84.5 84 -84.5 237 ZM137 1360 l336 313 l182 17 l359 -330 l-99 -135 l-335 245 l-344 -245 l-99 135 ZM379 332 q0 -59 31.5 -91 q31.5 -32 89.5 -32 q31 0 64.5 12.5 q33.5 12.5 60 29.5 q26.5 17 48.5 34.5 q22 17.5 34 30.5 l12 12 l0 137 l-117 0 q-119 0 -171 -31.5 q-52 -31.5 -52 -101.5 Z" /><glyph glyph-name="atilde" unicode="ã" d="M82 301 q0 176 126 257 q126 81 367 81 l144 0 l0 113 q0 149 -158 149 q-46 0 -91 -7.5 q-45 -7.5 -67 -15.5 l-22 -8 l-31 -129 l-184 0 l-14 303 q28 9 74.5 22.5 q46.5 13.5 164 36.5 q117.5 23 205.5 23 q234 0 332 -91.5 q98 -91.5 98 -313.5 l0 -506 l154 -37 l0 -164 l-410 -14 l-37 133 q-6 -6 -18 -16.5 q-12 -10.5 -48.5 -37 q-36.5 -26.5 -73.5 -46.5 q-37 -20 -90 -36.5 q-53 -16.5 -102 -16.5 q-150 0 -234.5 84 q-84.5 84 -84.5 237 ZM141 1384 q4 9 10.5 24.5 q6.5 15.5 30.5 54.5 q24 39 51.5 68.5 q27.5 29.5 71.5 54 q44 24.5 92 24.5 q60 0 119.5 -23.5 q59.5 -23.5 114.5 -47 q55 -23.5 106 -23.5 q22 0 45 9 q23 9 39.5 21.5 q16.5 12.5 30 25 q13.5 12.5 20.5 21.5 l7 9 l108 -95 q-4 -9 -10.5 -24 q-6.5 -15 -31 -53.5 q-24.5 -38.5 -52 -68 q-27.5 -29.5 -71.5 -53.5 q-44 -24 -91 -24 q-60 0 -120.5 22.5 q-60.5 22.5 -116.5 45 q-56 22.5 -107 22.5 q-38 0 -75.5 -21 q-37.5 -21 -55.5 -42 l-18 -21 l-97 94 ZM379 332 q0 -59 31.5 -91 q31.5 -32 89.5 -32 q31 0 64.5 12.5 q33.5 12.5 60 29.5 q26.5 17 48.5 34.5 q22 17.5 34 30.5 l12 12 l0 137 l-117 0 q-119 0 -171 -31.5 q-52 -31.5 -52 -101.5 Z" /><glyph glyph-name="adieresis" unicode="ä" d="M82 301 q0 176 126 257 q126 81 367 81 l144 0 l0 113 q0 149 -158 149 q-46 0 -91 -7.5 q-45 -7.5 -67 -15.5 l-22 -8 l-31 -129 l-184 0 l-14 303 q28 9 74.5 22.5 q46.5 13.5 164 36.5 q117.5 23 205.5 23 q234 0 332 -91.5 q98 -91.5 98 -313.5 l0 -506 l154 -37 l0 -164 l-410 -14 l-37 133 q-6 -6 -18 -16.5 q-12 -10.5 -48.5 -37 q-36.5 -26.5 -73.5 -46.5 q-37 -20 -90 -36.5 q-53 -16.5 -102 -16.5 q-150 0 -234.5 84 q-84.5 84 -84.5 237 ZM213 1430 q0 72 44.5 115.5 q44.5 43.5 107.5 43.5 q71 0 109 -41.5 q38 -41.5 38 -117.5 q0 -73 -44.5 -116.5 q-44.5 -43.5 -107.5 -43.5 q-72 0 -109.5 41.5 q-37.5 41.5 -37.5 118.5 ZM379 332 q0 -59 31.5 -91 q31.5 -32 89.5 -32 q31 0 64.5 12.5 q33.5 12.5 60 29.5 q26.5 17 48.5 34.5 q22 17.5 34 30.5 l12 12 l0 137 l-117 0 q-119 0 -171 -31.5 q-52 -31.5 -52 -101.5 ZM659 1430 q0 72 45 115.5 q45 43.5 107 43.5 q72 0 109.5 -41.5 q37.5 -41.5 37.5 -117.5 q0 -74 -44 -117 q-44 -43 -107 -43 q-72 0 -110 41.5 q-38 41.5 -38 118.5 Z" /><glyph glyph-name="aring" unicode="å" d="M82 301 q0 176 126 257 q126 81 367 81 l144 0 l0 113 q0 149 -158 149 q-46 0 -91 -7.5 q-45 -7.5 -67 -15.5 l-22 -8 l-31 -129 l-184 0 l-14 303 q28 9 74.5 22.5 q46.5 13.5 164 36.5 q117.5 23 205.5 23 q234 0 332 -91.5 q98 -91.5 98 -313.5 l0 -506 l154 -37 l0 -164 l-410 -14 l-37 133 q-6 -6 -18 -16.5 q-12 -10.5 -48.5 -37 q-36.5 -26.5 -73.5 -46.5 q-37 -20 -90 -36.5 q-53 -16.5 -102 -16.5 q-150 0 -234.5 84 q-84.5 84 -84.5 237 ZM332 1483 q0 123 83 197.5 q83 74.5 191 74.5 q108 0 190.5 -70 q82.5 -70 82.5 -190 q0 -121 -83 -196.5 q-83 -75.5 -190 -75.5 q-109 0 -191.5 69.5 q-82.5 69.5 -82.5 190.5 ZM379 332 q0 -59 31.5 -91 q31.5 -32 89.5 -32 q31 0 64.5 12.5 q33.5 12.5 60 29.5 q26.5 17 48.5 34.5 q22 17.5 34 30.5 l12 12 l0 137 l-117 0 q-119 0 -171 -31.5 q-52 -31.5 -52 -101.5 ZM506 1489 q0 -58 26 -87.5 q26 -29.5 74 -29.5 q43 0 71 31.5 q28 31.5 28 87.5 q0 57 -26 87 q-26 30 -73 30 q-44 0 -72 -31 q-28 -31 -28 -88 Z" /><glyph glyph-name="ae" unicode="æ" d="M82 301 q0 176 125 257 q125 81 366 81 l144 0 l0 113 q0 147 -158 147 q-45 0 -90 -7.5 q-45 -7.5 -67 -15.5 l-23 -8 l-31 -127 l-184 0 l-14 303 q0 3 68 22 q68 19 177.5 38.5 q109.5 19.5 194.5 19.5 q230 0 319 -118 q135 120 340 120 q221 0 342 -126.5 q121 -126.5 121 -352.5 q0 -35 -3 -74.5 q-3 -39.5 -6 -65 q-3 -25.5 -3 -26.5 l-678 0 q9 -121 75.5 -188.5 q66.5 -67.5 172.5 -67.5 q76 0 161 24.5 q85 24.5 132 48.5 l47 24 l90 -170 q-9 -7 -25 -18.5 q-16 -11.5 -67.5 -41 q-51.5 -29.5 -104 -52.5 q-52.5 -23 -128 -41.5 q-75.5 -18.5 -146.5 -18.5 q-300 0 -426 204 q-174 -204 -404 -204 q-147 0 -232 86 q-85 86 -85 235 ZM375 332 q0 -58 32.5 -90.5 q32.5 -32.5 90.5 -32.5 q30 0 63.5 12.5 q33.5 12.5 60 30.5 q26.5 18 48.5 36.5 q22 18.5 34 31.5 l13 12 l0 133 l-117 0 q-119 0 -172 -31.5 q-53 -31.5 -53 -101.5 ZM1022 666 l375 0 q0 100 -41 157.5 q-41 57.5 -127 57.5 q-86 0 -140.5 -57.5 q-54.5 -57.5 -66.5 -157.5 Z" /><glyph glyph-name="ccedilla" unicode="ç" d="M72 537 q0 275 148 432 q148 157 415 157 q78 0 167.5 -18 q89.5 -18 139.5 -36 l51 -17 l-10 -334 l-184 0 l-29 143 q-59 17 -141 17 q-113 0 -176.5 -76 q-63.5 -76 -63.5 -227 q0 -169 65 -261 q65 -92 191 -92 q41 0 78 6.5 q37 6.5 72.5 22 q35.5 15.5 54 25 q18.5 9.5 53 31 q34.5 21.5 39.5 24.5 l102 -180 q-161 -140 -350 -166 l0 -70 q80 -15 128 -63.5 q48 -48.5 48 -120.5 q0 -88 -74 -145.5 q-74 -57.5 -182 -57.5 q-62 0 -125.5 16.5 q-63.5 16.5 -96.5 32.5 l-32 17 l64 112 q86 -43 168 -43 q44 0 70 21 q26 21 26 55 q0 43 -46.5 66.5 q-46.5 23.5 -123.5 23.5 l0 154 q-213 23 -329.5 167.5 q-116.5 144.5 -116.5 383.5 Z" /><glyph glyph-name="egrave" unicode="è" d="M72 532 q0 271 145.5 432.5 q145.5 161.5 400.5 161.5 q225 0 345 -128.5 q120 -128.5 120 -352.5 q0 -35 -3 -73 q-3 -38 -6 -62 q-3 -24 -3 -25 l-680 0 q9 -122 75.5 -191 q66.5 -69 172.5 -69 q76 0 162 24.5 q86 24.5 134 48.5 l48 24 l88 -170 q-8 -7 -23.5 -18.5 q-15.5 -11.5 -65 -41 q-49.5 -29.5 -101 -52.5 q-51.5 -23 -128 -41.5 q-76.5 -18.5 -149.5 -18.5 q-261 0 -396.5 144 q-135.5 144 -135.5 408 ZM258 1526 l139 213 l457 -365 l-100 -149 l-496 301 ZM395 676 l371 0 q0 93 -41.5 149 q-41.5 56 -126.5 56 q-84 0 -137.5 -56 q-53.5 -56 -65.5 -149 Z" /><glyph glyph-name="eacute" unicode="é" d="M72 532 q0 271 145.5 432.5 q145.5 161.5 400.5 161.5 q225 0 345 -128.5 q120 -128.5 120 -352.5 q0 -35 -3 -73 q-3 -38 -6 -62 q-3 -24 -3 -25 l-680 0 q9 -122 75.5 -191 q66.5 -69 172.5 -69 q76 0 162 24.5 q86 24.5 134 48.5 l48 24 l88 -170 q-8 -7 -23.5 -18.5 q-15.5 -11.5 -65 -41 q-49.5 -29.5 -101 -52.5 q-51.5 -23 -128 -41.5 q-76.5 -18.5 -149.5 -18.5 q-261 0 -396.5 144 q-135.5 144 -135.5 408 ZM344 1374 l100 -149 l496 301 l-139 213 l-457 -365 ZM395 676 l371 0 q0 93 -41.5 149 q-41.5 56 -126.5 56 q-84 0 -137.5 -56 q-53.5 -56 -65.5 -149 Z" /><glyph glyph-name="ecircumflex" unicode="ê" d="M72 532 q0 271 145.5 432.5 q145.5 161.5 400.5 161.5 q225 0 345 -128.5 q120 -128.5 120 -352.5 q0 -35 -3 -73 q-3 -38 -6 -62 q-3 -24 -3 -25 l-680 0 q9 -122 75.5 -191 q66.5 -69 172.5 -69 q76 0 162 24.5 q86 24.5 134 48.5 l48 24 l88 -170 q-8 -7 -23.5 -18.5 q-15.5 -11.5 -65 -41 q-49.5 -29.5 -101 -52.5 q-51.5 -23 -128 -41.5 q-76.5 -18.5 -149.5 -18.5 q-261 0 -396.5 144 q-135.5 144 -135.5 408 ZM147 1360 l336 313 l183 17 l358 -330 l-98 -135 l-336 245 l-344 -245 l-99 135 ZM395 676 l371 0 q0 93 -41.5 149 q-41.5 56 -126.5 56 q-84 0 -137.5 -56 q-53.5 -56 -65.5 -149 Z" /><glyph glyph-name="edieresis" unicode="ë" d="M72 532 q0 271 145.5 432.5 q145.5 161.5 400.5 161.5 q225 0 345 -128.5 q120 -128.5 120 -352.5 q0 -35 -3 -73 q-3 -38 -6 -62 q-3 -24 -3 -25 l-680 0 q9 -122 75.5 -191 q66.5 -69 172.5 -69 q76 0 162 24.5 q86 24.5 134 48.5 l48 24 l88 -170 q-8 -7 -23.5 -18.5 q-15.5 -11.5 -65 -41 q-49.5 -29.5 -101 -52.5 q-51.5 -23 -128 -41.5 q-76.5 -18.5 -149.5 -18.5 q-261 0 -396.5 144 q-135.5 144 -135.5 408 ZM213 1430 q0 72 44.5 115.5 q44.5 43.5 107.5 43.5 q71 0 109 -41.5 q38 -41.5 38 -117.5 q0 -73 -44.5 -116.5 q-44.5 -43.5 -107.5 -43.5 q-72 0 -109.5 41.5 q-37.5 41.5 -37.5 118.5 ZM395 676 l371 0 q0 93 -41.5 149 q-41.5 56 -126.5 56 q-84 0 -137.5 -56 q-53.5 -56 -65.5 -149 ZM659 1430 q0 72 45 115.5 q45 43.5 107 43.5 q72 0 109.5 -41.5 q37.5 -41.5 37.5 -117.5 q0 -74 -44 -117 q-44 -43 -107 -43 q-72 0 -110 41.5 q-38 41.5 -38 118.5 Z" /><glyph glyph-name="igrave" unicode="ì" d="M51 1526 l139 213 l457 -365 l-100 -149 l-496 301 ZM72 0 l0 164 l164 51 l0 670 l-164 41 l0 164 l465 16 l0 -891 l143 -51 l0 -164 l-608 0 Z" /><glyph glyph-name="iacute" unicode="í" d="M72 0 l0 164 l164 51 l0 670 l-164 41 l0 164 l465 16 l0 -891 l143 -51 l0 -164 l-608 0 ZM111 1374 l100 -149 l496 301 l-140 213 l-456 -365 Z" /><glyph glyph-name="icircumflex" unicode="î" d="M-57 1360 l319 313 l182 17 l340 -330 l-100 -135 l-315 245 l-326 -245 l-100 135 ZM72 0 l0 164 l164 51 l0 670 l-164 41 l0 164 l465 16 l0 -891 l143 -51 l0 -164 l-608 0 Z" /><glyph glyph-name="idieresis" unicode="ï" d="M-2 1430 q0 72 44.5 115.5 q44.5 43.5 107.5 43.5 q71 0 109 -41.5 q38 -41.5 38 -117.5 q0 -73 -44.5 -116.5 q-44.5 -43.5 -107.5 -43.5 q-72 0 -109.5 41.5 q-37.5 41.5 -37.5 118.5 ZM72 0 l0 164 l164 51 l0 670 l-164 41 l0 164 l465 16 l0 -891 l143 -51 l0 -164 l-608 0 ZM424 1430 q0 72 44.5 115.5 q44.5 43.5 106.5 43.5 q73 0 110.5 -41.5 q37.5 -41.5 37.5 -117.5 q0 -73 -44.5 -116.5 q-44.5 -43.5 -107.5 -43.5 q-72 0 -109.5 41.5 q-37.5 41.5 -37.5 118.5 Z" /><glyph glyph-name="eth" unicode="ð" d="M72 492 q0 251 144.5 396.5 q144.5 145.5 377.5 145.5 q83 0 160 -45 q-56 148 -160 246 l-240 -137 l-118 162 l180 102 q-76 40 -174 76 l94 178 q160 -39 301 -125 l215 125 l119 -162 l-166 -94 q144 -143 220.5 -346 q76.5 -203 76.5 -457 q0 -265 -143.5 -423.5 q-143.5 -158.5 -385.5 -158.5 q-234 0 -367.5 131.5 q-133.5 131.5 -133.5 385.5 ZM389 502 q0 -291 195 -291 q108 0 154 76 q46 76 46 225 q0 144 -41.5 215.5 q-41.5 71.5 -148.5 71.5 q-107 0 -156 -75 q-49 -75 -49 -222 Z" /><glyph glyph-name="ntilde" unicode="ñ" d="M72 0 l0 164 l164 51 l0 666 l-164 51 l0 164 l434 10 l14 -141 q8 6 22 17 q14 11 57.5 38 q43.5 27 86.5 47.5 q43 20.5 101.5 37.5 q58.5 17 109.5 17 q148 0 229.5 -97.5 q81.5 -97.5 81.5 -266.5 l0 -543 l144 -51 l0 -164 l-564 0 l0 164 l113 51 l0 487 q0 72 -38 118 q-38 46 -101 46 q-36 0 -71.5 -12 q-35.5 -12 -61 -29 q-25.5 -17 -46 -34 q-20.5 -17 -30.5 -29 l-10 -12 l0 -535 l112 -51 l0 -164 l-583 0 ZM272 1384 q4 9 10.5 24.5 q6.5 15.5 30.5 54.5 q24 39 51.5 68.5 q27.5 29.5 71.5 54 q44 24.5 92 24.5 q60 0 119.5 -23.5 q59.5 -23.5 114.5 -47 q55 -23.5 106 -23.5 q22 0 45 9 q23 9 39.5 21.5 q16.5 12.5 30 25 q13.5 12.5 20.5 21.5 l7 9 l108 -95 q-4 -9 -10.5 -24 q-6.5 -15 -31 -53.5 q-24.5 -38.5 -52 -68 q-27.5 -29.5 -71.5 -53.5 q-44 -24 -91 -24 q-60 0 -120.5 22.5 q-60.5 22.5 -116.5 45 q-56 22.5 -107 22.5 q-38 0 -75.5 -21 q-37.5 -21 -55.5 -42 l-18 -21 l-97 94 Z" /><glyph glyph-name="ograve" unicode="ò" d="M72 543 q0 274 150 428.5 q150 154.5 403 154.5 q248 0 382 -144 q134 -144 134 -409 q0 -275 -148 -434 q-148 -159 -399 -159 q-522 0 -522 563 ZM289 1526 l139 213 l457 -365 l-101 -149 l-495 301 ZM389 553 q0 -169 51.5 -248.5 q51.5 -79.5 163.5 -79.5 q113 0 166 78.5 q53 78.5 53 259.5 q0 160 -50.5 239 q-50.5 79 -158.5 79 q-116 0 -170.5 -74.5 q-54.5 -74.5 -54.5 -253.5 Z" /><glyph glyph-name="oacute" unicode="ó" d="M72 543 q0 274 150 428.5 q150 154.5 403 154.5 q248 0 382 -144 q134 -144 134 -409 q0 -275 -148 -434 q-148 -159 -399 -159 q-522 0 -522 563 ZM346 1374 l100 -149 l496 301 l-139 213 l-457 -365 ZM389 553 q0 -169 51.5 -248.5 q51.5 -79.5 163.5 -79.5 q113 0 166 78.5 q53 78.5 53 259.5 q0 160 -50.5 239 q-50.5 79 -158.5 79 q-116 0 -170.5 -74.5 q-54.5 -74.5 -54.5 -253.5 Z" /><glyph glyph-name="ocircumflex" unicode="ô" d="M72 543 q0 274 150 428.5 q150 154.5 403 154.5 q248 0 382 -144 q134 -144 134 -409 q0 -275 -148 -434 q-148 -159 -399 -159 q-522 0 -522 563 ZM164 1360 l336 313 l182 17 l358 -330 l-98 -135 l-336 245 l-344 -245 l-98 135 ZM389 553 q0 -169 51.5 -248.5 q51.5 -79.5 163.5 -79.5 q113 0 166 78.5 q53 78.5 53 259.5 q0 160 -50.5 239 q-50.5 79 -158.5 79 q-116 0 -170.5 -74.5 q-54.5 -74.5 -54.5 -253.5 Z" /><glyph glyph-name="otilde" unicode="õ" d="M72 543 q0 274 150 428.5 q150 154.5 403 154.5 q248 0 382 -144 q134 -144 134 -409 q0 -275 -148 -434 q-148 -159 -399 -159 q-522 0 -522 563 ZM182 1384 q4 9 10.5 24.5 q6.5 15.5 30.5 54.5 q24 39 51.5 68.5 q27.5 29.5 71.5 54 q44 24.5 92 24.5 q60 0 119.5 -23.5 q59.5 -23.5 114.5 -47 q55 -23.5 106 -23.5 q22 0 45 9 q23 9 39.5 21.5 q16.5 12.5 30 25 q13.5 12.5 20.5 21.5 l7 9 l108 -95 q-4 -9 -10.5 -24 q-6.5 -15 -31 -53.5 q-24.5 -38.5 -52 -68 q-27.5 -29.5 -71.5 -53.5 q-44 -24 -91 -24 q-60 0 -120.5 22.5 q-60.5 22.5 -116.5 45 q-56 22.5 -107 22.5 q-38 0 -75.5 -21 q-37.5 -21 -55.5 -42 l-18 -21 l-97 94 ZM389 553 q0 -169 51.5 -248.5 q51.5 -79.5 163.5 -79.5 q113 0 166 78.5 q53 78.5 53 259.5 q0 160 -50.5 239 q-50.5 79 -158.5 79 q-116 0 -170.5 -74.5 q-54.5 -74.5 -54.5 -253.5 Z" /><glyph glyph-name="odieresis" unicode="ö" d="M72 543 q0 274 150 428.5 q150 154.5 403 154.5 q248 0 382 -144 q134 -144 134 -409 q0 -275 -148 -434 q-148 -159 -399 -159 q-522 0 -522 563 ZM233 1430 q0 72 44.5 115.5 q44.5 43.5 107.5 43.5 q71 0 109 -41.5 q38 -41.5 38 -117.5 q0 -74 -44 -117 q-44 -43 -107 -43 q-72 0 -110 41.5 q-38 41.5 -38 118.5 ZM389 553 q0 -169 51.5 -248.5 q51.5 -79.5 163.5 -79.5 q113 0 166 78.5 q53 78.5 53 259.5 q0 160 -50.5 239 q-50.5 79 -158.5 79 q-116 0 -170.5 -74.5 q-54.5 -74.5 -54.5 -253.5 ZM680 1430 q0 72 44.5 115.5 q44.5 43.5 106.5 43.5 q73 0 110.5 -41.5 q37.5 -41.5 37.5 -117.5 q0 -73 -44.5 -116.5 q-44.5 -43.5 -107.5 -43.5 q-72 0 -109.5 41.5 q-37.5 41.5 -37.5 118.5 Z" /><glyph glyph-name="divide" unicode="÷" d="M106 426 l0 236 l1076 0 l0 -236 l-1076 0 ZM467 104 q0 89 51 139 q51 50 131 50 q174 0 174 -189 q0 -90 -50.5 -140 q-50.5 -50 -129.5 -50 q-87 0 -131.5 48.5 q-44.5 48.5 -44.5 141.5 ZM467 985 q0 89 51 139 q51 50 131 50 q174 0 174 -189 q0 -90 -50.5 -140 q-50.5 -50 -129.5 -50 q-87 0 -131.5 48.5 q-44.5 48.5 -44.5 141.5 Z" /><glyph glyph-name="oslash" unicode="ø" d="M82 543 q0 274 150 428.5 q150 154.5 403 154.5 q105 0 203 -32 l133 223 l153 -86 l-133 -223 q160 -145 160 -435 q0 -275 -148 -434 q-148 -159 -399 -159 q-104 0 -211 28 l-149 -248 l-154 86 l148 248 q-156 138 -156 449 ZM399 551 q0 -83 23 -150 l283 473 q-39 17 -80 17 q-119 0 -172.5 -77.5 q-53.5 -77.5 -53.5 -262.5 ZM526 231 q33 -16 88 -16 q115 0 167.5 81.5 q52.5 81.5 52.5 266.5 q0 88 -23 144 l-285 -476 Z" /><glyph glyph-name="ugrave" unicode="ù" d="M31 932 l0 164 l471 10 l0 -707 q0 -86 28.5 -124.5 q28.5 -38.5 96.5 -38.5 q37 0 74.5 11.5 q37.5 11.5 64.5 27.5 q27 16 48.5 32 q21.5 16 32.5 27 l11 12 l0 535 l-164 51 l0 164 l471 10 l0 -891 l164 -41 l0 -160 l-432 -14 l-20 143 q-7 -7 -19 -18 q-12 -11 -51 -39 q-39 -28 -79 -49.5 q-40 -21.5 -97.5 -39 q-57.5 -17.5 -112.5 -17.5 q-153 0 -238 97 q-85 97 -85 269 l0 535 l-164 51 ZM311 1526 l140 213 l456 -365 l-100 -149 l-496 301 Z" /><glyph glyph-name="uacute" unicode="ú" d="M31 932 l0 164 l471 10 l0 -707 q0 -86 28.5 -124.5 q28.5 -38.5 96.5 -38.5 q37 0 74.5 11.5 q37.5 11.5 64.5 27.5 q27 16 48.5 32 q21.5 16 32.5 27 l11 12 l0 535 l-164 51 l0 164 l471 10 l0 -891 l164 -41 l0 -160 l-432 -14 l-20 143 q-7 -7 -19 -18 q-12 -11 -51 -39 q-39 -28 -79 -49.5 q-40 -21.5 -97.5 -39 q-57.5 -17.5 -112.5 -17.5 q-153 0 -238 97 q-85 97 -85 269 l0 535 l-164 51 ZM387 1374 l100 -149 l496 301 l-139 213 l-457 -365 Z" /><glyph glyph-name="ucircumflex" unicode="û" d="M31 932 l0 164 l471 10 l0 -707 q0 -86 28.5 -124.5 q28.5 -38.5 96.5 -38.5 q37 0 74.5 11.5 q37.5 11.5 64.5 27.5 q27 16 48.5 32 q21.5 16 32.5 27 l11 12 l0 535 l-164 51 l0 164 l471 10 l0 -891 l164 -41 l0 -160 l-432 -14 l-20 143 q-7 -7 -19 -18 q-12 -11 -51 -39 q-39 -28 -79 -49.5 q-40 -21.5 -97.5 -39 q-57.5 -17.5 -112.5 -17.5 q-153 0 -238 97 q-85 97 -85 269 l0 535 l-164 51 ZM215 1360 l336 313 l182 17 l359 -330 l-99 -135 l-336 245 l-344 -245 l-98 135 Z" /><glyph glyph-name="udieresis" unicode="ü" d="M31 932 l0 164 l471 10 l0 -707 q0 -86 28.5 -124.5 q28.5 -38.5 96.5 -38.5 q37 0 74.5 11.5 q37.5 11.5 64.5 27.5 q27 16 48.5 32 q21.5 16 32.5 27 l11 12 l0 535 l-164 51 l0 164 l471 10 l0 -891 l164 -41 l0 -160 l-432 -14 l-20 143 q-7 -7 -19 -18 q-12 -11 -51 -39 q-39 -28 -79 -49.5 q-40 -21.5 -97.5 -39 q-57.5 -17.5 -112.5 -17.5 q-153 0 -238 97 q-85 97 -85 269 l0 535 l-164 51 ZM270 1430 q0 72 44.5 115.5 q44.5 43.5 107.5 43.5 q71 0 109 -41.5 q38 -41.5 38 -117.5 q0 -74 -44 -117 q-44 -43 -107 -43 q-72 0 -110 41.5 q-38 41.5 -38 118.5 ZM717 1430 q0 72 44.5 115.5 q44.5 43.5 106.5 43.5 q73 0 110.5 -41.5 q37.5 -41.5 37.5 -117.5 q0 -73 -44.5 -116.5 q-44.5 -43.5 -107.5 -43.5 q-72 0 -109.5 41.5 q-37.5 41.5 -37.5 118.5 Z" /><glyph glyph-name="yacute" unicode="ý" d="M10 932 l0 164 l547 10 l0 -174 l-115 -21 l183 -573 l174 567 l-119 27 l0 164 l551 10 l0 -174 l-127 -27 l-301 -839 q-24 -66 -44.5 -116.5 q-20.5 -50.5 -51.5 -111.5 q-31 -61 -62 -105.5 q-31 -44.5 -73.5 -89 q-42.5 -44.5 -89.5 -72.5 q-47 -28 -107.5 -45.5 q-60.5 -17.5 -128.5 -17.5 q-31 0 -81 4 q-50 4 -84 8 l-34 5 l29 219 l133 0 q47 0 88.5 20 q41.5 20 68 45 q26.5 25 53.5 66.5 q27 41.5 37.5 63.5 q10.5 22 26.5 59 l-364 901 l-109 33 ZM471 1374 l100 -149 l496 301 l-139 213 l-457 -365 Z" /><glyph glyph-name="thorn" unicode="þ" d="M41 1407 l0 164 l471 16 l0 -579 q5 5 13.5 13 q8.5 8 37.5 28 q29 20 60.5 35.5 q31.5 15.5 80.5 28.5 q49 13 99 13 q200 0 308 -145.5 q108 -145.5 108 -396.5 q0 -289 -147 -446.5 q-147 -157.5 -437 -157.5 q-24 0 -54.5 4 q-30.5 4 -49.5 8 l-19 4 l0 -266 l215 -47 l0 -164 l-682 0 l0 164 l160 47 l0 1636 l-164 41 ZM512 242 q52 -27 156 -27 q233 0 233 348 q0 318 -201 318 q-34 0 -66.5 -10 q-32.5 -10 -53.5 -24.5 q-21 -14.5 -37 -28.5 q-16 -14 -23 -24 l-8 -10 l0 -542 Z" /><glyph glyph-name="ydieresis" unicode="ÿ" d="M10 932 l0 164 l547 10 l0 -174 l-115 -21 l183 -573 l174 567 l-119 27 l0 164 l551 10 l0 -174 l-127 -27 l-301 -839 q-24 -66 -44.5 -116.5 q-20.5 -50.5 -51.5 -111.5 q-31 -61 -62 -105.5 q-31 -44.5 -73.5 -89 q-42.5 -44.5 -89.5 -72.5 q-47 -28 -107.5 -45.5 q-60.5 -17.5 -128.5 -17.5 q-31 0 -81 4 q-50 4 -84 8 l-34 5 l29 219 l133 0 q47 0 88.5 20 q41.5 20 68 45 q26.5 25 53.5 66.5 q27 41.5 37.5 63.5 q10.5 22 26.5 59 l-364 901 l-109 33 ZM233 1430 q0 72 44.5 115.5 q44.5 43.5 107.5 43.5 q71 0 109 -41.5 q38 -41.5 38 -117.5 q0 -74 -44 -117 q-44 -43 -107 -43 q-72 0 -110 41.5 q-38 41.5 -38 118.5 ZM680 1430 q0 72 44.5 115.5 q44.5 43.5 106.5 43.5 q73 0 110.5 -41.5 q37.5 -41.5 37.5 -117.5 q0 -73 -44.5 -116.5 q-44.5 -43.5 -107.5 -43.5 q-72 0 -109.5 41.5 q-37.5 41.5 -37.5 118.5 Z" /><glyph glyph-name="OE" unicode="&#x152;" d="M113 711 q0 352 181.5 552.5 q181.5 200.5 493.5 200.5 q61 0 185.5 -10 q124.5 -10 177.5 -10 l686 0 l0 -400 l-190 0 l-52 154 l-331 0 l0 -338 l413 0 l0 -225 l-413 0 l0 -389 l362 0 l47 164 l189 0 l0 -410 l-738 0 q-47 0 -178 -10 q-131 -10 -198 -10 q-309 0 -472 186 q-163 186 -163 545 ZM457 721 q0 -252 74.5 -368.5 q74.5 -116.5 232.5 -116.5 q42 0 108 5 q66 5 74 5 l0 952 q-56 8 -145 8 q-87 0 -148 -22.5 q-61 -22.5 -106.5 -76.5 q-45.5 -54 -67.5 -149.5 q-22 -95.5 -22 -236.5 Z" /><glyph glyph-name="oe" unicode="&#x153;" d="M72 543 q0 273 149.5 428 q149.5 155 399.5 155 q244 0 380 -176 q136 176 377 176 q221 0 341 -129 q120 -129 120 -352 q0 -35 -3 -73 q-3 -38 -6 -62 q-3 -24 -3 -25 l-680 0 q9 -122 75 -191 q66 -69 171 -69 q39 0 79 5.5 q40 5.5 66 11.5 q26 6 63.5 20 q37.5 14 50 19.5 q12.5 5.5 48.5 22.5 q36 17 37 18 l88 -170 q-8 -7 -23.5 -18.5 q-15.5 -11.5 -64.5 -41 q-49 -29.5 -100.5 -52.5 q-51.5 -23 -126 -41.5 q-74.5 -18.5 -146.5 -18.5 q-256 0 -385 178 q-147 -178 -389 -178 q-252 0 -385 138.5 q-133 138.5 -133 424.5 ZM389 553 q0 -169 52.5 -248.5 q52.5 -79.5 162.5 -79.5 q115 0 170 78.5 q55 78.5 55 259.5 q0 159 -52 238.5 q-52 79.5 -163 79.5 q-115 0 -170 -74.5 q-55 -74.5 -55 -253.5 ZM1151 676 l369 0 q0 93 -41.5 149 q-41.5 56 -126.5 56 q-83 0 -136 -56 q-53 -56 -65 -149 Z" /><glyph glyph-name="Ydieresis" unicode="&#x178;" d="M14 1260 l0 174 l580 10 l0 -184 l-105 -43 l205 -441 l217 438 l-112 46 l0 174 l553 10 l0 -184 l-142 -56 l-370 -702 l0 -266 l153 -62 l0 -174 l-624 0 l0 174 l153 62 l0 264 l-375 704 l-133 56 ZM303 1737 q0 72 44.5 115.5 q44.5 43.5 107.5 43.5 q71 0 109 -41.5 q38 -41.5 38 -117.5 q0 -74 -44 -117 q-44 -43 -107 -43 q-72 0 -110 41.5 q-38 41.5 -38 118.5 ZM750 1737 q0 72 44.5 115.5 q44.5 43.5 106.5 43.5 q73 0 110.5 -41.5 q37.5 -41.5 37.5 -117.5 q0 -73 -44.5 -116.5 q-44.5 -43.5 -107.5 -43.5 q-72 0 -109.5 41.5 q-37.5 41.5 -37.5 118.5 Z" /><glyph glyph-name="circumflex" unicode="&#x2c6;" d="M143 1436 l314 268 l182 16 l332 -284 l-99 -136 l-309 201 l-321 -201 l-99 136 Z" /><glyph glyph-name="tilde" unicode="&#x2dc;" d="M164 1384 q4 9 10.5 24.5 q6.5 15.5 30.5 54.5 q24 39 51.5 68.5 q27.5 29.5 71.5 54 q44 24.5 92 24.5 q60 0 119.5 -23.5 q59.5 -23.5 114.5 -47 q55 -23.5 106 -23.5 q36 0 71 21.5 q35 21.5 53 42.5 l17 22 l109 -95 q-4 -9 -10.5 -24 q-6.5 -15 -31 -53.5 q-24.5 -38.5 -52 -68 q-27.5 -29.5 -71.5 -53.5 q-44 -24 -91 -24 q-60 0 -120.5 22.5 q-60.5 22.5 -116.5 45 q-56 22.5 -107 22.5 q-38 0 -75.5 -21 q-37.5 -21 -56.5 -42 l-18 -21 l-96 94 Z" /><glyph glyph-name="uni2000" unicode="&#x2000;" d="" /><glyph glyph-name="uni2001" unicode="&#x2001;" d="" /><glyph glyph-name="uni2002" unicode="&#x2002;" d="" /><glyph glyph-name="uni2003" unicode="&#x2003;" d="" /><glyph glyph-name="uni2004" unicode="&#x2004;" d="" /><glyph glyph-name="uni2005" unicode="&#x2005;" d="" /><glyph glyph-name="uni2006" unicode="&#x2006;" d="" /><glyph glyph-name="uni2007" unicode="&#x2007;" d="" /><glyph glyph-name="uni2008" unicode="&#x2008;" d="" /><glyph glyph-name="uni2009" unicode="&#x2009;" d="" /><glyph glyph-name="uni200A" unicode="&#x200a;" d="" /><glyph glyph-name="uni2010" unicode="&#x2010;" d="M113 430 l0 256 l583 0 l0 -256 l-583 0 Z" /><glyph glyph-name="uni2011" unicode="&#x2011;" d="M113 430 l0 256 l583 0 l0 -256 l-583 0 Z" /><glyph glyph-name="figuredash" unicode="&#x2012;" d="M113 430 l0 256 l583 0 l0 -256 l-583 0 Z" /><glyph glyph-name="endash" unicode="&#x2013;" d="M0 547 l0 241 l1024 0 l0 -241 l-1024 0 Z" /><glyph glyph-name="emdash" unicode="&#x2014;" d="M0 547 l0 241 l1987 0 l0 -241 l-1987 0 Z" /><glyph glyph-name="quoteleft" unicode="&#x2018;" d="M123 1079 q0 228 283 533 l129 -105 q-14 -18 -34.5 -47.5 q-20.5 -29.5 -54.5 -96 q-34 -66.5 -34 -103.5 q0 -22 15 -49 q15 -27 29.5 -62.5 q14.5 -35.5 14.5 -77.5 q0 -82 -50 -132 q-50 -50 -126 -50 q-79 0 -125.5 49 q-46.5 49 -46.5 141 Z" /><glyph glyph-name="quoteright" unicode="&#x2019;" d="M102 995 q14 18 34.5 47.5 q20.5 29.5 54.5 96 q34 66.5 34 102.5 q0 24 -29.5 80 q-29.5 56 -29.5 109 q0 82 50 132 q50 50 128 50 q78 0 124 -49 q46 -49 46 -140 q0 -228 -281 -534 l-131 106 Z" /><glyph glyph-name="quotesinglbase" unicode="&#x201a;" d="M96 -324 q14 18 34.5 47.5 q20.5 29.5 54.5 96 q34 66.5 34 102.5 q0 24 -29.5 80 q-29.5 56 -29.5 109 q0 82 50 132 q50 50 128 50 q78 0 124 -49 q46 -49 46 -140 q0 -228 -281 -534 l-131 106 Z" /><glyph glyph-name="quotedblleft" unicode="&#x201c;" d="M123 1079 q0 228 283 533 l129 -105 q-14 -18 -34.5 -47.5 q-20.5 -29.5 -54.5 -96 q-34 -66.5 -34 -103.5 q0 -22 15 -49 q15 -27 29.5 -62.5 q14.5 -35.5 14.5 -77.5 q0 -82 -50 -132 q-50 -50 -126 -50 q-79 0 -125.5 49 q-46.5 49 -46.5 141 ZM600 1079 q0 227 281 533 l131 -105 q-14 -18 -34.5 -47.5 q-20.5 -29.5 -54.5 -96 q-34 -66.5 -34 -103.5 q0 -22 14.5 -49 q14.5 -27 29.5 -62.5 q15 -35.5 15 -77.5 q0 -82 -50 -132 q-50 -50 -128 -50 q-78 0 -124 49 q-46 49 -46 141 Z" /><glyph glyph-name="quotedblright" unicode="&#x201d;" d="M102 995 q14 18 34.5 47.5 q20.5 29.5 54.5 96 q34 66.5 34 102.5 q0 24 -29.5 80 q-29.5 56 -29.5 109 q0 82 50 132 q50 50 128 50 q78 0 124 -49 q46 -49 46 -140 q0 -228 -281 -534 l-131 106 ZM580 995 q14 18 34 47.5 q20 29.5 54 96 q34 66.5 34 102.5 q0 24 -29.5 80 q-29.5 56 -29.5 109 q0 82 50 132 q50 50 126 50 q78 0 125 -49.5 q47 -49.5 47 -139.5 q0 -230 -282 -534 l-129 106 Z" /><glyph glyph-name="quotedblbase" unicode="&#x201e;" d="M96 -324 q14 18 34.5 47.5 q20.5 29.5 54.5 96 q34 66.5 34 102.5 q0 24 -29.5 80 q-29.5 56 -29.5 109 q0 82 50 132 q50 50 128 50 q78 0 124 -49 q46 -49 46 -140 q0 -228 -281 -534 l-131 106 ZM573 -324 q14 18 34.5 47.5 q20.5 29.5 54.5 96 q34 66.5 34 102.5 q0 24 -29.5 80 q-29.5 56 -29.5 109 q0 82 50 132 q50 50 126 50 q78 0 125 -49.5 q47 -49.5 47 -139.5 q0 -229 -283 -534 l-129 106 Z" /><glyph glyph-name="bullet" unicode="&#x2022;" d="M277.5 371.5 q-113.5 113.5 -113.5 273.5 q0 160 113.5 273.5 q113.5 113.5 273.5 113.5 q160 0 273.5 -113.5 q113.5 -113.5 113.5 -273.5 q0 -160 -113.5 -273.5 q-113.5 -113.5 -273.5 -113.5 q-160 0 -273.5 113.5 Z" /><glyph glyph-name="ellipsis" unicode="&#x2026;" d="M106 160 q0 84 53 134 q53 50 126 50 q84 0 127 -47.5 q43 -47.5 43 -136.5 q0 -86 -51.5 -136.5 q-51.5 -50.5 -124.5 -50.5 q-84 0 -128.5 48.5 q-44.5 48.5 -44.5 138.5 ZM625 160 q0 84 51.5 134 q51.5 50 124.5 50 q84 0 128 -48 q44 -48 44 -136 q0 -86 -51.5 -136.5 q-51.5 -50.5 -124.5 -50.5 q-84 0 -128 48.5 q-44 48.5 -44 138.5 ZM1141 160 q0 84 52.5 134 q52.5 50 125.5 50 q84 0 127 -47.5 q43 -47.5 43 -136.5 q0 -86 -51.5 -136.5 q-51.5 -50.5 -124.5 -50.5 q-84 0 -128 48.5 q-44 48.5 -44 138.5 Z" /><glyph glyph-name="uni202F" unicode="&#x202f;" d="" /><glyph glyph-name="guilsinglleft" unicode="&#x2039;" d="M102 463 l0 158 l320 362 l170 -113 l-232 -327 l232 -328 l-170 -115 l-320 363 Z" /><glyph glyph-name="guilsinglright" unicode="&#x203a;" d="M113 215 l231 328 l-231 327 l170 113 l319 -362 l0 -158 l-319 -363 l-170 115 Z" /><glyph glyph-name="uni205F" unicode="&#x205f;" d="" /><glyph glyph-name="Euro" unicode="&#x20ac;" d="M55 453 l0 184 l881 0 l0 -184 l-393 0 q61 -215 260 -215 q49 0 100.5 12 q51.5 12 90.5 29 q39 17 70.5 34 q31.5 17 48.5 29 l17 12 l113 -180 q-8 -8 -22.5 -21.5 q-14.5 -13.5 -63.5 -48 q-49 -34.5 -102 -60.5 q-53 -26 -134 -47.5 q-81 -21.5 -163 -21.5 q-83 0 -154.5 17.5 q-71.5 17.5 -123.5 45.5 q-52 28 -95 68.5 q-43 40.5 -71.5 82 q-28.5 41.5 -50.5 90.5 q-22 49 -34 89.5 q-12 40.5 -20 84.5 l-154 0 ZM55 766 l0 184 l148 0 q15 81 42 152.5 q27 71.5 74.5 140 q47.5 68.5 110.5 117.5 q63 49 155 78.5 q92 29.5 203 29.5 q96 0 199.5 -21.5 q103.5 -21.5 158.5 -42.5 l56 -22 l-10 -338 l-191 0 l-32 144 q-78 31 -191 31 q-46 0 -84 -15 q-38 -15 -63 -38.5 q-25 -23.5 -44.5 -52.5 q-19.5 -29 -30.5 -57.5 q-11 -28.5 -17.5 -52 q-6.5 -23.5 -8.5 -38.5 l-2 -15 l408 0 l0 -184 l-881 0 Z" /><glyph glyph-name="trademark" unicode="&#x2122;" d="M51 1165 l0 279 l717 0 l0 -279 l-113 0 l-34 144 l-115 0 l0 -525 l102 -30 l0 -99 l-405 0 l0 99 l102 30 l0 525 l-115 0 l-26 -144 l-113 0 ZM834 655 l0 99 l102 30 l0 516 l-102 29 l0 109 l311 6 l182 -361 l184 355 l299 6 l0 -111 l-100 -33 l0 -516 l100 -30 l0 -99 l-364 0 l0 99 l92 30 l0 385 l-162 -297 l-121 -14 l-161 299 l0 -373 l92 -30 l0 -99 l-352 0 Z" /><glyph glyph-name="uni25FC" unicode="&#x25fc;" d="M0 0 l0 1106 l1106 0 l0 -1106 l-1106 0 Z" /><glyph glyph-name="fi" unicode="&#xfb01;" d="M82 885 l0 170 l184 35 l0 81 q0 217 125 329 q125 112 412 112 q121 0 245 -19 q124 -19 188 -38 l64 -19 l-4 -289 l-225 0 l-27 123 q-121 16 -221 16 q-138 0 -194 -46.5 q-56 -46.5 -56 -131.5 l0 -118 l768 16 l0 -891 l144 -51 l0 -164 l-594 0 l0 164 l143 51 l0 670 l-461 0 l0 -670 l144 -51 l0 -164 l-615 0 l0 164 l164 51 l0 670 l-184 0 Z" /><glyph glyph-name="fl" unicode="&#xfb02;" d="M82 881 l0 174 l184 30 l0 97 q0 430 522 430 q126 0 263 -13 q137 -13 211 -25 l75 -13 l0 -1346 l185 -51 l0 -164 l-635 0 l0 164 l143 51 l0 1153 q-117 18 -217 18 q-122 0 -181 -44.5 q-59 -44.5 -59 -122.5 l0 -134 l267 0 l-6 -204 l-261 0 l0 -666 l144 -51 l0 -164 l-615 0 l0 164 l164 51 l0 666 l-184 0 Z" /></font>
</defs>
</svg>
