<?xml version="1.0" standalone="no"?>
<!DOCTYPE svg PUBLIC "-//W3C//DTD SVG 1.1//EN" "http://www.w3.org/Graphics/SVG/1.1/DTD/svg11.dtd" >
<svg xmlns="http://www.w3.org/2000/svg">
<metadata>
Created by FontPrep 20130207 at Wed Apr 15 10:12:47 2015
 By Jason Pitman
Created by Raph Levien using his own tools and FontPrep. Copyright 2006 Raph Levien. Released under the Apache 2 license.
</metadata>
<defs>
<font id="1e809497c56d5ee053aedc961ac7170b" horiz-adv-x='1024' >
  <font-face 
    font-family="Inconsolata-Bold"
    font-weight="700"
    font-stretch="normal"
    units-per-em="2048"
    panose-1="2 11 6 9 3 0 3 0 0 0"
    ascent="1638"
    descent="-410"
    x-height="936"
    cap-height="1276"
    bbox="-25 -389 1059 1759"
    underline-thickness="102"
    underline-position="-308"
    unicode-range="U+0020-F40A"
  />
<missing-glyph 
 />
    <glyph glyph-name=".notdef" 
 />
    <glyph glyph-name=".null" horiz-adv-x="0" 
 />
    <glyph glyph-name="nonmarkingreturn" 
 />
    <glyph glyph-name="space" unicode=" " 
 />
    <glyph glyph-name="exclam" unicode="!" 
d="M494 1374q143 0 143 -196q0 -47 -7.5 -119.5t-8.5 -95.5l-37 -557h-185l-28 557q-6 68 -13.5 130.5t-7.5 125.5q0 64 37.5 109.5t106.5 45.5zM651 141q0 -44 -13 -70.5t-35.5 -47t-52 -32t-77.5 -11.5t-94.5 43t-46.5 104q0 60 46.5 104.5t111.5 44.5t113 -45.5t48 -89.5
z" />
    <glyph glyph-name="quotedbl" unicode="&#x22;" 
d="M462 1351q38 -40 38 -109t-66 -257l-57 -158l-195 45l54 166q18 56 18 88l-14 119q0 107 51.5 126.5t91.5 19.5q41 0 79 -40zM724 1391q57 0 94.5 -40.5t37.5 -108.5t-44 -191t-54 -152t-27 -72l-192 45l53 166q16 50 16 88l-12 119q0 106 51 126t77 20z" />
    <glyph glyph-name="numbersign" unicode="#" 
d="M475 799l-31 -277h113l33 277h-115zM326 1282l211 2l-39 -321h110l37 315l211 2l-37 -313h172l-20 -164h-172l-31 -277h182l-12 -159h-188l-41 -340l-211 -13l43 346h-115l-41 -335l-205 -2l37 335h-178l12 160h189l30 279h-202l10 161h211z" />
    <glyph glyph-name="dollar" unicode="$" 
d="M352 913q0 -32 21 -66t73 -52v229q-94 -25 -94 -111zM631 215q121 43 121 144q0 102 -121 145v-289zM631 721q170 -55 250 -136t80 -209q0 -129 -87.5 -228t-232.5 -128v-110h-205v104q-199 34 -336 185l125 176q28 -8 37 -27.5t12.5 -29.5t23.5 -31q61 -65 148 -84v366
q-309 114 -309 332q0 114 81.5 199.5t217.5 113.5v119h205q12 -4 12 -20l-12 -64v-32q162 -32 289 -185l-121 -153q-23 0 -31.5 17t-12 28.5t-9.5 21.5q-51 58 -125 76v-301z" />
    <glyph glyph-name="percent" unicode="%" 
d="M664 258q0 -27 6 -50.5t16.5 -41t25 -27.5t31.5 -10t31.5 10t25.5 27.5t17 41t6 50.5t-6 51t-17 41.5t-25.5 28t-31.5 10.5t-31.5 -10.5t-25 -28t-16.5 -41.5t-6 -51zM926.5 457q74.5 -82 74.5 -202t-72 -197.5t-179 -77.5t-181.5 81t-74.5 197q0 117 74.5 199t179 82
t179 -82zM197 1018q0 -27 6 -50.5t16.5 -41t25 -27.5t31.5 -10t32 10t25.5 27.5t16.5 41t6 50.5t-6 51t-16.5 41.5t-25.5 28t-32 10.5t-31.5 -10.5t-25 -28t-16.5 -41.5t-6 -51zM281.5 1298q104.5 0 179 -81t74.5 -201t-72.5 -198.5t-179.5 -78.5t-181.5 81t-74.5 198
t75 198.5t179.5 81.5zM770 1276h209l-731 -1276h-203z" />
    <glyph glyph-name="ampersand" unicode="&#x26;" 
d="M285 328q0 -71 43 -126t103 -55q106 0 183 117l-208 299q-121 -77 -121 -235zM381 1014q0 -89 90 -205q71 43 84.5 103.5t13.5 101t-25 76.5t-70 36t-69 -33.5t-24 -78.5zM725 115q-147 -148 -339 -148q-64 0 -129 26t-130.5 94t-65.5 201q0 134 72 245t182 174
q-143 157 -143 290t88.5 216t215.5 83t211.5 -86.5t84.5 -191.5t-56 -201t-147 -145l174 -250q55 72 55 128t23 75l185 -129q-79 -133 -146 -232l137 -180l-172 -127z" />
    <glyph glyph-name="quotesingle" unicode="'" 
d="M552 1391q57 0 94.5 -40.5t37.5 -112.5t-66 -253l-57 -158l-194 45l53 166q18 56 18 88l-14 119q0 107 51 126.5t77 19.5z" />
    <glyph glyph-name="parenleft" unicode="(" 
d="M803 1182q-3 0 -8 -2q-342 -201 -342 -660q0 -228 114.5 -422.5t313.5 -310.5l-90 -154q-257 130 -404 367.5t-147 526.5q0 288 147.5 509t403.5 336l94 -188q-20 -8 -35 -8l-41 6h-6z" />
    <glyph glyph-name="parenright" unicode=")" 
d="M621 -16q-163 -245 -435 -357l-53 174q205 95 321.5 285t116.5 420t-110 407.5t-316 282.5l54 178q266 -112 425.5 -348.5t159.5 -516.5t-163 -525z" />
    <glyph glyph-name="asterisk" unicode="*" 
d="M406 1075h241l-43 -315l285 129l76 -176l-320 -99l234 -280l-164 -127l-199 301l-205 -303l-161 129l239 278l-319 99l71 186l293 -137z" />
    <glyph glyph-name="plus" unicode="+" 
d="M424 1083h199v-329h327v-174h-327v-359h-199v359h-340v174h340v329z" />
    <glyph glyph-name="comma" unicode="," 
d="M662 61q0 -159 -242 -407l-115 104q92 89 112.5 137t20.5 63t-28 39q-28 25 -49 50t-21 57q0 63 43 104.5t110 41.5q68 0 118.5 -54t50.5 -135z" />
    <glyph glyph-name="hyphen" unicode="-" 
d="M131 750h768v-187h-768v187z" />
    <glyph glyph-name="period" unicode="." 
d="M600.5 207q46.5 -45 46.5 -85q0 -68 -45 -108.5t-93 -40.5q-47 0 -75 11t-48.5 29.5t-32 43.5t-11.5 54t12 54.5t45 56t94 30.5t107.5 -45z" />
    <glyph glyph-name="slash" unicode="/" 
d="M106 -10l635 1376l179 -92l-633 -1370z" />
    <glyph glyph-name="zero" unicode="0" 
d="M739 614q0 57 -4.5 103t-5.5 61l-373 -485q54 -127 152 -127t164.5 126t66.5 322zM289 655q0 -93 10 -163l373 485q-54 127 -152 127t-164.5 -126.5t-66.5 -322.5zM821 1122q137 -180 137 -500t-128.5 -490.5t-316.5 -170.5q-187 0 -315 188t-128 479.5t96.5 433.5
t176.5 191.5t150 49.5q118 0 190 -44t138 -137z" />
    <glyph glyph-name="one" unicode="1" 
d="M653 1276v-1276h-225v1016l-219 -66l-55 140l346 186h153z" />
    <glyph glyph-name="two" unicode="2" 
d="M485 1305q194 0 308 -110.5t114 -264.5q0 -188 -179.5 -361.5t-239.5 -242t-95 -136.5h441q13 1 34 17t41 16v-223h-792v127q69 171 207 322t243 252.5t105 226.5q0 77 -48.5 129.5t-109.5 52.5q-62 0 -93.5 -12.5t-51.5 -31.5t-31.5 -42.5t-19.5 -46t-14.5 -41
t-16.5 -27.5l-176 138q58 126 161 192t213 66z" />
    <glyph glyph-name="three" unicode="3" 
d="M487 1305q169 0 279.5 -99.5t110.5 -247.5t-75 -205.5t-108 -72.5q85 -31 148 -118.5t63 -191.5q0 -195 -116 -302t-335 -107t-358 172l162 197q15 -10 22.5 -34t17.5 -42q20 -39 72 -66.5t98 -27.5q91 0 149.5 57t58.5 153q0 95 -68.5 147t-177.5 52l-113 -4v185
q260 0 294 77t34 117q0 74 -44.5 119t-119.5 45q-111 0 -213 -123l-131 148q129 172 350 172z" />
    <glyph glyph-name="four" unicode="4" 
d="M583 500v381l-258 -381h258zM806 1276v-770h170v-193h-170v-313h-231v315h-487v144l553 817h165z" />
    <glyph glyph-name="five" unicode="5" 
d="M556 856q174 0 281 -117.5t107 -323.5t-116 -330t-308 -124q-283 0 -411 242l182 137q18 -10 23 -32.5t8 -31.5q21 -46 68.5 -79t105.5 -33q106 0 163.5 65.5t57.5 183.5q0 119 -53.5 186t-129.5 67t-123 -30t-92 -93l-147 63l47 670h686v-195h-485l-17 -247
q73 22 153 22z" />
    <glyph glyph-name="six" unicode="6" 
d="M520 647q-42 0 -95 -33.5t-87 -89.5v-37q0 -126 56.5 -220.5t133.5 -94.5q78 0 126 63.5t48 176.5t-51 174t-131 61zM334 754q96 96 237 96q54 0 124 -32t122.5 -90t82.5 -138t30 -223.5t-116.5 -274.5t-283.5 -131q-198 0 -312 174.5t-114 479.5t97.5 447t185 191.5
t184.5 49.5q182 0 330 -150l-153 -166q-17 5 -23 19t-9.5 24.5t-10.5 22.5q-46 53 -155 53t-157.5 -126.5t-58.5 -225.5z" />
    <glyph glyph-name="seven" unicode="7" 
d="M135 1075v201h768v-117q-222 -508 -422 -1159h-248q221 661 394 1075h-492z" />
    <glyph glyph-name="eight" unicode="8" 
d="M377 972q0 -106 168 -194q52 35 86.5 85.5t34.5 92.5t-11.5 67t-31.5 44t-47 30t-58 11t-57 -10.5t-55 -40t-29 -85.5zM641.5 477q-56.5 64 -152.5 98q-113 -58 -137 -125.5t-24 -122t56 -107t133 -52.5q78 0 129.5 49.5t51.5 122.5t-56.5 137zM322 678
q-177 116 -177 301q0 56 30 119t112 137t238 74t235.5 -72t108 -132.5t28.5 -114.5q0 -94 -53.5 -174t-132.5 -132q160 -89 194.5 -191.5t34.5 -168.5t-33 -135t-124.5 -148.5t-271.5 -79.5t-302.5 107.5t-122.5 261.5t91.5 236.5t144.5 111.5z" />
    <glyph glyph-name="nine" unicode="9" 
d="M496 616q43 0 95.5 34t86.5 89v37q0 127 -56.5 221.5t-140.5 94.5q-113 0 -140.5 -92t-27.5 -152t15.5 -103.5t39.5 -72t54.5 -42.5t73.5 -14zM682 510q-96 -96 -237 -96q-54 0 -124 32t-122.5 90t-82.5 138t-30 223.5t116.5 274.5t282.5 131q197 0 311.5 -173
t114.5 -478t-97 -449t-184.5 -193t-184.5 -49q-182 0 -330 152l153 166q17 -5 23 -19t9.5 -24.5t10.5 -22.5q46 -53 154.5 -53t157 125.5t59.5 224.5z" />
    <glyph glyph-name="colon" unicode=":" 
d="M583.5 211q47.5 -41 47.5 -99q0 -57 -45 -98t-93 -41t-75.5 11t-47.5 29.5t-32 43.5t-12 54t12.5 54.5t44.5 56t92 30.5q61 0 108.5 -41zM476 891q60 0 107.5 -40t47.5 -97q0 -58 -45.5 -100t-91.5 -42q-79 0 -123.5 42.5t-44.5 83.5q0 42 12.5 67.5t45 55.5t92.5 30z
" />
    <glyph glyph-name="semicolon" unicode=";" 
d="M476 891q60 0 107.5 -40t47.5 -97q0 -58 -45.5 -100t-91.5 -42q-79 0 -123.5 42.5t-44.5 83.5q0 42 12.5 67.5t45 55.5t92.5 30zM647 61q0 -158 -241 -407l-117 104q93 87 114 136t21 64t-28 40q-28 24 -49 49t-21 57q0 63 43 104.5t92 41.5q83 0 134.5 -53.5
t51.5 -135.5z" />
    <glyph glyph-name="less" unicode="&#x3c;" 
d="M954 989l-639 -327l646 -363v-219l-895 524v119l888 469v-203z" />
    <glyph glyph-name="equal" unicode="=" 
d="M84 522h866v-174h-866v174zM84 940h866v-174h-866v174z" />
    <glyph glyph-name="greater" unicode="&#x3e;" 
d="M78 989v203l893 -469v-119l-895 -524v219l643 363z" />
    <glyph glyph-name="question" unicode="?" 
d="M113 1141q157 235 429 235q76 0 147 -29.5t146.5 -108t75.5 -228.5t-81.5 -226t-115.5 -104q-54 -43 -66.5 -83.5t-12.5 -104.5v-113h-203v113q0 97 23 157.5t100 137.5q78 78 102.5 128.5t24.5 94.5q0 82 -46 133t-114 51q-141 0 -256 -199zM642 206.5
q48 -41.5 48 -98.5t-44.5 -98t-91.5 -41q-79 0 -124 41t-45 82q0 42 12 68t45.5 57t92.5 31t107 -41.5z" />
    <glyph glyph-name="at" unicode="@" 
d="M530 601q0 -46 29.5 -83t74.5 -37q83 0 112.5 67.5t29.5 227.5q-182 -3 -214 -66t-32 -109zM602 -29q-236 0 -393.5 177.5t-157.5 496.5t151 491.5t402 172.5t308 -197.5t57 -335.5v-442h-187v63q-26 -32 -71.5 -55t-101.5 -23q-115 0 -195 81.5t-80 201.5q0 320 434 328
q-16 151 -94 184t-130 33t-107 -30.5t-126 -129.5t-71 -336t108.5 -375.5t265.5 -138.5q124 0 222 84l82 -151q-129 -99 -316 -99z" />
    <glyph glyph-name="A" unicode="A" 
d="M629 489l-133 424l-125 -424h258zM0 0l426 1298h133l467 -1298h-240l-116 330h-334l-100 -330h-236z" />
    <glyph glyph-name="B" unicode="B" 
d="M725 377q0 215 -268 215h-146v-397h178q236 0 236 182zM451 778q233 0 233 156q0 102 -79.5 126.5t-133.5 24.5h-160v-307h140zM82 1276h387q223 0 334.5 -88t111.5 -242q0 -119 -59.5 -180.5t-95.5 -81.5q89 -41 147 -129.5t58 -176.5q0 -179 -125 -278.5t-373 -99.5
h-385v1276z" />
    <glyph glyph-name="C" unicode="C" 
d="M588 -37q-240 0 -384.5 170t-144.5 498q0 451 191.5 564.5t316.5 113.5q218 0 310 -113t120 -178l-206 -103q-14 5 -17 56.5t-68.5 101t-133.5 49.5q-129 0 -202 -131.5t-73 -345.5t78.5 -351.5t207.5 -137.5t226 170l174 -113q-72 -124 -175 -187t-220 -63z" />
    <glyph glyph-name="D" unicode="D" 
d="M391 180q354 0 354 452t-333 453h-99v-905h78zM90 1276h330q234 0 394.5 -137.5t160.5 -509.5q0 -459 -213 -544t-367 -85h-305v1276z" />
    <glyph glyph-name="E" unicode="E" 
d="M115 1276h831v-197h-608v-315h504v-201h-504v-366h604v-197h-827v1276z" />
    <glyph glyph-name="F" unicode="F" 
d="M139 1276h793v-195h-563v-299h454v-192h-454v-590h-230v1276z" />
    <glyph glyph-name="G" unicode="G" 
d="M33 639q0 248 84.5 398t204 211t207.5 61q288 0 427 -250l-143 -146q-43 19 -51 37l-16 36q-20 46 -75.5 87t-114.5 41q-123 0 -204.5 -113.5t-81.5 -345.5t79.5 -364.5t198.5 -132.5t187 53v240h-217v194h434v-536q-174 -146 -410 -146q-235 0 -372 186t-137 490z" />
    <glyph glyph-name="H" unicode="H" 
d="M936 0h-236v571h-376v-571h-236v1276h250q4 -4 4 -9t-8 -19.5t-10 -43.5v-442h376v514h250q4 -4 4 -9t-8 -19.5t-10 -43.5v-1204z" />
    <glyph glyph-name="I" unicode="I" 
d="M162 1276h712v-191h-247v-897h258v-188h-735v190h247v895h-235v191z" />
    <glyph glyph-name="J" unicode="J" 
d="M291 1276h659v-191h-192v-673q0 -223 -103 -335t-262 -112q-208 0 -342 178l146 176q16 -5 22.5 -22t10.5 -30t14 -27q24 -36 55 -57t95 -21q134 0 134 276v647h-237v191z" />
    <glyph glyph-name="K" unicode="K" 
d="M877 1276h141l-475 -543l493 -731l-278 -12l-379 592l-55 -60v-522h-236v1276h250q4 -4 4 -9t-8 -19.5t-10 -43.5v-416l434 504q68 -16 119 -16z" />
    <glyph glyph-name="L" unicode="L" 
d="M940 193v-193h-815v1276h250q4 -4 4 -11t-7.5 -18.5t-11.5 -42.5v-1011h580z" />
    <glyph glyph-name="M" unicode="M" 
d="M61 1276h242l215 -600l213 602h244v-1278h-207v926l-178 -482h-152l-172 482v-926h-205v1276z" />
    <glyph glyph-name="N" unicode="N" 
d="M958 0h-253l-433 965v-965h-206v1276h280l406 -914v914h221q4 -4 4 -11t-7.5 -18.5t-11.5 -42.5v-1204z" />
    <glyph glyph-name="O" unicode="O" 
d="M272 660q0 -236 67 -362t177 -126q161 0 197.5 168.5t36.5 299.5q0 238 -68.5 351t-163.5 113q-172 0 -209 -160t-37 -284zM514 -37q-222 0 -350.5 189t-128.5 489t131 484t342 184q212 0 346.5 -173t134.5 -497q0 -452 -175 -564t-300 -112z" />
    <glyph glyph-name="P" unicode="P" 
d="M336 1073v-362h192q151 0 176 69t25 108q0 83 -50 134t-149 51h-194zM102 1276h433q215 0 322.5 -107.5t107.5 -321.5t-154.5 -272.5t-265.5 -58.5h-209v-516h-234v1276z" />
    <glyph glyph-name="Q" unicode="Q" 
d="M272 660q0 -236 67 -362t177 -126q161 0 197.5 168.5t36.5 299.5q0 238 -68.5 351t-163.5 113q-172 0 -209 -160t-37 -284zM166 1125q131 184 342 184q212 0 346.5 -173t134.5 -482t-103 -472t-265 -205q3 -35 24.5 -57t65.5 -20l202 8l-6 -207h-164q-173 0 -255 64.5
t-87 211.5q-174 46 -270 226t-96 459t131 463z" />
    <glyph glyph-name="R" unicode="R" 
d="M330 1073v-350h184q149 0 173 67t24 105q0 90 -47 134t-150 44h-184zM96 1276h404q341 0 393.5 -147.5t52.5 -216.5q0 -123 -67 -222t-177 -135l299 -555h-258l-264 528h-149v-528h-234v1276z" />
    <glyph glyph-name="S" unicode="S" 
d="M508 160q201 0 201 180q0 61 -55.5 110.5t-172.5 96.5q-210 84 -295.5 180t-85.5 235t118 243t300 104q116 0 218 -49t173 -142l-129 -172q-24 2 -29.5 14.5t-7.5 22t-8 18.5q-34 51 -94.5 85t-120.5 34q-94 0 -138 -41.5t-44 -86.5q0 -83 56.5 -136t183.5 -104
q127 -52 191.5 -94.5t118.5 -109t54 -196.5q0 -259 -165 -324t-291 -65q-248 0 -429 193l117 204q19 -5 27 -18t13.5 -23t19.5 -29q41 -53 111 -91.5t163 -38.5z" />
    <glyph glyph-name="T" unicode="T" 
d="M41 1276h940v-199h-360v-1077h-234v1077h-346v199z" />
    <glyph glyph-name="U" unicode="U" 
d="M324 1267q0 -5 -8.5 -20.5t-10.5 -42.5v-755q0 -213 74 -250t134 -37q115 0 162.5 74t47.5 219v821h225v-819q0 -243 -115.5 -364.5t-324.5 -121.5t-320.5 126t-111.5 354v825h243q5 -4 5 -9z" />
    <glyph glyph-name="V" unicode="V" 
d="M20 1276h242l268 -905l254 905h236l-410 -1276h-176z" />
    <glyph glyph-name="W" unicode="W" 
d="M12 1276h224l73 -842l150 737h147l150 -731l53 836h213l-152 -1276h-180l-168 776l-170 -776h-184z" />
    <glyph glyph-name="X" unicode="X" 
d="M733 1276h238l-318 -623l359 -653h-258l-234 438l-227 -438h-250l344 651l-340 625h250l221 -418z" />
    <glyph glyph-name="Y" unicode="Y" 
d="M653 0h-241v504l-394 772h256l263 -516l233 516h248l-365 -774v-502z" />
    <glyph glyph-name="Z" unicode="Z" 
d="M106 1276h838v-139l-567 -940h491q30 4 57.5 17t49.5 13v-227h-891v139l578 938h-556v199z" />
    <glyph glyph-name="bracketleft" unicode="[" 
d="M242 1370h635v-190h-420v-1180h420v-184h-635v1554z" />
    <glyph glyph-name="backslash" unicode="\" 
d="M922 -10l-179 -86l-639 1376l179 94z" />
    <glyph glyph-name="bracketright" unicode="]" 
d="M780 1370v-1554h-633v184h418v1180h-415v190h630z" />
    <glyph glyph-name="asciicircum" unicode="^" 
d="M158 760l331 520h74l293 -520l-168 -80l-170 354l-192 -354z" />
    <glyph glyph-name="underscore" unicode="_" 
d="M59 -16h906v-191h-906v191z" />
    <glyph glyph-name="grave" unicode="`" 
d="M429 928.5q-52 51.5 -126 245.5l-59 159l180 84l65 -166q22 -52 47.5 -82.5t55.5 -60.5t50 -57t20 -62t-12.5 -55.5t-38.5 -38.5t-78 -18t-104 51.5z" />
    <glyph glyph-name="a" unicode="a" 
d="M350.5 184q41.5 -34 93.5 -34q87 0 159.5 59.5t79.5 110.5t7 96l-84 2q-240 5 -268.5 -59.5t-28.5 -102.5t41.5 -72zM686 86q-118 -111 -282 -111q-155 0 -238.5 79t-83.5 200q0 151 127 243.5t354 92.5h121q-2 109 -44 158t-132 49q-117 0 -238 -127l-116 151
q148 156 362 156q283 0 336 -146t53 -249v-582h-219v86z" />
    <glyph glyph-name="b" unicode="b" 
d="M506 791q-176 1 -176 -315t186 -316q80 0 144.5 74.5t64.5 232.5q0 242 -83.5 283t-135.5 41zM102 0v1382h258q0 -17 -13.5 -33t-14.5 -26v-449q93 103 221 103q172 0 287.5 -125t115.5 -365q0 -239 -122.5 -378.5t-282.5 -139.5t-258 123l-31 -92h-160z" />
    <glyph glyph-name="c" unicode="c" 
d="M938 137q-151 -170 -371 -170t-354.5 143t-134.5 359q0 217 136 362.5t336 145.5q273 0 396 -184l-147 -172q-17 4 -20.5 24t-6.5 29q-65 112 -209 112q-106 0 -179 -87t-73 -220t70.5 -224t194.5 -91t229 127z" />
    <glyph glyph-name="d" unicode="d" 
d="M502 160q188 0 188 316t-178 315q-87 0 -143 -62q-76 -81 -76 -250t64.5 -244t144.5 -75zM698 88q-66 -119 -256 -119q-58 0 -131.5 30.5t-161.5 128t-88 333.5t118.5 376t287.5 140q125 0 221 -96v501h258q0 -15 -13.5 -32.5t-14.5 -26.5v-1208q0 -45 18 -115h-217
q-21 15 -21 59v29z" />
    <glyph glyph-name="e" unicode="e" 
d="M707 582q0 92 -52.5 157.5t-137.5 65.5t-139.5 -59.5t-66.5 -163.5h396zM915 139q-145 -172 -359 -172t-347 134.5t-133 366.5t127 370.5t314 138.5t303 -122t116 -345q0 -27 -6 -96h-627q15 -129 85.5 -196.5t164.5 -67.5q143 0 235 116z" />
    <glyph glyph-name="f" unicode="f" 
d="M735 1217q-170 0 -170 -263v-49h293v-182h-293v-723h-223v723h-207v182h207v68q0 204 112 315t293 111t308 -156l-94 -184q-16 0 -21.5 10t-11.5 33q-49 74 -104 94.5t-89 20.5z" />
    <glyph glyph-name="g" unicode="g" 
d="M276 -80q0 -104 232 -104q153 0 189 45.5t38 72.5q-7 86 -119 86q-173 0 -268 7q-72 -43 -72 -107zM246 397q-131 81 -131 263q0 54 30.5 116.5t110.5 135.5t214 73t222 -67q91 61 211 61h66l30 -195q-82 13 -116 13q-33 0 -78 -17q33 -75 33 -138q0 -130 -106 -227.5
t-255 -97.5q-49 0 -84 11q-61 -41 -61 -78q0 -47 104 -47l142 6q368 0 368 -258q0 -125 -115 -215t-331 -90t-325 69t-109 176q0 79 48.5 125.5t75.5 63.5q-61 44 -61 132q0 89 117 185zM370 765.5q-42 -43.5 -42 -116.5q0 -103 57 -129t91 -26t62 12.5t47.5 33.5t29.5 49
t10 60t-10 61t-41 64t-96 35q-66 0 -108 -43.5z" />
    <glyph glyph-name="h" unicode="h" 
d="M696 578q0 210 -137 210q-88 0 -146.5 -66t-58.5 -169v-553h-231v1382h260q0 -17 -14 -32.5t-15 -26.5v-465q110 119 250 119q318 0 318 -397v-580h-226v578z" />
    <glyph glyph-name="i" unicode="i" 
d="M207 956h448v-778h211v-178h-669v178h231v600h-221v178zM542 1384q32 0 58 -10.5t45.5 -28t31 -41.5t11.5 -51t-11.5 -51t-31 -42t-45.5 -28t-70.5 -10t-86.5 38.5t-42 91.5t27 81t54.5 39.5t59.5 11.5z" />
    <glyph glyph-name="j" unicode="j" 
d="M753.5 1353q43.5 -40 43.5 -82q0 -41 -12 -65.5t-32 -43t-46.5 -29.5t-70 -11t-87 40t-43.5 95t39.5 95.5t102.5 40.5q62 0 105.5 -40zM377 -168q158 0 158 207v731h-332v186h563v-909q0 -205 -108 -307t-286 -102t-313 159l142 187q14 -6 26 -43.5t62.5 -73t87.5 -35.5z
" />
    <glyph glyph-name="k" unicode="k" 
d="M123 1382h260q0 -18 -14 -32t-15 -25v-721l367 363q73 -17 117 -17h149l-391 -377q61 -73 217 -285.5t215 -285.5l-280 -10l-316 440l-78 -74v-358h-231v1382z" />
    <glyph glyph-name="l" unicode="l" 
d="M150 1382h479v-1204h262v-178h-754v178h262v1026h-249v178z" />
    <glyph glyph-name="m" unicode="m" 
d="M416 657q0 160 -60 160q-84 0 -84 -182v-635h-206v967h196v-60q84 90 181 90t151 -114q35 56 88 85t107 29q105 0 147.5 -71t42.5 -219v-707h-213v668q0 80 -13.5 114.5t-47.5 34.5q-78 0 -78 -188v-629h-211v657z" />
    <glyph glyph-name="n" unicode="n" 
d="M696 578q0 210 -137 210q-88 0 -146.5 -66t-58.5 -169v-553h-231v956h231v-98q110 119 250 119q318 0 318 -397v-580h-226v578z" />
    <glyph glyph-name="o" unicode="o" 
d="M295 440q0 -111 60.5 -198.5t161.5 -87.5t160.5 81t59.5 234t-62 238.5t-161 85.5q-153 0 -186 -121t-33 -232zM191.5 109q-132.5 142 -132.5 359t135 363t326 146t318 -135.5t127 -368.5t-125 -369.5t-320.5 -136.5t-328 142z" />
    <glyph glyph-name="p" unicode="p" 
d="M332 956v-98q86 119 229 119q176 0 291 -135t115 -376t-116.5 -369t-287.5 -128q-60 0 -120 25.5t-101 68.5v-405h-229l-2 1298h221zM342 487q0 -329 186 -329q82 0 145.5 75t63.5 231t-55.5 240t-159.5 84q-147 0 -163.5 -120.5t-16.5 -180.5z" />
    <glyph glyph-name="q" unicode="q" 
d="M682 481q0 310 -195 310q-83 0 -139.5 -82t-56.5 -224t59.5 -232.5t146.5 -90.5t136 79t49 240zM465 977q95 0 153 -38t76 -60v77h221v-1298h-229v408q-86 -99 -223 -99q-171 0 -287.5 145.5t-116.5 367t114.5 359.5t291.5 138z" />
    <glyph glyph-name="r" unicode="r" 
d="M854 649q-96 133 -194 133t-172 -83t-74 -199v-500h-232v956h236v-104q111 125 271 125q161 0 272 -105z" />
    <glyph glyph-name="s" unicode="s" 
d="M688 250q0 67 -66.5 92.5t-133.5 45t-109 35.5t-86 42.5t-74.5 59.5t-46.5 74.5t-16 120.5t110 168t269 89q227 0 374 -166l-110 -166q-14 0 -18 11t-6.5 18.5t-12.5 21.5q-29 39 -98.5 71t-119.5 32q-174 0 -175 -75q0 -35 13.5 -52.5t48 -36t181.5 -59.5
q147 -40 227.5 -115t80.5 -172q0 -132 -113 -227t-295 -95q-244 0 -416 162l119 215q12 -2 18 -14.5t15 -34.5q31 -51 112.5 -95t155.5 -44q172 0 172 94z" />
    <glyph glyph-name="t" unicode="t" 
d="M303 392q0 137 19 378h-207v186h219l14 224l254 43q0 -26 -8 -43t-14 -39l-21 -185h289v-186h-297q-3 -74 -9.5 -153t-6.5 -157q0 -168 20.5 -230t88.5 -62t216 113l72 -189q-175 -125 -324 -125q-237 0 -271 144t-34 281z" />
    <glyph glyph-name="u" unicode="u" 
d="M680 90q-88 -131 -278 -131q-54 0 -176 45.5t-122 353.5v598h226v-598q0 -110 38 -160.5t90 -50.5q96 0 155 66.5t59 169.5v573h231v-841q0 -41 19 -115h-222q-20 15 -20 59v31z" />
    <glyph glyph-name="v" unicode="v" 
d="M328 956l-15 -65l217 -612l93 270q80 234 116 407h219q-53 -229 -143 -438l-213 -518h-188l-363 956h277z" />
    <glyph glyph-name="w" unicode="w" 
d="M270 956q0 -15 -11 -29t-11 -22v-10q0 -10 2 -16l88 -598l119 565h141l135 -563q49 318 49 610v63h217q-66 -558 -147 -956h-203l-125 532l-118 -532h-209l-181 956h254z" />
    <glyph glyph-name="x" unicode="x" 
d="M694 956h248l-305 -464q127 -182 216 -310t128 -182h-262l-209 324l-197 -324h-262l330 485q-290 420 -326 471h258l195 -309z" />
    <glyph glyph-name="y" unicode="y" 
d="M182 -134q24 -42 76 -42t90 43t74 145l-359 944h281l-14 -65l213 -594l92 252q73 195 117 407h219q-46 -190 -144 -438l-237 -622q-97 -258 -314 -258q-141 0 -253 108l114 197q18 -9 23 -23.5t8.5 -25t13.5 -28.5z" />
    <glyph glyph-name="z" unicode="z" 
d="M127 936h764v-143l-490 -600h435q20 1 50 15.5t50 14.5v-223h-848v143l496 598h-457v195z" />
    <glyph glyph-name="braceleft" unicode="{" 
d="M709 -145h143v-181h-115q-131 0 -211 23.5t-110 46.5q-125 95 -125 309l6 203q0 140 -45.5 156t-73.5 16h-86v182h84q63 0 94 38.5t31 125.5l-4 162q0 369 391 369h166v-185h-201q-129 0 -129 -164l4 -159q0 -183 -145 -277q99 -64 120 -153.5t21 -139.5l-4 -174
q0 -105 44 -151.5t145 -46.5z" />
    <glyph glyph-name="bar" unicode="|" 
d="M403 1335h220v-1644h-220v1644z" />
    <glyph glyph-name="braceright" unicode="}" 
d="M289 -326h-115v181h143q101 0 145 46.5t44 151.5l-4 174q0 148 55 210.5t86 82.5q-145 94 -145 277l4 159q0 164 -129 164h-201v185h166q391 0 391 -369l-4 -162q0 -87 31 -125.5t94 -38.5h84v-182h-86q-61 0 -90 -38t-29 -134l6 -203q0 -214 -125 -309q-91 -70 -321 -70
z" />
    <glyph glyph-name="asciitilde" unicode="~" 
d="M367 795q-66 0 -146 -131l-166 112q60 97 150 160t166 63q77 0 125 -35.5t98 -73.5t75 -38q43 0 77 30.5t90 110.5l153 -123q-95 -153 -178 -187t-130 -34q-91 0 -178 73t-136 73z" />
    <glyph glyph-name="Zcaron" 
d="M106 1276h838v-139l-567 -940h491q30 4 58 17q27 13 49 13v-227h-891v139l578 938h-556v199zM825 1550l-272 -221h-63l-258 217l77 92l215 -135l232 129z" />
    <glyph glyph-name="Zcaron" unicode="&#x17d;" 
d="M106 1276h838v-139l-567 -940h491q30 4 58 17q27 13 49 13v-227h-891v139l578 938h-556v199zM825 1550l-272 -221h-63l-258 217l77 92l215 -135l232 129z" />
    <glyph glyph-name="zcaron" 
d="M127 936h764v-143l-490 -600h435q20 1 50 16q30 14 50 14v-223h-848v143l496 598h-457v195zM791 1348l-236 -297h-66l-235 299l119 88l155 -181l164 179z" />
    <glyph glyph-name="zcaron" unicode="&#x17e;" 
d="M127 936h764v-143l-490 -600h435q20 1 50 16q30 14 50 14v-223h-848v143l496 598h-457v195zM791 1348l-236 -297h-66l-235 299l119 88l155 -181l164 179z" />
    <glyph glyph-name="nonbreakingspace" unicode="&#xa0;" 
 />
    <glyph glyph-name="exclamdown" unicode="&#xa1;" 
d="M637 176q0 -196 -143 -196q-69 0 -106.5 45.5t-37.5 109.5t7.5 126t13.5 130l28 557h185l37 -557q1 -23 8.5 -95.5t7.5 -119.5zM332 1213q0 45 12.5 71.5t34 46.5t50 31.5t77.5 11.5t97 -44t48 -100q0 -57 -47 -108q-47 -45 -113 -45t-112.5 45.5t-46.5 90.5z" />
    <glyph glyph-name="cent" unicode="&#xa2;" 
d="M313 542q0 -156 103 -243l67 547q-120 -43 -145 -140.5t-25 -163.5zM389 72q-140 53 -224.5 180t-84.5 310t120 324t310 163l29 229l221 -21q0 -17 -5.5 -29.5t-13.5 -35.5l-22 -160q135 -36 221 -155l-135 -181q-14 3 -17.5 15.5t-5 21t-4.5 17.5q-33 53 -86 81
l-76 -587q111 18 195 123l133 -154q-140 -159 -354 -170l-27 -205l-201 25z" />
    <glyph glyph-name="sterling" unicode="&#xa3;" 
d="M205 918q0 66 29.5 137.5t109 152t246.5 80.5q166 0 297 -141l-137 -170q-30 12 -43.5 33t-35 57.5t-87.5 36.5q-106 0 -132 -76t-26 -121t8 -94h205v-182h-162q15 -79 15 -136q0 -189 -60 -259q9 2 12 2h41q40 0 137.5 -33t117.5 -33q35 0 67.5 19t89.5 65l86 -176
q-133 -109 -252 -109q-43 0 -176.5 43t-185.5 43t-230 -92l-82 182q132 51 159 98q56 98 56 202q0 105 -18 184h-133v182h92q-8 39 -8 105z" />
    <glyph glyph-name="currency" unicode="&#xa4;" 
d="M360 706q0 -34 11.5 -64t32 -52.5t48.5 -35.5t76 -13t92 48t44 100t-11.5 82.5t-32 53.5t-48.5 36t-60 13t-60 -13t-48.5 -36t-32 -54t-11.5 -65zM514 1038q84 0 160 -39l110 109l134 -121l-113 -110q47 -74 47 -167t-47 -169l113 -111l-134 -121l-108 109
q-67 -39 -162 -39t-166 41l-108 -111l-134 121l113 115q-45 78 -45 166t45 163l-113 113l134 121l110 -111q80 41 164 41z" />
    <glyph glyph-name="yen" unicode="&#xa5;" 
d="M152 592h258l-375 684h254l239 -483l222 483h239l-350 -684h252v-182h-252v-62h252v-180h-252v-168h-223v168h-264v180h264v62h-264v182z" />
    <glyph glyph-name="brokenbar" unicode="&#xa6;" 
d="M623 -309h-220v755h220v-755zM403 1335h220v-778h-220v778z" />
    <glyph glyph-name="section" unicode="&#xa7;" 
d="M373 697q0 -114 162 -165q10 -3 25 -6.5t50 -15.5q29 25 29 80q0 110 -162 166l-65 22q-39 -22 -39 -81zM295 864q-125 71 -125 225q0 45 26 102t101.5 126t234.5 69t236.5 -85t105.5 -134l-169 -147q-19 4 -24 14t-9 38q-9 53 -52 90.5t-84 37.5q-65 0 -100 -34t-35 -73
q0 -66 50.5 -102.5t133.5 -66.5q289 -103 289 -295q0 -98 -51.5 -144t-79.5 -59q113 -88 113 -220t-104 -227.5t-265 -95.5q-232 0 -378 203l141 166q15 0 20.5 -7t11.5 -27q15 -46 74.5 -90t110.5 -44q84 0 123 35t39 72q0 65 -40.5 98.5t-135.5 62.5q-170 53 -241 124.5
t-71 170.5q0 98 60 150.5t94 66.5z" />
    <glyph glyph-name="dieresis" unicode="&#xa8;" 
d="M800.5 1348q43.5 -38 43.5 -93t-42 -94t-100 -39t-99.5 38t-41.5 80q0 41 11 65t42 52.5t87 28.5t99.5 -38zM425.5 1348q43.5 -38 43.5 -93t-42.5 -94t-86 -39t-69.5 10.5t-45.5 28.5t-30.5 41.5t-11 50.5t11 51t41.5 53t88.5 29q57 0 100.5 -38z" />
    <glyph glyph-name="copyright" unicode="&#xa9;" 
d="M260.5 848q-104.5 -119 -104.5 -287t104.5 -286.5t253.5 -118.5t256 120t107 286t-105.5 285.5t-256 119.5t-255 -119zM868 193q-148 -156 -358 -156t-355 153.5t-145 368.5t148 368.5t355 153.5t356 -153.5t149 -367.5q0 -213 -150 -367zM526 397q85 0 125 103l144 -92
q-44 -78 -116.5 -123t-150.5 -45q-143 0 -226 95t-83 229t84.5 224.5t200.5 90.5q184 0 235.5 -89t63.5 -137l-160 -57q-15 4 -16 26t-8 42t-34.5 40.5t-56.5 20.5q-55 0 -90 -36t-35 -114t30 -128t93 -50z" />
    <glyph glyph-name="ordfeminine" unicode="&#xaa;" 
d="M141 453h748v-160h-748v160zM627 842q-134 0 -173.5 -16t-51 -34t-11.5 -38q0 -36 24.5 -57t56.5 -21q68 0 111.5 38.5t43.5 127.5zM623 586q-69 -72 -195 -72q-40 0 -88 17t-103 65t-55 149t69.5 161.5t197.5 78.5q68 6 172 6q0 121 -105 121q-92 0 -182 -102l-113 133
q131 133 307 133q140 0 218.5 -69.5t78.5 -205.5v-466h-202v51z" />
    <glyph glyph-name="guillemotleft" unicode="&#xab;" 
d="M457 856l131 -137l-232 -223l244 -265l-137 -135l-342 369v67zM463 532l334 324l133 -137l-234 -223l244 -265l-135 -135l-342 369v67z" />
    <glyph glyph-name="logicalnot" unicode="&#xac;" 
d="M166 750h702v-435h-215v240h-487v195z" />
    <glyph glyph-name="softhyphen" unicode="&#xad;" 
d="M131 750h768v-187h-768v187z" />
    <glyph glyph-name="registered" unicode="&#xae;" 
d="M594 678q0 53 -98 53h-50v-113h56q92 0 92 60zM496 856q256 0 256 -174q0 -50 -27.5 -91.5t-77.5 -64.5l119 -231l-150 -23l-114 232h-56v-223h-141v575h191zM260.5 848q-104.5 -119 -104.5 -287t104.5 -286.5t253.5 -118.5t256 120t107 286t-105.5 285.5t-256 119.5
t-255 -119zM868 193q-148 -156 -358 -156t-355 153.5t-145 368.5t148 368.5t355 153.5t356 -153.5t149 -367.5q0 -213 -150 -367z" />
    <glyph glyph-name="macron" unicode="&#xaf;" 
d="M221 1315h574v-180h-574v180z" />
    <glyph glyph-name="degree" unicode="&#xb0;" 
d="M418 1075q0 -56 29 -91.5t77 -35.5t78.5 35.5t30.5 77.5q0 70 -31 106.5t-79 36.5q-47 0 -76 -36.5t-29 -92.5zM526 1364q62 0 116.5 -23.5t95 -63.5t64 -93t23.5 -111t-23.5 -111t-64 -93t-95.5 -63.5t-118 -23.5t-118 22.5t-95.5 62t-64 92.5t-23.5 114t24.5 114.5
t66 92.5t96 61.5t116.5 22.5z" />
    <glyph glyph-name="plusminus" unicode="&#xb1;" 
d="M412 1180h213v-324h321v-190h-321v-353h-213v353h-334v190h334v324zM80 225h868v-192h-868v192z" />
    <glyph glyph-name="uni00B2" unicode="&#xb2;" 
d="M539 1337q116 0 202 -72t86 -182q0 -80 -54 -145t-148 -130t-121 -93h266q10 1 30 14.5t42 13.5v-204h-621v129q104 140 266 262l54 41q77 60 77 116q0 31 -24 54.5t-68 23.5t-91.5 -26.5t-56.5 -64.5t-20 -52l-165 108q120 207 346 207z" />
    <glyph glyph-name="uni00B3" unicode="&#xb3;" 
d="M717 958q117 -56 117 -182q0 -40 -27.5 -86t-100 -100.5t-204.5 -54.5q-185 0 -326 159l150 170q12 -14 19 -30.5t15 -33.5q17 -33 52.5 -59t86.5 -26q50 0 87 24.5t37 59.5q0 67 -119 67h-3l-102 -4v178q67 -8 69 -8h17q109 0 109 60q0 43 -36 57t-56 14
q-83 0 -174 -112l-129 131q131 155 309 155q121 0 207 -70t86 -169q0 -64 -33 -97t-51 -43z" />
    <glyph glyph-name="acute" unicode="&#xb4;" 
d="M571 1462l166 -114l-215 -289l-114 67z" />
    <glyph glyph-name="micro" unicode="&#xb5;" 
d="M231 -315h-211q0 140 10 274q27 362 27 459v518h219v-549q0 -179 55.5 -203.5t82.5 -27.5q94 18 117.5 94t23.5 133v553h215v-680q0 -92 27 -92q12 0 26.5 16t22.5 33l53 102l105 -194q-98 -139 -213 -139t-170 86q-92 -86 -204 -86t-186 47v-344z" />
    <glyph glyph-name="paragraph" unicode="&#xb6;" 
d="M930 1364v-1505h-203v1323h-80v-1323h-205v790q-146 22 -242 124t-96 235q0 249 184 302.5t328 53.5h314z" />
    <glyph glyph-name="periodcentered" unicode="&#xb7;" 
d="M649 695q0 -74 -47.5 -116t-97.5 -42q-83 0 -128.5 41.5t-45.5 102.5t48 103.5t109 42.5t111.5 -44.5t50.5 -87.5z" />
    <glyph glyph-name="cedilla" unicode="&#xb8;" 
d="M629 -215q0 11 -14 22t-40 11h-100l25 182h164l-9 -63q78 -8 119 -47t41 -85q0 -86 -69 -140t-203 -54t-248 94l76 129q84 -70 132.5 -77t76.5 -7t38.5 12t10.5 23z" />
    <glyph glyph-name="uni00B9" unicode="&#xb9;" 
d="M627 1329v-790h-215v551l-162 -41l-60 118l291 162h146z" />
    <glyph glyph-name="ordmasculine" unicode="&#xba;" 
d="M137 483h752v-176h-752v176zM417 1071q-36 -55 -36 -124q0 -70 10 -106.5t27 -61t39 -37.5t60.5 -13t75 50.5t36.5 120.5t-10 108t-35.5 78t-78.5 40q-52 0 -88 -55zM273.5 1197.5q99.5 111.5 238.5 111.5t231.5 -101t92.5 -277t-97.5 -282t-236.5 -106t-233.5 104
t-94.5 272q0 167 99.5 278.5z" />
    <glyph glyph-name="guillemotright" unicode="&#xbb;" 
d="M940 465l-342 -369l-137 135l244 265l-232 223l131 137l336 -324v-67zM598 465l-342 -369l-135 135l244 265l-234 223l133 137l334 -324v-67z" />
    <glyph glyph-name="onequarter" unicode="&#xbc;" 
d="M113 -10l635 1376l178 -92l-633 -1370zM365 1386v-638h-185v450l-133 -35l-47 94l240 129h125zM737 131v127l-100 -127h100zM911 514v-379h97v-127h-97v-151h-176v151h-278v92l325 414h129z" />
    <glyph glyph-name="onehalf" unicode="&#xbd;" 
d="M90 -10l635 1376l178 -92l-633 -1370zM365 1386v-638h-185v450l-133 -35l-47 94l240 129h125zM782 502q94 0 160 -62.5t66 -136.5t-35.5 -118.5t-110.5 -98.5q-76 -54 -119 -92h224q13 3 24 13.5t31 10.5v-168h-508v105q67 79 217 213q15 14 32.5 28.5t41.5 39.5t24 56
q0 32 -26.5 52.5t-60.5 20.5q-71 0 -84.5 -52.5t-22.5 -64.5l-135 88q105 166 282 166z" />
    <glyph glyph-name="threequarters" unicode="&#xbe;" 
d="M131 -10l635 1376l178 -92l-633 -1370zM739 131v127l-100 -127h100zM913 514v-379h97v-127h-97v-151h-176v151h-278v92l325 414h129zM264 1409q100 0 169 -57.5t69 -137.5q0 -51 -29 -79t-45 -35q42 -22 71 -58.5t29 -80.5q0 -88 -80 -146.5t-172 -58.5q-93 0 -155 32
t-121 97l117 129q15 -13 20 -27.5t11 -26.5q11 -24 42.5 -42.5t69.5 -18.5q98 -1 98 63t-98 64h-2l-76 -6v151q33 -14 75 -14q41 0 59 15.5t18 35.5t-20.5 41t-55.5 21q-71 0 -141 -88l-94 102q103 125 241 125z" />
    <glyph glyph-name="questiondown" unicode="&#xbf;" 
d="M911 205q-153 -236 -429 -236q-161 0 -265 108t-104 269t86.5 231.5t116.5 93.5q50 39 61.5 79t11.5 104v111h203v-111q0 -98 -23 -158t-101 -138q-77 -77 -101.5 -128t-24.5 -94q0 -81 46 -132.5t114 -51.5q142 0 256 198zM334 1230q0 37 12 61.5t32.5 43.5t48 30
t74.5 11t92.5 -41.5t45.5 -82.5q0 -70 -46 -112t-106 -42q-59 0 -106 41q-47 54 -47 91z" />
    <glyph glyph-name="Agrave" unicode="&#xc0;" 
d="M629 489l-133 424l-125 -424h258zM0 0l426 1298h133l467 -1298h-240l-116 330h-334l-100 -330h-236zM388 1671l314 -231l-56 -101l-368 129z" />
    <glyph glyph-name="Aacute" unicode="&#xc1;" 
d="M629 489l-133 424l-125 -424h258zM0 0l426 1298h133l467 -1298h-240l-116 330h-334l-100 -330h-236zM732 1468l-369 -129l-55 101l313 231z" />
    <glyph glyph-name="Acircumflex" unicode="&#xc2;" 
d="M629 489l-133 424l-125 -424h258zM0 0l426 1298h133l467 -1298h-240l-116 330h-334l-100 -330h-236zM197 1417l273 221h63l258 -217l-78 -92l-215 135l-231 -129z" />
    <glyph glyph-name="Atilde" unicode="&#xc3;" 
d="M629 489l-133 424l-125 -424h258zM0 0l426 1298h133l467 -1298h-240l-116 330h-334l-100 -330h-236zM424 1669q77 1 160 -87q37 -40 59 -40q32 0 57 29t60 88l112 -127q-73 -93 -119 -133q-46 -39 -90 -39q-91 0 -150 68q-60 68 -92 67q-32 1 -56 -33t-58 -100l-141 102
q125 205 258 205z" />
    <glyph glyph-name="Adieresis" unicode="&#xc4;" 
d="M629 489l-133 424l-125 -424h258zM0 0l426 1298h133l467 -1298h-240l-116 330h-334l-100 -330h-236zM783 1622q40 -41 40 -80t-11 -63q-11 -23 -30 -41t-45 -28t-55 -11q-29 0 -55 10q-26 9 -45 27t-30 42t-11 52t11 52t30 42q41 39 101 39t100 -41zM407 1623
q42 -40 42 -80q1 -40 -11 -64q-12 -23 -32 -41t-46 -28t-55 -11q-29 1 -55 11t-45 28t-30 41q-11 24 -11 51t11 51q11 25 30 43q41 40 100 39q60 0 102 -40z" />
    <glyph glyph-name="Aring" unicode="&#xc5;" 
d="M426 1460q0 -32 19 -54t47 -22t46.5 22t18.5 54t-18.5 55t-46.5 23t-47 -23t-19 -55zM629 489l-133 410l-125 -410h258zM641 1600.5q64 -60.5 64 -150.5t-53.5 -130.5t-82.5 -51.5l457 -1268h-240l-116 330h-334l-100 -330h-236l416 1266q-96 35 -116.5 96.5t-20.5 99.5
t17 74.5t62 80.5t132 44t151 -60.5z" />
    <glyph glyph-name="AE" unicode="&#xc6;" 
d="M483 514v453l-125 -453h125zM1016 1276v-195h-322v-317h271v-201h-271v-366h318v-197h-531v326h-174l-90 -326h-221l393 1276h627z" />
    <glyph glyph-name="Ccedilla" unicode="&#xc7;" 
d="M815 -195q0 -86 -69 -140t-203 -54t-248 94l76 129q84 -70 132.5 -77t76.5 -7t38.5 12t10.5 23t-14 22t-40 11h-100l21 151q-309 48 -373 278.5t-64 369.5t21.5 238.5t75.5 207.5t170 177t241 69q218 0 310 -113t120 -178l-206 -103q-14 5 -17 56.5t-68.5 101
t-133.5 49.5q-129 0 -202 -131.5t-73 -345.5t78.5 -351.5t207.5 -137.5t226 170l174 -113q-122 -207 -324 -242l-4 -34q78 -8 119 -47t41 -85z" />
    <glyph glyph-name="Egrave" unicode="&#xc8;" 
d="M115 1276h831v-197h-608v-315h504v-201h-504v-366h604v-197h-827v1276zM388 1671l314 -231l-56 -101l-368 129z" />
    <glyph glyph-name="Eacute" unicode="&#xc9;" 
d="M115 1276h831v-197h-608v-315h504v-201h-504v-366h604v-197h-827v1276zM764 1468l-369 -129l-55 101l313 231z" />
    <glyph glyph-name="Ecircumflex" unicode="&#xca;" 
d="M115 1276h831v-197h-608v-315h504v-201h-504v-366h604v-197h-827v1276zM214 1417l273 221h63l258 -217l-78 -92l-215 135l-231 -129z" />
    <glyph glyph-name="Edieresis" unicode="&#xcb;" 
d="M115 1276h831v-197h-608v-315h504v-201h-504v-366h604v-197h-827v1276zM795 1622q40 -41 40 -80t-11 -63q-11 -23 -30 -41t-45 -28t-55 -11q-29 0 -55 10q-26 9 -45 27t-30 42t-11 52t11 52t30 42q41 39 101 39t100 -41zM419 1623q42 -40 42 -80q1 -40 -11 -64
q-12 -23 -32 -41t-46 -28t-55 -11q-29 1 -55 11t-45 28t-30 41q-11 24 -11 51t11 51q11 25 30 43q41 39 100 39q60 0 102 -40z" />
    <glyph glyph-name="Igrave" unicode="&#xcc;" 
d="M162 1276h712v-191h-247v-897h258v-188h-735v190h247v895h-235v191zM388 1671l314 -231l-56 -101l-368 129z" />
    <glyph glyph-name="Iacute" unicode="&#xcd;" 
d="M162 1276h712v-191h-247v-897h258v-188h-735v190h247v895h-235v191zM764 1468l-369 -129l-55 101l313 231z" />
    <glyph glyph-name="Icircumflex" unicode="&#xce;" 
d="M162 1276h712v-191h-247v-897h258v-188h-735v190h247v895h-235v191zM195 1417l273 221h63l258 -217l-78 -92l-215 135l-231 -129z" />
    <glyph glyph-name="Idieresis" unicode="&#xcf;" 
d="M162 1276h712v-191h-247v-897h258v-188h-735v190h247v895h-235v191zM789 1622q40 -41 40 -80t-11 -63q-11 -23 -30 -41t-45 -28t-55 -11q-29 0 -55 10q-26 9 -45 27t-30 42t-11 52t11 52t30 42q41 39 101 39t100 -41zM413 1623q42 -40 42 -80q1 -40 -11 -64
q-12 -23 -32 -41t-46 -28t-55 -11q-29 1 -55 11t-45 28t-30 41q-11 24 -11 51t11 51q11 25 30 43q41 40 100 39q60 0 102 -40z" />
    <glyph glyph-name="Eth" unicode="&#xd0;" 
d="M391 180q354 0 354 452t-333 453h-99v-317h193v-188h-193v-400h78zM90 580h-80v188h80v508h330q234 0 394.5 -137.5t160.5 -509.5q0 -459 -213 -544t-367 -85h-305v580z" />
    <glyph glyph-name="Ntilde" unicode="&#xd1;" 
d="M958 0h-253l-433 965v-965h-206v1276h280l406 -914v914h221q4 -4 4 -11q1 -7 -7 -19t-12 -42v-1204zM434 1669q77 1 160 -87q37 -40 59 -40q32 0 57 29t60 88l112 -127q-73 -93 -119 -133q-46 -39 -90 -39q-91 0 -150 68q-60 68 -92 67q-32 1 -56 -33t-58 -100l-141 102
q125 205 258 205z" />
    <glyph glyph-name="Ograve" unicode="&#xd2;" 
d="M272 660q0 -236 67 -362t177 -126q160 0 214 246q20 90 20 222q0 238 -69 351t-163 113q-172 0 -226 -234q-20 -86 -20 -210zM514 -37q-222 0 -351 189q-128 189 -128 489t131 484t342 184q212 0 347 -173q134 -173 134 -497q0 -452 -247 -610q-103 -66 -228 -66z
M388 1671l314 -231l-56 -101l-368 129z" />
    <glyph glyph-name="Oacute" unicode="&#xd3;" 
d="M272 660q0 -236 67 -362t177 -126q160 0 214 246q20 90 20 222q0 238 -69 351t-163 113q-172 0 -226 -234q-20 -86 -20 -210zM514 -37q-222 0 -351 189q-128 189 -128 489t131 484t342 184q212 0 347 -173q134 -173 134 -497q0 -452 -247 -610q-103 -66 -228 -66z
M764 1468l-369 -129l-55 101l313 231z" />
    <glyph glyph-name="Ocircumflex" unicode="&#xd4;" 
d="M272 660q0 -236 67 -362t177 -126q160 0 214 246q20 90 20 222q0 238 -69 351t-163 113q-172 0 -226 -234q-20 -86 -20 -210zM514 -37q-222 0 -351 189q-128 189 -128 489t131 484t342 184q212 0 347 -173q134 -173 134 -497q0 -452 -247 -610q-103 -66 -228 -66z
M219 1417l273 221h63l258 -217l-78 -92l-215 135l-231 -129z" />
    <glyph glyph-name="Otilde" unicode="&#xd5;" 
d="M272 660q0 -236 67 -362t177 -126q160 0 214 246q20 90 20 222q0 238 -69 351t-163 113q-172 0 -226 -234q-20 -86 -20 -210zM514 -37q-222 0 -351 189q-128 189 -128 489t131 484t342 184q212 0 347 -173q134 -173 134 -497q0 -452 -247 -610q-103 -66 -228 -66z
M434 1669q77 1 160 -87q37 -40 59 -40q32 0 57 29t60 88l112 -127q-73 -93 -119 -133q-46 -39 -90 -39q-91 0 -150 68q-60 68 -92 67q-32 1 -56 -33t-58 -100l-141 102q125 205 258 205z" />
    <glyph glyph-name="Odieresis" unicode="&#xd6;" 
d="M272 660q0 -236 67 -362t177 -126q160 0 214 246q20 90 20 222q0 238 -69 351t-163 113q-172 0 -226 -234q-20 -86 -20 -210zM514 -37q-222 0 -351 189q-128 189 -128 489t131 484t342 184q212 0 347 -173q134 -173 134 -497q0 -452 -247 -610q-103 -66 -228 -66z
M795 1622q40 -41 40 -80t-11 -63q-11 -23 -30 -41t-45 -28t-55 -11q-29 0 -55 10q-26 9 -45 27t-30 42t-11 52t11 52t30 42q41 39 101 39t100 -41zM419 1623q42 -40 42 -80q1 -40 -11 -64q-12 -23 -32 -41t-46 -28t-55 -11q-29 1 -55 11t-45 28t-30 41q-11 24 -11 51t11 51
q11 25 30 43q41 39 100 39q60 0 102 -40z" />
    <glyph glyph-name="multiply" unicode="&#xd7;" 
d="M758 1083l153 -139l-243 -254l237 -252l-147 -149l-238 252l-235 -242l-144 143l238 246l-238 252l150 145l233 -245z" />
    <glyph glyph-name="Oslash" unicode="&#xd8;" 
d="M750 643q0 94 -13 176l-327 -610q45 -37 98 -37q242 0 242 471zM522 1104q-250 0 -250 -451q0 -111 21 -223l334 629q-51 45 -105 45zM989 639q0 -452 -175 -564t-290 -112t-219 53l-84 -157l-180 94l113 213q-119 182 -119 478q0 297 131 481t350 184q112 0 213 -60
l78 148l188 -97l-112 -208q106 -177 106 -453z" />
    <glyph glyph-name="Ugrave" unicode="&#xd9;" 
d="M324 1267q0 -5 -2 -9q-15 -26 -17 -54v-755q0 -213 108 -267q40 -20 100 -20q115 0 162 74q48 74 48 219v821h225v-819q0 -243 -116 -364q-116 -122 -324 -122q-209 0 -320 126q-112 126 -112 354v825h243q5 -4 5 -9zM386 1671l314 -231l-56 -101l-368 129z" />
    <glyph glyph-name="Uacute" unicode="&#xda;" 
d="M324 1267q0 -5 -2 -9q-15 -26 -17 -54v-755q0 -213 108 -267q40 -20 100 -20q115 0 162 74q48 74 48 219v821h225v-819q0 -243 -116 -364q-116 -122 -324 -122q-209 0 -320 126q-112 126 -112 354v825h243q5 -4 5 -9zM764 1468l-369 -129l-55 101l313 231z" />
    <glyph glyph-name="Ucircumflex" unicode="&#xdb;" 
d="M324 1267q0 -5 -2 -9q-15 -26 -17 -54v-755q0 -213 108 -267q40 -20 100 -20q115 0 162 74q48 74 48 219v821h225v-819q0 -243 -116 -364q-116 -122 -324 -122q-209 0 -320 126q-112 126 -112 354v825h243q5 -4 5 -9zM219 1417l273 221h63l258 -217l-78 -92l-215 135
l-231 -129z" />
    <glyph glyph-name="Udieresis" unicode="&#xdc;" 
d="M324 1267q0 -5 -2 -9q-15 -26 -17 -54v-755q0 -213 108 -267q40 -20 100 -20q115 0 162 74q48 74 48 219v821h225v-819q0 -243 -116 -364q-116 -122 -324 -122q-209 0 -320 126q-112 126 -112 354v825h243q5 -4 5 -9zM812 1622q40 -41 40 -80t-11 -63q-11 -23 -30 -41
t-45 -28t-55 -11q-29 0 -55 10q-26 9 -45 27t-30 42t-11 52t11 52t30 42q41 39 101 39t100 -41zM436 1623q42 -40 42 -80t-12 -64q-12 -23 -30 -41q-20 -18 -46 -28t-56 -11q-29 1 -55 11t-45 28t-30 41q-11 24 -11 51t11 51q11 25 30 43q41 40 100 39q60 0 102 -40z" />
    <glyph glyph-name="Yacute" unicode="&#xdd;" 
d="M653 0h-241v504l-394 772h256l263 -516l233 516h248l-365 -774v-502zM764 1468l-369 -129l-55 101l313 231z" />
    <glyph glyph-name="Thorn" unicode="&#xde;" 
d="M528 492q151 0 176 69t25 106q0 79 -51 133t-148 54h-192l-2 -362h192zM102 1276h250q4 -4 4 -9t-8 -19.5t-10 -43.5v-147h197q215 0 322.5 -107.5t107.5 -321.5t-154.5 -272.5t-265.5 -58.5h-209v-297h-234v1276z" />
    <glyph glyph-name="germandbls" unicode="&#xdf;" 
d="M725 739q225 -93 225 -374q0 -174 -101.5 -285t-293.5 -111q-97 0 -213 64l115 180q52 -49 97 -49q81 0 129 56.5t48 127.5q0 134 -65 206.5t-187 72.5h-102v182h115q151 0 151 201q0 124 -63.5 156t-107.5 32q-86 0 -129.5 -91t-43.5 -249v-858h-221v854
q0 383 152 455.5t244 72.5q175 0 282.5 -117.5t107.5 -252.5t-55.5 -195t-83.5 -78z" />
    <glyph glyph-name="agrave" unicode="&#xe0;" 
d="M351 184q42 -34 93 -34q87 0 160 60t82 132q4 30 4 74l-84 2q-240 4 -284 -96q-12 -28 -13 -66q0 -38 42 -72zM686 86q-118 -111 -282 -111q-155 0 -239 79q-83 79 -83 200q0 151 127 244q127 92 354 92h121q-2 109 -44 158t-132 49q-117 0 -238 -127l-116 151
q148 156 362 156q283 1 362 -217q27 -74 27 -178v-582h-219v86zM686 1126l-115 -67l-215 289l166 114z" />
    <glyph glyph-name="aacute" unicode="&#xe1;" 
d="M351 184q42 -34 93 -34q87 0 160 60t82 132q4 30 4 74l-84 2q-240 4 -284 -96q-12 -28 -13 -66q0 -38 42 -72zM686 86q-118 -111 -282 -111q-155 0 -239 79q-83 79 -83 200q0 151 127 244q127 92 354 92h121q-2 109 -44 158t-132 49q-117 0 -238 -127l-116 151
q148 156 362 156q283 1 362 -217q27 -74 27 -178v-582h-219v86zM571 1462l166 -114l-215 -289l-114 67z" />
    <glyph glyph-name="acircumflex" unicode="&#xe2;" 
d="M351 184q42 -34 93 -34q87 0 160 60t82 132q4 30 4 74l-84 2q-240 4 -284 -96q-12 -28 -13 -66q0 -38 42 -72zM686 86q-118 -111 -282 -111q-155 0 -239 79q-83 79 -83 200q0 151 127 244q127 92 354 92h121q-2 109 -44 158t-132 49q-117 0 -238 -127l-116 151
q148 156 362 156q283 1 362 -217q27 -74 27 -178v-582h-219v86zM268 1130l235 297h66l236 -299l-119 -88l-156 181l-164 -179z" />
    <glyph glyph-name="atilde" unicode="&#xe3;" 
d="M351 184q42 -34 93 -34q87 0 160 60t82 132q4 30 4 74l-84 2q-240 4 -284 -96q-12 -28 -13 -66q0 -38 42 -72zM686 86q-118 -111 -282 -111q-155 0 -239 79q-83 79 -83 200q0 151 127 244q127 92 354 92h121q-2 109 -44 158t-132 49q-117 0 -238 -127l-116 151
q148 156 362 156q283 1 362 -217q27 -74 27 -178v-582h-219v86zM452 1421q73 0 144 -69q51 -58 73 -58q34 0 57 27q22 27 62 90l113 -127q-76 -94 -120 -133t-89 -39q-88 0 -150 68t-94 67q-31 1 -55 -33t-58 -100l-141 103q125 204 258 204z" />
    <glyph glyph-name="adieresis" unicode="&#xe4;" 
d="M351 184q42 -34 93 -34q87 0 160 60t82 132q4 30 4 74l-84 2q-240 4 -284 -96q-12 -28 -13 -66q0 -38 42 -72zM686 86q-118 -111 -282 -111q-155 0 -239 79q-83 79 -83 200q0 151 127 244q127 92 354 92h121q-2 109 -44 158t-132 49q-117 0 -238 -127l-116 151
q148 156 362 156q283 1 362 -217q27 -74 27 -178v-582h-219v86zM826 1348q43 -38 43 -93t-42 -94t-85 -39q-73 0 -115 38q-41 38 -41 80q0 41 11 65t31 42q42 39 98 39q57 0 100 -38zM451 1348q43 -38 43 -93t-42 -94t-86 -39t-70 10t-46 29q-20 17 -30 41q-11 24 -11 51
t11 51q10 24 30 42q42 40 100 40t101 -38z" />
    <glyph glyph-name="aring" unicode="&#xe5;" 
d="M351 184q42 -34 93 -34q87 0 160 60t82 132q4 30 4 74l-84 2q-240 4 -284 -96q-12 -28 -13 -66q0 -38 42 -72zM686 86q-118 -111 -282 -111q-155 0 -239 79q-83 79 -83 200q0 151 127 244q127 92 354 92h121q-2 109 -44 158t-132 49q-117 0 -238 -127l-116 151
q148 156 362 156q283 1 362 -217q27 -74 27 -178v-582h-219v86zM446 1255q0 -31 19 -53t47 -22t47 22t19 53q0 32 -19 55t-47 23t-47 -23t-19 -55zM510 1456q88 0 152 -60t63 -143q0 -84 -63 -144t-152 -60q-88 0 -149 61q-62 60 -62 142t62 143q61 61 149 61z" />
    <glyph glyph-name="ae" unicode="&#xe6;" 
d="M827 625q0 129 -39.5 157.5t-66.5 28.5q-52 0 -83.5 -57.5t-31.5 -145.5l221 6v11zM203 264q0 -70 40 -92t60 -22q66 0 93.5 45.5t27.5 136.5v98q-221 -11 -221 -166zM524 100q-80 -125 -242 -125q-50 0 -105 24t-114 87t-59 178q0 148 113 240t301 98q0 99 -31.5 154
t-87.5 55q-83 0 -152 -113l-112 144q102 133 274 133q95 0 149.5 -47t71.5 -70q78 117 216 117q52 0 159 -58.5t107 -361.5v-100l-406 -17v-73q0 -156 62 -189t100 -33q81 0 143 105l113 -139q-111 -134 -260 -134t-240 125z" />
    <glyph glyph-name="ccedilla" unicode="&#xe7;" 
d="M815 -195q0 -86 -69 -140t-203 -54t-248 94l76 129q84 -70 132.5 -77t76.5 -7t38.5 12t10.5 23t-14 22t-40 11h-100l21 153q-186 20 -302 158.5t-116 347.5t136 354.5t336 145.5q273 0 396 -184l-147 -172q-17 4 -20.5 24t-6.5 29q-65 112 -209 112q-106 0 -179 -87
t-73 -220t70.5 -224t194.5 -91t229 127l133 -154q-113 -130 -279 -160l-4 -40q78 -8 119 -47t41 -85z" />
    <glyph glyph-name="egrave" unicode="&#xe8;" 
d="M707 582q0 92 -52 158q-52 65 -138 65q-85 0 -139 -60q-55 -60 -67 -163h396zM915 139q-145 -172 -359 -172t-347 134t-133 367q0 232 127 370q127 139 314 139t303 -122t116 -345q0 -27 -6 -96h-627q15 -129 86 -196q71 -68 164 -68q143 0 235 116zM686 1126l-115 -67
l-215 289l166 114z" />
    <glyph glyph-name="eacute" unicode="&#xe9;" 
d="M707 582q0 92 -52 158q-52 65 -138 65q-85 0 -139 -60q-55 -60 -67 -163h396zM915 139q-145 -172 -359 -172t-347 134t-133 367q0 232 127 370q127 139 314 139t303 -122t116 -345q0 -27 -6 -96h-627q15 -129 86 -196q71 -68 164 -68q143 0 235 116zM571 1462l166 -114
l-215 -289l-114 67z" />
    <glyph glyph-name="ecircumflex" unicode="&#xea;" 
d="M707 582q0 92 -52 158q-52 65 -138 65q-85 0 -139 -60q-55 -60 -67 -163h396zM915 139q-145 -172 -359 -172t-347 134t-133 367q0 232 127 370q127 139 314 139t303 -122t116 -345q0 -27 -6 -96h-627q15 -129 86 -196q71 -68 164 -68q143 0 235 116zM254 1130l235 297h66
l236 -299l-119 -88l-156 181l-164 -179z" />
    <glyph glyph-name="edieresis" unicode="&#xeb;" 
d="M707 582q0 92 -52 158q-52 65 -138 65q-85 0 -139 -60q-55 -60 -67 -163h396zM915 139q-145 -172 -359 -172t-347 134t-133 367q0 232 127 370q127 139 314 139t303 -122t116 -345q0 -27 -6 -96h-627q15 -129 86 -196q71 -68 164 -68q143 0 235 116zM803 1348
q43 -38 43 -93t-42 -94t-85 -39q-73 0 -115 38q-41 38 -41 80q0 41 11 65q10 24 30 42q42 39 99 39t100 -38zM428 1348q43 -38 43 -93t-42 -94t-86 -39t-70 10q-25 10 -45 29q-20 17 -31 41t-11 51t11 51t31 42q42 40 99 40q58 0 101 -38z" />
    <glyph glyph-name="igrave" unicode="&#xec;" 
d="M193 956h448v-772h209v-184h-668v184h230v588h-219v184zM585 1126l-115 -67l-215 289l166 114z" />
    <glyph glyph-name="iacute" unicode="&#xed;" 
d="M193 956h448v-772h209v-184h-668v184h230v588h-219v184zM556 1462l166 -114l-215 -289l-114 67z" />
    <glyph glyph-name="icircumflex" unicode="&#xee;" 
d="M193 956h448v-772h209v-184h-668v184h230v588h-219v184zM214 1130l235 297h66l236 -299l-119 -88l-156 181l-164 -179z" />
    <glyph glyph-name="idieresis" unicode="&#xef;" 
d="M193 956h448v-772h209v-184h-668v184h230v588h-219v184zM786 1348q43 -38 43 -93t-42 -94t-85 -39q-73 0 -115 38q-41 38 -41 80q0 41 11 65t31 42q42 39 98 39q57 0 100 -38zM411 1348q43 -38 43 -93t-42 -94t-86 -39t-70 10t-46 29q-20 17 -30 41q-11 24 -11 51t11 51
q10 24 30 42q42 40 100 40t101 -38z" />
    <glyph glyph-name="eth" unicode="&#xf0;" 
d="M650 201.5q79 41.5 79 271.5q0 153 -58.5 227t-148.5 74t-148.5 -79t-58.5 -219q0 -139 58 -227.5t152 -88.5q46 0 125 41.5zM762 1147q201 -265 201 -642t-165.5 -457.5t-268.5 -80.5q-197 0 -325 139.5t-128 349.5t118.5 359.5t301.5 149.5q78 0 128.5 -29t69.5 -47
q-58 121 -125 198l-254 -71l-61 162l170 43q-93 68 -197 125l246 55q91 -59 160 -119l235 61l58 -153z" />
    <glyph glyph-name="ntilde" unicode="&#xf1;" 
d="M696 578q0 210 -137 210q-88 0 -146 -66q-59 -66 -59 -169v-553h-231v956h231v-98q110 119 250 119q318 0 318 -397v-580h-226v578zM427 1421q73 0 144 -69q51 -58 73 -58q34 0 57 27q22 27 62 90l113 -127q-76 -94 -120 -133t-89 -39q-88 0 -150 68t-94 67
q-31 1 -55 -33t-58 -100l-141 103q125 204 258 204z" />
    <glyph glyph-name="ograve" unicode="&#xf2;" 
d="M295 477q0 -148 60 -236q60 -87 162 -87q101 0 161 81t59 234q0 153 -62 238q-62 86 -161 86q-153 1 -203 -183q-16 -58 -16 -133zM192 109q-133 142 -133 359t135 363t326 146t318 -135t127 -369q0 -233 -125 -369q-125 -137 -321 -137q-194 0 -327 142zM686 1126
l-115 -67l-215 289l166 114z" />
    <glyph glyph-name="oacute" unicode="&#xf3;" 
d="M295 477q0 -148 60 -236q60 -87 162 -87q101 0 161 81t59 234q0 153 -62 238q-62 86 -161 86q-153 1 -203 -183q-16 -58 -16 -133zM192 109q-133 142 -133 359t135 363t326 146t318 -135t127 -369q0 -233 -125 -369q-125 -137 -321 -137q-194 0 -327 142zM571 1462
l166 -114l-215 -289l-114 67z" />
    <glyph glyph-name="ocircumflex" unicode="&#xf4;" 
d="M295 477q0 -148 60 -236q60 -87 162 -87q101 0 161 81t59 234q0 153 -62 238q-62 86 -161 86q-153 1 -203 -183q-16 -58 -16 -133zM192 109q-133 142 -133 359t135 363t326 146t318 -135t127 -369q0 -233 -125 -369q-125 -137 -321 -137q-194 0 -327 142zM254 1130
l235 297h66l236 -299l-119 -88l-156 181l-164 -179z" />
    <glyph glyph-name="otilde" unicode="&#xf5;" 
d="M295 477q0 -148 60 -236q60 -87 162 -87q101 0 161 81t59 234q0 153 -62 238q-62 86 -161 86q-153 1 -203 -183q-16 -58 -16 -133zM192 109q-133 142 -133 359t135 363t326 146t318 -135t127 -369q0 -233 -125 -369q-125 -137 -321 -137q-194 0 -327 142zM434 1421
q73 0 144 -69q51 -58 73 -58q34 0 57 27q22 27 62 90l113 -127q-76 -94 -120 -133t-89 -39q-88 0 -150 68t-94 67q-31 1 -55 -33t-58 -100l-141 103q125 204 258 204z" />
    <glyph glyph-name="odieresis" unicode="&#xf6;" 
d="M295 477q0 -148 60 -236q60 -87 162 -87q101 0 161 81t59 234q0 153 -62 238q-62 86 -161 86q-153 1 -203 -183q-16 -58 -16 -133zM192 109q-133 142 -133 359t135 363t326 146t318 -135t127 -369q0 -233 -125 -369q-125 -137 -321 -137q-194 0 -327 142zM801 1348
q43 -38 43 -93t-42 -94t-85 -39q-73 0 -115 38q-41 38 -41 80q0 41 11 65q10 24 30 42q42 39 99 39t100 -38zM426 1348q43 -38 43 -93t-42 -94t-86 -39t-70 10q-25 10 -45 29q-20 17 -31 41t-11 51t11 51t31 42q42 40 99 40q58 0 101 -38z" />
    <glyph glyph-name="divide" unicode="&#xf7;" 
d="M617.5 449q35.5 -40 35.5 -74q0 -59 -38.5 -94t-78.5 -35q-66 0 -106.5 35t-40.5 74t11.5 61.5t40.5 47.5t85 25t91.5 -40zM615.5 1030q37.5 -41 37.5 -74q0 -34 -10.5 -56t-28 -38.5t-41.5 -26.5t-63.5 -10t-79 36t-39.5 73t11 60t39.5 50t82.5 27t91.5 -41zM127 762
h772v-203h-772v203z" />
    <glyph glyph-name="oslash" unicode="&#xf8;" 
d="M504 793q-90 0 -149.5 -85.5t-59.5 -230.5q0 -91 20 -153l250 462q-22 7 -61 7zM737 469q0 93 -24 164l-258 -471q24 -8 63 -8q100 0 159.5 81t59.5 234zM829 848q136 -140 136 -374t-125 -370.5t-322 -136.5q-80 0 -156 29l-71 -135l-176 92l82 151q-138 142 -138 362
q0 219 135 365t326 146q70 0 137 -21l64 115l178 -96z" />
    <glyph glyph-name="ugrave" unicode="&#xf9;" 
d="M680 90q-88 -131 -278 -131q-54 0 -114 22q-184 69 -184 377v598h226v-598q0 -110 38 -160t90 -51q96 0 155 67t59 169v573h231v-841q0 -41 19 -115h-222q-20 15 -20 59v31zM686 1126l-115 -67l-215 289l166 114z" />
    <glyph glyph-name="uacute" unicode="&#xfa;" 
d="M680 90q-88 -131 -278 -131q-54 0 -114 22q-184 69 -184 377v598h226v-598q0 -110 38 -160t90 -51q96 0 155 67t59 169v573h231v-841q0 -41 19 -115h-222q-20 15 -20 59v31zM571 1462l166 -114l-215 -289l-114 67z" />
    <glyph glyph-name="ucircumflex" unicode="&#xfb;" 
d="M680 90q-88 -131 -278 -131q-54 0 -114 22q-184 69 -184 377v598h226v-598q0 -110 38 -160t90 -51q96 0 155 67t59 169v573h231v-841q0 -41 19 -115h-222q-20 15 -20 59v31zM254 1130l235 297h66l236 -299l-119 -88l-156 181l-164 -179z" />
    <glyph glyph-name="udieresis" unicode="&#xfc;" 
d="M680 90q-88 -131 -278 -131q-54 0 -114 22q-184 69 -184 377v598h226v-598q0 -110 38 -160t90 -51q96 0 155 67t59 169v573h231v-841q0 -41 19 -115h-222q-20 15 -20 59v31zM801 1348q43 -38 43 -93t-42 -94t-85 -39q-73 0 -115 38q-41 38 -41 80q0 41 11 65q10 24 30 42
q42 39 99 39t100 -38zM426 1348q43 -38 43 -93t-42 -94t-86 -39t-70 10q-25 10 -45 29q-20 17 -31 41t-11 51t11 51t31 42q42 40 99 40q58 0 101 -38z" />
    <glyph glyph-name="yacute" unicode="&#xfd;" 
d="M182 -134q24 -42 76 -42t80 31q48 55 84 157l-359 944h281l-14 -65l213 -594l92 252q73 195 117 407h219q-46 -190 -144 -438l-237 -622q-97 -258 -314 -258q-141 0 -253 108l114 197q18 -9 23 -24q5 -14 8 -24q4 -11 14 -29zM571 1462l166 -114l-215 -289l-114 67z" />
    <glyph glyph-name="thorn" unicode="&#xfe;" 
d="M553 977q172 0 287.5 -125t115.5 -366q0 -240 -117.5 -378.5t-283.5 -138.5q-88 0 -144 35.5t-77 58.5v-405h-232v1724h258q0 -17 -13.5 -33t-14.5 -26v-449q93 103 221 103zM506 791q-176 1 -176 -315t186 -316q80 0 144.5 74.5t64.5 232.5q0 242 -83.5 283t-135.5 41z
" />
    <glyph glyph-name="ydieresis" unicode="&#xff;" 
d="M182 -134q24 -42 76 -42t80 31q48 55 84 157l-359 944h281l-14 -65l213 -594l92 252q73 195 117 407h219q-46 -190 -144 -438l-237 -622q-97 -258 -314 -258q-141 0 -253 108l114 197q18 -9 23 -24q5 -14 8 -24q4 -11 14 -29zM801 1348q43 -38 43 -93t-42 -94t-85 -39
q-73 0 -115 38q-41 38 -41 80q0 41 11 65q10 24 30 42q42 39 99 39t100 -38zM426 1348q43 -38 43 -93t-42 -94t-86 -39t-70 10q-25 10 -45 29q-20 17 -31 41t-11 51t11 51t31 42q42 40 99 40q58 0 101 -38z" />
    <glyph glyph-name="Abreve" unicode="&#x102;" 
d="M629 489l-133 424l-125 -424h258zM0 0l426 1298h133l467 -1298h-240l-116 330h-334l-100 -330h-236zM825 1507q-145 -174 -349 -174q-62 -1 -146 39q-86 40 -172 131l125 152q43 -76 101 -111t118 -35q131 0 225 146z" />
    <glyph glyph-name="abreve" unicode="&#x103;" 
d="M351 184q42 -34 93 -34q87 0 160 60t82 132q4 30 4 74l-84 2q-240 4 -284 -96q-12 -28 -13 -66q0 -38 42 -72zM686 86q-118 -111 -282 -111q-155 0 -239 79q-83 79 -83 200q0 151 127 244q127 92 354 92h121q-2 109 -44 158t-132 49q-117 0 -238 -127l-116 151
q148 156 362 156q283 1 362 -217q27 -74 27 -178v-582h-219v86zM860 1235q-141 -174 -349 -174q-61 -1 -147 39t-172 131l125 151q43 -75 101 -110t118 -35q130 0 225 145z" />
    <glyph glyph-name="Aogonek" unicode="&#x104;" 
d="M627 489l-131 388l-123 -388h254zM849 -373q-92 0 -137.5 42t-45.5 101t29 106t114 124h-23l-116 330h-334l-100 -330h-236l424 1307h137l467 -1307q-48 -45 -79 -73.5t-56 -55t-25 -47.5q0 -33 32 -33t66 27.5t62 52.5v-178q-87 -66 -179 -66z" />
    <glyph glyph-name="aogonek" unicode="&#x105;" 
d="M606 418q-297 0 -297 -152q0 -75 55.5 -95.5t93.5 -20.5q74 0 133.5 48t82.5 99q16 25 16 119q-21 2 -26 2h-58zM686 86q-118 -111 -282 -111q-155 0 -238.5 79t-83.5 200q0 151 127 243.5t354 92.5h121q-2 109 -44 158t-132 49q-117 0 -238 -127l-116 151
q148 156 362 156q283 0 336 -146t53 -249v-582q-48 -45 -79 -73.5t-56 -55t-25 -47.5q0 -33 32 -33t66 27.5t62 52.5v-178q-87 -66 -179 -66t-137.5 42t-45.5 101t29 106t114 124v86z" />
    <glyph glyph-name="Cacute" unicode="&#x106;" 
d="M588 -37q-240 0 -385 170q-144 170 -144 498q1 451 275 613q109 64 233 65q219 -1 359 -173q44 -54 71 -118l-206 -103q-14 5 -15 18q-5 89 -86 151q-50 38 -118 38q-129 0 -202 -132t-73 -345q0 -214 78 -351q78 -138 208 -138q129 0 226 170l174 -113
q-72 -124 -175 -187t-220 -63zM730 1468l-369 -129l-55 101l313 231z" />
    <glyph glyph-name="cacute" unicode="&#x107;" 
d="M938 137q-151 -170 -371 -170t-355 143q-134 143 -134 359q0 217 136 363q136 145 336 145q273 0 396 -184l-147 -172q-17 4 -20 24q-4 20 -7 29q-65 112 -209 112q-106 0 -179 -87t-73 -220t71 -224t194 -91q124 0 229 127zM571 1462l166 -114l-215 -289l-114 67z" />
    <glyph glyph-name="Ccaron" unicode="&#x10c;" 
d="M588 -37q-240 0 -385 170q-144 170 -144 498q1 451 275 613q109 64 233 65q219 -1 359 -173q44 -54 71 -118l-206 -103q-14 5 -15 18q-5 89 -86 151q-50 38 -118 38q-129 0 -202 -132t-73 -345q0 -214 78 -351q78 -138 208 -138q129 0 226 170l174 -113
q-72 -124 -175 -187t-220 -63zM860 1550l-272 -221h-63l-258 217l77 92l215 -135l232 129z" />
    <glyph glyph-name="ccaron" unicode="&#x10d;" 
d="M938 137q-151 -170 -371 -170t-355 143q-134 143 -134 359q0 217 136 363q136 145 336 145q273 0 396 -184l-147 -172q-17 4 -20 24q-4 20 -7 29q-65 112 -209 112q-106 0 -179 -87t-73 -220t71 -224t194 -91q124 0 229 127zM791 1348l-236 -297h-66l-235 299l119 88
l155 -181l164 179z" />
    <glyph glyph-name="Dcaron" unicode="&#x10e;" 
d="M391 180q354 0 354 452t-333 453h-99v-905h78zM90 1276h330q234 0 354 -102q202 -173 201 -545q0 -459 -316 -585q-110 -44 -264 -44h-305v1276zM777 1550l-272 -221h-63l-258 217l77 92l215 -135l232 129z" />
    <glyph glyph-name="dcaron" unicode="&#x10f;" 
d="M551 474q0 154 -33 235.5t-123 81.5q-157 0 -172.5 -130t-15.5 -205q0 -146 54 -221t128 -75q162 0 162 314zM559 88q-61 -119 -227 -119q-52 0 -122 30.5t-152.5 128t-82.5 333.5t112.5 376t266.5 140q80 0 130 -39t65 -57v501h252q0 -15 -14 -32t-15 -27v-1208
q0 -41 19 -115h-211q-21 15 -21 59v29zM1059 1222q0 -126 -156 -315l-104 90q59 67 74.5 109t15.5 49t-18 27t-35 41t-17 51q0 57 34 92t72 35q62 0 98 -46t36 -133z" />
    <glyph glyph-name="Dcroat" unicode="&#x110;" 
d="M391 180q354 0 354 452t-333 453h-99v-317h193v-188h-193v-400h78zM90 580h-80v188h80v508h330q234 0 394.5 -137.5t160.5 -509.5q0 -459 -213 -544t-367 -85h-305v580z" />
    <glyph glyph-name="dcroat" unicode="&#x111;" 
d="M502 160q188 0 188 316t-178 315q-87 0 -143 -62q-76 -81 -76 -250t64.5 -244t144.5 -75zM698 88q-66 -119 -256 -119q-58 0 -131.5 30.5t-161.5 128t-88 333.5t118.5 376t287.5 140q125 0 221 -96v194h-131v176h131v131h258q0 -15 -13.5 -32.5t-14.5 -26.5v-72h88v-176
h-88v-960q0 -45 18 -115h-217q-21 15 -21 59v29z" />
    <glyph glyph-name="Eogonek" unicode="&#x118;" 
d="M625.5 -331q-45.5 42 -45.5 98t36.5 104t126.5 129h-628v1276h831v-197h-608v-315h504v-201h-504v-366h604v-197q-48 -45 -79 -73.5t-56 -55t-25 -47.5q0 -33 32 -33t66 27.5t62 52.5v-178q-87 -66 -179 -66t-137.5 42z" />
    <glyph glyph-name="eogonek" unicode="&#x119;" 
d="M707 582q0 92 -52.5 157.5t-137.5 65.5t-139.5 -59.5t-66.5 -163.5h396zM513 -33q-188 0 -312.5 134t-124.5 366t127 371t314 139t303 -122t116 -345q0 -27 -6 -96h-627q15 -129 85.5 -196.5t164.5 -67.5q143 0 235 116l127 -129l-127 -168q-61 -81 -61 -119
q0 -39 17 -49t32 -10q55 0 129 80v-178q-87 -66 -179 -66t-137.5 42t-45.5 108q0 92 139 225q-79 -35 -169 -35z" />
    <glyph glyph-name="Ecaron" unicode="&#x11a;" 
d="M115 1276h831v-197h-608v-315h504v-201h-504v-366h604v-197h-827v1276zM827 1550l-272 -221h-63l-258 217l77 92l215 -135l232 129z" />
    <glyph glyph-name="ecaron" unicode="&#x11b;" 
d="M707 582q0 92 -52 158q-52 65 -138 65q-85 0 -139 -60q-55 -60 -67 -163h396zM915 139q-145 -172 -359 -172t-347 134t-133 367q0 232 127 370q127 139 314 139t303 -122t116 -345q0 -27 -6 -96h-627q15 -129 86 -196q71 -68 164 -68q143 0 235 116zM791 1348l-236 -297
h-66l-235 299l119 88l155 -181l164 179z" />
    <glyph glyph-name="Gbreve" unicode="&#x11e;" 
d="M33 639q0 248 85 398q84 149 216 217q106 54 195 55q288 0 427 -250l-143 -146q-43 19 -55 47q-4 8 -12 26q-20 46 -76 87t-114 41q-123 0 -204 -114q-82 -114 -82 -345q0 -232 79 -364q79 -133 199 -133q119 0 187 53v240h-217v194h434v-536q-174 -146 -410 -146
q-235 0 -372 186t-137 490zM864 1519q-144 -174 -348 -174q-62 -1 -148 39t-171 131l125 152q44 -76 102 -111t117 -35q131 0 225 146z" />
    <glyph glyph-name="gbreve" unicode="&#x11f;" 
d="M276 -80q0 -104 232 -104q153 0 208 70q17 22 19 48q-7 86 -119 86q-173 0 -268 7q-72 -43 -72 -107zM246 397q-131 81 -131 263q1 54 31 116q30 64 81 110q109 100 243 99q134 0 222 -67q91 61 211 61h66l30 -195q-82 13 -116 13q-33 0 -78 -17q33 -75 33 -138
q0 -130 -106 -228q-106 -97 -255 -97q-49 0 -84 11q-61 -41 -61 -78q0 -47 104 -47l142 6q368 0 368 -258q0 -125 -115 -215t-331 -90t-325 69t-109 176q0 79 74 150q23 22 50 39q-61 44 -61 132q0 89 117 185zM370 766q-42 -43 -42 -117q0 -103 86 -143q28 -12 62 -12
t62 12t48 34q20 21 29 49q10 28 10 60t-10 61q-9 29 -29 51q-43 48 -108 48q-66 0 -108 -43zM860 1235q-141 -174 -349 -174q-61 -1 -147 39t-172 131l125 151q43 -75 101 -110t118 -35q130 0 225 145z" />
    <glyph glyph-name="Idotaccent" unicode="&#x130;" 
d="M162 1276h712v-191h-247v-897h258v-188h-735v190h247v895h-235v191zM526 1667q32 -1 58 -11t46 -28t32 -42t12 -52q0 -54 -44 -94q-44 -39 -87 -39q-73 0 -115 40q-43 40 -43 92q1 53 29 82t54 41t58 11z" />
    <glyph glyph-name="dotlessi" unicode="&#x131;" 
d="M193 956h448v-772h209v-184h-668v184h230v588h-219v184z" />
    <glyph glyph-name="kgreenlandic" unicode="&#x138;" 
d="M123 958h260q0 -18 -14 -32t-15 -25v-297l367 363q73 -17 117 -17h149l-391 -377q61 -73 217 -285.5t215 -285.5l-280 -10l-316 440l-78 -74v-358h-231v958z" />
    <glyph glyph-name="Lacute" unicode="&#x139;" 
d="M940 193v-193h-815v1276h250q4 -4 4 -11q1 -7 -7 -19t-12 -42v-1011h580zM730 1468l-369 -129l-55 101l313 231z" />
    <glyph glyph-name="lacute" unicode="&#x13a;" 
d="M150 1382h479v-1204h262v-178h-754v178h262v1026h-249v178zM730 1556l-369 -129l-55 101l313 231z" />
    <glyph glyph-name="Lcaron" unicode="&#x13d;" 
d="M940 193v-193h-815v1276h250q4 -4 4 -11q1 -7 -7 -19t-12 -42v-1011h580zM697 1077q0 3 -21 23t-39 41t-18 51q0 58 39 92q39 35 83 35q73 1 119 -45t46 -117q0 -137 -205 -342l-119 103q115 110 115 159z" />
    <glyph glyph-name="lcaron" unicode="&#x13e;" 
d="M116 1382h479v-1204h262v-178h-754v178h262v1026h-249v178zM795 1159q0 3 -21 23t-39 41t-18 51q0 58 39 92q39 35 83 35q73 1 119 -45t46 -117q0 -137 -205 -342l-119 102q115 110 115 160z" />
    <glyph glyph-name="Lslash" unicode="&#x141;" 
d="M940 195v-193h-815v451l-115 -37v194l115 37v629h250q4 -4 4 -11t-7.5 -18.5t-11.5 -42.5v-480l283 93q37 17 74 47v-219l-357 -116v-334h580z" />
    <glyph glyph-name="lslash" unicode="&#x142;" 
d="M150 1382h479v-579l57 20q18 9 115 68v-232l-172 -58v-423h262v-178h-754v178h262v346l-151 -51v199l151 52v480h-249v178z" />
    <glyph glyph-name="Nacute" unicode="&#x143;" 
d="M958 0h-253l-433 965v-965h-206v1276h280l406 -914v914h221q4 -4 4 -11q1 -7 -7 -19t-12 -42v-1204zM730 1468l-369 -129l-55 101l313 231z" />
    <glyph glyph-name="nacute" unicode="&#x144;" 
d="M696 578q0 210 -137 210q-88 0 -146 -66q-59 -66 -59 -169v-553h-231v956h231v-98q110 119 250 119q318 0 318 -397v-580h-226v578zM571 1462l166 -114l-215 -289l-114 67z" />
    <glyph glyph-name="Ncaron" unicode="&#x147;" 
d="M958 0h-253l-433 965v-965h-206v1276h280l406 -914v914h221q4 -4 4 -11q1 -7 -7 -19t-12 -42v-1204zM827 1550l-272 -221h-63l-258 217l77 92l215 -135l232 129z" />
    <glyph glyph-name="ncaron" unicode="&#x148;" 
d="M696 578q0 210 -137 210q-88 0 -146 -66q-59 -66 -59 -169v-553h-231v956h231v-98q110 119 250 119q318 0 318 -397v-580h-226v578zM791 1348l-236 -297h-66l-235 299l119 88l155 -181l164 179z" />
    <glyph glyph-name="Eng" unicode="&#x14a;" 
d="M569 1307q363 0 363 -443v-508q0 -293 -131 -344t-197 -51q-117 0 -239 74l106 186q18 0 29 -18q28 -45 98 -45q102 0 102 190v512q0 250 -153 250q-91 0 -165.5 -76.5t-74.5 -189.5v-844h-237v1276h237v-94q125 125 262 125z" />
    <glyph glyph-name="eng" unicode="&#x14b;" 
d="M696 578q0 210 -137 210q-88 0 -146.5 -66t-58.5 -169v-553h-231v956h231v-98q110 119 250 119q318 0 318 -397v-471q0 -240 -99.5 -358t-265.5 -118q-118 0 -238 93l103 200q15 -5 21.5 -15.5t14.5 -22.5q39 -53 103 -52q135 0 135 252v490z" />
    <glyph glyph-name="omacron" unicode="&#x14d;" 
d="M295 477q0 -148 60 -236q60 -87 162 -87q101 0 161 81t59 234q0 153 -62 238q-62 86 -161 86q-153 1 -203 -183q-16 -58 -16 -133zM192 109q-133 142 -133 359t135 363t326 146t318 -135t127 -369q0 -233 -125 -369q-125 -137 -321 -137q-194 0 -327 142zM221 1313h574
v-180h-574v180z" />
    <glyph glyph-name="Ohungarumlaut" unicode="&#x150;" 
d="M272 660q0 -236 67 -362t177 -126q160 0 214 246q20 90 20 222q0 238 -69 351t-163 113q-172 0 -226 -234q-20 -86 -20 -210zM514 -37q-222 0 -351 189q-128 189 -128 489t131 484t342 184q212 0 347 -173q134 -173 134 -497q0 -452 -247 -610q-103 -66 -228 -66z
M471 1686l119 -170l-318 -209l-77 98zM838 1686l118 -170l-317 -209l-78 98z" />
    <glyph glyph-name="ohungarumlaut" unicode="&#x151;" 
d="M295 477q0 -148 60 -236q60 -87 162 -87q101 0 161 81t59 234q0 153 -62 238q-62 86 -161 86q-153 1 -203 -183q-16 -58 -16 -133zM192 109q-133 142 -133 359t135 363t326 146t318 -135t127 -369q0 -233 -125 -369q-125 -137 -321 -137q-194 0 -327 142zM729 1462
l166 -114l-215 -289l-115 67zM412 1462l166 -114l-216 -289l-114 67z" />
    <glyph glyph-name="OE" unicode="&#x152;" 
d="M369 1104q-144 0 -144 -461t160 -461q38 0 62 30t30 83v682q-26 127 -108 127zM6 638q0 326 94.5 491t268.5 165q67 0 120 -47v31h521v-197h-318v-317h269v-199h-269v-368h314v-197h-519v33q-58 -47 -132 -47q-160 0 -254.5 163t-94.5 489z" />
    <glyph glyph-name="oe" unicode="&#x153;" 
d="M342 784q-129 0 -129 -331q0 -119 35 -204t100 -85q23 0 36 12t13 22t-12 78t-12 217t8 190t8 42v8q0 51 -47 51zM692 795q-102 0 -108 -189h221q-2 103 -30.5 146t-82.5 43zM332 -29q-219 0 -272.5 178.5t-53.5 319.5q0 259 97 381.5t241 122.5q102 0 180 -88
q88 88 187 88q142 0 221.5 -103t79.5 -290v-156h-430q3 -213 61.5 -239.5t88.5 -26.5q53 0 91.5 25.5t89.5 80.5l119 -149q-142 -146 -291 -146q-90 0 -148 33.5t-75 50.5q-82 -82 -186 -82z" />
    <glyph glyph-name="Racute" unicode="&#x154;" 
d="M330 1073v-350h184q150 0 186 102q12 32 11 70q0 90 -47 134t-150 44h-184zM96 1276h404q341 0 421 -225q25 -70 25 -139q0 -123 -67 -222t-177 -135l299 -555h-258l-264 528h-149v-528h-234v1276zM730 1468l-369 -129l-55 101l313 231z" />
    <glyph glyph-name="racute" unicode="&#x155;" 
d="M854 649q-96 133 -194 133t-172 -83t-74 -199v-500h-232v956h236v-104q111 125 271 125q161 0 272 -105zM571 1462l166 -114l-215 -289l-114 67z" />
    <glyph glyph-name="Rcaron" unicode="&#x158;" 
d="M330 1073v-350h184q150 0 186 102q12 32 11 70q0 90 -47 134t-150 44h-184zM96 1276h404q341 0 421 -225q25 -70 25 -139q0 -123 -67 -222t-177 -135l299 -555h-258l-264 528h-149v-528h-234v1276zM827 1550l-272 -221h-63l-258 217l77 92l215 -135l232 129z" />
    <glyph glyph-name="rcaron" unicode="&#x159;" 
d="M854 649q-96 133 -194 133t-172 -83t-74 -199v-500h-232v956h236v-104q111 125 271 125q161 0 272 -105zM791 1348l-236 -297h-66l-235 299l119 88l155 -181l164 179z" />
    <glyph glyph-name="Sacute" unicode="&#x15a;" 
d="M508 160q201 0 201 180q0 61 -55 110q-55 50 -173 97q-210 84 -296 180q-85 96 -85 235t118 243t300 104q116 0 218 -49t173 -142l-129 -172q-24 2 -29 14q-6 12 -8 22t-8 19q-34 51 -95 85q-60 34 -120 34q-94 0 -138 -41t-44 -87q0 -83 56 -136t184 -104
q128 -52 192 -94t102 -90q70 -86 70 -216q0 -259 -244 -355q-86 -34 -212 -34q-248 0 -429 193l117 204q19 -5 27 -18t13 -23q6 -10 20 -29q41 -53 111 -92q70 -38 163 -38zM730 1468l-369 -129l-55 101l313 231z" />
    <glyph glyph-name="sacute" unicode="&#x15b;" 
d="M688 250q0 66 -98 104q-35 14 -102 34q-67 19 -109 35q-42 17 -86 43q-45 26 -75 59t-46 75t-16 92q0 107 110 196t269 89q227 0 374 -166l-110 -166q-14 0 -18 11q-4 10 -6 18q-3 8 -13 22q-29 39 -98 71q-70 32 -120 32q-174 0 -175 -75q-1 -34 13 -52t48 -37t182 -59
t228 -115t80 -172q0 -132 -113 -227t-295 -95q-244 0 -416 162l119 215q12 -2 18 -14t15 -35q31 -51 113 -95t155 -44q172 0 172 94zM571 1462l166 -114l-215 -289l-114 67z" />
    <glyph glyph-name="Scedilla" unicode="&#x15e;" 
d="M508 160q201 0 201 180q0 61 -55.5 110.5t-172.5 96.5q-210 84 -295.5 180t-85.5 235t118 243t300 104q116 0 218 -49t173 -142l-129 -172q-24 2 -29.5 14.5t-7.5 22t-8 18.5q-34 51 -94.5 85t-120.5 34q-94 0 -138 -41.5t-44 -86.5q0 -83 56.5 -136t183.5 -104
q127 -52 191.5 -94.5t118.5 -109t54 -196.5q0 -222 -126 -294t-218 -87l-4 -34q77 -8 118.5 -47t41.5 -85q0 -86 -69 -140t-203 -54t-249 94l76 129q84 -70 132.5 -77t76.5 -7t38.5 12t10.5 23t-13.5 22t-39.5 11h-100l18 147q-222 23 -375 191l117 204q19 -5 27 -18
t13.5 -23t19.5 -29q41 -53 111 -91.5t163 -38.5z" />
    <glyph glyph-name="scedilla" unicode="&#x15f;" 
d="M688 250q0 67 -66.5 92.5t-133.5 45t-109 35.5t-86 42.5t-74.5 59.5t-46.5 74.5t-16 120.5t110 168t269 89q227 0 374 -166l-110 -166q-14 0 -18 11t-6.5 18.5t-12.5 21.5q-29 39 -98.5 71t-119.5 32q-174 0 -175 -75q0 -35 13.5 -52.5t48 -36t181.5 -59.5
q147 -40 227.5 -115t80.5 -181t-87.5 -194.5t-234.5 -112.5l-4 -36q77 -8 118.5 -47t41.5 -85q0 -86 -69 -140t-203 -54t-249 94l76 129q84 -70 132.5 -77t76.5 -7t38.5 12t10.5 23t-13.5 22t-39.5 11h-100l20 153q-195 22 -338 158l119 215q12 -2 18 -14.5t15 -34.5
q31 -51 112.5 -95t155.5 -44q172 0 172 94z" />
    <glyph glyph-name="Scaron" unicode="&#x160;" 
d="M508 160q201 0 201 180q0 61 -55 110q-55 50 -173 97q-210 84 -296 180q-85 96 -85 235t118 243t300 104q116 0 218 -49t173 -142l-129 -172q-24 2 -29 14q-6 12 -8 22t-8 19q-34 51 -95 85q-60 34 -120 34q-94 0 -138 -41t-44 -87q0 -83 56 -136t184 -104
q128 -52 192 -94t102 -90q70 -86 70 -216q0 -259 -244 -355q-86 -34 -212 -34q-248 0 -429 193l117 204q19 -5 27 -18t13 -23q6 -10 20 -29q41 -53 111 -92q70 -38 163 -38zM837 1552l-272 -221h-63l-258 217l77 92l215 -135l232 129z" />
    <glyph glyph-name="scaron" unicode="&#x161;" 
d="M688 250q0 66 -98 104q-35 14 -102 34q-67 19 -109 35q-42 17 -86 43q-45 26 -75 59t-46 75t-16 92q0 107 110 196t269 89q227 0 374 -166l-110 -166q-14 0 -18 11q-4 10 -6 18q-3 8 -13 22q-29 39 -98 71q-70 32 -120 32q-174 0 -175 -75q-1 -34 13 -52t48 -37t182 -59
t228 -115t80 -172q0 -132 -113 -227t-295 -95q-244 0 -416 162l119 215q12 -2 18 -14t15 -35q31 -51 113 -95t155 -44q172 0 172 94zM791 1348l-236 -297h-66l-235 299l119 88l155 -181l164 179z" />
    <glyph glyph-name="Tcedilla" unicode="&#x162;" 
d="M41 1276h940v-199h-360v-1077h-39l-9 -63q78 -8 119 -47t41 -85q0 -86 -69 -140t-203 -54t-248 94l76 129q84 -70 132.5 -77t76.5 -7t38.5 12t10.5 23t-13.5 22t-39.5 11h-101l25 182h-31v1077h-346v199z" />
    <glyph glyph-name="tcedilla" unicode="&#x163;" 
d="M303 354q0 175 19 416h-207v186h219l14 224l254 43q0 -26 -8 -43t-14 -39l-21 -185h289v-186h-297q-3 -74 -9.5 -153t-6.5 -157q0 -168 20.5 -230t88.5 -62t216 113l72 -189q-125 -89 -236 -112l-4 -43q78 -8 119 -47t41 -85q0 -86 -69 -140t-203 -54t-248 94l76 129
q84 -70 132 -77t76 -7t39 12t11 23t-14 22t-40 11h-100l20 155q-119 20 -174 113t-55 268z" />
    <glyph glyph-name="Tcaron" unicode="&#x164;" 
d="M41 1276h940v-199h-360v-1077h-234v1077h-346v199zM827 1550l-272 -221h-63l-258 217l77 92l215 -135l232 129z" />
    <glyph glyph-name="tcaron" unicode="&#x165;" 
d="M253 392q0 137 19 378h-207v186h219l14 224l254 43q0 -26 -8 -43t-14 -39l-21 -185h289v-186h-297q-3 -74 -9 -153t-7 -157q0 -168 20 -230t89 -62q68 0 216 113l72 -189q-175 -125 -324 -125q-238 0 -288 214q-18 74 -17 211zM815 1231q0 3 -21 23t-39 41t-18 51
q0 58 39 92q39 35 83 35q73 1 119 -45t46 -117q0 -137 -205 -342l-119 102q115 110 115 160z" />
    <glyph glyph-name="Uring" unicode="&#x16e;" 
d="M324 1267q0 -5 -2 -9q-15 -26 -17 -54v-755q0 -213 108 -267q40 -20 100 -20q115 0 162 74q48 74 48 219v821h225v-819q0 -243 -116 -364q-116 -122 -324 -122q-209 0 -320 126q-112 126 -112 354v825h243q5 -4 5 -9zM455 1468q1 -32 19 -54t46 -21q28 -1 47 21t19 54
t-19 55t-47 23t-46 -23t-19 -55zM518 1669q88 0 152 -60t63 -143q0 -84 -63 -144t-152 -60q-88 0 -149 61q-62 61 -62 143t62 142q61 61 149 61z" />
    <glyph glyph-name="uring" unicode="&#x16f;" 
d="M680 90q-88 -131 -278 -131q-54 0 -114 22q-184 69 -184 377v598h226v-598q0 -110 38 -160t90 -51q96 0 155 67t59 169v573h231v-841q0 -41 19 -115h-222q-20 15 -20 59v31zM446 1255q0 -31 19 -53t47 -22t47 22t19 53q0 32 -19 55t-47 23t-47 -23t-19 -55zM510 1456
q88 0 152 -60t63 -143q0 -84 -63 -144t-152 -60q-88 0 -149 61q-62 60 -62 142t62 143q61 61 149 61z" />
    <glyph glyph-name="Uhungarumlaut" unicode="&#x170;" 
d="M324 1267q0 -5 -2 -9q-15 -26 -17 -54v-755q0 -213 108 -267q40 -20 100 -20q115 0 162 74q48 74 48 219v821h225v-819q0 -243 -116 -364q-116 -122 -324 -122q-209 0 -320 126q-112 126 -112 354v825h243q5 -4 5 -9zM471 1686l119 -170l-318 -209l-77 98zM838 1686
l118 -170l-317 -209l-78 98z" />
    <glyph glyph-name="uhungarumlaut" unicode="&#x171;" 
d="M680 90q-88 -131 -278 -131q-54 0 -114 22q-184 69 -184 377v598h226v-598q0 -110 38 -160t90 -51q96 0 155 67t59 169v573h231v-841q0 -41 19 -115h-222q-20 15 -20 59v31zM729 1462l166 -114l-215 -289l-115 67zM412 1462l166 -114l-216 -289l-114 67z" />
    <glyph glyph-name="Ydieresis" unicode="&#x178;" 
d="M653 0h-241v504l-394 772h256l263 -516l233 516h248l-365 -774v-502zM797 1622q40 -41 40 -80t-11 -63q-11 -23 -30 -41t-45 -28t-55 -11q-29 0 -55 10q-26 9 -45 27t-30 42t-11 52t11 52t30 42q41 39 101 39t100 -41zM421 1623q42 -40 42 -80q1 -40 -11 -64
q-12 -23 -32 -41t-46 -28t-55 -11q-29 1 -55 11t-45 28t-30 41q-11 24 -11 51t11 51q11 25 30 43q41 40 100 39q60 0 102 -40z" />
    <glyph glyph-name="Zacute" unicode="&#x179;" 
d="M106 1276h838v-139l-567 -940h491q30 4 58 17q27 13 49 13v-227h-891v139l578 938h-556v199zM730 1468l-369 -129l-55 101l313 231z" />
    <glyph glyph-name="zacute" unicode="&#x17a;" 
d="M127 936h764v-143l-490 -600h435q20 1 50 16q30 14 50 14v-223h-848v143l496 598h-457v195zM571 1462l166 -114l-215 -289l-114 67z" />
    <glyph glyph-name="Zdotaccent" unicode="&#x17b;" 
d="M106 1276h838v-139l-567 -940h491q30 4 58 17q27 13 49 13v-227h-891v139l578 938h-556v199zM557 1654q31 0 57 -10t47 -29q20 -18 32 -42t12 -52q0 -54 -44 -94q-44 -39 -87 -39q-73 0 -115 40q-43 40 -43 92q0 53 28 82q28 28 56 40q26 12 57 12z" />
    <glyph glyph-name="zdot" unicode="&#x17c;" 
d="M127 936h764v-143l-490 -600h435q20 1 50 16q30 14 50 14v-223h-848v143l496 598h-457v195zM621 1163q-43 -41 -87 -41q-73 0 -115 40t-42 95q0 56 40 96t100 40t104 -41q43 -40 43 -94t-43 -95z" />
    <glyph glyph-name="florin" unicode="&#x192;" 
d="M757 1204q-61 0 -95 -53.5t-41 -194.5l-9 -139h228v-184h-244q-5 -67 -10 -139.5t-15 -194t-21 -234.5q-22 -213 -108.5 -318t-210.5 -105q-123 0 -215 100l115 180q23 -2 31 -11t16 -25q23 -42 60 -42q72 0 90 224l45 565h-228v184h238l14 164q37 408 347 408
q149 0 262 -134l-80 -168q-67 0 -78 52q-8 32 -34.5 48.5t-56.5 16.5z" />
    <glyph glyph-name="dotlessj" unicode="&#x237;" 
d="M377 -168q158 0 158 207v731h-332v186h563v-909q0 -205 -108 -307t-287 -102t-312 159l142 187q15 -6 24.5 -42t62 -73t89.5 -37z" />
    <glyph glyph-name="afii57929" unicode="&#x2bc;" 
d="M459 1159q0 3 -21 23t-39 41t-18 51q0 58 39 92.5t83 34.5q74 0 119.5 -45.5t45.5 -116.5q0 -137 -205 -342l-119 102q115 110 115 160z" />
    <glyph glyph-name="circumflex" unicode="&#x2c6;" 
d="M254 1130l235 297h66l236 -299l-119 -88l-156 181l-164 -179z" />
    <glyph glyph-name="caron" unicode="&#x2c7;" 
d="M791 1348l-236 -297h-66l-235 299l119 88l155 -181l164 179z" />
    <glyph glyph-name="uni02C9" unicode="&#x2c9;" 
d="M221 1313h574v-180h-574v180z" />
    <glyph glyph-name="uni02CB" unicode="&#x2cb;" 
d="M686 1126l-115 -67l-215 289l166 114z" />
    <glyph glyph-name="breve" unicode="&#x2d8;" 
d="M842 1235q-141 -174 -349 -174q-61 0 -146.5 39.5t-172.5 130.5l125 151q43 -75 101.5 -110t117.5 -35q130 0 225 145z" />
    <glyph glyph-name="dotaccent" unicode="&#x2d9;" 
d="M621 1163q-43 -41 -87 -41q-73 0 -115 40t-42 95q0 56 40 96t100 40t103.5 -40.5t43.5 -94.5t-43 -95z" />
    <glyph glyph-name="ring" unicode="&#x2da;" 
d="M446 1255q0 -32 19 -53.5t47 -21.5t47 21.5t19 53.5t-19 55t-47 23t-47 -23t-19 -55zM510 1456q88 0 151.5 -60t63.5 -143.5t-63.5 -143.5t-151.5 -60t-149.5 60.5t-61.5 143t61.5 143t149.5 60.5z" />
    <glyph glyph-name="ogonek" unicode="&#x2db;" 
d="M726 -373q-92 0 -137.5 42t-45.5 101t29 106t114 124h219q-48 -45 -79 -73.5t-56 -55t-25 -47.5q0 -33 32 -33t66 27.5t62 52.5v-178q-87 -66 -179 -66z" />
    <glyph glyph-name="tilde" unicode="&#x2dc;" 
d="M434 1421q73 0 144 -69q51 -58 73 -58q34 0 56.5 27.5t62.5 89.5l113 -127q-76 -94 -120 -133t-89 -39q-88 0 -150.5 67.5t-93.5 67.5t-55 -33.5t-58 -99.5l-141 103q125 204 258 204z" />
    <glyph glyph-name="hungarumlaut" unicode="&#x2dd;" 
d="M729 1462l166 -114l-215 -289l-115 67zM412 1462l166 -114l-216 -289l-114 67z" />
    <glyph glyph-name="quoteleft" unicode="&#x2018;" 
d="M336 920q0 159 242 407l114 -104q-90 -84 -111.5 -134.5t-21.5 -65.5q1 -15 29 -40q28 -24 48.5 -48.5t20.5 -57.5q0 -64 -42.5 -105t-109.5 -41q-68 0 -118.5 54t-50.5 135z" />
    <glyph glyph-name="quoteright" unicode="&#x2019;" 
d="M659 1139q0 -161 -241 -408l-115 105q93 89 113 136.5t20 62.5t-28 39q-28 25 -49 50.5t-21 57.5q0 63 42.5 104t109.5 41q68 0 118.5 -54t50.5 -134z" />
    <glyph glyph-name="quotesinglbase" unicode="&#x201a;" 
d="M662 61q0 -159 -242 -407l-115 104q92 89 112.5 137t20.5 63t-28 39q-28 25 -49 50t-21 57q0 63 43 104.5t110 41.5q68 0 118.5 -54t50.5 -135z" />
    <glyph glyph-name="quotedblleft" unicode="&#x201c;" 
d="M131 920q0 159 242 407l114 -104q-92 -89 -112.5 -137t-20.5 -62t9.5 -23t28.5 -25t40 -41t21 -58q0 -64 -43 -105t-110 -41t-118 54t-51 135zM553 920q0 159 242 407l114 -104q-92 -89 -112.5 -137t-20.5 -62t9.5 -23t28.5 -25q60 -52 60 -92q0 -70 -42.5 -111.5
t-109.5 -41.5q-68 0 -118.5 54t-50.5 135z" />
    <glyph glyph-name="quotedblright" unicode="&#x201d;" 
d="M879 1139q0 -160 -242 -408l-115 105q93 89 113 136.5t20 62.5t-28 39q-28 25 -49 50.5t-21 57.5q0 63 42.5 104t110.5 41t118.5 -54t50.5 -134zM457 1139q0 -160 -242 -408l-115 105q93 89 113 136.5t20 62.5t-28 39q-28 25 -49 50.5t-21 57.5q0 64 43 104.5t110 40.5
t118 -54t51 -134z" />
    <glyph glyph-name="quotedblbase" unicode="&#x201e;" 
d="M879 61q0 -159 -242 -407l-115 104q92 89 112.5 137t20.5 63t-28 39q-28 25 -49 50t-21 57q0 63 43 104.5t110 41.5q68 0 118.5 -54t50.5 -135zM457 61q0 -159 -242 -407l-115 104q92 89 112.5 137t20.5 63t-28 39q-28 25 -49 50t-21 57q0 64 43.5 105t110.5 41
t117.5 -54t50.5 -135z" />
    <glyph glyph-name="dagger" unicode="&#x2020;" 
d="M397 1335h221v-364h314v-189h-314v-1089h-221v1089h-315v189h315v364z" />
    <glyph glyph-name="daggerdbl" unicode="&#x2021;" 
d="M397 1333h221v-364h314v-189h-314v-497h314v-191h-314v-399h-221v399h-315v191h315v497h-315v189h315v364z" />
    <glyph glyph-name="bullet" unicode="&#x2022;" 
d="M313 616q0 40 16.5 75.5t44.5 62t65.5 42t80.5 15.5t81 -15.5t66 -42t44 -62t16 -75.5t-16 -75t-44 -61.5t-66 -42t-81 -15.5t-80.5 15.5t-65.5 42t-44.5 61.5t-16.5 75z" />
    <glyph glyph-name="ellipsis" unicode="&#x2026;" 
d="M51.5 210.5q41.5 39.5 87.5 39.5t73 -11t46 -29.5t30 -44t11 -69t-40.5 -84.5t-88.5 -41t-74 11t-56 40t-30 89t41.5 99.5zM688 111q0 29 10.5 54.5t29.5 44t45.5 29.5t57.5 11t58 -11t46.5 -29.5t30.5 -44t11 -54.5t-11 -54.5t-30.5 -44.5t-46.5 -30t-58 -11t-57.5 11
t-45.5 30t-29.5 44.5t-10.5 54.5zM391.5 210.5q41.5 39.5 87.5 39.5t73 -11t46 -29.5t30 -44t11 -69t-40.5 -84.5t-88.5 -41t-74 11t-56 40t-30 89t41.5 99.5z" />
    <glyph glyph-name="guilsinglleft" unicode="&#x2039;" 
d="M250 526l336 326l135 -139l-234 -224l244 -262l-139 -139l-342 369v69z" />
    <glyph glyph-name="guilsinglright" unicode="&#x203a;" 
d="M737 457l-342 -369l-139 139l244 262l-234 224l135 139l336 -326v-69z" />
    <glyph glyph-name="fraction" unicode="&#x2044;" 
d="M123 -8l635 1382l170 -96l-637 -1378z" />
    <glyph glyph-name="uni2074" unicode="&#x2074;" 
d="M541 872v162l-129 -162h129zM731 1343v-460h117v-164h-117v-182h-203v184h-342v115l398 507h147z" />
    <glyph glyph-name="Euro" unicode="&#x20ac;" 
d="M147 643q0 25 3 43h-109l43 186h96q47 212 179.5 315t314.5 103t307 -137l-76 -199q-18 24 -65 89t-177 65q-95 0 -166 -59.5t-102 -176.5h482l-70 -186h-442q-3 -26 -3 -61v-31h416l-71 -184h-324q29 -122 99 -187t173 -65q62 0 114 29t108 81l94 -168
q-152 -131 -331 -131t-307.5 117t-166.5 324h-127l43 184l65 4v45z" />
    <glyph glyph-name="trademark" unicode="&#x2122;" 
d="M989 1303v-648h-145v353l-68 -142h-61l-58 135v-346h-141v648h119l117 -265l125 265h112zM489 1303v-132h-151v-516h-148v516h-153v132h452z" />
    <glyph glyph-name="uparrow" unicode="&#x2191;" 
d="M625 -72h-222v1041l-163 -256l-148 121l385 487h94l361 -494l-168 -110l-139 241v-1030z" />
    <glyph glyph-name="downarrow" unicode="&#x2193;" 
d="M399 1321h222v-1061l163 277l148 -121l-385 -488h-94l-361 494l168 110l139 -262v1051z" />
    <glyph glyph-name="minus" unicode="&#x2212;" 
d="M78 745h868v-190h-868v190z" />
    <glyph glyph-name="visiblespace" unicode="&#x2423;" 
d="M84 145h182v-172h488v172h186v-331h-856v331z" />
    <glyph glyph-name="Apostrophe" unicode="&#xf40a;" 
d="M461 1077q0 3 -21 23t-39 41t-18 51q0 58 39 92.5t83 34.5q74 0 119.5 -45.5t45.5 -116.5q0 -137 -205 -342l-119 103q115 110 115 159z" />
    <glyph glyph-name="NULL" horiz-adv-x="0" 
 />
    <glyph glyph-name="dotaccent.cap" 
d="M526 1667q31 0 57.5 -10.5t46.5 -28.5t32 -42t12 -65t-43.5 -80.5t-87.5 -39.5q-73 0 -115.5 39.5t-42.5 92.5t28.5 82t55 40.5t57.5 11.5z" />
    <glyph glyph-name="breve.cap" 
d="M825 1507q-145 -174 -349 -174q-62 0 -147 39.5t-171 130.5l125 152q43 -76 101.5 -111t117.5 -35q131 0 225 146z" />
    <glyph glyph-name="tilde.cap" 
d="M424 1669q77 0 137 -63.5t82 -63.5q32 0 56.5 29t60.5 88l112 -127q-73 -93 -119 -132.5t-90 -39.5q-91 0 -150.5 67.5t-91.5 67.5t-56 -33.5t-58 -99.5l-141 102q125 205 258 205z" />
    <glyph glyph-name="dieresis.cap" 
d="M783.5 1622q39.5 -41 39.5 -80t-11 -63t-30 -41.5t-45 -28t-55 -10.5t-55 10t-45 27.5t-30 41.5t-11 52t11 52t41 52.5t90 28.5q61 0 100.5 -41zM407 1623q42 -40 42 -80t-11.5 -64t-31 -41.5t-46 -28t-55.5 -10.5t-55 10.5t-45 28t-30 41.5t-11 51t11 51t41 53t89 29
q60 0 102 -40z" />
    <glyph glyph-name="circumflex.cap" 
d="M219 1417l273 221h63l258 -217l-78 -92l-215 135l-231 -129z" />
    <glyph glyph-name="caron.cap" 
d="M788 1550l-272 -221h-63l-258 217l77 92l215 -135l232 129z" />
    <glyph glyph-name="grave.cap" 
d="M436 1671l314 -231l-56 -101l-368 129z" />
    <glyph glyph-name="acute.cap" 
d="M764 1468l-369 -129l-55 101l313 231z" />
    <glyph glyph-name="ring.cap" 
d="M455 1468q0 -32 18.5 -53.5t46.5 -21.5t47 21.5t19 53.5t-19 55t-47 23t-46.5 -23t-18.5 -55zM518 1669q88 0 151.5 -60t63.5 -143.5t-63.5 -143.5t-151.5 -60t-149.5 60.5t-61.5 143t61.5 143t149.5 60.5z" />
    <glyph glyph-name="r.serif" 
d="M854 649q-96 133 -194 133t-172 -83t-74 -199v-322h176v-178h-531v178h123v594h-119v184h355v-104q111 125 271 125q161 0 272 -105z" />
    <glyph glyph-name="hungarumlaut.cap" 
d="M471 1686l119 -170l-318 -209l-77 98zM838 1686l118 -170l-317 -209l-78 98z" />
    <glyph glyph-name="zero.noslash" 
d="M514 166q101 0 163 134t62 333t-64 335t-162 136t-161 -137t-63 -335t62 -332t163 -134zM829.5 1116.5q128.5 -186.5 128.5 -500.5t-128.5 -484.5t-316.5 -170.5q-187 0 -315 188t-128 479.5t130 483t316 191.5q185 0 313.5 -186.5z" />
    <glyph glyph-name=".ttfautohint" 
 />
  </font>
</defs>
</svg>
