<svg width="85" height="32" viewBox="0 0 85 32" fill="none" xmlns="http://www.w3.org/2000/svg">
<g clip-path="url(#clip0)">
<path d="M45.935 27.4462C45.8135 27.0154 45.6312 26.5846 45.3882 26.2154C44.7806 25.3539 43.8085 24.9231 42.7756 25.0462H41.1352V20.8616H38.7656V32H42.7149C43.2617 32 43.8693 31.877 44.3553 31.6308L44.5984 31.077L45.935 27.4462ZM43.3832 29.4154C43.0794 29.6616 42.6541 29.7846 42.2288 29.7846H41.1352V27.2H42.2288C42.6541 27.1385 43.0794 27.2616 43.444 27.5693C43.6262 27.8154 43.7478 28.1846 43.7478 28.4923C43.7478 28.8616 43.6262 29.1693 43.3832 29.4154Z" fill="#292C3A"/>
<path d="M50.7361 28.8C50.7361 29.1077 50.6753 29.4769 50.4323 29.7231C50.1893 29.9692 49.8855 30.0308 49.5817 30.0308C49.2779 30.0308 48.9134 29.9077 48.6703 29.7231C48.4273 29.4769 48.3665 29.1077 48.3665 28.8V24.9846L46.3008 30.4615C46.3615 30.6462 46.4831 30.7692 46.6046 30.9538C47.2121 31.6308 48.1843 32 49.5817 32C50.1893 32 50.7969 31.9385 51.3437 31.7538C52.4373 31.4462 53.1664 30.4 53.1056 29.2923V25.0462H50.7361V28.8Z" fill="#292C3A"/>
<path d="M57.1126 22.4C57.1126 23.1384 56.5658 23.6923 55.8367 23.7538C55.8367 23.7538 55.8367 23.7538 55.7759 23.7538C55.4114 23.7538 55.1076 23.6307 54.8645 23.3846C54.6215 23.1384 54.5 22.7692 54.5 22.4C54.5 21.6615 55.1076 21.1077 55.8367 21.1077C56.2012 21.1077 56.505 21.2307 56.748 21.4769C56.9911 21.7231 57.1126 22.0923 57.1126 22.4ZM56.9911 32H54.6823V24.9846H56.9911V32Z" fill="#292C3A"/>
<path d="M60.8813 32H58.5117V20.8616H60.8813V32Z" fill="#292C3A"/>
<path d="M62.3998 28.5539C62.339 27.7539 62.5821 26.8923 63.0681 26.2154C63.6757 25.3539 64.6478 24.9231 65.6807 25.0462H67.3212V20.8616H69.6907V32H65.7415C64.7693 32.0616 63.858 31.6923 63.1896 30.8923C62.6428 30.277 62.339 29.4154 62.3998 28.5539ZM64.7693 28.4923C64.7693 28.8616 64.8909 29.1693 65.1339 29.4154C65.4377 29.6616 65.863 29.7846 66.2883 29.7846H67.3212V27.2H66.2275C65.8022 27.1385 65.3769 27.2616 65.0124 27.5693C64.8301 27.8154 64.7086 28.1846 64.7693 28.4923Z" fill="#292C3A"/>
<path d="M78.5006 28.7999H73.5792C73.5792 29.7845 74.0653 30.3384 75.0374 30.3384C75.5235 30.3384 75.9488 30.0922 76.131 29.723H78.3791C78.2576 30.2768 77.9538 30.7691 77.5892 31.1384C76.8601 31.7538 75.9488 32.0614 75.0374 32.0614C73.883 32.123 72.7286 31.6922 71.9995 30.8307C71.4527 30.2153 71.2097 29.3538 71.2097 28.5538C71.1489 27.5691 71.5135 26.6461 72.1818 25.9691C72.9109 25.2922 73.883 24.923 74.9159 24.9845C76.131 24.8614 77.3462 25.4768 78.0145 26.5845C78.3791 27.1999 78.5614 27.9384 78.5614 28.6768L78.5006 28.7999ZM76.3133 27.4461C76.2526 26.7691 75.645 26.2768 74.9767 26.3384C74.6121 26.3384 74.2476 26.4614 74.0045 26.7076C73.8223 26.8922 73.64 27.1999 73.64 27.5076H76.3133V27.4461Z" fill="#292C3A"/>
<path d="M85.0017 27.2C84.6979 27.077 84.3333 26.9539 84.0295 26.9539C83.3612 26.8923 82.7536 27.2616 82.5106 27.9385C82.3891 28.2462 82.3891 28.5539 82.3891 28.8616V31.7539H80.0195V24.9846H82.3891V26.0923C82.5714 25.7231 82.8751 25.477 83.1789 25.2308C83.6042 24.9846 84.0903 24.8616 84.5156 24.8616C84.6979 24.8616 84.8194 24.8616 84.9409 24.8616L85.0017 27.2Z" fill="#292C3A"/>
<path d="M78.3206 0L75.8903 6.46154L77.5915 11.5077H74.0068L72.6094 15.1385H78.8674L80.0218 18.3385H85.0647L78.3206 0Z" fill="#292C3A"/>
<path d="M70.9077 0L66.2901 11.8154L62.7661 0H58.9992L55.1714 11.8154L53.3487 6.95385L50.7969 13.6615L52.4981 18.3385H57.2979L60.7611 7.75385L64.042 18.3385H68.8419L75.829 0H70.9077Z" fill="#292C3A"/>
<path d="M51.0994 1.90769C50.0058 0.676923 48.3653 0 46.2388 0H38.7656V18.3385H43.444V12.2462H46.3603C47.2109 12.2462 48.1223 12.1231 48.9729 11.8769L52.1323 3.63077C51.8893 2.95385 51.5247 2.4 51.0994 1.90769ZM47.1502 7.75385C46.7856 8.18461 46.0565 8.43077 45.0237 8.43077H43.444V3.81538H45.0237C45.7528 3.75385 46.4818 3.93846 47.0287 4.43077C47.454 4.86154 47.6362 5.47692 47.6362 6.03077C47.697 6.64615 47.5147 7.26154 47.1502 7.75385Z" fill="#292C3A"/>
<path opacity="0.3" d="M15.797 32C24.5214 32 31.594 24.8366 31.594 16C31.594 7.16344 24.5214 0 15.797 0C7.07256 0 0 7.16344 0 16C0 24.8366 7.07256 32 15.797 32Z" fill="#292C3A"/>
<path opacity="0.6" d="M24.5479 23.2615C25.8238 22.0923 26.4922 20.3692 26.4922 18.0923V10.2153H5.10547L7.53578 15.1999H13.8546V18.3384C13.8546 19.2615 13.9761 20.1846 14.2799 21.1076L22.786 24.4307C23.3935 24.123 24.0011 23.7538 24.5479 23.2615ZM18.4722 19.0769C17.9861 18.6461 17.8038 17.9076 17.8038 16.8615V15.1999H22.4822V16.8615C22.5429 17.6615 22.3607 18.3999 21.8746 19.0153C21.4493 19.4461 20.781 19.6923 20.1734 19.6307C19.5658 19.6307 18.9582 19.4461 18.4722 19.0769Z" fill="#292C3A"/>
<path d="M15.7988 23.2615C17.0747 22.0923 17.7431 20.3692 17.7431 18.0923V15.1384H22.4822L5.10547 10.2153V15.1999V18.3384C5.10547 19.2615 5.22698 20.1846 5.47002 21.1076L13.9761 24.4307C14.7052 24.123 15.3128 23.7538 15.7988 23.2615ZM9.78381 19.0769C9.29775 18.6461 9.11548 17.9076 9.11548 16.8615V15.1999H13.8546V16.8615C13.9153 17.6615 13.7331 18.3999 13.247 19.0153C12.7609 19.4461 12.1534 19.6923 11.5458 19.6307C10.8774 19.6307 10.2699 19.4461 9.78381 19.0769Z" fill="#292C3A"/>
</g>
<defs>
<clipPath id="clip0">
<rect width="85" height="32" fill="white"/>
</clipPath>
</defs>
</svg>
