<?xml version="1.0" encoding="UTF-8"?><svg id="Layer_1" xmlns="http://www.w3.org/2000/svg" xmlns:xlink="http://www.w3.org/1999/xlink" viewBox="0 0 260.8 97.73"><defs><style>.cls-1{fill:url(#linear-gradient);}.cls-2{fill:#fff;}.cls-3{fill:#302e2e;}.cls-4{fill:#4529cb;}.cls-5{fill:url(#linear-gradient-3);}.cls-6{fill:url(#linear-gradient-4);}.cls-7{fill:url(#linear-gradient-2);}</style><linearGradient id="linear-gradient" x1="65.54" y1="88.15" x2="65.54" y2="8.64" gradientUnits="userSpaceOnUse"><stop offset="0" stop-color="#0077e8"/><stop offset="1" stop-color="#6b00a9"/></linearGradient><linearGradient id="linear-gradient-2" x1="47.89" y1="56.9" x2="47.89" y2="49.72" xlink:href="#linear-gradient"/><linearGradient id="linear-gradient-3" x1="65.54" y1="64.57" x2="65.54" y2="55.84" xlink:href="#linear-gradient"/><linearGradient id="linear-gradient-4" x1="82.86" y1="56.9" x2="82.86" y2="49.72" xlink:href="#linear-gradient"/></defs><g><path class="cls-3" d="M153.08,76.57c-.3-1.06-.75-2.12-1.34-3.02-1.49-2.11-3.88-3.17-6.41-2.87h-4.03v-10.27h-5.82v27.34h9.7c1.34,0,2.83-.3,4.03-.91l.6-1.36,3.28-8.91Zm-6.27,4.83c-.75,.6-1.79,.91-2.83,.91h-2.69v-6.34h2.69c1.04-.15,2.09,.15,2.98,.91,.45,.6,.75,1.51,.75,2.27,0,.91-.3,1.66-.89,2.27Z"/><path class="cls-3" d="M164.87,79.9c0,.76-.15,1.66-.75,2.27-.6,.6-1.34,.76-2.09,.76s-1.64-.3-2.24-.76c-.6-.6-.75-1.51-.75-2.27v-9.37l-5.07,13.44c.15,.45,.45,.76,.75,1.21,1.49,1.66,3.88,2.57,7.31,2.57,1.49,0,2.98-.15,4.33-.6,2.69-.75,4.47-3.32,4.33-6.04v-10.42h-5.82v9.21Z"/><path class="cls-3" d="M180.53,64.19c0,1.81-1.34,3.17-3.13,3.32h-.15c-.9,0-1.64-.3-2.24-.91-.6-.6-.9-1.51-.9-2.42,0-1.81,1.49-3.17,3.28-3.17,.9,0,1.64,.3,2.24,.91,.6,.6,.89,1.51,.89,2.27Zm-.3,23.56h-5.67v-17.22h5.67v17.22Z"/><path class="cls-3" d="M189.78,87.75h-5.82v-27.34h5.82v27.34Z"/><path class="cls-3" d="M193.51,79.29c-.15-1.96,.45-4.08,1.64-5.74,1.49-2.11,3.88-3.17,6.41-2.87h4.03v-10.27h5.82v27.34h-9.7c-2.39,.15-4.62-.76-6.27-2.72-1.34-1.51-2.09-3.63-1.94-5.74Zm5.82-.15c0,.91,.3,1.66,.89,2.27,.75,.6,1.79,.91,2.83,.91h2.54v-6.34h-2.69c-1.04-.15-2.09,.15-2.98,.91-.45,.6-.75,1.51-.6,2.27Z"/><path class="cls-3" d="M233.05,79.9h-12.08c0,2.42,1.19,3.78,3.58,3.78,1.19,0,2.24-.6,2.69-1.51h5.52c-.3,1.36-1.04,2.57-1.94,3.47-1.79,1.51-4.03,2.27-6.27,2.27-2.83,.15-5.67-.91-7.46-3.02-1.34-1.51-1.94-3.63-1.94-5.59-.15-2.42,.75-4.68,2.39-6.34,1.79-1.66,4.18-2.57,6.71-2.42,2.98-.3,5.97,1.21,7.61,3.93,.89,1.51,1.34,3.32,1.34,5.14l-.15,.3Zm-5.37-3.32c-.15-1.66-1.64-2.87-3.28-2.72-.89,0-1.79,.3-2.39,.91-.45,.45-.89,1.21-.89,1.96h6.56v-.15Z"/><path class="cls-3" d="M249.01,75.97c-.75-.3-1.64-.6-2.39-.6-1.64-.15-3.13,.76-3.73,2.42-.3,.76-.3,1.51-.3,2.27v7.1h-5.82v-16.62h5.82v2.72c.45-.91,1.19-1.51,1.94-2.11,1.04-.6,2.24-.91,3.28-.91h1.04l.15,5.74Z"/><path class="cls-3" d="M232.6,9.2l-5.97,15.86,4.18,12.39h-8.8l-3.43,8.91h15.37l2.83,7.85h12.38l-16.56-45.01Z"/><path class="cls-3" d="M214.4,9.2l-11.34,29-8.65-29h-9.25l-9.4,29-4.47-11.93-6.27,16.46,4.18,11.48h11.79l8.5-25.98,8.06,25.98h11.79l17.16-45.01h-12.08Z"/><path class="cls-3" d="M165.76,13.89c-2.69-3.02-6.71-4.68-11.93-4.68h-18.35V54.22h11.49v-14.95h7.16c2.09,0,4.33-.3,6.41-.91l7.76-20.24c-.6-1.66-1.49-3.02-2.54-4.23Zm-9.7,14.35c-.9,1.06-2.69,1.66-5.22,1.66h-3.88v-11.33h3.88c1.79-.15,3.58,.3,4.92,1.51,1.04,1.06,1.49,2.57,1.49,3.93,.15,1.51-.3,3.02-1.19,4.23Z"/></g><g><path class="cls-1" d="M119.44,45.09v11.31c0,1.36-1.11,2.46-2.46,2.46h-3.08c-.05,0-.09,0-.15-.01-.43,11.15-4.67,21.35-11.44,29.3-.05-10.61,.59-26.3,.59-26.3,0-3.28-.7-6.24-1.95-8.89,1.37-1.05,2.24-2.71,2.24-4.58,0-3.23-2.61-5.83-5.83-5.83-1.46,0-2.79,.53-3.81,1.42-8.05-6.29-19.67-9.2-28.18-9.2s-19.99,2.88-28.04,9.1c-1.01-.83-2.3-1.32-3.7-1.32-3.23,0-5.83,2.61-5.83,5.83,0,1.79,.8,3.38,2.07,4.45-1.29,2.69-2.02,5.69-2.02,9.02,0,0,.63,15.3,.59,25.9-6.58-7.89-10.69-17.94-11.11-28.9-.05,.01-.09,.01-.15,.01h-3.08c-1.36,0-2.46-1.11-2.46-2.46v-11.31c0-1.37,1.11-2.46,2.46-2.46h3.08c.8,0,1.51,.38,1.96,.99C24.92,23.41,43.5,8.64,65.54,8.64s40.62,14.77,46.39,34.97c.45-.61,1.16-.99,1.96-.99h3.08c1.36,0,2.46,1.09,2.46,2.46Z"/><g><path class="cls-7" d="M51.48,53.31c0,1.99-1.61,3.59-3.59,3.59s-3.58-1.61-3.58-3.59,1.61-3.58,3.58-3.58,3.59,1.61,3.59,3.58Z"/><path class="cls-5" d="M74.69,60.1c-4.11-.16-4.11,.29-4.11,3.08-1.54,1.25-4.12,1.38-4.12,1.38h-1.86s-2.57-.13-4.12-1.38c0-2.79,0-3.24-4.1-3.08,.49-4.77,8.22-4.24,8.22-4.24h1.86s7.74-.53,8.23,4.24Z"/><path class="cls-6" d="M86.45,53.31c0,1.99-1.61,3.59-3.59,3.59s-3.58-1.61-3.58-3.59,1.61-3.58,3.58-3.58,3.59,1.61,3.59,3.58Z"/><path class="cls-2" d="M51.48,53.31c0,1.99-1.61,3.59-3.59,3.59s-3.58-1.61-3.58-3.59,1.61-3.58,3.58-3.58,3.59,1.61,3.59,3.58Z"/><path class="cls-3" d="M65.49,74.64c-.11,0-.15,0-.25,0-1,0-5.88-.1-7.68-1.91-.48-.49-.72-1.06-.71-1.71v-.42s.39-.17,.39-.17c5.48-2.42,6.92-3.16,7.1-5.91l.04-.61h1.97l.04,.61c.2,2.75,1.64,3.5,7.11,5.91l.39,.17v.42c.02,.64-.22,1.22-.71,1.71-1.8,1.82-6.69,1.91-7.69,1.91Zm-7.26-3.21c.05,.13,.14,.25,.26,.37,1.28,1.29,5.42,1.53,6.87,1.52,1.5,0,5.61-.23,6.89-1.53,.12-.12,.2-.24,.26-.37-4.11-1.81-6.36-2.88-7.14-5.25-.77,2.36-3.02,3.43-7.13,5.25Z"/><path class="cls-2" d="M74.69,60.1c-4.11-.16-4.11,.29-4.11,3.08-1.54,1.25-4.12,1.38-4.12,1.38h-1.86s-2.57-.13-4.12-1.38c0-2.79,0-3.24-4.1-3.08,.49-4.77,8.22-4.24,8.22-4.24h1.86s7.74-.53,8.23,4.24Z"/><path class="cls-2" d="M86.45,53.31c0,1.99-1.61,3.59-3.59,3.59s-3.58-1.61-3.58-3.59,1.61-3.58,3.58-3.58,3.59,1.61,3.59,3.58Z"/><path class="cls-3" d="M51.48,53.31c0,1.99-1.61,3.59-3.59,3.59s-3.58-1.61-3.58-3.59,1.61-3.58,3.58-3.58,3.59,1.61,3.59,3.58Z"/><path class="cls-3" d="M86.45,53.31c0,1.99-1.61,3.59-3.59,3.59s-3.58-1.61-3.58-3.59,1.61-3.58,3.58-3.58,3.59,1.61,3.59,3.58Z"/><path class="cls-3" d="M30.97,67.77h0c-.27,0-.49-.23-.49-.5,0-.31,0-.89,6.79-3.83,6.49-2.82,18-3.89,18.48-3.93,.29-.05,.51,.18,.54,.45,.03,.27-.17,.51-.45,.54-.12,.01-11.84,1.1-18.18,3.85-5.2,2.26-6.11,3.02-6.25,3.16-.08,.16-.25,.26-.44,.26Z"/><path class="cls-3" d="M32.11,71.66c-.08,0-.15-.02-.22-.06-.24-.12-.34-.41-.22-.65,.11-.21,1.22-2.16,7.68-4.98,6.47-2.81,16.1-4.46,16.19-4.47,.28-.03,.52,.14,.57,.41,.05,.27-.14,.52-.41,.57-.1,.02-9.61,1.64-15.96,4.4-6.13,2.67-7.18,4.5-7.19,4.52-.09,.17-.26,.26-.44,.26Z"/><path class="cls-3" d="M36.17,73.94c-.1,0-.21-.03-.3-.1-.22-.16-.26-.47-.1-.69,4.06-5.43,18.08-9.02,18.67-9.17,.27-.06,.53,.09,.6,.36,.07,.26-.09,.53-.36,.6-.14,.04-14.28,3.66-18.12,8.81-.1,.13-.25,.2-.4,.2Z"/><path class="cls-3" d="M100.1,67.77c-.19,0-.35-.11-.44-.26-.14-.14-1.05-.9-6.25-3.16-6.34-2.76-18.06-3.84-18.18-3.85-.27-.02-.47-.26-.45-.54,.02-.27,.25-.49,.54-.45,.49,.04,12,1.11,18.48,3.93,6.78,2.95,6.79,3.52,6.79,3.83,0,.27-.22,.5-.49,.5h0Z"/><path class="cls-3" d="M98.97,71.67c-.18,0-.35-.1-.44-.27-.03-.05-1.12-1.87-7.19-4.52-6.36-2.76-15.87-4.39-15.96-4.4-.27-.05-.45-.3-.41-.57s.29-.45,.57-.41c.1,.02,9.72,1.66,16.19,4.47,6.47,2.81,7.58,4.76,7.68,4.98,.12,.24,.02,.54-.22,.66-.07,.03-.15,.05-.22,.05Z"/><path class="cls-3" d="M94.91,73.94c-.15,0-.3-.07-.4-.2-3.85-5.15-17.98-8.77-18.12-8.81-.26-.07-.42-.33-.36-.6,.07-.26,.33-.42,.6-.36,.6,.15,14.62,3.74,18.67,9.17,.16,.22,.12,.53-.1,.69-.09,.07-.19,.1-.3,.1Z"/><path class="cls-3" d="M74.69,60.1c-4.11-.16-4.11,.29-4.11,3.08-1.54,1.25-4.12,1.38-4.12,1.38h-1.86s-2.57-.13-4.12-1.38c0-2.79,0-3.24-4.1-3.08,.49-4.77,8.22-4.24,8.22-4.24h1.86s7.74-.53,8.23,4.24Z"/><g><path class="cls-3" d="M54.91,72c-1.39,0-2.52-.32-3.36-.95-1.3-.98-1.4-2.36-1.4-2.42-.02-.36,.25-.68,.62-.7,.39-.04,.67,.25,.7,.61,0,.05,.09,.87,.91,1.47,1,.74,2.73,.87,5,.37,.36-.08,.71,.15,.78,.5s-.15,.71-.5,.78c-1,.22-1.92,.33-2.74,.33Z"/><path class="cls-3" d="M65,65.22s-.05,0-.07,0c-.36-.04-.62-.36-.58-.73,.02-.21,.04-.44,.04-.68,0-.36,.29-.66,.66-.66s.66,.29,.66,.66c0,.29-.02,.56-.04,.82-.04,.34-.32,.59-.65,.59Z"/></g><g><path class="cls-3" d="M75.83,72c-.82,0-1.73-.11-2.73-.33-.35-.08-.58-.43-.5-.78s.43-.58,.78-.5c2.27,.5,4.01,.37,5.01-.39,.81-.61,.88-1.44,.88-1.45,.02-.36,.33-.64,.7-.62,.36,.02,.64,.33,.62,.7,0,.06-.1,1.44-1.4,2.42-.84,.63-1.96,.95-3.35,.95Z"/><path class="cls-3" d="M65.74,65.22c-.35,0-.64-.27-.66-.62-.01-.25-.03-.51-.03-.79,0-.36,.29-.66,.66-.66s.66,.29,.66,.66c0,.25,.01,.49,.02,.71,.02,.36-.26,.67-.62,.69-.01,0-.02,0-.04,0Z"/></g></g><path class="cls-4" d="M117.91,10.76c0,.92-.59,1.7-1.41,1.99v30.54h-1.42V12.74c-.82-.29-1.41-1.07-1.41-1.99,0-1.17,.95-2.12,2.12-2.12s2.12,.95,2.12,2.12Z"/></g></svg>