<svg width="60" height="60" viewBox="0 0 60 60" fill="none" xmlns="http://www.w3.org/2000/svg">
<circle cx="30" cy="30" r="30" fill="#F1F3FF"/>
<path d="M29.4059 22.99C30.0959 22.99 30.7959 23.13 31.5059 23.42C34.5759 24.66 35.5259 27.12 34.9859 30.29C35.2759 30.29 35.5459 30.29 35.8059 30.29C35.9359 30.29 36.0659 30.29 36.1959 30.29C36.2059 30.29 36.2159 30.29 36.2259 30.29C37.2759 30.29 38.1759 30.68 38.9059 31.41C39.4859 31.98 39.8959 32.68 39.9559 33.53C39.9859 33.9 40.1659 36.8 38.3659 37.81C38.3459 37.89 28.5359 37.98 28.4559 37.98C27.3459 37.98 26.2259 38 25.1059 38C24.1959 38 23.2859 38 22.3759 37.96C21.3859 37.92 20.5559 37.37 19.9059 36.61C19.3359 35.94 19.0359 35.13 18.9959 34.27C18.9559 33.4 19.2159 32.58 19.7459 31.88C20.4659 30.91 21.4259 30.37 22.6459 30.29C23.1159 30.26 23.5759 30.23 24.0659 30.2C23.5959 27.96 24.0859 25.99 25.8059 24.46C26.8859 23.5 28.1059 23 29.3959 23M29.3959 21C27.6159 21 25.9159 21.68 24.4759 22.96C22.8459 24.41 21.9759 26.25 21.9059 28.36C20.3959 28.61 19.1059 29.4 18.1459 30.68C17.3459 31.76 16.9459 33.03 17.0059 34.35C17.0659 35.67 17.5459 36.89 18.3859 37.88C19.4759 39.17 20.8259 39.88 22.3059 39.94C23.1359 39.97 24.0259 39.99 25.1159 39.99C25.7559 39.99 26.3959 39.99 27.0259 39.99C27.5059 39.99 27.9859 39.99 28.4659 39.99C28.5159 39.99 31.0359 39.97 33.4659 39.93C34.7059 39.91 35.9359 39.89 36.8659 39.87C38.2459 39.84 39.1859 39.82 39.7659 39.29C42.0759 37.64 42.0359 34.38 41.9559 33.38C41.8659 32.12 41.3159 30.98 40.3159 29.99C39.4159 29.1 38.3259 28.54 37.1159 28.36C36.9959 25.18 35.3159 22.81 32.2459 21.57C31.3059 21.19 30.3459 21 29.3959 21Z" fill="#8976FF"/>
<path fill-rule="evenodd" clip-rule="evenodd" d="M27.9678 28.5358C28.8296 28.2027 29.7766 28.1595 30.6652 28.4128C31.5538 28.6662 32.3356 29.2022 32.8922 29.9397C33.4489 30.6772 33.75 31.576 33.75 32.5V33H32.25V32.5C32.25 31.9021 32.0552 31.3205 31.695 30.8433C31.3348 30.3661 30.8289 30.0193 30.2539 29.8554C29.679 29.6915 29.0662 29.7194 28.5086 29.9349C27.9509 30.1505 27.4787 30.5419 27.1634 31.0499C26.8481 31.5579 26.707 32.1548 26.7614 32.7502C26.8158 33.3456 27.0628 33.9071 27.4649 34.3495C27.867 34.792 28.4023 35.0913 28.9898 35.2023C29.5773 35.3132 30.185 35.2296 30.7207 34.9642C31.0919 34.7804 31.5418 34.9322 31.7257 35.3034C31.9096 35.6745 31.7577 36.1245 31.3865 36.3083C30.5586 36.7185 29.6195 36.8476 28.7115 36.6762C27.8036 36.5048 26.9762 36.0421 26.3548 35.3583C25.7334 34.6745 25.3517 33.8068 25.2676 32.8867C25.1836 31.9665 25.4017 31.044 25.8889 30.2589C26.3761 29.4738 27.1059 28.8689 27.9678 28.5358Z" fill="#8976FF"/>
<path d="M33 35L31.2679 32.75L34.7321 32.75L33 35Z" fill="#8976FF"/>
</svg>
