<svg width="60" height="60" viewBox="0 0 60 60" fill="none" xmlns="http://www.w3.org/2000/svg">
<circle cx="30" cy="30" r="30" fill="#F1F3FF"/>
<mask id="path-2-inside-1_3840_4149" fill="white">
<path fill-rule="evenodd" clip-rule="evenodd" d="M21 20C19.8954 20 19 20.8954 19 22V25V32V37C19 38.1046 19.8954 39 21 39H39C40.1046 39 41 38.1046 41 37V25C41 23.8954 40.1046 23 39 23H29.9643L29.4461 21.388C29.1803 20.5609 28.4109 20 27.5421 20H21Z"/>
</mask>
<path d="M29.9643 23L28.0602 23.612L28.5064 25H29.9643V23ZM29.4461 21.388L31.3502 20.776L31.3502 20.776L29.4461 21.388ZM21 22V22V18C18.7909 18 17 19.7909 17 22H21ZM21 25V22H17V25H21ZM21 32V25H17V32H21ZM21 37V32H17V37H21ZM21 37H21H17C17 39.2091 18.7909 41 21 41V37ZM39 37H21V41H39V37ZM39 37V41C41.2091 41 43 39.2091 43 37H39ZM39 25V37H43V25H39ZM39 25H43C43 22.7909 41.2091 21 39 21V25ZM29.9643 25H39V21H29.9643V25ZM27.5421 22L28.0602 23.612L31.8683 22.388L31.3502 20.776L27.5421 22ZM27.5421 22L27.5421 22L31.3502 20.776C30.8185 19.1218 29.2796 18 27.5421 18V22ZM21 22H27.5421V18H21V22Z" fill="#8976FF" mask="url(#path-2-inside-1_3840_4149)"/>
</svg>
