<svg width="60" height="60" viewBox="0 0 60 60" fill="none" xmlns="http://www.w3.org/2000/svg">
<circle cx="30" cy="30" r="30" fill="#F1F3FF"/>
<g clip-path="url(#clip0_3922_2694)">
<path d="M29.9904 33.2703C28.0593 33.2703 26.4836 31.7928 26.4836 29.982C26.4836 28.1712 28.0593 26.6937 29.9904 26.6937C31.9216 26.6937 33.4876 28.1712 33.4876 29.982C33.4876 31.7928 31.9216 33.2703 29.9904 33.2703ZM29.9904 28.4955C29.1161 28.4955 28.4052 29.1622 28.4052 29.982C28.4052 30.8018 29.1161 31.4685 29.9904 31.4685C30.8647 31.4685 31.5661 30.8018 31.5661 29.982C31.5661 29.1622 30.8551 28.4955 29.9904 28.4955Z" fill="#8976FF"/>
<path d="M41.0009 32.5315L38.868 31.2793C38.9353 30.8649 38.9737 30.4324 38.9737 30C38.9737 29.5676 38.9449 29.1892 38.8776 28.7928L40.9529 27.6667C41.4429 27.4054 41.7888 26.982 41.9329 26.4685C42.077 25.955 42.0097 25.4234 41.7215 24.964L40.2803 22.6216C39.7231 21.7207 38.4933 21.4144 37.5325 21.9369L35.2363 23.1802C34.6983 22.8018 34.1122 22.4955 33.4877 22.2432V19.982C33.4877 18.8919 32.5462 18 31.374 18H28.4917C27.3868 18 26.4837 18.8468 26.4837 19.8919V22.2523C25.8688 22.4955 25.2827 22.8018 24.7447 23.1622L22.4773 21.9369C22.0065 21.6847 21.4685 21.6126 20.9497 21.7477C20.4309 21.8739 19.9985 22.1892 19.7295 22.6216L18.2884 24.964C18.0001 25.4234 17.9329 25.955 18.077 26.4685C18.2211 26.982 18.567 27.4054 19.057 27.6667L21.0938 28.7748C21.0265 29.1712 20.9977 29.5856 20.9977 30C20.9977 30.4414 21.0361 30.8739 21.113 31.2973L19.0089 32.5315C18.5285 32.8198 18.1923 33.2523 18.0674 33.7658C17.9425 34.2883 18.0386 34.8198 18.3364 35.2613L19.8736 37.5586C20.2579 38.1261 20.9112 38.4414 21.5742 38.4414C21.9393 38.4414 22.314 38.3423 22.6406 38.1532L24.812 36.8739C25.3308 37.2252 25.888 37.5225 26.4837 37.7568V40.018C26.4837 41.1081 27.4253 42 28.5974 42H31.4797C32.5846 42 33.4877 41.1532 33.4877 40.1171V37.7568C34.093 37.5225 34.6598 37.2252 35.1787 36.8649L37.3692 38.1532C37.6863 38.3423 38.061 38.4414 38.4357 38.4414C38.5798 38.4414 38.7335 38.4234 38.8872 38.3874C39.406 38.2793 39.848 37.982 40.1362 37.5586L41.6735 35.2613C41.9713 34.8198 42.0674 34.2883 41.9425 33.7658C41.8176 33.2523 41.4813 32.8198 41.0009 32.5315ZM40.0402 34.3063L38.5125 36.5946C38.5125 36.5946 38.4357 36.6486 38.3876 36.6216L37.4461 36.0721L36.8696 35.7297L36.6775 35.6126L35.2555 34.7477L35.0538 34.6216C34.1218 35.5225 32.9112 36.1712 31.5662 36.4595V40.1171C31.5662 40.1171 31.5277 40.1982 31.4797 40.1982H28.5974C28.4917 40.1982 28.4052 40.1171 28.4052 40.018V36.4505C27.1178 36.1802 25.9649 35.5766 25.0618 34.7387L24.8312 34.8649L23.3516 35.6667L22.2563 36.2523L21.6222 36.6216C21.6222 36.6216 21.5261 36.6396 21.4973 36.5946L19.9697 34.3063C19.912 34.2252 19.9409 34.1171 20.0273 34.0631L21.4685 33.2162L21.6414 33.1171L23.1114 32.2793L23.3132 32.1622C23.0538 31.4865 22.9193 30.7568 22.9193 30C22.9193 29.2432 23.0538 28.5495 23.294 27.8919L23.1498 27.8108L21.603 26.964L21.4877 26.9009L21.1418 26.7117L20.0177 26.1081C19.9409 26.0721 19.9024 25.9369 19.9505 25.8649L21.3916 23.5225C21.3916 23.5225 21.4397 23.4865 21.4781 23.4865C21.4781 23.4865 21.5069 23.4865 21.5165 23.4955L22.5349 24.045L23.2555 24.4234L24.7543 25.2162L24.9849 25.3333C25.9072 24.4685 27.089 23.8288 28.4052 23.5495V19.8919C28.4052 19.8919 28.4437 19.8018 28.4917 19.8018H31.374C31.4797 19.8018 31.5662 19.8829 31.5662 19.982V23.5495C32.9016 23.8378 34.1026 24.4775 35.0345 25.3694L35.2747 25.2342L36.7351 24.4505L36.9369 24.3423L38.4933 23.4955C38.5414 23.4685 38.599 23.4865 38.6182 23.5225L40.0594 25.8649C40.0882 25.9189 40.0882 25.973 40.0786 26C40.069 26.036 40.0498 26.0811 39.9921 26.1081L38.82 26.7387L38.6278 26.8468L38.5221 26.9009L38.3684 26.973L36.8216 27.7477L36.6582 27.8288C36.9177 28.5045 37.0522 29.2342 37.0522 30C37.0522 30.7658 36.9177 31.4685 36.6775 32.1351L36.908 32.2703L38.3396 33.0991L38.5414 33.2162L38.9737 33.4685L39.9825 34.0631C40.0594 34.1081 40.0882 34.2342 40.0402 34.3063Z" fill="#8976FF"/>
</g>
<defs>
<clipPath id="clip0_3922_2694">
<rect width="24" height="24" fill="white" transform="translate(18 18)"/>
</clipPath>
</defs>
</svg>
