<svg xmlns="http://www.w3.org/2000/svg" viewBox="0 0 2048 2048">
  <path d="M0 939q0-129 33-249t95-224 147-190 190-147 225-95T939 0q129 0 249 33t224 95 190 147 147 190 94 225 34 249q0 129-33 249t-95 224-147 190-190 147-224 94-249 34q-130 0-249-33t-224-95-190-146-147-190-95-224T0 939zm1707 0q0-105-27-203t-78-183-120-156-156-120-184-78-203-28q-106 0-204 27t-183 78-156 120-120 155-77 184-28 204q0 106 27 204t78 184 120 155 155 120 183 77 205 28q159 0 298-60t244-165 165-244 61-299zM811 597q0-26 10-49t27-41 41-28 50-10q26 0 49 10t40 28 28 41 11 49q0 26-10 49t-27 41-41 28-50 10q-27 0-50-10t-41-27-27-40-10-51zm42 683V939q0-18 7-33t18-27 27-19 34-7q18 0 33 7t27 18 18 27 7 34v341q0 35-25 60t-60 25q-18 0-33-6t-27-18-19-27-7-34z" />
</svg>