<svg width="203" height="203" viewBox="0 0 203 203" fill="none" xmlns="http://www.w3.org/2000/svg">
<path d="M97.659 40.8195C99.8806 39.5495 102.608 39.5495 104.83 40.8195L152.992 68.3527C155.243 69.6391 156.631 72.0325 156.631 74.6244V129.516C156.631 132.108 155.243 134.502 152.992 135.788L104.83 163.321C102.608 164.591 99.8806 164.591 97.659 163.321L49.4964 135.788C47.2462 134.502 45.8576 132.108 45.8576 129.516V74.6244C45.8576 72.0325 47.2462 69.6391 49.4964 68.3527L97.659 40.8195Z" fill="url(#paint0_linear_2311_42845)" stroke="url(#paint1_linear_2311_42845)" stroke-width="6.02018"/>
<path d="M97.659 40.8195C99.8806 39.5495 102.608 39.5495 104.83 40.8195L152.992 68.3527C155.243 69.6391 156.631 72.0325 156.631 74.6244V129.516C156.631 132.108 155.243 134.502 152.992 135.788L104.83 163.321C102.608 164.591 99.8806 164.591 97.659 163.321L49.4964 135.788C47.2462 134.502 45.8576 132.108 45.8576 129.516V74.6244C45.8576 72.0325 47.2462 69.6391 49.4964 68.3527L97.659 40.8195Z" stroke="url(#paint2_linear_2311_42845)" stroke-width="6.02018"/>
<path d="M54.5908 77.7063L55.1222 105.247L113.3 60.4811L98.8299 51.7394L54.5908 77.7063Z" fill="url(#paint3_linear_2311_42845)" fill-opacity="0.16"/>
<path opacity="0.2" d="M101.32 154.85V53.1956L146.249 75.7273L147.27 129.961L101.32 154.85Z" fill="url(#paint4_linear_2311_42845)"/>
<ellipse rx="0.42738" ry="0.42443" transform="matrix(0.923453 0.383711 -0.390216 0.920723 96.751 149.007)" fill="white"/>
<ellipse rx="0.42738" ry="0.42443" transform="matrix(0.923453 0.383711 -0.390216 0.920723 96.751 149.007)" fill="white"/>
<ellipse rx="0.427379" ry="0.424431" transform="matrix(0.923452 0.383713 -0.390214 0.920724 70.8008 71.0412)" fill="white"/>
<ellipse rx="0.427379" ry="0.424431" transform="matrix(0.923452 0.383713 -0.390214 0.920724 70.8008 71.0412)" fill="white"/>
<ellipse rx="0.427377" ry="0.424431" transform="matrix(0.923452 0.383714 -0.390213 0.920725 99.1582 55.2469)" fill="white"/>
<ellipse rx="0.427377" ry="0.424431" transform="matrix(0.923452 0.383714 -0.390213 0.920725 99.1582 55.2469)" fill="white"/>
<ellipse rx="0.42738" ry="0.42443" transform="matrix(0.923453 0.383711 -0.390216 0.920723 54.0943 77.5852)" fill="white"/>
<ellipse rx="0.42738" ry="0.42443" transform="matrix(0.923453 0.383711 -0.390216 0.920723 54.0943 77.5852)" fill="white"/>
<ellipse rx="0.426983" ry="0.424831" transform="matrix(-0.871297 -0.490756 0.498142 -0.867095 106.471 57.3253)" fill="white"/>
<ellipse rx="0.426983" ry="0.424831" transform="matrix(-0.871297 -0.490756 0.498142 -0.867095 106.471 57.3253)" fill="white"/>
<ellipse rx="0.426983" ry="0.424831" transform="matrix(-0.871297 -0.490756 0.498142 -0.867095 125.523 111.835)" fill="white"/>
<ellipse rx="0.426983" ry="0.424831" transform="matrix(-0.871297 -0.490756 0.498142 -0.867095 125.523 111.835)" fill="white"/>
<ellipse rx="0.426983" ry="0.424831" transform="matrix(-0.871297 -0.490756 0.498142 -0.867095 125.523 111.835)" fill="white"/>
<ellipse rx="0.426983" ry="0.424831" transform="matrix(-0.871297 -0.490756 0.498142 -0.867095 125.523 111.835)" fill="white"/>
<ellipse rx="0.426983" ry="0.424831" transform="matrix(-0.871297 -0.490756 0.498142 -0.867095 64.6794 99.7747)" fill="white"/>
<ellipse rx="0.426983" ry="0.424831" transform="matrix(-0.871297 -0.490756 0.498142 -0.867095 64.6794 99.7747)" fill="white"/>
<ellipse rx="0.426983" ry="0.424831" transform="matrix(-0.871297 -0.490756 0.498142 -0.867095 129.439 131.334)" fill="white"/>
<ellipse rx="0.426983" ry="0.424831" transform="matrix(-0.871297 -0.490756 0.498142 -0.867095 129.439 131.334)" fill="white"/>
<ellipse rx="0.426983" ry="0.424831" transform="matrix(-0.871297 -0.490756 0.498142 -0.867095 124.682 67.9091)" fill="white"/>
<ellipse rx="0.426983" ry="0.424831" transform="matrix(-0.871297 -0.490756 0.498142 -0.867095 124.682 67.9091)" fill="white"/>
<ellipse rx="0.426983" ry="0.424831" transform="matrix(-0.871297 -0.490756 0.498142 -0.867095 95.22 93.7517)" fill="white"/>
<ellipse rx="0.426983" ry="0.424831" transform="matrix(-0.871297 -0.490756 0.498142 -0.867095 95.22 93.7517)" fill="white"/>
<ellipse rx="0.426981" ry="0.424829" transform="matrix(-0.871297 -0.490755 0.498143 -0.867095 59.8611 125.287)" fill="white"/>
<ellipse rx="0.426981" ry="0.424829" transform="matrix(-0.871297 -0.490755 0.498143 -0.867095 59.8611 125.287)" fill="white"/>
<ellipse rx="0.426981" ry="0.424829" transform="matrix(-0.871297 -0.490755 0.498143 -0.867095 95.1726 138.172)" fill="white"/>
<ellipse rx="0.426981" ry="0.424829" transform="matrix(-0.871297 -0.490755 0.498143 -0.867095 95.1726 138.172)" fill="white"/>
<ellipse rx="0.426982" ry="0.424831" transform="matrix(-0.871296 -0.490758 0.498141 -0.867096 89.6013 135.595)" fill="white"/>
<ellipse rx="0.426982" ry="0.424831" transform="matrix(-0.871296 -0.490758 0.498141 -0.867096 89.6013 135.595)" fill="white"/>
<ellipse rx="0.426983" ry="0.424831" transform="matrix(-0.871297 -0.490756 0.498142 -0.867095 147.015 87.6804)" fill="white"/>
<ellipse rx="0.426983" ry="0.424831" transform="matrix(-0.871297 -0.490756 0.498142 -0.867095 147.015 87.6804)" fill="white"/>
<ellipse rx="0.426983" ry="0.424831" transform="matrix(-0.871297 -0.490756 0.498142 -0.867095 92.3655 97.9889)" fill="white"/>
<ellipse rx="0.426983" ry="0.424831" transform="matrix(-0.871297 -0.490756 0.498142 -0.867095 92.3655 97.9889)" fill="white"/>
<g filter="url(#filter0_d_2311_42845)">
<path d="M97.8694 40.8195C100.091 39.5495 102.819 39.5495 105.04 40.8195L153.203 68.3527C155.453 69.6391 156.842 72.0325 156.842 74.6244V129.516C156.842 132.108 155.453 134.502 153.203 135.788L105.04 163.321C102.819 164.591 100.091 164.591 97.8694 163.321L49.7069 135.788C47.4567 134.502 46.068 132.108 46.068 129.516V74.6244C46.068 72.0325 47.4567 69.6391 49.7069 68.3527L97.8694 40.8195Z" stroke="url(#paint5_linear_2311_42845)" stroke-width="6.02018"/>
</g>
<g filter="url(#filter1_d_2311_42845)">
<path d="M97.5987 39.2777C99.8181 38.0109 102.542 38.0109 104.761 39.2777L153.014 66.82C155.267 68.1057 156.657 70.5004 156.657 73.0941V127.977C156.657 130.571 155.267 132.965 153.014 134.251L104.761 161.793C102.542 163.06 99.8181 163.06 97.5987 161.793L49.3457 134.251C47.0931 132.965 45.7026 130.571 45.7026 127.977V73.0941C45.7026 70.5004 47.0931 68.1057 49.3457 66.82L97.5987 39.2777Z" stroke="url(#paint6_linear_2311_42845)" stroke-width="6.02018"/>
</g>
<path d="M72.4635 82.4016L66.0996 81.022L68.8819 104.872L79.4322 128.918L95.5563 142.519L105.708 143.11L118.249 136.408L126.809 123.991L134.971 102.112L137.957 80.4306L129.397 82.5988L117.652 77.474L101.727 65.4506L87.5938 76.0942L72.4635 82.4016Z" fill="url(#paint7_linear_2311_42845)"/>
<path fill-rule="evenodd" clip-rule="evenodd" d="M101.694 66.995C105.937 70.9816 112.1 75.944 118.393 79.3428C121.923 81.2492 125.565 82.7036 128.979 83.1791C131.522 83.5333 133.997 83.3495 136.195 82.3545C135.504 92.2103 133.135 105.942 128.088 117.785C122.614 130.631 114.179 140.851 101.694 142.079C89.2096 140.851 80.7744 130.631 75.3002 117.785C70.2532 105.942 67.8844 92.2103 67.1932 82.3545C69.3909 83.3495 71.8663 83.5333 74.4094 83.1791C77.8229 82.7036 81.4655 81.2492 84.9951 79.3428C91.2878 75.944 97.451 70.9816 101.694 66.995ZM101.694 64.0924L101.996 63.7874C106.094 67.8457 112.804 73.4608 119.59 77.1262C122.986 78.9603 126.328 80.2663 129.326 80.6838C132.308 81.0992 134.84 80.6255 136.802 79.0452L138.978 77.2928L138.85 80.0836C138.388 90.2196 136.025 105.585 130.406 118.773C124.808 131.908 115.788 143.288 101.815 144.598L101.694 143.305L101.573 144.598C87.5999 143.288 78.58 131.908 72.9825 118.773C67.3627 105.585 64.9998 90.2196 64.5378 80.0836L64.4106 77.2928L66.5864 79.0452C68.5484 80.6255 71.0797 81.0992 74.0618 80.6838C77.0596 80.2663 80.4021 78.9603 83.7978 77.1262C90.584 73.4608 97.2941 67.8457 101.392 63.7874L101.694 64.0924Z" fill="url(#paint8_linear_2311_42845)"/>
<path opacity="0.25" d="M101.526 138.942V71.012C107.329 80.2062 123.566 86.3357 130.96 88.2513L129.094 103.643C126.275 122.36 109.541 134.975 101.526 138.942Z" fill="white"/>
<defs>
<filter id="filter0_d_2311_42845" x="40.65" y="36.8569" width="121.61" height="135.243" filterUnits="userSpaceOnUse" color-interpolation-filters="sRGB">
<feFlood flood-opacity="0" result="BackgroundImageFix"/>
<feColorMatrix in="SourceAlpha" type="matrix" values="0 0 0 0 0 0 0 0 0 0 0 0 0 0 0 0 0 0 127 0" result="hardAlpha"/>
<feOffset dy="2.40807"/>
<feGaussianBlur stdDeviation="1.20404"/>
<feColorMatrix type="matrix" values="0 0 0 0 0 0 0 0 0 0 0 0 0 0 0 0 0 0 0.25 0"/>
<feBlend mode="normal" in2="BackgroundImageFix" result="effect1_dropShadow_2311_42845"/>
<feBlend mode="normal" in="SourceGraphic" in2="effect1_dropShadow_2311_42845" result="shape"/>
</filter>
<filter id="filter1_d_2311_42845" x="40.2843" y="35.3175" width="121.791" height="135.252" filterUnits="userSpaceOnUse" color-interpolation-filters="sRGB">
<feFlood flood-opacity="0" result="BackgroundImageFix"/>
<feColorMatrix in="SourceAlpha" type="matrix" values="0 0 0 0 0 0 0 0 0 0 0 0 0 0 0 0 0 0 127 0" result="hardAlpha"/>
<feOffset dy="2.40807"/>
<feGaussianBlur stdDeviation="1.20404"/>
<feColorMatrix type="matrix" values="0 0 0 0 0 0 0 0 0 0 0 0 0 0 0 0 0 0 0.25 0"/>
<feBlend mode="normal" in2="BackgroundImageFix" result="effect1_dropShadow_2311_42845"/>
<feBlend mode="normal" in="SourceGraphic" in2="effect1_dropShadow_2311_42845" result="shape"/>
</filter>
<linearGradient id="paint0_linear_2311_42845" x1="101.244" y1="35.3026" x2="101.244" y2="168.838" gradientUnits="userSpaceOnUse">
<stop stop-color="#436EEE"/>
<stop offset="0.971019" stop-color="#201D75"/>
</linearGradient>
<linearGradient id="paint1_linear_2311_42845" x1="101.244" y1="35.3026" x2="101.244" y2="168.838" gradientUnits="userSpaceOnUse">
<stop stop-color="white"/>
<stop offset="1" stop-color="#D7D9EA"/>
</linearGradient>
<linearGradient id="paint2_linear_2311_42845" x1="101.244" y1="35.3026" x2="101.244" y2="168.838" gradientUnits="userSpaceOnUse">
<stop stop-color="#0500FF"/>
<stop offset="1" stop-color="#D7D9EA"/>
</linearGradient>
<linearGradient id="paint3_linear_2311_42845" x1="65.9569" y1="86.1448" x2="107.404" y2="62.3543" gradientUnits="userSpaceOnUse">
<stop stop-color="#C4C4C4"/>
<stop offset="1" stop-color="#C4C4C4" stop-opacity="0"/>
</linearGradient>
<linearGradient id="paint4_linear_2311_42845" x1="124.295" y1="53.1956" x2="121.952" y2="147.572" gradientUnits="userSpaceOnUse">
<stop offset="0.289595" stop-color="#2C2B2B"/>
<stop offset="1" stop-color="#2C2B2B" stop-opacity="0.54"/>
</linearGradient>
<linearGradient id="paint5_linear_2311_42845" x1="101.455" y1="35.3026" x2="101.455" y2="168.838" gradientUnits="userSpaceOnUse">
<stop stop-color="#182EF6"/>
<stop offset="1" stop-color="#D7D9EA"/>
</linearGradient>
<linearGradient id="paint6_linear_2311_42845" x1="43.5839" y1="54.099" x2="156.659" y2="149.782" gradientUnits="userSpaceOnUse">
<stop stop-color="#F5F8FE"/>
<stop offset="1" stop-color="white" stop-opacity="0"/>
</linearGradient>
<linearGradient id="paint7_linear_2311_42845" x1="102.028" y1="65.4506" x2="102.028" y2="143.11" gradientUnits="userSpaceOnUse">
<stop stop-color="#B3A2D3"/>
<stop offset="1" stop-color="#5F6DBE"/>
</linearGradient>
<linearGradient id="paint8_linear_2311_42845" x1="101.694" y1="63.7874" x2="101.694" y2="144.598" gradientUnits="userSpaceOnUse">
<stop offset="0.731431" stop-color="#F0F1FF"/>
<stop offset="1" stop-color="#052985"/>
</linearGradient>
</defs>
</svg>
