<svg width="60" height="60" viewBox="0 0 60 60" fill="none" xmlns="http://www.w3.org/2000/svg">
<circle cx="30" cy="30" r="30" fill="#F1F3FF"/>
<g clip-path="url(#clip0_3840_3856)">
<path d="M23.373 38.4445C22.3291 38.3833 21.3822 38.048 20.5258 37.4616C19.2193 36.5679 18.3823 35.339 18.099 33.813C17.8015 32.2066 18.1689 30.71 19.1857 29.3879C20.0187 28.3043 21.1131 27.621 22.4352 27.2742C22.496 27.2589 22.5632 27.2589 22.6266 27.2602C22.8556 27.2678 22.9138 27.1646 22.9293 26.9389C23.0238 25.5098 23.4752 24.2005 24.3381 23.0366C25.1194 21.9835 26.0948 21.1587 27.3043 20.6207C28.193 20.2268 29.1205 20.0241 30.1036 20.0024C31.4903 19.9718 32.7891 20.2306 34.009 20.8974C35.56 21.7451 36.6531 22.9754 37.3244 24.5894C37.6478 25.3683 37.8432 26.1664 37.8315 27.0078C37.8289 27.1913 37.9247 27.2347 38.0721 27.264C40.411 27.7102 41.9193 29.0985 42.5777 31.3155C42.9231 32.4782 42.8778 33.697 42.3772 34.8392C42.1922 35.2625 42.4704 35.5353 42.5907 35.8489C43.0072 36.93 43.068 38.0328 42.9425 39.1687C42.8002 40.455 42.2776 41.5794 41.4484 42.5496C40.4627 43.7033 39.2157 44.5039 37.7009 44.8099C37.0424 44.9425 36.353 45.0317 35.6855 44.9922C34.4242 44.9183 33.2535 44.4912 32.2225 43.7645C30.9496 42.867 30.0674 41.6699 29.6211 40.1873C29.4555 39.6365 29.3753 39.0616 29.2447 38.4356H23.4429C23.4196 38.4394 23.3976 38.442 23.3743 38.4458L23.373 38.4445ZM24.9228 28.8844C24.4338 28.9162 23.9681 28.9481 23.5011 28.9761C22.2787 29.0488 21.3123 29.5919 20.5918 30.5519C20.064 31.253 19.7988 32.0664 19.8389 32.9282C19.8803 33.7836 20.1817 34.5855 20.7496 35.2523C21.3938 36.0095 22.2295 36.5539 23.2243 36.5909C25.2552 36.6661 27.29 36.6215 29.3236 36.6164C29.4076 36.6164 29.5448 36.522 29.5668 36.4468C30.0544 34.7857 31.013 33.4739 32.4955 32.5381C33.4126 31.9593 34.4087 31.5973 35.4927 31.5322C36.0645 31.4978 36.6453 31.5424 37.2184 31.5934C38.2817 31.6878 39.2196 32.1251 40.0927 32.7038C40.3722 32.89 40.6296 33.1092 40.9698 33.3693C40.931 32.918 40.8961 32.556 40.8702 32.1926C40.8081 31.3487 40.3941 30.6615 39.812 30.0904C39.0708 29.3624 38.1575 28.9723 37.0916 28.98C36.6971 28.9825 36.3038 28.98 35.873 28.98C36.4099 25.8285 35.4565 23.3872 32.3764 22.1569C30.3352 21.3423 28.3314 21.7145 26.6691 23.1794C24.9396 24.7028 24.4558 26.6623 24.9228 28.8844ZM36.0761 43.1641C38.8599 43.2584 41.3307 40.9445 41.1923 37.9779C41.0797 35.5646 39.0113 33.173 35.8989 33.3068C33.2677 33.4203 31.1618 35.506 31.1437 38.2291C31.1255 40.8999 33.3272 43.1743 36.0748 43.1653L36.0761 43.1641Z" fill="#8976FF"/>
<path d="M38.7453 37.3727C39.0959 37.3281 39.4206 37.6851 39.5059 38.0076C39.6172 38.4207 39.4024 38.8528 39.0286 39.0326C38.9367 39.0772 38.8371 39.1078 38.7414 39.1448C38.7181 39.1422 38.6936 39.1384 38.6703 39.1359C37.7686 39.1359 36.8683 39.1359 35.9667 39.1359C35.9214 39.1384 35.8761 39.141 35.8308 39.1448C35.2254 38.9319 35.0624 38.705 35.0624 38.0675C35.0624 36.9992 35.0586 35.9296 35.065 34.8612C35.0676 34.3564 35.4039 34.0096 35.8709 34.0033C36.497 33.9943 36.8372 34.2735 36.8748 34.823C36.8722 35.5777 36.8683 36.3312 36.8709 37.0859C36.8709 37.1598 36.9136 37.2338 36.9369 37.3077C37.5151 37.3154 38.0946 37.323 38.6729 37.3319C38.6974 37.3447 38.7207 37.3587 38.7453 37.3714V37.3727Z" fill="#8976FF"/>
<path d="M36.9357 37.3072C36.9124 37.2333 36.8697 37.1593 36.8697 37.0854C36.8672 36.3307 36.871 35.5772 36.8736 34.8225C36.893 34.9207 36.928 35.0188 36.9293 35.117C36.9357 35.8462 36.9344 36.5767 36.937 37.3059L36.9357 37.3072Z" fill="#6C6D6E"/>
<path d="M35.8308 39.1453C35.8761 39.1428 35.9214 39.1402 35.9666 39.1364C35.9214 39.1389 35.8761 39.1415 35.8308 39.1453Z" fill="#535354"/>
</g>
<defs>
<clipPath id="clip0_3840_3856">
<rect width="25" height="25" fill="white" transform="translate(18 20)"/>
</clipPath>
</defs>
</svg>
