<svg width="203" height="203" viewBox="0 0 203 203" fill="none" xmlns="http://www.w3.org/2000/svg">
<circle cx="71.0464" cy="100.948" r="0.0818052" transform="rotate(52.7651 71.0464 100.948)" fill="white"/>
<circle cx="71.0464" cy="100.948" r="0.0818052" transform="rotate(52.7651 71.0464 100.948)" fill="white"/>
<circle cx="71.8168" cy="99.0159" r="0.0818052" transform="rotate(-120.367 71.8168 99.0159)" fill="white"/>
<circle cx="71.8168" cy="99.0159" r="0.0818052" transform="rotate(-120.367 71.8168 99.0159)" fill="white"/>
<path d="M45.9163 73.7822C45.9163 71.1655 47.3123 68.7476 49.5785 67.4392L97.9811 39.494C100.247 38.1856 103.039 38.1856 105.305 39.494L153.708 67.4392C155.974 68.7476 157.37 71.1655 157.37 73.7822L157.37 129.673C157.37 132.289 155.974 134.707 153.708 136.016L105.305 163.961C103.039 165.269 100.247 165.269 97.9811 163.961L49.5785 136.016C47.3123 134.707 45.9163 132.289 45.9163 129.673L45.9163 73.7822Z" fill="url(#paint0_linear_2311_42843)" stroke="url(#paint1_linear_2311_42843)" stroke-width="6.10356"/>
<path d="M45.9163 73.7822C45.9163 71.1655 47.3123 68.7476 49.5785 67.4392L97.9811 39.494C100.247 38.1856 103.039 38.1856 105.305 39.494L153.708 67.4392C155.974 68.7476 157.37 71.1655 157.37 73.7822L157.37 129.673C157.37 132.289 155.974 134.707 153.708 136.016L105.305 163.961C103.039 165.269 100.247 165.269 97.9811 163.961L49.5785 136.016C47.3123 134.707 45.9163 132.289 45.9163 129.673L45.9163 73.7822Z" stroke="url(#paint2_linear_2311_42843)" stroke-width="6.10356"/>
<path d="M56.7143 129.404L81.2269 142.938L71.0964 69.4729L56.1186 77.6428L56.7143 129.404Z" fill="url(#paint3_linear_2311_42843)" fill-opacity="0.16"/>
<path opacity="0.2" d="M102.043 154.551L102.043 51.2159L147.266 74.1202L148.294 129.25L102.043 154.551Z" fill="url(#paint4_linear_2311_42843)"/>
<circle cx="140.7" cy="128.893" r="0.430938" transform="rotate(-37.2349 140.7 128.893)" fill="white"/>
<circle cx="140.7" cy="128.893" r="0.430938" transform="rotate(-37.2349 140.7 128.893)" fill="white"/>
<circle cx="59.0008" cy="111.888" r="0.430938" transform="rotate(-37.2349 59.0008 111.888)" fill="white"/>
<circle cx="59.0008" cy="111.888" r="0.430938" transform="rotate(-37.2349 59.0008 111.888)" fill="white"/>
<circle cx="59.37" cy="79.1385" r="0.430938" transform="rotate(-37.2349 59.37 79.1385)" fill="white"/>
<circle cx="59.37" cy="79.1385" r="0.430938" transform="rotate(-37.2349 59.37 79.1385)" fill="white"/>
<circle cx="56.3587" cy="129.773" r="0.430938" transform="rotate(-37.2349 56.3587 129.773)" fill="white"/>
<circle cx="56.3587" cy="129.773" r="0.430938" transform="rotate(-37.2349 56.3587 129.773)" fill="white"/>
<circle cx="64.881" cy="73.8202" r="0.430938" transform="rotate(149.633 64.881 73.8202)" fill="white"/>
<circle cx="64.881" cy="73.8202" r="0.430938" transform="rotate(149.633 64.881 73.8202)" fill="white"/>
<circle cx="122.457" cy="84.9183" r="0.430938" transform="rotate(149.633 122.457 84.9183)" fill="white"/>
<circle cx="122.457" cy="84.9183" r="0.430938" transform="rotate(149.633 122.457 84.9183)" fill="white"/>
<circle cx="122.457" cy="84.9183" r="0.430938" transform="rotate(149.633 122.457 84.9183)" fill="white"/>
<circle cx="122.457" cy="84.9183" r="0.430938" transform="rotate(149.633 122.457 84.9183)" fill="white"/>
<circle cx="81.2184" cy="131.825" r="0.430938" transform="rotate(149.633 81.2184 131.825)" fill="white"/>
<circle cx="81.2184" cy="131.825" r="0.430938" transform="rotate(149.633 81.2184 131.825)" fill="white"/>
<circle cx="141.596" cy="91.4156" r="0.430938" transform="rotate(149.633 141.596 91.4156)" fill="white"/>
<circle cx="141.596" cy="91.4156" r="0.430938" transform="rotate(149.633 141.596 91.4156)" fill="white"/>
<circle cx="83.3639" cy="63.3271" r="0.430938" transform="rotate(149.633 83.3639 63.3271)" fill="white"/>
<circle cx="83.3639" cy="63.3271" r="0.430938" transform="rotate(149.633 83.3639 63.3271)" fill="white"/>
<circle cx="91.2844" cy="102.142" r="0.430938" transform="rotate(149.633 91.2844 102.142)" fill="white"/>
<circle cx="91.2844" cy="102.142" r="0.430938" transform="rotate(149.633 91.2844 102.142)" fill="white"/>
<circle cx="101.254" cy="148.992" r="0.430938" transform="rotate(149.633 101.254 148.992)" fill="white"/>
<circle cx="101.254" cy="148.992" r="0.430938" transform="rotate(149.633 101.254 148.992)" fill="white"/>
<circle cx="130.368" cy="124.762" r="0.430938" transform="rotate(149.633 130.368 124.762)" fill="white"/>
<circle cx="130.368" cy="124.762" r="0.430938" transform="rotate(149.633 130.368 124.762)" fill="white"/>
<circle cx="125.294" cy="128.309" r="0.430938" transform="rotate(149.633 125.294 128.309)" fill="white"/>
<circle cx="125.294" cy="128.309" r="0.430938" transform="rotate(149.633 125.294 128.309)" fill="white"/>
<circle cx="112.008" cy="53.9088" r="0.430938" transform="rotate(149.633 112.008 53.9088)" fill="white"/>
<circle cx="112.008" cy="53.9088" r="0.430938" transform="rotate(149.633 112.008 53.9088)" fill="white"/>
<circle cx="93.5783" cy="106.784" r="0.430938" transform="rotate(149.633 93.5783 106.784)" fill="white"/>
<circle cx="93.5783" cy="106.784" r="0.430938" transform="rotate(149.633 93.5783 106.784)" fill="white"/>
<g filter="url(#filter0_d_2311_42843)">
<path d="M45.9163 73.7822C45.9163 71.1655 47.3123 68.7476 49.5785 67.4392L97.9811 39.494C100.247 38.1856 103.039 38.1856 105.305 39.494L153.708 67.4392C155.974 68.7476 157.37 71.1655 157.37 73.7822L157.37 129.673C157.37 132.289 155.974 134.707 153.708 136.016L105.305 163.961C103.039 165.269 100.247 165.269 97.9811 163.961L49.5785 136.016C47.3123 134.707 45.9163 132.289 45.9163 129.673L45.9163 73.7822Z" stroke="url(#paint5_linear_2311_42843)" stroke-width="6.10356"/>
</g>
<g filter="url(#filter1_d_2311_42843)">
<path d="M45.6649 73.4891C45.6649 70.8724 47.0609 68.4544 49.327 67.1461L97.7296 39.2008C99.9957 37.8925 102.788 37.8925 105.054 39.2008L153.456 67.1461C155.723 68.4544 157.119 70.8724 157.119 73.4891L157.119 129.38C157.119 131.996 155.723 134.414 153.456 135.723L105.054 163.668C102.788 164.976 99.9957 164.976 97.7296 163.668L49.327 135.723C47.0609 134.414 45.6649 131.996 45.6649 129.38L45.6649 73.4891Z" stroke="url(#paint6_linear_2311_42843)" stroke-width="6.10356"/>
</g>
<g filter="url(#filter2_d_2311_42843)">
<path fill-rule="evenodd" clip-rule="evenodd" d="M100.12 101.295L100.12 90.2861L90.9928 90.2861C89.8597 92.6476 89.048 94.9253 88.7791 96.9163C91.7594 97.1032 94.1187 99.5796 94.1187 102.607C94.1187 105.504 91.958 107.897 89.16 108.261C89.5131 110.114 90.1216 112.554 90.9958 115.174L100.12 115.174L100.12 103.172L94.2482 103.172L94.2482 101.295L100.12 101.295ZM87.2448 108.224C87.5748 110.06 88.1625 112.511 89.0208 115.174L77.1248 115.174C75.3293 111.626 74.2728 107.64 74.1577 103.42L82.7723 103.42C83.1162 105.829 84.9667 107.753 87.3391 108.207L87.2448 108.224ZM89.6599 117.05L78.1676 117.05C82.2322 123.741 89.0434 128.578 97.0362 129.997C94.6768 127.565 92.7839 124.361 91.3121 121.13C90.6941 119.773 90.1439 118.398 89.6599 117.05ZM100.12 117.05L91.6583 117.05C92.0671 118.146 92.5207 119.256 93.0198 120.352C94.8427 124.354 97.2144 128.037 100.12 130.24L100.12 117.05ZM101.996 130.286L101.996 117.05L107.952 117.05C108.286 119.071 109.682 120.733 111.547 121.444C110.435 122.978 108.836 124.967 107.123 126.688C106.112 127.705 105.08 128.608 104.102 129.268C103.299 129.81 102.59 130.148 101.996 130.286ZM113.468 110.413C110.688 110.465 108.395 112.507 107.953 115.174L101.996 115.174L101.996 103.172L114.081 103.172C114.079 105.531 113.914 108.046 113.468 110.413ZM114.05 101.295L101.996 101.295L101.996 90.2861L107.65 90.2861C108.241 92.804 110.502 94.6784 113.2 94.6784C113.273 94.6784 113.345 94.6771 113.416 94.6744C113.673 96.1613 113.957 98.5514 114.05 101.295ZM115.958 103.172C115.955 105.608 115.786 108.213 115.326 110.685C117.447 111.367 119.025 113.258 119.252 115.545L126.534 115.545C128.482 111.836 129.616 107.632 129.698 103.172L115.958 103.172ZM125.453 117.422L119.129 117.422C118.538 119.939 116.28 121.813 113.583 121.816C112.436 123.474 110.535 125.92 108.454 128.012C107.701 128.768 106.916 129.488 106.124 130.111C114.265 128.877 121.245 124.109 125.453 117.422ZM129.671 101.295L115.928 101.295C115.832 98.3803 115.527 95.8515 115.255 94.2969C116.993 93.6254 118.319 92.1271 118.752 90.2845L126.807 90.2845C128.471 93.6277 129.482 97.3536 129.671 101.295ZM125.78 88.4079L118.874 88.4079C118.589 85.5257 116.158 83.2745 113.2 83.2745C113.04 83.2745 112.881 83.2811 112.723 83.2942C111.552 81.7135 109.633 79.837 107.737 78.1458C106.407 76.9594 105.06 75.8396 103.936 74.9419C113.227 75.6066 121.253 80.8402 125.78 88.4079ZM91.9492 88.4095L100.12 88.4095L100.12 76.4164C98.269 78.6814 96.0134 81.6962 93.9926 84.914C93.266 86.0708 92.5764 87.2438 91.9492 88.4095ZM89.8291 88.4095L78.0691 88.4095C82.4175 81.1396 89.9949 76.0233 98.8202 75.0418C96.8965 77.3816 94.5257 80.5367 92.4034 83.9159C91.4881 85.3734 90.6087 86.8883 89.8291 88.4095ZM77.0427 90.2861L88.9222 90.2861C87.8561 92.6419 87.0934 94.962 86.8724 97.0551L87.0386 97.0727C84.8929 97.6052 83.2271 99.353 82.8138 101.543L74.1687 101.543C74.3265 97.5108 75.3438 93.699 77.0427 90.2861ZM107.526 88.4095C107.727 86.3796 108.992 84.6624 110.755 83.8239C109.687 82.5267 108.123 81.0047 106.488 79.5462C104.864 78.0975 103.212 76.7485 101.996 75.8011L101.996 88.4095L107.526 88.4095ZM133.456 102.648C133.456 120.062 119.339 134.179 101.925 134.179C84.511 134.179 70.394 120.062 70.394 102.648C70.394 85.234 84.511 71.1171 101.925 71.1171C119.339 71.1171 133.456 85.234 133.456 102.648ZM113.2 92.8019C115.313 92.8019 117.026 91.0892 117.026 88.9765C117.026 86.8637 115.313 85.151 113.2 85.151C111.088 85.151 109.375 86.8637 109.375 88.9765C109.375 91.0892 111.088 92.8019 113.2 92.8019ZM92.2422 102.607C92.2422 104.72 90.5295 106.432 88.4168 106.432C86.3041 106.432 84.5914 104.72 84.5914 102.607C84.5914 100.494 86.3041 98.7816 88.4168 98.7816C90.5295 98.7816 92.2422 100.494 92.2422 102.607ZM113.578 119.939C115.69 119.939 117.403 118.227 117.403 116.114C117.403 114.001 115.69 112.288 113.578 112.288C111.465 112.288 109.752 114.001 109.752 116.114C109.752 118.227 111.465 119.939 113.578 119.939Z" fill="url(#paint7_linear_2311_42843)"/>
</g>
<defs>
<filter id="filter0_d_2311_42843" x="40.4233" y="35.4609" width="122.44" height="137.416" filterUnits="userSpaceOnUse" color-interpolation-filters="sRGB">
<feFlood flood-opacity="0" result="BackgroundImageFix"/>
<feColorMatrix in="SourceAlpha" type="matrix" values="0 0 0 0 0 0 0 0 0 0 0 0 0 0 0 0 0 0 127 0" result="hardAlpha"/>
<feOffset dy="2.44142"/>
<feGaussianBlur stdDeviation="1.22071"/>
<feColorMatrix type="matrix" values="0 0 0 0 0 0 0 0 0 0 0 0 0 0 0 0 0 0 0.25 0"/>
<feBlend mode="normal" in2="BackgroundImageFix" result="effect1_dropShadow_2311_42843"/>
<feBlend mode="normal" in="SourceGraphic" in2="effect1_dropShadow_2311_42843" result="shape"/>
</filter>
<filter id="filter1_d_2311_42843" x="40.1719" y="35.1678" width="122.44" height="137.416" filterUnits="userSpaceOnUse" color-interpolation-filters="sRGB">
<feFlood flood-opacity="0" result="BackgroundImageFix"/>
<feColorMatrix in="SourceAlpha" type="matrix" values="0 0 0 0 0 0 0 0 0 0 0 0 0 0 0 0 0 0 127 0" result="hardAlpha"/>
<feOffset dy="2.44142"/>
<feGaussianBlur stdDeviation="1.22071"/>
<feColorMatrix type="matrix" values="0 0 0 0 0 0 0 0 0 0 0 0 0 0 0 0 0 0 0.25 0"/>
<feBlend mode="normal" in2="BackgroundImageFix" result="effect1_dropShadow_2311_42843"/>
<feBlend mode="normal" in="SourceGraphic" in2="effect1_dropShadow_2311_42843" result="shape"/>
</filter>
<filter id="filter2_d_2311_42843" x="68.4519" y="71.1171" width="66.9467" height="66.9465" filterUnits="userSpaceOnUse" color-interpolation-filters="sRGB">
<feFlood flood-opacity="0" result="BackgroundImageFix"/>
<feColorMatrix in="SourceAlpha" type="matrix" values="0 0 0 0 0 0 0 0 0 0 0 0 0 0 0 0 0 0 127 0" result="hardAlpha"/>
<feOffset dy="1.94211"/>
<feGaussianBlur stdDeviation="0.971055"/>
<feColorMatrix type="matrix" values="0 0 0 0 0 0 0 0 0 0 0 0 0 0 0 0 0 0 0.25 0"/>
<feBlend mode="normal" in2="BackgroundImageFix" result="effect1_dropShadow_2311_42843"/>
<feBlend mode="normal" in="SourceGraphic" in2="effect1_dropShadow_2311_42843" result="shape"/>
</filter>
<linearGradient id="paint0_linear_2311_42843" x1="42.8646" y1="67.7916" x2="107.412" y2="97.4553" gradientUnits="userSpaceOnUse">
<stop stop-color="#D14DD5"/>
<stop offset="1" stop-color="#343BBA"/>
</linearGradient>
<linearGradient id="paint1_linear_2311_42843" x1="42.8646" y1="67.7916" x2="160.422" y2="135.663" gradientUnits="userSpaceOnUse">
<stop stop-color="#9C62CD"/>
<stop offset="1" stop-color="#D7D9EA"/>
</linearGradient>
<linearGradient id="paint2_linear_2311_42843" x1="42.8646" y1="67.7916" x2="160.422" y2="135.663" gradientUnits="userSpaceOnUse">
<stop stop-color="#9C62CD"/>
<stop offset="1" stop-color="#D7D9EA"/>
</linearGradient>
<linearGradient id="paint3_linear_2311_42843" x1="69.8633" y1="123.785" x2="70.1902" y2="75.5665" gradientUnits="userSpaceOnUse">
<stop stop-color="#C4C4C4"/>
<stop offset="1" stop-color="#C4C4C4" stop-opacity="0"/>
</linearGradient>
<linearGradient id="paint4_linear_2311_42843" x1="125.169" y1="51.2159" x2="122.763" y2="147.152" gradientUnits="userSpaceOnUse">
<stop offset="0.289595" stop-color="#2C2B2B"/>
<stop offset="1" stop-color="#2C2B2B" stop-opacity="0.54"/>
</linearGradient>
<linearGradient id="paint5_linear_2311_42843" x1="42.8646" y1="67.7916" x2="160.422" y2="135.663" gradientUnits="userSpaceOnUse">
<stop stop-color="#9C62CD"/>
<stop offset="1" stop-color="#D7D9EA"/>
</linearGradient>
<linearGradient id="paint6_linear_2311_42843" x1="31.5702" y1="127.96" x2="172.044" y2="76.5958" gradientUnits="userSpaceOnUse">
<stop stop-color="white"/>
<stop offset="1" stop-color="white" stop-opacity="0"/>
</linearGradient>
<linearGradient id="paint7_linear_2311_42843" x1="101.925" y1="71.1171" x2="101.925" y2="134.179" gradientUnits="userSpaceOnUse">
<stop offset="0.0907946" stop-color="#E6B9ED"/>
<stop offset="0.507469" stop-color="white"/>
</linearGradient>
</defs>
</svg>
