<svg width="22" height="22" viewBox="0 0 22 22" fill="none" xmlns="http://www.w3.org/2000/svg">
<g clip-path="url(#clip0_120_1133)">
<path d="M16.06 21.3599C16.28 21.5099 16.54 21.5999 16.8 21.5999C17.06 21.5999 17.32 21.5099 17.53 21.3599C17.75 21.1999 17.92 20.9799 18.01 20.7199L18.41 19.4999C18.5 19.2499 18.64 19.0199 18.83 18.8299C19.02 18.6399 19.25 18.4999 19.5 18.4199L20.74 18.0199C20.99 17.9299 21.21 17.7699 21.37 17.5499C21.49 17.3899 21.56 17.1899 21.59 16.9899C21.62 16.7899 21.6 16.5899 21.54 16.3899C21.48 16.1999 21.37 16.0199 21.22 15.8799C21.08 15.7399 20.9 15.6299 20.71 15.5699L19.49 15.1699C19.24 15.0899 19.01 14.9399 18.82 14.7599C18.63 14.5699 18.49 14.3399 18.4 14.0899L18 12.8499C17.91 12.5999 17.75 12.3799 17.53 12.2299C17.37 12.1099 17.18 12.0399 16.98 12.0099C16.78 11.9799 16.58 11.9999 16.39 12.0599C16.2 12.1199 16.03 12.2299 15.88 12.3699C15.74 12.5099 15.63 12.6799 15.57 12.8799L15.17 14.0999C15.09 14.3499 14.95 14.5799 14.76 14.7699C14.58 14.9599 14.35 15.0999 14.11 15.1799L12.87 15.5799C12.68 15.6499 12.51 15.7499 12.37 15.8999C12.23 16.0399 12.13 16.2199 12.07 16.4099C12.01 16.5999 11.99 16.7999 12.03 16.9999C12.06 17.1999 12.14 17.3799 12.25 17.5499C12.41 17.7699 12.63 17.9399 12.89 18.0299L14.11 18.4299C14.36 18.5199 14.6 18.6599 14.79 18.8499C14.98 19.0399 15.12 19.2699 15.2 19.5299L15.6 20.7699C15.69 21.0199 15.85 21.2399 16.07 21.3899L16.06 21.3599Z" fill="url(#paint0_linear_120_1133)"/>
<path d="M6.24 14.0902C6.52 14.2902 6.86 14.4002 7.2 14.4002C7.55 14.4002 7.88 14.2902 8.16 14.0902C8.44 13.8802 8.66 13.5902 8.77 13.2602L9.39 11.3402C9.54 10.8902 9.8 10.4802 10.13 10.1402C10.47 9.80023 10.88 9.55023 11.33 9.40023L13.28 8.76023C13.6 8.64023 13.88 8.43023 14.08 8.15023C14.28 7.87023 14.38 7.54023 14.38 7.19023C14.38 6.84023 14.27 6.51023 14.08 6.23023C13.87 5.93023 13.56 5.71023 13.21 5.60023L11.29 4.98023C10.84 4.83023 10.43 4.58023 10.09 4.24023C9.75 3.90023 9.5 3.49023 9.35 3.04023L8.71 1.09023C8.6 0.770234 8.38 0.490234 8.11 0.290234C7.83 0.100234 7.49 -0.00976562 7.15 -0.00976562C6.81 -0.00976562 6.47 0.0902344 6.19 0.290234C5.9 0.490234 5.69 0.780234 5.57 1.11023L4.93 3.07023C4.78 3.51023 4.53 3.91023 4.2 4.24023C3.87 4.57023 3.48 4.82023 3.04 4.98023L1.09 5.61023C0.76 5.73023 0.48 5.94023 0.28 6.22023C0.1 6.52023 0 6.85023 0 7.20023C0 7.55023 0.11 7.88023 0.32 8.16023C0.52 8.44023 0.81 8.65024 1.14 8.76023L3.06 9.38023C3.51 9.53023 3.93 9.79023 4.26 10.1302C4.35 10.2202 4.44 10.3202 4.52 10.4202C4.73 10.6902 4.9 11.0002 5.01 11.3302L5.64 13.2702C5.75 13.6002 5.97 13.8802 6.25 14.0802L6.24 14.0902Z" fill="url(#paint1_linear_120_1133)"/>
</g>
<defs>
<linearGradient id="paint0_linear_120_1133" x1="6.76" y1="10.1099" x2="23.64" y2="21.3699" gradientUnits="userSpaceOnUse">
<stop offset="0.28" stop-color="#C7BEFF"/>
<stop offset="0.56" stop-color="#7E9DFD"/>
<stop offset="0.96" stop-color="#0F7EEE"/>
</linearGradient>
<linearGradient id="paint1_linear_120_1133" x1="-7.85" y1="-2.82977" x2="17.46" y2="14.0602" gradientUnits="userSpaceOnUse">
<stop offset="0.28" stop-color="#C7BEFF"/>
<stop offset="0.56" stop-color="#7E9DFD"/>
<stop offset="0.96" stop-color="#0F7EEE"/>
</linearGradient>
<clipPath id="clip0_120_1133">
<rect width="21.6" height="21.6" fill="white"/>
</clipPath>
</defs>
</svg>
