<svg width="26" height="20" viewBox="0 0 26 20" fill="none" xmlns="http://www.w3.org/2000/svg">
<g clip-path="url(#clip0_3840_3831)">
<path d="M15.1625 2.46345L15.1628 2.46356C16.8885 3.15992 18.1056 4.24107 18.7852 5.67049C19.3013 6.75608 19.4748 7.97384 19.395 9.25983C19.4232 9.2597 19.4513 9.25954 19.4795 9.25936C19.4798 9.25936 19.48 9.25936 19.4803 9.25935L19.4868 10.2593C20.5489 10.2516 21.4602 10.6443 22.1974 11.3771L15.1625 2.46345ZM15.1625 2.46345C12.7638 1.49632 10.3672 1.955 8.43731 3.67283C6.70985 5.20882 6.05566 7.14136 6.21943 9.23639C6.1077 9.24355 5.99627 9.25054 5.8846 9.25732L5.88417 9.25734C4.35982 9.3505 3.13201 10.0519 2.24443 11.2442C1.58873 12.1243 1.24439 13.1686 1.29729 14.2813L1.29731 14.2817M15.1625 2.46345L1.29731 14.2817M1.29731 14.2817C1.34852 15.3509 1.72469 16.3704 2.43865 17.2175L1.29731 14.2817ZM24.2492 13.4206C24.1649 12.2658 23.5998 11.3594 22.9024 10.6679L2.43903 17.2179C3.19445 18.1149 4.26855 18.869 5.63181 18.9202L5.63194 18.9202C7.19923 18.9788 8.77527 18.9669 10.3248 18.9552C10.8027 18.9516 11.2781 18.948 11.7499 18.9465V18.9465C11.8608 18.9459 14.3089 18.9222 16.7395 18.8895C17.9727 18.8729 19.2066 18.8539 20.1345 18.8342C20.5977 18.8244 20.9891 18.8144 21.2675 18.8043C21.405 18.7993 21.5237 18.7939 21.6122 18.788C21.6536 18.7853 21.7051 18.7814 21.7538 18.7753C21.7736 18.7728 21.8234 18.7664 21.8817 18.7526C21.9057 18.747 21.9756 18.73 22.0587 18.6937C22.0848 18.6823 22.1282 18.6621 22.18 18.6305C23.4406 17.9045 23.9266 16.5765 24.1215 15.5849C24.3238 14.5557 24.2649 13.6334 24.2491 13.4195L23.2518 13.4933L24.2492 13.4206Z" stroke="#8976FF" stroke-width="2"/>
<path fill-rule="evenodd" clip-rule="evenodd" d="M10.9678 8.53581C11.8296 8.20269 12.7766 8.15952 13.6652 8.41284C14.5538 8.66616 15.3356 9.20217 15.8922 9.93968C16.4489 10.6772 16.75 11.576 16.75 12.5V13H15.25V12.5C15.25 11.9021 15.0552 11.3205 14.695 10.8433C14.3348 10.3661 13.8289 10.0193 13.2539 9.85537C12.679 9.69145 12.0662 9.71939 11.5086 9.93493C10.9509 10.1505 10.4787 10.5419 10.1634 11.0499C9.84813 11.5579 9.70701 12.1548 9.76141 12.7502C9.81581 13.3456 10.0628 13.9071 10.4649 14.3495C10.867 14.792 11.4023 15.0913 11.9898 15.2023C12.5773 15.3132 13.185 15.2296 13.7207 14.9642C14.0919 14.7804 14.5418 14.9322 14.7257 15.3034C14.9096 15.6745 14.7577 16.1245 14.3865 16.3083C13.5586 16.7185 12.6195 16.8476 11.7115 16.6762C10.8036 16.5048 9.97623 16.0421 9.35479 15.3583C8.73336 14.6745 8.3517 13.8068 8.26763 12.8867C8.18356 11.9665 8.40166 11.044 8.88889 10.2589C9.37612 9.47385 10.1059 8.86893 10.9678 8.53581Z" fill="#8976FF"/>
<path d="M16 15L14.2679 12.75L17.7321 12.75L16 15Z" fill="#8976FF"/>
</g>
<defs>
<clipPath id="clip0_3840_3831">
<rect width="26" height="20" fill="white"/>
</clipPath>
</defs>
</svg>
