<svg width="28" height="22" viewBox="0 0 28 22" fill="none" xmlns="http://www.w3.org/2000/svg">
<path fill-rule="evenodd" clip-rule="evenodd" d="M18.6709 8.74219H2L2 19.9993L18.6709 19.9993L18.6709 8.74219ZM2 6.74219C0.895431 6.74219 0 7.63762 0 8.74219V19.9993C0 21.1039 0.895428 21.9993 2 21.9993H18.6709C19.7755 21.9993 20.6709 21.1039 20.6709 19.9993V8.74219C20.6709 7.63762 19.7755 6.74219 18.6709 6.74219H2Z" fill="#8976FF"/>
<path fill-rule="evenodd" clip-rule="evenodd" d="M20.6709 13.1408L-1.74846e-07 13.1408L0 11.1408L20.6709 11.1408L20.6709 13.1408Z" fill="#8976FF"/>
<path d="M6.91602 2C6.91602 0.895432 7.81145 0 8.91602 0H25.587C26.6915 0 27.5869 0.895431 27.5869 2V13.2571C27.5869 14.3617 26.6915 15.2571 25.5869 15.2571H8.91601C7.81144 15.2571 6.91602 14.3617 6.91602 13.2571V2Z" fill="#F1F3FF"/>
<path fill-rule="evenodd" clip-rule="evenodd" d="M25.587 2H8.91602L8.91601 13.2571L25.5869 13.2571L25.587 2ZM8.91602 0C7.81145 0 6.91602 0.895432 6.91602 2V13.2571C6.91602 14.3617 7.81144 15.2571 8.91601 15.2571H25.5869C26.6915 15.2571 27.5869 14.3617 27.5869 13.2571V2C27.5869 0.895431 26.6915 0 25.587 0H8.91602Z" fill="#8976FF"/>
<path fill-rule="evenodd" clip-rule="evenodd" d="M27.5869 6.40235L6.91602 6.40234L6.91602 4.40234L27.5869 4.40235L27.5869 6.40235Z" fill="#8976FF"/>
</svg>
