<svg width="60" height="60" viewBox="0 0 60 60" fill="none" xmlns="http://www.w3.org/2000/svg">
<circle cx="30" cy="30" r="30" fill="#F1F3FF"/>
<path fill-rule="evenodd" clip-rule="evenodd" d="M34.6709 27.7422H18L18 38.9993L34.6709 38.9993L34.6709 27.7422ZM18 25.7422C16.8954 25.7422 16 26.6376 16 27.7422V38.9993C16 40.1039 16.8954 40.9993 18 40.9993H34.6709C35.7755 40.9993 36.6709 40.1039 36.6709 38.9993V27.7422C36.6709 26.6376 35.7755 25.7422 34.6709 25.7422H18Z" fill="#8976FF"/>
<path fill-rule="evenodd" clip-rule="evenodd" d="M36.6709 32.1408L16 32.1408L16 30.1408L36.6709 30.1408L36.6709 32.1408Z" fill="#8976FF"/>
<path d="M22.916 21C22.916 19.8954 23.8114 19 24.916 19H41.587C42.6915 19 43.5869 19.8954 43.5869 21V32.2571C43.5869 33.3617 42.6915 34.2571 41.5869 34.2571H24.916C23.8114 34.2571 22.916 33.3617 22.916 32.2571V21Z" fill="#F1F3FF"/>
<path fill-rule="evenodd" clip-rule="evenodd" d="M41.587 21H24.916L24.916 32.2571L41.5869 32.2571L41.587 21ZM24.916 19C23.8114 19 22.916 19.8954 22.916 21V32.2571C22.916 33.3617 23.8114 34.2571 24.916 34.2571H41.5869C42.6915 34.2571 43.5869 33.3617 43.5869 32.2571V21C43.5869 19.8954 42.6915 19 41.587 19H24.916Z" fill="#8976FF"/>
<path fill-rule="evenodd" clip-rule="evenodd" d="M43.5869 25.4023L22.916 25.4023L22.916 23.4023L43.5869 23.4023L43.5869 25.4023Z" fill="#8976FF"/>
</svg>
