<svg width="26" height="19" viewBox="0 0 26 19" fill="none" xmlns="http://www.w3.org/2000/svg">
<path fill-rule="evenodd" clip-rule="evenodd" d="M24 2L2 2L2 16.4167L24 16.4167V2ZM2 0C0.895431 0 0 0.895428 0 2V16.4167C0 17.5212 0.89543 18.4167 2 18.4167H24C25.1046 18.4167 26 17.5212 26 16.4167V2C26 0.895431 25.1046 0 24 0H2Z" fill="#8976FF"/>
<path fill-rule="evenodd" clip-rule="evenodd" d="M24 7L8 7L8 5L24 5L24 7Z" fill="#8976FF"/>
<path fill-rule="evenodd" clip-rule="evenodd" d="M10 1L10 17L8 17L8 1L10 1Z" fill="#8976FF"/>
<rect x="3.25" y="3.25" width="3.25" height="3.25" rx="1" fill="#8976FF"/>
<rect x="3.25" y="7.58203" width="3.25" height="3.25" rx="1" fill="#8976FF"/>
<rect x="3.25" y="11.918" width="3.25" height="3.25" rx="1" fill="#8976FF"/>
</svg>
