<svg width="13" height="13" viewBox="0 0 13 13" fill="none" xmlns="http://www.w3.org/2000/svg">
<circle cx="6.5" cy="6.5" r="6.5" fill="#4F3FB6"/>
<g clip-path="url(#clip0_2994_41727)">
<path d="M8.09736 5.57697C8.26487 5.57697 8.43238 5.57697 8.60035 5.57697C8.70402 5.57697 8.80181 5.59611 8.88512 5.66268C9.02184 5.77277 9.03859 5.92941 8.92451 6.06081C8.50075 6.54858 8.07653 7.03591 7.65232 7.52324C7.06603 8.19636 6.47974 8.86948 5.89345 9.54304C5.687 9.78062 5.48146 10.0186 5.27456 10.2562C5.20076 10.341 5.10931 10.3567 5.02601 10.3001C4.9839 10.2714 4.96489 10.2318 4.97802 10.1822C5.06766 9.84371 5.15775 9.50562 5.24785 9.1671C5.32979 8.85861 5.41129 8.55011 5.49368 8.24161C5.58061 7.91571 5.6698 7.59024 5.75536 7.26434C5.77574 7.18602 5.80154 7.10422 5.79656 7.02546C5.78841 6.89275 5.65848 6.7818 5.5136 6.76135C5.47467 6.75613 5.43483 6.75395 5.39544 6.75395C5.07355 6.75395 4.7512 6.75439 4.4293 6.75395C4.30254 6.75395 4.18075 6.73698 4.08749 6.64169C3.97748 6.529 3.96978 6.39194 4.07255 6.27402C4.47503 5.80932 4.87932 5.34592 5.28271 4.88209C5.84093 4.24073 6.39915 3.59936 6.95783 2.958C7.2177 2.65952 7.47892 2.3619 7.73789 2.06297C7.78724 2.00597 7.84654 1.989 7.91853 2.00554C8.00047 2.02425 8.03941 2.08038 8.01858 2.1587C7.94977 2.42194 7.87869 2.68432 7.80897 2.94713C7.73019 3.24344 7.65187 3.53975 7.57264 3.83607C7.4907 4.14282 7.4083 4.44915 7.32635 4.7559C7.2847 4.91167 7.24214 5.06744 7.20321 5.22409C7.17152 5.35027 7.26388 5.4956 7.41192 5.54607C7.46896 5.56565 7.5328 5.57174 7.59392 5.57522C7.67858 5.58001 7.76324 5.57653 7.8479 5.57653C7.93075 5.57653 8.0136 5.57653 8.09645 5.57653L8.09736 5.57697Z" fill="white"/>
</g>
<defs>
<clipPath id="clip0_2994_41727">
<rect width="5" height="8.33333" fill="white" transform="translate(4 2)"/>
</clipPath>
</defs>
</svg>
