<svg width="22" height="19" viewBox="0 0 22 19" fill="none" xmlns="http://www.w3.org/2000/svg">
<mask id="path-1-inside-1_3840_4146" fill="white">
<path fill-rule="evenodd" clip-rule="evenodd" d="M2 0C0.895431 0 0 0.89543 0 2V5V12V17C0 18.1046 0.89543 19 2 19H20C21.1046 19 22 18.1046 22 17V5C22 3.89543 21.1046 3 20 3H10.9643L10.4461 1.38798C10.1803 0.560875 9.41086 0 8.54208 0H2Z"/>
</mask>
<path d="M10.9643 3L9.06023 3.61202L9.50637 5H10.9643V3ZM10.4461 1.38798L12.3502 0.775964L12.3502 0.775963L10.4461 1.38798ZM2 2V2V-2C-0.209139 -2 -2 -0.209139 -2 2H2ZM2 5V2H-2V5H2ZM2 12V5H-2V12H2ZM2 17V12H-2V17H2ZM2 17H2H-2C-2 19.2091 -0.20914 21 2 21V17ZM20 17H2V21H20V17ZM20 17V21C22.2091 21 24 19.2091 24 17H20ZM20 5V17H24V5H20ZM20 5H24C24 2.79086 22.2091 1 20 1V5ZM10.9643 5H20V1H10.9643V5ZM8.54208 2L9.06023 3.61202L12.8683 2.38798L12.3502 0.775964L8.54208 2ZM8.54208 2L8.54208 2L12.3502 0.775963C11.8185 -0.878249 10.2796 -2 8.54208 -2V2ZM2 2H8.54208V-2H2V2Z" fill="#8976FF" mask="url(#path-1-inside-1_3840_4146)"/>
</svg>
