<svg width="13" height="13" viewBox="0 0 13 13" fill="none" xmlns="http://www.w3.org/2000/svg">
<circle cx="6.5" cy="6.5" r="6.5" fill="#C3C3C3"/>
<g clip-path="url(#clip0_3213_6990)">
<path d="M8.09736 5.57648C8.26487 5.57648 8.43238 5.57648 8.60035 5.57648C8.70402 5.57648 8.80181 5.59562 8.88512 5.66219C9.02184 5.77228 9.03859 5.92892 8.92451 6.06033C8.50075 6.54809 8.07653 7.03542 7.65232 7.52275C7.06603 8.19587 6.47974 8.869 5.89345 9.54255C5.687 9.78013 5.48146 10.0181 5.27456 10.2557C5.20076 10.3406 5.10931 10.3562 5.02601 10.2997C4.9839 10.2709 4.96489 10.2313 4.97802 10.1817C5.06766 9.84322 5.15775 9.50513 5.24785 9.16661C5.32979 8.85812 5.41129 8.54962 5.49368 8.24112C5.58061 7.91522 5.6698 7.58976 5.75536 7.26385C5.77574 7.18553 5.80154 7.10373 5.79656 7.02498C5.78841 6.89227 5.65848 6.78131 5.5136 6.76086C5.47467 6.75564 5.43483 6.75346 5.39544 6.75346C5.07355 6.75346 4.7512 6.7539 4.4293 6.75346C4.30254 6.75346 4.18075 6.7365 4.08749 6.6412C3.97748 6.52851 3.96978 6.39145 4.07255 6.27353C4.47503 5.80883 4.87932 5.34543 5.28271 4.8816C5.84093 4.24024 6.39915 3.59888 6.95783 2.95752C7.2177 2.65903 7.47892 2.36141 7.73789 2.06248C7.78724 2.00548 7.84654 1.98851 7.91853 2.00505C8.00047 2.02376 8.03941 2.07989 8.01858 2.15821C7.94977 2.42145 7.87869 2.68383 7.80897 2.94664C7.73019 3.24295 7.65187 3.53927 7.57264 3.83558C7.4907 4.14234 7.4083 4.44866 7.32635 4.75541C7.2847 4.91119 7.24214 5.06696 7.20321 5.2236C7.17152 5.34978 7.26388 5.49511 7.41192 5.54558C7.46896 5.56516 7.5328 5.57126 7.59392 5.57474C7.67858 5.57952 7.76324 5.57604 7.8479 5.57604C7.93075 5.57604 8.0136 5.57604 8.09645 5.57604L8.09736 5.57648Z" fill="white"/>
</g>
<defs>
<clipPath id="clip0_3213_6990">
<rect width="5" height="8.33333" fill="white" transform="translate(4 2)"/>
</clipPath>
</defs>
</svg>
