<svg width="28" height="15" viewBox="0 0 28 15" fill="none" xmlns="http://www.w3.org/2000/svg">
<mask id="path-1-inside-1_3840_3972" fill="white">
<path d="M12.6452 14.4516H6.73718C3.03409 14.4516 0 11.1986 0 7.22833C0 5.24319 0.758521 3.43485 1.97875 2.12152C3.19898 0.81325 4.88563 0 6.73718 0H12.6452"/>
</mask>
<path d="M1.97875 2.12152L0.516178 0.757377L0.513562 0.760192L1.97875 2.12152ZM12.6452 12.4516H6.73718V16.4516H12.6452V12.4516ZM6.73718 12.4516C4.26761 12.4516 2 10.2276 2 7.22833H-2C-2 12.1697 1.80056 16.4516 6.73718 16.4516V12.4516ZM2 7.22833C2 5.75558 2.56242 4.43163 3.44394 3.48285L0.513562 0.760192C-1.04538 2.43807 -2 4.73081 -2 7.22833H2ZM3.44132 3.48567C4.31805 2.54568 5.48923 2 6.73718 2V-2C4.28203 -2 2.07991 -0.919182 0.516181 0.757379L3.44132 3.48567ZM6.73718 2H12.6452V-2H6.73718V2Z" fill="#8976FF" mask="url(#path-1-inside-1_3840_3972)"/>
<mask id="path-3-inside-2_3840_3972" fill="white">
<path d="M15.3548 14.4516H21.2628C24.9659 14.4516 28 11.1986 28 7.22833C28 5.24319 27.2415 3.43485 26.0212 2.12152C24.801 0.81325 23.1144 0 21.2628 0H15.3548"/>
</mask>
<path d="M26.0212 2.12152L27.4838 0.757377L27.4864 0.760192L26.0212 2.12152ZM15.3548 12.4516H21.2628V16.4516H15.3548V12.4516ZM21.2628 12.4516C23.7324 12.4516 26 10.2276 26 7.22833H30C30 12.1697 26.1994 16.4516 21.2628 16.4516V12.4516ZM26 7.22833C26 5.75558 25.4376 4.43163 24.5561 3.48285L27.4864 0.760192C29.0454 2.43807 30 4.73081 30 7.22833H26ZM24.5587 3.48567C23.682 2.54568 22.5108 2 21.2628 2V-2C23.718 -2 25.9201 -0.919182 27.4838 0.757379L24.5587 3.48567ZM21.2628 2H15.3548V-2H21.2628V2Z" fill="#8976FF" mask="url(#path-3-inside-2_3840_3972)"/>
<path d="M9.93555 7.22581H18.9678" stroke="#8976FF" stroke-width="2" stroke-linecap="round"/>
</svg>
