<svg width="60" height="60" viewBox="0 0 60 60" fill="none" xmlns="http://www.w3.org/2000/svg">
<path d="M60 30C60 46.5685 46.5685 60 30 60C13.4315 60 0 46.5685 0 30C0 13.4315 13.4315 0 30 0C46.5685 0 60 13.4315 60 30Z" fill="#F1F3FF"/>
<g clip-path="url(#clip0_3838_3803)">
<path fill-rule="evenodd" clip-rule="evenodd" d="M30.8051 23.4131L30.8028 23.4132C30.6345 23.4209 30.3835 23.4976 30.1938 23.6507C30.0344 23.7792 29.9192 23.955 29.9192 24.251V24.8791L29.3753 25.1412L29.3745 25.1417L29.3688 25.1448L29.3688 25.1448C27.3076 26.2626 26.501 27.701 26.1717 29.0321C25.9036 30.1156 25.9427 31.0969 25.977 31.9585C25.9879 32.2314 25.9983 32.4924 25.9983 32.7407C25.9983 32.7834 25.9988 32.8333 25.9994 32.8878C26.0012 33.0574 26.0035 33.2719 25.9916 33.4546C25.9748 33.713 25.9253 34.0691 25.7283 34.4121C25.273 35.2049 24.3906 35.3932 23.4974 35.3932C23.4056 35.3932 23.3426 35.4083 23.3021 35.4235C23.2616 35.4387 23.2359 35.4568 23.2196 35.4718C23.1968 35.4926 23.1862 35.513 23.1813 35.5272C23.1907 35.5323 23.2042 35.5385 23.2228 35.5451C23.2714 35.5622 23.3589 35.5824 23.4974 35.5824H38.1285C38.2668 35.5824 38.3541 35.5622 38.4026 35.5452C38.4214 35.5385 38.4349 35.5323 38.4442 35.5272C38.4395 35.513 38.4288 35.4925 38.406 35.4716C38.3898 35.4567 38.3641 35.4386 38.3237 35.4235C38.2833 35.4083 38.2203 35.3932 38.1285 35.3932C37.2353 35.3932 36.3529 35.2049 35.8976 34.4121C35.7006 34.0691 35.6512 33.713 35.6343 33.4546C35.6224 33.2719 35.6247 33.0574 35.6265 32.8878C35.6271 32.8333 35.6276 32.7834 35.6276 32.7407C35.6276 32.4924 35.638 32.2314 35.6489 31.9585C35.6832 31.0969 35.7223 30.1156 35.4543 29.0321C35.1249 27.701 34.3183 26.2626 32.2571 25.1448L32.2514 25.1417L32.2514 25.1417L32.2506 25.1412L31.7067 24.8791V24.251C31.7067 23.9554 31.5915 23.7797 31.4319 23.6509C31.2418 23.4977 30.9903 23.4209 30.8219 23.4132L30.8207 23.4132L30.8127 23.4131L30.8051 23.4131ZM23.1636 35.5157C23.1636 35.5157 23.1636 35.5157 23.1635 35.5156C23.1634 35.5155 23.1634 35.5155 23.1634 35.5155C23.1634 35.5155 23.1634 35.5156 23.1636 35.5157ZM30.7969 21.4131C30.7977 21.4131 30.7983 21.4131 30.7988 21.4131L30.8026 21.4131C30.8224 21.4131 30.8672 21.4131 30.9148 21.4154C31.4728 21.4412 32.14 21.6527 32.6872 22.094C33.1349 22.4549 33.5003 22.9715 33.6426 23.6337C35.9294 25.0119 36.9671 26.8197 37.3957 28.5518C37.7413 29.9486 37.6818 31.3354 37.6446 32.2016C37.6355 32.4157 37.6276 32.598 37.6276 32.7407C37.6276 32.8388 37.6267 32.9199 37.6259 32.9903C37.6244 33.126 37.6234 33.222 37.63 33.3243C37.6307 33.334 37.6314 33.3431 37.6321 33.3515C37.7202 33.3717 37.8752 33.3932 38.1285 33.3932C39.4499 33.3932 40.3834 34.3285 40.4446 35.4324C40.4749 35.9773 40.2835 36.5432 39.8401 36.965C39.3975 37.3859 38.792 37.5824 38.1285 37.5824H23.4974C22.8338 37.5824 22.2282 37.386 21.7854 36.9651C21.3418 36.5432 21.1504 35.9771 21.1809 35.4321C21.2424 34.3282 22.1763 33.3932 23.4974 33.3932C23.7507 33.3932 23.9057 33.3717 23.9938 33.3515C23.9946 33.3431 23.9952 33.334 23.9959 33.3243C24.0025 33.222 24.0015 33.126 24 32.9903C23.9992 32.9199 23.9983 32.8388 23.9983 32.7407C23.9983 32.598 23.9905 32.4157 23.9813 32.2016C23.9441 31.3354 23.8846 29.9486 24.2302 28.5518C24.6588 26.8197 25.6965 25.012 27.9832 23.6337C28.1254 22.9718 28.4904 22.4552 28.9378 22.0942C29.4816 21.6554 30.1442 21.4437 30.7002 21.4159C30.7472 21.413 30.7864 21.4131 30.7969 21.4131Z" fill="#8976FF"/>
<path fill-rule="evenodd" clip-rule="evenodd" d="M24.7493 19.5298C24.9504 20.0442 24.6964 20.6242 24.182 20.8253C21.6133 21.8295 20.292 23.7241 19.6 25.4128C19.2527 26.2604 19.069 27.0465 18.9728 27.6195C18.9248 27.905 18.8991 28.1348 18.8854 28.2891C18.8786 28.3661 18.8748 28.4241 18.8728 28.4605C18.8718 28.4787 18.8712 28.4915 18.8709 28.4986L18.8708 28.5031C18.8707 28.5037 18.8707 28.5042 18.8707 28.5048C18.8554 29.0557 18.397 29.4906 17.8457 29.4766C17.2936 29.4626 16.8574 29.0036 16.8714 28.4515L17.8711 28.4769C16.8714 28.4515 16.8714 28.4511 16.8714 28.4506L16.8715 28.4495L16.8716 28.4468L16.8718 28.4398L16.8725 28.4188C16.8732 28.4018 16.8743 28.3789 16.8758 28.3502C16.879 28.2929 16.8843 28.2129 16.8932 28.1127C16.9109 27.9125 16.9429 27.6307 17.0004 27.2883C17.1151 26.6054 17.3332 25.67 17.7493 24.6545C18.5841 22.6173 20.2362 20.2204 23.4538 18.9625C23.9682 18.7615 24.5482 19.0154 24.7493 19.5298Z" fill="#8976FF"/>
<path fill-rule="evenodd" clip-rule="evenodd" d="M26.7069 22.2358C26.908 22.7501 26.6542 23.3301 26.1398 23.5313C24.4388 24.1966 23.5635 25.4476 23.1005 26.5774C22.8677 27.1454 22.7444 27.6732 22.6798 28.0578C22.6477 28.2491 22.6306 28.4021 22.6216 28.5032C22.6172 28.5536 22.6148 28.5909 22.6135 28.6133L22.6125 28.6353L22.6124 28.6351L22.6125 28.6344C22.598 29.1861 22.1393 29.6219 21.5875 29.6079C21.0354 29.5939 20.5991 29.135 20.6131 28.5829L21.6128 28.6082C20.6131 28.5829 20.6131 28.5824 20.6131 28.5819L20.6132 28.5809L20.6132 28.5785L20.6134 28.5725L20.614 28.5556C20.6146 28.5423 20.6154 28.5246 20.6166 28.503C20.619 28.4598 20.6229 28.4005 20.6294 28.3269C20.6424 28.1799 20.6657 27.9748 20.7074 27.7266C20.7904 27.2322 20.9483 26.555 21.2499 25.819C21.8556 24.3407 23.0617 22.5876 25.4113 21.6687C25.9257 21.4675 26.5057 21.7214 26.7069 22.2358ZM22.6125 28.6353L22.6124 28.6363L22.6124 28.6375L22.6124 28.6376C22.6124 28.6376 22.6124 28.6368 22.6125 28.6353Z" fill="#8976FF"/>
<path fill-rule="evenodd" clip-rule="evenodd" d="M36.585 19.5298C36.786 19.0154 37.366 18.7615 37.8804 18.9625C41.098 20.2204 42.7501 22.6173 43.5849 24.6545C44.0011 25.67 44.2192 26.6054 44.3338 27.2883C44.3914 27.6307 44.4233 27.9125 44.4411 28.1127C44.4499 28.2129 44.4552 28.2929 44.4584 28.3502C44.46 28.3789 44.461 28.4018 44.4617 28.4188L44.4625 28.4398L44.4627 28.4468L44.4628 28.4495L44.4628 28.4506C44.4628 28.4511 44.4628 28.4515 43.4631 28.4769L44.4628 28.4515C44.4768 29.0036 44.0406 29.4626 43.4885 29.4766C42.9373 29.4906 42.4789 29.0557 42.4635 28.5048" fill="#8976FF"/>
<path d="M39.8078 28.6082C39.8078 28.6082 39.6957 24.1842 35.645 22.6" stroke="#8976FF" stroke-width="2" stroke-miterlimit="10" stroke-linecap="round"/>
<path fill-rule="evenodd" clip-rule="evenodd" d="M27.2114 35.5833H34.4409V36.5833C34.4409 37.2681 34.4194 38.3514 33.9577 39.2733C33.7138 39.76 33.3418 40.2161 32.7901 40.5424C32.2429 40.8661 31.5845 41.0235 30.8261 41.0235C30.0678 41.0235 29.4094 40.8661 28.8621 40.5424C28.3104 40.2161 27.9384 39.76 27.6946 39.2733C27.2328 38.3514 27.2114 37.2681 27.2114 36.5833V35.5833ZM29.2634 37.5833C29.3032 37.8845 29.3708 38.154 29.4828 38.3775C29.5826 38.5768 29.7093 38.7198 29.8804 38.821C30.0559 38.9248 30.3444 39.0235 30.8261 39.0235C31.3079 39.0235 31.5964 38.9248 31.7719 38.821C31.943 38.7198 32.0697 38.5768 32.1695 38.3775C32.2814 38.154 32.3491 37.8845 32.3889 37.5833H29.2634Z" fill="#8976FF"/>
</g>
<defs>
<clipPath id="clip0_3838_3803">
<rect width="29" height="23" fill="white" transform="translate(16 18)"/>
</clipPath>
</defs>
</svg>
