<svg width="35" height="35" viewBox="0 0 35 35" fill="none" xmlns="http://www.w3.org/2000/svg">
<path d="M0 17.5C0 15.8958 0.206597 14.3524 0.619792 12.8698C1.03299 11.3872 1.6224 9.98958 2.38802 8.67708C3.15365 7.36458 4.0651 6.18576 5.1224 5.14063C6.17969 4.09549 7.36458 3.18403 8.67708 2.40625C9.98958 1.62847 11.3811 1.03906 12.8516 0.638021C14.322 0.236979 15.8715 0.0243056 17.5 0C19.1042 0 20.6536 0.206597 22.1484 0.619792C23.6432 1.03299 25.0347 1.6224 26.3229 2.38802C27.6111 3.15365 28.7899 4.0651 29.8594 5.1224C30.9288 6.17969 31.8403 7.35851 32.5938 8.65885C33.3472 9.9592 33.9366 11.3568 34.362 12.8516C34.7873 14.3464 35 15.8958 35 17.5C35 19.1042 34.7934 20.6476 34.3802 22.1302C33.967 23.6128 33.3776 25.0104 32.612 26.3229C31.8464 27.6354 30.9349 28.8142 29.8776 29.8594C28.8203 30.9045 27.6354 31.816 26.3229 32.5938C25.0104 33.3715 23.6189 33.9609 22.1484 34.362C20.678 34.763 19.1285 34.9757 17.5 35C15.8837 35 14.3342 34.7934 12.8516 34.3802C11.3689 33.967 9.97135 33.3837 8.65885 32.6302C7.34635 31.8767 6.16753 30.9653 5.1224 29.8958C4.07726 28.8264 3.1658 27.6415 2.38802 26.3411C1.61024 25.0408 1.02083 23.6493 0.619792 22.1667C0.21875 20.684 0.0121528 19.1285 0 17.5ZM18.6667 19.8333V10.5C18.6667 10.184 18.5512 9.91059 18.3203 9.67969C18.0894 9.44878 17.816 9.33333 17.5 9.33333C17.184 9.33333 16.9106 9.44878 16.6797 9.67969C16.4488 9.91059 16.3333 10.184 16.3333 10.5V19.8333C16.3333 20.1493 16.4488 20.4227 16.6797 20.6536C16.9106 20.8846 17.184 21 17.5 21C17.816 21 18.0894 20.8846 18.3203 20.6536C18.5512 20.4227 18.6667 20.1493 18.6667 19.8333ZM19.25 24.5C19.25 24.2691 19.2075 24.0503 19.1224 23.8438C19.0373 23.6372 18.9097 23.4488 18.7396 23.2786C18.5694 23.1085 18.3872 22.9809 18.1927 22.8958C17.9983 22.8108 17.7734 22.7622 17.5182 22.75C17.02 22.75 16.6007 22.9201 16.2604 23.2604C15.9201 23.6007 15.75 24.02 15.75 24.5182C15.75 24.7613 15.7925 24.9861 15.8776 25.1927C15.9627 25.3993 16.0903 25.5816 16.2604 25.7396C16.4306 25.8976 16.6189 26.0191 16.8255 26.1042C17.0321 26.1892 17.2569 26.2378 17.5 26.25C17.9861 26.25 18.3993 26.0799 18.7396 25.7396C19.0799 25.3993 19.25 24.9861 19.25 24.5Z" fill="#EB4F4B" fill-opacity="0.5"/>
</svg>
