<svg width="21" height="21" viewBox="0 0 21 21" fill="none" xmlns="http://www.w3.org/2000/svg">
<g clip-path="url(#clip0_2848_12197)">
<g clip-path="url(#clip1_2848_12197)">
<path d="M3 6C3 5.44772 3.44772 5 4 5H17C17.5523 5 18 5.44772 18 6V15C18 16.6569 16.6569 18 15 18H6C4.34315 18 3 16.6569 3 15V6Z" fill="url(#paint0_linear_2848_12197)"/>
<rect x="6" y="7" width="9" height="9" rx="0.666667" fill="#243A5F" fill-opacity="0.5"/>
<g filter="url(#filter0_d_2848_12197)">
<path d="M10.0003 8H7.00031V11H10.0003V8Z" fill="#F25022"/>
<path d="M14 8H11V11H14V8Z" fill="#7FBA00"/>
<path d="M14 12H11V15H14V12Z" fill="#FFB900"/>
<path d="M10 12H7V15H10V12Z" fill="#00A4EF"/>
</g>
<path d="M6.5 5.5V4C6.5 3.72386 6.72386 3.5 7 3.5H14C14.2761 3.5 14.5 3.72386 14.5 4V5.5" stroke="url(#paint1_linear_2848_12197)" stroke-linecap="round"/>
<rect x="7" y="3" width="7" height="1" fill="url(#paint2_linear_2848_12197)"/>
<mask id="mask0_2848_12197" style="mask-type:alpha" maskUnits="userSpaceOnUse" x="6" y="3" width="8" height="1">
<rect x="6.99969" y="3" width="7" height="1" fill="url(#paint3_linear_2848_12197)"/>
</mask>
<g mask="url(#mask0_2848_12197)">
<g filter="url(#filter1_dd_2848_12197)">
<rect x="6" y="3" width="1" height="3" fill="#C4C4C4"/>
</g>
</g>
</g>
</g>
<defs>
<filter id="filter0_d_2848_12197" x="6.33333" y="7.5" width="8.33333" height="8.33333" filterUnits="userSpaceOnUse" color-interpolation-filters="sRGB">
<feFlood flood-opacity="0" result="BackgroundImageFix"/>
<feColorMatrix in="SourceAlpha" type="matrix" values="0 0 0 0 0 0 0 0 0 0 0 0 0 0 0 0 0 0 127 0" result="hardAlpha"/>
<feOffset dy="0.166667"/>
<feGaussianBlur stdDeviation="0.333333"/>
<feColorMatrix type="matrix" values="0 0 0 0 0 0 0 0 0 0 0 0 0 0 0 0 0 0 0.15 0"/>
<feBlend mode="normal" in2="BackgroundImageFix" result="effect1_dropShadow_2848_12197"/>
<feBlend mode="normal" in="SourceGraphic" in2="effect1_dropShadow_2848_12197" result="shape"/>
</filter>
<filter id="filter1_dd_2848_12197" x="5" y="1.33333" width="11" height="5" filterUnits="userSpaceOnUse" color-interpolation-filters="sRGB">
<feFlood flood-opacity="0" result="BackgroundImageFix"/>
<feColorMatrix in="SourceAlpha" type="matrix" values="0 0 0 0 0 0 0 0 0 0 0 0 0 0 0 0 0 0 127 0" result="hardAlpha"/>
<feOffset dy="-0.666667"/>
<feGaussianBlur stdDeviation="0.166667"/>
<feColorMatrix type="matrix" values="0 0 0 0 0 0 0 0 0 0 0 0 0 0 0 0 0 0 0.1 0"/>
<feBlend mode="normal" in2="BackgroundImageFix" result="effect1_dropShadow_2848_12197"/>
<feColorMatrix in="SourceAlpha" type="matrix" values="0 0 0 0 0 0 0 0 0 0 0 0 0 0 0 0 0 0 127 0" result="hardAlpha"/>
<feOffset dy="-0.666667"/>
<feGaussianBlur stdDeviation="0.5"/>
<feColorMatrix type="matrix" values="0 0 0 0 0 0 0 0 0 0 0 0 0 0 0 0 0 0 0.2 0"/>
<feBlend mode="normal" in2="effect1_dropShadow_2848_12197" result="effect2_dropShadow_2848_12197"/>
<feBlend mode="normal" in="SourceGraphic" in2="effect2_dropShadow_2848_12197" result="shape"/>
</filter>
<linearGradient id="paint0_linear_2848_12197" x1="10.5" y1="5" x2="13.3558" y2="18.4551" gradientUnits="userSpaceOnUse">
<stop stop-color="#0669BC"/>
<stop offset="1" stop-color="#243A5F"/>
</linearGradient>
<linearGradient id="paint1_linear_2848_12197" x1="10.5" y1="3.5" x2="10.632" y2="5.65519" gradientUnits="userSpaceOnUse">
<stop stop-color="#30DAFF"/>
<stop offset="1" stop-color="#0094D4"/>
</linearGradient>
<linearGradient id="paint2_linear_2848_12197" x1="10.1111" y1="3" x2="10.1111" y2="4" gradientUnits="userSpaceOnUse">
<stop stop-color="#22BCFF"/>
<stop offset="1" stop-color="#0088F0"/>
</linearGradient>
<linearGradient id="paint3_linear_2848_12197" x1="10.1108" y1="3" x2="10.1108" y2="4" gradientUnits="userSpaceOnUse">
<stop stop-color="#28AFEA"/>
<stop offset="1" stop-color="#3CCBF4"/>
</linearGradient>
<clipPath id="clip0_2848_12197">
<rect width="15" height="16" fill="white" transform="translate(3 3)"/>
</clipPath>
<clipPath id="clip1_2848_12197">
<rect width="16" height="16" fill="white" transform="translate(3 3)"/>
</clipPath>
</defs>
</svg>
