<svg width="60" height="60" viewBox="0 0 60 60" fill="none" xmlns="http://www.w3.org/2000/svg">
<circle cx="30" cy="30" r="30" fill="#F1F3FF"/>
<g clip-path="url(#clip0_3838_3394)">
<path fill-rule="evenodd" clip-rule="evenodd" d="M18.6502 26.7598C18.6501 26.7599 18.6503 26.7597 18.6502 26.7598V26.7598ZM18.6502 26.7598L18.659 26.7523C18.667 26.7456 18.6802 26.7346 18.6984 26.7196C18.7348 26.6897 18.7914 26.6438 18.8671 26.5843C19.0185 26.4653 19.2461 26.2919 19.542 26.0822C20.1344 25.6623 20.9966 25.0997 22.0652 24.537C24.2126 23.406 27.136 22.3043 30.3499 22.3043C33.5567 22.3043 36.2972 23.4017 38.2545 24.5204C39.2303 25.078 40.0009 25.6352 40.5246 26.0501C40.7861 26.2573 40.985 26.4282 41.116 26.545C41.1816 26.6033 41.23 26.6481 41.2608 26.6769C41.2762 26.6913 41.2872 26.7018 41.2936 26.708L41.2993 26.7135C41.2993 26.7134 41.2994 26.7135 41.2993 26.7135C41.2995 26.7136 41.3002 26.7143 41.3004 26.7145C41.6945 27.1004 42.3269 27.0944 42.7135 26.7007C43.1005 26.3066 43.0947 25.6735 42.7007 25.2865L42.0177 25.982C42.7007 25.2865 42.701 25.2868 42.7007 25.2865L42.6995 25.2853L42.6978 25.2837L42.6932 25.2792L42.6786 25.2651C42.6665 25.2535 42.6498 25.2376 42.6285 25.2176C42.5859 25.1777 42.5249 25.1215 42.4463 25.0515C42.289 24.9114 42.0607 24.7155 41.7666 24.4825C41.1791 24.017 40.3251 23.4002 39.2469 22.784C37.0964 21.5548 34.0118 20.3043 30.3499 20.3043C26.695 20.3043 23.4435 21.5506 21.1332 22.7674C19.9728 23.3785 19.0355 23.9898 18.3856 24.4504C18.0603 24.6809 17.806 24.8744 17.6308 25.0121C17.5432 25.081 17.4753 25.1361 17.4281 25.1749C17.4045 25.1943 17.386 25.2097 17.3729 25.2207L17.3571 25.234L17.3523 25.2381L17.3506 25.2396C17.3503 25.2398 17.3494 25.2406 17.9831 25.9803L17.3494 25.2406C16.93 25.5999 16.8813 26.2312 17.2406 26.6506C17.5998 27.0699 18.2308 27.1187 18.6502 26.7598Z" fill="#8976FF"/>
<path fill-rule="evenodd" clip-rule="evenodd" d="M22.7745 30.7036C22.4766 31.1681 21.8586 31.3035 21.3937 31.006C20.9285 30.7083 20.7928 30.0899 21.0904 29.6247L21.9134 30.1513C21.0904 29.6247 21.0907 29.6242 21.091 29.6238L21.0917 29.6227L21.0932 29.6204L21.0969 29.6147L21.1072 29.5991C21.1154 29.5868 21.1261 29.571 21.1393 29.5517C21.1659 29.5133 21.2029 29.4613 21.2506 29.3977C21.3459 29.2705 21.4842 29.0967 21.6676 28.8919C22.0342 28.4827 22.5839 27.9468 23.3344 27.4137C24.8433 26.3417 27.1467 25.2942 30.3502 25.2942C33.5381 25.2942 35.8807 26.277 37.4344 27.2801C38.2081 27.7797 38.7833 28.2821 39.1699 28.6662C39.3634 28.8585 39.5104 29.0217 39.612 29.141C39.6628 29.2007 39.7024 29.2495 39.7309 29.2855C39.7451 29.3036 39.7566 29.3184 39.7653 29.3299L39.7764 29.3445L39.7803 29.3498L39.782 29.352L39.7827 29.353C39.783 29.3534 39.7833 29.3538 39.0175 29.9171L39.7833 29.3538C40.1105 29.7987 40.0152 30.4247 39.5702 30.7519C39.1266 31.0782 38.503 30.9843 38.175 30.5426C38.174 30.5414 38.1731 30.5401 38.1722 30.5388L38.9777 29.9463C38.1722 30.5388 38.1719 30.5385 38.1722 30.5388L38.1741 30.5415L38.1613 30.5251C38.1476 30.5077 38.1236 30.478 38.0894 30.4378C38.0209 30.3574 37.9116 30.2353 37.7604 30.0851C37.4578 29.7845 36.99 29.3738 36.3496 28.9604C35.0748 28.1374 33.1036 27.2942 30.3502 27.2942C27.6126 27.2942 25.7072 28.1814 24.4927 29.0442C23.8814 29.4784 23.4407 29.91 23.1573 30.2263C23.0158 30.3843 22.9142 30.5128 22.8509 30.5972C22.8193 30.6395 22.7972 30.6706 22.7847 30.6888L22.7728 30.7062L22.7745 30.7036Z" fill="#8976FF"/>
<path fill-rule="evenodd" clip-rule="evenodd" d="M25.9797 34.0278L25.9785 34.0291L25.9776 34.0302C25.9772 34.0306 25.9772 34.0306 25.9776 34.0302C25.6166 34.4458 24.9871 34.4915 24.5698 34.1318C24.1515 33.7712 24.1046 33.1398 24.4652 32.7214L25.2227 33.3743C24.4652 32.7214 24.465 32.7217 24.4652 32.7214L24.4663 32.7202L24.4676 32.7187L24.4707 32.7151L24.4792 32.7055L24.505 32.6766C24.5262 32.6532 24.5554 32.6217 24.5922 32.5833C24.6658 32.5066 24.7705 32.4017 24.9047 32.2782C25.1725 32.032 25.5619 31.7077 26.06 31.3838C27.0519 30.7388 28.5152 30.07 30.3239 30.07C32.1506 30.07 33.5946 30.7847 34.5612 31.4726C35.0462 31.8178 35.4212 32.163 35.6775 32.4249C35.806 32.5562 35.9058 32.6677 35.9759 32.7495C36.0109 32.7904 36.0386 32.8239 36.0588 32.8489C36.0689 32.8614 36.0771 32.8717 36.0834 32.8798L36.0915 32.8901L36.0945 32.894L36.0957 32.8956C36.0959 32.8959 36.0967 32.8969 35.3173 33.4936L36.0967 32.8969C36.4324 33.3355 36.3491 33.9631 35.9105 34.2988C35.473 34.6337 34.8474 34.5515 34.5111 34.1158C34.5104 34.1149 34.5097 34.1141 34.5091 34.1132L34.5111 34.1158L34.5032 34.1059C34.4945 34.0952 34.4791 34.0765 34.4571 34.0508C34.4131 33.9994 34.343 33.9207 34.2481 33.8238C34.0576 33.6291 33.7719 33.3657 33.4016 33.1021C32.6577 32.5727 31.6123 32.07 30.3239 32.07C29.0176 32.07 27.9303 32.5533 27.1503 33.0605C26.7625 33.3127 26.4607 33.5645 26.2587 33.7503C26.158 33.8429 26.0832 33.918 26.036 33.9673C26.0125 33.9919 25.9959 34.0099 25.9864 34.0203L25.9776 34.0302" fill="#8976FF"/>
<ellipse cx="30.875" cy="37.3913" rx="2.625" ry="2.6087" fill="#8976FF"/>
</g>
<defs>
<clipPath id="clip0_3838_3394">
<rect width="28" height="20" fill="white" transform="translate(16 20)"/>
</clipPath>
</defs>
</svg>
