<svg width="28" height="20" viewBox="0 0 28 20" fill="none" xmlns="http://www.w3.org/2000/svg">
<g clip-path="url(#clip0_3838_3396)">
<path fill-rule="evenodd" clip-rule="evenodd" d="M2.65022 6.75976C2.65008 6.75988 2.65035 6.75965 2.65022 6.75976ZM2.65022 6.75976L2.65902 6.75234C2.66703 6.74561 2.6802 6.73462 2.69841 6.71964C2.73484 6.68969 2.79139 6.64383 2.86706 6.58432C3.01847 6.46527 3.24609 6.29188 3.54197 6.0822C4.13443 5.66233 4.99664 5.09974 6.06517 4.53696C8.21256 3.40596 11.136 2.30435 14.3499 2.30435C17.5567 2.30435 20.2972 3.40168 22.2545 4.52037C23.2303 5.07805 24.0009 5.63519 24.5246 6.05009C24.7861 6.25728 24.985 6.42823 25.116 6.54498C25.1816 6.60333 25.23 6.64806 25.2608 6.67692C25.2762 6.69134 25.2872 6.70179 25.2936 6.70798L25.2993 6.71347C25.2993 6.71344 25.2994 6.7135 25.2993 6.71347C25.2995 6.71364 25.3002 6.71433 25.3004 6.7145C25.6945 7.10044 26.3269 7.09437 26.7135 6.70068C27.1005 6.30664 27.0947 5.6735 26.7007 5.28653L26.0177 5.98197C26.7007 5.28652 26.701 5.2868 26.7007 5.28653L26.6995 5.28533L26.6978 5.2837L26.6932 5.27916L26.6786 5.26508C26.6665 5.2535 26.6498 5.23758 26.6285 5.21762C26.5859 5.17769 26.5249 5.12153 26.4463 5.05149C26.289 4.91144 26.0607 4.71555 25.7666 4.48252C25.1791 4.01699 24.3251 3.40021 23.2469 2.78397C21.0964 1.55484 18.0118 0.304348 14.3499 0.304348C10.695 0.304348 7.44352 1.55056 5.13317 2.76739C3.97283 3.37852 3.03546 3.98984 2.38556 4.45041C2.06027 4.68094 1.80601 4.8744 1.63084 5.01214C1.54322 5.08104 1.47531 5.13606 1.42809 5.17489C1.40448 5.1943 1.38603 5.20968 1.37288 5.22072L1.35714 5.234L1.35227 5.23814L1.35059 5.23957C1.35032 5.2398 1.34943 5.24057 1.9831 5.98025L1.34942 5.24058C0.930004 5.59989 0.88128 6.23118 1.24059 6.6506C1.5998 7.06988 2.2308 7.11871 2.65022 6.75976Z" fill="#8976FF"/>
<path fill-rule="evenodd" clip-rule="evenodd" d="M6.77449 10.7036C6.4766 11.1681 5.85863 11.3035 5.39373 11.006C4.92854 10.7083 4.79275 10.0899 5.09044 9.62471L5.91338 10.1513C5.09045 9.6247 5.09074 9.62425 5.09105 9.62377L5.09171 9.62274L5.09321 9.62041L5.09693 9.61469L5.10722 9.59906C5.11536 9.58682 5.12605 9.57096 5.13935 9.55172C5.16593 9.51326 5.20292 9.46125 5.25059 9.39766C5.34588 9.27053 5.48418 9.09667 5.66765 8.89186C6.03422 8.48267 6.58393 7.94685 7.33437 7.41372C8.84332 6.34173 11.1467 5.29416 14.3502 5.29416C17.5381 5.29416 19.8807 6.27704 21.4344 7.28012C22.2081 7.7797 22.7833 8.2821 23.1699 8.66623C23.3634 8.85846 23.5104 9.02167 23.612 9.141C23.6628 9.20069 23.7024 9.24948 23.7309 9.28554C23.7451 9.30357 23.7566 9.31843 23.7653 9.32989L23.7764 9.34449L23.7803 9.34983L23.782 9.35199L23.7827 9.35295C23.783 9.35339 23.7833 9.35381 23.0175 9.91708L23.7833 9.35382C24.1105 9.79872 24.0152 10.4247 23.5702 10.7519C23.1266 11.0782 22.503 10.9843 22.175 10.5426C22.174 10.5414 22.1731 10.5401 22.1722 10.5388L22.9777 9.94633C22.1722 10.5388 22.1719 10.5385 22.1722 10.5388L22.1741 10.5415L22.1613 10.5251C22.1476 10.5077 22.1236 10.478 22.0894 10.4378C22.0209 10.3574 21.9116 10.2353 21.7604 10.0851C21.4578 9.78448 20.99 9.37384 20.3496 8.96037C19.0748 8.13737 17.1036 7.29416 14.3502 7.29416C11.6126 7.29416 9.70716 8.18137 8.49267 9.04416C7.88139 9.47843 7.44072 9.91 7.15733 10.2263C7.01582 10.3843 6.91424 10.5128 6.8509 10.5972C6.81926 10.6395 6.79725 10.6706 6.78465 10.6888L6.77283 10.7062L6.77449 10.7036Z" fill="#8976FF"/>
<path fill-rule="evenodd" clip-rule="evenodd" d="M9.97965 14.0278L9.9785 14.0291L9.97756 14.0302C9.97717 14.0306 9.97721 14.0306 9.97756 14.0302C9.61657 14.4458 8.98715 14.4915 8.56978 14.1318C8.15145 13.7712 8.10464 13.1398 8.46522 12.7214L9.22267 13.3743C8.46522 12.7214 8.46496 12.7217 8.46522 12.7214L8.4663 12.7202L8.46758 12.7187L8.47068 12.7151L8.47915 12.7055L8.50504 12.6766C8.52624 12.6532 8.55536 12.6217 8.59218 12.5833C8.66577 12.5066 8.7705 12.4017 8.90474 12.2782C9.1725 12.032 9.56192 11.7077 10.06 11.3838C11.0519 10.7388 12.5152 10.07 14.3239 10.07C16.1506 10.07 17.5946 10.7847 18.5612 11.4726C19.0462 11.8178 19.4212 12.163 19.6775 12.4249C19.806 12.5562 19.9058 12.6677 19.9759 12.7495C20.0109 12.7904 20.0386 12.8239 20.0588 12.8489C20.0689 12.8614 20.0771 12.8717 20.0834 12.8798L20.0915 12.8901L20.0945 12.894L20.0957 12.8956C20.0959 12.8959 20.0967 12.8969 19.3173 13.4936L20.0967 12.8969C20.4324 13.3355 20.3491 13.9631 19.9105 14.2988C19.473 14.6337 18.8474 14.5515 18.5111 14.1158C18.5104 14.1149 18.5097 14.1141 18.5091 14.1132L18.5111 14.1158L18.5032 14.1059C18.4945 14.0952 18.4791 14.0765 18.4571 14.0508C18.4131 13.9994 18.343 13.9207 18.2481 13.8238C18.0576 13.6291 17.7719 13.3657 17.4016 13.1021C16.6577 12.5727 15.6123 12.07 14.3239 12.07C13.0176 12.07 11.9303 12.5533 11.1503 13.0605C10.7625 13.3127 10.4607 13.5645 10.2587 13.7503C10.158 13.8429 10.0832 13.918 10.036 13.9673C10.0125 13.9919 9.99585 14.0099 9.98644 14.0203L9.97756 14.0302" fill="#8976FF"/>
<ellipse cx="14.875" cy="17.3913" rx="2.625" ry="2.6087" fill="#8976FF"/>
</g>
<defs>
<clipPath id="clip0_3838_3396">
<rect width="28" height="20" fill="white"/>
</clipPath>
</defs>
</svg>
