<svg width="25" height="25" viewBox="0 0 25 25" fill="none" xmlns="http://www.w3.org/2000/svg">
<g clip-path="url(#clip0_3838_3601)">
<path d="M5.37303 18.4445C4.3291 18.3833 3.38219 18.048 2.52583 17.4616C1.2193 16.5679 0.382346 15.339 0.0990488 13.813C-0.198478 12.2066 0.168903 10.71 1.18567 9.38793C2.01874 8.3043 3.11312 7.62097 4.43518 7.27421C4.49598 7.25891 4.56324 7.25891 4.62663 7.26019C4.85559 7.26783 4.91381 7.16457 4.92933 6.93892C5.02376 5.5098 5.47523 4.20052 6.33805 3.03658C7.11938 1.98354 8.09475 1.15871 9.30426 0.620716C10.193 0.226784 11.1205 0.0240815 12.1036 0.00240893C13.4903 -0.0281877 14.7891 0.230609 16.009 0.89736C17.56 1.74514 18.6531 2.97538 19.3244 4.58935C19.6478 5.36829 19.8432 6.16636 19.8315 7.00776C19.8289 7.19134 19.9247 7.23469 20.0721 7.26401C22.411 7.71021 23.9193 9.09853 24.5777 11.3155C24.9231 12.4782 24.8778 13.697 24.3772 14.8392C24.1922 15.2625 24.4704 15.5353 24.5907 15.8489C25.0072 16.93 25.068 18.0328 24.9425 19.1687C24.8002 20.455 24.2776 21.5794 23.4484 22.5496C22.4627 23.7033 21.2157 24.5039 19.7009 24.8099C19.0424 24.9425 18.353 25.0317 17.6855 24.9922C16.4242 24.9183 15.2535 24.4912 14.2225 23.7645C12.9496 22.867 12.0674 21.6699 11.6211 20.1873C11.4555 19.6365 11.3753 19.0616 11.2447 18.4356H5.44289C5.4196 18.4394 5.39761 18.442 5.37433 18.4458L5.37303 18.4445ZM6.92276 8.88436C6.43378 8.91623 5.96809 8.9481 5.5011 8.97615C4.27865 9.04881 3.31234 9.5919 2.59181 10.5519C2.06402 11.253 1.79883 12.0664 1.83893 12.9282C1.88033 13.7836 2.18174 14.5855 2.74962 15.2523C3.39383 16.0095 4.22949 16.5539 5.22427 16.5909C7.25521 16.6661 9.29004 16.6215 11.3236 16.6164C11.4076 16.6164 11.5448 16.522 11.5668 16.4468C12.0544 14.7857 13.013 13.4739 14.4955 12.5381C15.4126 11.9593 16.4087 11.5973 17.4927 11.5322C18.0645 11.4978 18.6453 11.5424 19.2184 11.5934C20.2817 11.6878 21.2196 12.1251 22.0927 12.7038C22.3722 12.89 22.6296 13.1092 22.9698 13.3693C22.931 12.918 22.8961 12.556 22.8702 12.1926C22.8081 11.3487 22.3941 10.6615 21.812 10.0904C21.0708 9.36243 20.1575 8.97232 19.0916 8.97997C18.6971 8.98252 18.3038 8.97997 17.873 8.97997C18.4099 5.82852 17.4565 3.38716 14.3764 2.15692C12.3352 1.34229 10.3314 1.71455 8.66911 3.17936C6.93957 4.70282 6.45577 6.66228 6.92276 8.88436ZM18.0761 23.1641C20.8599 23.2584 23.3307 20.9445 23.1923 17.9779C23.0797 15.5646 21.0113 13.173 17.8989 13.3068C15.2677 13.4203 13.1618 15.506 13.1437 18.2291C13.1255 20.8999 15.3272 23.1743 18.0748 23.1653L18.0761 23.1641Z" fill="#8976FF"/>
<path d="M20.7453 17.3727C21.0959 17.3281 21.4206 17.6851 21.5059 18.0076C21.6172 18.4207 21.4024 18.8528 21.0286 19.0326C20.9367 19.0772 20.8371 19.1078 20.7414 19.1448C20.7181 19.1422 20.6936 19.1384 20.6703 19.1359C19.7686 19.1359 18.8683 19.1359 17.9667 19.1359C17.9214 19.1384 17.8761 19.141 17.8308 19.1448C17.2254 18.9319 17.0624 18.705 17.0624 18.0675C17.0624 16.9992 17.0586 15.9296 17.065 14.8612C17.0676 14.3564 17.4039 14.0096 17.8709 14.0033C18.497 13.9943 18.8372 14.2735 18.8748 14.823C18.8722 15.5777 18.8683 16.3312 18.8709 17.0859C18.8709 17.1598 18.9136 17.2338 18.9369 17.3077C19.5151 17.3154 20.0946 17.323 20.6729 17.3319C20.6974 17.3447 20.7207 17.3587 20.7453 17.3714V17.3727Z" fill="#8976FF"/>
<path d="M18.9357 17.3072C18.9124 17.2333 18.8697 17.1593 18.8697 17.0854C18.8672 16.3307 18.871 15.5772 18.8736 14.8225C18.893 14.9207 18.928 15.0188 18.9293 15.117C18.9357 15.8462 18.9344 16.5767 18.937 17.3059L18.9357 17.3072Z" fill="#6C6D6E"/>
<path d="M17.8308 19.1453C17.8761 19.1428 17.9214 19.1402 17.9666 19.1364C17.9214 19.1389 17.8761 19.1415 17.8308 19.1453Z" fill="#535354"/>
</g>
<defs>
<clipPath id="clip0_3838_3601">
<rect width="25" height="25" fill="white"/>
</clipPath>
</defs>
</svg>
