<svg width="33" height="26" viewBox="0 0 33 26" fill="none" xmlns="http://www.w3.org/2000/svg">
<path fill-rule="evenodd" clip-rule="evenodd" d="M29.7615 12.6493L21.9419 4.82975L14.1223 12.6493L21.9419 20.4689L29.7615 12.6493ZM23.3561 3.41554C22.5751 2.63449 21.3087 2.63449 20.5277 3.41554L12.7081 11.2351C11.9271 12.0162 11.9271 13.2825 12.7081 14.0635L20.5277 21.8831C21.3087 22.6642 22.5751 22.6642 23.3561 21.8831L31.1757 14.0635C31.9567 13.2825 31.9567 12.0162 31.1757 11.2351L23.3561 3.41554Z" fill="#8976FF"/>
<path d="M12 0.5L20 8.50133V18.0013L12 25.5V0.5Z" fill="#F1F3FF"/>
<path fill-rule="evenodd" clip-rule="evenodd" d="M18.4685 12.6493L10.6489 4.82975L2.82936 12.6493L10.6489 20.4689L18.4685 12.6493ZM12.0631 3.41554C11.2821 2.63449 10.0158 2.63449 9.23471 3.41554L1.41514 11.2351C0.634096 12.0162 0.634096 13.2825 1.41514 14.0635L9.23471 21.8831C10.0158 22.6642 11.2821 22.6642 12.0631 21.8831L19.8827 14.0635C20.6638 13.2825 20.6638 12.0162 19.8827 11.2351L12.0631 3.41554Z" fill="#8976FF"/>
</svg>
