<svg width="60" height="60" viewBox="0 0 60 60" fill="none" xmlns="http://www.w3.org/2000/svg">
<circle cx="30" cy="30" r="30" fill="#F1F3FF"/>
<path fill-rule="evenodd" clip-rule="evenodd" d="M43.7615 29.6493L35.9419 21.8298L28.1223 29.6493L35.9419 37.4689L43.7615 29.6493ZM37.3561 20.4155C36.5751 19.6345 35.3087 19.6345 34.5277 20.4155L26.7081 28.2351C25.9271 29.0162 25.9271 30.2825 26.7081 31.0635L34.5277 38.8831C35.3087 39.6642 36.5751 39.6642 37.3561 38.8831L45.1757 31.0635C45.9567 30.2825 45.9567 29.0162 45.1757 28.2351L37.3561 20.4155Z" fill="#8976FF"/>
<path d="M26 17.5L34 25.5013V35.0013L26 42.5V17.5Z" fill="#F1F3FF"/>
<path fill-rule="evenodd" clip-rule="evenodd" d="M32.4685 29.6493L24.6489 21.8298L16.8294 29.6493L24.6489 37.4689L32.4685 29.6493ZM26.0631 20.4155C25.2821 19.6345 24.0158 19.6345 23.2347 20.4155L15.4151 28.2351C14.6341 29.0162 14.6341 30.2825 15.4151 31.0635L23.2347 38.8831C24.0158 39.6642 25.2821 39.6642 26.0631 38.8831L33.8827 31.0635C34.6638 30.2825 34.6638 29.0162 33.8827 28.2351L26.0631 20.4155Z" fill="#8976FF"/>
</svg>
