<svg width="29" height="23" viewBox="0 0 29 23" fill="none" xmlns="http://www.w3.org/2000/svg">
<g clip-path="url(#clip0_3838_3585)">
<path fill-rule="evenodd" clip-rule="evenodd" d="M14.8051 5.41313L14.8028 5.41323C14.6345 5.42087 14.3835 5.49759 14.1938 5.65067C14.0344 5.77923 13.9192 5.95495 13.9192 6.25096V6.8791L13.3753 7.14119L13.3745 7.14167L13.3688 7.14481L13.3688 7.14479C11.3076 8.26259 10.501 9.70096 10.1717 11.0321C9.90359 12.1156 9.94269 13.0969 9.97702 13.9585C9.98789 14.2314 9.99829 14.4924 9.99829 14.7407C9.99829 14.7834 9.99882 14.8333 9.99941 14.8878C10.0012 15.0574 10.0035 15.2719 9.99163 15.4546C9.97476 15.713 9.92527 16.0691 9.72829 16.4121C9.27298 17.2049 8.39061 17.3932 7.49742 17.3932C7.40557 17.3932 7.34257 17.4083 7.30214 17.4235C7.26162 17.4387 7.23587 17.4568 7.21955 17.4718C7.19685 17.4926 7.18615 17.513 7.18134 17.5272C7.19069 17.5323 7.20415 17.5385 7.22281 17.5451C7.27144 17.5622 7.3589 17.5824 7.49742 17.5824H22.1285C22.2668 17.5824 22.3541 17.5622 22.4026 17.5452C22.4214 17.5385 22.4349 17.5323 22.4442 17.5272C22.4395 17.513 22.4288 17.4925 22.406 17.4716C22.3898 17.4567 22.3641 17.4386 22.3237 17.4235C22.2833 17.4083 22.2203 17.3932 22.1285 17.3932C21.2353 17.3932 20.3529 17.2049 19.8976 16.4121C19.7006 16.0691 19.6512 15.713 19.6343 15.4546C19.6224 15.2719 19.6247 15.0574 19.6265 14.8878C19.6271 14.8333 19.6276 14.7834 19.6276 14.7407C19.6276 14.4924 19.638 14.2314 19.6489 13.9585C19.6832 13.0969 19.7223 12.1156 19.4543 11.0321C19.1249 9.70096 18.3183 8.26259 16.2571 7.14479L16.2514 7.14169L16.2514 7.14167L16.2506 7.1412L15.7067 6.8791V6.25096C15.7067 5.95536 15.5915 5.77966 15.4319 5.65091C15.2418 5.49766 14.9903 5.42088 14.8219 5.41323L14.8207 5.41319L14.8127 5.41314L14.8051 5.41313ZM7.16363 17.5157C7.16359 17.5157 7.16356 17.5157 7.16352 17.5156C7.16342 17.5155 7.16336 17.5155 7.16336 17.5155C7.16335 17.5155 7.16344 17.5156 7.16363 17.5157ZM14.7969 3.41312C14.7977 3.41312 14.7983 3.41312 14.7988 3.41312L14.8026 3.41312C14.8224 3.41311 14.8672 3.41307 14.9148 3.41539C15.4728 3.4412 16.14 3.65274 16.6872 4.09397C17.1349 4.45489 17.5003 4.97146 17.6426 5.6337C19.9294 7.01193 20.9671 8.81973 21.3957 10.5518C21.7413 11.9486 21.6818 13.3354 21.6446 14.2016C21.6355 14.4157 21.6276 14.598 21.6276 14.7407C21.6276 14.8388 21.6267 14.9199 21.6259 14.9903C21.6244 15.126 21.6234 15.222 21.63 15.3243C21.6307 15.334 21.6314 15.3431 21.6321 15.3515C21.7202 15.3717 21.8752 15.3932 22.1285 15.3932C23.4499 15.3932 24.3834 16.3285 24.4446 17.4324C24.4749 17.9773 24.2835 18.5432 23.8401 18.965C23.3975 19.3859 22.792 19.5824 22.1285 19.5824H7.49742C6.83375 19.5824 6.22815 19.386 5.78544 18.9651C5.34178 18.5432 5.15045 17.9771 5.18085 17.4321C5.24243 16.3282 6.17628 15.3932 7.49742 15.3932C7.75068 15.3932 7.9057 15.3717 7.99384 15.3515C7.99456 15.3431 7.99524 15.334 7.99587 15.3243C8.00255 15.222 8.00148 15.126 7.99997 14.9903C7.99919 14.9199 7.99829 14.8388 7.99829 14.7407C7.99829 14.598 7.99046 14.4157 7.98128 14.2016C7.94411 13.3354 7.88459 11.9486 8.23021 10.5518C8.65878 8.81974 9.69647 7.01195 11.9832 5.63373C12.1254 4.97176 12.4904 4.45524 12.9378 4.09421C13.4816 3.65536 14.1442 3.44366 14.7002 3.41586C14.7472 3.41296 14.7864 3.41309 14.7969 3.41312Z" fill="#8976FF"/>
<path fill-rule="evenodd" clip-rule="evenodd" d="M8.74928 1.52981C8.95037 2.04419 8.69639 2.62419 8.18202 2.82527C5.61327 3.82946 4.29196 5.7241 3.59995 7.41285C3.25266 8.26036 3.06901 9.04652 2.97277 9.61953C2.92483 9.90504 2.89906 10.1348 2.8854 10.2891C2.87858 10.3661 2.8748 10.4241 2.87279 10.4605C2.87179 10.4787 2.87122 10.4915 2.87094 10.4986L2.87076 10.5031C2.87074 10.5037 2.87073 10.5042 2.87071 10.5048C2.85537 11.0557 2.39699 11.4906 1.84572 11.4766C1.29361 11.4626 0.857406 11.0036 0.871422 10.4515L1.8711 10.4769C0.871422 10.4515 0.871434 10.4511 0.871447 10.4506L0.871477 10.4495L0.871551 10.4468L0.871768 10.4398L0.872533 10.4188C0.873211 10.4018 0.874255 10.3789 0.875837 10.3502C0.879001 10.2929 0.884323 10.2129 0.893191 10.1127C0.910913 9.9125 0.942888 9.63072 1.0004 9.28829C1.11507 8.60544 1.33319 7.66997 1.7493 6.65449C2.58412 4.61725 4.23622 2.22039 7.45383 0.962545C7.96821 0.761461 8.5482 1.01544 8.74928 1.52981Z" fill="#8976FF"/>
<path fill-rule="evenodd" clip-rule="evenodd" d="M10.7069 4.23577C10.908 4.75011 10.6542 5.33015 10.1398 5.53131C8.43878 6.19658 7.56345 7.44761 7.10051 8.57737C6.86774 9.14539 6.74438 9.67324 6.6798 10.0578C6.64768 10.2491 6.63058 10.4021 6.62164 10.5032C6.61717 10.5536 6.61476 10.5909 6.61353 10.6133L6.61245 10.6353L6.61244 10.6351L6.61246 10.6344C6.59803 11.1861 6.1393 11.6219 5.58747 11.6079C5.03536 11.5939 4.59913 11.135 4.61312 10.5829L5.6128 10.6082C4.61312 10.5829 4.61313 10.5824 4.61314 10.5819L4.61317 10.5809L4.61324 10.5785L4.61342 10.5725L4.61404 10.5556C4.61457 10.5423 4.61537 10.5246 4.61657 10.503C4.61895 10.4598 4.62291 10.4005 4.62942 10.3269C4.64243 10.1799 4.66573 9.97483 4.70741 9.72661C4.79044 9.23218 4.94826 8.55501 5.24986 7.81901C5.85563 6.34072 7.06169 4.58764 9.41134 3.66869C9.92569 3.46753 10.5057 3.72142 10.7069 4.23577ZM6.61245 10.6353L6.6124 10.6363L6.61237 10.6375L6.61237 10.6376C6.61237 10.6376 6.61239 10.6368 6.61245 10.6353Z" fill="#8976FF"/>
<path fill-rule="evenodd" clip-rule="evenodd" d="M20.585 1.52981C20.786 1.01544 21.366 0.761461 21.8804 0.962545C25.098 2.22039 26.7501 4.61725 27.5849 6.65449C28.0011 7.66997 28.2192 8.60544 28.3338 9.28829C28.3914 9.63072 28.4233 9.9125 28.4411 10.1127C28.4499 10.2129 28.4552 10.2929 28.4584 10.3502C28.46 10.3789 28.461 10.4018 28.4617 10.4188L28.4625 10.4398L28.4627 10.4468L28.4628 10.4495L28.4628 10.4506C28.4628 10.4511 28.4628 10.4515 27.4631 10.4769L28.4628 10.4515C28.4768 11.0036 28.0406 11.4626 27.4885 11.4766C26.9373 11.4906 26.4789 11.0557 26.4635 10.5048" fill="#8976FF"/>
<path d="M23.8078 10.6082C23.8078 10.6082 23.6957 6.18422 19.645 4.6" stroke="#8976FF" stroke-width="2" stroke-miterlimit="10" stroke-linecap="round"/>
<path fill-rule="evenodd" clip-rule="evenodd" d="M11.2114 17.5833H18.4409V18.5833C18.4409 19.2681 18.4194 20.3514 17.9577 21.2733C17.7138 21.76 17.3418 22.2161 16.7901 22.5424C16.2429 22.8661 15.5845 23.0235 14.8261 23.0235C14.0678 23.0235 13.4094 22.8661 12.8621 22.5424C12.3104 22.2161 11.9384 21.76 11.6946 21.2733C11.2328 20.3514 11.2114 19.2681 11.2114 18.5833V17.5833ZM13.2634 19.5833C13.3032 19.8845 13.3708 20.154 13.4828 20.3775C13.5826 20.5768 13.7093 20.7198 13.8804 20.821C14.0559 20.9248 14.3444 21.0235 14.8261 21.0235C15.3079 21.0235 15.5964 20.9248 15.7719 20.821C15.943 20.7198 16.0697 20.5768 16.1695 20.3775C16.2814 20.154 16.3491 19.8845 16.3889 19.5833H13.2634Z" fill="#8976FF"/>
</g>
<defs>
<clipPath id="clip0_3838_3585">
<rect width="29" height="23" fill="white"/>
</clipPath>
</defs>
</svg>
