<svg width="26" height="22" viewBox="0 0 26 22" fill="none" xmlns="http://www.w3.org/2000/svg">
<path fill-rule="evenodd" clip-rule="evenodd" d="M14.2069 5H4C2.89543 5 2 5.89543 2 7V17.2069C2 18.3115 2.89543 19.2069 4 19.2069H14.2069C15.3115 19.2069 16.2069 18.3115 16.2069 17.2069V7C16.2069 5.89543 15.3115 5 14.2069 5ZM4 3C1.79086 3 0 4.79086 0 7V17.2069C0 19.416 1.79086 21.2069 4 21.2069H14.2069C16.416 21.2069 18.2069 19.416 18.2069 17.2069V7C18.2069 4.79086 16.416 3 14.2069 3H4Z" fill="#8976FF"/>
<path d="M19.3607 10.0232C19.3833 10.016 19.4069 10.0096 19.4316 10.0042C19.4316 9.94342 19.4316 9.88268 19.4316 9.82195L19.3675 9.88752M19.3607 10.0232L19.3675 9.88752M19.3607 10.0232L19.3482 10.2746C19.2694 10.2707 19.1913 10.2667 19.1138 10.2625C18.9842 10.2557 18.8562 10.2486 18.7295 10.2417C18.6294 10.2361 18.5301 10.2307 18.4313 10.2254M19.3607 10.0232C19.2103 10.0713 19.1063 10.1547 19.056 10.206L19.3675 9.88752M19.3675 9.88752L19.3924 9.38813L19.3925 9.38798L19.3981 9.27588L19.0286 9.38798L19.0234 9.38956L18.4484 9.56406M18.4313 10.2254C18.4312 10.3107 18.431 10.3961 18.4308 10.4817C18.4306 10.6042 18.4303 10.727 18.4302 10.8504L18.4299 11.0816L18.5311 11.2895C18.6628 11.56 18.9469 11.8964 19.4275 11.9721C19.9059 12.0475 20.2781 11.8169 20.486 11.6043L22.5518 9.4919L24.6178 7.37933L24.6195 7.3776C24.7578 7.23548 25.0001 6.93585 25.0001 6.49281C25.0001 6.04896 24.757 5.74915 24.6178 5.60677L24.6177 5.60661L22.5624 3.50571L20.5127 1.41035L20.5122 1.4099L20.504 1.40098C20.4919 1.38788 20.4609 1.35452 20.4196 1.3172C20.1611 1.08252 19.773 0.931771 19.3482 1.03009C18.9356 1.1256 18.6677 1.41396 18.5313 1.69164L18.5093 1.73653L18.4918 1.78339L18.4871 1.7959L18.4767 1.82334L18.4142 1.99106L18.4138 2.17004C18.4133 2.39528 18.4129 2.62036 18.4125 2.84522C18.2512 2.85454 18.0886 2.86698 17.932 2.88476L17.9318 2.88479C17.3608 2.94982 16.7792 3.03614 16.1999 3.15918L16.1991 3.15935C15.3269 3.34537 14.4717 3.63216 13.6549 4.0437L18.4313 10.2254ZM18.4313 10.2254C18.4317 9.94675 18.4319 9.66948 18.4308 9.39186C18.4311 9.46194 18.4396 9.52069 18.4484 9.56406M18.4484 9.56406L18.4411 9.56626C18.455 9.61202 18.4693 9.64923 18.4749 9.66372L18.4789 9.67404L18.4809 9.67902C18.4817 9.68107 18.4805 9.67801 18.4785 9.6727C18.4751 9.66333 18.4639 9.63181 18.4536 9.58773C18.4519 9.58045 18.4501 9.57255 18.4484 9.56406ZM9.27836 14.2138C9.52992 14.2875 9.83367 14.2933 10.1328 14.1561C10.4048 14.0313 10.5733 13.8332 10.6705 13.6905C10.7182 13.6205 10.7631 13.554 10.8059 13.4906C11.0073 13.1924 11.1622 12.9629 11.3496 12.7584L11.3501 12.7578C11.6884 12.3878 12.0417 12.0473 12.4109 11.7569L12.4112 11.7567C13.0204 11.2772 13.6995 10.9172 14.4316 10.6866L8.78753 9.93142C8.58556 10.6931 8.45679 11.4811 8.43212 12.2921L8.43211 12.2924C8.42817 12.4231 8.4298 12.5518 8.43112 12.6567C8.43122 12.6646 8.43132 12.6725 8.43142 12.6802C8.43286 12.7971 8.43346 12.8873 8.42997 12.9721L8.42986 12.9752C8.42487 13.1062 8.4307 13.3444 8.54998 13.5951C8.69128 13.8921 8.94999 14.1176 9.27836 14.2138ZM9.27836 14.2138L9.55954 13.2541L9.27906 14.214C9.27883 14.2139 9.2786 14.2138 9.27836 14.2138ZM11.6269 5.38832L11.6272 5.38808C12.2493 4.86674 12.9217 4.41289 13.6546 4.04383L11.6269 5.38832ZM11.6269 5.38832C11.0601 5.86379 10.5641 6.40329 10.1372 7.0026L11.6269 5.38832ZM20.5155 1.41344L20.5154 1.41339L20.5155 1.41344ZM17.3964 10.1801L17.4244 9.18053L17.3961 10.1801C17.3962 10.1801 17.3963 10.1801 17.3964 10.1801ZM15.9369 10.3142L15.7154 9.33902L15.9365 10.3143C15.9366 10.3142 15.9368 10.3142 15.9369 10.3142ZM10.1372 7.00262C9.49719 7.90109 9.06301 8.89163 8.7876 9.93116L10.1372 7.00262Z" fill="#F1F3FF" stroke="#8976FF" stroke-width="2"/>
</svg>
