<svg width="60" height="60" viewBox="0 0 60 60" fill="none" xmlns="http://www.w3.org/2000/svg">
<circle cx="30" cy="30" r="30" fill="#F1F3FF"/>
<g clip-path="url(#clip0_3840_4188)">
<path fill-rule="evenodd" clip-rule="evenodd" d="M45.27 23.92L40.67 19.55C40.29 19.19 39.8 19 39.29 19C39.03 19 38.76 19.05 38.51 19.16C37.8 19.46 37.34 20.14 37.3 20.89C36.35 21.04 35.12 21.34 33.66 21.96H24C21.8 21.96 20 23.76 20 25.96V36.16C20 38.36 21.8 40.16 24 40.16H34.2C36.4 40.16 38.2 38.36 38.2 36.16V31.02C38.39 31.21 38.61 31.36 38.87 31.47C39.11 31.57 39.37 31.62 39.63 31.62C40.15 31.62 40.66 31.42 41.05 31.04L45.3 26.78C45.68 26.4 45.89 25.88 45.89 25.34C45.88 24.8 45.66 24.29 45.27 23.92ZM36.2 36.16C36.2 37.26 35.3 38.16 34.2 38.16H24C22.9 38.16 22 37.26 22 36.16V25.96C22 24.86 22.9 23.96 24 23.96H30.73C28 26.84 27.63 30.57 27.91 32.53C28.01 33.29 28.54 33.92 29.27 34.16C29.47 34.23 29.68 34.26 29.89 34.26C30.42 34.26 30.94 34.05 31.32 33.65C31.75 33.21 32.14 32.75 32.51 32.31C33.31 31.34 34 30.51 34.89 30.17C35.24 30.04 35.69 29.93 36.2 29.86V36.16ZM39.63 29.62V27.63H39.42C39.17 27.63 38.74 27.63 38.2 27.66C37.61 27.69 36.9 27.74 36.2 27.83C35.47 27.93 34.74 28.08 34.17 28.3C32.28 29.04 31.26 30.84 29.89 32.26C29.62 30.33 30.16 26.63 33.33 24.31C33.59 24.18 33.84 24.06 34.08 23.96C35.19 23.46 36.16 23.17 36.94 23C37.8 22.81 38.44 22.77 38.84 22.77C39.14 22.77 39.3 22.79 39.3 22.79V21L43.89 25.37L39.63 29.62Z" fill="#8976FF"/>
</g>
<defs>
<clipPath id="clip0_3840_4188">
<rect width="25.89" height="21.16" fill="white" transform="translate(20 19)"/>
</clipPath>
</defs>
</svg>
