<svg width="26" height="22" viewBox="0 0 26 22" fill="none" xmlns="http://www.w3.org/2000/svg">
<g clip-path="url(#clip0_3887_7142)">
<path fill-rule="evenodd" clip-rule="evenodd" d="M25.27 4.92L20.67 0.55C20.29 0.19 19.8 0 19.29 0C19.03 0 18.76 0.05 18.51 0.16C17.8 0.46 17.34 1.14 17.3 1.89C16.35 2.04 15.12 2.34 13.66 2.96H4C1.8 2.96 0 4.76 0 6.96V17.16C0 19.36 1.8 21.16 4 21.16H14.2C16.4 21.16 18.2 19.36 18.2 17.16V12.02C18.39 12.21 18.61 12.36 18.87 12.47C19.11 12.57 19.37 12.62 19.63 12.62C20.15 12.62 20.66 12.42 21.05 12.04L25.3 7.78C25.68 7.4 25.89 6.88 25.89 6.34C25.88 5.8 25.66 5.29 25.27 4.92ZM16.2 17.16C16.2 18.26 15.3 19.16 14.2 19.16H4C2.9 19.16 2 18.26 2 17.16V6.96C2 5.86 2.9 4.96 4 4.96H10.73C8 7.84 7.63 11.57 7.91 13.53C8.01 14.29 8.54 14.92 9.27 15.16C9.47 15.23 9.68 15.26 9.89 15.26C10.42 15.26 10.94 15.05 11.32 14.65C11.75 14.21 12.14 13.75 12.51 13.31C13.31 12.34 14 11.51 14.89 11.17C15.24 11.04 15.69 10.93 16.2 10.86V17.16ZM19.63 10.62V8.63H19.42C19.17 8.63 18.74 8.63 18.2 8.66C17.61 8.69 16.9 8.74 16.2 8.83C15.47 8.93 14.74 9.08 14.17 9.3C12.28 10.04 11.26 11.84 9.89 13.26C9.62 11.33 10.16 7.63 13.33 5.31C13.59 5.18 13.84 5.06 14.08 4.96C15.19 4.46 16.16 4.17 16.94 4C17.8 3.81 18.44 3.77 18.84 3.77C19.14 3.77 19.3 3.79 19.3 3.79V2L23.89 6.37L19.63 10.62Z" fill="#8976FF"/>
</g>
<defs>
<clipPath id="clip0_3887_7142">
<rect width="25.89" height="21.16" fill="white"/>
</clipPath>
</defs>
</svg>
