<svg width="28" height="27" viewBox="0 0 28 27" fill="none" xmlns="http://www.w3.org/2000/svg">
<path d="M10.487 20.15L10.487 20.1494C9.97359 20.105 9.65645 19.7942 9.43762 19.3949C9.07841 18.7396 8.87827 18.0274 8.68392 17.3357C8.66196 17.2576 8.64008 17.1797 8.61806 17.1022C8.3054 16.0044 8.0023 14.9013 7.71688 13.7947L7.71685 13.7946C7.67581 13.635 7.61542 13.5261 7.53561 13.4471C7.45545 13.3678 7.34487 13.3081 7.18542 13.2652L7.18541 13.2651C5.73845 12.8757 4.29482 12.4733 2.85293 12.0614C2.48899 11.9578 2.13192 11.823 1.78981 11.662L1.78964 11.6619C1.56586 11.5562 1.32889 11.4286 1.14965 11.2441C0.964903 11.054 0.844628 10.8068 0.850185 10.4766L0.850187 10.4764C0.861556 9.83294 1.34315 9.54013 1.77704 9.33638L1.77716 9.33632C2.52003 8.98825 3.30997 8.7755 4.08481 8.56682C4.2492 8.52254 4.41292 8.47845 4.57535 8.43329C4.74256 8.38671 4.90985 8.33985 5.07726 8.29297C5.78713 8.09415 6.49905 7.89476 7.21494 7.71339L7.21512 7.71334C7.36722 7.675 7.46785 7.61735 7.54008 7.54204C7.61319 7.4658 7.66815 7.36006 7.70919 7.20708L7.70925 7.20685C8.09117 5.79201 8.48754 4.38059 8.88862 2.97122C9.03272 2.46342 9.20495 1.94548 9.50239 1.48055L9.5024 1.48052C9.7597 1.07853 10.1136 0.851465 10.4899 0.850007C10.8669 0.848547 11.2203 1.0736 11.4755 1.47813L11.4756 1.47828C11.8651 2.09719 12.0604 2.7959 12.2479 3.46622C12.2759 3.5662 12.3036 3.66556 12.3319 3.76392L12.3319 3.76412C12.6491 4.87546 12.9655 5.99268 13.2416 7.11852M10.487 20.15L19.3828 11.5693C19.7747 11.3668 20.1383 11.0519 20.1497 10.5193L20.1498 10.5191C20.1612 9.95769 19.7804 9.62749 19.3688 9.42449L19.3684 9.4243C19.0359 9.26144 18.6843 9.09864 18.3164 8.99338M10.487 20.15H10.5M10.487 20.15H10.5M13.2416 7.11852L13.096 7.15425L13.2416 7.11834C13.2416 7.1184 13.2416 7.11846 13.2416 7.11852ZM13.2416 7.11852C13.2905 7.31647 13.3662 7.44968 13.4663 7.54563C13.5674 7.64256 13.7047 7.71237 13.8952 7.76385L13.8952 7.76386C15.3708 8.16288 16.8467 8.57005 18.3164 8.99338M18.3164 8.99338C18.3163 8.99337 18.3163 8.99337 18.3163 8.99336L18.275 9.13754L18.3166 8.99344C18.3165 8.99342 18.3164 8.9934 18.3164 8.99338ZM10.5 20.15H10.5016H10.5098L10.5179 20.1491C10.9344 20.1035 11.2435 19.8902 11.4605 19.5517C11.7422 19.1144 11.9194 18.6339 12.0565 18.1529C12.4689 16.7144 12.8734 15.2723 13.2618 13.8268L13.2618 13.8265M10.5 20.15L13.2618 13.8265M13.2618 13.8265C13.3066 13.6586 13.3688 13.5403 13.4524 13.4542C13.5354 13.3686 13.6498 13.304 13.8176 13.2608C14.6555 13.0463 15.4881 12.8154 16.3199 12.5847C16.5002 12.5347 16.6805 12.4847 16.8608 12.4349M13.2618 13.8265L16.8608 12.4349M9.1867 12.9212C9.01623 12.3288 8.61668 11.9777 8.05645 11.7894L8.05634 11.7894C7.34066 11.5495 6.61259 11.3565 5.88802 11.1683C5.82583 11.1522 5.76367 11.1361 5.70155 11.12C5.03841 10.9481 4.37932 10.7772 3.72948 10.574L3.72878 10.5738C3.67413 10.557 3.62369 10.5439 3.57628 10.5316C3.53924 10.5221 3.50405 10.5129 3.47013 10.5029C4.14628 10.2787 4.82401 10.1037 5.50444 9.9281C5.85739 9.83699 6.21106 9.7457 6.56562 9.64724L6.56571 9.64722C6.81398 9.57811 7.05938 9.5014 7.3021 9.42527L7.32496 9.4181C7.56063 9.34418 7.79378 9.27104 8.02852 9.20471L8.02879 9.20464C8.63607 9.03184 8.99851 8.64082 9.19747 8.05502L9.19747 8.055C9.4353 7.35452 9.62649 6.64255 9.81133 5.93383C9.8349 5.84344 9.85837 5.75313 9.88181 5.66289C10.0426 5.04413 10.2023 4.42926 10.3889 3.822L10.389 3.82188C10.4207 3.71816 10.4544 3.61616 10.4923 3.50358C10.6668 4.01466 10.7977 4.51246 10.9281 5.0081C10.9918 5.2503 11.0553 5.49198 11.1238 5.73446L11.1238 5.73449C11.3461 6.52122 11.5702 7.30703 11.804 8.09145L11.804 8.09158C11.973 8.65657 12.3584 9.00246 12.9054 9.19092C13.6129 9.43513 14.3338 9.6274 15.0513 9.81263C15.1439 9.83651 15.2363 9.86027 15.3287 9.88401C15.9542 10.0448 16.5757 10.2045 17.1886 10.3939C17.2904 10.4258 17.3915 10.459 17.5016 10.4957C17.0007 10.6653 16.5127 10.7934 16.0268 10.9209C15.7748 10.987 15.5234 11.053 15.2711 11.1245C14.9874 11.2047 14.7048 11.286 14.4226 11.3672C13.9491 11.5034 13.4766 11.6393 13.0016 11.7692L13.0013 11.7693C12.6845 11.8566 12.4266 12.0027 12.2218 12.2095C12.0177 12.4156 11.8728 12.6755 11.7715 12.9815L11.7715 12.9817C11.5379 13.6905 11.3476 14.4102 11.1608 15.1259C11.1498 15.1683 11.1387 15.2107 11.1277 15.253C10.9519 15.9272 10.7773 16.5971 10.5695 17.2575C10.5517 17.3137 10.5379 17.3655 10.5249 17.4141C10.5161 17.4474 10.5076 17.4792 10.4985 17.51C10.2855 16.8614 10.1164 16.2121 9.94666 15.5604C9.8484 15.1831 9.74994 14.805 9.64263 14.4258L9.4983 14.4666M9.1867 12.9212L9.04255 12.9627M9.1867 12.9212C9.1867 12.9212 9.1867 12.9212 9.1867 12.9212L9.04255 12.9627M9.1867 12.9212C9.25449 13.1566 9.32764 13.3908 9.40135 13.6268L9.41482 13.6699C9.49288 13.9199 9.57118 14.172 9.64269 14.426L9.4983 14.4666M9.04255 12.9627C8.88795 12.4254 8.53044 12.1069 8.00867 11.9316L9.4983 14.4666M9.04255 12.9627C9.11082 13.1998 9.18444 13.4355 9.25804 13.6711C9.3407 13.9358 9.42333 14.2003 9.4983 14.4666M16.8608 12.4349C16.9455 12.4116 17.0305 12.3884 17.1158 12.3652M16.8608 12.4349L17.1158 12.3652M17.1158 12.3652C17.8771 12.1578 18.6589 11.9449 19.3826 11.5694L17.1158 12.3652Z" fill="#8976FF" stroke="#8976FF" stroke-width="0.3"/>
<path d="M21.2682 25.7604L21.2562 25.7596C20.8318 25.7321 20.5673 25.4715 20.3963 25.1386L20.3962 25.1384C20.1457 24.6495 20.0028 24.1214 19.8647 23.6112C19.8344 23.4992 19.8044 23.3881 19.7735 23.2785L19.7734 23.2782C19.755 23.2124 19.7365 23.1465 19.718 23.0805C19.5798 22.588 19.4403 22.0912 19.3229 21.5891L19.3228 21.589C19.2969 21.4774 19.2573 21.4086 19.2086 21.361C19.159 21.3124 19.088 21.2743 18.9795 21.2447C18.9794 21.2447 18.9793 21.2447 18.9793 21.2447L19.0187 21.0999M21.2682 25.7604L16.2398 20.3218C17.1643 20.587 18.0902 20.8482 19.0187 21.0999M21.2682 25.7604L21.2801 25.7592C21.5995 25.7288 21.8308 25.5642 22.0007 25.3275C22.1829 25.0754 22.2959 24.7921 22.3761 24.5092C22.6473 23.5546 22.9175 22.5964 23.173 21.6352L23.0281 21.5967L23.1729 21.6356C23.2065 21.5107 23.2496 21.4285 23.3053 21.3705C23.3601 21.3136 23.4384 21.2683 23.5636 21.2375L23.5639 21.2374C24.3255 21.0483 25.0813 20.8349 25.8335 20.6195L25.8336 20.6194C25.8536 20.6137 25.8736 20.608 25.8936 20.6022C26.3028 20.4851 26.7367 20.3609 27.1265 20.1274L27.1266 20.1273C27.4675 19.9229 27.6619 19.6264 27.6624 19.3062C27.6628 18.9864 27.4695 18.6888 27.1319 18.4815L27.1317 18.4814C26.8857 18.3309 26.6196 18.2279 26.3518 18.1514L26.3515 18.1514C26.2612 18.1257 26.1709 18.1001 26.0806 18.0745C25.2454 17.8375 24.4096 17.6004 23.5706 17.3753L23.5704 17.3753C23.4485 17.3428 23.3669 17.2979 23.3088 17.24C23.2511 17.1824 23.2058 17.1011 23.1751 16.9769M21.2682 25.7604L20.6313 13.3657M19.0187 21.0999C19.2659 21.1672 19.4075 21.2911 19.4689 21.555C19.5856 22.0536 19.7241 22.5471 19.8624 23.0399C19.8809 23.1059 19.8994 23.1718 19.9178 23.2378C19.9497 23.3507 19.9804 23.4641 20.0111 23.5774C20.1491 24.0869 20.2871 24.5965 20.5297 25.07L19.0187 21.0999ZM19.0201 17.3467C18.3975 17.5059 17.7777 17.6745 17.1595 17.8498L17.1592 17.8499C17.0598 17.8782 16.9586 17.9058 16.8564 17.9336C16.3524 18.0707 15.8229 18.2147 15.3522 18.5014L15.3521 18.5015C15.0296 18.6983 14.8496 18.9876 14.85 19.2977C14.8504 19.6067 15.03 19.898 15.3465 20.1007C15.6147 20.2732 15.9079 20.3831 16.1985 20.466L19.0574 17.492M19.0201 17.3467C19.0202 17.3467 19.0202 17.3466 19.0203 17.3466L19.0574 17.492M19.0201 17.3467C19.0201 17.3467 19.02 17.3467 19.02 17.3467L19.0574 17.492M19.0201 17.3467C19.1135 17.3226 19.1722 17.2887 19.2131 17.247C19.2545 17.2049 19.2889 17.1436 19.3145 17.0459L19.3146 17.0457C19.5594 16.1209 19.8162 15.2005 20.0754 14.2821M19.0574 17.492C19.2819 17.4341 19.3995 17.3129 19.4596 17.084C19.7041 16.1605 19.9606 15.241 20.2198 14.3229M20.0754 14.2821C20.0754 14.2821 20.0754 14.2822 20.0754 14.2822L20.2198 14.3229M20.0754 14.2821L20.2198 14.3229M20.0754 14.2821C20.1714 13.9416 20.2917 13.5906 20.5082 13.2799M20.2198 14.3229C20.3146 13.9863 20.4295 13.6551 20.6313 13.3657M20.6313 13.3657L20.5082 13.28C20.5082 13.2799 20.5082 13.2799 20.5082 13.2799M20.6313 13.3657L20.5082 13.2799M20.5082 13.2799C20.701 13.0031 20.9726 12.8498 21.2583 12.85C21.5442 12.8502 21.8154 13.0042 22.0068 13.2836L22.007 13.2838C22.2899 13.6983 22.4229 14.1773 22.5472 14.6252C22.5637 14.6846 22.58 14.7434 22.5965 14.8015L22.4522 14.8425M22.4522 14.8425L22.5965 14.8013C22.8026 15.5231 22.9969 16.2479 23.1751 16.9769M22.4522 14.8425C22.4354 14.7834 22.4189 14.724 22.4024 14.6646C22.2771 14.2143 22.151 13.7609 21.8831 13.3684L22.4522 14.8425ZM23.1751 16.9769C23.1751 16.977 23.1751 16.977 23.1751 16.9771L23.0294 17.0127L23.175 16.9767C23.175 16.9768 23.1751 16.9769 23.1751 16.9769ZM21.9085 17.2712C22.0768 18.0453 22.5017 18.4774 23.2725 18.6444C23.7872 18.7556 24.2949 18.9039 24.8312 19.0605C25.0065 19.1117 25.1849 19.1638 25.3675 19.2158C25.2865 19.2476 25.2064 19.2764 25.1268 19.3028M25.1268 19.3028C25.0104 19.2692 24.8958 19.2357 24.7828 19.2027C24.2495 19.0469 23.7502 18.9011 23.2408 18.791L23.2408 18.791C22.8344 18.703 22.5068 18.5421 22.258 18.291C22.0093 18.0401 21.8504 17.7102 21.7619 17.303L21.7619 17.3029C21.6479 16.7761 21.5004 16.2592 21.3487 15.7279C21.319 15.6239 21.2892 15.5194 21.2594 15.4141C21.2038 15.6172 21.1466 15.8184 21.0897 16.0188C20.9587 16.4798 20.8289 16.9365 20.7227 17.4015L20.7227 17.4015C20.6384 17.7706 20.4876 18.0703 20.2577 18.3001C20.0278 18.5298 19.7288 18.6798 19.3646 18.7661L19.3645 18.7661C18.8265 18.8933 18.2955 19.0444 17.7485 19.2001C17.6271 19.2346 17.5048 19.2694 17.3815 19.3042C17.3937 19.3075 17.4063 19.3109 17.4194 19.3146L17.3781 19.4588L17.4191 19.3145C17.546 19.3506 17.6711 19.388 17.7949 19.425C18.1624 19.5348 18.5199 19.6416 18.8883 19.7026L18.8637 19.8506L18.888 19.7026C19.4429 19.7936 19.8916 19.9904 20.2257 20.3206C20.5599 20.651 20.7656 21.1011 20.8594 21.6732C20.9429 22.1791 21.0695 22.6858 21.2519 23.2064C21.2525 23.2041 21.2532 23.2018 21.2538 23.1996L21.2539 23.1994C21.3516 22.8562 21.4488 22.512 21.546 22.1676C21.673 21.7179 21.8001 21.2678 21.9286 20.819L21.9286 20.8189C22.0512 20.3921 22.3369 20.1094 22.7558 19.9818C22.9524 19.9216 23.1498 19.8638 23.3462 19.8064L23.3467 19.8063C23.5435 19.7487 23.7394 19.6914 23.9341 19.6318L23.9343 19.6317C24.1032 19.5803 24.2778 19.5361 24.4518 19.4921C24.5427 19.469 24.6335 19.4461 24.7232 19.4221C24.8564 19.3865 24.9907 19.3481 25.1268 19.3028Z" fill="#8976FF" stroke="#8976FF" stroke-width="0.3"/>
</svg>
