<svg width="60" height="60" viewBox="0 0 60 60" fill="none" xmlns="http://www.w3.org/2000/svg">
<circle cx="30" cy="30" r="30" fill="#F1F3FF"/>
<g clip-path="url(#clip0_3840_4210)">
<path d="M36.0027 26.1723C35.6796 26.0108 35.3243 25.8493 34.9475 25.7416C33.5585 25.3432 32.148 24.9556 30.7483 24.5787C30.4899 24.5034 30.393 24.4172 30.3284 24.1696C30.0699 23.1036 29.7685 22.0377 29.467 20.9717L29.3916 20.6918C29.1978 20.035 29.0148 19.3567 28.6164 18.7322C28.3257 18.2692 27.895 18 27.4428 18C26.9905 18 26.5599 18.2692 26.2584 18.7322C25.9461 19.2167 25.7846 19.7335 25.6446 20.218C25.257 21.5639 24.8802 22.8991 24.5249 24.245C24.471 24.4388 24.4172 24.4818 24.2557 24.5249C23.5881 24.6972 22.9206 24.8802 22.2638 25.0633L21.2732 25.3432C20.5302 25.537 19.7658 25.7416 19.0444 26.0861C18.7321 26.2261 18.0107 26.5707 18 27.4213C17.9784 28.3042 18.7321 28.6595 19.0551 28.8102C19.3889 28.9717 19.7442 29.1117 20.1103 29.2086C21.4778 29.607 22.8452 29.9838 24.2234 30.3607C24.4172 30.4038 24.4818 30.4684 24.5249 30.6514C24.794 31.7066 25.0848 32.751 25.3862 33.7954L25.4401 34.0108C25.6339 34.6891 25.8277 35.389 26.183 36.035C26.4737 36.5626 26.8936 36.8533 27.4105 36.8964H27.4535H27.4966C27.9596 36.8533 28.3472 36.6057 28.6056 36.2073C28.8533 35.8196 29.0363 35.389 29.2086 34.7968C29.5962 33.4293 29.9838 32.0619 30.3499 30.6837C30.4037 30.4684 30.4791 30.4038 30.6729 30.3499C31.4804 30.1454 32.2772 29.9192 33.074 29.7039L33.8062 29.4993C34.5383 29.3055 35.3028 29.0902 36.0134 28.7241C36.5948 28.4226 36.8856 28.0027 36.9071 27.4751C36.9071 27.0875 36.7564 26.5491 36.0027 26.1723ZM33.1063 27.4428C32.934 27.4859 32.7725 27.5289 32.611 27.572C32.3741 27.6366 32.1372 27.7012 31.9004 27.7658L31.1144 27.9919C30.6621 28.1211 30.2099 28.2503 29.7469 28.3795C29.0686 28.5626 28.6164 29.004 28.3795 29.7147C28.1426 30.4361 27.9596 31.1682 27.7658 31.9004C27.6581 32.2988 27.5612 32.6972 27.4428 33.0956C27.3566 32.7833 27.2813 32.4818 27.2059 32.1803C27.109 31.825 27.0121 31.4589 26.9152 31.1036C26.8398 30.8452 26.7644 30.5868 26.6783 30.3284C26.6137 30.1131 26.5383 29.8869 26.4845 29.6716C26.3014 29.0471 25.8815 28.6272 25.2247 28.4011C24.471 28.1534 23.7066 27.9489 22.9636 27.755C22.576 27.6581 22.1776 27.5612 21.79 27.4428C22.1238 27.3567 22.4576 27.2705 22.7806 27.1844C23.1144 27.0982 23.4589 27.0121 23.7927 26.9152C24.0403 26.8506 24.2772 26.7752 24.5249 26.6999C24.7402 26.6245 24.9555 26.5599 25.1817 26.4953C25.8277 26.3122 26.2584 25.8923 26.4845 25.2248C26.7429 24.4603 26.9475 23.6851 27.1413 22.9314C27.2382 22.5545 27.3351 22.1777 27.4428 21.8008C27.4858 21.9731 27.5397 22.1454 27.5827 22.3176C27.6366 22.5545 27.7012 22.7806 27.7658 23.0067C27.9811 23.7497 28.1857 24.5034 28.4118 25.2463C28.5948 25.8493 29.004 26.2584 29.6393 26.4845C30.4037 26.7429 31.2005 26.9475 31.965 27.1413C32.3418 27.2382 32.7187 27.3351 33.1063 27.4428Z" fill="#8976FF"/>
<path d="M41.3325 34.0431C41.1279 33.9462 40.9126 33.8493 40.6972 33.7847C39.9328 33.5693 39.1468 33.354 38.3608 33.1386C38.21 32.5357 38.0485 31.9542 37.8762 31.362L37.8224 31.1898C37.7255 30.8345 37.6071 30.4145 37.3702 30.0377C37.1548 29.6931 36.8211 29.4993 36.4765 29.4993C36.1212 29.4993 35.7874 29.6931 35.5721 30.0377C35.3783 30.3392 35.2706 30.6622 35.1952 30.9421C34.9906 31.6635 34.7861 32.3849 34.5815 33.1279C34.2262 33.2248 33.8601 33.3217 33.494 33.4186L32.9987 33.5585C32.5788 33.677 32.1373 33.7954 31.7067 34C31.5236 34.0754 30.9745 34.3445 30.9637 35.0013C30.9422 35.6797 31.5236 35.9596 31.7174 36.0458C31.9112 36.1427 32.1266 36.218 32.3419 36.2826C33.1064 36.498 33.8601 36.7133 34.5815 36.8641C34.7322 37.4455 34.883 38.0269 35.0552 38.6083L35.0875 38.7268C35.1952 39.1144 35.3029 39.5236 35.5182 39.9112C35.7874 40.3957 36.1643 40.5249 36.4334 40.5464H36.5411C36.8857 40.5034 37.1764 40.3203 37.3702 40.0188C37.5209 39.782 37.6394 39.5128 37.7363 39.1682C37.9624 38.4038 38.1669 37.6501 38.3392 36.9179C38.7914 36.7995 39.2329 36.6703 39.6851 36.5518L40.0727 36.4441C40.4927 36.3257 40.9341 36.2073 41.354 35.9919C41.8816 35.7227 42.0001 35.3244 42.0108 35.0444C42.0108 34.786 41.9247 34.3338 41.3433 34.0431H41.3325ZM36.7026 36.175C36.6165 36.4441 36.5411 36.6918 36.4657 36.961C36.4227 36.8102 36.3796 36.6703 36.3365 36.5195L36.2289 36.1642C36.132 35.8627 35.9166 35.4536 35.3352 35.2598C35.066 35.1736 34.7968 35.0983 34.5169 35.0229H34.5276C34.6676 34.9798 34.8076 34.9367 34.9476 34.8937C35.066 34.8506 35.1844 34.8183 35.3029 34.786C35.7551 34.6568 36.0674 34.3553 36.2181 33.8816C36.315 33.6124 36.4011 33.3324 36.4765 33.0525C36.5519 33.3324 36.6272 33.6124 36.7134 33.8923C36.7995 34.183 37.0256 34.5707 37.5855 34.7645C37.8655 34.8614 38.1346 34.9475 38.4254 35.0229C38.1669 35.0983 37.9193 35.1736 37.6609 35.2382C37.1871 35.3782 36.8641 35.6904 36.7026 36.175Z" fill="#8976FF"/>
</g>
<defs>
<clipPath id="clip0_3840_4210">
<rect width="24" height="22.5464" fill="white" transform="translate(18 18)"/>
</clipPath>
</defs>
</svg>
