<svg width="24" height="23" viewBox="0 0 24 23" fill="none" xmlns="http://www.w3.org/2000/svg">
<g clip-path="url(#clip0_3887_7332)">
<path d="M18.0027 8.17227C17.6796 8.01077 17.3243 7.84926 16.9475 7.74159C15.5585 7.3432 14.148 6.95559 12.7483 6.57873C12.4899 6.50336 12.393 6.41723 12.3284 6.16958C12.0699 5.10363 11.7685 4.03768 11.467 2.97174L11.3916 2.69179C11.1978 2.03499 11.0148 1.35666 10.6164 0.732167C10.3257 0.269179 9.89498 0 9.44276 0C8.99054 0 8.55986 0.269179 8.25837 0.732167C7.94613 1.21669 7.78462 1.73351 7.64465 2.21803C7.25703 3.56393 6.88018 4.89906 6.52486 6.24495C6.47103 6.43876 6.41719 6.48183 6.25568 6.5249C5.58812 6.69717 4.92056 6.88021 4.26376 7.06326L3.27318 7.3432C2.53025 7.53701 1.76578 7.74159 1.04438 8.08614C0.732131 8.22611 0.0107308 8.57066 -3.63652e-05 9.42126C-0.0215707 10.3042 0.732131 10.6595 1.05515 10.8102C1.38893 10.9717 1.74424 11.1117 2.11033 11.2086C3.47776 11.607 4.84519 11.9838 6.22338 12.3607C6.41719 12.4038 6.48179 12.4684 6.52486 12.6514C6.79404 13.7066 7.08475 14.751 7.38624 15.7954L7.44007 16.0108C7.63388 16.6891 7.82769 17.389 8.183 18.035C8.47372 18.5626 8.89364 18.8533 9.41046 18.8964H9.45353H9.4966C9.95959 18.8533 10.3472 18.6057 10.6056 18.2073C10.8533 17.8196 11.0363 17.389 11.2086 16.7968C11.5962 15.4293 11.9838 14.0619 12.3499 12.6837C12.4037 12.4684 12.4791 12.4038 12.6729 12.3499C13.4804 12.1454 14.2772 11.9192 15.074 11.7039L15.8062 11.4993C16.5383 11.3055 17.3028 11.0902 18.0134 10.7241C18.5948 10.4226 18.8856 10.0027 18.9071 9.4751C18.9071 9.08748 18.7564 8.54912 18.0027 8.17227ZM15.1063 9.4428C14.934 9.48587 14.7725 9.52894 14.611 9.57201C14.3741 9.63661 14.1372 9.70121 13.9004 9.76581L13.1144 9.99192C12.6621 10.1211 12.2099 10.2503 11.7469 10.3795C11.0686 10.5626 10.6164 11.004 10.3795 11.7147C10.1426 12.4361 9.95959 13.1682 9.76578 13.9004C9.65811 14.2988 9.5612 14.6972 9.44276 15.0956C9.35663 14.7833 9.28126 14.4818 9.20589 14.1803C9.10898 13.825 9.01208 13.4589 8.91517 13.1036C8.8398 12.8452 8.76443 12.5868 8.67829 12.3284C8.61369 12.1131 8.53832 11.8869 8.48449 11.6716C8.30144 11.0471 7.88152 10.6272 7.22473 10.4011C6.47103 10.1534 5.70656 9.94886 4.96362 9.75505C4.57601 9.65814 4.17762 9.56124 3.79 9.4428C4.12379 9.35666 4.45757 9.27052 4.78058 9.18439C5.11436 9.09825 5.45891 9.01211 5.7927 8.91521C6.04034 8.8506 6.27722 8.77523 6.52486 8.69986C6.74021 8.62449 6.95555 8.55989 7.18166 8.49529C7.82769 8.31225 8.25837 7.89233 8.48449 7.22476C8.7429 6.4603 8.94747 5.68506 9.14128 4.93136C9.23819 4.55451 9.33509 4.17766 9.44276 3.80081C9.48583 3.97308 9.53967 4.14536 9.58274 4.31763C9.63657 4.55451 9.70117 4.78062 9.76578 5.00673C9.98112 5.74966 10.1857 6.50336 10.4118 7.2463C10.5948 7.84926 11.004 8.25841 11.6393 8.48452C12.4037 8.74293 13.2005 8.94751 13.965 9.14132C14.3418 9.23822 14.7187 9.33513 15.1063 9.4428Z" fill="#8976FF"/>
<path d="M23.3325 16.0431C23.1279 15.9462 22.9126 15.8493 22.6972 15.7847C21.9328 15.5693 21.1468 15.354 20.3608 15.1386C20.21 14.5357 20.0485 13.9542 19.8762 13.362L19.8224 13.1898C19.7255 12.8345 19.6071 12.4145 19.3702 12.0377C19.1548 11.6931 18.8211 11.4993 18.4765 11.4993C18.1212 11.4993 17.7874 11.6931 17.5721 12.0377C17.3783 12.3392 17.2706 12.6622 17.1952 12.9421C16.9906 13.6635 16.7861 14.3849 16.5815 15.1279C16.2262 15.2248 15.8601 15.3217 15.494 15.4186L14.9987 15.5585C14.5788 15.677 14.1373 15.7954 13.7067 16C13.5236 16.0754 12.9745 16.3445 12.9637 17.0013C12.9422 17.6797 13.5236 17.9596 13.7174 18.0458C13.9112 18.1427 14.1266 18.218 14.3419 18.2826C15.1064 18.498 15.8601 18.7133 16.5815 18.8641C16.7322 19.4455 16.883 20.0269 17.0552 20.6083L17.0875 20.7268C17.1952 21.1144 17.3029 21.5236 17.5182 21.9112C17.7874 22.3957 18.1643 22.5249 18.4334 22.5464H18.5411C18.8857 22.5034 19.1764 22.3203 19.3702 22.0188C19.5209 21.782 19.6394 21.5128 19.7363 21.1682C19.9624 20.4038 20.1669 19.6501 20.3392 18.9179C20.7914 18.7995 21.2329 18.6703 21.6851 18.5518L22.0727 18.4441C22.4927 18.3257 22.9341 18.2073 23.354 17.9919C23.8816 17.7227 24.0001 17.3244 24.0108 17.0444C24.0108 16.786 23.9247 16.3338 23.3433 16.0431H23.3325ZM18.7026 18.175C18.6165 18.4441 18.5411 18.6918 18.4657 18.961C18.4227 18.8102 18.3796 18.6703 18.3365 18.5195L18.2289 18.1642C18.132 17.8627 17.9166 17.4536 17.3352 17.2598C17.066 17.1736 16.7968 17.0983 16.5169 17.0229H16.5276C16.6676 16.9798 16.8076 16.9367 16.9476 16.8937C17.066 16.8506 17.1844 16.8183 17.3029 16.786C17.7551 16.6568 18.0674 16.3553 18.2181 15.8816C18.315 15.6124 18.4011 15.3324 18.4765 15.0525C18.5519 15.3324 18.6272 15.6124 18.7134 15.8923C18.7995 16.183 19.0256 16.5707 19.5855 16.7645C19.8655 16.8614 20.1346 16.9475 20.4254 17.0229C20.1669 17.0983 19.9193 17.1736 19.6609 17.2382C19.1871 17.3782 18.8641 17.6904 18.7026 18.175Z" fill="#8976FF"/>
</g>
<defs>
<clipPath id="clip0_3887_7332">
<rect width="24" height="22.5464" fill="white"/>
</clipPath>
</defs>
</svg>
