<svg width="13" height="13" viewBox="0 0 13 13" fill="none" xmlns="http://www.w3.org/2000/svg">
<path fill-rule="evenodd" clip-rule="evenodd" d="M9.00146 0.478271L4.02686 0.434814L0.478516 3.92188L0.435059 8.89648L3.92188 12.4448L8.89648 12.4883L12.4448 9.00146L12.4883 4.02661L9.00146 0.478271ZM5.97656 9.20972C5.97656 8.85156 6.26709 8.56128 6.625 8.56128C6.9834 8.56128 7.27393 8.85156 7.27393 9.20972C7.27393 9.56787 6.9834 9.8584 6.625 9.8584C6.26709 9.8584 5.97656 9.56787 5.97656 9.20972ZM6.31543 3.44116C6.40723 3.3916 6.51221 3.36353 6.62354 3.36353C6.95703 3.36353 7.23145 3.61401 7.26904 3.93701L7.27344 4.0127L7.27441 7.26025L7.27002 7.33618C7.23291 7.65918 6.9585 7.90991 6.62549 7.90991C6.29248 7.91016 6.01758 7.65942 5.97998 7.33667L5.97559 7.26074L5.97461 4.01318L5.979 3.9375C6.00391 3.72266 6.1333 3.53955 6.31543 3.44116Z" fill="#EB5757"/>
</svg>
