<svg width="16" height="16" viewBox="0 0 16 16" fill="none" xmlns="http://www.w3.org/2000/svg">
<path d="M0 8.00426C0 7.27118 0.0937666 6.56367 0.2813 5.88173C0.468833 5.19979 0.738768 4.56331 1.0911 3.9723C1.44344 3.38128 1.86113 2.84141 2.34417 2.35269C2.82721 1.86397 3.36708 1.44628 3.96377 1.09963C4.56047 0.752975 5.19979 0.48304 5.88173 0.289824C6.56367 0.0966081 7.27118 0 8.00426 0C8.73735 0 9.44486 0.0937666 10.1268 0.2813C10.8087 0.468833 11.4452 0.738768 12.0362 1.0911C12.6272 1.44344 13.1671 1.86113 13.6558 2.34417C14.1446 2.82721 14.5622 3.36708 14.9089 3.96377C15.2555 4.56047 15.5226 5.19979 15.7102 5.88173C15.8977 6.56367 15.9943 7.27118 16 8.00426C16 8.73735 15.9062 9.44486 15.7187 10.1268C15.5312 10.8087 15.2612 11.4452 14.9089 12.0362C14.5566 12.6272 14.1389 13.1671 13.6558 13.6558C13.1728 14.1446 12.6329 14.5622 12.0362 14.9089C11.4395 15.2555 10.8031 15.5226 10.1268 15.7102C9.45054 15.8977 8.74303 15.9943 8.00426 16C7.26549 16 6.55798 15.9062 5.88173 15.7187C5.20547 15.5312 4.56899 15.2612 3.9723 14.9089C3.3756 14.5566 2.83573 14.1417 2.35269 13.6644C1.86965 13.187 1.45196 12.6471 1.09963 12.0448C0.747292 11.4424 0.477357 10.8059 0.289824 10.1353C0.102291 9.46475 0.00568283 8.7544 0 8.00426ZM14.5509 8.00426C14.5509 7.40757 14.4742 6.83076 14.3207 6.27384C14.1673 5.71692 13.9457 5.19695 13.6558 4.71391C13.366 4.23087 13.025 3.7876 12.6329 3.38412C12.2408 2.98064 11.7975 2.63967 11.3031 2.36121C10.8087 2.08276 10.2859 1.86113 9.73468 1.69632C9.18345 1.53152 8.60664 1.45196 8.00426 1.45765C7.40188 1.45765 6.82223 1.53436 6.26532 1.6878C5.7084 1.84124 5.18842 2.06287 4.70538 2.35269C4.22234 2.64251 3.77908 2.98348 3.3756 3.3756C2.97212 3.76771 2.63115 4.20813 2.35269 4.69686C2.07423 5.18558 1.85544 5.7084 1.69632 6.26532C1.5372 6.82223 1.45765 7.40188 1.45765 8.00426C1.45765 8.60664 1.53436 9.18629 1.6878 9.74321C1.84124 10.3001 2.06287 10.8229 2.35269 11.3117C2.64251 11.8004 2.98348 12.2408 3.3756 12.6329C3.76771 13.025 4.20813 13.366 4.69686 13.6558C5.18558 13.9457 5.70556 14.1644 6.25679 14.3122C6.80803 14.46 7.39052 14.5395 8.00426 14.5509C8.90783 14.5509 9.75457 14.3804 10.5445 14.0394C11.3344 13.6985 12.0277 13.2296 12.6244 12.6329C13.2211 12.0362 13.6899 11.3429 14.0309 10.553C14.3719 9.7631 14.5452 8.91351 14.5509 8.00426ZM6.91316 5.08897C6.91316 4.94122 6.94157 4.80199 6.9984 4.67128C7.05523 4.54058 7.13195 4.42408 7.22856 4.32179C7.32516 4.2195 7.44166 4.13994 7.57805 4.08311C7.71444 4.02628 7.85651 3.99787 8.00426 3.99787C8.15202 3.99787 8.29125 4.02628 8.42195 4.08311C8.55266 4.13994 8.66631 4.2195 8.76292 4.32179C8.85953 4.42408 8.93909 4.54058 9.0016 4.67128C9.06411 4.80199 9.09537 4.94122 9.09537 5.08897C9.09537 5.23673 9.06695 5.37595 9.01012 5.50666C8.95329 5.63736 8.87658 5.75386 8.77997 5.85615C8.68336 5.95844 8.56686 6.038 8.43047 6.09483C8.29409 6.15166 8.15202 6.18007 8.00426 6.18007C7.85083 6.18007 7.70876 6.15166 7.57805 6.09483C7.44735 6.038 7.33085 5.96129 7.22856 5.86468C7.12627 5.76807 7.04955 5.65441 6.9984 5.52371C6.94726 5.393 6.91884 5.24809 6.91316 5.08897ZM7.27118 10.911V8.00426C7.27118 7.90197 7.29107 7.8082 7.33085 7.72296C7.37063 7.63772 7.42177 7.561 7.48428 7.49281C7.54679 7.42461 7.62351 7.37063 7.71444 7.33085C7.80536 7.29107 7.90197 7.27118 8.00426 7.27118C8.10655 7.27118 8.20032 7.29107 8.28556 7.33085C8.3708 7.37063 8.44752 7.42177 8.51572 7.48428C8.58391 7.54679 8.63506 7.62351 8.66915 7.71444C8.70325 7.80536 8.72314 7.90197 8.72882 8.00426V10.911C8.72882 11.1099 8.65779 11.2804 8.51572 11.4225C8.37365 11.5646 8.20316 11.6356 8.00426 11.6356C7.90197 11.6356 7.8082 11.6185 7.72296 11.5844C7.63772 11.5503 7.561 11.4992 7.49281 11.431C7.42461 11.3628 7.37063 11.2861 7.33085 11.2009C7.29107 11.1156 7.27118 11.019 7.27118 10.911Z" fill="#757575"/>
</svg>
