<svg width="28" height="29" viewBox="0 0 28 29" fill="none" xmlns="http://www.w3.org/2000/svg">
<path d="M0 14.875C0 13.5917 0.165278 12.3569 0.495833 11.1708C0.826389 9.98472 1.29792 8.86667 1.91042 7.81667C2.52292 6.76667 3.25208 5.82361 4.09792 4.9875C4.94375 4.15139 5.89167 3.42222 6.94167 2.8C7.99167 2.17778 9.10486 1.70625 10.2812 1.38542C11.4576 1.06458 12.6972 0.894444 14 0.875C15.2833 0.875 16.5229 1.04028 17.7188 1.37083C18.9146 1.70139 20.0278 2.17292 21.0583 2.78542C22.0889 3.39792 23.0319 4.12708 23.8875 4.97292C24.7431 5.81875 25.4722 6.76181 26.075 7.80208C26.6778 8.84236 27.1493 9.96042 27.4896 11.1562C27.8299 12.3521 28 13.5917 28 14.875C28 16.1583 27.8347 17.3931 27.5042 18.5792C27.1736 19.7653 26.7021 20.8833 26.0896 21.9333C25.4771 22.9833 24.7479 23.9264 23.9021 24.7625C23.0563 25.5986 22.1083 26.3278 21.0583 26.95C20.0083 27.5722 18.8951 28.0438 17.7188 28.3646C16.5424 28.6854 15.3028 28.8556 14 28.875C12.7069 28.875 11.4674 28.7097 10.2812 28.3792C9.09514 28.0486 7.97708 27.5819 6.92708 26.9792C5.87708 26.3764 4.93403 25.6472 4.09792 24.7917C3.26181 23.9361 2.53264 22.9882 1.91042 21.9479C1.28819 20.9076 0.816667 19.7944 0.495833 18.6083C0.175 17.4222 0.00972222 16.1778 0 14.875ZM14.9333 16.7417V9.275C14.9333 9.02222 14.841 8.80347 14.6562 8.61875C14.4715 8.43403 14.2528 8.34167 14 8.34167C13.7472 8.34167 13.5285 8.43403 13.3438 8.61875C13.159 8.80347 13.0667 9.02222 13.0667 9.275V16.7417C13.0667 16.9944 13.159 17.2132 13.3438 17.3979C13.5285 17.5826 13.7472 17.675 14 17.675C14.2528 17.675 14.4715 17.5826 14.6562 17.3979C14.841 17.2132 14.9333 16.9944 14.9333 16.7417ZM15.4 20.475C15.4 20.2903 15.366 20.1153 15.2979 19.95C15.2299 19.7847 15.1278 19.634 14.9917 19.4979C14.8556 19.3618 14.7097 19.2597 14.5542 19.1917C14.3986 19.1236 14.2188 19.0847 14.0146 19.075C13.616 19.075 13.2806 19.2111 13.0083 19.4833C12.7361 19.7556 12.6 20.091 12.6 20.4896C12.6 20.684 12.634 20.8639 12.7021 21.0292C12.7701 21.1944 12.8722 21.3403 13.0083 21.4667C13.1444 21.5931 13.2951 21.6903 13.4604 21.7583C13.6257 21.8264 13.8056 21.8653 14 21.875C14.3889 21.875 14.7194 21.7389 14.9917 21.4667C15.2639 21.1944 15.4 20.8639 15.4 20.475Z" fill="#EBC157"/>
</svg>
