<svg xmlns="http://www.w3.org/2000/svg" xmlns:xlink="http://www.w3.org/1999/xlink" viewBox="0 0 220 232.334">
  <defs>
    <style>
      .cls-1 {
        opacity: 0.5;
      }

      .cls-2 {
        fill: #d7dadb;
      }

      .cls-3 {
        fill: #fff;
      }

      .cls-4 {
        fill: #2c3e50;
      }

      .cls-5 {
        fill: #6dbcdb;
      }

      .cls-6 {
        filter: url(#Path_288);
      }

      .cls-7 {
        filter: url(#Path_289);
      }

      .cls-8 {
        filter: url(#Path_290);
      }
    </style>
    <filter id="Path_290" x="0" y="104.333" width="220" height="128" filterUnits="userSpaceOnUse">
      <feOffset input="SourceAlpha"/>
      <feGaussianBlur stdDeviation="6" result="blur"/>
      <feFlood flood-opacity="0.251"/>
      <feComposite operator="in" in2="blur"/>
      <feComposite in="SourceGraphic"/>
    </filter>
    <filter id="Path_289" x="30.667" y="58" width="158.666" height="97.333" filterUnits="userSpaceOnUse">
      <feOffset input="SourceAlpha"/>
      <feGaussianBlur stdDeviation="6" result="blur-2"/>
      <feFlood flood-opacity="0.251"/>
      <feComposite operator="in" in2="blur-2"/>
      <feComposite in="SourceGraphic"/>
    </filter>
    <filter id="Path_288" x="61.333" y="12.667" width="97.333" height="66.667" filterUnits="userSpaceOnUse">
      <feOffset input="SourceAlpha"/>
      <feGaussianBlur stdDeviation="6" result="blur-3"/>
      <feFlood flood-opacity="0.251"/>
      <feComposite operator="in" in2="blur-3"/>
      <feComposite in="SourceGraphic"/>
    </filter>
  </defs>
  <g id="Group_112" data-name="Group 112" class="cls-1" transform="translate(-626 -115)">
    <g id="Group_89" data-name="Group 89" transform="translate(644 206.667)">
      <g class="cls-8" transform="matrix(1, 0, 0, 1, -18, -91.67)">
        <path id="Path_290-2" data-name="Path 290" class="cls-2" d="M1240,894l92-46,92,46-92,46Z" transform="translate(-1222 -725.67)"/>
      </g>
      <path id="Path_277" data-name="Path 277" class="cls-3" d="M1240,894l92-46,92,46-92,46Z" transform="translate(-1240 -848)"/>
      <path id="Path_276" data-name="Path 276" class="cls-4" d="M1348,886.667l-92,46V902l92-46Z" transform="translate(-1164 -810)"/>
      <path id="Path_279" data-name="Path 279" class="cls-5" d="M1240,886.667l92,46V902l-92-46Z" transform="translate(-1240 -810)"/>
    </g>
    <g id="Group_90" data-name="Group 90" transform="translate(674.667 160.333)">
      <g class="cls-7" transform="matrix(1, 0, 0, 1, -48.67, -45.33)">
        <path id="Path_289-2" data-name="Path 289" class="cls-2" d="M1240,878.666,1301.333,848l61.333,30.667-61.333,30.667Z" transform="translate(-1191.33 -772)"/>
      </g>
      <path id="Path_281" data-name="Path 281" class="cls-3" d="M1240,878.666,1301.333,848l61.333,30.667-61.333,30.667Z" transform="translate(-1240 -848)"/>
      <path id="Path_278" data-name="Path 278" class="cls-4" d="M1317.333,886.667,1256,917.333V886.667L1317.333,856Z" transform="translate(-1194.667 -825.333)"/>
      <path id="Path_280" data-name="Path 280" class="cls-5" d="M1240,886.667l61.333,30.667V886.667L1240,856Z" transform="translate(-1240 -825.333)"/>
    </g>
    <g id="Group_91" data-name="Group 91" transform="translate(705.333 115)">
      <g class="cls-6" transform="matrix(1, 0, 0, 1, -79.33, 0)">
        <path id="Path_288-2" data-name="Path 288" class="cls-2" d="M1240,863.333,1270.667,848l30.667,15.333-30.667,15.333Z" transform="translate(-1160.67 -817.33)"/>
      </g>
      <path id="Path_284" data-name="Path 284" class="cls-3" d="M1240,863.333,1270.667,848l30.667,15.333-30.667,15.333Z" transform="translate(-1240 -848)"/>
      <path id="Path_282" data-name="Path 282" class="cls-4" d="M1286.667,886.667,1256,902V871.333L1286.667,856Z" transform="translate(-1225.334 -840.667)"/>
      <path id="Path_283" data-name="Path 283" class="cls-5" d="M1240,886.667,1270.667,902V871.333L1240,856Z" transform="translate(-1240 -840.667)"/>
    </g>
  </g>
</svg>
