<svg xmlns="http://www.w3.org/2000/svg" xmlns:xlink="http://www.w3.org/1999/xlink" viewBox="0 0 190 159.446"><defs><style>.cls-1{fill:#d7dadb}.cls-2{fill:#2c3e50}.cls-3{fill:#6dbcdb}.cls-4{filter:url(#Path_289)}.cls-5{filter:url(#Path_290)}</style><filter id="Path_290" width="190" height="113" x="0" y="46.446" filterUnits="userSpaceOnUse"><feOffset input="SourceAlpha"/><feGaussianBlur result="blur" stdDeviation="6"/><feFlood flood-opacity=".251"/><feComposite in2="blur" operator="in"/><feComposite in="SourceGraphic"/></filter><filter id="Path_289" width="138.667" height="87.333" x="25.667" y="7.667" filterUnits="userSpaceOnUse"><feOffset input="SourceAlpha"/><feGaussianBlur result="blur-2" stdDeviation="6"/><feFlood flood-opacity=".251"/><feComposite in2="blur-2" operator="in"/><feComposite in="SourceGraphic"/></filter></defs><g id="Group_111" data-name="Group 111" transform="translate(-626 -168.333)"><g id="Group_89" data-name="Group 89" transform="translate(644 207.112)"><g class="cls-5" transform="matrix(1, 0, 0, 1, -18, -38.78)"><path id="Path_290-2" d="M1240,886.5l77-38.5,77,38.5L1317,925Z" class="cls-1" data-name="Path 290" transform="translate(-1222 -783.55)"/></g><path id="Path_277" d="M1240,886.5l77-38.5,77,38.5L1317,925Z" class="cls-1" data-name="Path 277" transform="translate(-1240 -848)"/><path id="Path_276" d="M1333,881.667l-77,38.5V894.5l77-38.5Z" class="cls-2" data-name="Path 276" transform="translate(-1179 -817.5)"/><path id="Path_279" d="M1240,881.667l77,38.5V894.5L1240,856Z" class="cls-3" data-name="Path 279" transform="translate(-1240 -817.5)"/></g><g id="Group_90" data-name="Group 90" transform="translate(669.667 168.333)"><g class="cls-4" transform="matrix(1, 0, 0, 1, -43.67, 0)"><path id="Path_289-2" d="M1240,873.666,1291.333,848l51.333,25.667-51.333,25.667Z" class="cls-1" data-name="Path 289" transform="translate(-1196.33 -822.33)"/></g><path id="Path_281" d="M1240,873.666,1291.333,848l51.333,25.667-51.333,25.667Z" class="cls-1" data-name="Path 281" transform="translate(-1240 -848)"/><path id="Path_278" d="M1307.333,881.667,1256,907.333V881.667L1307.333,856Z" class="cls-2" data-name="Path 278" transform="translate(-1204.667 -830.333)"/><path id="Path_280" d="M1240,881.667l51.333,25.667V881.667L1240,856Z" class="cls-3" data-name="Path 280" transform="translate(-1240 -830.333)"/></g></g></svg>