<svg width="73" height="57" viewBox="0 0 73 57" fill="none" xmlns="http://www.w3.org/2000/svg">
<path d="M61.7958 4.7294C57.0736 2.52 52.0244 0.9143 46.7456 0C46.0973 1.1721 45.3399 2.7486 44.8177 4.0027C39.2062 3.1588 33.6463 3.1588 28.138 4.0027C27.6159 2.7486 26.8413 1.1721 26.1872 0C20.9027 0.9143 15.8477 2.5259 11.1255 4.7411C1.60078 19.1342 -0.981215 33.1698 0.309785 47.0061C6.62708 51.7237 12.7493 54.5895 18.7682 56.4648C20.2543 54.4195 21.5797 52.2453 22.7215 49.9539C20.5469 49.1276 18.4641 48.1079 16.4961 46.9241C17.0182 46.5373 17.5289 46.1329 18.0223 45.7168C30.0257 51.3311 43.0677 51.3311 54.9277 45.7168C55.4269 46.1329 55.9375 46.5373 56.4539 46.9241C54.4801 48.1137 52.3916 49.1334 50.217 49.9598C51.3588 52.2453 52.6785 54.4254 54.1703 56.4706C60.195 54.5953 66.3229 51.7296 72.6402 47.0061C74.155 30.9663 70.0525 17.0596 61.7958 4.7294ZM24.3568 38.4969C20.7535 38.4969 17.7985 35.133 17.7985 31.0366C17.7985 26.9402 20.6904 23.5705 24.3568 23.5705C28.0233 23.5705 30.9782 26.9343 30.9151 31.0366C30.9208 35.133 28.0233 38.4969 24.3568 38.4969ZM48.5932 38.4969C44.9899 38.4969 42.0349 35.133 42.0349 31.0366C42.0349 26.9402 44.9267 23.5705 48.5932 23.5705C52.2596 23.5705 55.2146 26.9343 55.1515 31.0366C55.1515 35.133 52.2596 38.4969 48.5932 38.4969Z" fill="#5865F2"/>
</svg>
