<svg width="85" height="32" viewBox="0 0 85 32" fill="none" xmlns="http://www.w3.org/2000/svg">
<g clip-path="url(#clip0)">
<path d="M45.935 27.4461C45.8135 27.0154 45.6312 26.5846 45.3882 26.2154C44.7806 25.3538 43.8085 24.923 42.7756 25.0461H41.1352V20.8615H38.7656V32H42.7149C43.2617 32 43.8693 31.8769 44.3553 31.6307L44.5984 31.0769L45.935 27.4461ZM43.3832 29.4154C43.0794 29.6615 42.6541 29.7846 42.2288 29.7846H41.1352V27.2H42.2288C42.6541 27.1384 43.0794 27.2615 43.444 27.5692C43.6262 27.8154 43.7478 28.1846 43.7478 28.4923C43.7478 28.8615 43.6262 29.1692 43.3832 29.4154Z" fill="#292C3A"/>
<path d="M50.7351 28.8C50.7351 29.1077 50.6744 29.4769 50.4313 29.7231C50.1883 29.9692 49.8845 30.0308 49.5807 30.0308C49.2769 30.0308 48.9124 29.9077 48.6694 29.7231C48.4263 29.4769 48.3656 29.1077 48.3656 28.8V24.9846L46.2998 30.4615C46.3606 30.6462 46.4821 30.7692 46.6036 30.9538C47.2112 31.6308 48.1833 32 49.5807 32C50.1883 32 50.7959 31.9385 51.3427 31.7538C52.4363 31.4462 53.1654 30.4 53.1047 29.2923V25.0462H50.7351V28.8Z" fill="#292C3A"/>
<path d="M57.1145 22.4C57.1145 23.1384 56.5677 23.6923 55.8386 23.7538C55.8386 23.7538 55.8386 23.7538 55.7779 23.7538C55.4133 23.7538 55.1095 23.6307 54.8665 23.3846C54.6235 23.1384 54.502 22.7692 54.502 22.4C54.502 21.6615 55.1095 21.1077 55.8386 21.1077C56.2032 21.1077 56.507 21.2307 56.75 21.4769C56.993 21.7231 57.1145 22.0923 57.1145 22.4ZM56.993 32H54.6842V24.9846H56.993V32Z" fill="#292C3A"/>
<path d="M60.8813 32H58.5117V20.8615H60.8813V32Z" fill="#292C3A"/>
<path d="M62.4003 28.5538C62.3395 27.7538 62.5826 26.8923 63.0686 26.2154C63.6762 25.3538 64.6483 24.923 65.6812 25.0461H67.3217V20.8615H69.6912V32H65.742C64.7698 32.0615 63.8585 31.6923 63.1901 30.8923C62.6433 30.2769 62.3395 29.4154 62.4003 28.5538ZM64.7698 28.4923C64.7698 28.8615 64.8914 29.1692 65.1344 29.4154C65.4382 29.6615 65.8635 29.7846 66.2888 29.7846H67.3217V27.2H66.228C65.8027 27.1384 65.3774 27.2615 65.0129 27.5692C64.8306 27.8154 64.7091 28.1846 64.7698 28.4923Z" fill="#292C3A"/>
<path d="M78.5011 28.8H73.5797C73.5797 29.7846 74.0658 30.3385 75.0379 30.3385C75.524 30.3385 75.9493 30.0923 76.1315 29.7231H78.3796C78.2581 30.277 77.9543 30.7693 77.5897 31.1385C76.8606 31.7539 75.9493 32.0616 75.0379 32.0616C73.8835 32.1231 72.7291 31.6923 72 30.8308C71.4532 30.2154 71.2102 29.3539 71.2102 28.5539C71.1494 27.5693 71.514 26.6462 72.1823 25.9693C72.9114 25.2923 73.8835 24.9231 74.9164 24.9846C76.1315 24.8616 77.3467 25.477 78.015 26.5846C78.3796 27.2 78.5618 27.9385 78.5618 28.677L78.5011 28.8ZM76.3138 27.4462C76.2531 26.7693 75.6455 26.277 74.9771 26.3385C74.6126 26.3385 74.2481 26.4616 74.005 26.7077C73.8227 26.8923 73.6405 27.2 73.6405 27.5077H76.3138V27.4462Z" fill="#292C3A"/>
<path d="M85.0022 27.2C84.6984 27.0769 84.3338 26.9538 84.03 26.9538C83.3617 26.8923 82.7541 27.2615 82.5111 27.9384C82.3896 28.2461 82.3896 28.5538 82.3896 28.8615V31.7538H80.02V24.9846H82.3896V26.0923C82.5718 25.723 82.8756 25.4769 83.1794 25.2307C83.6047 24.9846 84.0908 24.8615 84.5161 24.8615C84.6984 24.8615 84.8199 24.8615 84.9414 24.8615L85.0022 27.2Z" fill="#292C3A"/>
<path d="M78.3186 0L75.8883 6.46154L77.5896 11.5077H74.0048L72.6074 15.1385H78.8655L80.0199 18.3385H85.0628L78.3186 0Z" fill="#292C3A"/>
<path d="M70.9067 0L66.2891 11.8154L62.7652 0H58.9982L55.1705 11.8154L53.3477 6.95385L50.7959 13.6615L52.4971 18.3385H57.297L60.7602 7.75385L64.0411 18.3385H68.8409L75.8281 0H70.9067Z" fill="#292C3A"/>
<path d="M51.0994 1.90769C50.0058 0.676923 48.3653 0 46.2388 0H38.7656V18.3385H43.444V12.2462H46.3603C47.2109 12.2462 48.1223 12.1231 48.9729 11.8769L52.1323 3.63077C51.8893 2.95385 51.5247 2.4 51.0994 1.90769ZM47.1502 7.75385C46.7856 8.18461 46.0565 8.43077 45.0237 8.43077H43.444V3.81538H45.0237C45.7528 3.75385 46.4818 3.93846 47.0287 4.43077C47.454 4.86154 47.6362 5.47692 47.6362 6.03077C47.697 6.64615 47.5147 7.26154 47.1502 7.75385Z" fill="#292C3A"/>
<path opacity="0.3" d="M15.797 32C24.5214 32 31.594 24.8366 31.594 16C31.594 7.16344 24.5214 0 15.797 0C7.07256 0 0 7.16344 0 16C0 24.8366 7.07256 32 15.797 32Z" fill="#292C3A"/>
<path opacity="0.6" d="M24.546 23.2615C25.8219 22.0923 26.4902 20.3692 26.4902 18.0923V10.2154H5.10352L7.53382 15.2H13.8526V18.3385C13.8526 19.2615 13.9741 20.1846 14.2779 21.1077L22.784 24.4308C23.3916 24.1231 23.9992 23.7539 24.546 23.2615ZM18.4702 19.0769C17.9841 18.6462 17.8019 17.9077 17.8019 16.8615V15.2H22.4802V16.8615C22.541 17.6615 22.3587 18.4 21.8726 19.0154C21.4473 19.4462 20.779 19.6923 20.1714 19.6308C19.5638 19.6308 18.9563 19.4462 18.4702 19.0769Z" fill="#292C3A"/>
<path d="M15.7969 23.2615C17.0728 22.0923 17.7411 20.3692 17.7411 18.0923V15.1385H22.4802L5.10352 10.2154V15.2V18.3385C5.10352 19.2615 5.22503 20.1846 5.46806 21.1077L13.9741 24.4308C14.7032 24.1231 15.3108 23.7539 15.7969 23.2615ZM9.78186 19.0769C9.2958 18.6462 9.11352 17.9077 9.11352 16.8615V15.2H13.8526V16.8615C13.9134 17.6615 13.7311 18.4 13.245 19.0154C12.759 19.4462 12.1514 19.6923 11.5438 19.6308C10.8755 19.6308 10.2679 19.4462 9.78186 19.0769Z" fill="#292C3A"/>
</g>
<defs>
<clipPath id="clip0">
<rect width="85" height="32" fill="white"/>
</clipPath>
</defs>
</svg>
