<svg xmlns="http://www.w3.org/2000/svg" xmlns:xlink="http://www.w3.org/1999/xlink" id="Layer_1" x="0" y="0" enable-background="new 0 0 50 49" version="1.1" viewBox="0 0 50 49" xml:space="preserve"><path fill="#FFF" fill-rule="evenodd" d="M25,0C11.2,0,0,11.2,0,25.1C0,36.2,7.2,45.6,17.1,49	c1.3,0.2,1.7-0.5,1.7-1.2c0-0.6,0-2.2,0-4.3c-7,1.5-8.4-3.4-8.4-3.4c-1.1-2.9-2.8-3.7-2.8-3.7c-2.3-1.6,0.2-1.5,0.2-1.5	c2.5,0.2,3.8,2.6,3.8,2.6c2.2,3.8,5.9,2.7,7.3,2.1c0.2-1.6,0.9-2.7,1.6-3.4C14.9,35.6,9,33.4,9,23.8c0-2.7,1-5,2.6-6.7	c-0.3-0.6-1.1-3.2,0.2-6.6c0,0,2.1-0.7,6.9,2.6c2-0.6,4.1-0.8,6.3-0.8c2.1,0,4.3,0.3,6.3,0.8c4.8-3.3,6.9-2.6,6.9-2.6	c1.4,3.5,0.5,6,0.2,6.6c1.6,1.8,2.6,4,2.6,6.7c0,9.7-5.8,11.8-11.4,12.4c0.9,0.8,1.7,2.3,1.7,4.7c0,3.4,0,6.1,0,6.9	c0,0.7,0.5,1.5,1.7,1.2C42.8,45.6,50,36.2,50,25.1C50,11.2,38.8,0,25,0z" clip-rule="evenodd"/></svg>