<?xml version="1.0" encoding="utf-8"?>
<!-- Generator: Adobe Illustrator 18.1.1, SVG Export Plug-In . SVG Version: 6.00 Build 0)  -->
<!DOCTYPE svg PUBLIC "-//W3C//DTD SVG 1.1//EN" "http://www.w3.org/Graphics/SVG/1.1/DTD/svg11.dtd">
<svg version="1.1" id="Layer_1" xmlns="http://www.w3.org/2000/svg" xmlns:xlink="http://www.w3.org/1999/xlink" x="0px" y="0px"
	 viewBox="0 0 39 50" enable-background="new 0 0 39 50" xml:space="preserve">
<g>
	<polygon fill="#FFFFFF" points="27.7,32 8.7,27.4 9.6,23.5 28.7,28.2 	"/>
	<polygon fill="#FFFFFF" points="29,27.4 11.6,18.5 13.4,15 30.8,23.9 	"/>
	<polygon fill="#FFFFFF" points="31.7,22.7 16.9,9.7 19.5,6.8 34.3,19.7 	"/>
	<polygon fill="#FFFFFF" points="35.8,18.5 24.8,2.2 28,0 39,16.3 	"/>
	
		<rect x="8" y="32.3" transform="matrix(0.9985 5.482766e-02 -5.482766e-02 0.9985 1.9067 -0.9222)" fill="#FFFFFF" width="19.6" height="3.9"/>
	<polygon fill="#FFFFFF" points="31.5,46.1 31.5,29.7 35.4,29.7 35.4,50 0,50 0,29.7 3.9,29.7 3.9,46.1 	"/>
	<rect x="7.8" y="38.2" fill="#FFFFFF" width="19.7" height="3.9"/>
</g>
</svg>
