<svg xmlns="http://www.w3.org/2000/svg" xmlns:xlink="http://www.w3.org/1999/xlink" viewBox="0 0 269.1 100"><defs><style>.cls-1{fill:#3c3c3c;}.cls-2{fill:url(#linear-gradient);}.cls-3,.cls-4{fill:#fff;}.cls-3{opacity:0.6;}</style><linearGradient id="linear-gradient" x1="119.16" y1="-37.78" x2="-10.13" y2="126.31" gradientUnits="userSpaceOnUse"><stop offset="0" stop-color="#45ada8"/><stop offset="1" stop-color="#9337d8"/></linearGradient></defs><title>2019-03-05_PWABuilder-logo</title><g id="Layer_2" data-name="Layer 2"><g id="sprint-3_20px-distorted-w"><g id="FINAL_1.2"><g id="resized-40_" data-name="resized-40%"><g id="_4.1-builder-newB_20px-slash_20pxKern_u-intersect" data-name="4.1-builder-newB_20px-slash_20pxKern_u-intersect"><path id="b" class="cls-1" d="M145.42,85.78a10.66,10.66,0,0,0-1.72-3.89c-1.8-2.5-4.08-3.75-8.26-3.75h-5.3v-13h-7.43V100h12.45a11.07,11.07,0,0,0,5.23-1.09l.69-1.79ZM137.3,92a4.94,4.94,0,0,1-3.63,1.09h-3.53V85h3.51c1.84,0,3.1.4,3.79,1.2a4.32,4.32,0,0,1,.93,2.92A4,4,0,0,1,137.3,92Z"/><path id="u_collision-top-right" class="cls-1" d="M160.68,90a3.9,3.9,0,0,1-.94,2.89,3.8,3.8,0,0,1-2.78,1,3.84,3.84,0,0,1-2.81-1,3.9,3.9,0,0,1-.94-2.89V78.15L146.6,95.33a6.59,6.59,0,0,0,1,1.46Q150.42,100,157,100a17.38,17.38,0,0,0,5.62-.79,7.55,7.55,0,0,0,5.53-7.77V78.15h-7.43Z"/><path id="i" class="cls-1" d="M180.84,70.1a4.1,4.1,0,0,1-4.16,4.16,4,4,0,0,1-2.94-1.21,4.05,4.05,0,0,1-1.2-3A4.1,4.1,0,0,1,176.68,66a4.05,4.05,0,0,1,2.95,1.2A4,4,0,0,1,180.84,70.1Zm-.45,29.9H173V78.15h7.43Z"/><path id="l" class="cls-1" d="M192.68,100h-7.43V65.19h7.43Z"/><path id="newD_thickness" class="cls-1" d="M197.53,89.2a12.18,12.18,0,0,1,2.08-7.31c1.8-2.5,4.08-3.75,8.26-3.75h5.31v-13h7.42V100H208.15c-3.84,0-6-1.12-8-3.37A10.68,10.68,0,0,1,197.53,89.2Zm7.41-.1A4,4,0,0,0,206,92a4.94,4.94,0,0,0,3.63,1.09h3.54V85h-3.51c-1.84,0-3.11.4-3.79,1.2A4.27,4.27,0,0,0,204.94,89.1Z"/><path id="e" class="cls-1" d="M248.53,90H233c0,3.14,1.51,4.72,4.53,4.72a3.93,3.93,0,0,0,3.55-2h7.18a9.71,9.71,0,0,1-2.53,4.39,11.46,11.46,0,0,1-8.11,2.81q-6.45,0-9.7-3.93a10.78,10.78,0,0,1-2.44-7.15,11.17,11.17,0,0,1,3-8.15q3-3.14,8.6-3.14,6.84,0,9.77,5a12.57,12.57,0,0,1,1.65,6.51Zm-6.93-4.22q-.78-3.56-4.2-3.55a4.21,4.21,0,0,0-3.05,1.13,4.14,4.14,0,0,0-1.17,2.42Z"/><path id="r" class="cls-1" d="M269.1,85a7.33,7.33,0,0,0-3.15-.74q-3.65,0-4.73,3a8.53,8.53,0,0,0-.41,2.91v9h-7.42V78.15h7.42v3.43a8,8,0,0,1,2.53-2.64,8.2,8.2,0,0,1,4.32-1.09c.39,0,.87,0,1.44.07Z"/></g><g id="logo_expanded"><polygon id="A" class="cls-1" points="247.89 0 240.15 20.13 245.49 35.94 234.07 35.94 229.72 47.26 249.52 47.26 253.21 57.24 269.1 57.24 247.89 0 247.89 0"/><polygon id="W" class="cls-1" points="224.43 0 209.88 36.98 198.6 0 186.77 0 174.66 36.98 168.93 21.75 160.88 42.68 166.23 57.24 181.36 57.24 192.31 24.07 202.75 57.24 217.93 57.24 239.94 0 224.43 0"/><path id="P" class="cls-1" d="M161.75,5.91Q156.5,0,146.4,0H122.71V57.24H137.6v-19h9.3a25.81,25.81,0,0,0,8.2-1.19L165,11.3A17,17,0,0,0,161.75,5.91ZM149.2,24.15c-1.2,1.4-3.42,2.1-6.64,2.1h-5V12h5c3,0,5.13.64,6.37,1.92A7,7,0,0,1,150.85,19,7.53,7.53,0,0,1,149.2,24.15Z"/></g></g><circle class="cls-2" cx="50" cy="50" r="50"/><g id="pb-diagonal"><path id="P-2" data-name="P" class="cls-3" d="M77.61,72.76q6.19-5.51,6.19-16.09V31.83H16.2l7.6,15.61H43.71V57.2A26.93,26.93,0,0,0,45,65.78L72,76.17A18,18,0,0,0,77.61,72.76ZM58.49,59.61q-2.2-1.9-2.2-7v-5.2H71.23v5.24q0,4.73-2,6.68a7.31,7.31,0,0,1-5.35,2A8,8,0,0,1,58.49,59.61Z"/><path id="B-2" data-name="B" class="cls-4" d="M50.09,72.76q6.19-5.51,6.2-16.09V47.44H71.23l-55-15.61V47.44h0V57.2a27.22,27.22,0,0,0,1.24,8.58l27,10.39A17.9,17.9,0,0,0,50.09,72.76ZM31,59.61q-2.2-1.9-2.2-7v-5.2H43.71v5.24q0,4.73-2,6.68a7.35,7.35,0,0,1-5.36,2A8,8,0,0,1,31,59.61Z"/></g></g></g></g></svg>