<svg xmlns="http://www.w3.org/2000/svg" width="139.918" height="52" viewBox="0 0 139.918 52"><defs><style>.a,.b,.c{fill:#fff;}.b{opacity:0.3;}.c{opacity:0.6;}</style></defs><g transform="translate(63.804)"><path class="a" d="M134.518,75.872a5.546,5.546,0,0,0-.894-2.023,4.659,4.659,0,0,0-4.295-1.95h-2.756V65.14H122.71V83.266h6.473A5.757,5.757,0,0,0,131.9,82.7l.359-.931ZM130.3,79.106a2.569,2.569,0,0,1-1.888.567h-1.835V75.466H128.4a2.518,2.518,0,0,1,1.971.624,2.246,2.246,0,0,1,.484,1.518A2.081,2.081,0,0,1,130.3,79.106Z" transform="translate(-122.71 -31.27)"/><path class="a" d="M153.921,84.312a2.028,2.028,0,0,1-.489,1.5,1.976,1.976,0,0,1-1.445.52,2,2,0,0,1-1.461-.52,2.028,2.028,0,0,1-.489-1.5V78.15L146.6,87.083a3.428,3.428,0,0,0,.52.759q1.466,1.669,4.888,1.669a9.037,9.037,0,0,0,2.922-.411,3.926,3.926,0,0,0,2.875-4.04V78.15h-3.863Z" transform="translate(-134.178 -37.515)"/><path class="a" d="M176.855,68.132a2.132,2.132,0,0,1-2.163,2.163,2.08,2.08,0,0,1-1.529-.629,2.107,2.107,0,0,1-.624-1.56A2.132,2.132,0,0,1,174.692,66a2.106,2.106,0,0,1,1.534.624A2.08,2.08,0,0,1,176.855,68.132Zm-.234,15.547h-3.843V72.317h3.863Z" transform="translate(-146.63 -31.683)"/><path class="a" d="M189.113,83.29H185.25V65.19h3.863Z" transform="translate(-152.732 -31.294)"/><path class="a" d="M197.525,77.65a6.332,6.332,0,0,1,1.081-3.8A4.659,4.659,0,0,1,202.9,71.9h2.761V65.14h3.858V83.266h-6.473a4.935,4.935,0,0,1-4.16-1.752A5.552,5.552,0,0,1,197.525,77.65Zm3.853-.052a2.08,2.08,0,0,0,.551,1.508,2.568,2.568,0,0,0,1.887.567h1.841V75.466h-1.825a2.51,2.51,0,0,0-1.971.624A2.22,2.22,0,0,0,201.378,77.6Z" transform="translate(-158.623 -31.27)"/><path class="a" d="M237.459,84.023h-8.075c0,1.633.785,2.454,2.355,2.454a2.043,2.043,0,0,0,1.846-1.04h3.733A5.051,5.051,0,0,1,236,87.72a5.959,5.959,0,0,1-4.217,1.461,6.167,6.167,0,0,1-5.044-2.043,5.605,5.605,0,0,1-1.269-3.718,5.807,5.807,0,0,1,1.56-4.238,5.894,5.894,0,0,1,4.472-1.633,5.417,5.417,0,0,1,5.08,2.6,6.538,6.538,0,0,1,.858,3.385Zm-3.6-2.194a2.061,2.061,0,0,0-2.184-1.846,2.189,2.189,0,0,0-1.586.588,2.153,2.153,0,0,0-.608,1.258Z" transform="translate(-172.039 -37.227)"/><path class="a" d="M261.559,81.566a3.81,3.81,0,0,0-1.638-.385,2.336,2.336,0,0,0-2.459,1.56,4.43,4.43,0,0,0-.213,1.513v4.68H253.39V78h3.858v1.783a4.159,4.159,0,0,1,1.315-1.373,4.264,4.264,0,0,1,2.246-.567,5.835,5.835,0,0,1,.749.036Z" transform="translate(-185.443 -37.37)"/><path class="a" d="M239.168,0l-4.024,10.467,2.776,8.221h-5.938l-2.262,5.886h10.3l1.919,5.189H250.2L239.168,0Z" transform="translate(-174.08)"/><path class="a" d="M193.923,0l-7.565,19.228L180.493,0h-6.151l-6.3,19.228-2.979-7.919L160.88,22.192l2.782,7.571h7.867l5.693-17.247,5.428,17.247h7.893L201.988,0Z" transform="translate(-141.033)"/><path class="a" d="M143.009,3.073Q140.279,0,135.028,0H122.71V29.762h7.742V19.883h4.836a13.42,13.42,0,0,0,4.264-.619L144.7,5.876a8.84,8.84,0,0,0-1.69-2.8Zm-6.525,9.484c-.624.728-1.778,1.092-3.453,1.092h-2.6V6.239h2.6a4.5,4.5,0,0,1,3.312,1,3.64,3.64,0,0,1,1,2.641,3.915,3.915,0,0,1-.858,2.678Z" transform="translate(-122.71 0)"/></g><ellipse class="b" cx="26" cy="26" rx="26" ry="26"/><path class="c" d="M48.133,53.114q3.219-2.865,3.219-8.367V31.83H16.2l3.952,8.117H30.505v5.075a14,14,0,0,0,.671,4.462l14.04,5.4a9.36,9.36,0,0,0,2.917-1.773Zm-9.942-6.838q-1.144-.988-1.144-3.64v-2.7h7.769v2.725a4.739,4.739,0,0,1-1.04,3.474,3.8,3.8,0,0,1-2.782,1.04A4.16,4.16,0,0,1,38.191,46.276Z" transform="translate(-7.776 -15.278)"/><path class="a" d="M33.835,53.114q3.219-2.865,3.224-8.367v-4.8h7.769l-28.6-8.117v8.117h0v5.075a14.154,14.154,0,0,0,.645,4.462l14.04,5.4A9.308,9.308,0,0,0,33.835,53.114Zm-9.927-6.838q-1.144-.988-1.144-3.64v-2.7h7.753v2.725a4.739,4.739,0,0,1-1.04,3.474,3.822,3.822,0,0,1-2.787,1.04A4.16,4.16,0,0,1,23.909,46.276Z" transform="translate(-7.789 -15.278)"/></svg>