<svg width="13" height="13" viewBox="0 0 13 13" fill="none" xmlns="http://www.w3.org/2000/svg">
<circle cx="6.5" cy="6.5" r="6.5" fill="#8976FF"/>
<g clip-path="url(#clip0_4008_7587)">
<path d="M8.09736 5.57745C8.26487 5.57745 8.43238 5.57745 8.60035 5.57745C8.70402 5.57745 8.80181 5.5966 8.88512 5.66317C9.02184 5.77326 9.03859 5.9299 8.92451 6.0613C8.50075 6.54907 8.07653 7.0364 7.65232 7.52373C7.06603 8.19685 6.47974 8.86997 5.89345 9.54353C5.687 9.7811 5.48146 10.0191 5.27456 10.2567C5.20076 10.3415 5.10931 10.3572 5.02601 10.3006C4.9839 10.2719 4.96489 10.2323 4.97802 10.1827C5.06766 9.8442 5.15775 9.50611 5.24785 9.16759C5.32979 8.85909 5.41129 8.5506 5.49368 8.2421C5.58061 7.9162 5.6698 7.59073 5.75536 7.26483C5.77574 7.18651 5.80154 7.10471 5.79656 7.02595C5.78841 6.89324 5.65848 6.78229 5.5136 6.76184C5.47467 6.75662 5.43483 6.75444 5.39544 6.75444C5.07355 6.75444 4.7512 6.75488 4.4293 6.75444C4.30254 6.75444 4.18075 6.73747 4.08749 6.64218C3.97748 6.52949 3.96978 6.39242 4.07255 6.27451C4.47503 5.80981 4.87932 5.34641 5.28271 4.88257C5.84093 4.24121 6.39915 3.59985 6.95783 2.95849C7.2177 2.66 7.47892 2.36238 7.73789 2.06346C7.78724 2.00646 7.84654 1.98949 7.91853 2.00603C8.00047 2.02474 8.03941 2.08087 8.01858 2.15919C7.94977 2.42243 7.87869 2.68481 7.80897 2.94762C7.73019 3.24393 7.65187 3.54024 7.57264 3.83656C7.4907 4.14331 7.4083 4.44963 7.32635 4.75639C7.2847 4.91216 7.24214 5.06793 7.20321 5.22457C7.17152 5.35076 7.26388 5.49609 7.41192 5.54656C7.46896 5.56614 7.5328 5.57223 7.59392 5.57571C7.67858 5.5805 7.76324 5.57702 7.8479 5.57702C7.93075 5.57702 8.0136 5.57702 8.09645 5.57702L8.09736 5.57745Z" fill="white"/>
</g>
<defs>
<clipPath id="clip0_4008_7587">
<rect width="5" height="8.33333" fill="white" transform="translate(4 2)"/>
</clipPath>
</defs>
</svg>
