<svg width="60" height="60" viewBox="0 0 60 60" fill="none" xmlns="http://www.w3.org/2000/svg">
<circle cx="30" cy="30" r="30" fill="#F1F3FF"/>
<mask id="path-2-inside-1_3840_3980" fill="white">
<path d="M28.6452 37.4516H22.7372C19.0341 37.4516 16 34.1986 16 30.2283C16 28.2432 16.7585 26.4348 17.9788 25.1215C19.199 23.8133 20.8856 23 22.7372 23H28.6452"/>
</mask>
<path d="M17.9788 25.1215L16.5162 23.7574L16.5136 23.7602L17.9788 25.1215ZM28.6452 35.4516H22.7372V39.4516H28.6452V35.4516ZM22.7372 35.4516C20.2676 35.4516 18 33.2276 18 30.2283H14C14 35.1697 17.8006 39.4516 22.7372 39.4516V35.4516ZM18 30.2283C18 28.7556 18.5624 27.4316 19.4439 26.4829L16.5136 23.7602C14.9546 25.4381 14 27.7308 14 30.2283H18ZM19.4413 26.4857C20.318 25.5457 21.4892 25 22.7372 25V21C20.282 21 18.0799 22.0808 16.5162 23.7574L19.4413 26.4857ZM22.7372 25H28.6452V21H22.7372V25Z" fill="#8976FF" mask="url(#path-2-inside-1_3840_3980)"/>
<mask id="path-4-inside-2_3840_3980" fill="white">
<path d="M31.3548 37.4516H37.2628C40.9659 37.4516 44 34.1986 44 30.2283C44 28.2432 43.2415 26.4348 42.0212 25.1215C40.801 23.8133 39.1144 23 37.2628 23H31.3548"/>
</mask>
<path d="M42.0212 25.1215L43.4838 23.7574L43.4864 23.7602L42.0212 25.1215ZM31.3548 35.4516H37.2628V39.4516H31.3548V35.4516ZM37.2628 35.4516C39.7324 35.4516 42 33.2276 42 30.2283H46C46 35.1697 42.1994 39.4516 37.2628 39.4516V35.4516ZM42 30.2283C42 28.7556 41.4376 27.4316 40.5561 26.4829L43.4864 23.7602C45.0454 25.4381 46 27.7308 46 30.2283H42ZM40.5587 26.4857C39.682 25.5457 38.5108 25 37.2628 25V21C39.718 21 41.9201 22.0808 43.4838 23.7574L40.5587 26.4857ZM37.2628 25H31.3548V21H37.2628V25Z" fill="#8976FF" mask="url(#path-4-inside-2_3840_3980)"/>
<path d="M25.9355 30.2258H34.9678" stroke="#8976FF" stroke-width="2" stroke-linecap="round"/>
</svg>
