<svg width="60" height="60" viewBox="0 0 60 60" fill="none" xmlns="http://www.w3.org/2000/svg">
<path d="M60 30C60 46.5685 46.5685 60 30 60C13.4315 60 0 46.5685 0 30C0 13.4315 13.4315 0 30 0C46.5685 0 60 13.4315 60 30Z" fill="#F1F3FF"/>
<g clip-path="url(#clip0_3838_3803)">
<path d="M38.128 36.5824H23.497C21.6173 36.5824 21.8616 34.3932 23.497 34.3932C25.1323 34.3932 24.9978 33.6664 24.9978 32.7407C24.9978 30.9882 24.2403 26.7882 28.8916 24.2657C28.8998 24.2612 28.9093 24.2555 28.9187 24.251C28.9187 22.9909 30.0302 22.4472 30.757 22.4143C30.7712 22.4131 30.7854 22.4131 30.7983 22.4131C30.8208 22.4131 30.8444 22.4131 30.8668 22.4143C31.5936 22.4472 32.7063 22.9909 32.7063 24.251C32.7157 24.2555 32.7252 24.2612 32.7334 24.2657C37.3847 26.7882 36.6272 30.9882 36.6272 32.7407C36.6272 33.6664 36.4927 34.3932 38.128 34.3932C39.7634 34.3932 40.0065 36.5824 38.128 36.5824Z" stroke="#8976FF" stroke-width="2" stroke-miterlimit="10"/>
<path fill-rule="evenodd" clip-rule="evenodd" d="M24.7493 19.5298C24.9504 20.0442 24.6964 20.6242 24.182 20.8253C21.6133 21.8295 20.292 23.7241 19.6 25.4128C19.2527 26.2604 19.069 27.0465 18.9728 27.6195C18.9248 27.905 18.8991 28.1348 18.8854 28.2891C18.8786 28.3661 18.8748 28.4241 18.8728 28.4605C18.8718 28.4787 18.8712 28.4915 18.8709 28.4986L18.8708 28.5031C18.8707 28.5037 18.8707 28.5042 18.8707 28.5048C18.8554 29.0557 18.397 29.4906 17.8457 29.4766C17.2936 29.4626 16.8574 29.0036 16.8714 28.4515L17.8711 28.4769C16.8714 28.4515 16.8714 28.4511 16.8714 28.4506L16.8715 28.4495L16.8716 28.4468L16.8718 28.4398L16.8725 28.4188C16.8732 28.4018 16.8743 28.3789 16.8758 28.3502C16.879 28.2929 16.8843 28.2129 16.8932 28.1127C16.9109 27.9125 16.9429 27.6307 17.0004 27.2883C17.1151 26.6054 17.3332 25.67 17.7493 24.6545C18.5841 22.6173 20.2362 20.2204 23.4538 18.9625C23.9682 18.7615 24.5482 19.0154 24.7493 19.5298Z" fill="#8976FF"/>
<path fill-rule="evenodd" clip-rule="evenodd" d="M37.0266 19.5298C36.8255 20.0442 37.0795 20.6242 37.5939 20.8253C40.1626 21.8295 41.4839 23.7241 42.1759 25.4128C42.5232 26.2604 42.7069 27.0465 42.8031 27.6195C42.8511 27.905 42.8768 28.1348 42.8905 28.2891C42.8973 28.3661 42.9011 28.4241 42.9031 28.4605C42.9041 28.4787 42.9047 28.4915 42.9049 28.4986L42.9051 28.5031C42.9051 28.5037 42.9052 28.5042 42.9052 28.5048C42.9205 29.0557 43.3789 29.4906 43.9302 29.4766C44.4823 29.4626 44.9185 29.0036 44.9045 28.4515L43.9048 28.4769C44.9045 28.4515 44.9044 28.4511 44.9044 28.4506L44.9044 28.4495L44.9043 28.4468L44.9041 28.4398L44.9033 28.4188C44.9027 28.4018 44.9016 28.3789 44.9 28.3502C44.8969 28.2929 44.8916 28.2129 44.8827 28.1127C44.865 27.9125 44.833 27.6307 44.7755 27.2883C44.6608 26.6054 44.4427 25.67 44.0266 24.6545C43.1918 22.6173 41.5397 20.2204 38.3221 18.9625C37.8077 18.7615 37.2277 19.0154 37.0266 19.5298Z" fill="#8976FF"/>
<path fill-rule="evenodd" clip-rule="evenodd" d="M26.7069 22.2358C26.908 22.7501 26.6542 23.3301 26.1398 23.5313C24.4388 24.1966 23.5635 25.4476 23.1005 26.5774C22.8677 27.1454 22.7444 27.6732 22.6798 28.0578C22.6477 28.2491 22.6306 28.4021 22.6216 28.5032C22.6172 28.5536 22.6148 28.5909 22.6135 28.6133L22.6125 28.6353L22.6124 28.6351L22.6125 28.6344C22.598 29.1861 22.1393 29.6219 21.5875 29.6079C21.0354 29.5939 20.5991 29.135 20.6131 28.5829L21.6128 28.6082C20.6131 28.5829 20.6131 28.5824 20.6131 28.5819L20.6132 28.5809L20.6132 28.5785L20.6134 28.5725L20.614 28.5556C20.6146 28.5423 20.6154 28.5246 20.6166 28.503C20.619 28.4598 20.6229 28.4005 20.6294 28.3269C20.6424 28.1799 20.6657 27.9748 20.7074 27.7266C20.7904 27.2322 20.9483 26.555 21.2499 25.819C21.8556 24.3407 23.0617 22.5876 25.4113 21.6687C25.9257 21.4675 26.5057 21.7214 26.7069 22.2358ZM22.6125 28.6353L22.6124 28.6363L22.6124 28.6375L22.6124 28.6376C22.6124 28.6376 22.6124 28.6368 22.6125 28.6353Z" fill="#8976FF"/>
<path fill-rule="evenodd" clip-rule="evenodd" d="M35.069 22.2358C34.8678 22.7501 35.1217 23.3301 35.6361 23.5313C37.3371 24.1966 38.2124 25.4476 38.6754 26.5774C38.9081 27.1454 39.0315 27.6732 39.0961 28.0578C39.1282 28.2491 39.1453 28.4021 39.1542 28.5032C39.1587 28.5536 39.1611 28.5909 39.1624 28.6133L39.1634 28.6353L39.1634 28.6351L39.1634 28.6344C39.1779 29.1861 39.6366 29.6219 40.1884 29.6079C40.7405 29.5939 41.1767 29.135 41.1628 28.5829L40.1631 28.6082C41.1628 28.5829 41.1627 28.5824 41.1627 28.5819L41.1627 28.5809L41.1626 28.5785L41.1625 28.5725L41.1618 28.5556C41.1613 28.5423 41.1605 28.5246 41.1593 28.503C41.1569 28.4598 41.153 28.4005 41.1465 28.3269C41.1335 28.1799 41.1101 27.9748 41.0685 27.7266C40.9854 27.2322 40.8276 26.555 40.526 25.819C39.9203 24.3407 38.7142 22.5876 36.3645 21.6687C35.8502 21.4675 35.2702 21.7214 35.069 22.2358ZM39.1634 28.6353L39.1635 28.6363L39.1635 28.6375L39.1635 28.6376C39.1635 28.6376 39.1635 28.6368 39.1634 28.6353Z" fill="#8976FF"/>
<path d="M33.4409 36.5833C33.4409 37.9753 33.3063 40.0235 30.8261 40.0235C28.3459 40.0235 28.2114 37.9753 28.2114 36.5833H33.4409Z" stroke="#8976FF" stroke-width="2" stroke-miterlimit="10"/>
</g>
<defs>
<clipPath id="clip0_3838_3803">
<rect width="29" height="23" fill="white" transform="translate(16 18)"/>
</clipPath>
</defs>
</svg>
