<svg width="292" height="334" viewBox="0 0 292 334" fill="none" xmlns="http://www.w3.org/2000/svg">
<path d="M105.777 83.9277C101.132 85.2624 96.4284 92.1862 95.513 97.7662C94.5977 103.346 95.9614 116.541 108.099 122.709M108.941 143.529C99.0062 141.049 77.7293 148.634 74.9358 165.191C73.5414 173.456 76.8596 184.822 96.7281 189.782" stroke="#4B3E9B" stroke-width="2.90293" stroke-linecap="round"/>
<path d="M224.885 95.4212C217.588 124.652 198.129 136.136 149.51 127.749C107.227 120.456 96.8823 94.518 104.179 65.2877C111.477 36.0574 144.413 19.1072 177.745 27.4283C211.077 35.7495 232.182 66.1909 224.885 95.4212Z" fill="#FCFCFC"/>
<rect x="100.916" y="59.2734" width="9.46676" height="17.8058" rx="1.3931" transform="rotate(14.0171 100.916 59.2734)" fill="#4B3E9B"/>
<line x1="235.788" y1="52.0092" x2="225.567" y2="92.952" stroke="#4B3E9B" stroke-width="0.696548" stroke-linecap="round"/>
<rect x="222.801" y="82.749" width="9.46676" height="17.8058" rx="1.3931" transform="rotate(14.0171 222.801 82.749)" fill="#4B3E9B"/>
<path d="M74.7475 112.832C75.8944 124.452 81.6359 127.191 94.9684 127.538L117.974 124.749L115.969 132.78C110.761 133.998 97.5804 133.267 91.6411 132.749C85.3127 132.165 78.3753 129.49 76.1119 127.627C71.2125 123.595 70.1319 118.852 69.2797 114.084C68.2021 115.048 64.7544 114.715 63.939 114.242C62.2101 113.239 61.0078 111.605 60.2732 110.344C58.4827 107.273 58.7761 107.217 57.6387 105.379C57.6387 105.379 54.9297 102.052 54.091 100.269C53.2522 98.486 56.1787 96.4622 57.7732 98.4599C59.3676 100.458 61.7813 102.81 62.8926 103.668L59.269 98.8489C58.5245 97.6071 57.2565 96.1057 56.6848 94.4349C56.1581 92.8952 56.0535 90.3278 57.8509 89.7641C61.2396 88.7014 62.4052 93.088 63.1757 94.6471L65.9784 100.508C66.072 100.133 62.1217 90.2423 63.2511 87.3772C64.5109 84.1813 67.5469 85.7641 67.9678 86.0691C70.4633 87.8776 69.3163 97.0017 70.3699 100.005C70.4978 96.4598 71.1489 92.1752 72.9198 89.7909C74.9384 87.8907 76.7749 89.3953 77.1248 90.8407C78.6763 93.8451 75.7172 98.5559 73.936 101.535C78.7968 94.0333 80.3884 94.4081 82.0594 95.4244C84.6368 96.992 80.6134 102.959 78.0994 104.718C78.5698 109.815 76.2611 112.587 74.7475 112.832Z" fill="#4B3E9B"/>
<path d="M238.858 127.642C236.191 139.101 226.709 157.4 213.343 156L199.412 151.949L196.23 157.354C201.274 159.253 214.934 161.605 220.936 161.866C227.334 162.111 232.664 150.503 237.382 144.148C241.193 139.014 242.694 134.538 244.169 129.885C245.12 130.99 248.608 131.108 249.484 130.742C251.343 129.967 252.758 128.492 253.657 127.329C255.848 124.495 255.562 124.4 256.939 122.713C256.939 122.713 260.082 119.744 261.153 118.073C262.225 116.401 259.566 113.996 257.711 115.783C255.857 117.57 253.137 119.604 251.915 120.315L256.166 115.976C257.072 114.833 258.536 113.499 259.326 111.904C260.054 110.435 260.494 107.884 258.773 107.085C255.526 105.58 253.787 109.809 252.813 111.266L249.246 116.755C249.201 116.368 254.443 107.004 253.69 103.993C252.85 100.635 249.609 101.819 249.149 102.069C246.419 103.549 246.37 112.814 244.924 115.677C245.261 112.118 245.171 107.752 243.714 105.138C241.946 102.976 239.915 104.238 239.376 105.636C237.432 108.435 239.903 114.458 241.293 117.668C237.419 109.536 233.353 108.982 231.857 110.175C228.668 112.716 233.571 117.831 235.852 119.918C234.715 124.949 237.378 127.199 238.858 127.642Z" fill="#4B3E9B"/>
<path d="M29.4499 225.608C52.4106 231.34 79.2221 210.978 89.1146 200.551C91.7559 207.379 97.4925 217.866 87.4407 225.787C77.389 233.707 54.787 235.298 45.0884 233.718C37.0128 232.374 35.39 232.979 20.2965 226.898C13.4667 222.249 14.2088 222.084 15.5943 222.149L29.4499 225.608Z" fill="#89570E"/>
<path d="M120.726 87.5451L110.677 87.8872C114.888 87.7438 119.186 89.2072 120.808 89.9568L120.726 87.5451Z" fill="#89570E"/>
<path d="M122.901 92.3L112.852 92.6421C117.063 92.4987 121.361 93.9621 122.983 94.7117L122.901 92.3Z" fill="#89570E"/>
<path d="M203.391 99.2184L213.032 102.072C208.992 100.876 204.464 101.214 202.706 101.532L203.391 99.2184Z" fill="#89570E"/>
<path d="M200.094 103.276L209.736 106.129C205.696 104.933 201.168 105.271 199.41 105.59L200.094 103.276Z" fill="#89570E"/>
<path d="M120.413 72.6217C118.546 77.2392 121.176 80.4143 122.484 81.755C124.035 77.7382 127.668 72.0003 129.29 69.6334C124.884 67.5541 121.504 69.9237 120.413 72.6217Z" fill="#89570E"/>
<path d="M204.052 75.953C205.44 80.3781 202.188 83.5191 200.867 84.6962C199.5 80.9874 197.167 75.869 195.108 72.8499C199.383 71.1982 203.11 72.9474 204.052 75.953Z" fill="#89570E"/>
<path d="M166.188 51.793C130.144 50.3393 116.63 87.13 118.799 100.863C122.093 121.713 154.476 124.493 166.605 123.824C193.222 124.077 203.823 114.611 204.333 100.36C205.463 68.7845 180.947 52.3882 166.188 51.793Z" fill="#89570E"/>
<circle cx="140.658" cy="84.5881" r="6.17519" transform="rotate(6.16009 140.658 84.5881)" fill="black"/>
<circle cx="142.514" cy="83.0954" r="1.68414" transform="rotate(6.16009 142.514 83.0954)" fill="#E0E0E0"/>
<circle cx="182.143" cy="87.3715" r="6.17519" transform="rotate(6.16009 182.143 87.3715)" fill="black"/>
<circle cx="180.647" cy="85.5173" r="1.68414" transform="rotate(6.16009 180.647 85.5173)" fill="#E0E0E0"/>
<path fill-rule="evenodd" clip-rule="evenodd" d="M159.536 95.379C158.831 94.5029 156.345 92.1408 153.2 91.3072C152.397 90.7971 152.668 89.0442 154.653 87.6528C156.689 86.2256 162.463 84.6137 167.954 88.6649C169.589 89.8705 169.833 92.312 168.409 92.9488C166.741 93.1452 163.162 93.9634 162.187 95.6651C161.601 98.0486 162.386 102.716 170.221 102.32C170.222 102.322 170.222 102.324 170.222 102.326C173.771 101.55 177.403 99.7766 177.524 98.6601C177.652 97.474 178.834 96.972 179.426 97.3832C180.018 97.7944 180.05 98.1626 179.933 98.5673C179.506 100.054 172.661 102.674 170.356 103.508C170.512 106.884 168.919 112.069 161.342 112.654C157.717 112.779 150.275 111.014 149.416 102.974C149.411 102.971 149.406 102.968 149.401 102.965C149.114 102.672 148.499 102.211 147.735 101.638L147.735 101.638C145.349 99.8485 141.512 96.9701 141.669 94.7199C141.699 94.229 142.014 93.4867 142.851 93.5771C143.409 93.6373 143.632 94.0848 144.143 95.3398L144.168 95.4018C144.709 96.7325 146.435 100.98 151.858 101.678C153.063 101.808 154.401 101.936 155.533 101.645C155.279 101.763 154.998 101.891 154.699 102.02C155.196 101.853 155.683 101.659 156.144 101.434C155.949 101.521 155.745 101.59 155.533 101.645C155.905 101.47 156.219 101.316 156.443 101.206L156.443 101.206C156.864 100.999 156.973 100.945 156.579 101.199C156.538 101.226 156.497 101.251 156.454 101.276C158.6 100.134 160.114 98.2798 159.536 95.379Z" fill="black"/>
<path d="M153.2 91.3072L153.111 91.4475L153.133 91.4613L153.157 91.4678L153.2 91.3072ZM159.536 95.379L159.699 95.3465L159.691 95.3065L159.666 95.2748L159.536 95.379ZM154.653 87.6528L154.558 87.5167L154.558 87.5167L154.653 87.6528ZM167.954 88.6649L168.053 88.5312L168.053 88.5312L167.954 88.6649ZM168.409 92.9488L168.429 93.1138L168.454 93.1108L168.477 93.1004L168.409 92.9488ZM162.187 95.6651L162.043 95.5826L162.032 95.6028L162.026 95.6254L162.187 95.6651ZM170.221 102.32L170.384 102.289L170.358 102.147L170.213 102.154L170.221 102.32ZM170.222 102.326L170.059 102.357L170.091 102.525L170.258 102.488L170.222 102.326ZM177.524 98.6601L177.358 98.6422L177.358 98.6422L177.524 98.6601ZM179.426 97.3832L179.521 97.2467L179.521 97.2467L179.426 97.3832ZM179.933 98.5673L179.774 98.5214L179.774 98.5214L179.933 98.5673ZM170.356 103.508L170.3 103.351L170.185 103.393L170.191 103.515L170.356 103.508ZM161.342 112.654L161.348 112.82L161.355 112.82L161.342 112.654ZM149.416 102.974L149.581 102.956L149.572 102.87L149.497 102.829L149.416 102.974ZM149.401 102.965L149.283 103.082L149.299 103.098L149.319 103.11L149.401 102.965ZM147.735 101.638L147.632 101.768L147.636 101.771L147.735 101.638ZM147.735 101.638L147.839 101.508L147.835 101.505L147.735 101.638ZM141.669 94.7199L141.835 94.7315L141.835 94.7299L141.669 94.7199ZM144.143 95.3398L144.297 95.2773L144.297 95.2772L144.143 95.3398ZM144.168 95.4018L144.322 95.3393L144.322 95.3392L144.168 95.4018ZM151.858 101.678L151.837 101.843L151.84 101.843L151.858 101.678ZM154.699 102.02L154.633 101.868L154.752 102.178L154.699 102.02ZM156.144 101.434L156.217 101.583L156.077 101.282L156.144 101.434ZM156.443 101.206L156.375 101.054L156.37 101.057L156.443 101.206ZM156.443 101.206L156.511 101.358L156.517 101.355L156.443 101.206ZM156.579 101.199L156.489 101.06L156.489 101.06L156.579 101.199ZM156.454 101.276L156.371 101.132L156.532 101.422L156.454 101.276ZM153.157 91.4678C156.257 92.2893 158.715 94.6241 159.407 95.4832L159.666 95.2748C158.947 94.3818 156.433 91.9922 153.243 91.1467L153.157 91.4678ZM154.558 87.5167C153.543 88.2281 152.952 89.0417 152.723 89.76C152.496 90.4696 152.617 91.1338 153.111 91.4475L153.289 91.167C152.98 90.9705 152.834 90.5031 153.039 89.8609C153.241 89.2274 153.778 88.4688 154.748 87.7888L154.558 87.5167ZM168.053 88.5312C162.495 84.4308 156.642 86.0557 154.558 87.5167L154.748 87.7888C156.736 86.3956 162.431 84.7966 167.856 88.7985L168.053 88.5312ZM168.477 93.1004C169.278 92.7423 169.586 91.8859 169.494 91.003C169.402 90.1172 168.909 89.1625 168.053 88.5312L167.856 88.7985C168.634 89.3729 169.081 90.2418 169.163 91.0373C169.246 91.8358 168.965 92.5185 168.341 92.7971L168.477 93.1004ZM162.332 95.7476C162.557 95.354 162.939 95.0014 163.426 94.6903C163.911 94.38 164.489 94.117 165.095 93.8987C166.305 93.4621 167.605 93.2108 168.429 93.1138L168.39 92.7838C167.546 92.8832 166.221 93.1392 164.982 93.5862C164.362 93.8097 163.759 94.0826 163.246 94.4105C162.735 94.7375 162.305 95.1254 162.043 95.5826L162.332 95.7476ZM170.213 102.154C166.327 102.351 164.235 101.29 163.177 99.9329C162.115 98.5692 162.064 96.8632 162.349 95.7048L162.026 95.6254C161.725 96.8505 161.773 98.6701 162.915 100.137C164.063 101.61 166.281 102.686 170.23 102.486L170.213 102.154ZM170.386 102.295C170.385 102.293 170.385 102.291 170.384 102.289L170.058 102.351C170.058 102.353 170.059 102.355 170.059 102.357L170.386 102.295ZM170.258 102.488C172.045 102.098 173.853 101.456 175.233 100.77C175.922 100.427 176.51 100.07 176.936 99.7238C177.149 99.5508 177.325 99.3773 177.454 99.2061C177.581 99.036 177.669 98.8582 177.689 98.6779L177.358 98.6422C177.348 98.7411 177.296 98.8629 177.188 99.0066C177.081 99.1491 176.926 99.3034 176.726 99.4659C176.326 99.7907 175.762 100.135 175.085 100.472C173.731 101.146 171.949 101.779 170.187 102.164L170.258 102.488ZM177.689 98.6779C177.747 98.14 178.042 97.7637 178.384 97.5666C178.733 97.365 179.104 97.3621 179.331 97.5197L179.521 97.2467C179.155 96.9931 178.639 97.0356 178.218 97.2788C177.788 97.5264 177.428 97.9941 177.358 98.6422L177.689 98.6779ZM179.331 97.5197C179.611 97.7137 179.737 97.8831 179.788 98.0322C179.84 98.1802 179.827 98.3347 179.774 98.5214L180.093 98.6131C180.156 98.3951 180.186 98.1632 180.102 97.9232C180.019 97.6842 179.833 97.4639 179.521 97.2467L179.331 97.5197ZM179.774 98.5214C179.733 98.6628 179.607 98.8409 179.381 99.0505C179.159 99.2565 178.856 99.478 178.492 99.7091C177.763 100.171 176.803 100.66 175.78 101.132C173.733 102.074 171.451 102.935 170.3 103.351L170.413 103.664C171.567 103.247 173.86 102.381 175.918 101.434C176.947 100.96 177.923 100.463 178.67 99.9897C179.043 99.753 179.364 99.5193 179.607 99.2941C179.846 99.0726 180.027 98.8435 180.093 98.6131L179.774 98.5214ZM161.355 112.82C165.183 112.524 167.523 111.063 168.882 109.227C170.237 107.396 170.601 105.215 170.522 103.5L170.191 103.515C170.267 105.177 169.912 107.277 168.615 109.029C167.322 110.776 165.077 112.199 161.329 112.489L161.355 112.82ZM149.251 102.991C149.687 107.069 151.796 109.565 154.257 111.019C156.711 112.469 159.511 112.883 161.348 112.82L161.336 112.488C159.548 112.55 156.814 112.144 154.426 110.733C152.045 109.326 150.005 106.919 149.581 102.956L149.251 102.991ZM149.319 103.11C149.324 103.113 149.33 103.116 149.336 103.119L149.497 102.829C149.493 102.826 149.488 102.824 149.484 102.821L149.319 103.11ZM147.636 101.771C148.406 102.348 149.006 102.8 149.283 103.082L149.52 102.849C149.221 102.544 148.592 102.073 147.835 101.505L147.636 101.771ZM147.632 101.768L147.632 101.768L147.839 101.508L147.839 101.508L147.632 101.768ZM141.503 94.7083C141.461 95.3195 141.69 95.9564 142.073 96.5851C142.458 97.2153 143.008 97.8527 143.632 98.4698C144.879 99.7038 146.444 100.877 147.636 101.771L147.835 101.505C146.64 100.609 145.094 99.4488 143.865 98.2336C143.251 97.6261 142.722 97.0101 142.357 96.4119C141.991 95.8121 141.799 95.2455 141.835 94.7315L141.503 94.7083ZM142.869 93.4119C142.39 93.3602 142.047 93.5501 141.827 93.8272C141.614 94.0959 141.52 94.4395 141.503 94.71L141.835 94.7299C141.848 94.5094 141.926 94.2365 142.087 94.0339C142.242 93.8396 142.475 93.7036 142.833 93.7422L142.869 93.4119ZM144.297 95.2772C144.043 94.6547 143.853 94.2105 143.652 93.9165C143.549 93.7665 143.438 93.6477 143.307 93.5623C143.175 93.4759 143.031 93.4293 142.869 93.4119L142.833 93.7422C142.951 93.7549 143.044 93.7868 143.126 93.8406C143.21 93.8952 143.291 93.978 143.378 94.1043C143.555 94.3628 143.732 94.77 143.989 95.4025L144.297 95.2772ZM144.322 95.3392L144.297 95.2773L143.989 95.4024L144.014 95.4644L144.322 95.3392ZM151.879 101.513C146.555 100.828 144.861 96.665 144.322 95.3393L144.014 95.4643C144.557 96.8001 146.315 101.132 151.837 101.843L151.879 101.513ZM155.491 101.484C154.394 101.767 153.086 101.643 151.876 101.513L151.84 101.843C153.039 101.972 154.408 102.106 155.574 101.805L155.491 101.484ZM154.765 102.173C155.066 102.042 155.348 101.914 155.603 101.795L155.462 101.494C155.21 101.612 154.93 101.739 154.633 101.868L154.765 102.173ZM156.071 101.284C155.617 101.506 155.138 101.698 154.646 101.863L154.752 102.178C155.255 102.009 155.748 101.812 156.217 101.583L156.071 101.284ZM155.574 101.805C155.794 101.749 156.007 101.676 156.212 101.585L156.077 101.282C155.891 101.365 155.695 101.431 155.491 101.484L155.574 101.805ZM156.37 101.057C156.145 101.167 155.833 101.321 155.462 101.494L155.603 101.795C155.977 101.62 156.292 101.465 156.517 101.355L156.37 101.057ZM156.375 101.054L156.375 101.054L156.511 101.358L156.511 101.357L156.375 101.054ZM156.67 101.339C156.768 101.276 156.838 101.229 156.88 101.199C156.897 101.187 156.922 101.169 156.94 101.15C156.944 101.146 156.957 101.133 156.968 101.113C156.971 101.108 157.021 101.023 156.96 100.935C156.932 100.894 156.893 100.877 156.87 100.87C156.847 100.863 156.828 100.863 156.819 100.863C156.799 100.863 156.783 100.867 156.777 100.868C156.753 100.874 156.726 100.886 156.708 100.894C156.686 100.904 156.658 100.917 156.626 100.932C156.561 100.963 156.475 101.005 156.37 101.057L156.517 101.355C156.622 101.303 156.707 101.261 156.769 101.232C156.8 101.217 156.824 101.206 156.842 101.198C156.864 101.188 156.865 101.189 156.856 101.191C156.854 101.192 156.842 101.195 156.824 101.195C156.815 101.195 156.797 101.195 156.775 101.188C156.753 101.182 156.715 101.165 156.687 101.124C156.657 101.081 156.655 101.035 156.659 101.005C156.664 100.978 156.673 100.959 156.678 100.95C156.688 100.932 156.699 100.922 156.701 100.92C156.708 100.912 156.709 100.913 156.687 100.929C156.652 100.954 156.588 100.996 156.489 101.06L156.67 101.339ZM156.538 101.419C156.582 101.394 156.626 101.367 156.67 101.339L156.489 101.06C156.451 101.085 156.411 101.109 156.371 101.132L156.538 101.419ZM159.373 95.4114C159.655 96.8248 159.426 97.9715 158.874 98.9024C158.32 99.8371 157.432 100.568 156.376 101.129L156.532 101.422C157.623 100.843 158.565 100.075 159.16 99.0719C159.756 98.065 159.995 96.8339 159.699 95.3465L159.373 95.4114Z" fill="black"/>
<ellipse cx="151.567" cy="71.4049" rx="0.804367" ry="1.40764" transform="rotate(43.814 151.567 71.4049)" fill="black"/>
<ellipse cx="172.949" cy="73.0908" rx="0.804367" ry="1.40764" transform="rotate(-30.8763 172.949 73.0908)" fill="black"/>
<path d="M183.809 121.607C166.202 127.702 134.92 120.106 130.907 116.186C124.884 116.753 120.358 117.631 114.749 118.862C107.826 120.382 107.655 120.404 103.601 121.711C99.547 123.019 98.4165 123.234 89.6072 126.004C80.7978 128.775 74.9826 112.241 74.9826 112.241L65.187 114.371C63.2747 114.919 70.5057 127.531 70.5057 127.531C70.5057 127.531 73.0416 133.3 76.9606 136.846C80.8796 140.392 87.6245 142.573 95.8897 144.636L106.416 147.264C103.065 152.723 94.1435 174.145 90.807 181.9C110.71 198.796 170.042 210.945 184.309 208.211C186.644 197.373 185.912 172.908 185.128 158.796C185.128 158.796 198.131 165.107 207.41 168.418C216.596 171.695 220.761 169.066 225.508 166.072L225.653 165.98C230.461 162.947 244.059 136.113 245.585 130.709L236.558 126.436C236.558 126.436 223.212 157.456 212.511 152.297C201.811 147.137 198.387 142.181 197.051 140.568C191.513 133.884 184.772 124.829 183.809 121.607Z" fill="#FCFCFC"/>
<path d="M184.43 207.873L92.4971 178.104C76.6054 209.183 82.5695 246.798 84.9408 261.753L84.9465 261.789L99.2603 266.3C114.789 233.175 124.43 217.684 132.11 220.131C144.505 224.081 131.966 256.932 130.362 273.377L144.699 278.02C154.747 267.565 177.407 246.895 184.43 207.873Z" fill="#FCFCFC"/>
<path d="M80.5445 269.963L84.8712 261.702L99.1849 266.057L97.5146 282.862C96.9208 287.619 96.2721 288.859 94.8405 291.212C91.6785 296.409 84.7242 296.144 80.3547 293.696C76.7439 291.673 76.0441 288.16 76.3012 283.203C76.5583 278.246 79.2372 272.311 80.5445 269.963Z" fill="#4B3E9B"/>
<path d="M142.95 286.528L144.693 277.973L130.383 273.322L122.499 288.146C120.491 292.305 119.787 294.385 119.722 296.478C119.507 303.347 126.457 305.545 130.275 305.457C132.616 305.598 137.074 303.593 139.457 299.448C141.841 295.302 142.148 290.763 142.95 286.528Z" fill="#4B3E9B"/>
<rect x="128.604" y="138.959" width="43.5421" height="32.2717" rx="7.8379" transform="rotate(10.9322 128.604 138.959)" fill="#C4C4C4" stroke="#4B3E9B" stroke-width="1.74175"/>
<path d="M162.782 124.357L162.765 124.356L162.748 124.355C147.521 123.797 133.246 120.057 123.396 112.742C113.603 105.47 108.129 94.634 110.464 79.6233C114.291 55.0129 139.271 40.8398 168.171 43.035C197.048 45.2285 218.689 65.3525 216.999 87.6096C216.045 100.158 209.703 109.861 200.016 116.178C190.309 122.508 177.209 125.453 162.782 124.357Z" fill="white" fill-opacity="0.3" stroke="#4B3E9B" stroke-width="1.74175"/>
<circle cx="147.787" cy="64.3662" r="1.59091" transform="rotate(-3.03752 147.787 64.3662)" fill="#E0E0E0"/>
<path d="M152.086 62.5541C153.296 61.4377 157.253 59.3604 163.4 59.9827" stroke="#E0E0E0" stroke-width="2.08964" stroke-linecap="round" stroke-linejoin="round"/>
<path d="M120.543 118.677C131.433 124.989 159.371 135.505 188.418 130.818" stroke="#4B3E9B" stroke-width="1.74175" stroke-linecap="round"/>
<path d="M85.9146 204.109C93.6263 205.657 110.525 212.064 116.424 225.31" stroke="#4B3E9B" stroke-width="1.74175" stroke-linecap="round"/>
<path d="M142.398 233.1C149.64 230.275 166.679 225.769 176.897 230.342" stroke="#4B3E9B" stroke-width="1.74175" stroke-linecap="round"/>
<path d="M75.795 116.492C73.8311 117.9 70.0356 120.123 67.2157 118.736" stroke="#4B3E9B" stroke-width="1.74175" stroke-linecap="round"/>
<path d="M116.317 120.024C116.995 127.04 114.418 140.705 107.184 146.321M191.58 134.754C188.618 137.769 184.605 145.437 186.481 159.159" stroke="#4B3E9B" stroke-width="1.74175" stroke-linecap="round"/>
<path d="M236.386 131.016C237.218 132.541 239.889 135.461 243.912 134.94" stroke="#4B3E9B" stroke-width="1.74175" stroke-linecap="round"/>
<ellipse cx="235.515" cy="51.5192" rx="2.07003" ry="1.91725" transform="rotate(-15.9829 235.515 51.5192)" fill="#4B3E9B"/>
</svg>
