<svg width="20" height="21" viewBox="0 0 20 21" fill="none" xmlns="http://www.w3.org/2000/svg">
<g clip-path="url(#clip0_1258_25593)">
<path d="M18.0983 3.27583C18.5949 2.95864 19.0809 2.64908 19.7608 2.21599V8.27002C18.127 7.41757 16.4191 6.52548 14.6082 5.58154L16.0845 4.58423C13.4393 1.66396 8.41547 1.47334 5.22522 4.12065C2.67544 6.23727 1.58376 9.68821 2.57248 12.8464C3.62782 16.218 5.95351 18.2172 9.41781 18.7144C12.7807 19.1962 15.974 17.5005 17.6153 14.5421C17.6773 14.4308 17.7364 14.3195 17.797 14.2081C18.1906 13.4762 18.7524 13.252 19.4049 13.5677C20.0272 13.8681 20.1756 14.4201 19.782 15.1826C18.2784 18.0968 15.9634 20.0212 12.7686 20.738C6.97705 22.0357 1.42326 18.4109 0.21954 12.607C-0.952388 6.95399 2.6815 1.40472 8.40184 0.230515C11.8132 -0.469434 14.8399 0.448582 17.4578 2.74972C17.6289 2.89917 17.7909 3.05928 17.959 3.21178C17.9771 3.22855 18.0044 3.23313 18.0983 3.27583Z" fill="black"/>
</g>
<defs>
<clipPath id="clip0_1258_25593">
<rect width="20" height="21" fill="black"/>
</clipPath>
</defs>
</svg>
