<svg width="17" height="17" viewBox="0 0 17 17" fill="none" xmlns="http://www.w3.org/2000/svg">
<path d="M6.0091 2.47806L10.984 2.48584L14.4962 6.00911L14.4885 10.984L10.9652 14.4963L5.99032 14.4885L2.47805 10.9652L2.48583 5.99033L6.0091 2.47806Z" fill="#EB5757"/>
<path d="M8.65058 10.5867C8.29243 10.5867 8.00201 10.8771 8.00201 11.2353C8.00201 11.5934 8.29243 11.8838 8.65058 11.8838C9.00874 11.8838 9.29916 11.5934 9.29916 11.2353C9.29916 10.8771 9.00874 10.5867 8.65058 10.5867ZM8.64916 5.38898C8.31614 5.38909 8.04176 5.6399 8.00435 5.96289L8 6.03863L8.00117 9.28625L8.00559 9.36204C8.04319 9.68499 8.31776 9.9356 8.65084 9.93547C8.98386 9.93534 9.25824 9.68454 9.29565 9.36152L9.3 9.28579L9.29883 6.03816L9.29442 5.96242C9.25681 5.63946 8.98224 5.38886 8.64916 5.38898Z" fill="white"/>
</svg>
