<svg width="13" height="13" viewBox="0 0 13 13" fill="none" xmlns="http://www.w3.org/2000/svg">
<path d="M5.7914 0.183258C6.46673 -0.190782 7.30975 0.0265585 7.72398 0.664025L7.77776 0.753543L12.817 9.85157C12.9371 10.0682 13 10.3119 13 10.5596C13 11.333 12.3992 11.9661 11.6388 12.0176L11.5387 12.021H1.46159C1.21394 12.021 0.970346 11.958 0.753694 11.8381C0.078343 11.4641 -0.184721 10.6341 0.135828 9.94477L0.183175 9.8517L5.22103 0.753692C5.35385 0.513802 5.55149 0.316127 5.7914 0.183258ZM6.50057 8.76909C6.14238 8.76909 5.852 9.05947 5.852 9.41766C5.852 9.77591 6.14238 10.0663 6.50057 10.0663C6.85882 10.0663 7.1492 9.77591 7.1492 9.41766C7.1492 9.05947 6.85882 8.76909 6.50057 8.76909ZM6.4992 3.57086C6.16609 3.57098 5.89168 3.8218 5.85427 4.14483L5.84992 4.22057L5.85109 7.46852L5.85551 7.54425C5.89318 7.86723 6.16778 8.11786 6.50083 8.11773C6.83388 8.11767 7.10835 7.86684 7.14576 7.54379L7.15004 7.46806L7.14887 4.2201L7.14452 4.14436C7.10685 3.82136 6.83225 3.57074 6.4992 3.57086Z" fill="#EBC157"/>
</svg>
