<svg width="227" height="506" viewBox="0 0 227 506" fill="none" xmlns="http://www.w3.org/2000/svg">
<g filter="url(#filter0_d)">
<rect x="0.514404" y="17.7998" width="226" height="17.2639" fill="white"/>
</g>
<g filter="url(#filter1_d)">
<rect x="0.514404" y="448.612" width="226" height="32.9583" fill="white"/>
</g>
<g filter="url(#filter2_d)">
<rect x="0.514404" y="0.536133" width="226" height="17.2639" fill="white"/>
</g>
<g filter="url(#filter3_d)">
<rect x="0.514404" y="481.571" width="226" height="23.5417" fill="white"/>
</g>
<g filter="url(#filter4_d)">
<rect x="43.6718" y="46.0498" width="131.833" height="24.3264" rx="12.1632" fill="white"/>
</g>
<path d="M72.038 59.1625C72.038 59.7935 71.8936 60.3018 71.605 60.6875C71.3163 61.0732 70.9255 61.2661 70.4325 61.2661C69.9293 61.2661 69.5333 61.1064 69.2447 60.7871V62.7834H68.5358V57.0436H69.1834L69.2179 57.5034C69.5065 57.1458 69.9076 56.967 70.421 56.967C70.9191 56.967 71.3125 57.1547 71.6011 57.5302C71.8923 57.9057 72.038 58.4281 72.038 59.0974V59.1625ZM71.3291 59.082C71.3291 58.6146 71.2295 58.2455 71.0302 57.9747C70.831 57.7039 70.5577 57.5685 70.2103 57.5685C69.7811 57.5685 69.4592 57.7588 69.2447 58.1395V60.1204C69.4567 60.4985 69.7811 60.6875 70.2179 60.6875C70.5577 60.6875 70.8271 60.5534 71.0264 60.2852C71.2282 60.0144 71.3291 59.6134 71.3291 59.082ZM76.6129 60.2124L77.4099 57.0436H78.1188L76.9118 61.1895H76.3371L75.3293 58.0475L74.3484 61.1895H73.7737L72.5705 57.0436H73.2756L74.0917 60.1472L75.0573 57.0436H75.6282L76.6129 60.2124ZM81.4025 61.1895C81.3616 61.1077 81.3284 60.9621 81.3029 60.7526C80.9734 61.0949 80.58 61.2661 80.1227 61.2661C79.714 61.2661 79.3781 61.1511 79.115 60.9212C78.8545 60.6888 78.7242 60.395 78.7242 60.04C78.7242 59.6083 78.8877 59.2736 79.2146 59.0361C79.5442 58.7959 80.0065 58.6759 80.6017 58.6759H81.2914V58.3502C81.2914 58.1024 81.2173 57.9057 81.0692 57.7601C80.921 57.612 80.7026 57.5379 80.4139 57.5379C80.1611 57.5379 79.949 57.6018 79.7779 57.7295C79.6067 57.8572 79.5212 58.0117 79.5212 58.1931H78.8085C78.8085 57.9862 78.8813 57.7869 79.0269 57.5954C79.175 57.4012 79.3743 57.248 79.6246 57.1356C79.8775 57.0232 80.1547 56.967 80.4561 56.967C80.9338 56.967 81.308 57.087 81.5788 57.3271C81.8495 57.5647 81.99 57.893 82.0002 58.3119V60.22C82.0002 60.6007 82.0488 60.9034 82.1458 61.1281V61.1895H81.4025ZM80.2262 60.6492C80.4484 60.6492 80.6592 60.5917 80.8584 60.4768C81.0577 60.3618 81.202 60.2124 81.2914 60.0285V59.1778H80.7358C79.8673 59.1778 79.433 59.432 79.433 59.9403C79.433 60.1626 79.5071 60.3363 79.6553 60.4614C79.8034 60.5866 79.9937 60.6492 80.2262 60.6492ZM86.7821 60.2124L87.5791 57.0436H88.288L87.081 61.1895H86.5063L85.4985 58.0475L84.5176 61.1895H83.9429L82.7398 57.0436H83.4448L84.2609 60.1472L85.2265 57.0436H85.7974L86.7821 60.2124ZM90.7326 61.2661C90.1706 61.2661 89.7134 61.0822 89.3608 60.7143C89.0083 60.3439 88.8321 59.8497 88.8321 59.2315V59.1012C88.8321 58.6899 88.91 58.3234 89.0658 58.0015C89.2242 57.6771 89.4439 57.4242 89.7249 57.2429C90.0084 57.0589 90.3149 56.967 90.6444 56.967C91.1834 56.967 91.6024 57.1445 91.9012 57.4996C92.2001 57.8546 92.3495 58.363 92.3495 59.0246V59.3196H89.5409C89.5512 59.7283 89.6699 60.0591 89.8973 60.312C90.1272 60.5623 90.4184 60.6875 90.7709 60.6875C91.0212 60.6875 91.2332 60.6364 91.4069 60.5342C91.5806 60.4321 91.7326 60.2967 91.8629 60.1281L92.2959 60.4653C91.9485 60.9991 91.4274 61.2661 90.7326 61.2661ZM90.6444 57.5494C90.3584 57.5494 90.1182 57.6541 89.9241 57.8636C89.73 58.0705 89.6099 58.3617 89.5639 58.7372H91.6407V58.6836C91.6202 58.3234 91.5232 58.0449 91.3495 57.8483C91.1758 57.649 90.9408 57.5494 90.6444 57.5494ZM96.6831 59.1625C96.6831 59.796 96.5375 60.3056 96.2463 60.6913C95.9551 61.0745 95.5643 61.2661 95.0738 61.2661C94.5502 61.2661 94.1453 61.0809 93.8592 60.7105L93.8247 61.1895H93.1733V55.304H93.8822V57.4996C94.1683 57.1445 94.563 56.967 95.0662 56.967C95.5694 56.967 95.9641 57.1573 96.2502 57.5379C96.5388 57.9185 96.6831 58.4396 96.6831 59.1012V59.1625ZM95.9743 59.082C95.9743 58.5993 95.881 58.2263 95.6946 57.9632C95.5081 57.7001 95.2399 57.5685 94.8899 57.5685C94.4225 57.5685 94.0866 57.7857 93.8822 58.2199V60.0131C94.0993 60.4474 94.4378 60.6645 94.8976 60.6645C95.2373 60.6645 95.5017 60.533 95.6907 60.2699C95.8798 60.0068 95.9743 59.6108 95.9743 59.082ZM99.9937 60.0898C99.9937 59.8982 99.9209 59.75 99.7753 59.6453C99.6322 59.538 99.3806 59.4461 99.0204 59.3694C98.6628 59.2928 98.378 59.2008 98.166 59.0935C97.9565 58.9863 97.8007 58.8585 97.6985 58.7104C97.5989 58.5622 97.5491 58.386 97.5491 58.1816C97.5491 57.8419 97.6921 57.5545 97.9782 57.3195C98.2669 57.0845 98.6347 56.967 99.0817 56.967C99.5518 56.967 99.9324 57.0883 100.224 57.331C100.517 57.5737 100.664 57.884 100.664 58.2621H99.9515C99.9515 58.0679 99.8685 57.9006 99.7025 57.7601C99.539 57.6196 99.3321 57.5494 99.0817 57.5494C98.8237 57.5494 98.6219 57.6056 98.4763 57.718C98.3307 57.8304 98.2579 57.9773 98.2579 58.1586C98.2579 58.3298 98.3256 58.4588 98.461 58.5456C98.5964 58.6325 98.8404 58.7155 99.1929 58.7947C99.5479 58.8739 99.8353 58.9684 100.055 59.0782C100.275 59.1881 100.437 59.3209 100.542 59.4767C100.649 59.63 100.703 59.8177 100.703 60.04C100.703 60.4104 100.554 60.7079 100.258 60.9327C99.9617 61.155 99.5773 61.2661 99.1047 61.2661C98.7727 61.2661 98.4789 61.2073 98.2235 61.0898C97.968 60.9723 97.7675 60.8088 97.6219 60.5994C97.4788 60.3874 97.4073 60.1587 97.4073 59.9135H98.1162C98.1289 60.1511 98.2235 60.3401 98.3997 60.4806C98.5785 60.6185 98.8135 60.6875 99.1047 60.6875C99.373 60.6875 99.5875 60.6339 99.7485 60.5266C99.9119 60.4167 99.9937 60.2711 99.9937 60.0898ZM102.396 61.1895H101.687V57.0436H102.396V61.1895ZM101.63 55.9439C101.63 55.829 101.664 55.7319 101.733 55.6527C101.805 55.5735 101.91 55.5339 102.047 55.5339C102.185 55.5339 102.29 55.5735 102.362 55.6527C102.433 55.7319 102.469 55.829 102.469 55.9439C102.469 56.0589 102.433 56.1547 102.362 56.2313C102.29 56.3079 102.185 56.3462 102.047 56.3462C101.91 56.3462 101.805 56.3079 101.733 56.2313C101.664 56.1547 101.63 56.0589 101.63 55.9439ZM104.496 56.0397V57.0436H105.27V57.5915H104.496V60.1626C104.496 60.3286 104.53 60.4538 104.599 60.5381C104.668 60.6198 104.786 60.6607 104.952 60.6607C105.034 60.6607 105.146 60.6454 105.289 60.6147V61.1895C105.103 61.2405 104.921 61.2661 104.745 61.2661C104.428 61.2661 104.189 61.1703 104.028 60.9787C103.867 60.7871 103.787 60.5151 103.787 60.1626V57.5915H103.032V57.0436H103.787V56.0397H104.496ZM107.822 61.2661C107.26 61.2661 106.803 61.0822 106.45 60.7143C106.098 60.3439 105.921 59.8497 105.921 59.2315V59.1012C105.921 58.6899 105.999 58.3234 106.155 58.0015C106.313 57.6771 106.533 57.4242 106.814 57.2429C107.098 57.0589 107.404 56.967 107.734 56.967C108.273 56.967 108.692 57.1445 108.99 57.4996C109.289 57.8546 109.439 58.363 109.439 59.0246V59.3196H106.63C106.64 59.7283 106.759 60.0591 106.986 60.312C107.216 60.5623 107.508 60.6875 107.86 60.6875C108.11 60.6875 108.322 60.6364 108.496 60.5342C108.67 60.4321 108.822 60.2967 108.952 60.1281L109.385 60.4653C109.038 60.9991 108.517 61.2661 107.822 61.2661ZM107.734 57.5494C107.448 57.5494 107.207 57.6541 107.013 57.8636C106.819 58.0705 106.699 58.3617 106.653 58.7372H108.73V58.6836C108.709 58.3234 108.612 58.0449 108.439 57.8483C108.265 57.649 108.03 57.5494 107.734 57.5494ZM112.822 60.7795C112.546 61.1039 112.141 61.2661 111.607 61.2661C111.165 61.2661 110.828 61.1384 110.596 60.8829C110.366 60.6249 110.25 60.2443 110.247 59.7411V57.0436H110.956V59.7219C110.956 60.3503 111.211 60.6645 111.722 60.6645C112.264 60.6645 112.624 60.4627 112.803 60.0591V57.0436H113.512V61.1895H112.837L112.822 60.7795ZM116.596 57.6797C116.489 57.6618 116.373 57.6528 116.248 57.6528C115.783 57.6528 115.467 57.8508 115.301 58.2467V61.1895H114.592V57.0436H115.282L115.293 57.5226C115.526 57.1522 115.855 56.967 116.282 56.967C116.42 56.967 116.525 56.9849 116.596 57.0206V57.6797ZM118.022 61.1895H117.313V55.304H118.022V61.1895ZM119.175 60.8178C119.175 60.6952 119.211 60.593 119.282 60.5113C119.356 60.4295 119.466 60.3886 119.612 60.3886C119.757 60.3886 119.867 60.4295 119.941 60.5113C120.018 60.593 120.056 60.6952 120.056 60.8178C120.056 60.9353 120.018 61.0336 119.941 61.1128C119.867 61.192 119.757 61.2316 119.612 61.2316C119.466 61.2316 119.356 61.192 119.282 61.1128C119.211 61.0336 119.175 60.9353 119.175 60.8178ZM122.892 60.6875C123.145 60.6875 123.365 60.6109 123.555 60.4576C123.744 60.3043 123.848 60.1128 123.869 59.8829H124.539C124.526 60.1204 124.445 60.3465 124.294 60.5611C124.143 60.7756 123.942 60.9468 123.689 61.0745C123.438 61.2022 123.173 61.2661 122.892 61.2661C122.327 61.2661 121.878 61.0783 121.543 60.7028C121.211 60.3248 121.045 59.8088 121.045 59.1548V59.0361C121.045 58.6325 121.119 58.2736 121.267 57.9594C121.415 57.6452 121.627 57.4012 121.903 57.2275C122.181 57.0538 122.51 56.967 122.888 56.967C123.353 56.967 123.738 57.1062 124.045 57.3846C124.354 57.6631 124.519 58.0245 124.539 58.469H123.869C123.848 58.2008 123.746 57.9811 123.562 57.8099C123.381 57.6362 123.156 57.5494 122.888 57.5494C122.528 57.5494 122.248 57.6797 122.049 57.9402C121.852 58.1982 121.754 58.5724 121.754 59.0629V59.197C121.754 59.6747 121.852 60.0425 122.049 60.3005C122.245 60.5585 122.526 60.6875 122.892 60.6875ZM125.148 59.0782C125.148 58.6721 125.228 58.3068 125.386 57.9824C125.547 57.6579 125.769 57.4076 126.053 57.2314C126.339 57.0551 126.665 56.967 127.03 56.967C127.594 56.967 128.05 57.1624 128.398 57.5532C128.748 57.944 128.923 58.4639 128.923 59.1127V59.1625C128.923 59.5661 128.845 59.9288 128.689 60.2507C128.536 60.57 128.315 60.8191 128.026 60.9979C127.74 61.1767 127.41 61.2661 127.037 61.2661C126.476 61.2661 126.02 61.0707 125.67 60.6798C125.322 60.289 125.148 59.7717 125.148 59.128V59.0782ZM125.861 59.1625C125.861 59.6223 125.967 59.9914 126.179 60.2699C126.394 60.5483 126.68 60.6875 127.037 60.6875C127.398 60.6875 127.684 60.547 127.896 60.266C128.108 59.9825 128.214 59.5865 128.214 59.0782C128.214 58.6235 128.105 58.2557 127.888 57.9747C127.674 57.6912 127.387 57.5494 127.03 57.5494C126.68 57.5494 126.398 57.6886 126.183 57.967C125.968 58.2455 125.861 58.644 125.861 59.1625ZM130.478 57.0436L130.497 57.5034C130.801 57.1458 131.211 56.967 131.727 56.967C132.307 56.967 132.702 57.1892 132.911 57.6337C133.049 57.4344 133.228 57.2735 133.448 57.1509C133.67 57.0283 133.932 56.967 134.233 56.967C135.143 56.967 135.605 57.4485 135.62 58.4115V61.1895H134.912V58.4537C134.912 58.1573 134.844 57.9364 134.708 57.7908C134.573 57.6426 134.346 57.5685 134.026 57.5685C133.763 57.5685 133.545 57.6477 133.371 57.8061C133.197 57.9619 133.097 58.1727 133.068 58.4383V61.1895H132.356V58.4728C132.356 57.87 132.061 57.5685 131.471 57.5685C131.006 57.5685 130.688 57.7665 130.517 58.1624V61.1895H129.808V57.0436H130.478Z" fill="#D7D7D7"/>
<rect x="190.024" y="53.5047" width="8.63195" height="8.63195" rx="1.17708" stroke="#E7E7E7" stroke-width="0.784722"/>
<circle cx="211.212" cy="62.137" r="1.17708" fill="#E8E5E5"/>
<circle cx="211.212" cy="58.2132" r="1.17708" fill="#E8E5E5"/>
<circle cx="211.212" cy="54.2894" r="1.17708" fill="#E8E5E5"/>
<circle cx="115.451" cy="493.485" r="3.47862" stroke="#E0E0E0" stroke-width="1.17708"/>
<path d="M86.166 489.825L82.9122 493.079L86.166 496.333" stroke="#E0E0E0" stroke-width="1.17708"/>
<path d="M143.102 491.045H149.61" stroke="#E0E0E0" stroke-width="1.17708"/>
<path d="M143.102 493.485H149.61" stroke="#E0E0E0" stroke-width="1.17708"/>
<path d="M143.102 495.925H149.61" stroke="#E0E0E0" stroke-width="1.17708"/>
<path d="M57.0464 56.2512C56.9329 55.2048 57.045 53.1125 58.7473 53.1123C59.3147 53.1123 60.3823 54.0986 60.11 56.2512" stroke="#F0F0F0" stroke-width="0.784722"/>
<rect x="55.4447" y="56.251" width="6.27778" height="6.27778" rx="0.784722" fill="#EAEAEA"/>
<path d="M179.04 459.599L175.116 464.307H183.748M176.293 466.269L179.04 469.015" stroke="#DEDEDE" stroke-width="0.784722"/>
<path d="M120.576 459.599H112.337V469.016M114.299 469.408H120.576V462.738M48.3818 469.408V465.877H56.2291M48.3818 463.523H56.6214V458.814" stroke="#DEDEDE" stroke-width="0.784722"/>
<path d="M20.5213 57.8204V62.5288H28.3685V57.8204M19.3442 58.6051L24.4449 52.7197L29.5456 58.6051" stroke="#E8E6E6" stroke-width="0.784722"/>
<g style="mix-blend-mode:multiply">
<rect x="0.514404" y="0.536133" width="231.493" height="510.069" fill="#D8D8D8" fill-opacity="0.9"/>
</g>
<defs>
<filter id="filter0_d" x="-2.62448" y="15.4456" width="232.278" height="23.5417" filterUnits="userSpaceOnUse" color-interpolation-filters="sRGB">
<feFlood flood-opacity="0" result="BackgroundImageFix"/>
<feColorMatrix in="SourceAlpha" type="matrix" values="0 0 0 0 0 0 0 0 0 0 0 0 0 0 0 0 0 0 127 0"/>
<feOffset dy="0.784722"/>
<feGaussianBlur stdDeviation="1.56944"/>
<feColorMatrix type="matrix" values="0 0 0 0 0 0 0 0 0 0 0 0 0 0 0 0 0 0 0.1 0"/>
<feBlend mode="normal" in2="BackgroundImageFix" result="effect1_dropShadow"/>
<feBlend mode="normal" in="SourceGraphic" in2="effect1_dropShadow" result="shape"/>
</filter>
<filter id="filter1_d" x="-2.62448" y="446.258" width="232.278" height="39.2361" filterUnits="userSpaceOnUse" color-interpolation-filters="sRGB">
<feFlood flood-opacity="0" result="BackgroundImageFix"/>
<feColorMatrix in="SourceAlpha" type="matrix" values="0 0 0 0 0 0 0 0 0 0 0 0 0 0 0 0 0 0 127 0"/>
<feOffset dy="0.784722"/>
<feGaussianBlur stdDeviation="1.56944"/>
<feColorMatrix type="matrix" values="0 0 0 0 0 0 0 0 0 0 0 0 0 0 0 0 0 0 0.25 0"/>
<feBlend mode="normal" in2="BackgroundImageFix" result="effect1_dropShadow"/>
<feBlend mode="normal" in="SourceGraphic" in2="effect1_dropShadow" result="shape"/>
</filter>
<filter id="filter2_d" x="-2.62448" y="-2.40658" width="232.278" height="23.5417" filterUnits="userSpaceOnUse" color-interpolation-filters="sRGB">
<feFlood flood-opacity="0" result="BackgroundImageFix"/>
<feColorMatrix in="SourceAlpha" type="matrix" values="0 0 0 0 0 0 0 0 0 0 0 0 0 0 0 0 0 0 127 0"/>
<feOffset dy="0.196181"/>
<feGaussianBlur stdDeviation="1.56944"/>
<feColorMatrix type="matrix" values="0 0 0 0 0 0 0 0 0 0 0 0 0 0 0 0 0 0 0.1 0"/>
<feBlend mode="normal" in2="BackgroundImageFix" result="effect1_dropShadow"/>
<feBlend mode="normal" in="SourceGraphic" in2="effect1_dropShadow" result="shape"/>
</filter>
<filter id="filter3_d" x="-2.62448" y="479.217" width="232.278" height="29.8194" filterUnits="userSpaceOnUse" color-interpolation-filters="sRGB">
<feFlood flood-opacity="0" result="BackgroundImageFix"/>
<feColorMatrix in="SourceAlpha" type="matrix" values="0 0 0 0 0 0 0 0 0 0 0 0 0 0 0 0 0 0 127 0"/>
<feOffset dy="0.784722"/>
<feGaussianBlur stdDeviation="1.56944"/>
<feColorMatrix type="matrix" values="0 0 0 0 0 0 0 0 0 0 0 0 0 0 0 0 0 0 0.15 0"/>
<feBlend mode="normal" in2="BackgroundImageFix" result="effect1_dropShadow"/>
<feBlend mode="normal" in="SourceGraphic" in2="effect1_dropShadow" result="shape"/>
</filter>
<filter id="filter4_d" x="40.5329" y="43.6956" width="138.111" height="30.6042" filterUnits="userSpaceOnUse" color-interpolation-filters="sRGB">
<feFlood flood-opacity="0" result="BackgroundImageFix"/>
<feColorMatrix in="SourceAlpha" type="matrix" values="0 0 0 0 0 0 0 0 0 0 0 0 0 0 0 0 0 0 127 0"/>
<feOffset dy="0.784722"/>
<feGaussianBlur stdDeviation="1.56944"/>
<feColorMatrix type="matrix" values="0 0 0 0 0 0 0 0 0 0 0 0 0 0 0 0 0 0 0.15 0"/>
<feBlend mode="normal" in2="BackgroundImageFix" result="effect1_dropShadow"/>
<feBlend mode="normal" in="SourceGraphic" in2="effect1_dropShadow" result="shape"/>
</filter>
</defs>
</svg>
