<?xml version="1.0" encoding="utf-8"?>
<!-- Generator: Adobe Illustrator 18.1.1, SVG Export Plug-In . SVG Version: 6.00 Build 0)  -->
<!DOCTYPE svg PUBLIC "-//W3C//DTD SVG 1.1//EN" "http://www.w3.org/Graphics/SVG/1.1/DTD/svg11.dtd">
<svg version="1.1" id="Layer_1" xmlns="http://www.w3.org/2000/svg" xmlns:xlink="http://www.w3.org/1999/xlink" x="0px" y="0px"
	 viewBox="0 0 50 41" enable-background="new 0 0 50 41" xml:space="preserve">
<path fill="#2BBFBD" d="M50,4.9c-1.8,0.8-3.8,1.4-5.9,1.6c2.1-1.3,3.7-3.3,4.5-5.7c-2,1.2-4.2,2-6.5,2.5c-1.9-2-4.5-3.3-7.5-3.3
	C29,0,24.4,4.6,24.4,10.4c0,0.8,0.1,1.6,0.3,2.4C16.1,12.3,8.5,8.2,3.5,1.9C2.6,3.4,2.1,5.2,2.1,7.1c0,3.6,1.8,6.8,4.6,8.6
	C5,15.7,3.4,15.2,2,14.4c0,0,0,0.1,0,0.1c0,5,3.5,9.2,8.2,10.1c-0.9,0.2-1.8,0.4-2.7,0.4c-0.7,0-1.3-0.1-1.9-0.2
	c1.3,4.1,5.1,7.1,9.6,7.2c-3.5,2.8-7.9,4.4-12.7,4.4c-0.8,0-1.6,0-2.4-0.1C4.5,39.3,9.9,41,15.7,41c18.9,0,29.2-15.8,29.2-29.4
	c0-0.4,0-0.9,0-1.3C46.9,8.8,48.6,6.9,50,4.9z"/>
</svg>
