<?xml version="1.0" encoding="utf-8"?>
<!-- Generator: Adobe Illustrator 18.1.1, SVG Export Plug-In . SVG Version: 6.00 Build 0)  -->
<!DOCTYPE svg PUBLIC "-//W3C//DTD SVG 1.1//EN" "http://www.w3.org/Graphics/SVG/1.1/DTD/svg11.dtd">
<svg version="1.1" id="Layer_1" xmlns="http://www.w3.org/2000/svg" xmlns:xlink="http://www.w3.org/1999/xlink" x="0px" y="0px"
	 viewBox="0 0 215 50" enable-background="new 0 0 215 50" xml:space="preserve">
<g>
	<path fill="#FFFFFF" d="M30.2,8.5c0-1.7-0.9-3.2-2.3-4.1L22,0.7l0,0c0,0,0,0,0,0c-1.3-0.8-3-0.9-4.4-0.1L5.1,7.1C2,8.8,0,12,0,15.6
		v32.7c0,1,1.1,1.7,2.8,1.7c0.3,0,0.7,0,1-0.1c1.8-0.2,3.6-1.2,3.6-2.4V17.8l3.9,2.4v24.7h0c0,1,1.1,1.7,2.8,1.7c0.3,0,0.7,0,1-0.1
		c1.8-0.2,3.6-1.2,3.6-2.4V9.4L6.1,16.1V46c-0.4-0.1-0.9-0.2-1.5-0.2c-0.3,0-0.7,0-1,0.1C2.8,46,2,46.2,1.3,46.6v-31
		c0-3.1,1.7-5.9,4.4-7.3l12.5-6.6c1-0.5,2.1-0.5,3,0.1c0.9,0.6,1.5,1.5,1.5,2.6v37.1c0,1,1.1,1.7,2.8,1.7c0.3,0,0.7,0,1-0.1
		c1.8-0.2,3.6-1.2,3.6-2.4c0,0,0,0,0,0h0V8.5z M17.5,17.7v24.9c-0.4-0.1-0.9-0.2-1.5-0.2c-0.3,0-0.7,0-1,0.1
		c-0.8,0.1-1.6,0.4-2.3,0.7v-23L17.5,17.7z M15,45.2c-0.3,0-0.6,0.1-0.8,0.1c-0.9,0-1.4-0.2-1.5-0.3c0.1-0.3,1-0.9,2.5-1.1
		c0.3,0,0.6-0.1,0.8-0.1c0.9,0,1.4,0.2,1.5,0.3C17.4,44.4,16.5,45,15,45.2z M17.5,16.2L12.1,19l-3.9-2.4l9.4-4.9V16.2z M3.8,47.2
		c0.3,0,0.6-0.1,0.8-0.1c0.9,0,1.4,0.2,1.5,0.3c-0.1,0.3-1,0.9-2.5,1.1c-0.3,0-0.6,0.1-0.8,0.1c-0.9,0-1.4-0.2-1.5-0.3
		C1.4,48.1,2.3,47.4,3.8,47.2z M28.9,8.5v30.7C28.5,39.1,28,39,27.4,39c-0.3,0-0.7,0-1,0.1c-0.8,0.1-1.6,0.4-2.3,0.7V4.4
		c0-0.3,0-0.6-0.1-0.9l3.2,2C28.3,6.1,28.9,7.2,28.9,8.5z M26.4,41.8c-0.3,0-0.6,0.1-0.8,0.1c-0.9,0-1.4-0.2-1.5-0.3
		c0.1-0.3,1-0.9,2.5-1.1c0.3,0,0.6-0.1,0.8-0.1c0.9,0,1.4,0.2,1.5,0.3C28.8,40.9,27.9,41.6,26.4,41.8z"/>
	<path fill="#FFFFFF" d="M6.3,10.9c-1.5,0.6-2.1,2.4-2.1,2.5c-0.1,0.3,0,0.5,0.3,0.6c0.1,0,0.1,0,0.2,0c0.2,0,0.4-0.1,0.5-0.3
		c0,0,0.5-1.4,1.6-1.9c0.5-0.2,1-0.2,1.6,0.1c0.2,0.1,0.5,0,0.7-0.2c0.1-0.2,0-0.5-0.2-0.7C7.9,10.6,7.1,10.6,6.3,10.9z"/>
	<path fill="#FFFFFF" d="M19.7,5.3c-0.9-0.4-1.7-0.4-2.4-0.1c-1.5,0.6-2.1,2.4-2.1,2.5c-0.1,0.3,0,0.5,0.3,0.6c0.1,0,0.1,0,0.2,0
		c0.2,0,0.4-0.1,0.5-0.3c0,0,0.5-1.4,1.6-1.9c0.5-0.2,1-0.2,1.6,0.1c0.2,0.1,0.5,0,0.7-0.2C20,5.7,19.9,5.4,19.7,5.3z"/>
</g>
<g>
	<path fill="#FFFFFF" d="M70.5,34.7V24.4c0-2.8-1.3-4.1-3.2-4.1c-1.9,0-3.4,1.4-3.4,4.1v10.4h-4.6V24.4c0-2.8-1.3-4.1-3.3-4.1
		c-1.8,0-3.4,1.4-3.4,4.1v10.4h-4.6V16.9h4l0.2,2.6c1-1.7,2.7-3,5.3-3c2.4,0,4.4,0.9,5.4,3.3c1.1-2,3.1-3.3,5.7-3.3
		c3.6,0,6.1,2.1,6.1,7.6v10.7H70.5z"/>
	<path fill="#FFFFFF" d="M85.4,35.2c-4.2,0-7.1-3.1-7.1-9.4c0-6.3,3-9.4,7.2-9.4c2.8,0,4.3,1.4,5,2.9l0.3-2.4h4.1v17.9h-4l-0.2-2.6
		C89.9,33.7,88.2,35.2,85.4,35.2z M86.6,31.3c2.5,0,3.7-1.9,3.7-5.5s-1.2-5.5-3.7-5.5c-2.5,0-3.7,1.9-3.7,5.5S84.2,31.3,86.6,31.3z"
		/>
	<path fill="#FFFFFF" d="M110.5,34.7V24.4c0-2.8-1.3-4.1-3.3-4.1c-1.8,0-3.4,1.4-3.4,4.1v10.4h-4.6V16.9h4l0.2,2.6
		c1-1.7,2.7-3,5.3-3c3.6,0,6.1,2.1,6.1,7.6v10.7H110.5z"/>
	<path fill="#FFFFFF" d="M122,13.8c-1.5,0-2.4-0.7-2.4-2.2c0-1.4,1-2.2,2.5-2.2c1.5,0,2.4,0.7,2.4,2.2
		C124.5,13.1,123.5,13.8,122,13.8z M119.8,16.9h4.5v17.9h-4.5V16.9z"/>
	<path fill="#FFFFFF" d="M139.3,12.3c0,0-0.8-0.3-1.6-0.3c-1.4,0-2.6,0.7-2.6,3.1v1.8h4.3v3.9h-4.3v14h-4.4v-14h-2.6v-3.9h2.6v-2
		c0-4.7,2.8-6.8,6-6.8c1.5,0,2.7,0.5,2.7,0.5V12.3z"/>
	<path fill="#FFFFFF" d="M149.1,35.2c-4.9,0-8.2-3.2-8.2-9.4c0-6.2,3.4-9.4,8.3-9.4c5,0,8.2,3.2,8.2,9.4
		C157.5,32,154.1,35.2,149.1,35.2z M149.2,31.3c2.5,0,3.7-1.9,3.7-5.5s-1.3-5.5-3.7-5.5c-2.5,0-3.7,1.9-3.7,5.5
		S146.7,31.3,149.2,31.3z"/>
	<path fill="#FFFFFF" d="M161.2,8.5h4.5v20.6c0,1.4,0.7,2,1.8,2c0.6,0,1.4-0.2,1.4-0.2v3.9c0,0-1.1,0.2-2.6,0.2c-3,0-5-1.1-5-5.7
		V8.5z"/>
	<path fill="#FFFFFF" d="M177.7,35.2c-4.2,0-7.1-3.1-7.1-9.4c0-6.3,3-9.4,7.1-9.4c2.4,0,4,1.1,4.9,2.6V8.5h4.5v26.3h-3.9l-0.2-2.6
		C182.1,33.8,180.5,35.2,177.7,35.2z M178.9,31.3c2.5,0,3.7-1.9,3.7-5.5s-1.3-5.5-3.7-5.5s-3.7,1.9-3.7,5.5S176.4,31.3,178.9,31.3z"
		/>
	<path fill="#FFFFFF" d="M190.2,40.3c0,0,0.8,0.2,1.6,0.2c1.6,0,3.3-0.7,3.3-3.9V16.9h2.1v19.7c0,4.1-2.1,5.7-5,5.7
		c-1.2,0-1.9-0.2-1.9-0.2V40.3z M196.1,12.9c-0.8,0-1.4-0.5-1.4-1.3c0-0.8,0.6-1.3,1.4-1.3s1.4,0.5,1.4,1.3S196.9,12.9,196.1,12.9z"
		/>
	<path fill="#FFFFFF" d="M215,29.9c0,3.3-2.5,5.3-6.5,5.3c-3.2,0-5.7-1-5.7-1v-2c0,0,2.6,1.3,5.7,1.3c2.7,0,4.5-1.2,4.5-3.4
		c0-4.7-10.6-2-10.6-8.4c0-3.3,2.6-5.1,6.4-5.1c3.2,0,5.6,1,5.6,1v2c0,0-2.5-1.3-5.6-1.3c-2.5,0-4.3,1-4.3,3.3
		C204.4,26.3,215,23.4,215,29.9z"/>
</g>
</svg>
