<?xml version="1.0" encoding="utf-8"?>
<!-- Generator: Adobe Illustrator 18.1.1, SVG Export Plug-In . SVG Version: 6.00 Build 0)  -->
<!DOCTYPE svg PUBLIC "-//W3C//DTD SVG 1.1//EN" "http://www.w3.org/Graphics/SVG/1.1/DTD/svg11.dtd">
<svg version="1.1" id="Layer_1" xmlns="http://www.w3.org/2000/svg" xmlns:xlink="http://www.w3.org/1999/xlink" x="0px" y="0px"
	 viewBox="0 0 381 78" enable-background="new 0 0 381 78" xml:space="preserve">
<g>
	<path fill="#292929" d="M50.9,60.9V37.2c0-6.4-2.9-9.3-7.3-9.3c-4.2,0-7.8,3.2-7.8,9.3v23.6H25.5V37.2c0-6.4-3-9.3-7.4-9.3
		c-4.2,0-7.7,3.2-7.7,9.3v23.6H0V20.2h9.2l0.6,5.9c2.3-3.8,6.2-6.9,12.2-6.9c5.5,0,10.2,2.2,12.4,7.6c2.4-4.5,7-7.6,13-7.6
		c8.2,0,14,4.7,14,17.4v24.3H50.9z"/>
	<path fill="#292929" d="M85,61.9c-9.5,0-16.3-7-16.3-21.4s7-21.4,16.4-21.4c6.3,0,9.8,3.1,11.5,6.5l0.7-5.5h9.4v40.7h-9.2l-0.6-6
		C95.2,58.6,91.3,61.9,85,61.9z M87.7,53c5.7,0,8.5-4.3,8.5-12.4c0-8.1-2.8-12.4-8.5-12.4c-5.6,0-8.5,4.3-8.5,12.4
		C79.2,48.7,82.1,53,87.7,53z"/>
	<path fill="#292929" d="M142.3,60.9V37.2c0-6.4-3-9.3-7.4-9.3c-4.2,0-7.7,3.2-7.7,9.3v23.6h-10.4V20.2h9.2l0.6,5.9
		c2.3-3.8,6.2-6.9,12.2-6.9c8.2,0,14,4.7,14,17.4v24.3H142.3z"/>
	<path fill="#292929" d="M168.6,13.2c-3.4,0-5.5-1.6-5.5-4.9c0-3.2,2.2-5,5.7-5c3.4,0,5.5,1.6,5.5,4.9
		C174.2,11.5,172,13.2,168.6,13.2z M163.4,20.2h10.4v40.7h-10.4V20.2z"/>
	<path fill="#292929" d="M208.1,9.8c0,0-1.8-0.7-3.8-0.7c-3.3,0-6,1.6-6,7.1v4h9.8V29h-9.8v31.8h-10.1V29h-5.9v-8.9h5.9v-4.6
		C188.3,4.9,194.7,0,202,0c3.4,0,6.2,1,6.2,1V9.8z"/>
	<path fill="#292929" d="M230.4,61.9c-11.3,0-18.7-7.3-18.7-21.4s7.8-21.4,19-21.4c11.4,0,18.8,7.3,18.8,21.4S241.8,61.9,230.4,61.9
		z M230.6,53c5.7,0,8.6-4.3,8.6-12.4c0-8.1-2.9-12.4-8.6-12.4c-5.6,0-8.5,4.3-8.5,12.4C222.1,48.7,225,53,230.6,53z"/>
	<path fill="#292929" d="M258,1h10.2v46.9c0,3.3,1.5,4.5,4,4.5c1.4,0,3.1-0.4,3.1-0.4v8.9c0,0-2.5,0.6-5.9,0.6
		c-7,0-11.4-2.4-11.4-13.1V1z"/>
	<path fill="#292929" d="M295.8,61.9c-9.5,0-16.2-7-16.2-21.4s6.9-21.4,16.3-21.4c5.5,0,9.1,2.5,11.1,5.8V1h10.2v59.8h-9l-0.6-5.9
		C305.9,58.7,302.1,61.9,295.8,61.9z M298.5,53c5.6,0,8.5-4.3,8.5-12.4c0-8.1-2.9-12.4-8.5-12.4c-5.6,0-8.5,4.3-8.5,12.4
		C290,48.7,292.9,53,298.5,53z"/>
	<path fill="#292929" d="M324.3,73.5c0,0,1.8,0.6,3.6,0.6c3.8,0,7.4-1.6,7.4-8.9V20.2h4.8v44.9c0,9.3-4.7,12.9-11.4,12.9
		c-2.6,0-4.4-0.4-4.4-0.4V73.5z M337.7,11.2c-1.8,0-3.1-1-3.1-2.9c0-1.8,1.3-3,3.2-3c1.9,0,3.1,1,3.1,2.9S339.7,11.2,337.7,11.2z"/>
	<path fill="#292929" d="M381,49.8c0,7.6-5.7,12-14.9,12c-7.2,0-13-2.4-13-2.4v-4.5c0,0,5.8,3,13,3c6.2,0,10.2-2.6,10.2-7.7
		c0-10.8-24.2-4.5-24.2-19.1c0-7.5,6-11.6,14.6-11.6c7.2,0,12.8,2.4,12.8,2.4v4.5c0,0-5.8-3-12.8-3c-5.7,0-9.9,2.3-9.9,7.4
		C356.8,41.6,381,35.1,381,49.8z"/>
</g>
</svg>
