<?xml version="1.0" encoding="utf-8"?>
<!-- Generator: Adobe Illustrator 18.1.1, SVG Export Plug-In . SVG Version: 6.00 Build 0)  -->
<!DOCTYPE svg PUBLIC "-//W3C//DTD SVG 1.1//EN" "http://www.w3.org/Graphics/SVG/1.1/DTD/svg11.dtd">
<svg version="1.1" id="Layer_1" xmlns="http://www.w3.org/2000/svg" xmlns:xlink="http://www.w3.org/1999/xlink" x="0px" y="0px"
	 viewBox="0 0 230 380" enable-background="new 0 0 230 380" xml:space="preserve">
<g>
	<path fill="#F22E2E" d="M230,64.4c0-12.9-6.5-24.6-17.5-31.4l-45-27.9l0,0c-0.1-0.1-0.2-0.1-0.3-0.2c-10.2-6.1-22.6-6.5-33.1-0.9
		L39,54.1c-24,12.7-39,37.4-39,64.6v248.6C0,375,8.4,380,21.5,380c2.5,0,5-0.2,7.6-0.5c13.8-1.9,27.7-8.9,27.7-18.6V135l29.8,18.5
		v188h0c0,7.7,8.5,12.7,21.5,12.7c2.5,0,5-0.2,7.6-0.5c13.8-1.9,27.7-8.9,27.7-18.6V71.6l-96.9,51.1v227c-3.2-1-6.9-1.6-11.2-1.6
		c-2.5,0-5,0.2-7.6,0.5c-6.2,0.9-12.4,2.8-17.4,5.5V118.6c0-23.3,12.8-44.6,33.5-55.5L138.8,13c7.3-3.9,15.9-3.6,23,0.7
		c7.1,4.3,11.3,11.8,11.3,20.1v281.8c0,7.7,8.4,12.7,21.5,12.7c2.5,0,5-0.2,7.6-0.5c13.8-1.9,27.7-8.9,27.7-18.6c0,0,0-0.1,0-0.1h0
		V64.4z M133.1,134.6v189.2c-3.2-1-6.9-1.6-11.2-1.6c-2.5,0-5,0.2-7.6,0.5c-6.2,0.9-12.4,2.8-17.4,5.5V153.7L133.1,134.6z
		 M114.3,343.4c-2.1,0.3-4.2,0.4-6.2,0.4c-7,0-10.5-1.8-11.2-2.6c0.7-1.9,7.4-6.7,18.8-8.3c2.1-0.3,4.2-0.4,6.2-0.4
		c7,0,10.5,1.8,11.2,2.6C132.4,337.1,125.7,341.9,114.3,343.4z M133.1,123l-41.2,21.7l-30-18.6l71.2-37.5V123z M29.1,358.8
		c2.1-0.3,4.2-0.4,6.2-0.4c7,0,10.5,1.8,11.2,2.6c-0.7,1.9-7.4,6.7-18.8,8.3c-2.1,0.3-4.2,0.4-6.2,0.4c-7,0-10.5-1.8-11.2-2.6
		C11,365.2,17.7,360.4,29.1,358.8z M219.7,64.4V298c-3.2-1-6.9-1.6-11.2-1.6c-2.5,0-5,0.2-7.6,0.5c-6.2,0.9-12.4,2.8-17.4,5.5V33.7
		c0-2.5-0.3-4.8-0.8-7.2l24.4,15.1C215,46.6,219.7,55.1,219.7,64.4z M200.9,317.6c-2.1,0.3-4.2,0.4-6.2,0.4c-7,0-10.5-1.8-11.2-2.6
		c0.7-1.9,7.4-6.7,18.8-8.3c2.1-0.3,4.2-0.4,6.2-0.4c7,0,10.5,1.8,11.2,2.6C219,311.2,212.3,316,200.9,317.6z"/>
	<path fill="#F22E2E" d="M48.1,82.7c-11.1,4.6-16,18.1-16.2,18.6c-0.7,1.9,0.3,4.1,2.3,4.8c0.4,0.1,0.8,0.2,1.3,0.2
		c1.5,0,3-1,3.5-2.5c0-0.1,4-10.9,12.1-14.3c3.7-1.5,7.7-1.2,12.3,0.9c1.9,0.9,4.1,0.1,5-1.8c0.9-1.9,0.1-4.1-1.8-5
		C60,80.7,53.8,80.4,48.1,82.7z"/>
	<path fill="#F22E2E" d="M149.7,40c-6.5-3.1-12.7-3.4-18.4-1c-11.1,4.6-16,18.1-16.2,18.6c-0.7,1.9,0.3,4.1,2.3,4.8
		c0.4,0.1,0.8,0.2,1.3,0.2c1.5,0,3-1,3.5-2.5c0-0.1,4-10.9,12.1-14.3c3.7-1.5,7.7-1.2,12.3,0.9c1.9,0.9,4.1,0.1,5-1.8
		C152.3,43.1,151.5,40.9,149.7,40z"/>
</g>
</svg>
