<?xml version="1.0" encoding="utf-8"?>
<!-- Generator: Adobe Illustrator 18.1.1, SVG Export Plug-In . SVG Version: 6.00 Build 0)  -->
<!DOCTYPE svg PUBLIC "-//W3C//DTD SVG 1.1//EN" "http://www.w3.org/Graphics/SVG/1.1/DTD/svg11.dtd">
<svg version="1.1" id="Layer_1" xmlns="http://www.w3.org/2000/svg" xmlns:xlink="http://www.w3.org/1999/xlink" x="0px" y="0px"
	 viewBox="0 0 215 50" enable-background="new 0 0 215 50" xml:space="preserve">
<g>
	<path fill="#FFFFFF" d="M30.2,8.5c0-1.7-0.9-3.2-2.3-4.1L22,0.7l0,0c0,0,0,0,0,0c-1.3-0.8-3-0.9-4.4-0.1L5.1,7.1C2,8.8,0,12,0,15.6
		v32.7c0,1,1.1,1.7,2.8,1.7c0.3,0,0.7,0,1-0.1c1.8-0.2,3.6-1.2,3.6-2.4V17.8l3.9,2.4v24.7h0c0,1,1.1,1.7,2.8,1.7c0.3,0,0.7,0,1-0.1
		c1.8-0.2,3.6-1.2,3.6-2.4V9.4L6.1,16.1V46c-0.4-0.1-0.9-0.2-1.5-0.2c-0.3,0-0.7,0-1,0.1C2.8,46,2,46.2,1.3,46.6v-31
		c0-3.1,1.7-5.9,4.4-7.3l12.5-6.6c1-0.5,2.1-0.5,3,0.1c0.9,0.6,1.5,1.5,1.5,2.6v37.1c0,1,1.1,1.7,2.8,1.7c0.3,0,0.7,0,1-0.1
		c1.8-0.2,3.6-1.2,3.6-2.4c0,0,0,0,0,0h0V8.5z M17.5,17.7v24.9c-0.4-0.1-0.9-0.2-1.5-0.2c-0.3,0-0.7,0-1,0.1
		c-0.8,0.1-1.6,0.4-2.3,0.7v-23L17.5,17.7z M15,45.2c-0.3,0-0.6,0.1-0.8,0.1c-0.9,0-1.4-0.2-1.5-0.3c0.1-0.3,1-0.9,2.5-1.1
		c0.3,0,0.6-0.1,0.8-0.1c0.9,0,1.4,0.2,1.5,0.3C17.4,44.4,16.5,45,15,45.2z M17.5,16.2L12.1,19l-3.9-2.4l9.4-4.9V16.2z M3.8,47.2
		c0.3,0,0.6-0.1,0.8-0.1c0.9,0,1.4,0.2,1.5,0.3c-0.1,0.3-1,0.9-2.5,1.1c-0.3,0-0.6,0.1-0.8,0.1c-0.9,0-1.4-0.2-1.5-0.3
		C1.4,48.1,2.3,47.4,3.8,47.2z M28.9,8.5v30.7C28.5,39.1,28,39,27.4,39c-0.3,0-0.7,0-1,0.1c-0.8,0.1-1.6,0.4-2.3,0.7V4.4
		c0-0.3,0-0.6-0.1-0.9l3.2,2C28.3,6.1,28.9,7.2,28.9,8.5z M26.4,41.8c-0.3,0-0.6,0.1-0.8,0.1c-0.9,0-1.4-0.2-1.5-0.3
		c0.1-0.3,1-0.9,2.5-1.1c0.3,0,0.6-0.1,0.8-0.1c0.9,0,1.4,0.2,1.5,0.3C28.8,40.9,27.9,41.6,26.4,41.8z"/>
	<path fill="#FFFFFF" d="M6.3,10.9c-1.5,0.6-2.1,2.4-2.1,2.5c-0.1,0.3,0,0.5,0.3,0.6c0.1,0,0.1,0,0.2,0c0.2,0,0.4-0.1,0.5-0.3
		c0,0,0.5-1.4,1.6-1.9c0.5-0.2,1-0.2,1.6,0.1c0.2,0.1,0.5,0,0.7-0.2c0.1-0.2,0-0.5-0.2-0.7C7.9,10.6,7.1,10.6,6.3,10.9z"/>
	<path fill="#FFFFFF" d="M19.7,5.3c-0.9-0.4-1.7-0.4-2.4-0.1c-1.5,0.6-2.1,2.4-2.1,2.5c-0.1,0.3,0,0.5,0.3,0.6c0.1,0,0.1,0,0.2,0
		c0.2,0,0.4-0.1,0.5-0.3c0,0,0.5-1.4,1.6-1.9c0.5-0.2,1-0.2,1.6,0.1c0.2,0.1,0.5,0,0.7-0.2C20,5.7,19.9,5.4,19.7,5.3z"/>
</g>
<g>
	<g>
		<g>
			<path fill="#FFFFFF" d="M214.2,19.6c-1.7-0.3-3.4-0.7-5.1-0.8c-1-0.1-2,0.2-2.9,0.4c-1.1,0.3-1.6,1.2-1.6,2.3
				c-0.1,1.2,0.4,2,1.4,2.4c1.1,0.5,2.3,0.8,3.4,1.2c0.6,0.2,1.3,0.4,1.9,0.6c2.7,1,3.9,2.6,3.7,5c-0.3,2.4-2.1,4.3-4.7,4.5
				c-2,0.1-4-0.2-6-0.4c-1.4-0.1-1.8-1-1.4-2.3c1.8,0.3,3.7,0.7,5.5,0.9c0.9,0.1,2-0.1,2.7-0.6c0.7-0.5,1.4-1.5,1.6-2.3
				c0.3-1-0.4-2-1.4-2.4c-1.8-0.7-3.7-1.2-5.6-1.9c-2.9-1-4.2-3.4-3.1-6.1c1.1-2.6,3.5-3.2,5.9-3.3c1.5,0,2.9,0.4,4.4,0.6
				C214.4,17.6,214.7,18.4,214.2,19.6z"/>
		</g>
		<g>
			<path fill="#FFFFFF" d="M194.8,17.2c0.7,0,2.3,0,2.3,0s0,13.7,0,20c0,3.5-2,5.3-5.5,5.2c-1.6,0-1.7-0.2-1.4-2
				c0.1,0,0.2-0.1,0.3-0.1c3.9,0.4,4.3-1.4,4.3-4.2c0-5.6,0-11.3,0-16.9C194.8,18.6,194.8,18,194.8,17.2z"/>
		</g>
		<g>
			<path fill="#FFFFFF" d="M196.1,13.6L196.1,13.6c-0.8,0-1.4-0.6-1.4-1.4v0c0-0.8,0.6-1.4,1.4-1.4l0,0c0.8,0,1.4,0.6,1.4,1.4v0
				C197.5,12.9,196.8,13.6,196.1,13.6z"/>
		</g>
	</g>
	<g>
		<g>
			<path fill="#FFFFFF" d="M52.7,34.8c-1.6,0-3.1,0-4.6,0c0-0.5-0.1-0.9-0.1-1.3c0-5,0-9.9,0-14.9c0-1.1,0.3-1.7,1.4-1.5
				c0.1,0,0.3,0,0.4,0c2.2,0,2.2,0,2.6,2c3.4-3.7,8.2-3.1,10.6,0.5c1.2-1.6,2.7-2.6,4.8-2.9c3.4-0.5,6.3,1.3,6.6,4.9
				c0.4,4.3,0.1,8.7,0.1,13.2c-1.3,0-2.8,0-4.4,0c0-3.1,0-6.1,0-9.1c0-0.8,0-1.6-0.2-2.4c-0.4-1.8-1.3-2.6-3.1-2.5
				c-1.6,0.1-2.9,1.2-3,2.8c-0.1,2.6-0.1,5.2-0.1,7.8c0,1.1,0,2.3,0,3.5c-1.6,0-3,0-4.7,0c0-0.8,0-1.6,0-2.4c0-3,0-6-0.2-8.9
				c-0.1-1.8-1.2-2.7-2.8-2.7c-1.7-0.1-3,0.8-3.3,2.6c-0.2,1.4-0.2,2.9-0.2,4.3C52.7,30,52.7,32.3,52.7,34.8z"/>
		</g>
		<g>
			<path fill="#FFFFFF" d="M182.5,18.7c0-3.4,0-6.6,0-9.8c1.5,0,3,0,4.5,0c0,8.7,0,17.2,0,25.9c-1.3,0-2.6,0-3.9,0
				c-0.1-0.6-0.2-1.2-0.2-1.5c-1.4,0.6-2.8,1.6-4.3,1.9c-3.1,0.6-5.7-1-7-3.9c-1.3-3.2-1.3-6.5-0.4-9.8
				C172.6,16.9,178.1,14.8,182.5,18.7z M182.1,28.5c0.4-1.6,0.4-3.3,0.1-4.9c0-0.2-0.1-0.4-0.2-0.6c-0.5-1.4-1.4-2.2-3-2.2
				c-1.6,0-2.7,0.6-3.2,2.2c-0.7,2.1-0.7,4.3,0.1,6.4c0.5,1.4,1.6,2,3,2.1c1.4,0,2.6-0.6,3-2C181.9,29,182,28.8,182.1,28.5z"/>
		</g>
		<g>
			<path fill="#FFFFFF" d="M90.1,19c0.2-0.7,0.3-1.2,0.4-1.8c1.3,0,2.6,0,4,0c0,5.9,0,11.7,0,17.6c-1.3,0-2.6,0-3.9,0
				c-0.1-0.6-0.2-1.2-0.4-2c-1.7,2.1-3.6,2.9-6.1,2.5c-2.5-0.3-4.2-1.8-5.2-4.1c-1.3-3.1-1.3-6.4-0.3-9.6
				C80.3,16.3,86.7,14.9,90.1,19z M89.6,28.4c0.3-1.6,0.3-3.3,0-4.9c-0.1-0.2-0.1-0.5-0.2-0.7c-0.5-1.3-1.5-2.1-3-2.1
				c-1.5,0-2.6,0.6-3.1,2c-0.8,2.1-0.8,4.2-0.1,6.3c0.5,1.3,1.7,2.2,3.1,2.2c1.6,0,2.6-0.7,3.1-2.2C89.5,28.9,89.6,28.6,89.6,28.4z"
				/>
		</g>
		<g>
			<path fill="#FFFFFF" d="M140.7,26.5c0.2-4,1-7.2,4.4-8.9c4-2.1,10.9-1,12,5.9c0.4,2.5,0.3,5-0.7,7.4c-1.3,3-4.3,4.8-7.7,4.6
				c-3.9-0.2-6.4-2.1-7.4-5.6C140.9,28.6,140.8,27.3,140.7,26.5z M145.7,23.7c-0.3,1.5-0.3,3.1,0,4.6c0.1,0.3,0.1,0.5,0.2,0.8
				c0.4,1.4,1.5,2.2,3,2.2c1.5,0,2.7-0.7,3.2-2.2c0.7-2.1,0.7-4.2,0-6.2c-0.5-1.5-1.6-2.2-3.2-2.2c-1.6,0-2.6,0.7-3.1,2.3
				C145.8,23.2,145.7,23.5,145.7,23.7z"/>
		</g>
		<g>
			<path fill="#FFFFFF" d="M114.7,34.8c-1.6,0-3,0-4.6,0c0-2,0-4,0-6c0-1.5,0-3,0-4.5c0-2.5-1.1-3.7-3.1-3.7c-2,0-3.2,1.4-3.2,3.8
				c0,2.9,0,5.8,0,8.7c0,0.5,0,1,0,1.7c-1.6,0-3,0-4.6,0c0-5.8,0-11.7,0-17.6c1.3,0,2.6,0,3.9,0c0.1,0.6,0.3,1.2,0.4,1.7
				c1.2-0.7,2.3-1.6,3.6-2c4.2-1.1,7.3,1.1,7.6,5.7C115,26.6,114.7,30.6,114.7,34.8z"/>
		</g>
		<g>
			<path fill="#FFFFFF" d="M135,21c0,4.8,0,9.3,0,13.8c-1.6,0-2.9,0-4.5,0c0-4.5,0-9,0-13.6c-0.9-0.1-1.7-0.1-2.5-0.2
				c0-1.3,0-2.5,0-3.8c0.8-0.1,1.5-0.1,2.3-0.2c0.1-1.1,0.2-2.1,0.3-3.2c0.5-4,3.5-6.2,7.5-5.4c0.8,0.2,1.2,0.4,1.2,1.3
				c0,0.9,0,1.8,0,2.7c-3.9,0-4.6,0.9-4,4.6c1.2,0,2.5,0,3.9,0c0,1.4,0,2.5,0,3.9C137.8,21,136.5,21,135,21z"/>
		</g>
		<g>
			<path fill="#FFFFFF" d="M161.2,8.8c1.3,0,2.4,0,3.6,0c1,0,0.8,0.7,0.8,1.3c0,3.6,0,7.2,0,10.8c0,2.4,0,4.8,0,7.2
				c0,2.8,0.1,2.8,3,3c0,1.1,0.1,2.2,0,3.2c0,0.3-0.5,0.7-0.9,0.7c-4.8,0.6-6.6-1-6.7-4.9c-0.1-6.9,0-13.8,0-20.8
				C161,9.3,161.1,9.1,161.2,8.8z"/>
		</g>
		<g>
			<path fill="#FFFFFF" d="M124,34.8c-1.5,0-2.9,0-4.5,0c0-5.9,0-11.7,0-17.6c1.5,0,3,0,4.5,0C124,23.1,124,28.9,124,34.8z"/>
		</g>
		<g>
			<path fill="#FFFFFF" d="M121.8,14.2c-1.6,0-2.5-0.8-2.5-2.2c0-1.4,1-2.3,2.6-2.3c1.4,0,2.4,0.9,2.4,2.1
				C124.4,13.2,123.3,14.2,121.8,14.2z"/>
		</g>
	</g>
</g>
</svg>
