<svg width="80" height="77" viewBox="0 0 80 77" fill="none" xmlns="http://www.w3.org/2000/svg">
<g filter="url(#filter0_d_1737_28819)">
<path d="M40.6407 38.6852C40.1895 38.6852 39.7597 38.6108 39.3514 38.462C38.9431 38.3132 38.5886 38.1108 38.2877 37.8548C37.9869 37.5989 37.7434 37.3013 37.5571 36.962C37.3709 36.6227 37.2778 36.2656 37.2778 35.8906V28.9084C37.2778 28.5334 37.3673 28.1763 37.5464 27.837C37.7255 27.4977 37.969 27.2031 38.277 26.9531C38.585 26.7031 38.9431 26.5007 39.3514 26.3459C39.7597 26.1912 40.1895 26.1138 40.6407 26.1138H46.2922C46.7434 26.1138 47.1732 26.1882 47.5815 26.337C47.9898 26.4858 48.3443 26.6882 48.6452 26.9441C48.946 27.2001 49.1895 27.4977 49.3758 27.837C49.562 28.1763 49.6551 28.5334 49.6551 28.9084V35.8906C49.6551 36.2656 49.5656 36.6227 49.3865 36.962C49.2074 37.3013 48.9639 37.5959 48.6559 37.8459C48.3479 38.0959 47.9898 38.2983 47.5815 38.4531C47.1732 38.6078 46.7434 38.6852 46.2922 38.6852H40.6407ZM46.217 37.5423C46.4963 37.5423 46.7613 37.4977 47.012 37.4084C47.2627 37.3191 47.4812 37.1971 47.6674 37.0423C47.8537 36.8876 48.0041 36.7031 48.1187 36.4888C48.2333 36.2745 48.287 36.0542 48.2799 35.8281V28.9709C48.2799 28.7388 48.2261 28.5185 48.1187 28.3102C48.0113 28.1019 47.8644 27.9203 47.6782 27.7656C47.492 27.6108 47.2699 27.4858 47.012 27.3906C46.7542 27.2953 46.4892 27.2507 46.217 27.2566H40.7159C40.4366 27.2566 40.1716 27.3013 39.9209 27.3906C39.6702 27.4798 39.4517 27.6019 39.2655 27.7566C39.0792 27.9114 38.9288 28.0959 38.8142 28.3102C38.6996 28.5245 38.6459 28.7447 38.653 28.9709V35.8281C38.653 36.0602 38.7068 36.2804 38.8142 36.4888C38.9217 36.6971 39.0685 36.8787 39.2547 37.0334C39.441 37.1882 39.663 37.3132 39.9209 37.4084C40.1787 37.5037 40.4437 37.5483 40.7159 37.5423H46.217ZM33.7644 42.1138C33.3132 42.1138 32.8834 42.0394 32.4751 41.8906C32.0668 41.7417 31.7123 41.5394 31.4114 41.2834C31.1106 41.0275 30.8671 40.7298 30.6808 40.3906C30.4946 40.0513 30.4015 39.6941 30.4015 39.3191V32.337C30.4015 31.962 30.491 31.6048 30.6701 31.2656C30.8492 30.9263 31.0927 30.6316 31.4007 30.3816C31.7087 30.1316 32.0668 29.9292 32.4751 29.7745C32.8834 29.6197 33.3132 29.5423 33.7644 29.5423H35.3311C35.6467 29.5423 35.9025 29.7982 35.9025 30.1138C35.9025 30.4294 35.6467 30.6852 35.3311 30.6852H33.8396C33.5603 30.6852 33.2953 30.7298 33.0446 30.8191C32.7939 30.9084 32.5754 31.0304 32.3892 31.1852C32.2029 31.34 32.0525 31.5245 31.9379 31.7388C31.8233 31.9531 31.7696 32.1733 31.7767 32.3995V39.2566C31.7767 39.4888 31.8305 39.709 31.9379 39.9173C32.0454 40.1257 32.1922 40.3072 32.3784 40.462C32.5647 40.6167 32.7867 40.7417 33.0446 40.837C33.3024 40.9322 33.5675 40.9769 33.8396 40.9709H39.3407C39.5627 40.9709 39.774 40.9441 39.9746 40.8906C40.1751 40.837 40.3614 40.7596 40.5333 40.6584C40.7052 40.5572 40.8556 40.4382 40.9845 40.3013C41 40.2849 41.015 40.2682 41.0296 40.2512C41.2253 40.0238 41.4821 39.8281 41.7821 39.8281C42.2573 39.8281 42.604 40.2826 42.3323 40.6724C42.3168 40.6947 42.3009 40.7168 42.2846 40.7388C42.0769 41.0185 41.819 41.2596 41.511 41.462C41.203 41.6644 40.8664 41.8221 40.501 41.9352C40.1357 42.0483 39.749 42.1078 39.3407 42.1138H33.7644Z" fill="#4F3FB6"/>
</g>
<defs>
<filter id="filter0_d_1737_28819" x="0.401489" y="0.11377" width="79.2537" height="76" filterUnits="userSpaceOnUse" color-interpolation-filters="sRGB">
<feFlood flood-opacity="0" result="BackgroundImageFix"/>
<feColorMatrix in="SourceAlpha" type="matrix" values="0 0 0 0 0 0 0 0 0 0 0 0 0 0 0 0 0 0 127 0" result="hardAlpha"/>
<feOffset dy="4"/>
<feGaussianBlur stdDeviation="15"/>
<feComposite in2="hardAlpha" operator="out"/>
<feColorMatrix type="matrix" values="0 0 0 0 0 0 0 0 0 0 0 0 0 0 0 0 0 0 0.08 0"/>
<feBlend mode="normal" in2="BackgroundImageFix" result="effect1_dropShadow_1737_28819"/>
<feBlend mode="normal" in="SourceGraphic" in2="effect1_dropShadow_1737_28819" result="shape"/>
</filter>
</defs>
</svg>
