<svg width="22" height="23" viewBox="0 0 22 23" fill="none" xmlns="http://www.w3.org/2000/svg">
	<path d="M11.6958 17.75C11.1831 17.75 10.6948 17.6483 10.231 17.4448C9.76709 17.2332 9.36019 16.9565 9.01025 16.6147C8.66846 16.2648 8.39176 15.8579 8.18018 15.394C7.97673 14.9302 7.875 14.4419 7.875 13.9292V4.3833C7.875 3.87061 7.97673 3.38232 8.18018 2.91846C8.39176 2.45459 8.66846 2.05176 9.01025 1.70996C9.36019 1.36003 9.76709 1.08333 10.231 0.879883C10.6948 0.668294 11.1831 0.5625 11.6958 0.5625H18.1167C18.6294 0.5625 19.1177 0.668294 19.5815 0.879883C20.0454 1.08333 20.4482 1.36003 20.79 1.70996C21.14 2.05176 21.4167 2.45459 21.6201 2.91846C21.8317 3.38232 21.9375 3.87061 21.9375 4.3833V13.9292C21.9375 14.4419 21.8317 14.9302 21.6201 15.394C21.4167 15.8579 21.14 16.2648 20.79 16.6147C20.4482 16.9565 20.0454 17.2332 19.5815 17.4448C19.1177 17.6483 18.6294 17.75 18.1167 17.75H11.6958ZM18.0312 16.1875C18.3486 16.1875 18.6497 16.1265 18.9346 16.0044C19.2194 15.8823 19.4676 15.7155 19.6792 15.5039C19.8989 15.2842 20.0698 15.0319 20.1919 14.7471C20.314 14.4622 20.375 14.1611 20.375 13.8438V4.46875C20.375 4.15137 20.314 3.85026 20.1919 3.56543C20.0698 3.2806 19.8989 3.03239 19.6792 2.8208C19.4676 2.60107 19.2194 2.43018 18.9346 2.30811C18.6497 2.18604 18.3486 2.125 18.0312 2.125H11.7812C11.4639 2.125 11.1628 2.18604 10.8779 2.30811C10.5931 2.43018 10.3408 2.60107 10.1211 2.8208C9.90951 3.03239 9.74268 3.2806 9.62061 3.56543C9.49854 3.85026 9.4375 4.15137 9.4375 4.46875V13.8438C9.4375 14.1611 9.49854 14.4622 9.62061 14.7471C9.74268 15.0319 9.90951 15.2842 10.1211 15.5039C10.3408 15.7155 10.5931 15.8823 10.8779 16.0044C11.1628 16.1265 11.4639 16.1875 11.7812 16.1875H18.0312ZM3.8833 22.4375C3.37061 22.4375 2.88232 22.3358 2.41846 22.1323C1.95459 21.9207 1.54769 21.644 1.19775 21.3022C0.855957 20.9523 0.579264 20.5454 0.367676 20.0815C0.164225 19.6177 0.0625 19.1294 0.0625 18.6167V9.0708C0.0625 8.55811 0.164225 8.06982 0.367676 7.60596C0.579264 7.14209 0.855957 6.73926 1.19775 6.39746C1.54769 6.04753 1.95459 5.77083 2.41846 5.56738C2.88232 5.35579 3.37061 5.25 3.8833 5.25H6.3125V6.8125H3.96875C3.65137 6.8125 3.35026 6.87354 3.06543 6.99561C2.7806 7.11768 2.52832 7.28857 2.30859 7.5083C2.09701 7.71989 1.93018 7.9681 1.80811 8.25293C1.68604 8.53776 1.625 8.83887 1.625 9.15625V18.5312C1.625 18.8486 1.68604 19.1497 1.80811 19.4346C1.93018 19.7194 2.09701 19.9717 2.30859 20.1914C2.52832 20.403 2.7806 20.5698 3.06543 20.6919C3.35026 20.814 3.65137 20.875 3.96875 20.875H10.2188C10.471 20.875 10.7111 20.8384 10.939 20.7651C11.1668 20.6919 11.3784 20.5861 11.5737 20.4478C11.769 20.3094 11.9399 20.1466 12.0864 19.9595C12.2329 19.7642 12.3468 19.5485 12.4282 19.3125H14.0518C13.9622 19.7601 13.7954 20.1751 13.5513 20.5576C13.3153 20.9401 13.0264 21.2697 12.6846 21.5464C12.3428 21.8231 11.9603 22.0428 11.5371 22.2056C11.1139 22.3602 10.6745 22.4375 10.2188 22.4375H3.8833Z" fill="#292C3A"/>
</svg>