<svg width="17" height="17" viewBox="0 0 17 17" fill="none" xmlns="http://www.w3.org/2000/svg">
<path d="M8.6843 12.967C8.3093 12.967 7.95209 12.8926 7.61279 12.7438C7.27349 12.595 6.97889 12.3926 6.72889 12.1366C6.47889 11.8807 6.2765 11.583 6.1218 11.2438C5.967 10.9045 5.8896 10.5473 5.8896 10.1723V3.19021C5.8896 2.81521 5.96399 2.45801 6.11279 2.11881C6.26159 1.77951 6.46399 1.48481 6.71999 1.23481C6.97589 0.984808 7.27349 0.782507 7.61279 0.627707C7.95209 0.472907 8.3093 0.395508 8.6843 0.395508H13.3807C13.7557 0.395508 14.1128 0.470007 14.4521 0.618807C14.7914 0.767607 15.086 0.970006 15.336 1.22591C15.586 1.48191 15.7884 1.77951 15.9432 2.11881C16.098 2.45801 16.1753 2.81521 16.1753 3.19021V10.1723C16.1753 10.5473 16.1009 10.9045 15.9521 11.2438C15.8033 11.583 15.6009 11.8777 15.345 12.1277C15.089 12.3777 14.7914 12.5801 14.4521 12.7348C14.1128 12.8896 13.7557 12.967 13.3807 12.967H8.6843ZM13.3182 11.8241C13.5503 11.8241 13.7706 11.7795 13.9789 11.6902C14.1872 11.6009 14.3688 11.4789 14.5235 11.3241C14.6783 11.1694 14.8033 10.9848 14.8985 10.7705C14.9938 10.5563 15.0384 10.336 15.0325 10.1098V3.25271C15.0325 3.02051 14.9878 2.80031 14.8985 2.59201C14.8093 2.38361 14.6872 2.20211 14.5325 2.04731C14.3777 1.89261 14.1932 1.76761 13.9789 1.67231C13.7646 1.57711 13.5444 1.53251 13.3182 1.53841H8.7468C8.5146 1.53841 8.29439 1.58301 8.08599 1.67231C7.87769 1.76161 7.69619 1.88361 7.54139 2.03841C7.38659 2.19321 7.26159 2.37771 7.16639 2.59201C7.07119 2.80631 7.02649 3.02651 7.03249 3.25271V10.1098C7.03249 10.342 7.07709 10.5622 7.16639 10.7705C7.25569 10.9789 7.37769 11.1604 7.53249 11.3152C7.68719 11.47 7.87179 11.595 8.08599 11.6902C8.30029 11.7854 8.5206 11.8301 8.7468 11.8241H13.3182ZM2.96999 16.3955C2.59499 16.3955 2.23779 16.3211 1.89849 16.1723C1.55929 16.0235 1.26459 15.8211 1.01459 15.5652C0.764593 15.3092 0.562194 15.0116 0.407494 14.6723C0.252694 14.333 0.175293 13.9759 0.175293 13.6009V6.61881C0.175293 6.24381 0.249695 5.88661 0.398495 5.54731C0.547395 5.20801 0.749693 4.91341 1.00569 4.66341C1.26159 4.41341 1.55929 4.21101 1.89849 4.05631C2.23779 3.90151 2.59499 3.82411 2.96999 3.82411H4.17529C4.49089 3.82411 4.7468 4.08001 4.7468 4.39551C4.7468 4.71111 4.49089 4.96701 4.17529 4.96701H3.03249C2.80029 4.96701 2.5801 5.01161 2.3718 5.10091C2.1634 5.19021 1.98189 5.31221 1.82709 5.46701C1.67239 5.62171 1.54739 5.80631 1.45209 6.02051C1.35689 6.23481 1.31219 6.45511 1.31819 6.68131V13.5384C1.31819 13.7705 1.36279 13.9908 1.45209 14.1991C1.54139 14.4075 1.66339 14.589 1.81819 14.7438C1.97299 14.8985 2.1575 15.0235 2.3718 15.1188C2.586 15.214 2.80629 15.2586 3.03249 15.2527H7.60389C7.78839 15.2527 7.964 15.2259 8.1307 15.1723C8.2974 15.1188 8.45209 15.0414 8.59499 14.9402C8.73779 14.839 8.86279 14.72 8.96999 14.583C8.98979 14.5577 9.00879 14.5317 9.02699 14.5049C9.17509 14.2871 9.3976 14.1098 9.661 14.1098C10.0472 14.1098 10.3398 14.4689 10.166 14.8137C10.1306 14.8841 10.092 14.953 10.0503 15.0205C9.87769 15.3003 9.66339 15.5414 9.40749 15.7438C9.15149 15.9461 8.8718 16.1039 8.5682 16.217C8.2646 16.3301 7.94319 16.3896 7.60389 16.3955H2.96999Z" fill="#4F3FB6"/>
</svg>
