<svg width="20" height="20" viewBox="0 0 20 20" fill="none" xmlns="http://www.w3.org/2000/svg">
<path d="M10 0C10.918 0 11.8034 0.117188 12.6562 0.351562C13.5091 0.585938 14.3034 0.924479 15.0391 1.36719C15.7747 1.8099 16.4486 2.33073 17.0605 2.92969C17.6725 3.52865 18.1966 4.20247 18.6328 4.95117C19.069 5.69987 19.4043 6.4974 19.6387 7.34375C19.873 8.1901 19.9935 9.07552 20 10C20 10.918 19.8828 11.8034 19.6484 12.6562C19.4141 13.5091 19.0755 14.3034 18.6328 15.0391C18.1901 15.7747 17.6693 16.4486 17.0703 17.0605C16.4714 17.6725 15.7975 18.1966 15.0488 18.6328C14.3001 19.069 13.5026 19.4043 12.6562 19.6387C11.8099 19.873 10.9245 19.9935 10 20C9.08203 20 8.19661 19.8828 7.34375 19.6484C6.49089 19.4141 5.69661 19.0755 4.96094 18.6328C4.22526 18.1901 3.55143 17.6693 2.93945 17.0703C2.32747 16.4714 1.80339 15.7975 1.36719 15.0488C0.93099 14.3001 0.595703 13.5026 0.361328 12.6562C0.126953 11.8099 0.00651042 10.9245 0 10C0 9.08203 0.117188 8.19661 0.351562 7.34375C0.585938 6.49089 0.924479 5.69661 1.36719 4.96094C1.8099 4.22526 2.33073 3.55143 2.92969 2.93945C3.52865 2.32747 4.20247 1.80339 4.95117 1.36719C5.69987 0.93099 6.4974 0.595703 7.34375 0.361328C8.1901 0.126953 9.07552 0.00651042 10 0ZM18.75 10C18.75 9.19271 18.6458 8.41797 18.4375 7.67578C18.2292 6.93359 17.9362 6.23698 17.5586 5.58594C17.181 4.9349 16.7253 4.3457 16.1914 3.81836C15.6576 3.29102 15.0684 2.83529 14.4238 2.45117C13.7793 2.06706 13.0827 1.77083 12.334 1.5625C11.5853 1.35417 10.8073 1.25 10 1.25C9.19271 1.25 8.41797 1.35417 7.67578 1.5625C6.93359 1.77083 6.23698 2.0638 5.58594 2.44141C4.9349 2.81901 4.3457 3.27474 3.81836 3.80859C3.29102 4.34245 2.83529 4.93164 2.45117 5.57617C2.06706 6.2207 1.77083 6.91732 1.5625 7.66602C1.35417 8.41471 1.25 9.19271 1.25 10C1.25 10.8073 1.35417 11.582 1.5625 12.3242C1.77083 13.0664 2.0638 13.763 2.44141 14.4141C2.81901 15.0651 3.27474 15.6543 3.80859 16.1816C4.34245 16.709 4.93164 17.1647 5.57617 17.5488C6.2207 17.9329 6.91732 18.2292 7.66602 18.4375C8.41471 18.6458 9.19271 18.75 10 18.75C10.8073 18.75 11.582 18.6458 12.3242 18.4375C13.0664 18.2292 13.763 17.9362 14.4141 17.5586C15.0651 17.181 15.6543 16.7253 16.1816 16.1914C16.709 15.6576 17.1647 15.0684 17.5488 14.4238C17.9329 13.7793 18.2292 13.0827 18.4375 12.334C18.6458 11.5853 18.75 10.8073 18.75 10ZM11.25 13.75V6.25H12.5V13.75H11.25ZM7.5 13.75V6.25H8.75V13.75H7.5Z" fill="#4F3FB6"/>
</svg>
