<svg version="1.0" xmlns="http://www.w3.org/2000/svg" viewBox="0 0 361 223"><g fill="#FFF" stroke-width="0"><path d="M0 111.5V223h361V0H0v111.5zM268.5 8.7c22.9 5.3 40.3 15 55.7 31.1 9.4 9.8 12.8 14.8 18.8 27.5 6.7 14.1 9.2 24.2 9.7 40.2.6 15-.9 25.3-5.8 39.3-10.5 29.8-36.6 54.8-67.4 64.5-16 5-19.3 5.2-101.5 5.2-69.6 0-77.3-.2-85.3-1.8-44.1-9-77.1-41.4-85.1-83.7-3-15.5-1.7-37 3-51.5C16.9 60.1 31.2 40.2 47.4 28c7.5-5.6 23-13.5 32.1-16.3 7.2-2.2 16.7-4.1 26.5-5.1 1.9-.2 37.3-.3 78.5-.1 71.8.1 75.4.2 84 2.2z"/><path d="M107.4 78c-18.8 2.8-31.5 17.9-30.2 35.9 1.2 15.7 12.7 28 29.2 31 7.9 1.5 136.6 1.5 145.5.1 12-2 20.7-8 26.2-18.2 3-5.7 3.3-7.1 3.4-14.8 0-7.7-.3-9.2-3.3-15.3-3.9-7.9-9.9-13.2-18.9-16.9l-5.8-2.3-70.5-.1c-38.8-.1-72.8.1-75.6.6z"/></g><path d="M144.3 6.7c19.7.2 51.7.2 71 0 19.4-.1 3.3-.2-35.8-.2-39 0-54.9.1-35.2.2zm.5 210c19.5.2 51 .2 70 0 19.1-.1 3.2-.2-35.3-.2s-54.1.1-34.7.2z" fill="#CCC"/><path d="M106.5 7.7C58.8 11.5 21.4 41.6 9.9 85.6c-2 7.6-2.4 11.3-2.4 25.4 0 14.2.3 17.9 2.4 26 4.7 18.4 14.2 35 27.9 48.2 17.4 17 39.5 27.1 65.4 29.8 12.6 1.3 138.7 1.3 151.9 0 47.9-4.8 82.7-34.4 94.6-80.5 1.4-5.4 1.8-10.7 1.7-23.5 0-14.7-.3-17.6-2.7-26.3-4.9-17.8-12.6-31.3-25.5-44.9C306 21.8 283.1 11 255.8 8c-8.7-.9-138.3-1.2-149.3-.3zm151.2 70.8c14.7 4.4 25.3 18.3 25.3 33.4 0 10.5-6.3 22-15.7 28.3-8.5 5.8-9 5.8-88.5 5.8-72 0-72.8 0-79.4-2.2-26.4-8.6-31.5-44-8.8-60.1 9.6-6.8 6-6.5 88-6.6 63.3-.1 74.8.1 79.1 1.4z"/></svg>