<svg width="35" height="24" viewBox="0 0 35 24" fill="none" xmlns="http://www.w3.org/2000/svg">
<path d="M1.48545 7.77344C1.07193 7.77344 0.72107 7.91764 0.432659 8.20605C0.144249 8.49446 0 8.84055 0 9.24448V15.4464C0 15.8604 0.144205 16.211 0.432659 16.4994C0.72107 16.7878 1.07193 16.9321 1.48545 16.9321C1.89867 16.9321 2.2474 16.7879 2.53134 16.4994C2.81471 16.211 2.95679 15.8604 2.95679 15.4464V9.24448C2.95679 8.8405 2.81259 8.49446 2.52413 8.20605C2.23568 7.91764 1.88938 7.77344 1.48545 7.77344Z" fill="black"/>
<path d="M13.4277 2.20655L14.4518 0.317433C14.519 0.192365 14.4951 0.0964598 14.3798 0.0290223C14.2547 -0.0291284 14.1586 0.000337532 14.0914 0.115337L13.053 2.01956C12.1393 1.61558 11.1729 1.41323 10.1539 1.41323C9.13458 1.41323 8.1681 1.61563 7.25475 2.01956L6.21632 0.115337C6.14884 0.000337532 6.05272 -0.028868 5.92791 0.0290223C5.81239 0.0967636 5.78848 0.192365 5.85596 0.317433L6.88006 2.20655C5.84164 2.73611 5.0146 3.47363 4.39924 4.42071C3.78388 5.3683 3.47607 6.40382 3.47607 7.52908H16.8172C16.8172 6.40408 16.5093 5.36852 15.894 4.42071C15.2786 3.47363 14.4563 2.73611 13.4277 2.20655ZM7.50705 4.9543C7.3963 5.06531 7.26403 5.12055 7.11028 5.12055C6.95622 5.12055 6.82664 5.06531 6.72093 4.9543C6.61522 4.84382 6.56236 4.71207 6.56236 4.55779C6.56236 4.40404 6.61522 4.27203 6.72093 4.16128C6.82664 4.0508 6.95653 3.99555 7.11028 3.99555C7.26403 3.99555 7.3963 4.0508 7.50705 4.16128C7.61754 4.27229 7.67304 4.40404 7.67304 4.55779C7.67274 4.71181 7.61728 4.84382 7.50705 4.9543ZM13.5862 4.9543C13.4803 5.06531 13.3504 5.12055 13.1969 5.12055C13.0428 5.12055 12.9106 5.06531 12.8001 4.9543C12.6894 4.84382 12.6341 4.71207 12.6341 4.55779C12.6341 4.40404 12.6894 4.27203 12.8001 4.16128C12.9106 4.0508 13.0428 3.99555 13.1969 3.99555C13.3507 3.99555 13.4803 4.0508 13.5862 4.16128C13.692 4.27229 13.7448 4.40404 13.7448 4.55779C13.7448 4.71181 13.692 4.84382 13.5862 4.9543Z" fill="black"/>
<path d="M3.5332 17.6538C3.5332 18.0965 3.68696 18.4713 3.9945 18.7788C4.30231 19.0864 4.67708 19.2401 5.1195 19.2401H6.18687L6.2015 22.5145C6.2015 22.928 6.3457 23.2791 6.63411 23.5676C6.92252 23.856 7.26887 24.0002 7.67254 24.0002C8.0858 24.0002 8.43687 23.856 8.72533 23.5676C9.01378 23.2791 9.15799 22.928 9.15799 22.5145V19.2404H11.1483V22.5145C11.1483 22.928 11.2925 23.2791 11.5809 23.5676C11.8694 23.856 12.2201 24.0002 12.6337 24.0002C13.047 24.0002 13.398 23.856 13.6865 23.5676C13.975 23.2791 14.1191 22.928 14.1191 22.5145V19.2404H15.2009C15.6335 19.2404 16.0035 19.0866 16.3116 18.7791C16.6191 18.4715 16.7729 18.0967 16.7729 17.6541V8.04785H3.5332V17.6538Z" fill="black"/>
<path d="M18.8222 7.77344C18.4182 7.77344 18.0721 7.91552 17.7837 8.19889C17.4953 8.48279 17.3511 8.83152 17.3511 9.24448V15.4464C17.3511 15.8604 17.4952 16.211 17.7837 16.4994C18.0721 16.7879 18.4184 16.9321 18.8222 16.9321C19.2354 16.9321 19.5865 16.7879 19.8749 16.4994C20.1634 16.211 20.3076 15.8604 20.3076 15.4464V9.24448C20.3076 8.83148 20.1634 8.48279 19.8749 8.19889C19.5865 7.91552 19.2354 7.77344 18.8222 7.77344Z" fill="black"/>
</svg>
