<?xml version="1.0" encoding="utf-8"?>
<svg viewBox="0 0 20.927 24.537" xmlns="http://www.w3.org/2000/svg">
  <path d="M 1.791 8.022 C 1.377 8.022 1.026 8.166 0.738 8.455 C 0.449 8.743 0.305 9.089 0.305 9.493 L 0.305 15.695 C 0.305 16.109 0.449 16.459 0.738 16.748 C 1.026 17.036 1.377 17.181 1.791 17.181 C 2.204 17.181 2.552 17.036 2.836 16.748 C 3.12 16.459 3.262 16.109 3.262 15.695 L 3.262 9.493 C 3.262 9.089 3.118 8.743 2.829 8.455 C 2.541 8.166 2.194 8.022 1.791 8.022 Z" fill="black"/>
  <path d="M 13.733 2.455 L 14.757 0.566 C 14.824 0.441 14.8 0.345 14.685 0.278 C 14.56 0.219 14.464 0.249 14.396 0.364 L 13.358 2.268 C 12.444 1.864 11.478 1.662 10.459 1.662 C 9.44 1.662 8.473 1.864 7.56 2.268 L 6.521 0.364 C 6.454 0.249 6.358 0.22 6.233 0.278 C 6.117 0.345 6.094 0.441 6.161 0.566 L 7.185 2.455 C 6.147 2.985 5.32 3.722 4.704 4.669 C 4.089 5.617 3.781 6.652 3.781 7.778 L 17.122 7.778 C 17.122 6.653 16.814 5.617 16.199 4.669 C 15.584 3.722 14.761 2.985 13.733 2.455 Z M 7.812 5.203 C 7.701 5.314 7.569 5.369 7.415 5.369 C 7.261 5.369 7.132 5.314 7.026 5.203 C 6.92 5.092 6.867 4.961 6.867 4.806 C 6.867 4.653 6.92 4.521 7.026 4.41 C 7.132 4.299 7.262 4.244 7.415 4.244 C 7.569 4.244 7.701 4.299 7.812 4.41 C 7.923 4.521 7.978 4.653 7.978 4.806 C 7.978 4.96 7.922 5.092 7.812 5.203 Z M 13.891 5.203 C 13.785 5.314 13.655 5.369 13.502 5.369 C 13.348 5.369 13.216 5.314 13.105 5.203 C 12.994 5.092 12.939 4.961 12.939 4.806 C 12.939 4.653 12.994 4.521 13.105 4.41 C 13.216 4.299 13.348 4.244 13.502 4.244 C 13.656 4.244 13.785 4.299 13.891 4.41 C 13.997 4.521 14.05 4.653 14.05 4.806 C 14.05 4.96 13.997 5.092 13.891 5.203 Z" fill="black"/>
  <path d="M 3.838 17.902 C 3.838 18.345 3.992 18.72 4.3 19.027 C 4.607 19.335 4.982 19.489 5.425 19.489 L 6.492 19.489 L 6.507 22.763 C 6.507 23.176 6.651 23.528 6.939 23.816 C 7.228 24.104 7.574 24.249 7.978 24.249 C 8.391 24.249 8.742 24.104 9.03 23.816 C 9.319 23.528 9.463 23.176 9.463 22.763 L 9.463 19.489 L 11.453 19.489 L 11.453 22.763 C 11.453 23.176 11.598 23.528 11.886 23.816 C 12.174 24.104 12.525 24.249 12.939 24.249 C 13.352 24.249 13.703 24.104 13.992 23.816 C 14.28 23.528 14.424 23.176 14.424 22.763 L 14.424 19.489 L 15.506 19.489 C 15.939 19.489 16.309 19.335 16.617 19.028 C 16.924 18.72 17.078 18.345 17.078 17.903 L 17.078 8.296 L 3.838 8.296 L 3.838 17.902 Z" fill="black"/>
  <path d="M 19.127 8.022 C 18.723 8.022 18.377 8.164 18.089 8.447 C 17.8 8.731 17.656 9.08 17.656 9.493 L 17.656 15.695 C 17.656 16.109 17.8 16.459 18.089 16.748 C 18.377 17.036 18.723 17.181 19.127 17.181 C 19.54 17.181 19.892 17.036 20.18 16.748 C 20.468 16.459 20.613 16.109 20.613 15.695 L 20.613 9.493 C 20.613 9.08 20.468 8.731 20.18 8.447 C 19.892 8.164 19.54 8.022 19.127 8.022 Z" fill="black"/>
</svg>