<svg width="35" height="24" viewBox="390.325 392.398 621.451 414.064" xmlns="http://www.w3.org/2000/svg">
  <path d="M832,400c-49.3564,0-87.9391,37.1744-122.8656,84.3973C661.1389,423.2861,621,400,572.9655,400,475.0345,400,400,527.4483,400,662.3448,400,746.7586,440.8383,800,509.2414,800c49.2322,0,84.64-23.21,147.5862-133.2414,0,0,26.2389-46.3365,44.29-78.2554q9.4881,15.3191,19.9859,33.014l29.5172,49.6552C808.12,767.3916,840.1561,800,898.2069,800c66.6383,0,103.7242-53.9693,103.7242-140.1379C1001.9311,518.6207,925.2047,400,832,400ZM608.8276,636.9655c-51.0345,80-68.69,97.931-97.1035,97.931-29.2413,0-46.6206-25.6713-46.6206-71.4482,0-97.931,48.8275-198.069,107.0344-198.069,31.5206,0,57.8616,18.2042,98.209,75.9653C632.0352,600.1089,608.8276,636.9655,608.8276,636.9655Zm192.6113-10.0712L766.147,568.0351q-14.3262-23.2994-27.5354-42.8921c31.8079-49.0941,58.0454-73.5568,89.2505-73.5568,64.8276,0,116.69,95.4483,116.69,212.69,0,44.69-14.6373,70.6206-44.9655,70.6206C870.518,734.8965,856.6315,715.699,801.4389,626.8943Z"/>
</svg>
