<?xml version="1.0" standalone="no"?>
<!DOCTYPE svg PUBLIC "-//W3C//DTD SVG 1.1//EN" "http://www.w3.org/Graphics/SVG/1.1/DTD/svg11.dtd" >
<svg xmlns="http://www.w3.org/2000/svg">
<metadata>
Created by FontPrep 20130207 at Wed Apr 15 10:03:03 2015
 By Jason Pitman
Copyright (c) 2011, TypeTogether (www.type-together.com), with Reserved Font Names "Bree" and "Bree Serif"
</metadata>
<defs>
<font id="65485b48d4fb32dd0130a508c61d08ce" horiz-adv-x='1024' >
  <font-face 
    font-family="BreeSerif-Regular"
    font-weight="400"
    font-stretch="normal"
    units-per-em="2048"
    panose-1="2 0 5 3 4 0 0 2 0 4"
    ascent="1638"
    descent="-410"
    x-height="1030"
    cap-height="1362"
    bbox="-236 -575 2048 2206"
    underline-thickness="102"
    underline-position="-102"
    unicode-range="U+000D-FB04"
  />
<missing-glyph 
 />
    <glyph glyph-name=".notdef" 
 />
    <glyph glyph-name=".null" horiz-adv-x="0" 
 />
    <glyph glyph-name=".null" horiz-adv-x="0" 
 />
    <glyph glyph-name="nonmarkingreturn" horiz-adv-x="681" 
 />
    <glyph glyph-name="CR" unicode="&#xd;" horiz-adv-x="450" 
 />
    <glyph glyph-name="space" unicode=" " horiz-adv-x="409" 
 />
    <glyph glyph-name="exclam" unicode="!" horiz-adv-x="567" 
d="M143 100q0 58 39 98q40 40 102 40t101 -38t39 -96t-38 -98q-38 -41 -102 -41t-103 39q-38 39 -38 96zM172 1327q0 96 115 96t114 -100v-240l-41 -714h-145l-43 714v244z" />
    <glyph glyph-name="quotedbl" unicode="&#x22;" horiz-adv-x="714" 
d="M408 1362h190l-18 -471h-152zM115 1362h190l-20 -471h-150z" />
    <glyph glyph-name="numbersign" unicode="#" horiz-adv-x="1093" 
d="M434 776l-28 -319h225l28 319h-225zM37 322v135h219l29 319h-209v135h219l31 328h149l-31 -328h226l30 328h150l-31 -328h207v-135h-217l-29 -319h207v-135h-219l-27 -322h-149l26 322h-225l-26 -322h-150l27 322h-207z" />
    <glyph glyph-name="dollar" unicode="$" horiz-adv-x="1095" 
d="M365 1002q0 -104 106 -154v295q-106 -37 -106 -141zM741 401q0 102 -116 150v-320q116 37 116 170zM471 -186v204q-197 6 -352 78v305l203 15v-119q0 -29 8 -42t43 -25t98 -13v383q-159 45 -231 100q-72 54 -100 118t-27 151q0 152 97 251t261 121v189h154v-184
q172 -10 317 -78v-289l-201 -12v110q0 29 -8 42t-42 23t-66 13v-360h2q156 -47 250 -119q119 -86 119 -256t-102 -270q-101 -100 -269 -125v-211h-154z" />
    <glyph glyph-name="percent" unicode="%" horiz-adv-x="1640" 
d="M600 -18l-162 73l598 1282l166 -69zM389 739q141 1 141 233t-141 232t-141 -232t141 -233zM711 977q0 -183 -85 -281t-240 -98q-156 0 -236 94t-80 276t88 280t236 98t232 -92t85 -277zM1112 346q0 -232 141 -233q141 0 142 232q0 232 -140 233q-143 0 -143 -232z
M1258 719q148 0 232 -92q84 -93 85 -277q0 -184 -85 -281t-240 -97q-156 0 -236 94t-80 276t88 280q88 97 236 97z" />
    <glyph glyph-name="ampersand" unicode="&#x26;" horiz-adv-x="1462" 
d="M340 403q0 -104 64 -169q64 -64 206 -64q140 0 226 96q-246 209 -371 377q-125 -88 -125 -240zM1012 639q0 29 -37 33l-66 4v160h432v-166l-112 -4q0 -197 -86 -361q92 -78 258 -196l-135 -179q-123 82 -258 193q-152 -152 -410 -152t-377 121t-119 295q0 270 250 426
q-63 104 -63 225q0 156 104 252q103 96 293 96t371 -83v-310l-209 -14v125q0 57 -43 72q-55 16 -109 16q-166 0 -166 -158q1 -208 443 -583q39 98 39 188z" />
    <glyph glyph-name="quotesingle" unicode="'" horiz-adv-x="419" 
d="M115 1362h190l-20 -471h-150z" />
    <glyph glyph-name="parenleft" unicode="(" horiz-adv-x="677" 
d="M383 572q0 -392 221 -840l-192 -92q-538 914 0 1853l194 -90q-223 -439 -223 -831z" />
    <glyph glyph-name="parenright" unicode=")" horiz-adv-x="677" 
d="M295 565q0 391 -221 840l192 92q538 -914 0 -1853l-194 90q223 440 223 831z" />
    <glyph glyph-name="asterisk" unicode="*" horiz-adv-x="925" 
d="M486 1546q26 0 55 -30t14 -91l-37 -202l240 151l51 -74q23 -37 22 -61q0 -82 -90 -88l-190 -16l221 -164l-51 -74q-37 -49 -84 -49t-80 61l-98 183l-140 -252l-81 39q-62 29 -62 79t49 82l142 101l-275 45l14 90q13 86 87 86l65 -25l158 -110l-66 291l86 22q24 6 50 6z
" />
    <glyph glyph-name="plus" unicode="+" horiz-adv-x="1095" 
d="M442 745v330h209v-330h316v-200h-316v-328h-209v328h-315v200h315z" />
    <glyph glyph-name="comma" unicode="," horiz-adv-x="493" 
d="M414 162l-211 -479l-129 38l63 416q14 102 101 103q42 0 66 -14t41 -22q31 -16 69 -42z" />
    <glyph glyph-name="hyphen" unicode="-" horiz-adv-x="659" 
d="M61 496v188h537v-188h-537z" />
    <glyph glyph-name="period" unicode="." horiz-adv-x="462" 
d="M82 114q0 64 40 106t108 42t110 -40q41 -40 41 -104t-39 -107q-38 -42 -110 -42t-111 40t-39 105z" />
    <glyph glyph-name="slash" unicode="/" horiz-adv-x="876" 
d="M225 -225l-209 78l627 1693l213 -76z" />
    <glyph glyph-name="zero" unicode="0" horiz-adv-x="1095" 
d="M547 176q111 0 171 109t60 378t-58 375t-171 106t-171 -113q-58 -114 -58 -379q0 -264 58 -370t169 -106zM557 1346q465 0 465 -674q0 -358 -121 -526t-359 -166q-238 0 -354 164q-117 164 -116 513q0 349 129 519t356 170z" />
    <glyph glyph-name="one" unicode="1" horiz-adv-x="929" 
d="M420 248v805l-240 -123l-90 157l373 232h201v-1135l213 -10v-174h-713v168l196 12q32 2 46 16t14 52z" />
    <glyph glyph-name="two" unicode="2" horiz-adv-x="1050" 
d="M121 0v158l407 514q64 82 84 110q59 79 60 198q0 71 -48 116t-123 45q-75 -1 -113 -13t-45 -27t-7 -48v-146l-209 15v327q193 97 395 97t305 -100t103 -271q0 -172 -174 -383l-330 -389h512v-203h-817z" />
    <glyph glyph-name="three" unicode="3" horiz-adv-x="1069" 
d="M676 983q0 158 -178 158q-66 -1 -110 -15t-51 -29t-7 -48v-148l-209 14v328q205 103 405 103t300 -92q99 -92 100 -236q0 -106 -52 -194t-135 -140q207 -66 207 -291q0 -188 -117 -304t-346 -116q-113 0 -225 31t-176 72l72 194q162 -90 321 -90q223 0 223 199
q0 102 -67 150q-68 48 -230 49h-77l18 186h211q123 78 123 219z" />
    <glyph glyph-name="four" unicode="4" horiz-adv-x="1097" 
d="M854 946v-383h182v-194h-184v-185l170 -10v-174h-602v168l127 10q59 4 59 58v135h-524v170l385 809l195 -97l-330 -690h293v111l86 272h143z" />
    <glyph glyph-name="five" unicode="5" horiz-adv-x="1038" 
d="M905 1124h-469l-41 -313q229 -15 373 -119t145 -307q-1 -166 -111 -287t-343 -121q-115 0 -225 31t-175 72l82 188q160 -88 308 -88q209 0 208 201q0 250 -489 250l88 688h408q47 0 47 57v88l194 -14v-326z" />
    <glyph glyph-name="six" unicode="6" horiz-adv-x="1093" 
d="M762 432q0 233 -182 234q-53 0 -122 -25t-106 -55v-41q0 -162 47 -271t164 -108q87 0 143 70t56 196zM654 840q158 0 253 -106q94 -106 94 -303q1 -196 -115 -325t-338 -129t-330 160t-107 428q0 731 698 809l47 -184q-438 -55 -489 -434q129 84 287 84z" />
    <glyph glyph-name="seven" unicode="7" horiz-adv-x="972" 
d="M47 1319h885v-170l-469 -1149h-256l481 1116h-387q-45 0 -45 -63v-82l-209 14v334z" />
    <glyph glyph-name="eight" unicode="8" horiz-adv-x="1095" 
d="M377 1018q0 -123 194 -221q61 41 106 103q44 62 44 128t-48 105t-123 39t-124 -45q-49 -44 -49 -109zM741 346q0 84 -57 140t-170 114q-86 -58 -132 -116t-46 -137t52 -131t148 -52t151 49q54 49 54 133zM96 326q0 227 250 372q-207 127 -207 306q0 147 115 244
q116 98 308 98t289 -90t97 -218q0 -164 -194 -327q250 -145 250 -357q0 -162 -117 -270t-349 -107q-232 0 -337 104t-105 245z" />
    <glyph glyph-name="nine" unicode="9" horiz-adv-x="1095" 
d="M342 898q0 -116 47 -176t118 -60t139 24t106 51v37q0 381 -207 381q-93 0 -148 -70q-55 -71 -55 -187zM454 483q-166 1 -258 107q-93 106 -94 301q0 195 117 325t340 130t327 -160t105 -428q1 -720 -706 -783l-49 191q236 27 358 125t145 270q-119 -78 -285 -78z" />
    <glyph glyph-name="colon" unicode=":" horiz-adv-x="462" 
d="M82 114q0 64 40 106t108 42t110 -40q41 -40 41 -104t-39 -107q-38 -42 -110 -42t-111 40t-39 105zM82 868q0 64 40 106t108 42t110 -40q41 -40 41 -105t-39 -107q-38 -42 -110 -41q-72 0 -111 40q-39 41 -39 105z" />
    <glyph glyph-name="semicolon" unicode=";" horiz-adv-x="493" 
d="M414 162l-211 -479l-129 38l63 416q14 102 101 103q42 0 66 -14t41 -22q31 -16 69 -42zM139 868q0 64 40 106t109 42q70 0 110 -40t40 -105t-39 -107t-111 -41q-72 0 -110 40q-39 41 -39 105z" />
    <glyph glyph-name="less" unicode="&#x3c;" horiz-adv-x="1095" 
d="M889 1100l82 -182l-559 -259l563 -270l-86 -184l-750 368v160z" />
    <glyph glyph-name="equal" unicode="=" horiz-adv-x="1095" 
d="M963 530v-198h-830v198h830zM963 922v-197h-830v197h830z" />
    <glyph glyph-name="greater" unicode="&#x3e;" horiz-adv-x="1095" 
d="M143 918l82 182l750 -367v-160l-750 -368l-86 184l563 270z" />
    <glyph glyph-name="question" unicode="?" horiz-adv-x="886" 
d="M378 238q62 0 101 -38t39 -96t-38 -98q-38 -41 -102 -41t-103 39q-38 39 -37 96q0 57 38 98q40 40 102 40zM575 1102q0 129 -141 129q-47 0 -88 -11q-41 -12 -48 -28t-7 -49v-109l-209 15v280q197 94 376 94t267 -84t88 -218t-54 -211q-55 -77 -141 -139t-108 -91
t-25 -86l-10 -225h-196l-11 215v30q0 90 35 153t160 153q68 49 78 66t22 41t12 75z" />
    <glyph glyph-name="at" unicode="@" horiz-adv-x="1951" 
d="M1137 342v397q-49 23 -117 23q-231 -2 -232 -344q0 -272 181 -273q168 0 168 197zM1634 582q0 268 -153 427q-154 159 -473 159t-501 -203q-181 -203 -181 -515t162 -501q163 -188 456 -189q182 0 324 64l51 -150q-162 -70 -374 -70t-370 70q-158 68 -251 187
q-186 231 -187 573q0 422 252 658t647 235q350 1 563 -193t213 -546q0 -286 -139 -436t-370 -152h-117l-17 111l-6 2q-80 -119 -241 -119q-334 0 -334 418q0 238 116 368t328 131q147 0 307 -59v-600l9 -109q286 19 286 439z" />
    <glyph glyph-name="A" unicode="A" horiz-adv-x="1355" 
d="M662 1133l-191 -584h381l-184 584h-6zM340 1362h469l418 -1182h2l117 -6v-174h-529v166l78 6q35 4 47 16t2 45l-43 127h-479l-62 -180l123 -6v-174h-473v166l68 6q43 4 61 57l330 955l-129 12v166z" />
    <glyph glyph-name="B" unicode="B" horiz-adv-x="1232" 
d="M598 803q246 0 248 198q0 93 -60 133t-174 40h-166v-371h152zM446 621v-428h193q266 0 266 217q0 102 -66 156q-67 54 -190 55h-203zM80 1362h577q442 0 443 -342q0 -188 -189 -287q121 -31 190 -113t68 -212q0 -200 -134 -304t-390 -104h-575v166l67 6q59 6 60 57v953
l-117 6v174z" />
    <glyph glyph-name="C" unicode="C" horiz-adv-x="1232" 
d="M725 1184q-191 0 -289 -129t-98 -373q0 -506 379 -506h54q48 0 91 13t51 27t9 46v164l208 -14v-355q-160 -84 -405 -84q-313 1 -478 177t-165 524q0 193 55 336t150 223q184 154 438 153q205 0 385 -83v-349l-209 -14v160q0 31 -8 45q-23 39 -168 39z" />
    <glyph glyph-name="D" unicode="D" horiz-adv-x="1361" 
d="M446 1163v-966h209q176 0 275 127q98 127 98 368q0 471 -399 471h-183zM70 0v166l67 6q59 6 60 57v953l-117 6v174h561q301 0 470 -160t169 -473q0 -195 -51 -339t-139 -226q-176 -164 -439 -164h-581z" />
    <glyph glyph-name="E" unicode="E" horiz-adv-x="1124" 
d="M1042 0h-972v166l67 6q59 6 60 57v953l-117 6v174h938v-340l-209 -14v82q0 35 -10 49t-49 14h-304v-350h474v-209h-474v-383h330q37 0 47 15t11 50v103l208 -14v-365z" />
    <glyph glyph-name="F" unicode="F" horiz-adv-x="1112" 
d="M70 0v166l67 6q59 6 60 57v953l-117 6v174h989v-340l-209 -14v82q0 35 -10 49t-49 14h-355v-362h504v-209h-504v-402l183 -6v-174h-559z" />
    <glyph glyph-name="G" unicode="G" horiz-adv-x="1312" 
d="M1155 477v-371q-190 -131 -473 -131q-284 -1 -442 177t-158 526q0 154 40 276q73 223 255 336q164 96 372 96t388 -83v-349l-209 -14v160q0 31 -8 45q-23 39 -187 39q-395 0 -395 -490q0 -516 356 -516q141 0 217 49v305h-2l-157 7v174h510v-164l-48 -4q-33 -3 -46 -17
t-13 -51z" />
    <glyph glyph-name="H" unicode="H" horiz-adv-x="1458" 
d="M1022 240v354h-580v-414l119 -6v-174h-495v166l67 6q59 6 60 57v953l-117 6v174h495v-166l-67 -6q-33 -4 -47 -18t-15 -50v-317h580v377l-117 6v174h496v-166l-68 -6q-59 -6 -59 -66v-944l117 -6v-174h-496v166l68 6q31 4 45 18t14 50z" />
    <glyph glyph-name="I" unicode="I" horiz-adv-x="628" 
d="M193 240v942l-117 6v174h495v-166l-67 -6q-59 -6 -60 -66v-944l117 -6v-174h-495v166l67 6q31 4 45 18t15 50z" />
    <glyph glyph-name="J" unicode="J" horiz-adv-x="970" 
d="M401 -27q-193 0 -344 86v359l209 14v-162q0 -31 8 -45q22 -39 151 -41q73 0 105 44t33 143v809l-160 8v174h537v-166l-68 -6q-59 -6 -59 -64v-637q0 -145 -8 -215q-35 -301 -404 -301z" />
    <glyph glyph-name="K" unicode="K" horiz-adv-x="1273" 
d="M193 240v942l-117 6v174h491v-166l-67 -6q-59 -6 -60 -66v-450l418 508l-115 6v174h480v-166l-68 -6q-39 -4 -82 -57l-291 -357l363 -596l108 -6v-174h-524v166l64 6q41 4 41 33q0 12 -11 33l-202 350l-181 -217v-191l117 -6v-174h-491v166l67 6q31 4 45 18t15 50z" />
    <glyph glyph-name="L" unicode="L" horiz-adv-x="1099" 
d="M1038 0h-972v166l67 6q59 6 60 57v953l-117 6v174h493v-166l-67 -6q-59 -6 -60 -66v-913h340q29 0 38 15t9 50v144l209 -14v-406z" />
    <glyph glyph-name="M" unicode="M" horiz-adv-x="1708" 
d="M1616 1362v-166l-68 -6q-61 -6 -59 -72l51 -938l127 -6v-174h-493v166l73 6q55 4 53 53l-38 723h-5l-315 -817h-194l-312 809h-4l-41 -760l133 -6v-174h-483v166l74 6q47 4 51 55l55 953l-125 8v174h412l348 -926h4l350 926h406z" />
    <glyph glyph-name="N" unicode="N" horiz-adv-x="1443" 
d="M66 0v166l73 6q53 4 54 57v953l-117 6v174h368l580 -940h4v760l-135 6v174h500v-166l-74 -6q-49 -4 -49 -64v-1126h-240l-592 954h-4v-774l133 -6v-174h-501z" />
    <glyph glyph-name="O" unicode="O" horiz-adv-x="1359" 
d="M338 688q0 -508 352 -508q188 0 264 156q70 138 70 326t-61 337q-75 175 -289 177q-113 0 -194 -74q-82 -74 -112 -178t-30 -236zM1278 689q0 -353 -163 -534t-441 -181t-434 180q-158 180 -158 524q0 188 55 330t146 221q183 157 425 157t406 -172t164 -525z" />
    <glyph glyph-name="P" unicode="P" horiz-adv-x="1208" 
d="M442 676h148q299 0 299 244q0 147 -77 195t-245 48h-125v-487zM66 0v166l67 6q59 6 60 57v953l-117 6v174h586q229 0 357 -108t128 -322q1 -214 -145 -335q-146 -120 -386 -120h-174v-297l197 -6v-174h-573z" />
    <glyph glyph-name="Q" unicode="Q" horiz-adv-x="1359" 
d="M336 688q0 -508 352 -508q188 0 266 156q68 138 68 326t-64 337q-70 175 -286 177q-113 0 -194 -74q-82 -74 -112 -178t-30 -236zM1276 678q0 -264 -112 -434t-322 -226v-6q158 -8 280 -82t260 -75q31 0 64 4l-25 -197q-29 -2 -55 -2l-203 35q-129 45 -260 107t-250 61
q-57 0 -114 -13l28 148q-487 63 -487 680q0 188 55 330t148 221q180 157 423 157q242 0 406 -172t164 -536z" />
    <glyph glyph-name="R" unicode="R" horiz-adv-x="1282" 
d="M442 731h179q252 0 251 225q0 129 -66 168q-67 39 -214 39h-150v-432zM66 0v166l67 6q59 6 60 57v953l-117 6v174h559q239 0 365 -88t126 -289q0 -139 -72 -229t-173 -131q74 -27 116 -125l148 -322l117 -4v-174h-506v166l59 6q47 6 47 37q0 12 -8 29l-96 204
q-23 51 -50 73q-28 22 -79 22h-187v-357l133 -6v-174h-509z" />
    <glyph glyph-name="S" unicode="S" horiz-adv-x="1069" 
d="M494 184q246 0 245 197q0 102 -108 151q-57 29 -149 54q-92 24 -151 50q-60 26 -122 71q-121 90 -121 277t130 295q130 107 340 107t390 -83v-308l-209 -14v119q0 31 -8 45q-23 39 -145 39t-179 -43q-59 -43 -59 -121t41 -119t106 -63t171 -54q106 -33 213 -112
q125 -92 125 -285t-138 -303t-365 -111q-226 0 -407 84v324l209 14v-125q0 -31 8 -45q9 -13 51 -27t132 -14z" />
    <glyph glyph-name="T" unicode="T" horiz-adv-x="1132" 
d="M446 229v930h-159q-47 0 -47 -63v-97l-209 15v348h1071v-348l-209 -15v97q0 35 -10 49t-49 14h-140v-979l162 -6v-174h-577v166l108 6q59 6 59 57z" />
    <glyph glyph-name="U" unicode="U" horiz-adv-x="1349" 
d="M412 1122v-680q0 -143 68 -201q68 -59 197 -59q128 0 199 64t70 186v750l-119 6v174h486v-166l-68 -6q-59 -6 -59 -62v-731q0 -199 -139 -311t-385 -113q-246 0 -372 110t-126 347v752l-119 6v174h496v-166l-68 -6q-33 -4 -47 -18t-14 -50z" />
    <glyph glyph-name="V" unicode="V" horiz-adv-x="1339" 
d="M858 1362h471v-166l-67 -6q-27 -2 -39 -15t-25 -47l-387 -1128h-266l-418 1182l-117 6v174h529v-166l-68 -6q-63 -4 -63 -49q0 -11 4 -23l274 -825h10l287 887l-125 8v174z" />
    <glyph glyph-name="W" unicode="W" horiz-adv-x="1812" 
d="M10 1362h508v-166l-67 -6q-63 -6 -64 -53q0 -8 2 -19l178 -790h8l213 925h265l221 -929h4l174 856l-111 8v174h461v-166l-67 -6q-53 -4 -68 -74l-258 -1116h-281l-215 911h-6l-209 -911h-288l-283 1182l-117 6v174z" />
    <glyph glyph-name="X" unicode="X" horiz-adv-x="1271" 
d="M1262 0h-570v168l62 6q39 4 53 28t-4 50l-185 285l-235 -357l98 -6v-174h-471v166l64 6q39 6 78 66l331 475l-311 458l-113 11v180h543v-168l-51 -6q-43 -4 -54 -29t9 -55l137 -215l199 293l-103 6v174h469v-166l-63 -6q-39 -7 -78 -66l-293 -395l359 -541l129 -8v-180z
" />
    <glyph glyph-name="Y" unicode="Y" horiz-adv-x="1167" 
d="M455 229v291l-349 662l-96 6v174h500v-166l-61 -6q-33 -2 -42 -25t7 -55l174 -356h8l223 426l-102 8v174h440v-166l-61 -6q-39 -4 -70 -62l-321 -608v-340l159 -6v-174h-577v166l108 6q60 4 60 57z" />
    <glyph glyph-name="Z" unicode="Z" horiz-adv-x="1091" 
d="M750 195q51 0 51 65v143l209 -14v-389h-942v170l618 997h-340q-55 0 -55 -63v-82l-209 14v326h895v-166l-625 -1001h398z" />
    <glyph glyph-name="bracketleft" unicode="[" horiz-adv-x="665" 
d="M164 -340v1802h430v-166h-205v-1470h205v-166h-430z" />
    <glyph glyph-name="backslash" unicode="\" horiz-adv-x="901" 
d="M31 1470l211 78l628 -1695l-211 -76z" />
    <glyph glyph-name="bracketright" unicode="]" horiz-adv-x="665" 
d="M502 1462v-1802h-430v166h204v1470h-204v166h430z" />
    <glyph glyph-name="asciicircum" unicode="^" horiz-adv-x="1132" 
d="M1042 616l-206 -32l-267 546l-268 -546l-201 34l383 762h179z" />
    <glyph glyph-name="underscore" unicode="_" 
d="M0 -301v149h1024v-149h-1024z" />
    <glyph glyph-name="grave" unicode="`" 
d="M324 1491q0 41 59 74l96 45l238 -393l-80 -68l-262 254q-51 47 -51 88z" />
    <glyph glyph-name="a" unicode="a" horiz-adv-x="1161" 
d="M750 326v530q-57 27 -158 27q-136 0 -198 -111t-62 -293q0 -332 213 -332q89 1 147 55t58 124zM987 227q0 -33 11 -45t40 -14l66 -4v-164h-326v119l-6 2q-102 -147 -280 -148q-209 0 -310 133q-100 133 -100 365q0 279 135 435t406 155q174 0 364 -72v-762z" />
    <glyph glyph-name="b" unicode="b" horiz-adv-x="1138" 
d="M395 725v-530q78 -41 180 -41q233 0 234 378q0 346 -229 347q-74 0 -130 -43t-55 -111zM158 1237q0 47 -52 49l-71 4v170h360v-485q92 86 248 86q193 0 305 -130t113 -366q0 -592 -496 -592q-105 -1 -223 25t-184 63v1176z" />
    <glyph glyph-name="c" unicode="c" horiz-adv-x="964" 
d="M570 160q124 0 245 88l88 -158q-145 -119 -364 -119q-219 1 -345 139t-126 408t144 406t326 137q182 0 336 -84v-266l-188 -15v99q0 55 -40 68t-83 14q-248 0 -248 -351q0 -174 66 -270q65 -96 189 -96z" />
    <glyph glyph-name="d" unicode="d" horiz-adv-x="1163" 
d="M750 319v531q-74 33 -156 33q-136 0 -198 -109t-62 -276q0 -344 221 -344q83 0 139 48t56 117zM582 1061q88 0 168 -25v207q0 45 -54 49l-88 6v162h381v-1245q2 -47 51 -47l72 -4v-164h-332v121l-6 2q-92 -150 -278 -150q-234 1 -324 149t-90 353q0 266 132 426t368 160z
" />
    <glyph glyph-name="e" unicode="e" horiz-adv-x="991" 
d="M690 762q0 125 -123 125q-115 0 -176 -91t-67 -218q90 2 165 15t138 59t63 110zM582 1061q154 0 244 -75t89 -210q-1 -90 -39 -159t-96 -107t-166 -72q-110 -33 -282 -32q6 -109 67 -176q61 -66 189 -66t254 90l78 -166q-40 -37 -138 -76t-223 -39q-251 1 -367 139
t-116 380t133 406t373 163z" />
    <glyph glyph-name="f" unicode="f" horiz-adv-x="757" 
d="M197 229v629h-177v172h177v78q0 201 89 287t255 86t295 -72l-60 -164q-98 51 -184 51t-119 -42t-33 -128v-96h303v-172h-303v-686l172 -8v-164h-542v156l67 6q31 4 45 17t15 50z" />
    <glyph glyph-name="g" unicode="g" horiz-adv-x="1114" 
d="M745 418v440q-72 25 -163 25q-125 0 -192 -92t-66 -250q0 -324 213 -324q88 1 148 55t60 146zM496 -438q-240 0 -375 67v285l194 16v-98q-1 -54 51 -74t142 -20q131 0 184 79t53 222v113q-98 -115 -272 -115q-106 0 -187 41t-126 110q-88 139 -88 328q0 268 145 406
t387 139q201 0 379 -76v-760q0 -174 -4 -223q-18 -228 -131 -334q-112 -106 -352 -106z" />
    <glyph glyph-name="h" unicode="h" horiz-adv-x="1228" 
d="M193 229v998q1 33 -11 45t-41 14l-71 4v170h364v-551q106 152 299 152q156 0 241 -89t85 -267v-535l117 -6v-164h-488v156l68 6q31 4 45 17t14 50v422q0 105 -34 163t-131 58t-155 -60t-59 -146v-496l117 -6v-164h-487v156l67 6q31 4 45 17t15 50z" />
    <glyph glyph-name="i" unicode="i" horiz-adv-x="606" 
d="M137 1315q0 65 43 109t113 44t114 -44t44 -110t-44 -107q-44 -42 -114 -42t-113 42t-43 108zM438 1030v-860l117 -6v-164h-487v156l67 6q59 6 60 65v570q1 35 -11 47t-41 12l-71 4v170h366z" />
    <glyph glyph-name="j" unicode="j" horiz-adv-x="579" 
d="M125 1315q0 65 43 109t113 44q69 0 113 -44t44 -110t-44 -107q-44 -42 -114 -42t-112 42q-43 42 -43 108zM426 1030v-1079q0 -164 -53 -266q-68 -123 -275 -123q-147 0 -262 71l74 170q80 -43 146 -43t97 41q30 41 29 140v856q0 33 -11 45t-40 14l-72 4v170h367z" />
    <glyph glyph-name="k" unicode="k" horiz-adv-x="1138" 
d="M195 229v998q1 33 -11 45t-41 14l-71 4v170h364v-887q113 9 197 69t115 157q6 20 6 32q0 35 -39 35l-78 4v160h424v-166l-98 -4q-27 -209 -181 -330l201 -360l125 -6v-164h-299l-234 426q-68 -18 -139 -29v-227h2l117 -6v-164h-487v156l67 6q31 4 45 17t15 50z" />
    <glyph glyph-name="l" unicode="l" horiz-adv-x="610" 
d="M434 1460v-1290l117 -6v-164h-488v156l68 6q59 6 59 65v1010q0 45 -51 49l-71 4v170h366z" />
    <glyph glyph-name="m" unicode="m" horiz-adv-x="1773" 
d="M55 1030h346v-133q115 164 315 164t269 -164q115 164 311 164q148 0 228 -89t80 -267v-535l116 -6v-164h-487v156l67 6q31 4 45 17q13 13 15 48v424q0 113 -26 167t-120 54t-144 -57t-50 -153v-492l113 -6v-164h-484v156l68 6q31 4 45 17t14 50v422q0 113 -25 167
q-26 54 -121 54q-94 0 -144 -59t-50 -147v-496l111 -6v-164h-484v156l68 6q31 4 45 17t14 50h3v566q1 35 -11 48t-41 15l-86 6v166z" />
    <glyph glyph-name="n" unicode="n" horiz-adv-x="1228" 
d="M55 1030h346v-133q53 76 141 120t191 44q156 0 241 -89t85 -267v-535l117 -6v-164h-488v156l68 6q31 4 45 17t14 50v422q0 113 -35 167t-132 54t-154 -61t-58 -145v-496l117 -6v-164h-487v156l67 6q31 4 45 17t15 50v568q0 61 -52 63l-86 6v164z" />
    <glyph glyph-name="o" unicode="o" horiz-adv-x="1081" 
d="M68 516q0 152 45 264t120 170q145 111 322 111q123 0 208 -40t133 -92q48 -51 82 -151t34 -235q0 -283 -138 -428t-351 -145q-215 0 -335 138t-120 408zM539 150q223 0 223 360q0 182 -50 276t-168 95q-227 0 -229 -336q0 -289 107 -363q47 -32 117 -32z" />
    <glyph glyph-name="p" unicode="p" horiz-adv-x="1163" 
d="M831 520q0 342 -206 342q-87 0 -147 -52t-60 -124v-471q78 -51 190 -51t167 102q56 102 56 254zM182 -195v992q0 35 -11 48t-40 13l-86 6v166h346v-133q33 61 119 113t205 51q371 0 370 -520q0 -276 -120 -424q-121 -147 -328 -148q-123 0 -219 60v-283l166 -8v-162h-529
v156l68 6q31 4 45 17t14 50z" />
    <glyph glyph-name="q" unicode="q" horiz-adv-x="1128" 
d="M750 336v522q-70 25 -162 25q-123 1 -189 -105t-65 -274q0 -250 100 -320q45 -30 125 -30q79 0 135 47t56 135zM752 -195v283q-98 -115 -256 -115t-251 79q-93 80 -128 186t-35 233q0 299 142 444t386 146q201 0 379 -76v-1239l119 -6v-164h-539v156l121 6q30 2 46 16
t16 51z" />
    <glyph glyph-name="r" unicode="r" horiz-adv-x="946" 
d="M195 229v568q1 33 -11 46t-41 15l-86 6v166h346v-153q37 80 115 132t179 52t194 -45v-305l-191 -15v95q0 41 -20 51q-23 10 -55 10q-83 0 -135 -58t-52 -149v-475l178 -8v-162h-548v156l67 6q31 4 45 17t15 50z" />
    <glyph glyph-name="s" unicode="s" horiz-adv-x="923" 
d="M332 783q0 -45 15 -71t57 -48t114 -42q124 -33 194 -69q151 -79 151 -242q-1 -164 -113 -251t-283 -87q-250 0 -377 64v285l184 14v-98q0 -90 172 -90t172 124q0 45 -29 74q-30 29 -59 39q-32 11 -135 38q-104 27 -199 88q-96 61 -96 219t113 245q113 86 284 86t339 -82
v-246l-185 -14v86q0 51 -47 69q-49 18 -119 18q-69 0 -111 -31q-42 -32 -42 -78z" />
    <glyph glyph-name="t" unicode="t" horiz-adv-x="772" 
d="M428 1247v-217h272l-20 -172h-252v-539q0 -89 33 -125t101 -36t138 43l62 -158q-102 -72 -260 -72q-92 0 -156 24q-64 25 -94 53q-31 28 -47 83t-19 87q-2 32 -2 93v547h-145l20 150q96 8 146 68q49 60 90 171h133z" />
    <glyph glyph-name="u" unicode="u" horiz-adv-x="1210" 
d="M1153 0h-332v133q-113 -160 -332 -160q-317 0 -317 355v473q0 55 -51 57l-66 4v168h361v-649q0 -109 30 -164t127 -55q96 0 155 59q58 59 58 144v432q0 33 -11 46t-40 15l-65 4v168h360v-803q0 -33 10 -44t41 -15l72 -6v-162z" />
    <glyph glyph-name="v" unicode="v" horiz-adv-x="1142" 
d="M690 1030h432v-160l-63 -4q-41 -4 -55 -49l-265 -817h-313l-287 815q-10 29 -21 39t-38 12l-60 4v160h482v-164l-125 -6l211 -674h4l205 674l-107 6v164z" />
    <glyph glyph-name="w" unicode="w" horiz-adv-x="1628" 
d="M1196 1030h412v-158l-68 -4q-41 -4 -55 -49l-195 -819h-295l-168 610h-6l-174 -610h-301l-207 817q-10 29 -21 39t-38 12l-60 4v158h469v-164l-114 -6l141 -629h4l225 758h199l213 -762h4l139 633l-104 6v164z" />
    <glyph glyph-name="x" unicode="x" horiz-adv-x="1093" 
d="M455 0h-426v162l63 6q47 6 82 49l236 295l-252 348l-105 12v158h477v-162l-59 -4q-25 -2 -32 -18t7 -35l117 -156l158 205l-84 6v164h416v-160l-62 -4q-43 -2 -82 -51l-225 -285l268 -356l105 -12v-162h-488v162l64 4q27 2 32 17q4 16 -12 34l-125 164l-170 -211l97 -6
v-164z" />
    <glyph glyph-name="y" unicode="y" horiz-adv-x="1173" 
d="M821 39v156q-113 -160 -332 -160q-317 0 -317 354v412q0 55 -51 57l-66 4v168h361v-588q0 -110 30 -164t127 -54t155 58q58 60 58 144v371q0 35 -11 48t-40 13l-65 4v168h360v-991q0 -248 -120 -363q-120 -114 -362 -114t-378 67v285l195 16v-98q0 -54 51 -74t141 -20
q264 0 264 301z" />
    <glyph glyph-name="z" unicode="z" horiz-adv-x="989" 
d="M918 0h-836v156l526 692h-258q-43 0 -54 -16t-11 -54v-71l-193 14v309h815v-139l-532 -707h291q59 0 59 70v86l193 -14v-326z" />
    <glyph glyph-name="braceleft" unicode="{" horiz-adv-x="696" 
d="M457 -350q-125 0 -194 70t-68 190l22 391q0 86 -23 137q-24 51 -106 62v151q84 9 108 59t23 152l-16 346q0 125 65 195q66 70 193 70q82 0 164 -21l-21 -152q-57 10 -101 10q-43 0 -63 -31q-20 -32 -20 -112l18 -333q0 -104 -30 -166q-31 -61 -105 -93q78 -27 107 -81
t28 -166l-22 -361q0 -80 19 -117q30 -58 163 -26l20 -156q-86 -18 -161 -18z" />
    <glyph glyph-name="bar" unicode="|" horiz-adv-x="561" 
d="M174 -180v1710h213v-1710h-213z" />
    <glyph glyph-name="braceright" unicode="}" horiz-adv-x="696" 
d="M174 1311q-25 0 -82 -11l-20 152q82 20 164 21q126 0 192 -70t66 -195l-17 -346q0 -102 24 -151t107 -60v-151q-82 -10 -106 -62t-23 -137l23 -391q0 -121 -69 -191t-193 -69q-76 0 -162 18l20 156q41 -10 92 -10t71 36t20 117l-23 361q0 113 29 167t106 80
q-75 31 -105 93t-30 166l18 333q0 80 -19 112t-83 32z" />
    <glyph glyph-name="asciitilde" unicode="~" horiz-adv-x="1224" 
d="M829 446q-94 0 -229 75t-184 75q-84 0 -172 -133l-148 115q129 217 299 217q88 0 222 -78t196 -78q92 0 166 131l149 -111q-100 -213 -299 -213z" />
    <glyph glyph-name="uni00A0" unicode="&#xa0;" horiz-adv-x="423" 
 />
    <glyph glyph-name="exclamdown" unicode="&#xa1;" horiz-adv-x="567" 
d="M424 926q0 -58 -39 -98t-101 -40t-102 38q-39 38 -39 96t38 98q39 41 103 41t102 -39t38 -96zM395 -301q-1 -96 -115 -96t-114 100v240l41 714h145l43 -714v-244z" />
    <glyph glyph-name="cent" unicode="&#xa2;" horiz-adv-x="1095" 
d="M401 639q0 -256 152 -328v656q-152 -72 -152 -328zM553 -123v225q-186 29 -293 161q-106 131 -106 365t113 368q114 134 286 169v238h154v-229q145 -8 284 -82v-267l-188 -14v98q0 55 -43 70q-31 8 -53 10v-704q104 6 215 88l88 -158q-129 -102 -303 -117v-221h-154z" />
    <glyph glyph-name="sterling" unicode="&#xa3;" horiz-adv-x="1130" 
d="M723 1346q190 0 348 -84v-287l-209 -14v96q0 31 -7 45t-42 28t-88 15q-105 0 -155 -52t-58 -171l-12 -158h358l-20 -170h-349l-6 -84q-12 -172 -178 -299l4 -8q111 41 168 41t168 -20t195 -21q84 0 184 28l-27 -219q-98 -18 -188 -18t-242 26t-258 25q-106 0 -243 -61
v190q158 74 172 256l12 162h-172l20 172h164l12 176q29 406 449 406z" />
    <glyph glyph-name="yen" unicode="&#xa5;" horiz-adv-x="1126" 
d="M121 606v156h231l-246 420l-96 6v174h500v-166l-61 -6q-33 -2 -42 -25t7 -55l153 -315h8l203 385l-102 8v174h440v-166l-61 -6q-39 -4 -70 -62l-219 -366h231v-156h-313v-133h313v-156h-313v-137l160 -6v-174h-578v166l109 6q59 4 59 57v88h-313v156h313v133h-313z" />
    <glyph glyph-name="brokenbar" unicode="&#xa6;" horiz-adv-x="563" 
d="M174 825v705h215v-705h-215zM174 -180v766h215v-766h-215z" />
    <glyph glyph-name="section" unicode="&#xa7;" horiz-adv-x="1130" 
d="M780 354q0 40 -10 60l-15 30t-21 26t-24 22q-7 8 -32 25t-36 25q-10 8 -110 71q-100 62 -159 114q-59 -55 -60 -135q1 -40 11 -60t19 -39t54 -50q44 -31 55 -39t44 -29q32 -21 120 -81t105 -75q59 53 59 135zM489 -420q-170 0 -323 80v270l188 15v-99q0 -57 39 -69
q39 -13 99 -13t103 38q42 38 42 92t-20 89q-20 36 -43 56q-23 21 -34 31t-40 27q-28 17 -66 41t-65 38q-145 86 -213 169t-68 204q0 178 172 325q-27 58 -27 132q0 131 71 236q38 56 116 90t184 34q162 0 324 -84v-266l-189 -15v99q0 57 -39 69q-39 13 -99 13t-102 -38
t-42 -102q0 -100 135 -190q18 -12 67 -41q191 -115 267 -207t75 -215q1 -174 -167 -317q74 -191 -44 -368q-38 -56 -116 -90t-185 -34z" />
    <glyph glyph-name="dieresis" unicode="&#xa8;" 
d="M170 1324q0 58 40 98t101 40t101 -40t41 -98q0 -58 -40 -96q-41 -38 -103 -38t-101 38t-39 96zM721 1462q61 0 101 -40t40 -98t-40 -96t-102 -38t-102 38q-39 38 -38 96q0 58 40 98t101 40z" />
    <glyph glyph-name="copyright" unicode="&#xa9;" horiz-adv-x="1667" 
d="M838 406q92 0 196 86l82 -111q-111 -115 -285 -115t-265 110t-91 302q0 112 34 196t89 127q109 84 231 84q195 0 308 -153l-115 -90q-94 102 -184 102t-144 -62t-55 -202q0 -274 199 -274zM824 1237q-240 0 -390 -163q-150 -162 -150 -412t152 -403q150 -153 390 -153
t397 161q158 161 157 405q0 244 -158 404t-398 161zM1542 673q0 -302 -203 -508t-520 -206t-507 197q-189 197 -189 506t198 516q199 207 507 207t511 -205t203 -507z" />
    <glyph glyph-name="ordfeminine" unicode="&#xaa;" horiz-adv-x="847" 
d="M545 756v336q-45 16 -94 16q-82 0 -123 -65t-41 -164q0 -215 135 -215q53 0 88 30t35 62zM573 541v77h-8q-76 -94 -204 -94q-127 0 -195 96t-68 257q0 162 98 267t275 105q129 0 262 -49v-500q0 -22 9 -30t34 -11l35 -2v-116h-238z" />
    <glyph glyph-name="guillemotleft" unicode="&#xab;" horiz-adv-x="1085" 
d="M514 544q0 54 59 101l349 279l96 -93l-246 -292l232 -328l-97 -86l-356 330q-37 35 -37 89zM96 544q0 54 60 101l348 279l96 -93l-246 -292l232 -328l-97 -86l-356 330q-37 35 -37 89z" />
    <glyph glyph-name="logicalnot" unicode="&#xac;" horiz-adv-x="1095" 
d="M788 350v295h-682v199h879v-494h-197z" />
    <glyph glyph-name="uni00AD" unicode="&#xad;" horiz-adv-x="659" 
d="M86 500v190h485v-190h-485z" />
    <glyph glyph-name="registered" unicode="&#xae;" horiz-adv-x="948" 
d="M778 982q0 136 -88 223t-222 87t-216 -86t-82 -221t84 -221t218 -86t220 84t86 220zM887 986q0 -173 -117 -287q-117 -113 -302 -113t-296 112t-111 286q0 175 115 289t295 114t298 -114t118 -287zM424 1020h33q74 0 73 61q0 51 -73 52h-33v-113zM424 946v-172h-92v432
h155q143 0 144 -116q0 -86 -70 -119q17 -8 27 -31l74 -166h-103l-63 144q-12 29 -33 28h-39z" />
    <glyph glyph-name="macron" unicode="&#xaf;" 
d="M213 1249v172h588v-172h-588z" />
    <glyph glyph-name="degree" unicode="&#xb0;" horiz-adv-x="610" 
d="M199 1221q-1 -53 27 -87t79 -34t78 34t27 87q0 125 -106 125t-105 -125zM72 1222q0 103 65 172q66 68 170 68t168 -66q63 -67 63 -169t-65 -172t-173 -70t-168 67t-60 170z" />
    <glyph glyph-name="plusminus" unicode="&#xb1;" horiz-adv-x="1095" 
d="M438 745v320h209v-320h316v-200h-316v-275h316v-198h-830v198h305v275h-305v200h305z" />
    <glyph glyph-name="twosuperior" unicode="&#xb2;" horiz-adv-x="690" 
d="M635 852v-154h-563v119l254 295q90 106 90 156q0 94 -97 94q-55 0 -81 -11t-31 -21q-4 -10 -4 -36v-92l-156 8v224q147 76 289 76t207 -58q65 -57 65 -136t-28 -132t-86 -125l-183 -207h324z" />
    <glyph glyph-name="threesuperior" unicode="&#xb3;" horiz-adv-x="690" 
d="M412 1282q0 84 -103 84q-43 0 -71 -9t-29 -46v-68l-143 10v195q127 61 260 61q132 0 198 -54t66 -142q0 -119 -117 -199q131 -41 131 -164q0 -122 -77 -192t-227 -70t-251 64l47 133q102 -53 201 -54q129 0 129 97q0 55 -40 81t-132 25h-66l13 135h133q78 45 78 113z" />
    <glyph glyph-name="acute" unicode="&#xb4;" 
d="M696 1491q0 -41 -51 -88l-262 -254l-80 68l238 393l96 -45q59 -33 59 -74z" />
    <glyph glyph-name="mu" unicode="&#xb5;" horiz-adv-x="1196" 
d="M1032 1030v-819q0 -68 53 -68q29 0 80 25l29 -143q-88 -49 -186 -50q-154 0 -162 166q-33 -76 -105 -123t-159 -47q-143 0 -211 101v-514h-219v1472h229v-592q0 -143 45 -219q46 -76 152 -76t163 89t58 241v557h233z" />
    <glyph glyph-name="paragraph" unicode="&#xb6;" horiz-adv-x="1124" 
d="M936 1124v-958q0 -268 -104 -397t-398 -189l-51 201q180 43 249 121t68 225v1059h-147v-746q-195 4 -322 116t-127 343t136 347t358 116h465v-166l-68 -6q-59 -7 -59 -66z" />
    <glyph glyph-name="periodcentered" unicode="&#xb7;" horiz-adv-x="632" 
d="M174 628q0 62 38 101t104 39t104 -38q39 -38 39 -99t-38 -101q-39 -40 -105 -41q-66 0 -104 38q-38 39 -38 101z" />
    <glyph glyph-name="cedilla" unicode="&#xb8;" 
d="M442 -379q98 0 99 77q0 77 -181 77l74 231h117l-35 -135q189 -13 191 -181q0 -89 -75 -137q-75 -49 -175 -49t-185 37l33 107q80 -27 137 -27z" />
    <glyph glyph-name="onesuperior" unicode="&#xb9;" horiz-adv-x="647" 
d="M279 874v435l-166 -74l-60 117l256 145h150v-655l143 -6v-138h-477v136l121 8q33 2 33 32z" />
    <glyph glyph-name="ordmasculine" unicode="&#xba;" horiz-adv-x="831" 
d="M86 881q0 279 221 352q55 18 115 18q131 0 226 -79t95 -263t-92 -284q-93 -101 -245 -101t-236 96t-84 261zM279 905q0 -227 136 -227t136 207q0 109 -32 162t-107 53q-133 0 -133 -195z" />
    <glyph glyph-name="guillemotright" unicode="&#xbb;" horiz-adv-x="1085" 
d="M991 546q0 -56 -41 -93l-352 -324l-96 86l231 324l-246 297l97 92l348 -279q59 -47 59 -103zM573 546q0 -56 -41 -93l-352 -324l-96 86l231 324l-245 297l96 92l348 -279q59 -47 59 -103z" />
    <glyph glyph-name="onequarter" unicode="&#xbc;" horiz-adv-x="1689" 
d="M1278 176v55h-311v119l229 475l141 -65l-188 -387h139l60 155h108v-155h125v-146h-125v-84l146 -6v-137h-478v135l121 8q33 2 33 33zM582 -84l-156 72l664 1417l159 -68zM281 711v434l-166 -74l-60 117l256 145h150v-655l143 -6v-137h-477v135l121 8q33 2 33 33z" />
    <glyph glyph-name="onehalf" unicode="&#xbd;" horiz-adv-x="1689" 
d="M1306 811q142 0 208 -57q66 -56 65 -136q0 -80 -28 -133t-87 -125l-182 -206h324v-154h-564v119l254 295q90 106 90 155q0 94 -96 95q-55 0 -82 -12q-26 -12 -30 -21q-4 -10 -4 -35v-92l-156 8v223q146 76 288 76zM567 -84l-155 72l663 1417l160 -68zM285 711v434
l-166 -74l-60 117l256 145h150v-655l143 -6v-137h-477v135l121 8q33 2 33 33z" />
    <glyph glyph-name="threequarters" unicode="&#xbe;" horiz-adv-x="1689" 
d="M1300 176v55h-311v119l230 475l141 -65l-189 -387h140l59 155h109v-155h125v-146h-125v-84l145 -6v-137h-477v135l121 8q32 2 32 33zM602 -84l-156 72l664 1417l160 -68zM465 1118q0 84 -103 84q-44 0 -72 -9t-28 -46v-68l-143 11v194q127 62 260 62t199 -54t65 -143
q0 -119 -117 -199q131 -41 131 -164q-1 -122 -77 -192t-226 -70t-252 64l48 133q102 -53 200 -53q129 0 129 96q0 55 -40 81t-132 25h-65l12 136h133q78 45 78 112z" />
    <glyph glyph-name="questiondown" unicode="&#xbf;" horiz-adv-x="886" 
d="M674 926q0 -58 -39 -98t-101 -40t-102 38q-39 38 -39 96t38 98q39 41 103 41t102 -39t38 -96zM336 -76q0 -129 141 -129q47 0 88 11q41 12 48 28t8 49v109l208 -15v-280q-197 -94 -375 -94t-268 84q-88 84 -88 218t54 211t141 139t109 91t24 86l10 225h197l10 -215v-30
q0 -90 -35 -153t-131 -133t-106 -86q-11 -17 -23 -41t-12 -75z" />
    <glyph glyph-name="Agrave" unicode="&#xc0;" horiz-adv-x="1355" 
d="M485 1858l332 -322l-61 -84l-318 178q-127 70 -35 160zM662 1133l-191 -584h381l-184 584h-6zM340 1362h469l418 -1182h2l117 -6v-174h-529v166l78 6q35 4 47 16t2 45l-43 127h-479l-62 -180l123 -6v-174h-473v166l68 6q43 4 61 57l330 955l-129 12v166z" />
    <glyph glyph-name="Aacute" unicode="&#xc1;" horiz-adv-x="1355" 
d="M903 1722q0 -51 -72 -92l-317 -178l-61 84l331 322l82 -68q37 -35 37 -68zM662 1133l-191 -584h381l-184 584h-6zM340 1362h469l418 -1182h2l117 -6v-174h-529v166l78 6q35 4 47 16t2 45l-43 127h-479l-62 -180l123 -6v-174h-473v166l68 6q43 4 61 57l330 955l-129 12
v166z" />
    <glyph glyph-name="Acircumflex" unicode="&#xc2;" horiz-adv-x="1355" 
d="M371 1450l-84 70l241 262q43 47 86 47l82 -43l246 -264l-84 -72l-246 176zM662 1133l-191 -584h381l-184 584h-6zM340 1362h469l418 -1182h2l117 -6v-174h-529v166l78 6q35 4 47 16t2 45l-43 127h-479l-62 -180l123 -6v-174h-473v166l68 6q43 4 61 57l330 955l-129 12
v166z" />
    <glyph glyph-name="Atilde" unicode="&#xc3;" horiz-adv-x="1355" 
d="M769 1667q44 0 83 66l111 -60q-68 -178 -211 -178q-44 0 -134 28q-90 27 -126 27t-60 -11q-22 -11 -55 -48l-98 72q74 162 208 161q49 0 143 -28t139 -29zM662 1133l-191 -584h381l-184 584h-6zM340 1362h469l418 -1182h2l117 -6v-174h-529v166l78 6q35 4 47 16t2 45
l-43 127h-479l-62 -180l123 -6v-174h-473v166l68 6q43 4 61 57l330 955l-129 12v166z" />
    <glyph glyph-name="Adieresis" unicode="&#xc4;" horiz-adv-x="1355" 
d="M274 1610q0 58 40 99q40 40 102 40t101 -40q40 -40 40 -98q0 -59 -40 -97q-41 -38 -103 -38t-101 38t-39 96zM684 1610q0 58 40 99q40 40 101 40t101 -40t41 -98q0 -59 -40 -97q-41 -38 -103 -38t-101 38t-39 96zM662 1133l-191 -584h381l-184 584h-6zM340 1362h469
l418 -1182h2l117 -6v-174h-529v166l78 6q35 4 47 16t2 45l-43 127h-479l-62 -180l123 -6v-174h-473v166l68 6q43 4 61 57l330 955l-129 12v166z" />
    <glyph glyph-name="Aring" unicode="&#xc5;" horiz-adv-x="1355" 
d="M625 1708q-74 0 -74 -85t74 -85q35 0 54 25t19 61q1 84 -73 84zM430 1625q0 83 54 136t142 53t138 -52q51 -52 51 -134t-53 -138q-52 -56 -142 -56t-140 54t-50 137zM662 1133l-191 -584h381l-184 584h-6zM340 1362h469l418 -1182h2l117 -6v-174h-529v166l78 6
q35 4 47 16t2 45l-43 127h-479l-62 -180l123 -6v-174h-473v166l68 6q43 4 61 57l330 955l-129 12v166z" />
    <glyph glyph-name="AE" unicode="&#xc6;" horiz-adv-x="1748" 
d="M651 1133l-190 -584h381l-185 584h-6zM330 1362h1312v-340l-208 -14v82q0 35 -10 49t-50 14h-461l121 -350h510v-209h-473l135 -383h195q37 0 47 15t10 50v103l209 -14v-365h-860v166l78 6q35 4 47 16t2 45l-43 127h-479l-62 -180l123 -6v-174h-473v166l68 6q43 4 61 57
l330 955l-129 12v166z" />
    <glyph glyph-name="Ccedilla" unicode="&#xc7;" horiz-adv-x="1232" 
d="M891 -310q0 -89 -75 -137q-75 -49 -175 -49t-184 37l32 107q80 -27 138 -27q98 0 98 77t-180 77l65 207q-258 30 -393 204t-135 488q0 193 55 336t150 223q184 154 438 153q205 0 385 -83v-349l-209 -14v160q0 31 -8 45q-23 39 -168 39q-191 0 -289 -129t-98 -373
q0 -506 379 -506h54q48 0 91 13t51 27t9 46v164l208 -14v-355q-160 -84 -403 -84l-27 -102q191 -13 191 -181z" />
    <glyph glyph-name="Egrave" unicode="&#xc8;" horiz-adv-x="1124" 
d="M317 1712q0 41 39 78l82 68l332 -322l-61 -84l-318 178q-74 41 -74 82zM1042 0h-972v166l67 6q59 6 60 57v953l-117 6v174h938v-340l-209 -14v82q0 35 -10 49t-49 14h-304v-350h474v-209h-474v-383h330q37 0 47 15t11 50v103l208 -14v-365z" />
    <glyph glyph-name="Eacute" unicode="&#xc9;" horiz-adv-x="1124" 
d="M377 1536l332 322l82 -68q37 -35 36 -68q0 -51 -71 -92l-318 -178zM1042 0h-972v166l67 6q59 6 60 57v953l-117 6v174h938v-340l-209 -14v82q0 35 -10 49t-49 14h-304v-350h474v-209h-474v-383h330q37 0 47 15t11 50v103l208 -14v-365z" />
    <glyph glyph-name="Ecircumflex" unicode="&#xca;" horiz-adv-x="1124" 
d="M317 1450l-84 70l242 262q43 47 86 47l82 -43l246 -264l-84 -72l-246 176zM1042 0h-972v166l67 6q59 6 60 57v953l-117 6v174h938v-340l-209 -14v82q0 35 -10 49t-49 14h-304v-350h474v-209h-474v-383h330q37 0 47 15t11 50v103l208 -14v-365z" />
    <glyph glyph-name="Edieresis" unicode="&#xcb;" horiz-adv-x="1124" 
d="M219 1610q0 58 40 99q40 40 101 40q62 0 102 -40t40 -98q0 -59 -40 -97t-102 -38t-102 38q-39 38 -39 96zM629 1610q0 58 40 99q40 40 101 40t101 -40t40 -98q0 -59 -40 -97t-102 -38t-101 38t-39 96zM1042 0h-972v166l67 6q59 6 60 57v953l-117 6v174h938v-340l-209 -14
v82q0 35 -10 49t-49 14h-304v-350h474v-209h-474v-383h330q37 0 47 15t11 50v103l208 -14v-365z" />
    <glyph glyph-name="Igrave" unicode="&#xcc;" horiz-adv-x="628" 
d="M55 1712q0 41 39 78l82 68l332 -322l-62 -84l-317 178q-74 41 -74 82zM193 240v942l-117 6v174h495v-166l-67 -6q-59 -6 -60 -66v-944l117 -6v-174h-495v166l67 6q31 4 45 18t15 50z" />
    <glyph glyph-name="Iacute" unicode="&#xcd;" horiz-adv-x="628" 
d="M582 1722q0 -51 -72 -92l-317 -178l-62 84l332 322l82 -68q37 -35 37 -68zM193 240v942l-117 6v174h495v-166l-67 -6q-59 -6 -60 -66v-944l117 -6v-174h-495v166l67 6q31 4 45 18t15 50z" />
    <glyph glyph-name="Icircumflex" unicode="&#xce;" horiz-adv-x="628" 
d="M78 1450l-84 70l242 262q43 47 86 47l81 -43l246 -264l-84 -72l-246 176zM193 240v942l-117 6v174h495v-166l-67 -6q-59 -6 -60 -66v-944l117 -6v-174h-495v166l67 6q31 4 45 18t15 50z" />
    <glyph glyph-name="Idieresis" unicode="&#xcf;" horiz-adv-x="628" 
d="M120 1749q62 0 102 -40t40 -98q0 -59 -40 -97t-102 -38t-102 38q-38 38 -38 96t39 99q39 40 101 40zM389 1610q0 58 40 99q40 40 101 40q62 0 102 -40t40 -98q0 -59 -40 -97t-102 -38t-102 38q-39 38 -39 96zM193 240v942l-117 6v174h495v-166l-67 -6q-59 -6 -60 -66
v-944l117 -6v-174h-495v166l67 6q31 4 45 18t15 50z" />
    <glyph glyph-name="Eth" unicode="&#xd0;" horiz-adv-x="1390" 
d="M475 1163v-385h346v-184h-346v-397h209q176 0 274 127t99 368q0 471 -400 471h-182zM98 0v166l68 6q59 6 59 57v365h-151v184h151v404l-116 6v174h561q301 0 470 -160t169 -473q1 -195 -51 -339t-140 -226q-176 -164 -438 -164h-582z" />
    <glyph glyph-name="Ntilde" unicode="&#xd1;" horiz-adv-x="1443" 
d="M847 1667q44 0 83 66l110 -60q-68 -178 -211 -178q-43 0 -133 28q-90 27 -127 27t-59 -11t-55 -48l-99 72q74 162 209 161q49 0 143 -28t139 -29zM66 0v166l73 6q53 4 54 57v953l-117 6v174h368l580 -940h4v760l-135 6v174h500v-166l-74 -6q-49 -4 -49 -64v-1126h-240
l-592 954h-4v-774l133 -6v-174h-501z" />
    <glyph glyph-name="Ograve" unicode="&#xd2;" horiz-adv-x="1359" 
d="M578 1858l331 -322l-61 -84l-318 178q-128 71 -34 160zM338 688q0 -508 352 -508q188 0 264 156q70 138 70 326t-61 337q-75 175 -289 177q-113 0 -194 -74q-82 -74 -112 -178t-30 -236zM1278 689q0 -353 -163 -534t-441 -181t-434 180q-158 180 -158 524q0 188 55 330
t146 221q183 157 425 157t406 -172t164 -525z" />
    <glyph glyph-name="Oacute" unicode="&#xd3;" horiz-adv-x="1359" 
d="M936 1722q0 -51 -72 -92l-317 -178l-62 84l332 322l82 -68q37 -35 37 -68zM338 688q0 -508 352 -508q188 0 264 156q70 138 70 326t-61 337q-75 175 -289 177q-113 0 -194 -74q-82 -74 -112 -178t-30 -236zM1278 689q0 -353 -163 -534t-441 -181t-434 180
q-158 180 -158 524q0 188 55 330t146 221q183 157 425 157t406 -172t164 -525z" />
    <glyph glyph-name="Ocircumflex" unicode="&#xd4;" horiz-adv-x="1359" 
d="M451 1450l-84 70l241 262q43 47 86 47l82 -43l246 -264l-84 -72l-246 176zM338 688q0 -508 352 -508q188 0 264 156q70 138 70 326t-61 337q-75 175 -289 177q-113 0 -194 -74q-82 -74 -112 -178t-30 -236zM1278 689q0 -353 -163 -534t-441 -181t-434 180
q-158 180 -158 524q0 188 55 330t146 221q183 157 425 157t406 -172t164 -525z" />
    <glyph glyph-name="Otilde" unicode="&#xd5;" horiz-adv-x="1359" 
d="M843 1667q44 0 83 66l110 -60q-68 -178 -211 -178q-43 0 -133 28q-90 27 -127 27t-59 -11t-55 -48l-99 72q74 162 209 161q49 0 143 -28t139 -29zM338 688q0 -508 352 -508q188 0 264 156q70 138 70 326t-61 337q-75 175 -289 177q-113 0 -194 -74q-82 -74 -112 -178
t-30 -236zM1278 689q0 -353 -163 -534t-441 -181t-434 180q-158 180 -158 524q0 188 55 330t146 221q183 157 425 157t406 -172t164 -525z" />
    <glyph glyph-name="Odieresis" unicode="&#xd6;" horiz-adv-x="1359" 
d="M346 1610q0 58 40 99q40 40 101 40t101 -40t41 -98q0 -59 -40 -97q-41 -38 -103 -38t-101 38t-39 96zM756 1610q0 58 40 99q40 40 101 40t101 -40t40 -98q0 -59 -40 -97t-102 -38t-101 38t-39 96zM338 688q0 -508 352 -508q188 0 264 156q70 138 70 326t-61 337
q-75 175 -289 177q-113 0 -194 -74q-82 -74 -112 -178t-30 -236zM1278 689q0 -353 -163 -534t-441 -181t-434 180q-158 180 -158 524q0 188 55 330t146 221q183 157 425 157t406 -172t164 -525z" />
    <glyph glyph-name="multiply" unicode="&#xd7;" horiz-adv-x="1095" 
d="M403 643l-233 234l147 147l234 -233l229 229l142 -141l-230 -232l232 -231l-148 -148l-231 232l-232 -232l-143 142z" />
    <glyph glyph-name="Oslash" unicode="&#xd8;" horiz-adv-x="1359" 
d="M1024 677q0 204 -70 337l-391 -813q53 -21 137 -21t152 41t102 115q70 137 70 341zM338 688q0 -225 70 -352l393 819q-57 20 -115 21q-125 0 -206 -74q-82 -74 -112 -178t-30 -236zM1278 699q0 -365 -163 -545t-439 -181q-115 0 -219 33l-103 -211l-178 86l109 225
q-203 180 -203 572q0 188 55 330t146 221q182 158 415 157q111 0 211 -34l90 186l183 -84l-101 -209q197 -182 197 -546z" />
    <glyph glyph-name="Ugrave" unicode="&#xd9;" horiz-adv-x="1349" 
d="M526 1858l332 -322l-61 -84l-318 178q-127 70 -35 160zM412 1122v-680q0 -143 68 -201q68 -59 197 -59q128 0 199 64t70 186v750l-119 6v174h486v-166l-68 -6q-59 -6 -59 -62v-731q0 -199 -139 -311t-385 -113q-246 0 -372 110t-126 347v752l-119 6v174h496v-166l-68 -6
q-33 -4 -47 -18t-14 -50z" />
    <glyph glyph-name="Uacute" unicode="&#xda;" horiz-adv-x="1349" 
d="M948 1722q0 -51 -71 -92l-318 -178l-61 84l331 322l82 -68q37 -35 37 -68zM412 1122v-680q0 -143 68 -201q68 -59 197 -59q128 0 199 64t70 186v750l-119 6v174h486v-166l-68 -6q-59 -6 -59 -62v-731q0 -199 -139 -311t-385 -113q-246 0 -372 110t-126 347v752l-119 6
v174h496v-166l-68 -6q-33 -4 -47 -18t-14 -50z" />
    <glyph glyph-name="Ucircumflex" unicode="&#xdb;" horiz-adv-x="1349" 
d="M428 1450l-84 70l242 262q43 47 86 47l82 -43l245 -264l-84 -72l-245 176zM412 1122v-680q0 -143 68 -201q68 -59 197 -59q128 0 199 64t70 186v750l-119 6v174h486v-166l-68 -6q-59 -6 -59 -62v-731q0 -199 -139 -311t-385 -113q-246 0 -372 110t-126 347v752l-119 6
v174h496v-166l-68 -6q-33 -4 -47 -18t-14 -50z" />
    <glyph glyph-name="Udieresis" unicode="&#xdc;" horiz-adv-x="1349" 
d="M346 1610q0 58 40 99q40 40 101 40t101 -40t41 -98q0 -59 -40 -97q-41 -38 -103 -38t-101 38t-39 96zM756 1610q0 58 40 99q40 40 101 40t101 -40t40 -98q0 -59 -40 -97t-102 -38t-101 38t-39 96zM412 1122v-680q0 -143 68 -201q68 -59 197 -59q128 0 199 64t70 186v750
l-119 6v174h486v-166l-68 -6q-59 -6 -59 -62v-731q0 -199 -139 -311t-385 -113q-246 0 -372 110t-126 347v752l-119 6v174h496v-166l-68 -6q-33 -4 -47 -18t-14 -50z" />
    <glyph glyph-name="Yacute" unicode="&#xdd;" horiz-adv-x="1167" 
d="M842 1722q0 -51 -72 -92l-317 -178l-62 84l332 322l82 -68q37 -35 37 -68zM455 229v291l-349 662l-96 6v174h500v-166l-61 -6q-33 -2 -42 -25t7 -55l174 -356h8l223 426l-102 8v174h440v-166l-61 -6q-39 -4 -70 -62l-321 -608v-340l159 -6v-174h-577v166l108 6
q60 4 60 57z" />
    <glyph glyph-name="Thorn" unicode="&#xde;" horiz-adv-x="1208" 
d="M442 1145v-35h220q229 0 357 -102t128 -308q1 -206 -145 -320t-386 -114h-174v-94l197 -6v-166h-573v160l67 6q59 6 60 57v963l-127 8v168h567v-154l-131 -6q-60 -4 -60 -57zM442 465h148q299 0 299 223q0 135 -77 179t-245 44h-125v-446z" />
    <glyph glyph-name="germandbls" unicode="&#xdf;" horiz-adv-x="1280" 
d="M184 229v815q0 416 492 416q223 0 333 -83q109 -83 109 -204t-94 -208q-41 -37 -80 -70q-94 -79 -94 -141t129 -140q55 -31 110 -68q54 -38 92 -102t38 -145q1 -156 -103 -241t-279 -85t-315 64v285l185 14v-98q0 -34 6 -48t40 -27t92 -12t95 35t37 94q0 58 -37 99
t-88 71t-103 62q-128 77 -126 205q0 70 41 131t91 100q132 103 132 191q1 137 -229 137t-230 -219v-1057h-371v156l68 6q31 4 45 17t14 50z" />
    <glyph glyph-name="agrave" unicode="&#xe0;" horiz-adv-x="1161" 
d="M750 326v530q-57 27 -158 27q-136 0 -198 -111t-62 -293q0 -332 213 -332q89 1 147 55t58 124zM987 227q0 -33 11 -45t40 -14l66 -4v-164h-326v119l-6 2q-102 -147 -280 -148q-209 0 -310 133q-100 133 -100 365q0 279 135 435t406 155q174 0 364 -72v-762zM518 1610
l238 -393l-80 -68l-262 254q-51 47 -52 88q0 41 60 74z" />
    <glyph glyph-name="aacute" unicode="&#xe1;" horiz-adv-x="1161" 
d="M831 1491q0 -41 -51 -88l-262 -254l-80 68l238 393l96 -45q59 -33 59 -74zM750 326v530q-57 27 -158 27q-136 0 -198 -111t-62 -293q0 -332 213 -332q89 1 147 55t58 124zM987 227q0 -33 11 -45t40 -14l66 -4v-164h-326v119l-6 2q-102 -147 -280 -148q-209 0 -310 133
q-100 133 -100 365q0 279 135 435t406 155q174 0 364 -72v-762z" />
    <glyph glyph-name="acircumflex" unicode="&#xe2;" horiz-adv-x="1161" 
d="M750 326v530q-57 27 -158 27q-136 0 -198 -111t-62 -293q0 -332 213 -332q89 1 147 55t58 124zM987 227q0 -33 11 -45t40 -14l66 -4v-164h-326v119l-6 2q-102 -147 -280 -148q-209 0 -310 133q-100 133 -100 365q0 279 135 435t406 155q174 0 364 -72v-762zM598 1579
q49 0 92 -57l232 -303l-84 -70l-242 213l-240 -211l-84 66l236 309q41 53 90 53z" />
    <glyph glyph-name="atilde" unicode="&#xe3;" horiz-adv-x="1161" 
d="M469 1454q49 0 143 -29t138 -29t84 66l110 -59q-68 -178 -211 -178q-45 -1 -135 27t-126 28t-58 -11t-56 -48l-98 71q74 162 209 162zM750 326v530q-57 27 -158 27q-136 0 -198 -111t-62 -293q0 -332 213 -332q89 1 147 55t58 124zM987 227q0 -33 11 -45t40 -14l66 -4
v-164h-326v119l-6 2q-102 -147 -280 -148q-209 0 -310 133q-100 133 -100 365q0 279 135 435t406 155q174 0 364 -72v-762z" />
    <glyph glyph-name="adieresis" unicode="&#xe4;" horiz-adv-x="1161" 
d="M750 326v530q-57 27 -158 27q-136 0 -198 -111t-62 -293q0 -332 213 -332q89 1 147 55t58 124zM987 227q0 -33 11 -45t40 -14l66 -4v-164h-326v119l-6 2q-102 -147 -280 -148q-209 0 -310 133q-100 133 -100 365q0 279 135 435t406 155q174 0 364 -72v-762zM248 1324
q0 58 40 98t101 40t101 -40t40 -98t-40 -96t-102 -38t-101 38t-39 96zM657 1324q0 58 40 98q39 40 101 40t102 -40t40 -98t-40 -96t-102 -38t-102 38q-39 38 -39 96z" />
    <glyph glyph-name="aring" unicode="&#xe5;" horiz-adv-x="1161" 
d="M588 1430q-74 0 -74 -85t74 -85q35 0 54 24t20 62q0 84 -74 84zM393 1346q0 84 54 137q53 53 141 53t139 -52t51 -134t-53 -138t-143 -57q-90 0 -139 54q-50 53 -50 137zM750 326v530q-57 27 -158 27q-136 0 -198 -111t-62 -293q0 -332 213 -332q89 1 147 55t58 124z
M987 227q0 -33 11 -45t40 -14l66 -4v-164h-326v119l-6 2q-102 -147 -280 -148q-209 0 -310 133q-100 133 -100 365q0 279 135 435t406 155q174 0 364 -72v-762z" />
    <glyph glyph-name="ae" unicode="&#xe6;" horiz-adv-x="1566" 
d="M1266 768q0 55 -33 87t-88 32q-115 0 -177 -92t-69 -220q111 0 198 28t128 69t41 96zM588 883q-128 0 -192 -109q-64 -110 -64 -280t50 -258t169 -89q88 0 154 66q-53 113 -54 299q0 186 105 340q-76 31 -168 31zM1164 1061q150 0 238 -75q89 -75 89 -210
q0 -367 -584 -370q5 -113 69 -179q64 -65 185 -65t256 92l78 -166q-47 -39 -143 -77t-226 -38q-213 0 -323 111q-135 -111 -303 -111q-222 1 -320 139t-98 388t137 406t393 155q150 0 293 -70q109 70 259 70z" />
    <glyph glyph-name="ccedilla" unicode="&#xe7;" horiz-adv-x="964" 
d="M483 -379q98 0 99 77q0 77 -181 77l64 202q-190 23 -294 158q-103 135 -103 367q0 287 144 423t326 136t336 -84v-266l-188 -15v99q0 55 -40 68t-83 14q-248 0 -248 -351q0 -174 66 -270q65 -96 189 -96t245 88l88 -158q-129 -109 -321 -117l-25 -102q189 -13 191 -181
q0 -89 -75 -137q-75 -49 -175 -49t-185 37l33 107q80 -27 137 -27z" />
    <glyph glyph-name="egrave" unicode="&#xe8;" horiz-adv-x="991" 
d="M690 762q0 125 -123 125q-115 0 -176 -91t-67 -218q90 2 165 15t138 59t63 110zM582 1061q154 0 244 -75t89 -210q-1 -90 -39 -159t-96 -107t-166 -72q-110 -33 -282 -32q6 -109 67 -176q61 -66 189 -66t254 90l78 -166q-40 -37 -138 -76t-223 -39q-251 1 -367 139
t-116 380t133 406t373 163zM295 1491q0 41 59 74l97 45l237 -393l-80 -68l-262 254q-51 47 -51 88z" />
    <glyph glyph-name="eacute" unicode="&#xe9;" horiz-adv-x="991" 
d="M354 1217l238 393l96 -45q116 -65 8 -162l-262 -254zM690 762q0 125 -123 125q-115 0 -176 -91t-67 -218q90 2 165 15t138 59t63 110zM582 1061q154 0 244 -75t89 -210q-1 -90 -39 -159t-96 -107t-166 -72q-110 -33 -282 -32q6 -109 67 -176q61 -66 189 -66t254 90
l78 -166q-40 -37 -138 -76t-223 -39q-251 1 -367 139t-116 380t133 406t373 163z" />
    <glyph glyph-name="ecircumflex" unicode="&#xea;" horiz-adv-x="991" 
d="M690 762q0 125 -123 125q-115 0 -176 -91t-67 -218q90 2 165 15t138 59t63 110zM582 1061q154 0 244 -75t89 -210q-1 -90 -39 -159t-96 -107t-166 -72q-110 -33 -282 -32q6 -109 67 -176q61 -66 189 -66t254 90l78 -166q-40 -37 -138 -76t-223 -39q-251 1 -367 139
t-116 380t133 406t373 163zM539 1579q49 0 92 -57l231 -303l-84 -70l-241 213l-240 -211l-84 66l236 309q41 53 90 53z" />
    <glyph glyph-name="edieresis" unicode="&#xeb;" horiz-adv-x="991" 
d="M186 1324q0 58 40 98t102 40t101 -40q40 -40 40 -98t-40 -96q-41 -38 -103 -38t-101 38t-39 96zM596 1324q0 58 40 98t101 40t101 -40t41 -98q0 -58 -40 -96q-41 -38 -103 -38t-101 38t-39 96zM567 887q-115 0 -176 -91t-67 -218q90 2 164 15t139 59q63 46 63 110
q0 125 -123 125zM582 1061q154 0 244 -75t89 -210q-1 -90 -39 -159q-118 -211 -544 -211q6 -109 67 -176q61 -66 189 -66t254 90l78 -166q-40 -37 -138 -76t-223 -39q-251 1 -367 139t-116 380t133 406t373 163z" />
    <glyph glyph-name="igrave" unicode="&#xec;" horiz-adv-x="606" 
d="M438 1030v-860l117 -6v-164h-487v156l67 6q59 6 60 65v570q1 35 -11 47t-41 12l-71 4v170h366zM41 1491q0 41 59 74l97 45l237 -393l-80 -68l-262 254q-51 47 -51 88z" />
    <glyph glyph-name="iacute" unicode="&#xed;" horiz-adv-x="606" 
d="M561 1491q0 -41 -51 -88l-262 -254l-80 68l238 393l96 -45q59 -33 59 -74zM438 1030v-860l117 -6v-164h-487v156l67 6q59 6 60 65v570q1 35 -11 47t-41 12l-71 4v170h366z" />
    <glyph glyph-name="icircumflex" unicode="&#xee;" horiz-adv-x="606" 
d="M438 1030v-860l117 -6v-164h-487v156l67 6q59 6 60 65v570q1 35 -11 47t-41 12l-71 4v170h366zM258 1579q49 0 92 -57l232 -303l-84 -70l-242 213l-240 -211l-84 66l236 309q41 53 90 53z" />
    <glyph glyph-name="idieresis" unicode="&#xef;" horiz-adv-x="606" 
d="M-90 1324q0 58 40 98t101 40t101 -40t41 -98q0 -58 -40 -96q-41 -38 -103 -38t-101 38t-39 96zM319 1324q0 58 40 98q39 40 101 40t102 -40t40 -98t-40 -96t-102 -38t-102 38q-39 38 -39 96zM438 1030v-860l117 -6v-164h-487v156l67 6q59 6 60 65v570q1 35 -11 47t-41 12
l-71 4v170h366z" />
    <glyph glyph-name="eth" unicode="&#xf0;" horiz-adv-x="1048" 
d="M516 166q102 0 157 101q54 101 54 268q0 84 -2 112q-92 76 -213 76q-199 -1 -199 -279t203 -278zM979 565q0 -268 -117 -431q-116 -163 -352 -163t-342 125t-107 335q0 210 112 345t304 135q133 0 234 -65q-39 143 -127 248l-170 -117l-95 133l136 92q-90 55 -205 76
l49 190q205 -27 350 -133l172 117l92 -133l-137 -96q203 -252 203 -658z" />
    <glyph glyph-name="ntilde" unicode="&#xf1;" horiz-adv-x="1228" 
d="M55 1030h346v-133q53 76 141 120t191 44q156 0 241 -89t85 -267v-535l117 -6v-164h-488v156l68 6q31 4 45 17t14 50v422q0 113 -35 167t-132 54t-154 -61t-58 -145v-496l117 -6v-164h-487v156l67 6q31 4 45 17t15 50v568q0 61 -52 63l-86 6v164zM473 1454q49 0 143 -29
t138 -29t84 66l110 -59q-68 -178 -211 -178q-45 -1 -135 27t-126 28t-58 -11t-56 -48l-98 71q74 162 209 162z" />
    <glyph glyph-name="ograve" unicode="&#xf2;" horiz-adv-x="1081" 
d="M68 516q0 152 45 264t120 170q145 111 322 111q123 0 208 -40t133 -92q48 -51 82 -151t34 -235q0 -283 -138 -428t-351 -145q-215 0 -335 138t-120 408zM539 150q223 0 223 360q0 182 -50 276t-168 95q-227 0 -229 -336q0 -289 107 -363q47 -32 117 -32zM311 1491
q0 41 60 74l96 45l238 -393l-80 -68l-263 254q-51 47 -51 88z" />
    <glyph glyph-name="oacute" unicode="&#xf3;" horiz-adv-x="1081" 
d="M774 1491q0 -41 -51 -88l-262 -254l-80 68l237 393l97 -45q59 -33 59 -74zM68 516q0 152 45 264t120 170q145 111 322 111q123 0 208 -40t133 -92q48 -51 82 -151t34 -235q0 -283 -138 -428t-351 -145q-215 0 -335 138t-120 408zM539 150q223 0 223 360q0 182 -50 276
t-168 95q-227 0 -229 -336q0 -289 107 -363q47 -32 117 -32z" />
    <glyph glyph-name="ocircumflex" unicode="&#xf4;" horiz-adv-x="1081" 
d="M68 516q0 152 45 264t120 170q145 111 322 111q123 0 208 -40t133 -92q48 -51 82 -151t34 -235q0 -283 -138 -428t-351 -145q-215 0 -335 138t-120 408zM539 150q223 0 223 360q0 182 -50 276t-168 95q-227 0 -229 -336q0 -289 107 -363q47 -32 117 -32zM536 1579
q50 0 93 -57l231 -303l-84 -70l-241 213l-240 -211l-84 66l235 309q40 53 90 53z" />
    <glyph glyph-name="otilde" unicode="&#xf5;" horiz-adv-x="1081" 
d="M412 1454q49 0 143 -29t138 -29t83 66l111 -59q-68 -178 -211 -178q-45 -1 -135 27t-126 28q-37 0 -59 -11t-55 -48l-98 71q74 162 209 162zM68 516q0 152 45 264t120 170q145 111 322 111q123 0 208 -40t133 -92q48 -51 82 -151t34 -235q0 -283 -138 -428t-351 -145
q-215 0 -335 138t-120 408zM539 150q223 0 223 360q0 182 -50 276t-168 95q-227 0 -229 -336q0 -289 107 -363q47 -32 117 -32z" />
    <glyph glyph-name="odieresis" unicode="&#xf6;" horiz-adv-x="1081" 
d="M68 516q0 152 45 264t120 170q145 111 322 111q123 0 208 -40t133 -92q48 -51 82 -151t34 -235q0 -283 -138 -428t-351 -145q-215 0 -335 138t-120 408zM539 150q223 0 223 360q0 182 -50 276t-168 95q-227 0 -229 -336q0 -289 107 -363q47 -32 117 -32zM188 1324
q0 58 40 98t102 40t101 -40q40 -40 40 -98t-40 -96q-41 -38 -103 -38t-101 38t-39 96zM598 1324q0 58 40 98t101 40t101 -40t41 -98q0 -58 -40 -96q-41 -38 -103 -38t-101 38t-39 96z" />
    <glyph glyph-name="divide" unicode="&#xf7;" horiz-adv-x="1095" 
d="M963 741v-196h-830v196h830zM418 1031q0 61 36 101t96 40t97 -38q37 -36 37 -98t-37 -101q-37 -40 -98 -40t-96 38t-35 98zM418 259q0 60 36 100t96 40t97 -37t37 -98t-37 -101t-98 -40t-96 38t-35 98z" />
    <glyph glyph-name="oslash" unicode="&#xf8;" horiz-adv-x="1081" 
d="M547 881q-117 0 -172 -90t-55 -243t24 -237l283 555q-31 15 -80 15zM543 150q223 0 223 360q0 131 -27 213l-284 -557q39 -16 88 -16zM72 516q0 152 45 264t121 170q145 111 321 111q90 0 162 -23l78 156l149 -72l-82 -164q150 -130 150 -414t-137 -429t-353 -146
q-90 0 -164 25l-81 -166l-148 74l86 176q-147 141 -147 438z" />
    <glyph glyph-name="ugrave" unicode="&#xf9;" horiz-adv-x="1210" 
d="M1153 0h-332v133q-113 -160 -332 -160q-317 0 -317 355v473q0 55 -51 57l-66 4v168h361v-649q0 -109 30 -164t127 -55q96 0 155 59q58 59 58 144v432q0 33 -11 46t-40 15l-65 4v168h360v-803q0 -33 10 -44t41 -15l72 -6v-162zM324 1491q0 41 59 74l96 45l238 -393
l-80 -68l-262 254q-51 47 -51 88z" />
    <glyph glyph-name="uacute" unicode="&#xfa;" horiz-adv-x="1210" 
d="M811 1491q0 -41 -51 -88l-262 -254l-80 68l237 393l97 -45q59 -33 59 -74zM1153 0h-332v133q-113 -160 -332 -160q-317 0 -317 355v473q0 55 -51 57l-66 4v168h361v-649q0 -109 30 -164t127 -55q96 0 155 59q58 59 58 144v432q0 33 -11 46t-40 15l-65 4v168h360v-803
q0 -33 10 -44t41 -15l72 -6v-162z" />
    <glyph glyph-name="ucircumflex" unicode="&#xfb;" horiz-adv-x="1210" 
d="M1153 0h-332v133q-113 -160 -332 -160q-317 0 -317 355v473q0 55 -51 57l-66 4v168h361v-649q0 -109 30 -164t127 -55q96 0 155 59q58 59 58 144v432q0 33 -11 46t-40 15l-65 4v168h360v-803q0 -33 10 -44t41 -15l72 -6v-162zM563 1579q49 0 92 -57l232 -303l-84 -70
l-242 213l-239 -211l-84 66l235 309q41 53 90 53z" />
    <glyph glyph-name="udieresis" unicode="&#xfc;" horiz-adv-x="1210" 
d="M221 1324q0 58 40 98t101 40q62 0 102 -40t40 -98t-40 -96t-102 -38t-102 38q-39 38 -39 96zM631 1324q0 58 40 98t101 40t101 -40t40 -98t-40 -96t-102 -38t-101 38t-39 96zM1153 0h-332v133q-113 -160 -332 -160q-317 0 -317 355v473q0 55 -51 57l-66 4v168h361v-649
q0 -109 30 -164t127 -55q96 0 155 59q58 59 58 144v432q0 33 -11 46t-40 15l-65 4v168h360v-803q0 -33 10 -44t41 -15l72 -6v-162z" />
    <glyph glyph-name="yacute" unicode="&#xfd;" horiz-adv-x="1173" 
d="M821 39v156q-113 -160 -332 -160q-317 0 -317 354v412q0 55 -51 57l-66 4v168h361v-588q0 -110 30 -164t127 -54t155 58q58 60 58 144v371q0 35 -11 48t-40 13l-65 4v168h360v-991q0 -248 -120 -363q-120 -114 -362 -114t-378 67v285l195 16v-98q0 -54 51 -74t141 -20
q264 0 264 301zM813 1491q0 -41 -51 -88l-262 -254l-80 68l237 393l97 -45q59 -33 59 -74z" />
    <glyph glyph-name="thorn" unicode="&#xfe;" horiz-adv-x="1163" 
d="M1083 565q1 -283 -117 -439t-329 -157q-123 0 -219 60v-283l166 -8v-162h-529v156l68 6q31 4 45 17t14 50v1432q0 47 -51 49l-72 4v170h359v-485q92 86 248 86q190 0 304 -132q113 -133 113 -364zM831 532q0 346 -229 347q-74 0 -129 -43t-55 -111v-510q78 -51 190 -51
t168 101q55 101 55 267z" />
    <glyph glyph-name="ydieresis" unicode="&#xff;" horiz-adv-x="1173" 
d="M207 1324q0 58 40 98t101 40q62 0 102 -40t40 -98t-40 -96t-102 -38t-102 38q-39 38 -39 96zM616 1324q0 58 40 98t102 40t101 -40q40 -40 40 -98t-40 -96q-41 -38 -103 -38t-101 38t-39 96zM821 39v156q-113 -160 -332 -160q-317 0 -317 354v412q0 55 -51 57l-66 4v168
h361v-588q0 -110 30 -164t127 -54t155 58q58 60 58 144v371q0 35 -11 48t-40 13l-65 4v168h360v-991q0 -248 -120 -363q-120 -114 -362 -114t-378 67v285l195 16v-98q0 -54 51 -74t141 -20q264 0 264 301z" />
    <glyph glyph-name="Amacron" unicode="&#x100;" horiz-adv-x="1355" 
d="M326 1503v178h587v-178h-587zM662 1133l-191 -584h381l-184 584h-6zM340 1362h469l418 -1182h2l117 -6v-174h-529v166l78 6q35 4 47 16t2 45l-43 127h-479l-62 -180l123 -6v-174h-473v166l68 6q43 4 61 57l330 955l-129 12v166z" />
    <glyph glyph-name="amacron" unicode="&#x101;" horiz-adv-x="1161" 
d="M750 326v530q-57 27 -158 27q-136 0 -198 -111t-62 -293q0 -332 213 -332q89 1 147 55t58 124zM987 227q0 -33 11 -45t40 -14l66 -4v-164h-326v119l-6 2q-102 -147 -280 -148q-209 0 -310 133q-100 133 -100 365q0 279 135 435t406 155q174 0 364 -72v-762zM305 1249v172
h588v-172h-588z" />
    <glyph glyph-name="Abreve" unicode="&#x102;" horiz-adv-x="1355" 
d="M620 1475q-261 0 -333 258l137 57q63 -160 205 -160q76 0 122 38q45 38 80 122l136 -55q-86 -260 -347 -260zM662 1133l-191 -584h381l-184 584h-6zM340 1362h469l418 -1182h2l117 -6v-174h-529v166l78 6q35 4 47 16t2 45l-43 127h-479l-62 -180l123 -6v-174h-473v166
l68 6q43 4 61 57l330 955l-129 12v166z" />
    <glyph glyph-name="abreve" unicode="&#x103;" horiz-adv-x="1161" 
d="M750 326v530q-57 27 -158 27q-136 0 -198 -111t-62 -293q0 -332 213 -332q89 1 147 55t58 124zM987 227q0 -33 11 -45t40 -14l66 -4v-164h-326v119l-6 2q-102 -147 -280 -148q-209 0 -310 133q-100 133 -100 365q0 279 135 435t406 155q174 0 364 -72v-762zM583 1151
q-138 0 -221 85q-82 85 -100 210l139 33q57 -172 193 -172q63 0 109 38t83 132l134 -31q-33 -139 -116 -217t-221 -78z" />
    <glyph glyph-name="Aogonek" unicode="&#x104;" horiz-adv-x="1355" 
d="M662 1133l-191 -584h381l-184 584h-6zM340 1362h469l418 -1182h2l117 -6v-174h-93q-203 -88 -202 -199q0 -78 84 -77q45 0 96 22l45 -135q-102 -49 -214 -49t-164 56t-52 140q0 141 180 242h-209v166l78 6q35 4 47 16t2 45l-43 127h-479l-62 -180l123 -6v-174h-473v166
l68 6q43 4 61 57l330 955l-129 12v166z" />
    <glyph glyph-name="aogonek" unicode="&#x105;" horiz-adv-x="1161" 
d="M750 326v530q-57 27 -158 27q-136 0 -198 -111t-62 -293q0 -332 213 -332q89 1 147 55t58 124zM987 227q0 -33 11 -45t40 -14l66 -4v-164q-223 -86 -223 -195q0 -82 84 -81q45 0 96 22l45 -135q-102 -49 -214 -49t-164 56t-52 140q0 154 194 228v14h-92v119l-6 2
q-102 -147 -280 -148q-209 0 -310 133q-100 133 -100 365q0 279 135 435t406 155q174 0 364 -72v-762z" />
    <glyph glyph-name="Cacute" unicode="&#x106;" horiz-adv-x="1232" 
d="M938 1722q0 -51 -72 -92l-317 -178l-62 84l332 322l82 -68q37 -35 37 -68zM725 1184q-191 0 -289 -129t-98 -373q0 -506 379 -506h54q48 0 91 13t51 27t9 46v164l208 -14v-355q-160 -84 -405 -84q-313 1 -478 177t-165 524q0 193 55 336t150 223q184 154 438 153
q205 0 385 -83v-349l-209 -14v160q0 31 -8 45q-23 39 -168 39z" />
    <glyph glyph-name="cacute" unicode="&#x107;" horiz-adv-x="964" 
d="M570 160q124 0 245 88l88 -158q-145 -119 -364 -119q-219 1 -345 139t-126 408t144 406t326 137q182 0 336 -84v-266l-188 -15v99q0 55 -40 68t-83 14q-248 0 -248 -351q0 -174 66 -270q65 -96 189 -96zM768 1491q0 -41 -51 -88l-262 -254l-80 68l237 393l97 -45
q59 -33 59 -74z" />
    <glyph glyph-name="Ccircumflex" unicode="&#x108;" horiz-adv-x="1232" 
d="M459 1450l-84 70l241 262q43 47 86 47l82 -43l246 -264l-84 -72l-246 176zM725 1184q-191 0 -289 -129t-98 -373q0 -506 379 -506h54q48 0 91 13t51 27t9 46v164l208 -14v-355q-160 -84 -405 -84q-313 1 -478 177t-165 524q0 193 55 336t150 223q184 154 438 153
q205 0 385 -83v-349l-209 -14v160q0 31 -8 45q-23 39 -168 39z" />
    <glyph glyph-name="ccircumflex" unicode="&#x109;" horiz-adv-x="964" 
d="M570 160q124 0 245 88l88 -158q-145 -119 -364 -119q-219 1 -345 139t-126 408t144 406t326 137q182 0 336 -84v-266l-188 -15v99q0 55 -40 68t-83 14q-248 0 -248 -351q0 -174 66 -270q65 -96 189 -96zM536 1581q50 0 93 -57l231 -303l-84 -70l-241 213l-240 -211
l-84 66l235 309q40 53 90 53z" />
    <glyph glyph-name="Cdotaccent" unicode="&#x10a;" horiz-adv-x="1232" 
d="M565 1623q0 58 40 98q39 40 101 40t102 -40t40 -98t-40 -96t-102 -38t-102 38q-39 38 -39 96zM725 1184q-191 0 -289 -129t-98 -373q0 -506 379 -506h54q48 0 91 13t51 27t9 46v164l208 -14v-355q-160 -84 -405 -84q-313 1 -478 177t-165 524q0 193 55 336t150 223
q184 154 438 153q205 0 385 -83v-349l-209 -14v160q0 31 -8 45q-23 39 -168 39z" />
    <glyph glyph-name="cdotaccent" unicode="&#x10b;" horiz-adv-x="964" 
d="M570 160q124 0 245 88l88 -158q-145 -119 -364 -119q-219 1 -345 139t-126 408t144 406t326 137q182 0 336 -84v-266l-188 -15v99q0 55 -40 68t-83 14q-248 0 -248 -351q0 -174 66 -270q65 -96 189 -96zM403 1324q0 58 40 98q39 40 101 40t102 -40t40 -98t-40 -96
t-102 -38t-102 38q-39 38 -39 96z" />
    <glyph glyph-name="Ccaron" unicode="&#x10c;" horiz-adv-x="1232" 
d="M938 1829l84 -70l-242 -262q-43 -47 -86 -47l-82 43l-245 264l84 72l245 -176zM725 1184q-191 0 -289 -129t-98 -373q0 -506 379 -506h54q48 0 91 13t51 27t9 46v164l208 -14v-355q-160 -84 -405 -84q-313 1 -478 177t-165 524q0 193 55 336t150 223q184 154 438 153
q205 0 385 -83v-349l-209 -14v160q0 31 -8 45q-23 39 -168 39z" />
    <glyph glyph-name="ccaron" unicode="&#x10d;" horiz-adv-x="964" 
d="M570 160q124 0 245 88l88 -158q-145 -119 -364 -119q-219 1 -345 139t-126 408t144 406t326 137q182 0 336 -84v-266l-188 -15v99q0 55 -40 68t-83 14q-248 0 -248 -351q0 -174 66 -270q65 -96 189 -96zM543 1161q-49 0 -92 58l-232 292l84 70l242 -213l239 211l84 -66
l-235 -299q-41 -53 -90 -53z" />
    <glyph glyph-name="Dcaron" unicode="&#x10e;" horiz-adv-x="1361" 
d="M856 1829l84 -70l-242 -262q-43 -47 -86 -47l-82 43l-245 264l84 72l245 -176zM446 1163v-966h209q176 0 275 127q98 127 98 368q0 471 -399 471h-183zM70 0v166l67 6q59 6 60 57v953l-117 6v174h561q301 0 470 -160t169 -473q0 -195 -51 -339t-139 -226
q-176 -164 -439 -164h-581z" />
    <glyph glyph-name="dcaron" unicode="&#x10f;" horiz-adv-x="1331" 
d="M1247 1470q82 0 82 -81q0 -25 -8 -54l-94 -325l-99 18v432l103 10h16zM750 319v531q-74 33 -156 33q-136 0 -198 -109t-62 -276q0 -344 221 -344q83 0 139 48t56 117zM582 1061q88 0 168 -25v207q0 45 -54 49l-88 6v162h381v-1245q2 -47 51 -47l72 -4v-164h-332v121l-6 2
q-92 -150 -278 -150q-234 1 -324 149t-90 353q0 266 132 426t368 160z" />
    <glyph glyph-name="Dcroat" unicode="&#x110;" horiz-adv-x="1390" 
d="M475 1163v-385h346v-184h-346v-397h209q176 0 274 127t99 368q0 471 -400 471h-182zM98 0v166l68 6q59 6 59 57v365h-151v184h151v404l-116 6v174h561q301 0 470 -160t169 -473q1 -195 -51 -339t-140 -226q-176 -164 -438 -164h-582z" />
    <glyph glyph-name="dcroat" unicode="&#x111;" horiz-adv-x="1163" 
d="M750 319v484q-74 33 -156 33q-136 0 -198 -96t-62 -242q0 -344 221 -344q83 0 139 48t56 117zM1112 1098h-123v-883q2 -47 51 -47l72 -4v-164h-332v121l-6 2q-92 -150 -278 -150q-234 1 -324 149t-90 372t132 372q132 147 368 148q88 0 168 -25v109h-349v147h349v33
q0 45 -54 49l-88 6v127h381v-215h123v-147z" />
    <glyph glyph-name="Emacron" unicode="&#x112;" horiz-adv-x="1124" 
d="M262 1503v178h588v-178h-588zM1042 0h-972v166l67 6q59 6 60 57v953l-117 6v174h938v-340l-209 -14v82q0 35 -10 49t-49 14h-304v-350h474v-209h-474v-383h330q37 0 47 15t11 50v103l208 -14v-365z" />
    <glyph glyph-name="emacron" unicode="&#x113;" horiz-adv-x="991" 
d="M690 762q0 125 -123 125q-115 0 -176 -91t-67 -218q90 2 165 15t138 59t63 110zM582 1061q154 0 244 -75t89 -210q-1 -90 -39 -159t-96 -107t-166 -72q-110 -33 -282 -32q6 -109 67 -176q61 -66 189 -66t254 90l78 -166q-40 -37 -138 -76t-223 -39q-251 1 -367 139
t-116 380t133 406t373 163zM250 1249v172h588v-172h-588z" />
    <glyph glyph-name="Ebreve" unicode="&#x114;" horiz-adv-x="1124" 
d="M558 1475q-261 0 -333 258l137 57q63 -160 205 -160q76 0 122 38t81 122l135 -55q-86 -260 -347 -260zM1042 0h-972v166l67 6q59 6 60 57v953l-117 6v174h938v-340l-209 -14v82q0 35 -10 49t-49 14h-304v-350h474v-209h-474v-383h330q37 0 47 15t11 50v103l208 -14v-365z
" />
    <glyph glyph-name="ebreve" unicode="&#x115;" horiz-adv-x="991" 
d="M690 762q0 125 -123 125q-115 0 -176 -91t-67 -218q90 2 165 15t138 59t63 110zM582 1061q154 0 244 -75t89 -210q-1 -90 -39 -159t-96 -107t-166 -72q-110 -33 -282 -32q6 -109 67 -176q61 -66 189 -66t254 90l78 -166q-40 -37 -138 -76t-223 -39q-251 1 -367 139
t-116 380t133 406t373 163zM539 1307q63 0 109 38t83 132l133 -31q-70 -295 -337 -295q-138 0 -220 85t-100 210l139 33q57 -172 193 -172z" />
    <glyph glyph-name="Edotaccent" unicode="&#x116;" horiz-adv-x="1124" 
d="M426 1623q0 58 40 98t101 40t101 -40t41 -98q0 -58 -40 -96q-41 -38 -103 -38t-101 38t-39 96zM1042 0h-972v166l67 6q59 6 60 57v953l-117 6v174h938v-340l-209 -14v82q0 35 -10 49t-49 14h-304v-350h474v-209h-474v-383h330q37 0 47 15t11 50v103l208 -14v-365z" />
    <glyph glyph-name="edotaccent" unicode="&#x117;" horiz-adv-x="991" 
d="M690 762q0 125 -123 125q-115 0 -176 -91t-67 -218q90 2 165 15t138 59t63 110zM582 1061q154 0 244 -75t89 -210q-1 -90 -39 -159t-96 -107t-166 -72q-110 -33 -282 -32q6 -109 67 -176q61 -66 189 -66t254 90l78 -166q-40 -37 -138 -76t-223 -39q-251 1 -367 139
t-116 380t133 406t373 163zM546 1462q62 0 102 -40t40 -98t-40 -96t-102 -38t-102 38q-39 38 -38 96q0 58 39 98t101 40z" />
    <glyph glyph-name="Eogonek" unicode="&#x118;" horiz-adv-x="1124" 
d="M811 -199q0 -78 84 -77q45 0 96 22l45 -135q-102 -49 -214 -49t-164 56t-52 140q0 141 180 242h-716v166l67 6q59 6 60 57v953l-117 6v174h938v-340l-209 -14v82q0 35 -10 49t-49 14h-304v-350h474v-209h-474v-383h330q37 0 47 15t11 50v103l208 -14v-365
q-231 -80 -231 -199z" />
    <glyph glyph-name="eogonek" unicode="&#x119;" horiz-adv-x="991" 
d="M690 762q0 125 -123 125q-115 0 -176 -91t-67 -218q90 2 165 15t138 59t63 110zM594 -199q0 -78 84 -77q45 0 96 22l45 -135q-102 -49 -214 -49t-164 56t-52 140q0 127 137 215q-233 9 -342 147t-108 376q0 238 133 402t373 163q154 0 244 -75t89 -210q-1 -90 -39 -159
t-96 -107t-166 -72q-110 -33 -282 -32q6 -109 67 -176q61 -66 189 -66t254 90l78 -166q-29 -25 -123 -74q-95 -49 -149 -100t-54 -113z" />
    <glyph glyph-name="Ecaron" unicode="&#x11a;" horiz-adv-x="1124" 
d="M823 1829l84 -70l-241 -262q-43 -47 -86 -47l-82 43l-246 264l84 72l246 -176zM1042 0h-972v166l67 6q59 6 60 57v953l-117 6v174h938v-340l-209 -14v82q0 35 -10 49t-49 14h-304v-350h474v-209h-474v-383h330q37 0 47 15t11 50v103l208 -14v-365z" />
    <glyph glyph-name="ecaron" unicode="&#x11b;" horiz-adv-x="991" 
d="M690 762q0 125 -123 125q-115 0 -176 -91t-67 -218q90 2 165 15t138 59t63 110zM582 1061q154 0 244 -75t89 -210q-1 -90 -39 -159t-96 -107t-166 -72q-110 -33 -282 -32q6 -109 67 -176q61 -66 189 -66t254 90l78 -166q-40 -37 -138 -76t-223 -39q-251 1 -367 139
t-116 380t133 406t373 163zM539 1161q-49 0 -93 58l-231 292l84 70l242 -213l239 211l84 -66l-235 -299q-41 -53 -90 -53z" />
    <glyph glyph-name="Gcircumflex" unicode="&#x11c;" horiz-adv-x="1312" 
d="M469 1450l-84 70l242 262q43 47 86 47l82 -43l245 -264l-84 -72l-245 176zM1155 477v-371q-190 -131 -473 -131q-284 -1 -442 177t-158 526q0 154 40 276q73 223 255 336q164 96 372 96t388 -83v-349l-209 -14v160q0 31 -8 45q-23 39 -187 39q-395 0 -395 -490
q0 -516 356 -516q141 0 217 49v305h-2l-157 7v174h510v-164l-48 -4q-33 -3 -46 -17t-13 -51z" />
    <glyph glyph-name="gcircumflex" unicode="&#x11d;" horiz-adv-x="1114" 
d="M745 418v440q-72 25 -163 25q-125 0 -192 -92t-66 -250q0 -324 213 -324q88 1 148 55t60 146zM496 -438q-240 0 -375 67v285l194 16v-98q-1 -54 51 -74t142 -20q131 0 184 79t53 222v113q-98 -115 -272 -115q-106 0 -187 41t-126 110q-88 139 -88 328q0 268 145 406
t387 139q201 0 379 -76v-760q0 -174 -4 -223q-18 -228 -131 -334q-112 -106 -352 -106zM569 1579q49 0 93 -57l231 -303l-84 -70l-242 213l-239 -211l-84 66l235 309q41 53 90 53z" />
    <glyph glyph-name="Gbreve" unicode="&#x11e;" horiz-adv-x="1312" 
d="M689 1475q-261 0 -333 258l138 57q63 -160 204 -160q76 0 122 38t81 122l135 -55q-86 -260 -347 -260zM1155 477v-371q-190 -131 -473 -131q-284 -1 -442 177t-158 526q0 154 40 276q73 223 255 336q164 96 372 96t388 -83v-349l-209 -14v160q0 31 -8 45q-23 39 -187 39
q-395 0 -395 -490q0 -516 356 -516q141 0 217 49v305h-2l-157 7v174h510v-164l-48 -4q-33 -3 -46 -17t-13 -51z" />
    <glyph glyph-name="gbreve" unicode="&#x11f;" horiz-adv-x="1114" 
d="M745 418v440q-72 25 -163 25q-125 0 -192 -92t-66 -250q0 -324 213 -324q88 1 148 55t60 146zM496 -438q-240 0 -375 67v285l194 16v-98q-1 -54 51 -74t142 -20q131 0 184 79t53 222v113q-98 -115 -272 -115q-106 0 -187 41t-126 110q-88 139 -88 328q0 268 145 406
t387 139q201 0 379 -76v-760q0 -174 -4 -223q-18 -228 -131 -334q-112 -106 -352 -106zM566 1151q-138 0 -220 85t-100 210l139 33q57 -172 193 -172q63 0 109 38t83 132l133 -31q-33 -139 -116 -217t-221 -78z" />
    <glyph glyph-name="Gdotaccent" unicode="&#x120;" horiz-adv-x="1312" 
d="M582 1623q0 58 40 98t101 40t101 -40t40 -98t-40 -96t-102 -38t-101 38t-39 96zM1155 477v-371q-190 -131 -473 -131q-284 -1 -442 177t-158 526q0 154 40 276q73 223 255 336q164 96 372 96t388 -83v-349l-209 -14v160q0 31 -8 45q-23 39 -187 39q-395 0 -395 -490
q0 -516 356 -516q141 0 217 49v305h-2l-157 7v174h510v-164l-48 -4q-33 -3 -46 -17t-13 -51z" />
    <glyph glyph-name="gdotaccent" unicode="&#x121;" horiz-adv-x="1114" 
d="M745 418v440q-72 25 -163 25q-125 0 -192 -92t-66 -250q0 -324 213 -324q88 1 148 55t60 146zM496 -438q-240 0 -375 67v285l194 16v-98q-1 -54 51 -74t142 -20q131 0 184 79t53 222v113q-98 -115 -272 -115q-106 0 -187 41t-126 110q-88 139 -88 328q0 268 145 406
t387 139q201 0 379 -76v-760q0 -174 -4 -223q-18 -228 -131 -334q-112 -106 -352 -106zM432 1324q0 58 40 98t101 40t101 -40t41 -98q0 -58 -40 -96q-41 -38 -103 -38t-101 38t-39 96z" />
    <glyph glyph-name="Gcommaaccent" unicode="&#x122;" horiz-adv-x="1312" 
d="M817 -237q0 -24 -29 -62l-176 -276l-94 45l121 405l100 -20q66 -12 76 -60q2 -8 2 -32zM1155 477v-371q-190 -131 -473 -131q-284 -1 -442 177t-158 526q0 154 40 276q73 223 255 336q164 96 372 96t388 -83v-349l-209 -14v160q0 31 -8 45q-23 39 -187 39
q-395 0 -395 -490q0 -516 356 -516q141 0 217 49v305h-2l-157 7v174h510v-164l-48 -4q-33 -3 -46 -17t-13 -51z" />
    <glyph glyph-name="gcommaaccent" unicode="&#x123;" horiz-adv-x="1114" 
d="M463 1274q0 37 29 76l176 276l94 -45l-121 -405l-100 20q-78 14 -78 78zM745 418v440q-72 25 -163 25q-125 0 -192 -92t-66 -250q0 -324 213 -324q88 1 148 55t60 146zM496 -438q-240 0 -375 67v285l194 16v-98q-1 -54 51 -74t142 -20q131 0 184 79t53 222v113
q-98 -115 -272 -115q-106 0 -187 41t-126 110q-88 139 -88 328q0 268 145 406t387 139q201 0 379 -76v-760q0 -174 -4 -223q-18 -228 -131 -334q-112 -106 -352 -106z" />
    <glyph glyph-name="Hcircumflex" unicode="&#x124;" horiz-adv-x="1458" 
d="M483 1450l-84 70l242 262q43 47 86 47l82 -43l246 -264l-84 -72l-246 176zM1022 240v354h-580v-414l119 -6v-174h-495v166l67 6q59 6 60 57v953l-117 6v174h495v-166l-67 -6q-33 -4 -47 -18t-15 -50v-317h580v377l-117 6v174h496v-166l-68 -6q-59 -6 -59 -66v-944l117 -6
v-174h-496v166l68 6q31 4 45 18t14 50z" />
    <glyph glyph-name="hcircumflex" unicode="&#x125;" horiz-adv-x="1228" 
d="M14 1507l-84 70l242 262q43 47 86 47l82 -43l246 -264l-84 -72l-246 176zM193 229v998q1 33 -11 45t-41 14l-71 4v170h364v-551q106 152 299 152q156 0 241 -89t85 -267v-535l117 -6v-164h-488v156l68 6q31 4 45 17t14 50v422q0 105 -34 163t-131 58t-155 -60t-59 -146
v-496l117 -6v-164h-487v156l67 6q31 4 45 17t15 50z" />
    <glyph glyph-name="Hbar" unicode="&#x126;" horiz-adv-x="1490" 
d="M455 805h579v121h-579v-121zM1034 240v354h-579v-414l118 -6v-174h-495v166l67 6q59 6 60 57v697h-127v157h127v99l-117 6v174h496v-166l-68 -6q-33 -4 -47 -18t-14 -50v-39h579v99l-116 6v174h495v-166l-67 -6q-59 -6 -60 -66v-41h137v-157h-137v-746l117 -6v-174h-496
v166l68 6q31 4 45 18t14 50z" />
    <glyph glyph-name="hbar" unicode="&#x127;" horiz-adv-x="1228" 
d="M770 1081h-336v-223q106 152 299 152q156 0 241 -89t85 -268v-483l117 -6v-164h-488v156l68 6q31 4 45 17t14 50v371q0 106 -34 164t-131 57q-97 0 -155 -60t-59 -147v-444l117 -6v-164h-487v156l67 6q31 4 45 17t15 50v852h-134v148h134v8q1 33 -11 45t-41 14l-71 4v160
h364v-231h336v-148z" />
    <glyph glyph-name="Itilde" unicode="&#x128;" horiz-adv-x="628" 
d="M480 1667q44 0 83 66l111 -60q-68 -178 -211 -178q-45 0 -135 28q-90 27 -126 27t-58 -11t-56 -48l-98 72q74 162 209 161q49 0 143 -28t138 -29zM193 240v942l-117 6v174h495v-166l-67 -6q-59 -6 -60 -66v-944l117 -6v-174h-495v166l67 6q31 4 45 18t15 50z" />
    <glyph glyph-name="itilde" unicode="&#x129;" horiz-adv-x="606" 
d="M438 1030v-860l117 -6v-164h-487v156l67 6q59 6 60 65v570q1 35 -11 47t-41 12l-71 4v170h366zM143 1454q49 0 143 -29t139 -29q44 0 83 66l110 -59q-68 -178 -210 -178q-46 -1 -136 27t-126 28t-58 -11t-55 -48l-99 71q74 162 209 162z" />
    <glyph glyph-name="Imacron" unicode="&#x12a;" horiz-adv-x="628" 
d="M25 1503v178h587v-178h-587zM193 240v942l-117 6v174h495v-166l-67 -6q-59 -6 -60 -66v-944l117 -6v-174h-495v166l67 6q31 4 45 18t15 50z" />
    <glyph glyph-name="imacron" unicode="&#x12b;" horiz-adv-x="606" 
d="M438 1030v-860l117 -6v-164h-487v156l67 6q59 6 60 65v570q1 35 -11 47t-41 12l-71 4v170h366zM-31 1249v172h588v-172h-588z" />
    <glyph glyph-name="Ibreve" unicode="&#x12c;" horiz-adv-x="628" 
d="M316 1475q-262 0 -332 258l137 57q63 -160 205 -160q76 0 122 38t80 122l136 -55q-86 -260 -348 -260zM193 240v942l-117 6v174h495v-166l-67 -6q-59 -6 -60 -66v-944l117 -6v-174h-495v166l67 6q31 4 45 18t15 50z" />
    <glyph glyph-name="ibreve" unicode="&#x12d;" horiz-adv-x="606" 
d="M438 1030v-860l117 -6v-164h-487v156l67 6q59 6 60 65v570q1 35 -11 47t-41 12l-71 4v170h366zM265 1151q-138 0 -220 85t-100 210l139 33q57 -172 192 -172q63 0 110 38q46 38 83 132l133 -31q-33 -139 -116 -217t-221 -78z" />
    <glyph glyph-name="Iogonek" unicode="&#x12e;" horiz-adv-x="628" 
d="M193 240v942l-117 6v174h495v-166l-67 -6q-59 -6 -60 -66v-944l117 -6v-174q-217 -84 -217 -199q0 -78 84 -77q45 0 96 22l45 -135q-102 -49 -214 -49t-164 56t-52 139t46 132t132 97v14h-251v166l67 6q31 4 45 18t15 50z" />
    <glyph glyph-name="iogonek" unicode="&#x12f;" horiz-adv-x="606" 
d="M137 1315q0 65 43 109t113 44t114 -44t44 -110t-44 -107q-44 -42 -114 -42t-113 42t-43 108zM438 1030v-860l117 -6v-164q-240 -78 -240 -199q0 -78 84 -77q45 0 97 22l45 -135q-102 -49 -214 -49t-164 56t-52 139t49 134t133 91v18h-225v156l67 6q59 6 60 65v570
q1 35 -11 47t-41 12l-71 4v170h366z" />
    <glyph glyph-name="Idotaccent" unicode="&#x130;" horiz-adv-x="628" 
d="M182 1623q0 58 40 98t102 40t101 -40q40 -40 40 -98t-40 -96q-41 -38 -103 -38t-101 38t-39 96zM193 240v942l-117 6v174h495v-166l-67 -6q-59 -6 -60 -66v-944l117 -6v-174h-495v166l67 6q31 4 45 18t15 50z" />
    <glyph glyph-name="dotlessi" unicode="&#x131;" horiz-adv-x="606" 
d="M438 1030v-860l117 -6v-164h-487v156l67 6q59 6 60 65v570q1 35 -11 47t-41 12l-71 4v170h366z" />
    <glyph glyph-name="IJ" unicode="&#x132;" horiz-adv-x="1599" 
d="M1032 -27q-195 0 -346 86v359l209 14v-162q0 -31 8 -45q22 -39 151 -41q74 0 106 44t32 143v809l-160 8v174h537v-166l-68 -6q-59 -6 -59 -64v-637q0 -145 -8 -215q-35 -301 -402 -301zM193 240v942l-117 6v174h495v-166l-67 -6q-59 -6 -60 -66v-944l117 -6v-174h-495
v166l67 6q31 4 45 18t15 50z" />
    <glyph glyph-name="ij" unicode="&#x133;" horiz-adv-x="1185" 
d="M731 1315q0 65 43 109t113 44q69 0 113 -44t44 -110t-44 -107q-44 -42 -114 -42t-112 42q-43 42 -43 108zM1032 1030v-1079q0 -164 -53 -266q-68 -123 -274 -123q-147 0 -263 71l74 170q80 -43 147 -43t97 41t28 140v856q0 33 -11 45t-40 14l-71 4v170h366zM137 1315
q0 65 43 109t113 44t114 -44t44 -110t-44 -107q-44 -42 -114 -42t-113 42t-43 108zM438 1030v-860l117 -6v-164h-487v156l67 6q59 6 60 65v570q1 35 -11 47t-41 12l-71 4v170h366z" />
    <glyph glyph-name="Jcircumflex" unicode="&#x134;" horiz-adv-x="970" 
d="M426 1452l-84 70l242 262q43 47 86 47l82 -43l245 -264l-84 -72l-245 176zM401 -27q-193 0 -344 86v359l209 14v-162q0 -31 8 -45q22 -39 151 -41q73 0 105 44t33 143v809l-160 8v174h537v-166l-68 -6q-59 -6 -59 -64v-637q0 -145 -8 -215q-35 -301 -404 -301z" />
    <glyph glyph-name="jcircumflex" unicode="&#x135;" horiz-adv-x="579" 
d="M256 1579q49 0 92 -57l232 -303l-84 -70l-242 213l-240 -211l-84 66l236 309q41 53 90 53zM426 1030v-1079q0 -164 -53 -266q-68 -123 -275 -123q-147 0 -262 71l74 170q80 -43 146 -43t97 41q30 41 29 140v856q0 33 -11 45t-40 14l-72 4v170h367z" />
    <glyph glyph-name="Kcommaaccent" unicode="&#x136;" horiz-adv-x="1273" 
d="M750 -237q0 -24 -29 -62l-176 -276l-94 45l120 405l101 -20q66 -12 76 -60q2 -8 2 -32zM193 240v942l-117 6v174h491v-166l-67 -6q-59 -6 -60 -66v-450l418 508l-115 6v174h480v-166l-68 -6q-39 -4 -82 -57l-291 -357l363 -596l108 -6v-174h-524v166l64 6q41 4 41 33
q0 12 -11 33l-202 350l-181 -217v-191l117 -6v-174h-491v166l67 6q31 4 45 18t15 50z" />
    <glyph glyph-name="kcommaaccent" unicode="&#x137;" horiz-adv-x="1138" 
d="M688 -237q0 -24 -29 -62l-176 -276l-94 45l121 405l100 -20q66 -12 76 -60q2 -8 2 -32zM195 229v998q1 33 -11 45t-41 14l-71 4v170h364v-887q113 9 197 69t115 157q6 20 6 32q0 35 -39 35l-78 4v160h424v-166l-98 -4q-27 -209 -181 -330l201 -360l125 -6v-164h-299
l-234 426q-68 -18 -139 -29v-227h2l117 -6v-164h-487v156l67 6q31 4 45 17t15 50z" />
    <glyph glyph-name="kgreenlandic" unicode="&#x138;" horiz-adv-x="1138" 
d="M195 229v568q1 33 -11 45t-41 14l-71 4v170h364v-457q113 9 197 69t115 157q6 20 6 32q0 35 -39 35l-78 4v160h424v-166l-98 -4q-27 -209 -181 -330l201 -360l125 -6v-164h-299l-234 426q-68 -18 -139 -29v-227h2l117 -6v-164h-487v156l67 6q31 4 45 17t15 50z" />
    <glyph glyph-name="Lacute" unicode="&#x139;" horiz-adv-x="1099" 
d="M569 1722q0 -51 -71 -92l-318 -178l-61 84l332 322l81 -68q37 -35 37 -68zM1038 0h-972v166l67 6q59 6 60 57v953l-117 6v174h493v-166l-67 -6q-59 -6 -60 -66v-913h340q29 0 38 15t9 50v144l209 -14v-406z" />
    <glyph glyph-name="lacute" unicode="&#x13a;" horiz-adv-x="610" 
d="M520 1786q0 -51 -71 -92l-318 -178l-61 83l331 322l82 -68q37 -35 37 -67zM434 1460v-1290l117 -6v-164h-488v156l68 6q59 6 59 65v1010q0 45 -51 49l-71 4v170h366z" />
    <glyph glyph-name="Lcommaaccent" unicode="&#x13b;" horiz-adv-x="1099" 
d="M526 -125l101 -20q66 -12 75 -60q11 -45 -26 -94l-176 -276l-94 45zM1038 0h-972v166l67 6q59 6 60 57v953l-117 6v174h493v-166l-67 -6q-59 -6 -60 -66v-913h340q29 0 38 15t9 50v144l209 -14v-406z" />
    <glyph glyph-name="lcommaaccent" unicode="&#x13c;" horiz-adv-x="610" 
d="M428 -237q0 -24 -29 -62l-176 -276l-94 45l121 405l100 -20q66 -12 76 -60q2 -8 2 -32zM434 1460v-1290l117 -6v-164h-488v156l68 6q59 6 59 65v1010q0 45 -51 49l-71 4v170h366z" />
    <glyph glyph-name="Lcaron" unicode="&#x13d;" horiz-adv-x="1099" 
d="M860 1358q82 0 82 -82q0 -25 -8 -53l-94 -326l-99 18v433l103 10h16zM1038 0h-972v166l67 6q59 6 60 57v953l-117 6v174h493v-166l-67 -6q-59 -6 -60 -66v-913h340q29 0 38 15t9 50v144l209 -14v-406z" />
    <glyph glyph-name="lcaron" unicode="&#x13e;" horiz-adv-x="774" 
d="M690 1470q82 0 82 -81q0 -25 -8 -54l-94 -325l-99 18v432l103 10h16zM434 1460v-1290l117 -6v-164h-488v156l68 6q59 6 59 65v1010q0 45 -51 49l-71 4v170h366z" />
    <glyph glyph-name="Ldot" unicode="&#x13f;" horiz-adv-x="1099" 
d="M692 777q0 59 40 99t102 40t101 -40q40 -40 40 -98t-40 -97q-41 -38 -103 -38t-101 38t-39 96zM1038 0h-972v166l67 6q59 6 60 57v953l-117 6v174h493v-166l-67 -6q-59 -6 -60 -66v-913h340q29 0 38 15t9 50v144l209 -14v-406z" />
    <glyph glyph-name="ldot" unicode="&#x140;" horiz-adv-x="776" 
d="M555 777q0 59 40 99t101 40t102 -40q40 -40 40 -98t-40 -97q-40 -38 -102 -38t-102 38q-39 38 -39 96zM434 1460v-1290l117 -6v-164h-488v156l68 6q59 6 59 65v1010q0 45 -51 49l-71 4v170h366z" />
    <glyph glyph-name="Lslash" unicode="&#x141;" horiz-adv-x="1099" 
d="M1038 0h-972v166l67 6q59 6 60 57v271l-136 -74l-47 178l183 98v480l-117 6v174h493v-166l-67 -6q-59 -6 -60 -66v-317l379 199l49 -181l-428 -221v-393h340q29 0 38 15t9 50v144l209 -14v-406z" />
    <glyph glyph-name="lslash" unicode="&#x142;" horiz-adv-x="671" 
d="M465 1460v-518l147 107l68 -179l-215 -149v-551l117 -6v-164h-488v156l68 6q59 6 59 65v367l-133 -96l-68 178l201 137v424q0 45 -51 49l-72 4v170h367z" />
    <glyph glyph-name="Nacute" unicode="&#x143;" horiz-adv-x="1443" 
d="M551 1536l332 322l82 -68q37 -35 36 -68q0 -51 -71 -92l-318 -178zM66 0v166l73 6q53 4 54 57v953l-117 6v174h368l580 -940h4v760l-135 6v174h500v-166l-74 -6q-49 -4 -49 -64v-1126h-240l-592 954h-4v-774l133 -6v-174h-501z" />
    <glyph glyph-name="nacute" unicode="&#x144;" horiz-adv-x="1228" 
d="M55 1030h346v-133q53 76 141 120t191 44q156 0 241 -89t85 -267v-535l117 -6v-164h-488v156l68 6q31 4 45 17t14 50v422q0 113 -35 167t-132 54t-154 -61t-58 -145v-496l117 -6v-164h-487v156l67 6q31 4 45 17t15 50v568q0 61 -52 63l-86 6v164zM444 1217l238 393l96 -45
q116 -65 8 -162l-262 -254z" />
    <glyph glyph-name="Ncommaaccent" unicode="&#x145;" horiz-adv-x="1443" 
d="M819 -237q0 -24 -28 -62l-177 -276l-94 45l121 405l100 -20q66 -12 76 -60q2 -8 2 -32zM66 0v166l73 6q53 4 54 57v953l-117 6v174h368l580 -940h4v760l-135 6v174h500v-166l-74 -6q-49 -4 -49 -64v-1126h-240l-592 954h-4v-774l133 -6v-174h-501z" />
    <glyph glyph-name="ncommaaccent" unicode="&#x146;" horiz-adv-x="1228" 
d="M731 -237q0 -24 -29 -62l-176 -276l-94 45l121 405l100 -20q66 -12 76 -60q2 -8 2 -32zM55 1030h346v-133q53 76 141 120t191 44q156 0 241 -89t85 -267v-535l117 -6v-164h-488v156l68 6q31 4 45 17t14 50v422q0 113 -35 167t-132 54t-154 -61t-58 -145v-496l117 -6v-164
h-487v156l67 6q31 4 45 17t15 50v568q0 61 -52 63l-86 6v164z" />
    <glyph glyph-name="Ncaron" unicode="&#x147;" horiz-adv-x="1443" 
d="M963 1829l84 -70l-242 -262q-43 -47 -86 -47l-82 43l-246 264l84 72l246 -176zM66 0v166l73 6q53 4 54 57v953l-117 6v174h368l580 -940h4v760l-135 6v174h500v-166l-74 -6q-49 -4 -49 -64v-1126h-240l-592 954h-4v-774l133 -6v-174h-501z" />
    <glyph glyph-name="ncaron" unicode="&#x148;" horiz-adv-x="1228" 
d="M55 1030h346v-133q53 76 141 120t191 44q156 0 241 -89t85 -267v-535l117 -6v-164h-488v156l68 6q31 4 45 17t14 50v422q0 113 -35 167t-132 54t-154 -61t-58 -145v-496l117 -6v-164h-487v156l67 6q31 4 45 17t15 50v568q0 61 -52 63l-86 6v164zM606 1161q-49 0 -92 58
l-231 292l84 70l241 -213l240 211l84 -66l-236 -299q-41 -53 -90 -53z" />
    <glyph glyph-name="napostrophe" unicode="&#x149;" horiz-adv-x="1228" 
d="M100 1328q0 -24 -18 -56l-141 -318l-91 31l70 430l98 -4q82 -3 82 -83zM55 1030h346v-133q53 76 141 120t191 44q156 0 241 -89t85 -267v-535l117 -6v-164h-488v156l68 6q31 4 45 17t14 50v422q0 113 -35 167t-132 54t-154 -61t-58 -145v-496l117 -6v-164h-487v156l67 6
q31 4 45 17t15 50v568q0 61 -52 63l-86 6v164z" />
    <glyph glyph-name="Eng" unicode="&#x14a;" horiz-adv-x="1443" 
d="M66 0v166l73 6q53 4 54 57v953l-117 6v174h368l574 -928h4v748l-135 6v174h506v-166l-74 -6q-49 -4 -49 -64v-1171q0 -201 -69 -300t-256 -99t-345 92l90 178q106 -66 188 -66t112 44t30 149v63l-578 930h-4v-766l133 -6v-174h-505z" />
    <glyph glyph-name="eng" unicode="&#x14b;" horiz-adv-x="1212" 
d="M55 1030h346v-133q53 76 141 120t191 44q156 0 241 -89t85 -267v-754q0 -164 -55 -266q-66 -123 -273 -123q-147 0 -262 71l74 170q81 -43 147 -43t96 41t29 140v710q0 113 -35 167t-132 54t-154 -61t-58 -145v-496l117 -6v-164h-487v156l67 6q31 4 45 17t15 50v568
q0 61 -52 63l-86 6v164z" />
    <glyph glyph-name="Omacron" unicode="&#x14c;" horiz-adv-x="1359" 
d="M393 1503v178h588v-178h-588zM338 688q0 -508 352 -508q188 0 264 156q70 138 70 326t-61 337q-75 175 -289 177q-113 0 -194 -74q-82 -74 -112 -178t-30 -236zM1278 689q0 -353 -163 -534t-441 -181t-434 180q-158 180 -158 524q0 188 55 330t146 221q183 157 425 157
t406 -172t164 -525z" />
    <glyph glyph-name="omacron" unicode="&#x14d;" horiz-adv-x="1081" 
d="M68 516q0 152 45 264t120 170q145 111 322 111q123 0 208 -40t133 -92q48 -51 82 -151t34 -235q0 -283 -138 -428t-351 -145q-215 0 -335 138t-120 408zM539 150q223 0 223 360q0 182 -50 276t-168 95q-227 0 -229 -336q0 -289 107 -363q47 -32 117 -32zM242 1249v172
h587v-172h-587z" />
    <glyph glyph-name="Obreve" unicode="&#x14e;" horiz-adv-x="1359" 
d="M679 1475q-261 0 -333 258l137 57q63 -160 205 -160q76 0 122 38t81 122l135 -55q-86 -260 -347 -260zM338 688q0 -508 352 -508q188 0 264 156q70 138 70 326t-61 337q-75 175 -289 177q-113 0 -194 -74q-82 -74 -112 -178t-30 -236zM1278 689q0 -353 -163 -534
t-441 -181t-434 180q-158 180 -158 524q0 188 55 330t146 221q183 157 425 157t406 -172t164 -525z" />
    <glyph glyph-name="obreve" unicode="&#x14f;" horiz-adv-x="1081" 
d="M68 516q0 152 45 264t120 170q145 111 322 111q123 0 208 -40t133 -92q48 -51 82 -151t34 -235q0 -283 -138 -428t-351 -145q-215 0 -335 138t-120 408zM539 150q223 0 223 360q0 182 -50 276t-168 95q-227 0 -229 -336q0 -289 107 -363q47 -32 117 -32zM525 1151
q-138 0 -220 85t-100 210l139 33q57 -172 193 -172q63 0 109 38t83 132l133 -31q-33 -139 -116 -217t-221 -78z" />
    <glyph glyph-name="Ohungarumlaut" unicode="&#x150;" horiz-adv-x="1359" 
d="M1249 1712q0 -61 -73 -104l-322 -170l-59 86l338 313l81 -70q35 -35 35 -55zM823 1712q0 -61 -73 -104l-322 -170l-59 86l338 313l81 -70q35 -35 35 -55zM338 688q0 -508 352 -508q188 0 264 156q70 138 70 326t-61 337q-75 175 -289 177q-113 0 -194 -74
q-82 -74 -112 -178t-30 -236zM1278 689q0 -353 -163 -534t-441 -181t-434 180q-158 180 -158 524q0 188 55 330t146 221q183 157 425 157t406 -172t164 -525z" />
    <glyph glyph-name="ohungarumlaut" unicode="&#x151;" horiz-adv-x="1081" 
d="M68 516q0 152 45 264t120 170q145 111 322 111q123 0 208 -40t133 -92q48 -51 82 -151t34 -235q0 -283 -138 -428t-351 -145q-215 0 -335 138t-120 408zM539 150q223 0 223 360q0 182 -50 276t-168 95q-227 0 -229 -336q0 -289 107 -363q47 -32 117 -32zM989 1495
q0 -41 -51 -88l-254 -258l-80 68l238 393l88 -41q59 -33 59 -74zM641 1501q0 -41 -51 -88l-254 -258l-80 68l238 393l88 -41q59 -33 59 -74z" />
    <glyph glyph-name="OE" unicode="&#x152;" horiz-adv-x="1814" 
d="M338 690q0 -270 111 -399q94 -111 262 -111q104 0 176 31v926q-94 41 -180 41q-185 0 -277 -142t-92 -346zM1708 1362v-340l-209 -14v82q0 35 -10 49t-49 14h-303v-350h473v-209h-473v-383h329q37 0 47 15t11 50v103l209 -14v-365h-824q-111 -27 -229 -27
q-286 1 -442 181t-156 526q0 152 37 274q67 222 229 327t359 105q94 0 202 -24h799z" />
    <glyph glyph-name="oe" unicode="&#x153;" horiz-adv-x="1652" 
d="M1352 758q0 64 -34 96q-34 33 -89 33q-113 0 -175 -92t-69 -220h45q140 0 250 72q72 47 72 111zM539 150q113 0 168 96t55 264q0 371 -219 371q-115 0 -171 -91t-57 -247q0 -285 107 -361q47 -32 117 -32zM1243 1061q154 0 244 -75t90 -199q0 -236 -205 -316
q-164 -66 -379 -65q7 -111 69 -178q62 -66 186 -66t255 92l78 -166q-41 -37 -138 -76t-222 -39q-264 0 -365 174q-100 -176 -342 -176q-207 1 -327 137t-119 406q0 152 45 264t118 172q141 111 314 111q246 0 336 -187q116 187 362 187z" />
    <glyph glyph-name="Racute" unicode="&#x154;" horiz-adv-x="1282" 
d="M868 1722q0 -51 -71 -92l-318 -178l-61 84l332 322l81 -68q37 -35 37 -68zM442 731h179q252 0 251 225q0 129 -66 168q-67 39 -214 39h-150v-432zM66 0v166l67 6q59 6 60 57v953l-117 6v174h559q239 0 365 -88t126 -289q0 -139 -72 -229t-173 -131q74 -27 116 -125
l148 -322l117 -4v-174h-506v166l59 6q47 6 47 37q0 12 -8 29l-96 204q-23 51 -50 73q-28 22 -79 22h-187v-357l133 -6v-174h-509z" />
    <glyph glyph-name="racute" unicode="&#x155;" horiz-adv-x="946" 
d="M195 229v568q1 33 -11 46t-41 15l-86 6v166h346v-153q37 80 115 132t179 52t194 -45v-305l-191 -15v95q0 41 -20 51q-23 10 -55 10q-83 0 -135 -58t-52 -149v-475l178 -8v-162h-548v156l67 6q31 4 45 17t15 50zM354 1217l238 393l96 -45q116 -65 8 -162l-262 -254z" />
    <glyph glyph-name="Rcommaaccent" unicode="&#x156;" horiz-adv-x="1282" 
d="M758 -237q0 -24 -29 -62l-176 -276l-94 45l121 405l100 -20q66 -12 76 -60q2 -8 2 -32zM442 731h179q252 0 251 225q0 129 -66 168q-67 39 -214 39h-150v-432zM66 0v166l67 6q59 6 60 57v953l-117 6v174h559q239 0 365 -88t126 -289q0 -139 -72 -229t-173 -131
q74 -27 116 -125l148 -322l117 -4v-174h-506v166l59 6q47 6 47 37q0 12 -8 29l-96 204q-23 51 -50 73q-28 22 -79 22h-187v-357l133 -6v-174h-509z" />
    <glyph glyph-name="rcommaaccent" unicode="&#x157;" horiz-adv-x="946" 
d="M461 -237q0 -24 -29 -62l-176 -276l-94 45l121 405l100 -20q66 -12 76 -60q2 -8 2 -32zM195 229v568q1 33 -11 46t-41 15l-86 6v166h346v-153q37 80 115 132t179 52t194 -45v-305l-191 -15v95q0 41 -20 51q-23 10 -55 10q-83 0 -135 -58t-52 -149v-475l178 -8v-162h-548
v156l67 6q31 4 45 17t15 50z" />
    <glyph glyph-name="Rcaron" unicode="&#x158;" horiz-adv-x="1282" 
d="M815 1829l84 -70l-242 -262q-43 -47 -86 -47l-82 43l-245 264l84 72l245 -176zM442 731h179q252 0 251 225q0 129 -66 168q-67 39 -214 39h-150v-432zM66 0v166l67 6q59 6 60 57v953l-117 6v174h559q239 0 365 -88t126 -289q0 -139 -72 -229t-173 -131q74 -27 116 -125
l148 -322l117 -4v-174h-506v166l59 6q47 6 47 37q0 12 -8 29l-96 204q-23 51 -50 73q-28 22 -79 22h-187v-357l133 -6v-174h-509z" />
    <glyph glyph-name="rcaron" unicode="&#x159;" horiz-adv-x="946" 
d="M195 229v568q1 33 -11 46t-41 15l-86 6v166h346v-153q37 80 115 132t179 52t194 -45v-305l-191 -15v95q0 41 -20 51q-23 10 -55 10q-83 0 -135 -58t-52 -149v-475l178 -8v-162h-548v156l67 6q31 4 45 17t15 50zM463 1161q-49 0 -92 58l-232 292l84 70l242 -213l240 211
l83 -66l-235 -299q-41 -53 -90 -53z" />
    <glyph glyph-name="Sacute" unicode="&#x15a;" horiz-adv-x="1069" 
d="M377 1536l332 322l82 -68q37 -35 36 -68q0 -51 -71 -92l-318 -178zM494 184q246 0 245 197q0 102 -108 151q-57 29 -149 54q-92 24 -151 50q-60 26 -122 71q-121 90 -121 277t130 295q130 107 340 107t390 -83v-308l-209 -14v119q0 31 -8 45q-23 39 -145 39t-179 -43
q-59 -43 -59 -121t41 -119t106 -63t171 -54q106 -33 213 -112q125 -92 125 -285t-138 -303t-365 -111q-226 0 -407 84v324l209 14v-125q0 -31 8 -45q9 -13 51 -27t132 -14z" />
    <glyph glyph-name="sacute" unicode="&#x15b;" horiz-adv-x="923" 
d="M332 783q0 -45 15 -71t57 -48t114 -42q124 -33 194 -69q151 -79 151 -242q-1 -164 -113 -251t-283 -87q-250 0 -377 64v285l184 14v-98q0 -90 172 -90t172 124q0 45 -29 74q-30 29 -59 39q-32 11 -135 38q-104 27 -199 88q-96 61 -96 219t113 245q113 86 284 86t339 -82
v-246l-185 -14v86q0 51 -47 69q-49 18 -119 18q-69 0 -111 -31q-42 -32 -42 -78zM721 1491q0 -41 -51 -88l-262 -254l-80 68l237 393l97 -45q59 -33 59 -74z" />
    <glyph glyph-name="Scircumflex" unicode="&#x15c;" horiz-adv-x="1069" 
d="M317 1450l-84 70l242 262q43 47 86 47l82 -43l246 -264l-84 -72l-246 176zM494 184q246 0 245 197q0 102 -108 151q-57 29 -149 54q-92 24 -151 50q-60 26 -122 71q-121 90 -121 277t130 295q130 107 340 107t390 -83v-308l-209 -14v119q0 31 -8 45q-23 39 -145 39
t-179 -43q-59 -43 -59 -121t41 -119t106 -63t171 -54q106 -33 213 -112q125 -92 125 -285t-138 -303t-365 -111q-226 0 -407 84v324l209 14v-125q0 -31 8 -45q9 -13 51 -27t132 -14z" />
    <glyph glyph-name="scircumflex" unicode="&#x15d;" horiz-adv-x="923" 
d="M332 783q0 -45 15 -71t57 -48t114 -42q124 -33 194 -69q151 -79 151 -242q-1 -164 -113 -251t-283 -87q-250 0 -377 64v285l184 14v-98q0 -90 172 -90t172 124q0 45 -29 74q-30 29 -59 39q-32 11 -135 38q-104 27 -199 88q-96 61 -96 219t113 245q113 86 284 86t339 -82
v-246l-185 -14v86q0 51 -47 69q-49 18 -119 18q-69 0 -111 -31q-42 -32 -42 -78zM485 1579q49 0 93 -57l231 -303l-84 -70l-242 213l-239 -211l-84 66l235 309q41 53 90 53z" />
    <glyph glyph-name="Scedilla" unicode="&#x15e;" horiz-adv-x="1069" 
d="M483 -379q98 0 99 77q0 77 -181 77l64 198q-209 6 -371 84v324l209 14v-125q0 -31 8 -45q9 -13 51 -27t132 -14q246 0 245 197q0 102 -108 151q-57 29 -149 54q-92 24 -151 50q-60 26 -122 71q-121 90 -121 277t130 295q130 107 340 107t390 -83v-308l-209 -14v119
q0 31 -8 45q-23 39 -145 39t-179 -43q-59 -43 -59 -121t41 -119t106 -63t171 -54q106 -33 213 -112q125 -92 125 -276t-116 -293q-116 -108 -304 -126l-27 -106q189 -13 191 -181q0 -89 -75 -137q-75 -49 -175 -49t-185 37l33 107q80 -27 137 -27z" />
    <glyph glyph-name="scedilla" unicode="&#x15f;" horiz-adv-x="923" 
d="M680 -310q0 -89 -75 -137q-75 -49 -175 -49t-184 37l33 107q80 -27 137 -27q98 0 98 77t-180 77l63 200q-209 10 -307 62v285l184 14v-98q0 -90 172 -90t172 124q0 45 -29 74q-30 29 -59 39q-32 11 -135 38q-104 27 -199 88q-96 61 -96 219t113 245q113 86 284 86
t339 -82v-246l-185 -14v86q0 51 -47 69q-49 18 -119 18q-69 0 -111 -31q-42 -32 -42 -78q0 -45 15 -71t57 -48t114 -42q124 -33 194 -69q151 -79 150 -263q0 -130 -97 -216t-249 -99l-27 -104q191 -13 191 -181z" />
    <glyph glyph-name="Scaron" unicode="&#x160;" horiz-adv-x="1069" 
d="M791 1829l83 -70l-241 -262q-43 -47 -86 -47l-82 43l-246 264l84 72l246 -176zM494 184q246 0 245 197q0 102 -108 151q-57 29 -149 54q-92 24 -151 50q-60 26 -122 71q-121 90 -121 277t130 295q130 107 340 107t390 -83v-308l-209 -14v119q0 31 -8 45q-23 39 -145 39
t-179 -43q-59 -43 -59 -121t41 -119t106 -63t171 -54q106 -33 213 -112q125 -92 125 -285t-138 -303t-365 -111q-226 0 -407 84v324l209 14v-125q0 -31 8 -45q9 -13 51 -27t132 -14z" />
    <glyph glyph-name="scaron" unicode="&#x161;" horiz-adv-x="923" 
d="M332 783q0 -45 15 -71t57 -48t114 -42q124 -33 194 -69q151 -79 151 -242q-1 -164 -113 -251t-283 -87q-250 0 -377 64v285l184 14v-98q0 -90 172 -90t172 124q0 45 -29 74q-30 29 -59 39q-32 11 -135 38q-104 27 -199 88q-96 61 -96 219t113 245q113 86 284 86t339 -82
v-246l-185 -14v86q0 51 -47 69q-49 18 -119 18q-69 0 -111 -31q-42 -32 -42 -78zM479 1161q-49 0 -92 58l-231 292l84 70l241 -213l240 211l84 -66l-236 -299q-41 -53 -90 -53z" />
    <glyph glyph-name="uni0162" unicode="&#x162;" horiz-adv-x="1132" 
d="M778 -310q0 -89 -75 -137q-75 -49 -175 -49t-184 37l33 107q80 -27 137 -27q98 0 98 77t-180 77l72 225h-225v166l108 6q59 6 59 57v916h-159q-47 0 -47 -64v-82l-209 15v348h1071v-348l-209 -15v82q0 35 -10 49t-49 15h-140v-965l162 -6v-174h-235l-33 -129
q190 -13 190 -181z" />
    <glyph glyph-name="uni0163" unicode="&#x163;" horiz-adv-x="772" 
d="M672 -310q0 -89 -75 -137q-75 -49 -175 -49t-184 37l32 107q80 -27 138 -27q98 0 98 77t-180 77l65 207q-111 23 -158 89t-49 240v547h-145l20 150q96 8 146 68q49 60 90 171h133v-217h272l-20 -172h-252v-539q0 -89 33 -125t101 -36t138 43l62 -158q-98 -68 -256 -72
l-25 -100q191 -13 191 -181z" />
    <glyph glyph-name="Tcaron" unicode="&#x164;" horiz-adv-x="1132" 
d="M817 1829l84 -70l-242 -262q-43 -47 -86 -47l-81 43l-246 264l84 72l245 -176zM446 229v930h-159q-47 0 -47 -63v-97l-209 15v348h1071v-348l-209 -15v97q0 35 -10 49t-49 14h-140v-979l162 -6v-174h-577v166l108 6q59 6 59 57z" />
    <glyph glyph-name="tcaron" unicode="&#x165;" horiz-adv-x="772" 
d="M676 1585q82 0 82 -82q0 -25 -8 -53l-95 -326l-98 19v432l102 10h17zM428 1247v-217h272l-20 -172h-252v-539q0 -89 33 -125t101 -36t138 43l62 -158q-102 -72 -260 -72q-92 0 -156 24q-64 25 -94 53q-31 28 -47 83t-19 87q-2 32 -2 93v547h-145l20 150q96 8 146 68
q49 60 90 171h133z" />
    <glyph glyph-name="Tbar" unicode="&#x166;" horiz-adv-x="1132" 
d="M446 229v328h-256v184h256v404h-159q-47 0 -47 -64v-82l-209 15v348h1071v-348l-209 -15v82q0 35 -10 49t-49 15h-140v-404h254v-184h-254v-377l162 -6v-174h-577v166l108 6q59 6 59 57z" />
    <glyph glyph-name="tbar" unicode="&#x167;" horiz-adv-x="772" 
d="M428 1247v-217h272l-20 -172h-252v-196h246v-173h-246v-170q0 -89 33 -125t101 -36t138 43l62 -158q-102 -72 -260 -72q-92 0 -156 24q-64 25 -94 53q-31 28 -47 83t-19 87q-2 32 -2 93v178h-143v173h143v196h-145l20 150q96 8 146 68q49 60 90 171h133z" />
    <glyph glyph-name="Utilde" unicode="&#x168;" horiz-adv-x="1349" 
d="M840 1667q44 0 84 66l110 -60q-68 -178 -211 -178q-45 0 -135 28q-90 27 -126 27t-58 -11t-55 -48l-99 72q74 162 209 161q49 0 143 -28t138 -29zM412 1122v-680q0 -143 68 -201q68 -59 197 -59q128 0 199 64t70 186v750l-119 6v174h486v-166l-68 -6q-59 -6 -59 -62v-731
q0 -199 -139 -311t-385 -113q-246 0 -372 110t-126 347v752l-119 6v174h496v-166l-68 -6q-33 -4 -47 -18t-14 -50z" />
    <glyph glyph-name="utilde" unicode="&#x169;" horiz-adv-x="1210" 
d="M1153 0h-332v133q-113 -160 -332 -160q-317 0 -317 355v473q0 55 -51 57l-66 4v168h361v-649q0 -109 30 -164t127 -55q96 0 155 59q58 59 58 144v432q0 33 -11 46t-40 15l-65 4v168h360v-803q0 -33 10 -44t41 -15l72 -6v-162zM432 1454q49 0 143 -29q95 -29 139 -29
t83 66l110 -59q-68 -178 -211 -178q-45 -1 -135 27t-126 28t-58 -11t-55 -48l-99 71q74 162 209 162z" />
    <glyph glyph-name="Umacron" unicode="&#x16a;" horiz-adv-x="1349" 
d="M385 1503v178h588v-178h-588zM412 1122v-680q0 -143 68 -201q68 -59 197 -59q128 0 199 64t70 186v750l-119 6v174h486v-166l-68 -6q-59 -6 -59 -62v-731q0 -199 -139 -311t-385 -113q-246 0 -372 110t-126 347v752l-119 6v174h496v-166l-68 -6q-33 -4 -47 -18t-14 -50z
" />
    <glyph glyph-name="umacron" unicode="&#x16b;" horiz-adv-x="1210" 
d="M1153 0h-332v133q-113 -160 -332 -160q-317 0 -317 355v473q0 55 -51 57l-66 4v168h361v-649q0 -109 30 -164t127 -55q96 0 155 59q58 59 58 144v432q0 33 -11 46t-40 15l-65 4v168h360v-803q0 -33 10 -44t41 -15l72 -6v-162zM252 1249v172h588v-172h-588z" />
    <glyph glyph-name="Ubreve" unicode="&#x16c;" horiz-adv-x="1349" 
d="M677 1475q-261 0 -333 258l137 57q63 -160 205 -160q76 0 122 38t81 122l135 -55q-86 -260 -347 -260zM412 1122v-680q0 -143 68 -201q68 -59 197 -59q128 0 199 64t70 186v750l-119 6v174h486v-166l-68 -6q-59 -6 -59 -62v-731q0 -199 -139 -311t-385 -113
q-246 0 -372 110t-126 347v752l-119 6v174h496v-166l-68 -6q-33 -4 -47 -18t-14 -50z" />
    <glyph glyph-name="ubreve" unicode="&#x16d;" horiz-adv-x="1210" 
d="M1153 0h-332v133q-113 -160 -332 -160q-317 0 -317 355v473q0 55 -51 57l-66 4v168h361v-649q0 -109 30 -164t127 -55q96 0 155 59q58 59 58 144v432q0 33 -11 46t-40 15l-65 4v168h360v-803q0 -33 10 -44t41 -15l72 -6v-162zM552 1151q-138 0 -220 85t-101 210l140 33
q57 -172 192 -172q63 0 110 38q46 38 83 132l133 -31q-33 -139 -116 -217t-221 -78z" />
    <glyph glyph-name="Uring" unicode="&#x16e;" horiz-adv-x="1349" 
d="M686 1708q-74 0 -74 -85t74 -85q35 0 54 25t20 61q0 84 -74 84zM492 1625q0 83 54 136t141 53t138 -52t51 -134t-52 -138q-54 -56 -143 -56t-139 54t-50 137zM412 1122v-680q0 -143 68 -201q68 -59 197 -59q128 0 199 64t70 186v750l-119 6v174h486v-166l-68 -6
q-59 -6 -59 -62v-731q0 -199 -139 -311t-385 -113q-246 0 -372 110t-126 347v752l-119 6v174h496v-166l-68 -6q-33 -4 -47 -18t-14 -50z" />
    <glyph glyph-name="uring" unicode="&#x16f;" horiz-adv-x="1210" 
d="M1153 0h-332v133q-113 -160 -332 -160q-317 0 -317 355v473q0 55 -51 57l-66 4v168h361v-649q0 -109 30 -164t127 -55q96 0 155 59q58 59 58 144v432q0 33 -11 46t-40 15l-65 4v168h360v-803q0 -33 10 -44t41 -15l72 -6v-162zM567 1430q-73 0 -73 -85t73 -85q35 0 55 24
q19 25 19 62q0 84 -74 84zM373 1346q0 84 54 137t141 53q86 0 138 -52t52 -134t-53 -138t-143 -57q-90 0 -139 54q-50 53 -50 137z" />
    <glyph glyph-name="Uhungarumlaut" unicode="&#x170;" horiz-adv-x="1349" 
d="M1227 1712q0 -61 -74 -104l-322 -170l-59 86l338 313l82 -70q35 -35 35 -55zM801 1712q0 -61 -74 -104l-321 -170l-60 86l338 313l82 -70q35 -35 35 -55zM412 1122v-680q0 -143 68 -201q68 -59 197 -59q128 0 199 64t70 186v750l-119 6v174h486v-166l-68 -6
q-59 -6 -59 -62v-731q0 -199 -139 -311t-385 -113q-246 0 -372 110t-126 347v752l-119 6v174h496v-166l-68 -6q-33 -4 -47 -18t-14 -50z" />
    <glyph glyph-name="uhungarumlaut" unicode="&#x171;" horiz-adv-x="1210" 
d="M1153 0h-332v133q-113 -160 -332 -160q-317 0 -317 355v473q0 55 -51 57l-66 4v168h361v-649q0 -109 30 -164t127 -55q96 0 155 59q58 59 58 144v432q0 33 -11 46t-40 15l-65 4v168h360v-803q0 -33 10 -44t41 -15l72 -6v-162zM633 1217l237 393l88 -41q115 -64 9 -162
l-254 -258zM285 1223l237 393l88 -41q116 -65 8 -162l-253 -258z" />
    <glyph glyph-name="Uogonek" unicode="&#x172;" horiz-adv-x="1349" 
d="M412 1122v-680q0 -143 68 -201q68 -59 197 -59q128 0 199 64t70 186v750l-119 6v174h486v-166l-68 -6q-59 -6 -59 -62v-731q0 -244 -199 -352q-221 -121 -221 -244q0 -78 84 -77q45 0 96 22l45 -135q-102 -49 -214 -49t-164 56t-52 140q0 127 137 215h-26
q-256 0 -382 110t-126 347v752l-119 6v174h496v-166l-68 -6q-33 -4 -47 -18t-14 -50z" />
    <glyph glyph-name="uogonek" unicode="&#x173;" horiz-adv-x="1210" 
d="M934 -199q0 -78 84 -77q45 0 96 22l45 -135q-102 -49 -214 -49t-164 56t-52 136q0 154 186 236v16h-94v127q-113 -160 -332 -160q-317 0 -317 355v473q0 55 -51 57l-66 4v168h361v-649q0 -109 30 -164t127 -55q96 0 155 59q58 59 58 144v432q0 33 -11 46t-40 15l-65 4
v168h360v-803q0 -33 10 -44t41 -15l72 -6v-162q-219 -84 -219 -199z" />
    <glyph glyph-name="Wcircumflex" unicode="&#x174;" horiz-adv-x="1812" 
d="M668 1450l-84 70l241 262q43 47 86 47l82 -43l246 -264l-84 -72l-246 176zM10 1362h508v-166l-67 -6q-63 -6 -64 -53q0 -8 2 -19l178 -790h8l213 925h265l221 -929h4l174 856l-111 8v174h461v-166l-67 -6q-53 -4 -68 -74l-258 -1116h-281l-215 911h-6l-209 -911h-288
l-283 1182l-117 6v174z" />
    <glyph glyph-name="wcircumflex" unicode="&#x175;" horiz-adv-x="1628" 
d="M1196 1030h412v-158l-68 -4q-41 -4 -55 -49l-195 -819h-295l-168 610h-6l-174 -610h-301l-207 817q-10 29 -21 39t-38 12l-60 4v158h469v-164l-114 -6l141 -629h4l225 758h199l213 -762h4l139 633l-104 6v164zM844 1579q49 0 92 -57l231 -303l-84 -70l-241 213l-240 -211
l-84 66l236 309q41 53 90 53z" />
    <glyph glyph-name="Ycircumflex" unicode="&#x176;" horiz-adv-x="1167" 
d="M340 1450l-84 70l242 262q43 47 86 47l82 -43l245 -264l-84 -72l-245 176zM455 229v291l-349 662l-96 6v174h500v-166l-61 -6q-33 -2 -42 -25t7 -55l174 -356h8l223 426l-102 8v174h440v-166l-61 -6q-39 -4 -70 -62l-321 -608v-340l159 -6v-174h-577v166l108 6
q60 4 60 57z" />
    <glyph glyph-name="ycircumflex" unicode="&#x177;" horiz-adv-x="1173" 
d="M821 39v156q-113 -160 -332 -160q-317 0 -317 354v412q0 55 -51 57l-66 4v168h361v-588q0 -110 30 -164t127 -54t155 58q58 60 58 144v371q0 35 -11 48t-40 13l-65 4v168h360v-991q0 -248 -120 -363q-120 -114 -362 -114t-378 67v285l195 16v-98q0 -54 51 -74t141 -20
q264 0 264 301zM547 1579q49 0 92 -57l231 -303l-84 -70l-241 213l-240 -211l-84 66l236 309q41 53 90 53z" />
    <glyph glyph-name="Ydieresis" unicode="&#x178;" horiz-adv-x="1167" 
d="M262 1610q0 58 40 99q40 40 101 40t101 -40t41 -98q0 -59 -40 -97q-41 -38 -103 -38t-101 38t-39 96zM672 1610q0 58 40 99q40 40 101 40t101 -40t40 -98q0 -59 -40 -97t-102 -38t-101 38t-39 96zM455 229v291l-349 662l-96 6v174h500v-166l-61 -6q-33 -2 -42 -25t7 -55
l174 -356h8l223 426l-102 8v174h440v-166l-61 -6q-39 -4 -70 -62l-321 -608v-340l159 -6v-174h-577v166l108 6q60 4 60 57z" />
    <glyph glyph-name="Zacute" unicode="&#x179;" horiz-adv-x="1091" 
d="M815 1722q0 -51 -72 -92l-317 -178l-61 84l331 322l82 -68q37 -35 37 -68zM750 195q51 0 51 65v143l209 -14v-389h-942v170l618 997h-340q-55 0 -55 -63v-82l-209 14v326h895v-166l-625 -1001h398z" />
    <glyph glyph-name="zacute" unicode="&#x17a;" horiz-adv-x="989" 
d="M918 0h-836v156l526 692h-258q-43 0 -54 -16t-11 -54v-71l-193 14v309h815v-139l-532 -707h291q59 0 59 70v86l193 -14v-326zM727 1491q0 -41 -51 -88l-262 -254l-80 68l237 393l97 -45q59 -33 59 -74z" />
    <glyph glyph-name="Zdotaccent" unicode="&#x17b;" horiz-adv-x="1091" 
d="M387 1623q0 58 40 98t101 40q62 0 102 -40t40 -98t-40 -96t-102 -38t-102 38q-39 38 -39 96zM750 195q51 0 51 65v143l209 -14v-389h-942v170l618 997h-340q-55 0 -55 -63v-82l-209 14v326h895v-166l-625 -1001h398z" />
    <glyph glyph-name="zdotaccent" unicode="&#x17c;" horiz-adv-x="989" 
d="M918 0h-836v156l526 692h-258q-43 0 -54 -16t-11 -54v-71l-193 14v309h815v-139l-532 -707h291q59 0 59 70v86l193 -14v-326zM344 1324q0 58 40 98t101 40t101 -40t41 -98q0 -58 -40 -96q-41 -38 -103 -38t-101 38t-39 96z" />
    <glyph glyph-name="Zcaron" unicode="&#x17d;" horiz-adv-x="1091" 
d="M786 1829l84 -70l-241 -262q-43 -47 -86 -47l-82 43l-246 264l84 72l246 -176zM750 195q51 0 51 65v143l209 -14v-389h-942v170l618 997h-340q-55 0 -55 -63v-82l-209 14v326h895v-166l-625 -1001h398z" />
    <glyph glyph-name="zcaron" unicode="&#x17e;" horiz-adv-x="989" 
d="M918 0h-836v156l526 692h-258q-43 0 -54 -16t-11 -54v-71l-193 14v309h815v-139l-532 -707h291q59 0 59 70v86l193 -14v-326zM490 1161q-49 0 -93 58l-231 292l84 70l242 -213l239 211l84 -66l-235 -299q-41 -53 -90 -53z" />
    <glyph glyph-name="longs" unicode="&#x17f;" horiz-adv-x="757" 
d="M197 229v629h-177v172h177v78q0 201 89 287t255 86t295 -72l-60 -164q-98 51 -184 51t-119 -42t-33 -128v-954l172 -8v-164h-542v156l67 6q31 4 45 17t15 50z" />
    <glyph glyph-name="florin" unicode="&#x192;" horiz-adv-x="1120" 
d="M840 1346q152 0 288 -72l-81 -164q-99 53 -181 53t-120 -37t-54 -118l-39 -211h303l-34 -195h-301l-109 -627q-16 -95 -39 -161t-67 -125q-88 -119 -306 -119q-152 0 -280 72l82 161q96 -51 190 -51q137 0 164 156l121 694h-219l30 195h224l26 153q16 96 38 158t65 121
q82 117 299 117z" />
    <glyph glyph-name="Aringacute" unicode="&#x1fa;" horiz-adv-x="1355" 
d="M850 2071q0 -51 -72 -93l-317 -178l-62 84l332 322l82 -68q37 -35 37 -67zM625 1690q-74 0 -74 -85t74 -85q35 0 54 24t19 62q1 84 -73 84zM430 1606q0 84 54 137t142 53t138 -52q51 -52 51 -134t-53 -138q-52 -56 -142 -57q-90 0 -140 54q-50 53 -50 137zM662 1133
l-191 -584h381l-184 584h-6zM340 1362h469l418 -1182h2l117 -6v-174h-529v166l78 6q35 4 47 16t2 45l-43 127h-479l-62 -180l123 -6v-174h-473v166l68 6q43 4 61 57l330 955l-129 12v166z" />
    <glyph glyph-name="aringacute" unicode="&#x1fb;" horiz-adv-x="1161" 
d="M819 1798q0 -51 -71 -92l-318 -178l-61 84l331 321l82 -67q37 -35 37 -68zM596 1405q-74 0 -74 -85t74 -85q35 0 54 25t20 61q0 84 -74 84zM597 1511q87 0 138 -52t51 -134t-53 -138t-142 -56t-139 54t-51 137q1 83 55 136t141 53zM750 326v530q-57 27 -158 27
q-136 0 -198 -111t-62 -293q0 -332 213 -332q89 1 147 55t58 124zM987 227q0 -33 11 -45t40 -14l66 -4v-164h-326v119l-6 2q-102 -147 -280 -148q-209 0 -310 133q-100 133 -100 365q0 279 135 435t406 155q174 0 364 -72v-762z" />
    <glyph glyph-name="AEacute" unicode="&#x1fc;" horiz-adv-x="1748" 
d="M651 1133l-190 -584h381l-185 584h-6zM330 1362h1312v-340l-208 -14v82q0 35 -10 49t-50 14h-461l121 -350h510v-209h-473l135 -383h195q37 0 47 15t10 50v103l209 -14v-365h-860v166l78 6q35 4 47 16t2 45l-43 127h-479l-62 -180l123 -6v-174h-473v166l68 6q43 4 61 57
l330 955l-129 12v166zM834 1548l237 394l96 -46q114 -64 9 -161l-263 -254z" />
    <glyph glyph-name="aeacute" unicode="&#x1fd;" horiz-adv-x="1566" 
d="M1266 768q0 55 -33 87t-88 32q-115 0 -177 -92t-69 -220q111 0 198 28t128 69t41 96zM588 883q-128 0 -192 -109q-64 -110 -64 -280t50 -258t169 -89q88 0 154 66q-53 113 -54 299q0 186 105 340q-76 31 -168 31zM1164 1061q150 0 238 -75q89 -75 89 -210
q0 -367 -584 -370q5 -113 69 -179q64 -65 185 -65t256 92l78 -166q-47 -39 -143 -77t-226 -38q-213 0 -323 111q-135 -111 -303 -111q-222 1 -320 139t-98 388t137 406t393 155q150 0 293 -70q109 70 259 70zM1075 1491q0 -41 -51 -88l-262 -254l-80 68l238 393l96 -45
q59 -33 59 -74z" />
    <glyph glyph-name="Oslashacute" unicode="&#x1fe;" horiz-adv-x="1359" 
d="M936 1722q0 -51 -72 -92l-317 -178l-62 84l332 322l82 -68q37 -35 37 -68zM82 678q0 188 55 330t146 221q182 158 425 157q61 0 116 -10l63 170l213 -76l-69 -183q247 -174 247 -598q0 -353 -163 -534t-440 -182q-68 0 -128 11l-78 -209l-209 78l79 213
q-257 173 -257 612zM674 1176q-113 0 -194 -74q-82 -74 -112 -178t-30 -236q0 -256 90 -383l319 865q-34 6 -73 6zM954 336q70 138 70 352t-84 354l-318 -856q32 -5 68 -6q188 0 264 156z" />
    <glyph glyph-name="oslashacute" unicode="&#x1ff;" horiz-adv-x="1081" 
d="M547 881q-117 0 -172 -90t-55 -243t24 -237l283 555q-31 15 -80 15zM543 150q223 0 223 360q0 131 -27 213l-284 -557q39 -16 88 -16zM72 516q0 152 45 264t121 170q145 111 321 111q90 0 162 -23l78 156l149 -72l-82 -164q150 -130 150 -414t-137 -429t-353 -146
q-90 0 -164 25l-81 -166l-148 74l86 176q-147 141 -147 438zM874 1491q0 -41 -51 -88l-262 -254l-80 68l238 393l96 -45q59 -33 59 -74z" />
    <glyph glyph-name="Scommaaccent" unicode="&#x218;" horiz-adv-x="1069" 
d="M647 -237q0 -24 -29 -62l-176 -276l-94 45l121 405l100 -20q66 -12 76 -60q2 -8 2 -32zM494 184q246 0 245 197q0 102 -108 151q-57 29 -149 54q-92 24 -151 50q-60 26 -122 71q-121 90 -121 277t130 295q130 107 340 107t390 -83v-308l-209 -14v119q0 31 -8 45
q-23 39 -145 39t-179 -43q-59 -43 -59 -121t41 -119t106 -63t171 -54q106 -33 213 -112q125 -92 125 -285t-138 -303t-365 -111q-226 0 -407 84v324l209 14v-125q0 -31 8 -45q9 -13 51 -27t132 -14z" />
    <glyph glyph-name="scommaaccent" unicode="&#x219;" horiz-adv-x="923" 
d="M584 -237q0 -24 -29 -62l-176 -276l-94 45l121 405l100 -20q66 -12 76 -60q2 -8 2 -32zM332 783q0 -45 15 -71t57 -48t114 -42q124 -33 194 -69q151 -79 151 -242q-1 -164 -113 -251t-283 -87q-250 0 -377 64v285l184 14v-98q0 -90 172 -90t172 124q0 45 -29 74
q-30 29 -59 39q-32 11 -135 38q-104 27 -199 88q-96 61 -96 219t113 245q113 86 284 86t339 -82v-246l-185 -14v86q0 51 -47 69q-49 18 -119 18q-69 0 -111 -31q-42 -32 -42 -78z" />
    <glyph glyph-name="uni021A" unicode="&#x21a;" horiz-adv-x="1132" 
d="M698 -237q0 -24 -28 -62l-176 -276l-95 45l121 405l101 -20q66 -12 75 -60q2 -8 2 -32zM446 229v930h-159q-47 0 -47 -63v-97l-209 15v348h1071v-348l-209 -15v97q0 35 -10 49t-49 14h-140v-979l162 -6v-174h-577v166l108 6q59 6 59 57z" />
    <glyph glyph-name="uni021B" unicode="&#x21b;" horiz-adv-x="772" 
d="M584 -237q0 -24 -29 -62l-176 -276l-94 45l121 405l100 -20q66 -12 76 -60q2 -8 2 -32zM428 1247v-217h272l-20 -172h-252v-539q0 -89 33 -125t101 -36t138 43l62 -158q-102 -72 -260 -72q-92 0 -156 24q-64 25 -94 53q-31 28 -47 83t-19 87q-2 32 -2 93v547h-145l20 150
q96 8 146 68q49 60 90 171h133z" />
    <glyph glyph-name="dotlessj" unicode="&#x237;" horiz-adv-x="579" 
d="M426 1030v-1079q0 -164 -53 -266q-68 -123 -275 -123q-147 0 -262 71l74 170q80 -43 146 -43t97 41q30 41 29 140v856q0 33 -11 45t-40 14l-72 4v170h367z" />
    <glyph glyph-name="apostrophe" unicode="&#x2bc;" horiz-adv-x="516" 
d="M416 1373q0 -24 -19 -56l-141 -318l-90 31l70 430l98 -4q82 -3 82 -83z" />
    <glyph glyph-name="circumflex" unicode="&#x2c6;" 
d="M510 1579q49 0 92 -57l232 -303l-84 -70l-242 213l-240 -211l-84 66l236 309q41 53 90 53z" />
    <glyph glyph-name="caron" unicode="&#x2c7;" 
d="M502 1161q-49 0 -92 58l-232 292l84 70l242 -213l239 211l84 -66l-235 -299q-41 -53 -90 -53z" />
    <glyph glyph-name="uni02C9" unicode="&#x2c9;" 
d="M213 1247v176h588v-176h-588z" />
    <glyph glyph-name="breve" unicode="&#x2d8;" 
d="M507 1151q-138 0 -220 85t-101 210l140 33q57 -172 192 -172q63 0 110 38q46 38 83 132l133 -31q-33 -139 -116 -217t-221 -78z" />
    <glyph glyph-name="dotaccent" unicode="&#x2d9;" 
d="M375 1324q0 58 40 98t101 40t101 -40t40 -98t-40 -96t-102 -38t-101 38t-39 96z" />
    <glyph glyph-name="ring" unicode="&#x2da;" 
d="M512 1430q-74 0 -74 -85t74 -85q35 0 54 24t20 62q0 84 -74 84zM513 1536q87 0 138 -52t51 -134t-53 -138t-142 -57q-89 0 -139 54q-50 53 -50 137t54 137t141 53z" />
    <glyph glyph-name="ogonek" unicode="&#x2db;" 
d="M467 -199q0 -78 84 -77q45 0 96 22l45 -135q-102 -49 -214 -49t-164 56t-52 142t55 145q56 58 148 107l215 -8q-213 -94 -213 -203z" />
    <glyph glyph-name="tilde" unicode="&#x2dc;" 
d="M383 1454q49 0 143 -29t138 -29t84 66l110 -59q-68 -178 -211 -178q-45 -1 -135 27t-126 28t-58 -11t-56 -48l-98 71q74 162 209 162z" />
    <glyph glyph-name="hungarumlaut" unicode="&#x2dd;" 
d="M901 1495q0 -41 -51 -88l-254 -258l-80 68l238 393l88 -41q59 -33 59 -74zM553 1501q0 -41 -51 -88l-254 -258l-80 68l238 393l88 -41q59 -33 59 -74z" />
    <glyph glyph-name="uni0394" unicode="&#x394;" horiz-adv-x="1370" 
d="M690 1102h-8l-336 -912h678zM1337 0h-1304l526 1362h256z" />
    <glyph glyph-name="uni03A9" unicode="&#x3a9;" horiz-adv-x="1599" 
d="M150 707q0 299 186 469t477 170t466 -156t175 -449q0 -164 -69 -302t-181 -222h297v-217h-567v176q266 193 266 510q0 225 -109 337q-110 112 -284 112t-287 -112t-112 -339q0 -176 82 -307t204 -203v-174h-581v217h278q-113 78 -177 204t-64 286z" />
    <glyph glyph-name="uni03BC" unicode="&#x3bc;" horiz-adv-x="1196" 
d="M1032 1030v-819q0 -68 53 -68q29 0 80 25l29 -143q-88 -49 -186 -50q-154 0 -162 166q-33 -76 -105 -123t-159 -47q-143 0 -211 101v-514h-219v1472h229v-592q0 -143 45 -219q46 -76 152 -76t163 89t58 241v557h233z" />
    <glyph glyph-name="pi" unicode="&#x3c0;" horiz-adv-x="1290" 
d="M1217 840h-158v-592q0 -59 11 -81t47 -22t89 15l33 -146q-82 -41 -197 -41q-215 0 -215 220v647h-344v-840h-231v840h-160v190h1125v-190z" />
    <glyph glyph-name="Wgrave" unicode="&#x1e80;" horiz-adv-x="1812" 
d="M655 1712q0 41 39 78l82 68l332 -322l-61 -84l-318 178q-74 41 -74 82zM10 1362h508v-166l-67 -6q-63 -6 -64 -53q0 -8 2 -19l178 -790h8l213 925h265l221 -929h4l174 856l-111 8v174h461v-166l-67 -6q-53 -4 -68 -74l-258 -1116h-281l-215 911h-6l-209 -911h-288
l-283 1182l-117 6v174z" />
    <glyph glyph-name="wgrave" unicode="&#x1e81;" horiz-adv-x="1628" 
d="M1196 1030h412v-158l-68 -4q-41 -4 -55 -49l-195 -819h-295l-168 610h-6l-174 -610h-301l-207 817q-10 29 -21 39t-38 12l-60 4v158h469v-164l-114 -6l141 -629h4l225 758h199l213 -762h4l139 633l-104 6v164zM608 1491q0 41 60 74l96 45l237 -393l-79 -68l-263 254
q-51 47 -51 88z" />
    <glyph glyph-name="Wacute" unicode="&#x1e82;" horiz-adv-x="1812" 
d="M1174 1722q0 -51 -72 -92l-318 -178l-61 84l332 322l82 -68q37 -35 37 -68zM10 1362h508v-166l-67 -6q-63 -6 -64 -53q0 -8 2 -19l178 -790h8l213 925h265l221 -929h4l174 856l-111 8v174h461v-166l-67 -6q-53 -4 -68 -74l-258 -1116h-281l-215 911h-6l-209 -911h-288
l-283 1182l-117 6v174z" />
    <glyph glyph-name="wacute" unicode="&#x1e83;" horiz-adv-x="1628" 
d="M1196 1030h412v-158l-68 -4q-41 -4 -55 -49l-195 -819h-295l-168 610h-6l-174 -610h-301l-207 817q-10 29 -21 39t-38 12l-60 4v158h469v-164l-114 -6l141 -629h4l225 758h199l213 -762h4l139 633l-104 6v164zM666 1217l237 393l96 -45q115 -64 9 -162l-263 -254z" />
    <glyph glyph-name="Wdieresis" unicode="&#x1e84;" horiz-adv-x="1812" 
d="M584 1610q0 58 40 99q40 40 101 40t101 -40t40 -98q0 -59 -40 -97t-102 -38t-101 38t-39 96zM993 1610q0 58 40 99q39 40 101 40t102 -40t40 -98q0 -59 -40 -97t-102 -38t-102 38q-39 38 -39 96zM10 1362h508v-166l-67 -6q-63 -6 -64 -53q0 -8 2 -19l178 -790h8l213 925
h265l221 -929h4l174 856l-111 8v174h461v-166l-67 -6q-53 -4 -68 -74l-258 -1116h-281l-215 911h-6l-209 -911h-288l-283 1182l-117 6v174z" />
    <glyph glyph-name="wdieresis" unicode="&#x1e85;" horiz-adv-x="1628" 
d="M1196 1030h412v-158l-68 -4q-41 -4 -55 -49l-195 -819h-295l-168 610h-6l-174 -610h-301l-207 817q-10 29 -21 39t-38 12l-60 4v158h469v-164l-114 -6l141 -629h4l225 758h199l213 -762h4l139 633l-104 6v164zM635 1462q61 0 101 -40t40 -98t-40 -96t-102 -38t-102 38
q-39 38 -38 96q0 58 40 98t101 40zM903 1324q0 58 40 98t101 40q62 0 102 -40t40 -98t-40 -96t-102 -38t-102 38q-39 38 -39 96z" />
    <glyph glyph-name="Ygrave" unicode="&#x1ef2;" horiz-adv-x="1167" 
d="M307 1712q0 41 39 78l82 68l332 -322l-62 -84l-317 178q-74 41 -74 82zM455 229v291l-349 662l-96 6v174h500v-166l-61 -6q-33 -2 -42 -25t7 -55l174 -356h8l223 426l-102 8v174h440v-166l-61 -6q-39 -4 -70 -62l-321 -608v-340l159 -6v-174h-577v166l108 6q60 4 60 57z
" />
    <glyph glyph-name="ygrave" unicode="&#x1ef3;" horiz-adv-x="1173" 
d="M821 39v156q-113 -160 -332 -160q-317 0 -317 354v412q0 55 -51 57l-66 4v168h361v-588q0 -110 30 -164t127 -54t155 58q58 60 58 144v371q0 35 -11 48t-40 13l-65 4v168h360v-991q0 -248 -120 -363q-120 -114 -362 -114t-378 67v285l195 16v-98q0 -54 51 -74t141 -20
q264 0 264 301zM285 1491q0 41 59 74l96 45l238 -393l-80 -68l-262 254q-51 47 -51 88z" />
    <glyph glyph-name="endash" unicode="&#x2013;" 
d="M0 500v170h1024v-170h-1024z" />
    <glyph glyph-name="emdash" unicode="&#x2014;" horiz-adv-x="2048" 
d="M0 500v170h2048v-170h-2048z" />
    <glyph glyph-name="quoteleft" unicode="&#x2018;" horiz-adv-x="450" 
d="M63 1083q0 43 23 82l195 338l129 -47l-119 -483q-125 14 -189 47q-39 20 -39 63z" />
    <glyph glyph-name="quoteright" unicode="&#x2019;" horiz-adv-x="434" 
d="M410 1393q0 -43 -23 -82l-194 -338l-130 47l119 483q125 -14 189 -47q39 -20 39 -63z" />
    <glyph glyph-name="quotesinglbase" unicode="&#x201a;" horiz-adv-x="464" 
d="M217 229q43 0 67 -13t39 -21q15 -9 21 -13t24 -15t25 -15l-209 -453l-129 39l62 389q16 102 100 102z" />
    <glyph glyph-name="quotedblleft" unicode="&#x201c;" horiz-adv-x="790" 
d="M403 1083q0 43 23 82l195 338l129 -47l-119 -483q-125 14 -189 47q-39 20 -39 63zM63 1083q0 43 23 82l195 338l129 -47l-119 -483q-125 14 -189 47q-39 20 -39 63z" />
    <glyph glyph-name="quotedblright" unicode="&#x201d;" horiz-adv-x="774" 
d="M750 1393q0 -43 -23 -82l-195 -338l-129 47l119 483q125 -14 189 -47q39 -20 39 -63zM410 1393q0 -43 -23 -82l-194 -338l-130 47l119 483q125 -14 189 -47q39 -20 39 -63z" />
    <glyph glyph-name="quotedblbase" unicode="&#x201e;" horiz-adv-x="804" 
d="M557 229q43 0 67 -13t39 -21q15 -9 21 -13t24 -15t25 -15l-209 -453l-129 39l62 389q16 102 100 102zM217 229q43 0 67 -13t39 -21q15 -9 21 -13t24 -15t25 -15l-209 -453l-129 39l62 389q16 102 100 102z" />
    <glyph glyph-name="dagger" unicode="&#x2020;" horiz-adv-x="821" 
d="M78 1076q0 22 24 46t70 15l180 -33l-47 258l68 16q18 4 41 4t52 -22t17 -68l-32 -192l266 49l16 -66q4 -15 4 -37t-23 -49t-71 -18l-192 39l41 -432v-11q0 -41 -24 -61t-48 -20t-39 4l-88 20l55 500l-250 -51l-16 71q-4 16 -4 38z" />
    <glyph glyph-name="daggerdbl" unicode="&#x2021;" horiz-adv-x="899" 
d="M125 1097q0 22 20 42t42 20t32 -2l180 -33l-47 238l68 16q18 4 41 4t52 -22t17 -68l-32 -172l266 49l16 -65q4 -16 4 -38t-20 -46t-42 -23q-22 0 -32 2l-182 37v-194l246 51l16 -72q4 -16 4 -38t-20 -42t-42 -20t-32 2l-180 33l47 -238l-68 -16q-18 -4 -41 -4
q-24 0 -48 19t-23 41q0 22 2 30l32 172l-266 -49l-16 65q-4 16 -4 38t20 46t42 23q22 0 32 -2l182 -37v192l-246 -49l-16 72q-4 16 -4 38z" />
    <glyph glyph-name="bullet" unicode="&#x2022;" 
d="M274 634q0 114 67 184t171 69q104 0 171 -70q67 -69 67 -183t-67 -184t-171 -69q-104 0 -171 70q-67 69 -67 183z" />
    <glyph glyph-name="ellipsis" unicode="&#x2026;" horiz-adv-x="1488" 
d="M1114 114q0 64 40 106t109 42t109 -40t41 -104q0 -64 -39 -107q-38 -42 -110 -42t-111 40t-39 105zM602 114q0 64 40 106t109 42t109 -40t41 -104q0 -64 -39 -107q-38 -42 -110 -42t-111 40t-39 105zM74 114q0 64 40 106t108 42t110 -40q41 -40 41 -104t-39 -107
q-38 -42 -110 -42t-111 40t-39 105z" />
    <glyph glyph-name="perthousand" unicode="&#x2030;" horiz-adv-x="1892" 
d="M244 223l-113 137l903 754l117 -137zM340 838q123 0 123 188t-119 188t-119 -188t115 -188zM348 1346q127 0 201 -79t74 -236t-77 -239t-209 -83t-203 79t-71 235t79 239t206 84zM920 477q-122 -1 -122 -189t119 -188t119 188t-116 189zM922 608q128 0 202 -79t74 -235
t-77 -239q-77 -84 -209 -84t-202 81q-70 82 -71 236q0 154 78 237t205 83zM1548 100q123 0 123 188t-119 189q-119 -1 -119 -189t115 -188zM1556 608q128 0 201 -79q74 -79 74 -235t-77 -240q-77 -83 -209 -83t-203 81q-70 82 -70 236t78 237t206 83z" />
    <glyph glyph-name="guilsinglleft" unicode="&#x2039;" horiz-adv-x="667" 
d="M96 544q0 54 60 101l348 279l96 -93l-246 -292l232 -328l-97 -86l-356 330q-37 35 -37 89z" />
    <glyph glyph-name="guilsinglright" unicode="&#x203a;" horiz-adv-x="667" 
d="M573 546q0 -56 -41 -93l-352 -324l-96 86l231 324l-245 297l96 92l348 -279q59 -47 59 -103z" />
    <glyph glyph-name="fraction" unicode="&#x2044;" horiz-adv-x="354" 
d="M-80 -84l-156 72l664 1417l160 -68z" />
    <glyph glyph-name="foursuperior" unicode="&#x2074;" horiz-adv-x="772" 
d="M399 874v56h-311v119l229 475l142 -66l-189 -387h140l59 156h109v-156h124v-145h-124v-84l145 -6v-138h-477v136l121 8q32 1 32 32z" />
    <glyph glyph-name="Euro" unicode="&#x20ac;" horiz-adv-x="1148" 
d="M82 422v168h829v-168h-430q25 -121 89 -180q64 -60 189 -60q124 0 238 97l117 -164q-154 -139 -389 -140q-420 0 -498 447h-145zM735 1143q-113 0 -179 -76t-79 -193h434v-167h-829v167h145q23 232 168 352t345 120t358 -84v-287l-209 -14v96q0 31 -8 44t-44 27t-102 15z
" />
    <glyph glyph-name="trademark" unicode="&#x2122;" horiz-adv-x="1595" 
d="M1526 1362v-115l-33 -2q-33 -6 -33 -37l27 -422l65 -4v-108h-272v104l37 4q29 0 29 27l-19 332h-4l-152 -400h-106l-160 402h-2l-20 -357l67 -4v-108h-260v104l37 4q27 0 27 29l20 428l-63 4v119h264l155 -410h3l155 410h238zM289 809v422h-70q-25 0 -24 -33v-41l-115 8
v197h579v-197l-114 -8v41q0 18 -5 26t-26 7h-61v-445l82 -6v-106h-330v104l55 2q29 6 29 29z" />
    <glyph glyph-name="Omega" unicode="&#x2126;" horiz-adv-x="1599" 
d="M150 737q0 299 187 474t477 175t465 -160t175 -454q0 -168 -71 -320t-179 -235h297v-217h-567v176q102 74 184 210t82 347t-110 327q-111 116 -283 116t-286 -116t-113 -345q0 -179 84 -325t202 -216v-174h-581v217h278q-111 76 -176 217t-65 303z" />
    <glyph glyph-name="partialdiff" unicode="&#x2202;" horiz-adv-x="1136" 
d="M565 682q-217 0 -217 -265q0 -126 54 -196t155 -69q217 0 217 368q0 45 -2 70q-96 92 -207 92zM1008 557q0 -166 -41 -292t-145 -210t-267 -84q-227 0 -336 127t-108 326q1 200 113 318t300 118q133 0 248 -72q-20 147 -156 258t-331 146l49 178q362 -68 518 -274
t156 -539z" />
    <glyph glyph-name="Delta" unicode="&#x2206;" horiz-adv-x="1370" 
d="M690 1102h-8l-336 -912h678zM1337 0h-1304l526 1362h256z" />
    <glyph glyph-name="product" unicode="&#x220f;" horiz-adv-x="1406" 
d="M31 1362h1353v-166l-67 -6q-31 -4 -45 -18t-15 -54v-1208l117 -6v-174h-493v166l73 6q51 2 52 55v1186h-607v-1233l121 -6v-174h-497v166l73 6q51 4 51 55v1223l-116 8v174z" />
    <glyph glyph-name="summation" unicode="&#x2211;" horiz-adv-x="1200" 
d="M1149 -270h-1094v194l533 627l-514 614v197h1056v-363l-208 -14v94q0 35 -10 49t-50 15h-456l479 -590l-504 -604h502q37 0 47 15t10 50v113l209 -14v-383z" />
    <glyph glyph-name="minus" unicode="&#x2212;" horiz-adv-x="1095" 
d="M963 741v-196h-830v196h830z" />
    <glyph glyph-name="uni2215" unicode="&#x2215;" horiz-adv-x="974" 
d="M283 -240l-211 74l596 1690l213 -74z" />
    <glyph glyph-name="uni2219" unicode="&#x2219;" horiz-adv-x="645" 
d="M174 628q0 62 38 101t104 39t104 -38q39 -38 39 -99t-38 -101q-39 -40 -105 -41q-66 0 -104 38q-38 39 -38 101z" />
    <glyph glyph-name="radical" unicode="&#x221a;" horiz-adv-x="1366" 
d="M1395 1497l-537 -1526h-231l-289 828l-197 -101l-71 168l409 207l264 -782l410 1206h242z" />
    <glyph glyph-name="infinity" unicode="&#x221e;" horiz-adv-x="1564" 
d="M281 710q0 -66 40 -106q40 -41 111 -41q115 1 217 144q-98 156 -213 155q-76 0 -116 -43t-39 -109zM1280 719q0 67 -35 105t-98 38t-113 -38t-112 -113q109 -147 223 -148q63 0 99 45t36 111zM1481 719q0 -141 -89 -233t-229 -91q-203 0 -377 199q-172 -203 -366 -203
q-158 0 -247 87q-89 86 -89 226t95 236t227 96t216 -52q83 -52 166 -167q102 115 188 168t216 53q129 0 209 -89t80 -230z" />
    <glyph glyph-name="integral" unicode="&#x222b;" horiz-adv-x="798" 
d="M557 -39q1 -121 -65 -201t-198 -80t-235 41l33 154q80 -25 134 -25t75 24t21 69t-7 139l-51 889q-6 104 -6 149q0 123 65 205t214 82q109 0 215 -37l-25 -153q-170 53 -216 -3q-22 -27 -22 -90l68 -1149v-14z" />
    <glyph glyph-name="approxequal" unicode="&#x2248;" horiz-adv-x="1269" 
d="M844 709q-100 -1 -234 69t-184 70q-86 0 -186 -131l-140 114q139 213 306 213q82 0 218 -72t201 -71q96 0 189 129l141 -119q-125 -202 -311 -202zM850 285q-100 -1 -234 69t-184 70q-88 0 -186 -131l-142 115q143 213 306 213q82 0 219 -72t200 -72q96 0 189 129
l141 -119q-125 -202 -309 -202z" />
    <glyph glyph-name="notequal" unicode="&#x2260;" horiz-adv-x="1095" 
d="M963 530v-198h-410l-57 -215h-205l59 215h-217v198h270l56 195h-326v197h381l59 213h197l-57 -213h250v-197h-304l-53 -195h357z" />
    <glyph glyph-name="lessequal" unicode="&#x2264;" horiz-adv-x="1095" 
d="M956 999l-536 -249l541 -256l-87 -185l-722 350v168l722 355zM948 238v-199h-798v199h798z" />
    <glyph glyph-name="greaterequal" unicode="&#x2265;" horiz-adv-x="1095" 
d="M690 750l-536 249l82 183l722 -355v-168l-722 -350l-86 185zM162 39v199h799v-199h-799z" />
    <glyph glyph-name="lozenge" unicode="&#x25ca;" horiz-adv-x="1189" 
d="M854 678l-258 450l-252 -452l258 -465zM1090 678l-388 -678h-208l-390 674l392 672h204z" />
    <glyph glyph-name="ff" unicode="&#xfb00;" horiz-adv-x="1343" 
d="M782 229v629h-342v-686l131 -8v-164h-501v156l67 6q31 4 45 17t15 50v629h-177v172h177v78q0 145 55 246q70 127 289 127q113 0 207 -35l-50 -170q-68 20 -129 20q-129 0 -129 -170v-96h342v78q0 201 89 287t255 86t295 -72l-59 -164q-98 51 -184 51t-119 -42t-33 -128
v-96h303v-172h-303v-686l172 -8v-164h-543v156l68 6q31 4 45 17t14 50z" />
    <glyph glyph-name="fi" unicode="&#xfb01;" horiz-adv-x="1202" 
d="M197 229v629h-177v172h177v78q0 373 387 373q96 0 196 -28t162 -62l-63 -166q-139 72 -265 71q-174 0 -174 -170v-96h586v-860l117 -6v-164h-488v156l68 6q59 6 59 65v570q0 61 -53 61h-289v-686l131 -8v-164h-501v156l67 6q31 4 45 17t15 50z" />
    <glyph glyph-name="fl" unicode="&#xfb02;" horiz-adv-x="1200" 
d="M440 1137v-107h340v217q-84 49 -180 49q-160 1 -160 -159zM1024 1460v-1290l117 -6v-164h-488v156l68 6q59 6 59 65v631h-340v-686l131 -8v-164h-501v156l67 6q31 4 45 17t15 50v629h-177v172h177v78q0 143 65 248q81 125 318 125q127 0 249 -64l121 43h74z" />
    <glyph glyph-name="ffi" unicode="&#xfb03;" horiz-adv-x="1779" 
d="M782 229v629h-342v-686l131 -8v-164h-501v156l67 6q31 4 45 17t15 50v629h-177v172h177v78q0 145 55 246q70 127 289 127q113 0 207 -35l-50 -170q-68 20 -129 20q-129 0 -129 -170v-96h342v78q0 373 387 373q97 0 197 -28t162 -62l-64 -166q-139 72 -264 71
q-174 0 -174 -170v-96h586v-860l117 -6v-164h-488v156l68 6q59 6 59 65v570q0 61 -53 61h-289v-686l131 -8v-164h-502v156l68 6q31 4 45 17t14 50z" />
    <glyph glyph-name="ffl" unicode="&#xfb04;" horiz-adv-x="1785" 
d="M1026 1137v-107h340v217q-84 49 -180 49q-160 1 -160 -159zM1610 1460v-1290l116 -6v-164h-487v156l68 6q59 6 59 65v631h-340v-686l131 -8v-164h-502v156l68 6q31 4 45 17t14 50v629h-342v-686l131 -8v-164h-501v156l67 6q31 4 45 17t15 50v629h-177v172h177v78
q0 145 55 246q70 127 289 127q113 0 207 -35l-50 -170q-68 20 -129 20q-129 0 -129 -170v-96h342v78q0 143 66 248q81 125 317 125q127 0 250 -64l121 43h74z" />
    <glyph glyph-name="hyphen.case" horiz-adv-x="659" 
d="M61 573v189h537v-189h-537z" />
    <glyph glyph-name="idotaccent" horiz-adv-x="606" 
d="M137 1315q0 65 43 109t113 44t114 -44t44 -110t-44 -107q-44 -42 -114 -42t-113 42t-43 108zM438 1030v-860l117 -6v-164h-487v156l67 6q59 6 60 65v570q1 35 -11 47t-41 12l-71 4v170h366z" />
    <glyph glyph-name="t_t" horiz-adv-x="1384" 
d="M1040 1247v-217h273l-21 -172h-252v-539q0 -89 33 -125t102 -36t138 43l61 -158q-102 -72 -260 -72q-92 0 -156 24q-64 25 -94 53q-31 28 -47 83t-18 87t-2 93v547h-369v-539q0 -89 33 -125t99 -36t128 39l60 -158q-96 -68 -246 -68q-92 0 -156 24q-64 25 -94 53
q-31 28 -47 83t-19 87q-2 32 -2 93v547h-145l20 150q96 8 146 68q49 60 90 171h133v-217h328q40 18 70 56t44 70t37 91h133z" />
    <glyph glyph-name="commaaccent" 
d="M592 -223q0 -37 -29 -76l-176 -276l-94 45l121 405l100 -20q78 -14 78 -78z" />
    <glyph glyph-name="revcommaaccent" 
d="M668 1563l-121 -406l-101 21q-78 14 -77 77q0 37 28 76l176 277z" />
    <glyph glyph-name="tilde.cap" 
d="M664 1667q44 0 84 66l110 -60q-68 -178 -211 -178q-45 0 -135 28q-90 27 -126 27t-58 -11t-56 -48l-98 72q74 162 209 161q49 0 143 -28t138 -29z" />
    <glyph glyph-name="ring.cap" 
d="M512 1651q-74 0 -74 -85t74 -85q35 1 54 25t20 61q0 84 -74 84zM513 1757q87 0 138 -52t51 -134t-53 -138t-142 -56t-139 54t-51 137q1 83 55 136t141 53z" />
    <glyph glyph-name="circumflex.cap" 
d="M266 1450l-84 70l242 262q43 47 86 47l82 -43l246 -264l-84 -72l-246 176z" />
    <glyph glyph-name="acute.cap" 
d="M756 1722q0 -51 -72 -92l-317 -178l-62 84l332 322l82 -68q37 -35 37 -68z" />
    <glyph glyph-name="grave.cap" 
d="M303 1712q0 41 39 78l82 68l332 -322l-62 -84l-317 178q-74 41 -74 82z" />
    <glyph glyph-name="dieresis.cap" 
d="M170 1610q0 58 40 99q40 40 101 40t101 -40t41 -98q0 -59 -40 -97q-41 -38 -103 -38t-101 38t-39 96zM721 1749q61 0 101 -40t40 -98q0 -59 -40 -97t-102 -38t-102 38q-38 38 -38 96t40 99q40 40 101 40z" />
    <glyph glyph-name="caron.cap" 
d="M752 1829l84 -70l-242 -262q-43 -47 -86 -47l-82 43l-246 264l84 72l246 -176z" />
    <glyph glyph-name="macron.cap" 
d="M213 1503v178h588v-178h-588z" />
    <glyph glyph-name="dotaccent.cap" 
d="M375 1623q0 58 40 98t101 40t101 -40t40 -98t-40 -96t-102 -38t-101 38t-39 96z" />
    <glyph glyph-name="cedilla.cap" 
d="M442 -379q98 0 99 77q0 77 -181 77l74 231h117l-35 -135q189 -13 191 -181q0 -89 -75 -137q-75 -49 -175 -49t-185 37l33 107q80 -27 137 -27z" />
    <glyph glyph-name="hungarumlaut.cap" 
d="M541 1524l338 313l82 -70q35 -35 34 -55q0 -61 -73 -104l-322 -170zM115 1524l338 313l82 -70q35 -35 34 -55q0 -61 -73 -104l-322 -170z" />
    <glyph glyph-name="commaaccent.cap" 
d="M592 -223q0 -37 -29 -76l-176 -276l-94 45l121 405l100 -20q78 -14 78 -78z" />
    <glyph glyph-name="breve.cap" 
d="M509 1475q-261 0 -333 258l137 57q63 -160 205 -160q76 0 122 38t81 122l135 -55q-86 -260 -347 -260z" />
    <glyph glyph-name="caron.alt" horiz-adv-x="516" 
d="M293 1421q82 0 82 -82q0 -25 -8 -53l-95 -325l-98 18v432l102 10h17z" />
    <glyph glyph-name="ogonek.cap" 
d="M467 -199q0 -78 84 -77q45 0 96 22l45 -135q-102 -49 -214 -49t-164 56t-52 142t55 145q56 58 148 107l215 -8q-213 -94 -213 -203z" />
    </font>
</defs>
</svg>
