<svg width="24" height="24" viewBox="0 0 24 24" fill="none" xmlns="http://www.w3.org/2000/svg">
<path fill-rule="evenodd" clip-rule="evenodd" d="M21.5426 18.6238L21.5365 18.6293C20.8527 19.2451 20.1207 19.6817 19.4597 20.0165L18.7052 20.3986L13.5287 18.3763C13.4579 18.4479 13.3855 18.5181 13.3115 18.5868C12.633 19.2628 11.8363 19.7238 11.012 20.0717L10.3043 20.3703L0.651742 16.5993L0.406935 15.6695C0.13723 14.6451 0 13.6107 0 12.5702V3H24V12.3374C24 14.8678 23.2453 17.0634 21.5486 18.6182L21.5426 18.6238ZM12 17.2242C12.3564 16.8977 12.6626 16.5254 12.9172 16.1074L18.6055 18.3297C19.1799 18.0388 19.7543 17.6897 20.2712 17.2242C21.4774 16.1189 22.1092 14.4899 22.1092 12.3374V4.89076H1.89076V12.5702C1.89076 13.4427 2.00563 14.3154 2.23538 15.1881L10.2768 18.3297C10.9661 18.0388 11.5405 17.6897 12 17.2242Z" fill="black"/>
<path fill-rule="evenodd" clip-rule="evenodd" d="M5.68172 9.60308V11.1738C5.68172 12.1629 5.85404 12.861 6.31355 13.2682C6.77304 13.6173 7.34746 13.7919 7.97925 13.7919C8.55366 13.85 9.12807 13.6173 9.58753 13.2101C9.93444 12.7709 10.1177 12.2654 10.1619 11.7186V9.60308H5.68172ZM13.8955 11.1738C13.8955 12.1629 14.0678 12.861 14.5273 13.2682C14.9869 13.6173 15.5612 13.7919 16.1356 13.7919C16.71 13.85 17.3418 13.6173 17.7439 13.2101C18.2034 12.6283 18.3758 11.9301 18.3183 11.1738V9.60308H13.8955V11.1738Z" fill="black"/>
</svg>
