<?xml version="1.0" encoding="UTF-8"?><svg id="Layer_1" xmlns="http://www.w3.org/2000/svg" xmlns:xlink="http://www.w3.org/1999/xlink" viewBox="0 0 183.59 182.8"><defs><style>.cls-1{fill:url(#linear-gradient);}.cls-2{fill:#fff;}.cls-3{fill:#231f20;}</style><linearGradient id="linear-gradient" x1="33.57" y1="161.43" x2="150.97" y2="21.52" gradientUnits="userSpaceOnUse"><stop offset="0" stop-color="#0077e8"/><stop offset="1" stop-color="#6b00a9"/></linearGradient></defs><circle class="cls-1" cx="92.27" cy="91.48" r="91.32"/><g><path class="cls-2" d="M160.86,99.92l-.08,52.09c-15.6,17.38-34.13,30.78-68.52,30.78-45.05,0-68.79-30.7-68.79-30.7,0-19.61-.29-52.17-.29-52.17,0-6.11,1.35-11.62,3.72-16.55-2.32-1.96-3.79-4.88-3.79-8.16,0-5.92,4.76-10.7,10.68-10.7,2.56,0,4.93,.89,6.79,2.42,14.76-11.4,35.94-16.69,51.43-16.69s36.96,5.34,51.69,16.89c1.86-1.64,4.32-2.61,7.01-2.61,5.89,0,10.7,4.78,10.7,10.7,0,3.43-1.59,6.47-4.11,8.41,2.3,4.85,3.55,10.29,3.55,16.31Z"/><path class="cls-3" d="M119.96,112.73c0,.1-.17,2.63-2.56,4.44-1.55,1.16-3.6,1.74-6.16,1.74-1.16,0-2.44-.12-3.79-.36-.19,.6-.56,1.16-1.06,1.69-3.48,3.5-13.26,3.53-14.35,3.5h-.24c-1.84,0-10.8-.17-14.08-3.5-.51-.53-.87-1.09-1.06-1.69-1.35,.24-2.61,.36-3.79,.36-2.54,0-4.61-.58-6.16-1.76-2.39-1.79-2.56-4.32-2.56-4.42-.05-.68,.46-1.23,1.11-1.28,.65-.02,1.23,.46,1.28,1.11,.02,.1,.17,1.59,1.67,2.71,1.81,1.33,4.95,1.59,9.03,.7,9.95-4.37,12.59-5.75,12.95-10.7v-.05c-1.23-.12-4.76-.63-7.08-2.49,0-5.12,0-5.94-7.51-5.65,.87-8.74,15.05-7.78,15.05-7.78h3.43s14.18-.97,15.1,7.78c-7.56-.29-7.56,.53-7.56,5.65-2.8,2.3-7.54,2.54-7.54,2.54h-.15v.02c.41,4.95,3.04,6.33,12.92,10.68,4.11,.89,7.25,.65,9.06-.7,1.5-1.11,1.64-2.63,1.67-2.71,.05-.65,.58-1.18,1.28-1.11,.65,.05,1.16,.63,1.11,1.28Z"/><path d="M66.53,84.24c0,3.65-2.95,6.59-6.57,6.59s-6.59-2.95-6.59-6.59,2.97-6.57,6.59-6.57,6.57,2.95,6.57,6.57Z"/><path d="M130.69,84.24c0,3.65-2.92,6.59-6.6,6.59s-6.55-2.95-6.55-6.59,2.92-6.57,6.55-6.57,6.6,2.95,6.6,6.57Z"/><g><path d="M28.77,113.59h-.01c-.54,0-.97-.45-.96-.98,0-.58,.02-1.67,12.5-7.09,11.91-5.18,33.04-7.13,33.93-7.21,.52-.04,1.01,.35,1.06,.88s-.35,1.01-.88,1.06c-.22,.02-21.71,2.01-33.33,7.06-9.47,4.12-11.18,5.52-11.44,5.78-.16,.3-.49,.51-.86,.51Zm.97-.96s0,.06,0,.09c0-.03,0-.06,0-.09Zm0,0h0s0,0,0,0Zm0,0h0s0,0,0,0Z"/><path d="M30.85,120.73c-.15,0-.3-.03-.44-.11-.47-.24-.66-.81-.43-1.28,.19-.39,2.24-3.99,14.12-9.16,11.87-5.16,29.54-8.18,29.72-8.21,.52-.1,1.03,.27,1.12,.8,.09,.53-.27,1.03-.8,1.12-.17,.03-17.61,3.01-29.27,8.07-11.2,4.87-13.15,8.22-13.16,8.26-.18,.32-.52,.51-.86,.51Z"/><path d="M38.3,124.92c-.2,0-.41-.06-.58-.19-.43-.32-.52-.93-.2-1.36,7.45-9.98,33.2-16.57,34.29-16.85,.51-.13,1.05,.18,1.18,.7,.13,.52-.18,1.05-.7,1.18-.26,.07-26.17,6.7-33.21,16.13-.19,.26-.48,.39-.78,.39Z"/></g><g><path d="M155.59,113.59c-.37,0-.69-.21-.86-.51-.26-.26-1.97-1.66-11.44-5.78-11.62-5.05-33.12-7.04-33.33-7.06-.54-.05-.93-.52-.88-1.06s.52-.92,1.06-.88c.89,.08,22.02,2.04,33.93,7.21,12.48,5.43,12.49,6.51,12.5,7.09,0,.54-.42,.98-.96,.98h-.01Zm-.82-.47h0Zm-.15-.4h0Zm0-.08s0,.06,0,.08c0-.03,0-.05,0-.08Zm0,0h0s0,0,0,0Zm0,0h0s0,0,0,0Z"/><path d="M153.51,120.75c-.35,0-.69-.19-.86-.52-.05-.09-2.07-3.43-13.16-8.26-11.65-5.06-29.09-8.04-29.27-8.07-.53-.09-.89-.59-.8-1.12s.6-.89,1.12-.8c.18,.03,17.84,3.05,29.72,8.21,11.88,5.17,13.93,8.77,14.12,9.16,.24,.48,.04,1.06-.44,1.3-.14,.07-.28,.1-.43,.1Z"/><path d="M146.07,124.92c-.3,0-.59-.13-.78-.39-7.04-9.43-32.95-16.06-33.21-16.13-.52-.13-.84-.66-.7-1.18,.13-.52,.67-.83,1.18-.7,1.09,.28,26.84,6.87,34.29,16.85,.32,.43,.23,1.04-.2,1.36-.17,.13-.38,.19-.58,.19Z"/></g></g></svg>