<?xml version="1.0" encoding="UTF-8"?><svg id="Layer_1" xmlns="http://www.w3.org/2000/svg" viewBox="0 0 108.1 94.55"><defs><style>.cls-1{fill:#fff;}</style></defs><path class="cls-1" d="M107.74,20.28c0-4.57-3.71-8.26-8.25-8.26-2.07,0-3.98,.75-5.41,2.02C82.7,5.12,66.22,1,54.18,1S25.87,5.09,14.48,13.89c-1.43-1.18-3.26-1.87-5.24-1.87-4.57,0-8.24,3.69-8.24,8.26,0,2.54,1.14,4.79,2.93,6.3-1.83,3.81-2.87,8.06-2.87,12.78,0,0,.22,25.06,.22,40.2v10.56c0,1.99,1.61,3.6,3.6,3.6H103.52c1.99,0,3.6-1.61,3.6-3.6v-10.45c.05-.04,.09-.07,.14-.11l.06-40.2c0-4.65-.97-8.84-2.75-12.59,1.94-1.49,3.17-3.84,3.17-6.49Zm-28.8,1.9c2.84,0,5.09,2.28,5.09,5.07s-2.25,5.1-5.09,5.1-5.05-2.28-5.05-5.1,2.25-5.07,5.05-5.07Zm-49.5,0c2.79,0,5.07,2.28,5.07,5.07s-2.28,5.1-5.07,5.1-5.09-2.28-5.09-5.1,2.29-5.07,5.09-5.07ZM5.37,49.91h-.01c-.42-.01-.75-.35-.74-.76,0-.45,.01-1.29,9.64-5.47,9.19-4,25.5-5.51,26.19-5.57,.41-.03,.78,.27,.82,.68,.03,.41-.27,.78-.68,.81-.17,.02-16.76,1.55-25.73,5.45-7.31,3.18-8.63,4.26-8.83,4.46-.13,.24-.38,.4-.66,.4Zm2.27,5.12c-.14,.25-.4,.39-.67,.39-.11,0-.23-.03-.34-.08-.36-.19-.51-.63-.33-.99,.15-.31,1.73-3.08,10.9-7.07,9.17-3.99,22.8-6.32,22.94-6.34,.4-.08,.8,.21,.86,.62,.07,.4-.2,.79-.61,.86-.13,.02-13.59,2.32-22.59,6.23-8.65,3.76-10.15,6.35-10.16,6.38Zm5.68,3.32c-.15,.2-.38,.3-.6,.3-.16,0-.32-.05-.45-.15-.33-.25-.4-.72-.15-1.05,5.75-7.7,25.62-12.79,26.46-13,.4-.1,.81,.14,.91,.54,.1,.4-.14,.81-.54,.91-.2,.05-20.2,5.17-25.63,12.45Zm60.45-5.68c-1.19,.9-2.77,1.35-4.75,1.35-.9,0-1.88-.1-2.93-.28-.15,.46-.43,.89-.82,1.3-2.68,2.71-10.23,2.72-11.07,2.71h-.19c-1.42,0-8.33-.14-10.87-2.71-.39-.41-.67-.84-.82-1.3-1.04,.18-2.01,.28-2.93,.28-1.95,0-3.56-.45-4.75-1.36-1.85-1.39-1.98-3.34-1.98-3.42-.04-.52,.36-.95,.86-.98,.5-.02,.95,.35,.99,.85,.02,.08,.13,1.23,1.28,2.09,1.4,1.03,3.83,1.23,6.98,.54,7.68-3.37,9.71-4.44,9.99-8.26v-.04c-.95-.09-3.67-.48-5.46-1.92,0-3.95,0-4.58-5.8-4.36,.67-6.75,11.61-6,11.61-6h2.65s10.95-.75,11.66,6c-5.84-.22-5.84,.41-5.84,4.36-2.16,1.78-5.82,1.96-5.82,1.96h-.11v.02c.32,3.82,2.35,4.89,9.98,8.24,3.17,.69,5.59,.5,6.99-.54,1.15-.86,1.27-2.03,1.28-2.09,.04-.5,.45-.91,.99-.85,.51,.03,.9,.48,.86,.98,0,.08-.13,2.03-1.98,3.43Zm22.58,5.83c-.14,.1-.29,.15-.45,.15-.23,0-.45-.1-.6-.3-5.44-7.28-25.43-12.4-25.63-12.45-.4-.1-.65-.51-.55-.91,.1-.4,.52-.64,.91-.54,.85,.21,20.72,5.3,26.47,13,.25,.33,.18,.8-.15,1.05Zm5.62-3.15c-.1,.05-.21,.08-.33,.08-.27,0-.53-.15-.66-.4-.05-.08-1.6-2.65-10.16-6.38-9-3.91-22.46-6.21-22.59-6.23-.41-.07-.69-.46-.62-.86,.07-.41,.47-.69,.87-.62,.13,.02,13.77,2.35,22.93,6.34,9.18,3.99,10.76,6.76,10.91,7.07,.18,.37,.03,.82-.35,1Zm1.29-5.44h-.01c-.28,0-.51-.15-.63-.37-.02-.01-.02-.02-.03-.03-.2-.2-1.52-1.28-8.83-4.46-8.97-3.9-25.56-5.43-25.73-5.45-.41-.03-.72-.4-.68-.81,.04-.41,.41-.71,.82-.68,.69,.06,17,1.57,26.19,5.57,9.63,4.18,9.64,5.02,9.64,5.47,.01,.41-.33,.75-.74,.76Z"/></svg>