<svg width="228" height="210" viewBox="0 0 228 210" fill="none" xmlns="http://www.w3.org/2000/svg">
<g filter="url(#filter0_d)">
<g clip-path="url(#clip0)">
<rect x="3" width="222" height="204" rx="2.71856" fill="white"/>
<g filter="url(#filter1_d)">
<rect x="7.07935" width="287.488" height="20.3892" fill="white"/>
</g>
<path d="M-2.71343 12.7573V8.46643H-4.3163V7.89232H-0.46013V8.46643H-2.06963V12.7573H-2.71343ZM1.67038 12.3226C1.44915 12.5106 1.23565 12.6434 1.0299 12.7208C0.826364 12.7983 0.607339 12.837 0.372828 12.837C-0.0143372 12.837 -0.311901 12.7429 -0.519864 12.5549C-0.727827 12.3646 -0.831809 12.1224 -0.831809 11.8281C-0.831809 11.6556 -0.793092 11.4985 -0.715659 11.3569C-0.636014 11.2131 -0.533139 11.098 -0.407033 11.0118C-0.278716 10.9255 -0.134911 10.8602 0.0243793 10.816C0.141635 10.785 0.318625 10.7551 0.555349 10.7264C1.03765 10.6688 1.39273 10.6003 1.62061 10.5206C1.62282 10.4388 1.62392 10.3868 1.62392 10.3646C1.62392 10.1213 1.56751 9.94982 1.45468 9.85027C1.30202 9.71531 1.07526 9.64783 0.774374 9.64783C0.493402 9.64783 0.285439 9.69761 0.150485 9.79717C0.0177422 9.89451 -0.0807084 10.0682 -0.144867 10.3182L-0.728933 10.2385C-0.675837 9.98854 -0.588448 9.78721 -0.466767 9.63456C-0.345087 9.47969 -0.169203 9.36133 0.0608835 9.27947C0.29097 9.1954 0.557561 9.15337 0.860656 9.15337C1.16154 9.15337 1.40601 9.18877 1.59406 9.25956C1.78211 9.33036 1.92038 9.41996 2.00888 9.52837C2.09737 9.63456 2.15932 9.76952 2.19472 9.93323C2.21463 10.035 2.22458 10.2186 2.22458 10.4841V11.2806C2.22458 11.8359 2.23675 12.1876 2.26109 12.3359C2.28764 12.4819 2.33852 12.6224 2.41374 12.7573H1.78985C1.72791 12.6334 1.68808 12.4885 1.67038 12.3226ZM1.62061 10.9885C1.40379 11.077 1.07857 11.1522 0.64495 11.2142C0.399376 11.2496 0.225705 11.2894 0.123936 11.3337C0.0221669 11.3779 -0.0563723 11.4432 -0.111682 11.5295C-0.166991 11.6135 -0.194646 11.7076 -0.194646 11.8115C-0.194646 11.9708 -0.134911 12.1036 -0.0154434 12.2098C0.106237 12.316 0.283227 12.3691 0.515526 12.3691C0.745613 12.3691 0.950257 12.3193 1.12946 12.2197C1.30866 12.1179 1.4403 11.9797 1.52437 11.8049C1.58853 11.6699 1.62061 11.4708 1.62061 11.2076V10.9885ZM3.70466 12.7573H3.15046V7.89232H3.7478V9.62792C4.00001 9.31155 4.32191 9.15337 4.7135 9.15337C4.93031 9.15337 5.13496 9.19762 5.32744 9.28611C5.52212 9.37239 5.68142 9.49518 5.80531 9.65447C5.93141 9.81155 6.02986 10.0018 6.10066 10.2253C6.17146 10.4487 6.20685 10.6876 6.20685 10.9421C6.20685 11.5461 6.05752 12.0129 5.75885 12.3425C5.46018 12.6721 5.10177 12.837 4.68364 12.837C4.26771 12.837 3.94138 12.6633 3.70466 12.316V12.7573ZM3.69802 10.9686C3.69802 11.3912 3.75554 11.6965 3.87059 11.8845C4.05864 12.1921 4.31306 12.3458 4.63386 12.3458C4.89492 12.3458 5.12058 12.233 5.31084 12.0073C5.50111 11.7795 5.59624 11.441 5.59624 10.9919C5.59624 10.5317 5.50443 10.1921 5.3208 9.97305C5.13938 9.75403 4.91925 9.64452 4.66041 9.64452C4.39935 9.64452 4.17368 9.75845 3.98342 9.98633C3.79316 10.212 3.69802 10.5394 3.69802 10.9686Z" fill="#EAEAEA"/>
<path d="M11.8357 8.15576L15.9135 12.2336" stroke="#EAEAEA" stroke-width="0.679641"/>
<path d="M11.8354 12.2334L15.9133 8.15555" stroke="#EAEAEA" stroke-width="0.679641"/>
<path d="M47.58 12.7573V8.46643H45.9772V7.89232H49.8333V8.46643H48.2238V12.7573H47.58ZM51.9638 12.3226C51.7426 12.5106 51.5291 12.6434 51.3234 12.7208C51.1198 12.7983 50.9008 12.837 50.6663 12.837C50.2791 12.837 49.9816 12.7429 49.7736 12.5549C49.5656 12.3646 49.4616 12.1224 49.4616 11.8281C49.4616 11.6556 49.5004 11.4985 49.5778 11.3569C49.6574 11.2131 49.7603 11.098 49.8864 11.0118C50.0147 10.9255 50.1585 10.8602 50.3178 10.816C50.4351 10.785 50.6121 10.7551 50.8488 10.7264C51.3311 10.6688 51.6862 10.6003 51.9141 10.5206C51.9163 10.4388 51.9174 10.3868 51.9174 10.3646C51.9174 10.1213 51.861 9.94982 51.7481 9.85027C51.5955 9.71531 51.3687 9.64783 51.0678 9.64783C50.7869 9.64783 50.5789 9.69761 50.4439 9.79717C50.3112 9.89451 50.2127 10.0682 50.1486 10.3182L49.5645 10.2385C49.6176 9.98854 49.705 9.78721 49.8267 9.63456C49.9484 9.47969 50.1243 9.36133 50.3543 9.27947C50.5844 9.1954 50.851 9.15337 51.1541 9.15337C51.455 9.15337 51.6995 9.18877 51.8875 9.25956C52.0756 9.33036 52.2138 9.41996 52.3023 9.52837C52.3908 9.63456 52.4528 9.76952 52.4882 9.93323C52.5081 10.035 52.518 10.2186 52.518 10.4841V11.2806C52.518 11.8359 52.5302 12.1876 52.5545 12.3359C52.5811 12.4819 52.632 12.6224 52.7072 12.7573H52.0833C52.0214 12.6334 51.9815 12.4885 51.9638 12.3226ZM51.9141 10.9885C51.6973 11.077 51.372 11.1522 50.9384 11.2142C50.6928 11.2496 50.5192 11.2894 50.4174 11.3337C50.3156 11.3779 50.2371 11.4432 50.1818 11.5295C50.1265 11.6135 50.0988 11.7076 50.0988 11.8115C50.0988 11.9708 50.1585 12.1036 50.278 12.2098C50.3997 12.316 50.5767 12.3691 50.809 12.3691C51.0391 12.3691 51.2437 12.3193 51.4229 12.2197C51.6021 12.1179 51.7338 11.9797 51.8178 11.8049C51.882 11.6699 51.9141 11.4708 51.9141 11.2076V10.9885ZM53.9981 12.7573H53.4439V7.89232H54.0413V9.62792C54.2935 9.31155 54.6154 9.15337 55.007 9.15337C55.2238 9.15337 55.4284 9.19762 55.6209 9.28611C55.8156 9.37239 55.9749 9.49518 56.0988 9.65447C56.2249 9.81155 56.3233 10.0018 56.3941 10.2253C56.4649 10.4487 56.5003 10.6876 56.5003 10.9421C56.5003 11.5461 56.351 12.0129 56.0523 12.3425C55.7536 12.6721 55.3952 12.837 54.9771 12.837C54.5612 12.837 54.2348 12.6633 53.9981 12.316V12.7573ZM53.9915 10.9686C53.9915 11.3912 54.049 11.6965 54.164 11.8845C54.3521 12.1921 54.6065 12.3458 54.9273 12.3458C55.1884 12.3458 55.414 12.233 55.6043 12.0073C55.7946 11.7795 55.8897 11.441 55.8897 10.9919C55.8897 10.5317 55.7979 10.1921 55.6143 9.97305C55.4328 9.75403 55.2127 9.64452 54.9539 9.64452C54.6928 9.64452 54.4671 9.75845 54.2769 9.98633C54.0866 10.212 53.9915 10.5394 53.9915 10.9686Z" fill="#EAEAEA"/>
<path d="M68.2454 8.15576L72.3232 12.2336" stroke="#EAEAEA" stroke-width="0.679641"/>
<path d="M68.2454 12.2334L72.3232 8.15555" stroke="#EAEAEA" stroke-width="0.679641"/>
<path d="M79.1194 4.75732V15.2918" stroke="#EAEAEA" stroke-width="0.679641"/>
<rect x="32.2241" y="6.79639" width="6.11677" height="6.11677" fill="#EAEAEA"/>
<rect x="88.6338" y="6.79639" width="6.11677" height="6.11677" fill="#EAEAEA"/>
<g filter="url(#filter2_d)">
<path fill-rule="evenodd" clip-rule="evenodd" d="M135.299 4C133.798 4 132.581 5.21714 132.581 6.71856V20H-55V44H225V20H193.069V6.71856C193.069 5.21714 191.851 4 190.35 4H135.299Z" fill="#EAEAEA"/>
</g>
<g filter="url(#filter3_d)">
<rect x="-8" y="24.4668" width="229.039" height="13.5928" fill="#F0F0F0"/>
</g>
<g filter="url(#filter4_d)">
<rect x="189.775" y="24.4668" width="16.3114" height="13.5928" fill="#EAEAEA"/>
</g>
<path d="M212.547 34.3218L210.508 35.3412L210.848 31.943L208.809 30.5838L212.207 29.5643L213.226 27.1855L214.246 29.5643L217.644 30.5838" stroke="#C7C7C7" stroke-width="0.679641"/>
<path d="M24.7485 4.75732V15.2918" stroke="#EAEAEA" stroke-width="0.679641"/>
<path d="M104.669 12.7573V8.46643H103.066V7.89232H106.922V8.46643H105.312V12.7573H104.669ZM109.052 12.3226C108.831 12.5106 108.618 12.6434 108.412 12.7208C108.208 12.7983 107.989 12.837 107.755 12.837C107.368 12.837 107.07 12.7429 106.862 12.5549C106.654 12.3646 106.55 12.1224 106.55 11.8281C106.55 11.6556 106.589 11.4985 106.666 11.3569C106.746 11.2131 106.849 11.098 106.975 11.0118C107.103 10.9255 107.247 10.8602 107.406 10.816C107.524 10.785 107.701 10.7551 107.937 10.7264C108.42 10.6688 108.775 10.6003 109.003 10.5206C109.005 10.4388 109.006 10.3868 109.006 10.3646C109.006 10.1213 108.95 9.94982 108.837 9.85027C108.684 9.71531 108.457 9.64783 108.156 9.64783C107.875 9.64783 107.668 9.69761 107.533 9.79717C107.4 9.89451 107.301 10.0682 107.237 10.3182L106.653 10.2385C106.706 9.98854 106.794 9.78721 106.915 9.63456C107.037 9.47969 107.213 9.36133 107.443 9.27947C107.673 9.1954 107.94 9.15337 108.243 9.15337C108.544 9.15337 108.788 9.18877 108.976 9.25956C109.164 9.33036 109.302 9.41996 109.391 9.52837C109.479 9.63456 109.541 9.76952 109.577 9.93323C109.597 10.035 109.607 10.2186 109.607 10.4841V11.2806C109.607 11.8359 109.619 12.1876 109.643 12.3359C109.67 12.4819 109.721 12.6224 109.796 12.7573H109.172C109.11 12.6334 109.07 12.4885 109.052 12.3226ZM109.003 10.9885C108.786 11.077 108.461 11.1522 108.027 11.2142C107.781 11.2496 107.608 11.2894 107.506 11.3337C107.404 11.3779 107.326 11.4432 107.27 11.5295C107.215 11.6135 107.187 11.7076 107.187 11.8115C107.187 11.9708 107.247 12.1036 107.367 12.2098C107.488 12.316 107.665 12.3691 107.898 12.3691C108.128 12.3691 108.332 12.3193 108.512 12.2197C108.691 12.1179 108.822 11.9797 108.906 11.8049C108.971 11.6699 109.003 11.4708 109.003 11.2076V10.9885ZM111.087 12.7573H110.533V7.89232H111.13V9.62792C111.382 9.31155 111.704 9.15337 112.096 9.15337C112.312 9.15337 112.517 9.19762 112.71 9.28611C112.904 9.37239 113.063 9.49518 113.187 9.65447C113.313 9.81155 113.412 10.0018 113.483 10.2253C113.554 10.4487 113.589 10.6876 113.589 10.9421C113.589 11.5461 113.44 12.0129 113.141 12.3425C112.842 12.6721 112.484 12.837 112.066 12.837C111.65 12.837 111.323 12.6633 111.087 12.316V12.7573ZM111.08 10.9686C111.08 11.3912 111.138 11.6965 111.253 11.8845C111.441 12.1921 111.695 12.3458 112.016 12.3458C112.277 12.3458 112.503 12.233 112.693 12.0073C112.883 11.7795 112.978 11.441 112.978 10.9919C112.978 10.5317 112.887 10.1921 112.703 9.97305C112.521 9.75403 112.301 9.64452 112.042 9.64452C111.781 9.64452 111.556 9.75845 111.365 9.98633C111.175 10.212 111.08 10.5394 111.08 10.9686Z" fill="#EAEAEA"/>
<path d="M123.295 8.15576L127.373 12.2336" stroke="#EAEAEA" stroke-width="0.679641"/>
<path d="M123.295 12.2339L127.373 8.15604" stroke="#EAEAEA" stroke-width="0.679641"/>
<path d="M133.49 4.75732V15.2918" stroke="#EAEAEA" stroke-width="0.679641"/>
<rect x="143.007" y="6.79639" width="6.11677" height="6.11677" fill="#EAEAEA"/>
<path d="M159.039 12.7573V8.46643H157.437V7.89232H161.293V8.46643H159.683V12.7573H159.039ZM163.423 12.3226C163.202 12.5106 162.989 12.6434 162.783 12.7208C162.579 12.7983 162.36 12.837 162.126 12.837C161.739 12.837 161.441 12.7429 161.233 12.5549C161.025 12.3646 160.921 12.1224 160.921 11.8281C160.921 11.6556 160.96 11.4985 161.037 11.3569C161.117 11.2131 161.22 11.098 161.346 11.0118C161.474 10.9255 161.618 10.8602 161.777 10.816C161.895 10.785 162.072 10.7551 162.308 10.7264C162.791 10.6688 163.146 10.6003 163.374 10.5206C163.376 10.4388 163.377 10.3868 163.377 10.3646C163.377 10.1213 163.32 9.94982 163.208 9.85027C163.055 9.71531 162.828 9.64783 162.527 9.64783C162.246 9.64783 162.038 9.69761 161.903 9.79717C161.771 9.89451 161.672 10.0682 161.608 10.3182L161.024 10.2385C161.077 9.98854 161.164 9.78721 161.286 9.63456C161.408 9.47969 161.584 9.36133 161.814 9.27947C162.044 9.1954 162.31 9.15337 162.614 9.15337C162.914 9.15337 163.159 9.18877 163.347 9.25956C163.535 9.33036 163.673 9.41996 163.762 9.52837C163.85 9.63456 163.912 9.76952 163.948 9.93323C163.968 10.035 163.978 10.2186 163.978 10.4841V11.2806C163.978 11.8359 163.99 12.1876 164.014 12.3359C164.041 12.4819 164.091 12.6224 164.167 12.7573H163.543C163.481 12.6334 163.441 12.4885 163.423 12.3226ZM163.374 10.9885C163.157 11.077 162.832 11.1522 162.398 11.2142C162.152 11.2496 161.979 11.2894 161.877 11.3337C161.775 11.3779 161.697 11.4432 161.641 11.5295C161.586 11.6135 161.558 11.7076 161.558 11.8115C161.558 11.9708 161.618 12.1036 161.737 12.2098C161.859 12.316 162.036 12.3691 162.268 12.3691C162.499 12.3691 162.703 12.3193 162.882 12.2197C163.062 12.1179 163.193 11.9797 163.277 11.8049C163.341 11.6699 163.374 11.4708 163.374 11.2076V10.9885ZM165.458 12.7573H164.903V7.89232H165.501V9.62792C165.753 9.31155 166.075 9.15337 166.466 9.15337C166.683 9.15337 166.888 9.19762 167.08 9.28611C167.275 9.37239 167.434 9.49518 167.558 9.65447C167.684 9.81155 167.783 10.0018 167.854 10.2253C167.924 10.4487 167.96 10.6876 167.96 10.9421C167.96 11.5461 167.81 12.0129 167.512 12.3425C167.213 12.6721 166.855 12.837 166.437 12.837C166.021 12.837 165.694 12.6633 165.458 12.316V12.7573ZM165.451 10.9686C165.451 11.3912 165.508 11.6965 165.624 11.8845C165.812 12.1921 166.066 12.3458 166.387 12.3458C166.648 12.3458 166.874 12.233 167.064 12.0073C167.254 11.7795 167.349 11.441 167.349 10.9919C167.349 10.5317 167.257 10.1921 167.074 9.97305C166.892 9.75403 166.672 9.64452 166.413 9.64452C166.152 9.64452 165.927 9.75845 165.736 9.98633C165.546 10.212 165.451 10.5394 165.451 10.9686Z" fill="#EAEAEA"/>
<path d="M177.668 8.15576L181.746 12.2336" stroke="#EAEAEA" stroke-width="0.679641"/>
<path d="M177.668 12.2339L181.746 8.15604" stroke="#EAEAEA" stroke-width="0.679641"/>
<circle cx="197.593" cy="31.6032" r="4.07784" stroke="#D0D0D0" stroke-width="0.679641"/>
<path d="M195.212 31.5103H199.785" stroke="#D0D0D0" stroke-width="0.679641"/>
<path d="M197.498 33.7969L197.498 29.2243" stroke="#D0D0D0" stroke-width="0.679641"/>
<circle cx="218.379" cy="33.3787" r="2.03892" stroke="#C2C2C2" stroke-width="0.679641"/>
<path d="M217.099 33.3291H219.561" stroke="#C0C0C0" stroke-width="0.679641"/>
<path d="M218.331 34.5605L218.331 32.0984" stroke="#C0C0C0" stroke-width="0.679641"/>
<g style="mix-blend-mode:multiply">
<rect x="3" width="265" height="242" fill="#DCDCDC"/>
</g>
<g filter="url(#filter5_d)">
<rect x="8" y="38" width="213" height="116.529" rx="1.94749" fill="white"/>
</g>
<circle cx="26.0747" cy="59.1548" r="8.76371" fill="#C4C4C4"/>
<path d="M49.0147 60.3911H47.8964V53.9299H49.0147V60.3911ZM51.2912 55.5896L51.3223 56.1443C51.6773 55.7153 52.1433 55.5008 52.7201 55.5008C53.7201 55.5008 54.2289 56.0733 54.2467 57.2182V60.3911H53.1684V57.2803C53.1684 56.9756 53.1018 56.7508 52.9687 56.6058C52.8385 56.4579 52.624 56.3839 52.3252 56.3839C51.8903 56.3839 51.5664 56.5807 51.3534 56.9741V60.3911H50.275V55.5896H51.2912ZM58.0409 59.0864C58.0409 58.8941 57.961 58.7477 57.8012 58.6471C57.6445 58.5465 57.3826 58.4578 57.0158 58.3809C56.6489 58.3039 56.3427 58.2063 56.0972 58.088C55.5588 57.8276 55.2895 57.4504 55.2895 56.9564C55.2895 56.5422 55.4641 56.1961 55.8132 55.918C56.1623 55.6399 56.606 55.5008 57.1445 55.5008C57.7184 55.5008 58.1814 55.6428 58.5335 55.9268C58.8885 56.2109 59.066 56.5792 59.066 57.0318H57.9876C57.9876 56.8247 57.9107 56.6531 57.7569 56.5171C57.603 56.378 57.3989 56.3085 57.1445 56.3085C56.9078 56.3085 56.714 56.3632 56.5631 56.4727C56.4152 56.5821 56.3413 56.7286 56.3413 56.912C56.3413 57.0777 56.4108 57.2064 56.5498 57.2981C56.6889 57.3898 56.9699 57.483 57.393 57.5776C57.816 57.6694 58.1474 57.7803 58.387 57.9105C58.6296 58.0377 58.8086 58.1915 58.924 58.372C59.0423 58.5525 59.1015 58.7714 59.1015 59.0288C59.1015 59.4607 58.9225 59.8113 58.5645 60.0805C58.2066 60.3467 57.7376 60.4799 57.1578 60.4799C56.7643 60.4799 56.4137 60.4089 56.1061 60.2669C55.7984 60.1249 55.5588 59.9296 55.3872 59.6811C55.2156 59.4326 55.1298 59.1648 55.1298 58.8779H56.1771C56.1919 59.1323 56.288 59.329 56.4655 59.4681C56.643 59.6042 56.8782 59.6722 57.1711 59.6722C57.4551 59.6722 57.6711 59.619 57.819 59.5125C57.9669 59.403 58.0409 59.261 58.0409 59.0864ZM61.3957 54.4225V55.5896H62.2433V56.3884H61.3957V59.0687C61.3957 59.2521 61.4312 59.3852 61.5022 59.4681C61.5762 59.548 61.7064 59.5879 61.8928 59.5879C62.017 59.5879 62.1427 59.5731 62.27 59.5435V60.3778C62.0244 60.4458 61.7877 60.4799 61.5599 60.4799C60.7316 60.4799 60.3174 60.0228 60.3174 59.1086V56.3884H59.5275V55.5896H60.3174V54.4225H61.3957ZM65.9399 60.3911C65.8925 60.2994 65.8511 60.15 65.8156 59.9429C65.4725 60.3009 65.0524 60.4799 64.5553 60.4799C64.0731 60.4799 63.6796 60.3423 63.3749 60.0672C63.0702 59.792 62.9178 59.4518 62.9178 59.0465C62.9178 58.5347 63.1072 58.1427 63.4859 57.8705C63.8675 57.5954 64.4119 57.4578 65.1189 57.4578H65.7801V57.1428C65.7801 56.8943 65.7106 56.696 65.5716 56.5481C65.4325 56.3972 65.221 56.3218 64.937 56.3218C64.6914 56.3218 64.4903 56.3839 64.3335 56.5082C64.1767 56.6295 64.0983 56.7848 64.0983 56.9741H63.0199C63.0199 56.7108 63.1072 56.4653 63.2817 56.2375C63.4563 56.0067 63.693 55.8263 63.9918 55.6961C64.2935 55.5659 64.6293 55.5008 64.9991 55.5008C65.5612 55.5008 66.0094 55.6428 66.3437 55.9268C66.678 56.2079 66.8496 56.6043 66.8585 57.1161V59.2817C66.8585 59.7136 66.9191 60.0583 67.0404 60.3157V60.3911H65.9399ZM64.755 59.6145C64.968 59.6145 65.1677 59.5628 65.3541 59.4592C65.5435 59.3557 65.6855 59.2166 65.7801 59.0421V58.1368H65.1988C64.7994 58.1368 64.4991 58.2063 64.298 58.3454C64.0968 58.4844 63.9962 58.6811 63.9962 58.9356C63.9962 59.1427 64.0642 59.3083 64.2003 59.4326C64.3394 59.5539 64.5243 59.6145 64.755 59.6145ZM69.135 60.3911H68.0566V53.5749H69.135V60.3911ZM71.4603 60.3911H70.382V53.5749H71.4603V60.3911ZM76.1287 57.9903V60.3911H75.006V53.9299H77.4778C78.1996 53.9299 78.7721 54.1178 79.1951 54.4935C79.6211 54.8692 79.8341 55.3662 79.8341 55.9845C79.8341 56.6176 79.6256 57.1102 79.2084 57.4623C78.7943 57.8143 78.2129 57.9903 77.4644 57.9903H76.1287ZM76.1287 57.0895H77.4778C77.8771 57.0895 78.1819 56.9963 78.3919 56.8099C78.602 56.6206 78.707 56.3484 78.707 55.9934C78.707 55.6443 78.6005 55.3662 78.3875 55.1591C78.1745 54.9491 77.8816 54.8411 77.5088 54.8352H76.1287V57.0895ZM85.8871 58.7936L86.8811 53.9299H87.995L86.5039 60.3911H85.43L84.2008 55.6739L82.9449 60.3911H81.8666L80.3755 53.9299H81.4894L82.4923 58.7847L83.726 53.9299H84.6667L85.8871 58.7936ZM92.2374 58.8868H89.7345L89.2109 60.3911H88.0438L90.4845 53.9299H91.4918L93.937 60.3911H92.7654L92.2374 58.8868ZM90.0496 57.9815H91.9223L90.9859 55.3011L90.0496 57.9815Z" fill="black"/>
<path d="M48.3174 70.5678V72.3745H47.7088V67.7594H49.4109C49.916 67.7594 50.3111 67.8883 50.5964 68.1461C50.8838 68.4039 51.0275 68.7452 51.0275 69.1699C51.0275 69.6179 50.887 69.9634 50.6059 70.2064C50.327 70.4473 49.9265 70.5678 49.4046 70.5678H48.3174ZM48.3174 70.0701H49.4109C49.7364 70.0701 49.9857 69.994 50.159 69.8419C50.3323 69.6876 50.4189 69.4657 50.4189 69.1762C50.4189 68.9015 50.3323 68.6818 50.159 68.5169C49.9857 68.3521 49.748 68.2665 49.4458 68.2602H48.3174V70.0701ZM53.8296 72.0353C53.6013 72.3037 53.2664 72.4379 52.8247 72.4379C52.4592 72.4379 52.1802 72.3322 51.9879 72.1209C51.7978 71.9075 51.7016 71.5926 51.6995 71.1763V68.9448H52.2859V71.1605C52.2859 71.6803 52.4972 71.9403 52.9198 71.9403C53.3678 71.9403 53.6658 71.7733 53.8137 71.4394V68.9448H54.4001V72.3745H53.8422L53.8296 72.0353ZM58.1975 70.6977C58.1975 71.2218 58.077 71.6434 57.8361 71.9624C57.5952 72.2794 57.2719 72.4379 56.8662 72.4379C56.433 72.4379 56.098 72.2847 55.8614 71.9783L55.8328 72.3745H55.294V67.5058H55.8804V69.322C56.1171 69.0283 56.4435 68.8815 56.8598 68.8815C57.2761 68.8815 57.6026 69.0389 57.8393 69.3537C58.0781 69.6686 58.1975 70.0997 58.1975 70.647V70.6977ZM57.6111 70.6312C57.6111 70.2318 57.5339 69.9232 57.3797 69.7056C57.2254 69.4879 57.0035 69.3791 56.714 69.3791C56.3273 69.3791 56.0494 69.5587 55.8804 69.918V71.4014C56.06 71.7606 56.34 71.9403 56.7204 71.9403C57.0014 71.9403 57.2201 71.8314 57.3765 71.6138C57.5329 71.3961 57.6111 71.0686 57.6111 70.6312ZM59.5763 72.3745H58.9899V67.5058H59.5763V72.3745ZM61.1548 72.3745H60.5684V68.9448H61.1548V72.3745ZM60.5209 68.0351C60.5209 67.94 60.5494 67.8597 60.6065 67.7942C60.6656 67.7287 60.7523 67.696 60.8664 67.696C60.9805 67.696 61.0671 67.7287 61.1263 67.7942C61.1855 67.8597 61.2151 67.94 61.2151 68.0351C61.2151 68.1302 61.1855 68.2095 61.1263 68.2729C61.0671 68.3363 60.9805 68.368 60.8664 68.368C60.7523 68.368 60.6656 68.3363 60.6065 68.2729C60.5494 68.2095 60.5209 68.1302 60.5209 68.0351ZM64.0932 71.4648C64.0932 71.3063 64.033 71.1837 63.9125 71.0971C63.7942 71.0084 63.586 70.9323 63.2881 70.8689C62.9922 70.8055 62.7566 70.7294 62.5812 70.6407C62.4079 70.5519 62.279 70.4463 62.1945 70.3237C62.1121 70.2011 62.0709 70.0553 62.0709 69.8863C62.0709 69.6052 62.1892 69.3675 62.4259 69.1731C62.6647 68.9787 62.969 68.8815 63.3388 68.8815C63.7276 68.8815 64.0425 68.9818 64.2834 69.1826C64.5264 69.3833 64.6479 69.6401 64.6479 69.9528H64.0583C64.0583 69.7922 63.9896 69.6538 63.8523 69.5376C63.717 69.4214 63.5459 69.3633 63.3388 69.3633C63.1254 69.3633 62.9584 69.4097 62.838 69.5027C62.7175 69.5957 62.6573 69.7172 62.6573 69.8672C62.6573 70.0088 62.7133 70.1155 62.8253 70.1874C62.9373 70.2592 63.1391 70.3279 63.4307 70.3934C63.7244 70.4589 63.9622 70.5371 64.1439 70.628C64.3256 70.7188 64.4598 70.8287 64.5465 70.9576C64.6352 71.0844 64.6796 71.2397 64.6796 71.4236C64.6796 71.73 64.557 71.9762 64.3119 72.1621C64.0668 72.346 63.7487 72.4379 63.3578 72.4379C63.0831 72.4379 62.8401 72.3893 62.6288 72.2921C62.4175 72.1949 62.2516 72.0597 62.1311 71.8864C62.0128 71.711 61.9536 71.5219 61.9536 71.319H62.54C62.5506 71.5155 62.6288 71.6719 62.7746 71.7881C62.9225 71.9022 63.1169 71.9593 63.3578 71.9593C63.5797 71.9593 63.7572 71.9149 63.8903 71.8261C64.0256 71.7353 64.0932 71.6148 64.0932 71.4648ZM66.0299 69.3601C66.2898 69.041 66.6279 68.8815 67.0442 68.8815C67.769 68.8815 68.1346 69.2904 68.141 70.1081V72.3745H67.5546V70.105C67.5524 69.8577 67.4954 69.6749 67.3834 69.5566C67.2735 69.4383 67.1013 69.3791 66.8667 69.3791C66.6765 69.3791 66.5096 69.4298 66.3659 69.5313C66.2222 69.6327 66.1102 69.7658 66.0299 69.9306V72.3745H65.4435V67.5058H66.0299V69.3601ZM70.4422 72.4379C69.9773 72.4379 69.599 72.2858 69.3074 71.9815C69.0158 71.6751 68.87 71.2662 68.87 70.7548V70.647C68.87 70.3068 68.9344 70.0035 69.0633 69.7373C69.1944 69.4689 69.3761 69.2597 69.6085 69.1097C69.8431 68.9575 70.0967 68.8815 70.3693 68.8815C70.8152 68.8815 71.1617 69.0283 71.409 69.322C71.6562 69.6158 71.7798 70.0363 71.7798 70.5836V70.8277H69.4564C69.4648 71.1658 69.5631 71.4394 69.7512 71.6486C69.9414 71.8557 70.1823 71.9593 70.4739 71.9593C70.681 71.9593 70.8564 71.917 71.0001 71.8325C71.1438 71.748 71.2695 71.636 71.3773 71.4965L71.7354 71.7754C71.4481 72.2171 71.017 72.4379 70.4422 72.4379ZM70.3693 69.3633C70.1326 69.3633 69.934 69.4499 69.7734 69.6232C69.6128 69.7943 69.5135 70.0352 69.4754 70.3459H71.1934V70.3015C71.1765 70.0035 71.0962 69.7732 70.9525 69.6105C70.8088 69.4457 70.6144 69.3633 70.3693 69.3633ZM74.1191 69.471C74.0303 69.4562 73.9342 69.4488 73.8306 69.4488C73.446 69.4488 73.1851 69.6126 73.0477 69.9401V72.3745H72.4613V68.9448H73.0319L73.0414 69.3411C73.2337 69.0347 73.5063 68.8815 73.8592 68.8815C73.9733 68.8815 74.0599 68.8962 74.1191 68.9258V69.471ZM74.6421 72.067C74.6421 71.9656 74.6717 71.8811 74.7309 71.8135C74.7921 71.7458 74.883 71.712 75.0034 71.712C75.1239 71.712 75.2148 71.7458 75.276 71.8135C75.3394 71.8811 75.3711 71.9656 75.3711 72.067C75.3711 72.1643 75.3394 72.2456 75.276 72.3111C75.2148 72.3766 75.1239 72.4094 75.0034 72.4094C74.883 72.4094 74.7921 72.3766 74.7309 72.3111C74.6717 72.2456 74.6421 72.1643 74.6421 72.067ZM74.6453 69.2682C74.6453 69.1667 74.6749 69.0822 74.734 69.0146C74.7953 68.947 74.8862 68.9132 75.0066 68.9132C75.1271 68.9132 75.2179 68.947 75.2792 69.0146C75.3426 69.0822 75.3743 69.1667 75.3743 69.2682C75.3743 69.3654 75.3426 69.4467 75.2792 69.5122C75.2179 69.5777 75.1271 69.6105 75.0066 69.6105C74.8862 69.6105 74.7953 69.5777 74.734 69.5122C74.6749 69.4467 74.6453 69.3654 74.6453 69.2682ZM80.8802 71.5662L81.5395 68.9448H82.1259L81.1274 72.3745H80.6519L79.8183 69.7753L79.0068 72.3745H78.5314L77.5361 68.9448H78.1193L78.7945 71.5123L79.5932 68.9448H80.0655L80.8802 71.5662ZM85.7616 71.5662L86.4209 68.9448H87.0073L86.0088 72.3745H85.5333L84.6997 69.7753L83.8882 72.3745H83.4128L82.4175 68.9448H83.0007L83.6759 71.5123L84.4746 68.9448H84.9469L85.7616 71.5662ZM90.643 71.5662L91.3023 68.9448H91.8887L90.8902 72.3745H90.4147L89.5811 69.7753L88.7696 72.3745H88.2942L87.2989 68.9448H87.8821L88.5573 71.5123L89.356 68.9448H89.8283L90.643 71.5662ZM92.1074 72.067C92.1074 71.9656 92.137 71.8811 92.1961 71.8135C92.2574 71.7458 92.3483 71.712 92.4687 71.712C92.5892 71.712 92.6801 71.7458 92.7413 71.8135C92.8047 71.8811 92.8364 71.9656 92.8364 72.067C92.8364 72.1643 92.8047 72.2456 92.7413 72.3111C92.6801 72.3766 92.5892 72.4094 92.4687 72.4094C92.3483 72.4094 92.2574 72.3766 92.1961 72.3111C92.137 72.2456 92.1074 72.1643 92.1074 72.067ZM94.9285 71.5155L95.7272 68.9448H96.3548L94.976 72.9039C94.7626 73.4744 94.4234 73.7597 93.9585 73.7597L93.8476 73.7502L93.6289 73.709V73.2335L93.7874 73.2462C93.986 73.2462 94.1402 73.206 94.2501 73.1257C94.3621 73.0454 94.4541 72.8986 94.5259 72.6851L94.6559 72.3365L93.4323 68.9448H94.0726L94.9285 71.5155ZM96.675 70.628C96.675 70.292 96.7405 69.9898 96.8715 69.7214C97.0046 69.4531 97.1885 69.246 97.423 69.1002C97.6597 68.9544 97.9292 68.8815 98.2313 68.8815C98.6983 68.8815 99.0755 69.0431 99.3629 69.3664C99.6524 69.6897 99.7972 70.1198 99.7972 70.6565V70.6977C99.7972 71.0316 99.7327 71.3317 99.6038 71.5979C99.477 71.8621 99.2943 72.0681 99.0555 72.216C98.8188 72.3639 98.5462 72.4379 98.2377 72.4379C97.7728 72.4379 97.3956 72.2762 97.1061 71.9529C96.8187 71.6296 96.675 71.2017 96.675 70.6692V70.628ZM97.2646 70.6977C97.2646 71.0781 97.3523 71.3834 97.5277 71.6138C97.7052 71.8441 97.9418 71.9593 98.2377 71.9593C98.5356 71.9593 98.7723 71.8431 98.9477 71.6106C99.1231 71.376 99.2108 71.0485 99.2108 70.628C99.2108 70.2518 99.121 69.9475 98.9414 69.7151C98.7639 69.4805 98.5272 69.3633 98.2313 69.3633C97.9418 69.3633 97.7083 69.4784 97.5308 69.7088C97.3533 69.9391 97.2646 70.2687 97.2646 70.6977ZM102.65 72.0353C102.422 72.3037 102.087 72.4379 101.645 72.4379C101.28 72.4379 101.001 72.3322 100.808 72.1209C100.618 71.9075 100.522 71.5926 100.52 71.1763V68.9448H101.106V71.1605C101.106 71.6803 101.318 71.9403 101.74 71.9403C102.188 71.9403 102.486 71.7733 102.634 71.4394V68.9448H103.221V72.3745H102.663L102.65 72.0353ZM105.772 69.471C105.683 69.4562 105.587 69.4488 105.484 69.4488C105.099 69.4488 104.838 69.6126 104.701 69.9401V72.3745H104.114V68.9448H104.685L104.694 69.3411C104.887 69.0347 105.159 68.8815 105.512 68.8815C105.626 68.8815 105.713 68.8962 105.772 68.9258V69.471ZM108.305 72.3745C108.271 72.3069 108.243 72.1864 108.222 72.0132C107.95 72.2963 107.624 72.4379 107.246 72.4379C106.908 72.4379 106.63 72.3428 106.412 72.1526C106.197 71.9603 106.089 71.7173 106.089 71.4236C106.089 71.0665 106.224 70.7896 106.495 70.5931C106.767 70.3945 107.15 70.2952 107.642 70.2952H108.213V70.0257C108.213 69.8208 108.152 69.658 108.029 69.5376C107.906 69.415 107.726 69.3537 107.487 69.3537C107.278 69.3537 107.102 69.4066 106.961 69.5122C106.819 69.6179 106.748 69.7457 106.748 69.8958H106.159C106.159 69.7246 106.219 69.5598 106.34 69.4013C106.462 69.2407 106.627 69.1139 106.834 69.0209C107.043 68.9279 107.272 68.8815 107.522 68.8815C107.917 68.8815 108.227 68.9808 108.451 69.1794C108.675 69.3759 108.791 69.6475 108.799 69.994V71.5726C108.799 71.8874 108.839 72.1378 108.92 72.3238V72.3745H108.305ZM107.332 71.9276C107.516 71.9276 107.69 71.88 107.855 71.7849C108.02 71.6898 108.139 71.5662 108.213 71.4141V70.7104H107.753C107.035 70.7104 106.676 70.9207 106.676 71.3412C106.676 71.525 106.737 71.6687 106.859 71.7723C106.982 71.8758 107.139 71.9276 107.332 71.9276ZM112.616 70.6977C112.616 71.2197 112.496 71.6402 112.257 71.9593C112.019 72.2784 111.695 72.4379 111.288 72.4379C110.871 72.4379 110.544 72.3058 110.305 72.0417V73.6931H109.718V68.9448H110.254L110.283 69.3252C110.521 69.0294 110.853 68.8815 111.278 68.8815C111.69 68.8815 112.015 69.0368 112.254 69.3474C112.495 69.658 112.616 70.0902 112.616 70.6438V70.6977ZM112.029 70.6312C112.029 70.2444 111.947 69.9391 111.782 69.7151C111.617 69.4911 111.391 69.3791 111.104 69.3791C110.749 69.3791 110.482 69.5365 110.305 69.8514V71.4902C110.48 71.8029 110.749 71.9593 111.11 71.9593C111.391 71.9593 111.614 71.8483 111.779 71.6265C111.946 71.4025 112.029 71.0707 112.029 70.6312ZM116.261 70.6977C116.261 71.2197 116.141 71.6402 115.903 71.9593C115.664 72.2784 115.341 72.4379 114.933 72.4379C114.516 72.4379 114.189 72.3058 113.95 72.0417V73.6931H113.364V68.9448H113.899L113.928 69.3252C114.167 69.0294 114.498 68.8815 114.923 68.8815C115.335 68.8815 115.661 69.0368 115.899 69.3474C116.14 69.658 116.261 70.0902 116.261 70.6438V70.6977ZM115.674 70.6312C115.674 70.2444 115.592 69.9391 115.427 69.7151C115.262 69.4911 115.036 69.3791 114.749 69.3791C114.394 69.3791 114.128 69.5365 113.95 69.8514V71.4902C114.125 71.8029 114.394 71.9593 114.755 71.9593C115.036 71.9593 115.259 71.8483 115.424 71.6265C115.591 71.4025 115.674 71.0707 115.674 70.6312ZM117.022 72.067C117.022 71.9656 117.051 71.8811 117.11 71.8135C117.172 71.7458 117.262 71.712 117.383 71.712C117.503 71.712 117.594 71.7458 117.656 71.8135C117.719 71.8811 117.751 71.9656 117.751 72.067C117.751 72.1643 117.719 72.2456 117.656 72.3111C117.594 72.3766 117.503 72.4094 117.383 72.4094C117.262 72.4094 117.172 72.3766 117.11 72.3111C117.051 72.2456 117.022 72.1643 117.022 72.067ZM120.096 71.9593C120.305 71.9593 120.488 71.8959 120.645 71.7691C120.801 71.6423 120.888 71.4838 120.905 71.2936H121.459C121.449 71.4902 121.381 71.6772 121.256 71.8547C121.132 72.0322 120.965 72.1738 120.756 72.2794C120.548 72.3851 120.329 72.4379 120.096 72.4379C119.629 72.4379 119.257 72.2826 118.98 71.972C118.706 71.6592 118.568 71.2323 118.568 70.6914V70.5931C118.568 70.2592 118.63 69.9623 118.752 69.7024C118.875 69.4425 119.05 69.2407 119.278 69.097C119.509 68.9533 119.78 68.8815 120.093 68.8815C120.478 68.8815 120.797 68.9966 121.05 69.227C121.306 69.4573 121.442 69.7563 121.459 70.124H120.905C120.888 69.9021 120.803 69.7204 120.651 69.5788C120.501 69.4351 120.315 69.3633 120.093 69.3633C119.795 69.3633 119.564 69.471 119.399 69.6866C119.236 69.9 119.155 70.2096 119.155 70.6153V70.7262C119.155 71.1214 119.236 71.4257 119.399 71.6391C119.562 71.8526 119.794 71.9593 120.096 71.9593ZM121.963 70.628C121.963 70.292 122.029 69.9898 122.16 69.7214C122.293 69.4531 122.477 69.246 122.711 69.1002C122.948 68.9544 123.217 68.8815 123.52 68.8815C123.987 68.8815 124.364 69.0431 124.651 69.3664C124.941 69.6897 125.085 70.1198 125.085 70.6565V70.6977C125.085 71.0316 125.021 71.3317 124.892 71.5979C124.765 71.8621 124.582 72.0681 124.344 72.216C124.107 72.3639 123.834 72.4379 123.526 72.4379C123.061 72.4379 122.684 72.2762 122.394 71.9529C122.107 71.6296 121.963 71.2017 121.963 70.6692V70.628ZM122.553 70.6977C122.553 71.0781 122.64 71.3834 122.816 71.6138C122.993 71.8441 123.23 71.9593 123.526 71.9593C123.824 71.9593 124.061 71.8431 124.236 71.6106C124.411 71.376 124.499 71.0485 124.499 70.628C124.499 70.2518 124.409 69.9475 124.23 69.7151C124.052 69.4805 123.815 69.3633 123.52 69.3633C123.23 69.3633 122.997 69.4784 122.819 69.7088C122.642 69.9391 122.553 70.2687 122.553 70.6977ZM126.372 68.9448L126.388 69.3252C126.64 69.0294 126.979 68.8815 127.406 68.8815C127.885 68.8815 128.212 69.0653 128.385 69.433C128.499 69.2682 128.647 69.135 128.829 69.0336C129.013 68.9322 129.229 68.8815 129.479 68.8815C130.231 68.8815 130.613 69.2798 130.626 70.0764V72.3745H130.04V70.1113C130.04 69.8662 129.984 69.6834 129.872 69.5629C129.76 69.4404 129.572 69.3791 129.308 69.3791C129.09 69.3791 128.909 69.4446 128.765 69.5756C128.622 69.7045 128.538 69.8789 128.515 70.0986V72.3745H127.925V70.1272C127.925 69.6285 127.681 69.3791 127.193 69.3791C126.809 69.3791 126.546 69.5429 126.404 69.8704V72.3745H125.818V68.9448H126.372Z" fill="black"/>
<path d="M50.8975 81.3847H49.4141V85.499H48.8087V81.3847H47.3284V80.8839H50.8975V81.3847ZM52.0767 82.4846C52.3366 82.1655 52.6747 82.006 53.091 82.006C53.8158 82.006 54.1814 82.4149 54.1877 83.2327V85.499H53.6013V83.2295C53.5992 82.9822 53.5422 82.7995 53.4302 82.6811C53.3203 82.5628 53.1481 82.5036 52.9135 82.5036C52.7233 82.5036 52.5564 82.5543 52.4127 82.6558C52.269 82.7572 52.157 82.8903 52.0767 83.0552V85.499H51.4903V80.6303H52.0767V82.4846ZM55.7029 85.499H55.1165V82.0694H55.7029V85.499ZM55.0689 81.1596C55.0689 81.0646 55.0975 80.9843 55.1545 80.9187C55.2137 80.8532 55.3003 80.8205 55.4144 80.8205C55.5285 80.8205 55.6152 80.8532 55.6743 80.9187C55.7335 80.9843 55.7631 81.0646 55.7631 81.1596C55.7631 81.2547 55.7335 81.334 55.6743 81.3974C55.6152 81.4608 55.5285 81.4925 55.4144 81.4925C55.3003 81.4925 55.2137 81.4608 55.1545 81.3974C55.0975 81.334 55.0689 81.2547 55.0689 81.1596ZM58.6412 84.5893C58.6412 84.4308 58.581 84.3083 58.4606 84.2216C58.3422 84.1329 58.1341 84.0568 57.8361 83.9934C57.5403 83.93 57.3047 83.8539 57.1293 83.7652C56.956 83.6764 56.8271 83.5708 56.7426 83.4482C56.6601 83.3256 56.6189 83.1798 56.6189 83.0108C56.6189 82.7297 56.7373 82.492 56.9739 82.2976C57.2127 82.1032 57.517 82.006 57.8868 82.006C58.2757 82.006 58.5905 82.1063 58.8314 82.3071C59.0744 82.5078 59.1959 82.7646 59.1959 83.0773H58.6064C58.6064 82.9167 58.5377 82.7783 58.4003 82.6621C58.2651 82.5459 58.0939 82.4878 57.8868 82.4878C57.6734 82.4878 57.5065 82.5343 57.386 82.6272C57.2656 82.7202 57.2053 82.8417 57.2053 82.9918C57.2053 83.1333 57.2613 83.2401 57.3733 83.3119C57.4853 83.3837 57.6871 83.4524 57.9788 83.5179C58.2725 83.5834 58.5102 83.6616 58.6919 83.7525C58.8737 83.8434 59.0079 83.9532 59.0945 84.0821C59.1833 84.2089 59.2276 84.3643 59.2276 84.5481C59.2276 84.8545 59.1051 85.1007 58.8599 85.2867C58.6148 85.4705 58.2968 85.5624 57.9058 85.5624C57.6311 85.5624 57.3881 85.5138 57.1768 85.4166C56.9655 85.3194 56.7996 85.1842 56.6792 85.0109C56.5608 84.8355 56.5017 84.6464 56.5017 84.4435H57.0881C57.0986 84.64 57.1768 84.7964 57.3226 84.9126C57.4705 85.0267 57.6649 85.0838 57.9058 85.0838C58.1277 85.0838 58.3052 85.0394 58.4384 84.9507C58.5736 84.8598 58.6412 84.7393 58.6412 84.5893ZM63.5987 84.5893C63.5987 84.4308 63.5385 84.3083 63.418 84.2216C63.2997 84.1329 63.0916 84.0568 62.7936 83.9934C62.4978 83.93 62.2621 83.8539 62.0867 83.7652C61.9135 83.6764 61.7846 83.5708 61.7 83.4482C61.6176 83.3256 61.5764 83.1798 61.5764 83.0108C61.5764 82.7297 61.6947 82.492 61.9314 82.2976C62.1702 82.1032 62.4745 82.006 62.8443 82.006C63.2331 82.006 63.548 82.1063 63.7889 82.3071C64.0319 82.5078 64.1534 82.7646 64.1534 83.0773H63.5638C63.5638 82.9167 63.4952 82.7783 63.3578 82.6621C63.2226 82.5459 63.0514 82.4878 62.8443 82.4878C62.6309 82.4878 62.4639 82.5343 62.3435 82.6272C62.223 82.7202 62.1628 82.8417 62.1628 82.9918C62.1628 83.1333 62.2188 83.2401 62.3308 83.3119C62.4428 83.3837 62.6446 83.4524 62.9362 83.5179C63.23 83.5834 63.4677 83.6616 63.6494 83.7525C63.8312 83.8434 63.9653 83.9532 64.052 84.0821C64.1407 84.2089 64.1851 84.3643 64.1851 84.5481C64.1851 84.8545 64.0625 85.1007 63.8174 85.2867C63.5723 85.4705 63.2543 85.5624 62.8633 85.5624C62.5886 85.5624 62.3456 85.5138 62.1343 85.4166C61.923 85.3194 61.7571 85.1842 61.6366 85.0109C61.5183 84.8355 61.4591 84.6464 61.4591 84.4435H62.0455C62.0561 84.64 62.1343 84.7964 62.2801 84.9126C62.428 85.0267 62.6224 85.0838 62.8633 85.0838C63.0852 85.0838 63.2627 85.0394 63.3958 84.9507C63.5311 84.8598 63.5987 84.7393 63.5987 84.5893ZM65.5861 85.499H64.9997V82.0694H65.5861V85.499ZM64.9522 81.1596C64.9522 81.0646 64.9807 80.9843 65.0378 80.9187C65.0969 80.8532 65.1836 80.8205 65.2977 80.8205C65.4118 80.8205 65.4984 80.8532 65.5576 80.9187C65.6168 80.9843 65.6464 81.0646 65.6464 81.1596C65.6464 81.2547 65.6168 81.334 65.5576 81.3974C65.4984 81.4608 65.4118 81.4925 65.2977 81.4925C65.1836 81.4925 65.0969 81.4608 65.0378 81.3974C64.9807 81.334 64.9522 81.2547 64.9522 81.1596ZM67.3232 81.2389V82.0694H67.9634V82.5226H67.3232V84.6495C67.3232 84.7869 67.3517 84.8904 67.4087 84.9602C67.4658 85.0278 67.563 85.0616 67.7004 85.0616C67.768 85.0616 67.861 85.0489 67.9793 85.0236V85.499C67.825 85.5413 67.675 85.5624 67.5292 85.5624C67.2672 85.5624 67.0696 85.4832 66.9364 85.3247C66.8033 85.1662 66.7368 84.9411 66.7368 84.6495V82.5226H66.1123V82.0694H66.7368V81.2389H67.3232ZM70.0745 85.5624C69.6096 85.5624 69.2313 85.4103 68.9397 85.106C68.6481 84.7996 68.5023 84.3907 68.5023 83.8793V83.7715C68.5023 83.4313 68.5668 83.1281 68.6957 82.8618C68.8267 82.5934 69.0084 82.3842 69.2409 82.2342C69.4754 82.082 69.729 82.006 70.0016 82.006C70.4475 82.006 70.794 82.1528 71.0413 82.4466C71.2885 82.7403 71.4121 83.1608 71.4121 83.7081V83.9522H69.0887C69.0972 84.2903 69.1954 84.5639 69.3835 84.7732C69.5737 84.9802 69.8146 85.0838 70.1062 85.0838C70.3133 85.0838 70.4887 85.0415 70.6324 84.957C70.7761 84.8725 70.9018 84.7605 71.0096 84.621L71.3678 84.8999C71.0804 85.3416 70.6493 85.5624 70.0745 85.5624ZM70.0016 82.4878C69.7649 82.4878 69.5663 82.5744 69.4057 82.7477C69.2451 82.9189 69.1458 83.1598 69.1077 83.4704H70.8257V83.426C70.8088 83.1281 70.7285 82.8977 70.5848 82.735C70.4411 82.5702 70.2467 82.4878 70.0016 82.4878ZM75.0795 85.0838C75.2887 85.0838 75.4715 85.0204 75.6279 84.8936C75.7843 84.7668 75.8709 84.6083 75.8878 84.4181H76.4425C76.4319 84.6147 76.3643 84.8017 76.2396 84.9792C76.115 85.1567 75.948 85.2983 75.7388 85.4039C75.5317 85.5096 75.312 85.5624 75.0795 85.5624C74.6125 85.5624 74.2406 85.4071 73.9638 85.0965C73.6891 84.7837 73.5517 84.3569 73.5517 83.8159V83.7176C73.5517 83.3837 73.613 83.0868 73.7356 82.8269C73.8581 82.567 74.0335 82.3652 74.2617 82.2215C74.4921 82.0778 74.7636 82.006 75.0764 82.006C75.4609 82.006 75.78 82.1211 76.0336 82.3515C76.2893 82.5818 76.4256 82.8808 76.4425 83.2485H75.8878C75.8709 83.0266 75.7864 82.8449 75.6342 82.7033C75.4842 82.5596 75.2982 82.4878 75.0764 82.4878C74.7784 82.4878 74.547 82.5955 74.3822 82.8111C74.2195 83.0245 74.1381 83.3341 74.1381 83.7398V83.8508C74.1381 84.2459 74.2195 84.5502 74.3822 84.7636C74.5449 84.9771 74.7773 85.0838 75.0795 85.0838ZM79.2192 85.499C79.1854 85.4314 79.1579 85.311 79.1368 85.1377C78.8642 85.4208 78.5388 85.5624 78.1605 85.5624C77.8224 85.5624 77.5445 85.4673 77.3269 85.2771C77.1113 85.0848 77.0036 84.8418 77.0036 84.5481C77.0036 84.191 77.1388 83.9142 77.4093 83.7176C77.6819 83.519 78.0644 83.4197 78.5567 83.4197H79.1273V83.1502C79.1273 82.9453 79.066 82.7826 78.9434 82.6621C78.8209 82.5395 78.6402 82.4783 78.4014 82.4783C78.1922 82.4783 78.0168 82.5311 77.8752 82.6367C77.7337 82.7424 77.6629 82.8702 77.6629 83.0203H77.0733C77.0733 82.8491 77.1335 82.6843 77.254 82.5258C77.3765 82.3652 77.5414 82.2384 77.7484 82.1454C77.9576 82.0525 78.1869 82.006 78.4363 82.006C78.8314 82.006 79.141 82.1053 79.365 82.3039C79.589 82.5004 79.7052 82.772 79.7137 83.1185V84.6971C79.7137 85.0119 79.7538 85.2623 79.8341 85.4483V85.499H79.2192ZM78.2461 85.0521C78.4299 85.0521 78.6043 85.0045 78.7691 84.9095C78.9339 84.8144 79.0533 84.6907 79.1273 84.5386V83.8349H78.6677C77.9492 83.8349 77.59 84.0452 77.59 84.4657C77.59 84.6495 77.6512 84.7932 77.7738 84.8968C77.8964 85.0003 78.0538 85.0521 78.2461 85.0521ZM81.1876 82.0694L81.2066 82.5004C81.4687 82.1708 81.811 82.006 82.2336 82.006C82.9584 82.006 83.324 82.4149 83.3304 83.2327V85.499H82.744V83.2295C82.7418 82.9822 82.6848 82.7995 82.5728 82.6811C82.4629 82.5628 82.2907 82.5036 82.0561 82.5036C81.8659 82.5036 81.699 82.5543 81.5553 82.6558C81.4116 82.7572 81.2996 82.8903 81.2193 83.0552V85.499H80.6329V82.0694H81.1876ZM88.7284 83.8222C88.7284 84.3463 88.608 84.7679 88.3671 85.087C88.1262 85.4039 87.8029 85.5624 87.3971 85.5624C86.964 85.5624 86.629 85.4092 86.3923 85.1028L86.3638 85.499H85.825V80.6303H86.4114V82.4466C86.648 82.1528 86.9745 82.006 87.3908 82.006C87.8071 82.006 88.1336 82.1634 88.3703 82.4783C88.609 82.7931 88.7284 83.2242 88.7284 83.7715V83.8222ZM88.142 83.7557C88.142 83.3563 88.0649 83.0478 87.9106 82.8301C87.7564 82.6124 87.5345 82.5036 87.245 82.5036C86.8583 82.5036 86.5804 82.6832 86.4114 83.0425V84.5259C86.591 84.8851 86.871 85.0648 87.2513 85.0648C87.5324 85.0648 87.7511 84.9559 87.9075 84.7383C88.0639 84.5206 88.142 84.1931 88.142 83.7557ZM90.8934 85.5624C90.4285 85.5624 90.0502 85.4103 89.7586 85.106C89.467 84.7996 89.3212 84.3907 89.3212 83.8793V83.7715C89.3212 83.4313 89.3856 83.1281 89.5145 82.8618C89.6456 82.5934 89.8273 82.3842 90.0597 82.2342C90.2943 82.082 90.5479 82.006 90.8205 82.006C91.2664 82.006 91.6129 82.1528 91.8601 82.4466C92.1074 82.7403 92.231 83.1608 92.231 83.7081V83.9522H89.9076C89.916 84.2903 90.0143 84.5639 90.2024 84.7732C90.3926 84.9802 90.6335 85.0838 90.9251 85.0838C91.1322 85.0838 91.3076 85.0415 91.4513 84.957C91.5949 84.8725 91.7207 84.7605 91.8285 84.621L92.1866 84.8999C91.8992 85.3416 91.4682 85.5624 90.8934 85.5624ZM90.8205 82.4878C90.5838 82.4878 90.3852 82.5744 90.2246 82.7477C90.064 82.9189 89.9646 83.1598 89.9266 83.4704H91.6446V83.426C91.6277 83.1281 91.5474 82.8977 91.4037 82.735C91.26 82.5702 91.0656 82.4878 90.8205 82.4878ZM95.1599 85.499H94.5734V82.0694H95.1599V85.499ZM94.5259 81.1596C94.5259 81.0646 94.5544 80.9843 94.6115 80.9187C94.6707 80.8532 94.7573 80.8205 94.8714 80.8205C94.9855 80.8205 95.0722 80.8532 95.1313 80.9187C95.1905 80.9843 95.2201 81.0646 95.2201 81.1596C95.2201 81.2547 95.1905 81.334 95.1313 81.3974C95.0722 81.4608 94.9855 81.4925 94.8714 81.4925C94.7573 81.4925 94.6707 81.4608 94.6115 81.3974C94.5544 81.334 94.5259 81.2547 94.5259 81.1596ZM96.656 82.0694L96.675 82.5004C96.937 82.1708 97.2794 82.006 97.702 82.006C98.4268 82.006 98.7924 82.4149 98.7987 83.2327V85.499H98.2123V83.2295C98.2102 82.9822 98.1531 82.7995 98.0411 82.6811C97.9313 82.5628 97.759 82.5036 97.5245 82.5036C97.3343 82.5036 97.1674 82.5543 97.0237 82.6558C96.88 82.7572 96.768 82.8903 96.6877 83.0552V85.499H96.1013V82.0694H96.656ZM101.68 84.5893C101.68 84.4308 101.62 84.3083 101.499 84.2216C101.381 84.1329 101.173 84.0568 100.875 83.9934C100.579 83.93 100.343 83.8539 100.168 83.7652C99.9948 83.6764 99.8659 83.5708 99.7813 83.4482C99.6989 83.3256 99.6577 83.1798 99.6577 83.0108C99.6577 82.7297 99.7761 82.492 100.013 82.2976C100.252 82.1032 100.556 82.006 100.926 82.006C101.314 82.006 101.629 82.1063 101.87 82.3071C102.113 82.5078 102.235 82.7646 102.235 83.0773H101.645C101.645 82.9167 101.576 82.7783 101.439 82.6621C101.304 82.5459 101.133 82.4878 100.926 82.4878C100.712 82.4878 100.545 82.5343 100.425 82.6272C100.304 82.7202 100.244 82.8417 100.244 82.9918C100.244 83.1333 100.3 83.2401 100.412 83.3119C100.524 83.3837 100.726 83.4524 101.018 83.5179C101.311 83.5834 101.549 83.6616 101.731 83.7525C101.912 83.8434 102.047 83.9532 102.133 84.0821C102.222 84.2089 102.266 84.3643 102.266 84.5481C102.266 84.8545 102.144 85.1007 101.899 85.2867C101.654 85.4705 101.336 85.5624 100.945 85.5624C100.67 85.5624 100.427 85.5138 100.216 85.4166C100.004 85.3194 99.8384 85.1842 99.7179 85.0109C99.5996 84.8355 99.5404 84.6464 99.5404 84.4435H100.127C100.137 84.64 100.216 84.7964 100.361 84.9126C100.509 85.0267 100.704 85.0838 100.945 85.0838C101.167 85.0838 101.344 85.0394 101.477 84.9507C101.612 84.8598 101.68 84.7393 101.68 84.5893ZM103.826 81.2389V82.0694H104.466V82.5226H103.826V84.6495C103.826 84.7869 103.854 84.8904 103.912 84.9602C103.969 85.0278 104.066 85.0616 104.203 85.0616C104.271 85.0616 104.364 85.0489 104.482 85.0236V85.499C104.328 85.5413 104.178 85.5624 104.032 85.5624C103.77 85.5624 103.572 85.4832 103.439 85.3247C103.306 85.1662 103.24 84.9411 103.24 84.6495V82.5226H102.615V82.0694H103.24V81.2389H103.826ZM107.271 85.499C107.238 85.4314 107.21 85.311 107.189 85.1377C106.916 85.4208 106.591 85.5624 106.213 85.5624C105.875 85.5624 105.597 85.4673 105.379 85.2771C105.164 85.0848 105.056 84.8418 105.056 84.5481C105.056 84.191 105.191 83.9142 105.462 83.7176C105.734 83.519 106.117 83.4197 106.609 83.4197H107.18V83.1502C107.18 82.9453 107.118 82.7826 106.996 82.6621C106.873 82.5395 106.692 82.4783 106.454 82.4783C106.244 82.4783 106.069 82.5311 105.927 82.6367C105.786 82.7424 105.715 82.8702 105.715 83.0203H105.126C105.126 82.8491 105.186 82.6843 105.306 82.5258C105.429 82.3652 105.594 82.2384 105.801 82.1454C106.01 82.0525 106.239 82.006 106.489 82.006C106.884 82.006 107.193 82.1053 107.417 82.3039C107.641 82.5004 107.757 82.772 107.766 83.1185V84.6971C107.766 85.0119 107.806 85.2623 107.886 85.4483V85.499H107.271ZM106.298 85.0521C106.482 85.0521 106.657 85.0045 106.821 84.9095C106.986 84.8144 107.106 84.6907 107.18 84.5386V83.8349H106.72C106.001 83.8349 105.642 84.0452 105.642 84.4657C105.642 84.6495 105.703 84.7932 105.826 84.8968C105.949 85.0003 106.106 85.0521 106.298 85.0521ZM109.322 85.499H108.736V80.6303H109.322V85.499ZM110.901 85.499H110.314V80.6303H110.901V85.499ZM113.265 85.5624C112.801 85.5624 112.422 85.4103 112.131 85.106C111.839 84.7996 111.693 84.3907 111.693 83.8793V83.7715C111.693 83.4313 111.758 83.1281 111.887 82.8618C112.018 82.5934 112.199 82.3842 112.432 82.2342C112.666 82.082 112.92 82.006 113.193 82.006C113.638 82.006 113.985 82.1528 114.232 82.4466C114.479 82.7403 114.603 83.1608 114.603 83.7081V83.9522H112.28C112.288 84.2903 112.386 84.5639 112.574 84.7732C112.765 84.9802 113.006 85.0838 113.297 85.0838C113.504 85.0838 113.68 85.0415 113.823 84.957C113.967 84.8725 114.093 84.7605 114.201 84.621L114.559 84.8999C114.271 85.3416 113.84 85.5624 113.265 85.5624ZM113.193 82.4878C112.956 82.4878 112.757 82.5744 112.597 82.7477C112.436 82.9189 112.337 83.1598 112.299 83.4704H114.017V83.426C114 83.1281 113.919 82.8977 113.776 82.735C113.632 82.5702 113.438 82.4878 113.193 82.4878ZM115.142 83.7557C115.142 83.2295 115.267 82.8069 115.516 82.4878C115.765 82.1666 116.092 82.006 116.495 82.006C116.897 82.006 117.215 82.1433 117.449 82.418V80.6303H118.036V85.499H117.497L117.469 85.1313C117.234 85.4187 116.907 85.5624 116.489 85.5624C116.092 85.5624 115.767 85.3997 115.516 85.0743C115.267 84.7489 115.142 84.3241 115.142 83.8V83.7557ZM115.728 83.8222C115.728 84.2111 115.809 84.5153 115.969 84.7351C116.13 84.9549 116.352 85.0648 116.635 85.0648C117.007 85.0648 117.278 84.8978 117.449 84.5639V82.9886C117.274 82.6653 117.005 82.5036 116.641 82.5036C116.354 82.5036 116.13 82.6146 115.969 82.8364C115.809 83.0583 115.728 83.3869 115.728 83.8222ZM122.676 85.499C122.643 85.4314 122.615 85.311 122.594 85.1377C122.321 85.4208 121.996 85.5624 121.618 85.5624C121.28 85.5624 121.002 85.4673 120.784 85.2771C120.569 85.0848 120.461 84.8418 120.461 84.5481C120.461 84.191 120.596 83.9142 120.866 83.7176C121.139 83.519 121.522 83.4197 122.014 83.4197H122.584V83.1502C122.584 82.9453 122.523 82.7826 122.401 82.6621C122.278 82.5395 122.097 82.4783 121.859 82.4783C121.649 82.4783 121.474 82.5311 121.332 82.6367C121.191 82.7424 121.12 82.8702 121.12 83.0203H120.53C120.53 82.8491 120.591 82.6843 120.711 82.5258C120.834 82.3652 120.999 82.2384 121.206 82.1454C121.415 82.0525 121.644 82.006 121.893 82.006C122.289 82.006 122.598 82.1053 122.822 82.3039C123.046 82.5004 123.162 82.772 123.171 83.1185V84.6971C123.171 85.0119 123.211 85.2623 123.291 85.4483V85.499H122.676ZM121.703 85.0521C121.887 85.0521 122.061 85.0045 122.226 84.9095C122.391 84.8144 122.511 84.6907 122.584 84.5386V83.8349H122.125C121.406 83.8349 121.047 84.0452 121.047 84.4657C121.047 84.6495 121.108 84.7932 121.231 84.8968C121.354 85.0003 121.511 85.0521 121.703 85.0521ZM126.087 84.5893C126.087 84.4308 126.027 84.3083 125.906 84.2216C125.788 84.1329 125.58 84.0568 125.282 83.9934C124.986 83.93 124.75 83.8539 124.575 83.7652C124.402 83.6764 124.273 83.5708 124.188 83.4482C124.106 83.3256 124.065 83.1798 124.065 83.0108C124.065 82.7297 124.183 82.492 124.42 82.2976C124.659 82.1032 124.963 82.006 125.333 82.006C125.721 82.006 126.036 82.1063 126.277 82.3071C126.52 82.5078 126.642 82.7646 126.642 83.0773H126.052C126.052 82.9167 125.983 82.7783 125.846 82.6621C125.711 82.5459 125.54 82.4878 125.333 82.4878C125.119 82.4878 124.952 82.5343 124.832 82.6272C124.711 82.7202 124.651 82.8417 124.651 82.9918C124.651 83.1333 124.707 83.2401 124.819 83.3119C124.931 83.3837 125.133 83.4524 125.425 83.5179C125.718 83.5834 125.956 83.6616 126.138 83.7525C126.319 83.8434 126.454 83.9532 126.54 84.0821C126.629 84.2089 126.673 84.3643 126.673 84.5481C126.673 84.8545 126.551 85.1007 126.306 85.2867C126.061 85.4705 125.743 85.5624 125.352 85.5624C125.077 85.5624 124.834 85.5138 124.623 85.4166C124.411 85.3194 124.245 85.1842 124.125 85.0109C124.007 84.8355 123.947 84.6464 123.947 84.4435H124.534C124.544 84.64 124.623 84.7964 124.768 84.9126C124.916 85.0267 125.111 85.0838 125.352 85.0838C125.574 85.0838 125.751 85.0394 125.884 84.9507C126.019 84.8598 126.087 84.7393 126.087 84.5893ZM131.165 85.499C131.131 85.4314 131.104 85.311 131.083 85.1377C130.81 85.4208 130.485 85.5624 130.106 85.5624C129.768 85.5624 129.49 85.4673 129.273 85.2771C129.057 85.0848 128.949 84.8418 128.949 84.5481C128.949 84.191 129.085 83.9142 129.355 83.7176C129.628 83.519 130.01 83.4197 130.502 83.4197H131.073V83.1502C131.073 82.9453 131.012 82.7826 130.889 82.6621C130.767 82.5395 130.586 82.4783 130.347 82.4783C130.138 82.4783 129.963 82.5311 129.821 82.6367C129.679 82.7424 129.609 82.8702 129.609 83.0203H129.019C129.019 82.8491 129.079 82.6843 129.2 82.5258C129.322 82.3652 129.487 82.2384 129.694 82.1454C129.903 82.0525 130.133 82.006 130.382 82.006C130.777 82.006 131.087 82.1053 131.311 82.3039C131.535 82.5004 131.651 82.772 131.659 83.1185V84.6971C131.659 85.0119 131.7 85.2623 131.78 85.4483V85.499H131.165ZM130.192 85.0521C130.376 85.0521 130.55 85.0045 130.715 84.9095C130.88 84.8144 130.999 84.6907 131.073 84.5386V83.8349H130.613C129.895 83.8349 129.536 84.0452 129.536 84.4657C129.536 84.6495 129.597 84.7932 129.72 84.8968C129.842 85.0003 130 85.0521 130.192 85.0521ZM133.133 82.0694L133.152 82.5004C133.414 82.1708 133.757 82.006 134.179 82.006C134.904 82.006 135.27 82.4149 135.276 83.2327V85.499H134.69V83.2295C134.688 82.9822 134.631 82.7995 134.519 82.6811C134.409 82.5628 134.236 82.5036 134.002 82.5036C133.812 82.5036 133.645 82.5543 133.501 82.6558C133.357 82.7572 133.245 82.8903 133.165 83.0552V85.499H132.579V82.0694H133.133ZM139.888 85.499C139.854 85.4314 139.827 85.311 139.806 85.1377C139.533 85.4208 139.208 85.5624 138.829 85.5624C138.491 85.5624 138.213 85.4673 137.996 85.2771C137.78 85.0848 137.672 84.8418 137.672 84.5481C137.672 84.191 137.808 83.9142 138.078 83.7176C138.351 83.519 138.733 83.4197 139.226 83.4197H139.796V83.1502C139.796 82.9453 139.735 82.7826 139.612 82.6621C139.49 82.5395 139.309 82.4783 139.07 82.4783C138.861 82.4783 138.686 82.5311 138.544 82.6367C138.403 82.7424 138.332 82.8702 138.332 83.0203H137.742C137.742 82.8491 137.802 82.6843 137.923 82.5258C138.045 82.3652 138.21 82.2384 138.417 82.1454C138.627 82.0525 138.856 82.006 139.105 82.006C139.5 82.006 139.81 82.1053 140.034 82.3039C140.258 82.5004 140.374 82.772 140.383 83.1185V84.6971C140.383 85.0119 140.423 85.2623 140.503 85.4483V85.499H139.888ZM138.915 85.0521C139.099 85.0521 139.273 85.0045 139.438 84.9095C139.603 84.8144 139.722 84.6907 139.796 84.5386V83.8349H139.337C138.618 83.8349 138.259 84.0452 138.259 84.4657C138.259 84.6495 138.32 84.7932 138.443 84.8968C138.565 85.0003 138.723 85.0521 138.915 85.0521ZM144.199 83.8222C144.199 84.3442 144.08 84.7647 143.841 85.0838C143.602 85.4029 143.279 85.5624 142.871 85.5624C142.455 85.5624 142.127 85.4303 141.888 85.1662V86.8176H141.302V82.0694H141.837L141.866 82.4497C142.105 82.1539 142.437 82.006 142.861 82.006C143.273 82.006 143.599 82.1613 143.838 82.4719C144.079 82.7826 144.199 83.2147 144.199 83.7683V83.8222ZM143.613 83.7557C143.613 83.369 143.53 83.0636 143.365 82.8396C143.2 82.6156 142.974 82.5036 142.687 82.5036C142.332 82.5036 142.066 82.661 141.888 82.9759V84.6147C142.064 84.9274 142.332 85.0838 142.693 85.0838C142.974 85.0838 143.197 84.9728 143.362 84.751C143.529 84.527 143.613 84.1952 143.613 83.7557ZM147.844 83.8222C147.844 84.3442 147.725 84.7647 147.486 85.0838C147.247 85.4029 146.924 85.5624 146.516 85.5624C146.1 85.5624 145.772 85.4303 145.533 85.1662V86.8176H144.947V82.0694H145.483L145.511 82.4497C145.75 82.1539 146.082 82.006 146.507 82.006C146.919 82.006 147.244 82.1613 147.483 82.4719C147.724 82.7826 147.844 83.2147 147.844 83.7683V83.8222ZM147.258 83.7557C147.258 83.369 147.175 83.0636 147.011 82.8396C146.846 82.6156 146.62 82.5036 146.332 82.5036C145.977 82.5036 145.711 82.661 145.533 82.9759V84.6147C145.709 84.9274 145.977 85.0838 146.339 85.0838C146.62 85.0838 146.843 84.9728 147.007 84.751C147.174 84.527 147.258 84.1952 147.258 83.7557ZM149.229 85.499H148.643V80.6303H149.229V85.499ZM150.808 85.499H150.221V82.0694H150.808V85.499ZM150.174 81.1596C150.174 81.0646 150.202 80.9843 150.26 80.9187C150.319 80.8532 150.405 80.8205 150.519 80.8205C150.634 80.8205 150.72 80.8532 150.779 80.9187C150.839 80.9843 150.868 81.0646 150.868 81.1596C150.868 81.2547 150.839 81.334 150.779 81.3974C150.72 81.4608 150.634 81.4925 150.519 81.4925C150.405 81.4925 150.319 81.4608 150.26 81.3974C150.202 81.334 150.174 81.2547 150.174 81.1596ZM153.125 85.0838C153.334 85.0838 153.517 85.0204 153.673 84.8936C153.83 84.7668 153.916 84.6083 153.933 84.4181H154.488C154.477 84.6147 154.41 84.8017 154.285 84.9792C154.16 85.1567 153.993 85.2983 153.784 85.4039C153.577 85.5096 153.357 85.5624 153.125 85.5624C152.658 85.5624 152.286 85.4071 152.009 85.0965C151.734 84.7837 151.597 84.3569 151.597 83.8159V83.7176C151.597 83.3837 151.658 83.0868 151.781 82.8269C151.904 82.567 152.079 82.3652 152.307 82.2215C152.538 82.0778 152.809 82.006 153.122 82.006C153.506 82.006 153.825 82.1211 154.079 82.3515C154.335 82.5818 154.471 82.8808 154.488 83.2485H153.933C153.916 83.0266 153.832 82.8449 153.68 82.7033C153.53 82.5596 153.344 82.4878 153.122 82.4878C152.824 82.4878 152.592 82.5955 152.428 82.8111C152.265 83.0245 152.184 83.3341 152.184 83.7398V83.8508C152.184 84.2459 152.265 84.5502 152.428 84.7636C152.59 84.9771 152.823 85.0838 153.125 85.0838ZM157.265 85.499C157.231 85.4314 157.203 85.311 157.182 85.1377C156.91 85.4208 156.584 85.5624 156.206 85.5624C155.868 85.5624 155.59 85.4673 155.372 85.2771C155.157 85.0848 155.049 84.8418 155.049 84.5481C155.049 84.191 155.184 83.9142 155.455 83.7176C155.727 83.519 156.11 83.4197 156.602 83.4197H157.173V83.1502C157.173 82.9453 157.111 82.7826 156.989 82.6621C156.866 82.5395 156.686 82.4783 156.447 82.4783C156.238 82.4783 156.062 82.5311 155.921 82.6367C155.779 82.7424 155.708 82.8702 155.708 83.0203H155.119C155.119 82.8491 155.179 82.6843 155.299 82.5258C155.422 82.3652 155.587 82.2384 155.794 82.1454C156.003 82.0525 156.232 82.006 156.482 82.006C156.877 82.006 157.186 82.1053 157.41 82.3039C157.634 82.5004 157.751 82.772 157.759 83.1185V84.6971C157.759 85.0119 157.799 85.2623 157.88 85.4483V85.499H157.265ZM156.292 85.0521C156.475 85.0521 156.65 85.0045 156.815 84.9095C156.979 84.8144 157.099 84.6907 157.173 84.5386V83.8349H156.713C155.995 83.8349 155.635 84.0452 155.635 84.4657C155.635 84.6495 155.697 84.7932 155.819 84.8968C155.942 85.0003 156.099 85.0521 156.292 85.0521ZM159.474 81.2389V82.0694H160.114V82.5226H159.474V84.6495C159.474 84.7869 159.502 84.8904 159.56 84.9602C159.617 85.0278 159.714 85.0616 159.851 85.0616C159.919 85.0616 160.012 85.0489 160.13 85.0236V85.499C159.976 85.5413 159.826 85.5624 159.68 85.5624C159.418 85.5624 159.22 85.4832 159.087 85.3247C158.954 85.1662 158.888 84.9411 158.888 84.6495V82.5226H158.263V82.0694H158.888V81.2389H159.474ZM161.439 85.499H160.853V82.0694H161.439V85.499ZM160.805 81.1596C160.805 81.0646 160.834 80.9843 160.891 80.9187C160.95 80.8532 161.037 80.8205 161.151 80.8205C161.265 80.8205 161.352 80.8532 161.411 80.9187C161.47 80.9843 161.499 81.0646 161.499 81.1596C161.499 81.2547 161.47 81.334 161.411 81.3974C161.352 81.4608 161.265 81.4925 161.151 81.4925C161.037 81.4925 160.95 81.4608 160.891 81.3974C160.834 81.334 160.805 81.2547 160.805 81.1596ZM162.225 83.7525C162.225 83.4165 162.291 83.1143 162.422 82.8459C162.555 82.5776 162.739 82.3705 162.973 82.2247C163.21 82.0789 163.479 82.006 163.782 82.006C164.249 82.006 164.626 82.1676 164.913 82.4909C165.203 82.8143 165.347 83.2443 165.347 83.781V83.8222C165.347 84.1561 165.283 84.4562 165.154 84.7224C165.027 84.9866 164.845 85.1926 164.606 85.3405C164.369 85.4885 164.097 85.5624 163.788 85.5624C163.323 85.5624 162.946 85.4008 162.656 85.0774C162.369 84.7541 162.225 84.3262 162.225 83.7937V83.7525ZM162.815 83.8222C162.815 84.2026 162.903 84.508 163.078 84.7383C163.255 84.9686 163.492 85.0838 163.788 85.0838C164.086 85.0838 164.323 84.9676 164.498 84.7351C164.673 84.5006 164.761 84.173 164.761 83.7525C164.761 83.3764 164.671 83.0721 164.492 82.8396C164.314 82.605 164.077 82.4878 163.782 82.4878C163.492 82.4878 163.259 82.6029 163.081 82.8333C162.904 83.0636 162.815 83.3933 162.815 83.8222ZM166.638 82.0694L166.657 82.5004C166.919 82.1708 167.261 82.006 167.684 82.006C168.408 82.006 168.774 82.4149 168.78 83.2327V85.499H168.194V83.2295C168.192 82.9822 168.135 82.7995 168.023 82.6811C167.913 82.5628 167.741 82.5036 167.506 82.5036C167.316 82.5036 167.149 82.5543 167.005 82.6558C166.862 82.7572 166.75 82.8903 166.669 83.0552V85.499H166.083V82.0694H166.638ZM169.677 85.1916C169.677 85.0901 169.707 85.0056 169.766 84.938C169.827 84.8704 169.918 84.8365 170.039 84.8365C170.159 84.8365 170.25 84.8704 170.311 84.938C170.375 85.0056 170.406 85.0901 170.406 85.1916C170.406 85.2888 170.375 85.3701 170.311 85.4356C170.25 85.5011 170.159 85.5339 170.039 85.5339C169.918 85.5339 169.827 85.5011 169.766 85.4356C169.707 85.3701 169.677 85.2888 169.677 85.1916ZM173.731 85.499H173.123V80.8839H173.731V85.499ZM175.551 81.2389V82.0694H176.191V82.5226H175.551V84.6495C175.551 84.7869 175.579 84.8904 175.636 84.9602C175.694 85.0278 175.791 85.0616 175.928 85.0616C175.996 85.0616 176.089 85.0489 176.207 85.0236V85.499C176.053 85.5413 175.903 85.5624 175.757 85.5624C175.495 85.5624 175.297 85.4832 175.164 85.3247C175.031 85.1662 174.964 84.9411 174.964 84.6495V82.5226H174.34V82.0694H174.964V81.2389H175.551ZM181.526 84.6907L182.185 82.0694H182.772L181.773 85.499H181.298L180.464 82.8998L179.653 85.499H179.177L178.182 82.0694H178.765L179.44 84.6369L180.239 82.0694H180.711L181.526 84.6907ZM184.008 85.499H183.421V82.0694H184.008V85.499ZM183.374 81.1596C183.374 81.0646 183.402 80.9843 183.459 80.9187C183.519 80.8532 183.605 80.8205 183.719 80.8205C183.833 80.8205 183.92 80.8532 183.979 80.9187C184.038 80.9843 184.068 81.0646 184.068 81.1596C184.068 81.2547 184.038 81.334 183.979 81.3974C183.92 81.4608 183.833 81.4925 183.719 81.4925C183.605 81.4925 183.519 81.4608 183.459 81.3974C183.402 81.334 183.374 81.2547 183.374 81.1596ZM185.586 85.499H185V80.6303H185.586V85.499ZM187.165 85.499H186.578V80.6303H187.165V85.499ZM189.561 83.7525C189.561 83.4165 189.627 83.1143 189.758 82.8459C189.891 82.5776 190.075 82.3705 190.309 82.2247C190.546 82.0789 190.815 82.006 191.118 82.006C191.585 82.006 191.962 82.1676 192.249 82.4909C192.539 82.8143 192.683 83.2443 192.683 83.781V83.8222C192.683 84.1561 192.619 84.4562 192.49 84.7224C192.363 84.9866 192.18 85.1926 191.942 85.3405C191.705 85.4885 191.432 85.5624 191.124 85.5624C190.659 85.5624 190.282 85.4008 189.992 85.0774C189.705 84.7541 189.561 84.3262 189.561 83.7937V83.7525ZM190.151 83.8222C190.151 84.2026 190.238 84.508 190.414 84.7383C190.591 84.9686 190.828 85.0838 191.124 85.0838C191.422 85.0838 191.658 84.9676 191.834 84.7351C192.009 84.5006 192.097 84.173 192.097 83.7525C192.097 83.3764 192.007 83.0721 191.828 82.8396C191.65 82.605 191.413 82.4878 191.118 82.4878C190.828 82.4878 190.595 82.6029 190.417 82.8333C190.239 83.0636 190.151 83.3933 190.151 83.8222ZM196.316 83.8222C196.316 84.3442 196.196 84.7647 195.958 85.0838C195.719 85.4029 195.396 85.5624 194.988 85.5624C194.571 85.5624 194.244 85.4303 194.005 85.1662V86.8176H193.419V82.0694H193.954L193.983 82.4497C194.222 82.1539 194.554 82.006 194.978 82.006C195.39 82.006 195.716 82.1613 195.955 82.4719C196.195 82.7826 196.316 83.2147 196.316 83.7683V83.8222ZM195.729 83.7557C195.729 83.369 195.647 83.0636 195.482 82.8396C195.317 82.6156 195.091 82.5036 194.804 82.5036C194.449 82.5036 194.183 82.661 194.005 82.9759V84.6147C194.181 84.9274 194.449 85.0838 194.81 85.0838C195.091 85.0838 195.314 84.9728 195.479 84.751C195.646 84.527 195.729 84.1952 195.729 83.7557ZM198.487 85.5624C198.022 85.5624 197.644 85.4103 197.352 85.106C197.061 84.7996 196.915 84.3907 196.915 83.8793V83.7715C196.915 83.4313 196.979 83.1281 197.108 82.8618C197.239 82.5934 197.421 82.3842 197.654 82.2342C197.888 82.082 198.142 82.006 198.414 82.006C198.86 82.006 199.207 82.1528 199.454 82.4466C199.701 82.7403 199.825 83.1608 199.825 83.7081V83.9522H197.501C197.51 84.2903 197.608 84.5639 197.796 84.7732C197.986 84.9802 198.227 85.0838 198.519 85.0838C198.726 85.0838 198.901 85.0415 199.045 84.957C199.189 84.8725 199.314 84.7605 199.422 84.621L199.78 84.8999C199.493 85.3416 199.062 85.5624 198.487 85.5624ZM198.414 82.4878C198.178 82.4878 197.979 82.5744 197.818 82.7477C197.658 82.9189 197.558 83.1598 197.52 83.4704H199.238V83.426C199.221 83.1281 199.141 82.8977 198.998 82.735C198.854 82.5702 198.659 82.4878 198.414 82.4878ZM201.061 82.0694L201.08 82.5004C201.342 82.1708 201.684 82.006 202.107 82.006C202.832 82.006 203.197 82.4149 203.204 83.2327V85.499H202.617V83.2295C202.615 82.9822 202.558 82.7995 202.446 82.6811C202.336 82.5628 202.164 82.5036 201.93 82.5036C201.739 82.5036 201.572 82.5543 201.429 82.6558C201.285 82.7572 201.173 82.8903 201.093 83.0552V85.499H200.506V82.0694H201.061ZM48.254 94.499H47.6676V91.0694H48.254V94.499ZM47.62 90.1596C47.62 90.0646 47.6486 89.9843 47.7056 89.9187C47.7648 89.8532 47.8514 89.8205 47.9655 89.8205C48.0796 89.8205 48.1663 89.8532 48.2255 89.9187C48.2846 89.9843 48.3142 90.0646 48.3142 90.1596C48.3142 90.2547 48.2846 90.334 48.2255 90.3974C48.1663 90.4608 48.0796 90.4925 47.9655 90.4925C47.8514 90.4925 47.7648 90.4608 47.7056 90.3974C47.6486 90.334 47.62 90.2547 47.62 90.1596ZM49.7501 91.0694L49.7691 91.5004C50.0311 91.1708 50.3735 91.006 50.7961 91.006C51.5209 91.006 51.8865 91.4149 51.8928 92.2327V94.499H51.3064V92.2295C51.3043 91.9822 51.2473 91.7995 51.1353 91.6811C51.0254 91.5628 50.8532 91.5036 50.6186 91.5036C50.4284 91.5036 50.2615 91.5543 50.1178 91.6558C49.9741 91.7572 49.8621 91.8903 49.7818 92.0552V94.499H49.1954V91.0694H49.7501ZM55.0246 94.499H54.4381V91.0694H55.0246V94.499ZM54.3906 90.1596C54.3906 90.0646 54.4191 89.9843 54.4762 89.9187C54.5354 89.8532 54.622 89.8205 54.7361 89.8205C54.8502 89.8205 54.9369 89.8532 54.996 89.9187C55.0552 89.9843 55.0848 90.0646 55.0848 90.1596C55.0848 90.2547 55.0552 90.334 54.996 90.3974C54.9369 90.4608 54.8502 90.4925 54.7361 90.4925C54.622 90.4925 54.5354 90.4608 54.4762 90.3974C54.4191 90.334 54.3906 90.2547 54.3906 90.1596ZM56.7616 90.2389V91.0694H57.4019V91.5226H56.7616V93.6495C56.7616 93.7869 56.7901 93.8904 56.8472 93.9602C56.9042 94.0278 57.0014 94.0616 57.1388 94.0616C57.2064 94.0616 57.2994 94.0489 57.4177 94.0236V94.499C57.2634 94.5413 57.1134 94.5624 56.9676 94.5624C56.7056 94.5624 56.508 94.4832 56.3749 94.3247C56.2417 94.1662 56.1752 93.9411 56.1752 93.6495V91.5226H55.5507V91.0694H56.1752V90.2389H56.7616ZM60.0866 93.5893C60.0866 93.4308 60.0264 93.3083 59.906 93.2216C59.7876 93.1329 59.5795 93.0568 59.2815 92.9934C58.9857 92.93 58.7501 92.8539 58.5747 92.7652C58.4014 92.6764 58.2725 92.5708 58.188 92.4482C58.1055 92.3256 58.0643 92.1798 58.0643 92.0108C58.0643 91.7297 58.1827 91.492 58.4193 91.2976C58.6581 91.1032 58.9624 91.006 59.3322 91.006C59.7211 91.006 60.0359 91.1063 60.2768 91.3071C60.5198 91.5078 60.6413 91.7646 60.6413 92.0773H60.0518C60.0518 91.9167 59.9831 91.7783 59.8457 91.6621C59.7105 91.5459 59.5393 91.4878 59.3322 91.4878C59.1188 91.4878 58.9519 91.5343 58.8314 91.6272C58.711 91.7202 58.6507 91.8417 58.6507 91.9918C58.6507 92.1333 58.7067 92.2401 58.8187 92.3119C58.9307 92.3837 59.1325 92.4524 59.4242 92.5179C59.7179 92.5834 59.9556 92.6616 60.1373 92.7525C60.3191 92.8434 60.4533 92.9532 60.5399 93.0821C60.6287 93.2089 60.673 93.3643 60.673 93.5481C60.673 93.8545 60.5505 94.1007 60.3053 94.2867C60.0602 94.4705 59.7422 94.5624 59.3513 94.5624C59.0765 94.5624 58.8335 94.5138 58.6222 94.4166C58.4109 94.3194 58.245 94.1842 58.1246 94.0109C58.0062 93.8355 57.9471 93.6464 57.9471 93.4435H58.5335C58.544 93.64 58.6222 93.7964 58.768 93.9126C58.9159 94.0267 59.1104 94.0838 59.3513 94.0838C59.5731 94.0838 59.7506 94.0394 59.8838 93.9507C60.019 93.8598 60.0866 93.7393 60.0866 93.5893ZM62.8919 92.7525C62.8919 92.4165 62.9574 92.1143 63.0884 91.8459C63.2215 91.5776 63.4054 91.3705 63.6399 91.2247C63.8766 91.0789 64.146 91.006 64.4482 91.006C64.9152 91.006 65.2924 91.1676 65.5798 91.4909C65.8693 91.8143 66.0141 92.2443 66.0141 92.781V92.8222C66.0141 93.1561 65.9496 93.4562 65.8207 93.7224C65.6939 93.9866 65.5111 94.1926 65.2723 94.3405C65.0357 94.4885 64.7631 94.5624 64.4545 94.5624C63.9896 94.5624 63.6124 94.4008 63.3229 94.0774C63.0356 93.7541 62.8919 93.3262 62.8919 92.7937V92.7525ZM63.4814 92.8222C63.4814 93.2026 63.5691 93.508 63.7445 93.7383C63.922 93.9686 64.1587 94.0838 64.4545 94.0838C64.7525 94.0838 64.9892 93.9676 65.1646 93.7351C65.34 93.5006 65.4277 93.173 65.4277 92.7525C65.4277 92.3764 65.3378 92.0721 65.1582 91.8396C64.9807 91.605 64.744 91.4878 64.4482 91.4878C64.1587 91.4878 63.9252 91.6029 63.7477 91.8333C63.5702 92.0636 63.4814 92.3933 63.4814 92.8222ZM69.7861 93.6907L70.4454 91.0694H71.0318L70.0333 94.499H69.5578L68.7242 91.8998L67.9127 94.499H67.4373L66.442 91.0694H67.0252L67.7004 93.6369L68.4991 91.0694H68.9714L69.7861 93.6907ZM72.1855 91.0694L72.2046 91.5004C72.4666 91.1708 72.8089 91.006 73.2316 91.006C73.9564 91.006 74.322 91.4149 74.3283 92.2327V94.499H73.7419V92.2295C73.7398 91.9822 73.6827 91.7995 73.5707 91.6811C73.4608 91.5628 73.2886 91.5036 73.0541 91.5036C72.8639 91.5036 72.6969 91.5543 72.5532 91.6558C72.4095 91.7572 72.2975 91.8903 72.2172 92.0552V94.499H71.6308V91.0694H72.1855ZM79.8595 93.6907L80.5188 91.0694H81.1052L80.1067 94.499H79.6313L78.7976 91.8998L77.9862 94.499H77.5107L76.5154 91.0694H77.0986L77.7738 93.6369L78.5726 91.0694H79.0449L79.8595 93.6907ZM82.3414 94.499H81.755V91.0694H82.3414V94.499ZM81.7075 90.1596C81.7075 90.0646 81.736 89.9843 81.793 89.9187C81.8522 89.8532 81.9388 89.8205 82.053 89.8205C82.1671 89.8205 82.2537 89.8532 82.3129 89.9187C82.372 89.9843 82.4016 90.0646 82.4016 90.1596C82.4016 90.2547 82.372 90.334 82.3129 90.3974C82.2537 90.4608 82.1671 90.4925 82.053 90.4925C81.9388 90.4925 81.8522 90.4608 81.793 90.3974C81.736 90.334 81.7075 90.2547 81.7075 90.1596ZM83.8375 91.0694L83.8565 91.5004C84.1186 91.1708 84.4609 91.006 84.8835 91.006C85.6084 91.006 85.9739 91.4149 85.9803 92.2327V94.499H85.3939V92.2295C85.3918 91.9822 85.3347 91.7995 85.2227 91.6811C85.1128 91.5628 84.9406 91.5036 84.706 91.5036C84.5158 91.5036 84.3489 91.5543 84.2052 91.6558C84.0615 91.7572 83.9495 91.8903 83.8692 92.0552V94.499H83.2828V91.0694H83.8375ZM86.722 92.7557C86.722 92.2295 86.8467 91.8069 87.096 91.4878C87.3454 91.1666 87.6719 91.006 88.0755 91.006C88.477 91.006 88.795 91.1433 89.0296 91.418V89.6303H89.616V94.499H89.0771L89.0486 94.1313C88.814 94.4187 88.4875 94.5624 88.0691 94.5624C87.6719 94.5624 87.3475 94.3997 87.096 94.0743C86.8467 93.7489 86.722 93.3241 86.722 92.8V92.7557ZM87.3084 92.8222C87.3084 93.2111 87.3887 93.5153 87.5493 93.7351C87.7099 93.9549 87.9318 94.0648 88.2149 94.0648C88.5869 94.0648 88.8584 93.8978 89.0296 93.5639V91.9886C88.8542 91.6653 88.5847 91.5036 88.2213 91.5036C87.9339 91.5036 87.7099 91.6146 87.5493 91.8364C87.3887 92.0583 87.3084 92.3869 87.3084 92.8222ZM90.3735 92.7525C90.3735 92.4165 90.439 92.1143 90.5701 91.8459C90.7032 91.5776 90.887 91.3705 91.1216 91.2247C91.3583 91.0789 91.6277 91.006 91.9299 91.006C92.3969 91.006 92.7741 91.1676 93.0615 91.4909C93.351 91.8143 93.4957 92.2443 93.4957 92.781V92.8222C93.4957 93.1561 93.4313 93.4562 93.3024 93.7224C93.1756 93.9866 92.9928 94.1926 92.754 94.3405C92.5173 94.4885 92.2447 94.5624 91.9362 94.5624C91.4713 94.5624 91.0941 94.4008 90.8046 94.0774C90.5172 93.7541 90.3735 93.3262 90.3735 92.7937V92.7525ZM90.9631 92.8222C90.9631 93.2026 91.0508 93.508 91.2262 93.7383C91.4037 93.9686 91.6404 94.0838 91.9362 94.0838C92.2342 94.0838 92.4709 93.9676 92.6462 93.7351C92.8216 93.5006 92.9093 93.173 92.9093 92.7525C92.9093 92.3764 92.8195 92.0721 92.6399 91.8396C92.4624 91.605 92.2257 91.4878 91.9299 91.4878C91.6404 91.4878 91.4069 91.6029 91.2294 91.8333C91.0519 92.0636 90.9631 92.3933 90.9631 92.8222ZM97.2677 93.6907L97.927 91.0694H98.5134L97.515 94.499H97.0395L96.2059 91.8998L95.3944 94.499H94.9189L93.9236 91.0694H94.5069L95.182 93.6369L95.9808 91.0694H96.4531L97.2677 93.6907ZM102.84 94.499C102.806 94.4314 102.779 94.311 102.758 94.1377C102.485 94.4208 102.16 94.5624 101.781 94.5624C101.443 94.5624 101.165 94.4673 100.948 94.2771C100.732 94.0848 100.624 93.8418 100.624 93.5481C100.624 93.191 100.76 92.9142 101.03 92.7176C101.303 92.519 101.685 92.4197 102.178 92.4197H102.748V92.1502C102.748 91.9453 102.687 91.7826 102.564 91.6621C102.442 91.5395 102.261 91.4783 102.022 91.4783C101.813 91.4783 101.638 91.5311 101.496 91.6367C101.355 91.7424 101.284 91.8702 101.284 92.0203H100.694C100.694 91.8491 100.754 91.6843 100.875 91.5258C100.997 91.3652 101.162 91.2384 101.369 91.1454C101.579 91.0525 101.808 91.006 102.057 91.006C102.452 91.006 102.762 91.1053 102.986 91.3039C103.21 91.5004 103.326 91.772 103.335 92.1185V93.6971C103.335 94.0119 103.375 94.2623 103.455 94.4483V94.499H102.84ZM101.867 94.0521C102.051 94.0521 102.225 94.0045 102.39 93.9095C102.555 93.8144 102.674 93.6907 102.748 93.5386V92.8349H102.289C101.57 92.8349 101.211 93.0452 101.211 93.4657C101.211 93.6495 101.272 93.7932 101.395 93.8968C101.517 94.0003 101.675 94.0521 101.867 94.0521ZM104.809 91.0694L104.828 91.5004C105.09 91.1708 105.432 91.006 105.855 91.006C106.579 91.006 106.945 91.4149 106.951 92.2327V94.499H106.365V92.2295C106.363 91.9822 106.306 91.7995 106.194 91.6811C106.084 91.5628 105.912 91.5036 105.677 91.5036C105.487 91.5036 105.32 91.5543 105.176 91.6558C105.033 91.7572 104.921 91.8903 104.84 92.0552V94.499H104.254V91.0694H104.809ZM107.693 92.7557C107.693 92.2295 107.818 91.8069 108.067 91.4878C108.316 91.1666 108.643 91.006 109.046 91.006C109.448 91.006 109.766 91.1433 110.001 91.418V89.6303H110.587V94.499H110.048L110.02 94.1313C109.785 94.4187 109.459 94.5624 109.04 94.5624C108.643 94.5624 108.319 94.3997 108.067 94.0743C107.818 93.7489 107.693 93.3241 107.693 92.8V92.7557ZM108.279 92.8222C108.279 93.2111 108.36 93.5153 108.52 93.7351C108.681 93.9549 108.903 94.0648 109.186 94.0648C109.558 94.0648 109.829 93.8978 110.001 93.5639V91.9886C109.825 91.6653 109.556 91.5036 109.192 91.5036C108.905 91.5036 108.681 91.6146 108.52 91.8364C108.36 92.0583 108.279 92.3869 108.279 92.8222ZM115.107 93.5893C115.107 93.4308 115.047 93.3083 114.926 93.2216C114.808 93.1329 114.6 93.0568 114.302 92.9934C114.006 92.93 113.77 92.8539 113.595 92.7652C113.422 92.6764 113.293 92.5708 113.208 92.4482C113.126 92.3256 113.085 92.1798 113.085 92.0108C113.085 91.7297 113.203 91.492 113.44 91.2976C113.679 91.1032 113.983 91.006 114.353 91.006C114.741 91.006 115.056 91.1063 115.297 91.3071C115.54 91.5078 115.662 91.7646 115.662 92.0773H115.072C115.072 91.9167 115.004 91.7783 114.866 91.6621C114.731 91.5459 114.56 91.4878 114.353 91.4878C114.139 91.4878 113.972 91.5343 113.852 91.6272C113.731 91.7202 113.671 91.8417 113.671 91.9918C113.671 92.1333 113.727 92.2401 113.839 92.3119C113.951 92.3837 114.153 92.4524 114.445 92.5179C114.738 92.5834 114.976 92.6616 115.158 92.7525C115.339 92.8434 115.474 92.9532 115.56 93.0821C115.649 93.2089 115.693 93.3643 115.693 93.5481C115.693 93.8545 115.571 94.1007 115.326 94.2867C115.081 94.4705 114.763 94.5624 114.372 94.5624C114.097 94.5624 113.854 94.5138 113.643 94.4166C113.431 94.3194 113.265 94.1842 113.145 94.0109C113.027 93.8355 112.967 93.6464 112.967 93.4435H113.554C113.564 93.64 113.643 93.7964 113.788 93.9126C113.936 94.0267 114.131 94.0838 114.372 94.0838C114.594 94.0838 114.771 94.0394 114.904 93.9507C115.039 93.8598 115.107 93.7393 115.107 93.5893ZM118.575 94.499C118.541 94.4314 118.513 94.311 118.492 94.1377C118.22 94.4208 117.894 94.5624 117.516 94.5624C117.178 94.5624 116.9 94.4673 116.682 94.2771C116.467 94.0848 116.359 93.8418 116.359 93.5481C116.359 93.191 116.494 92.9142 116.765 92.7176C117.037 92.519 117.42 92.4197 117.912 92.4197H118.483V92.1502C118.483 91.9453 118.422 91.7826 118.299 91.6621C118.176 91.5395 117.996 91.4783 117.757 91.4783C117.548 91.4783 117.372 91.5311 117.231 91.6367C117.089 91.7424 117.018 91.8702 117.018 92.0203H116.429C116.429 91.8491 116.489 91.6843 116.61 91.5258C116.732 91.3652 116.897 91.2384 117.104 91.1454C117.313 91.0525 117.542 91.006 117.792 91.006C118.187 91.006 118.497 91.1053 118.721 91.3039C118.945 91.5004 119.061 91.772 119.069 92.1185V93.6971C119.069 94.0119 119.109 94.2623 119.19 94.4483V94.499H118.575ZM117.602 94.0521C117.785 94.0521 117.96 94.0045 118.125 93.9095C118.289 93.8144 118.409 93.6907 118.483 93.5386V92.8349H118.023C117.305 92.8349 116.946 93.0452 116.946 93.4657C116.946 93.6495 117.007 93.7932 117.129 93.8968C117.252 94.0003 117.409 94.0521 117.602 94.0521ZM120.277 94.499V91.5226H119.735V91.0694H120.277V90.7175C120.277 90.3498 120.375 90.0656 120.572 89.8649C120.768 89.6641 121.046 89.5637 121.405 89.5637C121.541 89.5637 121.675 89.5817 121.808 89.6176L121.776 90.0931C121.677 90.0741 121.571 90.0646 121.459 90.0646C121.269 90.0646 121.122 90.1206 121.019 90.2325C120.915 90.3424 120.863 90.5009 120.863 90.708V91.0694H121.596V91.5226H120.863V94.499H120.277ZM123.592 94.5624C123.128 94.5624 122.749 94.4103 122.458 94.106C122.166 93.7996 122.02 93.3907 122.02 92.8793V92.7715C122.02 92.4313 122.085 92.1281 122.214 91.8618C122.345 91.5934 122.526 91.3842 122.759 91.2342C122.993 91.082 123.247 91.006 123.52 91.006C123.965 91.006 124.312 91.1528 124.559 91.4466C124.806 91.7403 124.93 92.1608 124.93 92.7081V92.9522H122.607C122.615 93.2903 122.713 93.5639 122.901 93.7732C123.092 93.9802 123.333 94.0838 123.624 94.0838C123.831 94.0838 124.007 94.0415 124.15 93.957C124.294 93.8725 124.42 93.7605 124.528 93.621L124.886 93.8999C124.598 94.3416 124.167 94.5624 123.592 94.5624ZM123.52 91.4878C123.283 91.4878 123.084 91.5744 122.924 91.7477C122.763 91.9189 122.664 92.1598 122.626 92.4704H124.344V92.426C124.327 92.1281 124.246 91.8977 124.103 91.735C123.959 91.5702 123.765 91.4878 123.52 91.4878ZM126.249 94.499H125.662V89.6303H126.249V94.499ZM128.312 93.64L129.111 91.0694H129.739L128.36 95.0284C128.146 95.5989 127.807 95.8842 127.342 95.8842L127.231 95.8747L127.013 95.8335V95.358L127.171 95.3707C127.37 95.3707 127.524 95.3306 127.634 95.2503C127.746 95.17 127.838 95.0231 127.91 94.8097L128.04 94.461L126.816 91.0694H127.456L128.312 93.64ZM132.512 94.499H131.926V91.0694H132.512V94.499ZM131.878 90.1596C131.878 90.0646 131.907 89.9843 131.964 89.9187C132.023 89.8532 132.11 89.8205 132.224 89.8205C132.338 89.8205 132.424 89.8532 132.484 89.9187C132.543 89.9843 132.572 90.0646 132.572 90.1596C132.572 90.2547 132.543 90.334 132.484 90.3974C132.424 90.4608 132.338 90.4925 132.224 90.4925C132.11 90.4925 132.023 90.4608 131.964 90.3974C131.907 90.334 131.878 90.2547 131.878 90.1596ZM134.008 91.0694L134.027 91.5004C134.289 91.1708 134.632 91.006 135.054 91.006C135.779 91.006 136.145 91.4149 136.151 92.2327V94.499H135.565V92.2295C135.562 91.9822 135.505 91.7995 135.393 91.6811C135.284 91.5628 135.111 91.5036 134.877 91.5036C134.687 91.5036 134.52 91.5543 134.376 91.6558C134.232 91.7572 134.12 91.8903 134.04 92.0552V94.499H133.454V91.0694H134.008ZM137.831 90.2389V91.0694H138.471V91.5226H137.831V93.6495C137.831 93.7869 137.859 93.8904 137.917 93.9602C137.974 94.0278 138.071 94.0616 138.208 94.0616C138.276 94.0616 138.369 94.0489 138.487 94.0236V94.499C138.333 94.5413 138.183 94.5624 138.037 94.5624C137.775 94.5624 137.577 94.4832 137.444 94.3247C137.311 94.1662 137.245 93.9411 137.245 93.6495V91.5226H136.62V91.0694H137.245V90.2389H137.831ZM140.582 94.5624C140.117 94.5624 139.739 94.4103 139.448 94.106C139.156 93.7996 139.01 93.3907 139.01 92.8793V92.7715C139.01 92.4313 139.075 92.1281 139.203 91.8618C139.334 91.5934 139.516 91.3842 139.749 91.2342C139.983 91.082 140.237 91.006 140.509 91.006C140.955 91.006 141.302 91.1528 141.549 91.4466C141.796 91.7403 141.92 92.1608 141.92 92.7081V92.9522H139.596C139.605 93.2903 139.703 93.5639 139.891 93.7732C140.081 93.9802 140.322 94.0838 140.614 94.0838C140.821 94.0838 140.996 94.0415 141.14 93.957C141.284 93.8725 141.41 93.7605 141.517 93.621L141.876 93.8999C141.588 94.3416 141.157 94.5624 140.582 94.5624ZM140.509 91.4878C140.273 91.4878 140.074 91.5744 139.913 91.7477C139.753 91.9189 139.654 92.1598 139.616 92.4704H141.334V92.426C141.317 92.1281 141.236 91.8977 141.093 91.735C140.949 91.5702 140.755 91.4878 140.509 91.4878ZM142.462 92.7557C142.462 92.221 142.586 91.7963 142.833 91.4814C143.08 91.1645 143.408 91.006 143.815 91.006C144.234 91.006 144.56 91.1539 144.795 91.4497L144.823 91.0694H145.359V94.4166C145.359 94.8604 145.227 95.2101 144.963 95.4658C144.701 95.7215 144.348 95.8493 143.904 95.8493C143.657 95.8493 143.415 95.7965 143.178 95.6908C142.942 95.5852 142.761 95.4404 142.636 95.2566L142.941 94.9048C143.192 95.2154 143.5 95.3707 143.863 95.3707C144.148 95.3707 144.37 95.2904 144.529 95.1298C144.689 94.9692 144.77 94.7431 144.77 94.4515V94.1567C144.535 94.4272 144.215 94.5624 143.809 94.5624C143.408 94.5624 143.082 94.4008 142.833 94.0774C142.586 93.7541 142.462 93.3135 142.462 92.7557ZM143.052 92.8222C143.052 93.2089 143.131 93.5132 143.289 93.7351C143.448 93.9549 143.67 94.0648 143.955 94.0648C144.325 94.0648 144.596 93.8968 144.77 93.5608V91.9949C144.59 91.6674 144.32 91.5036 143.961 91.5036C143.676 91.5036 143.453 91.6146 143.292 91.8364C143.132 92.0583 143.052 92.3869 143.052 92.8222ZM147.904 91.5955C147.816 91.5807 147.719 91.5733 147.616 91.5733C147.231 91.5733 146.97 91.7371 146.833 92.0647V94.499H146.247V91.0694H146.817L146.827 91.4656C147.019 91.1592 147.292 91.006 147.644 91.006C147.759 91.006 147.845 91.0208 147.904 91.0503V91.5955ZM150.437 94.499C150.403 94.4314 150.376 94.311 150.355 94.1377C150.082 94.4208 149.757 94.5624 149.378 94.5624C149.04 94.5624 148.762 94.4673 148.545 94.2771C148.329 94.0848 148.221 93.8418 148.221 93.5481C148.221 93.191 148.357 92.9142 148.627 92.7176C148.9 92.519 149.282 92.4197 149.775 92.4197H150.345V92.1502C150.345 91.9453 150.284 91.7826 150.161 91.6621C150.039 91.5395 149.858 91.4783 149.619 91.4783C149.41 91.4783 149.235 91.5311 149.093 91.6367C148.951 91.7424 148.881 91.8702 148.881 92.0203H148.291C148.291 91.8491 148.351 91.6843 148.472 91.5258C148.594 91.3652 148.759 91.2384 148.966 91.1454C149.175 91.0525 149.405 91.006 149.654 91.006C150.049 91.006 150.359 91.1053 150.583 91.3039C150.807 91.5004 150.923 91.772 150.931 92.1185V93.6971C150.931 94.0119 150.972 94.2623 151.052 94.4483V94.499H150.437ZM149.464 94.0521C149.648 94.0521 149.822 94.0045 149.987 93.9095C150.152 93.8144 150.271 93.6907 150.345 93.5386V92.8349H149.885C149.167 92.8349 148.808 93.0452 148.808 93.4657C148.808 93.6495 148.869 93.7932 148.992 93.8968C149.114 94.0003 149.272 94.0521 149.464 94.0521ZM152.646 90.2389V91.0694H153.287V91.5226H152.646V93.6495C152.646 93.7869 152.675 93.8904 152.732 93.9602C152.789 94.0278 152.886 94.0616 153.024 94.0616C153.091 94.0616 153.184 94.0489 153.302 94.0236V94.499C153.148 94.5413 152.998 94.5624 152.852 94.5624C152.59 94.5624 152.393 94.4832 152.26 94.3247C152.126 94.1662 152.06 93.9411 152.06 93.6495V91.5226H151.435V91.0694H152.06V90.2389H152.646ZM155.398 94.5624C154.933 94.5624 154.555 94.4103 154.263 94.106C153.971 93.7996 153.825 93.3907 153.825 92.8793V92.7715C153.825 92.4313 153.89 92.1281 154.019 91.8618C154.15 91.5934 154.332 91.3842 154.564 91.2342C154.799 91.082 155.052 91.006 155.325 91.006C155.771 91.006 156.117 91.1528 156.364 91.4466C156.612 91.7403 156.735 92.1608 156.735 92.7081V92.9522H154.412C154.42 93.2903 154.519 93.5639 154.707 93.7732C154.897 93.9802 155.138 94.0838 155.429 94.0838C155.636 94.0838 155.812 94.0415 155.956 93.957C156.099 93.8725 156.225 93.7605 156.333 93.621L156.691 93.8999C156.404 94.3416 155.972 94.5624 155.398 94.5624ZM155.325 91.4878C155.088 91.4878 154.889 91.5744 154.729 91.7477C154.568 91.9189 154.469 92.1598 154.431 92.4704H156.149V92.426C156.132 92.1281 156.052 91.8977 155.908 91.735C155.764 91.5702 155.57 91.4878 155.325 91.4878ZM162.064 93.6907L162.723 91.0694H163.309L162.311 94.499H161.835L161.002 91.8998L160.19 94.499H159.715L158.72 91.0694H159.303L159.978 93.6369L160.777 91.0694H161.249L162.064 93.6907ZM164.546 94.499H163.959V91.0694H164.546V94.499ZM163.912 90.1596C163.912 90.0646 163.94 89.9843 163.997 89.9187C164.056 89.8532 164.143 89.8205 164.257 89.8205C164.371 89.8205 164.458 89.8532 164.517 89.9187C164.576 89.9843 164.606 90.0646 164.606 90.1596C164.606 90.2547 164.576 90.334 164.517 90.3974C164.458 90.4608 164.371 90.4925 164.257 90.4925C164.143 90.4925 164.056 90.4608 163.997 90.3974C163.94 90.334 163.912 90.2547 163.912 90.1596ZM166.283 90.2389V91.0694H166.923V91.5226H166.283V93.6495C166.283 93.7869 166.311 93.8904 166.368 93.9602C166.425 94.0278 166.522 94.0616 166.66 94.0616C166.727 94.0616 166.82 94.0489 166.939 94.0236V94.499C166.784 94.5413 166.634 94.5624 166.489 94.5624C166.227 94.5624 166.029 94.4832 165.896 94.3247C165.763 94.1662 165.696 93.9411 165.696 93.6495V91.5226H165.072V91.0694H165.696V90.2389H166.283ZM168.197 91.4846C168.457 91.1655 168.795 91.006 169.211 91.006C169.936 91.006 170.302 91.4149 170.308 92.2327V94.499H169.722V92.2295C169.72 91.9822 169.663 91.7995 169.551 91.6811C169.441 91.5628 169.268 91.5036 169.034 91.5036C168.844 91.5036 168.677 91.5543 168.533 91.6558C168.389 91.7572 168.277 91.8903 168.197 92.0552V94.499H167.611V89.6303H168.197V91.4846ZM173.884 93.0441L173.972 93.6527L174.102 93.1043L175.015 89.8839H175.529L176.419 93.1043L176.546 93.6622L176.644 93.0409L177.361 89.8839H177.973L176.854 94.499H176.299L175.348 91.1359L175.275 90.7841L175.202 91.1359L174.216 94.499H173.662L172.546 89.8839H173.155L173.884 93.0441ZM179.196 94.499H178.61V91.0694H179.196V94.499ZM178.562 90.1596C178.562 90.0646 178.591 89.9843 178.648 89.9187C178.707 89.8532 178.794 89.8205 178.908 89.8205C179.022 89.8205 179.108 89.8532 179.168 89.9187C179.227 89.9843 179.256 90.0646 179.256 90.1596C179.256 90.2547 179.227 90.334 179.168 90.3974C179.108 90.4608 179.022 90.4925 178.908 90.4925C178.794 90.4925 178.707 90.4608 178.648 90.3974C178.591 90.334 178.562 90.2547 178.562 90.1596ZM180.692 91.0694L180.711 91.5004C180.973 91.1708 181.316 91.006 181.738 91.006C182.463 91.006 182.829 91.4149 182.835 92.2327V94.499H182.249V92.2295C182.246 91.9822 182.189 91.7995 182.077 91.6811C181.968 91.5628 181.795 91.5036 181.561 91.5036C181.371 91.5036 181.204 91.5543 181.06 91.6558C180.916 91.7572 180.804 91.8903 180.724 92.0552V94.499H180.138V91.0694H180.692ZM183.577 92.7557C183.577 92.2295 183.701 91.8069 183.951 91.4878C184.2 91.1666 184.527 91.006 184.93 91.006C185.332 91.006 185.65 91.1433 185.884 91.418V89.6303H186.471V94.499H185.932L185.903 94.1313C185.669 94.4187 185.342 94.5624 184.924 94.5624C184.527 94.5624 184.202 94.3997 183.951 94.0743C183.701 93.7489 183.577 93.3241 183.577 92.8V92.7557ZM184.163 92.8222C184.163 93.2111 184.243 93.5153 184.404 93.7351C184.565 93.9549 184.786 94.0648 185.07 94.0648C185.442 94.0648 185.713 93.8978 185.884 93.5639V91.9886C185.709 91.6653 185.439 91.5036 185.076 91.5036C184.789 91.5036 184.565 91.6146 184.404 91.8364C184.243 92.0583 184.163 92.3869 184.163 92.8222ZM187.228 92.7525C187.228 92.4165 187.294 92.1143 187.425 91.8459C187.558 91.5776 187.742 91.3705 187.976 91.2247C188.213 91.0789 188.482 91.006 188.785 91.006C189.252 91.006 189.629 91.1676 189.916 91.4909C190.206 91.8143 190.35 92.2443 190.35 92.781V92.8222C190.35 93.1561 190.286 93.4562 190.157 93.7224C190.03 93.9866 189.848 94.1926 189.609 94.3405C189.372 94.4885 189.099 94.5624 188.791 94.5624C188.326 94.5624 187.949 94.4008 187.659 94.0774C187.372 93.7541 187.228 93.3262 187.228 92.7937V92.7525ZM187.818 92.8222C187.818 93.2026 187.906 93.508 188.081 93.7383C188.258 93.9686 188.495 94.0838 188.791 94.0838C189.089 94.0838 189.326 93.9676 189.501 93.7351C189.676 93.5006 189.764 93.173 189.764 92.7525C189.764 92.3764 189.674 92.0721 189.495 91.8396C189.317 91.605 189.08 91.4878 188.785 91.4878C188.495 91.4878 188.262 91.6029 188.084 91.8333C187.907 92.0636 187.818 92.3933 187.818 92.8222ZM194.122 93.6907L194.782 91.0694H195.368L194.37 94.499H193.894L193.061 91.8998L192.249 94.499H191.774L190.778 91.0694H191.362L192.037 93.6369L192.836 91.0694H193.308L194.122 93.6907ZM50.2541 101.461H48.3174V103.499H47.7088V98.8839H50.5679V99.3847H48.3174V100.963H50.2541V101.461ZM52.5585 103.562C52.0936 103.562 51.7153 103.41 51.4237 103.106C51.1321 102.8 50.9863 102.391 50.9863 101.879V101.772C50.9863 101.431 51.0507 101.128 51.1797 100.862C51.3107 100.593 51.4924 100.384 51.7248 100.234C51.9594 100.082 52.213 100.006 52.4856 100.006C52.9315 100.006 53.278 100.153 53.5253 100.447C53.7725 100.74 53.8961 101.161 53.8961 101.708V101.952H51.5727C51.5812 102.29 51.6794 102.564 51.8675 102.773C52.0577 102.98 52.2986 103.084 52.5902 103.084C52.7973 103.084 52.9727 103.042 53.1164 102.957C53.2601 102.872 53.3858 102.76 53.4936 102.621L53.8517 102.9C53.5644 103.342 53.1333 103.562 52.5585 103.562ZM52.4856 100.488C52.2489 100.488 52.0503 100.574 51.8897 100.748C51.7291 100.919 51.6298 101.16 51.5917 101.47H53.3097V101.426C53.2928 101.128 53.2125 100.898 53.0688 100.735C52.9251 100.57 52.7307 100.488 52.4856 100.488ZM56.695 103.499C56.6612 103.431 56.6337 103.311 56.6126 103.138C56.34 103.421 56.0146 103.562 55.6363 103.562C55.2982 103.562 55.0203 103.467 54.8027 103.277C54.5871 103.085 54.4794 102.842 54.4794 102.548C54.4794 102.191 54.6146 101.914 54.8851 101.718C55.1577 101.519 55.5402 101.42 56.0325 101.42H56.6031V101.15C56.6031 100.945 56.5418 100.783 56.4192 100.662C56.2967 100.54 56.116 100.478 55.8772 100.478C55.668 100.478 55.4926 100.531 55.351 100.637C55.2095 100.742 55.1387 100.87 55.1387 101.02H54.5491C54.5491 100.849 54.6093 100.684 54.7298 100.526C54.8523 100.365 55.0172 100.238 55.2242 100.145C55.4334 100.052 55.6627 100.006 55.9121 100.006C56.3072 100.006 56.6168 100.105 56.8408 100.304C57.0648 100.5 57.181 100.772 57.1895 101.119V102.697C57.1895 103.012 57.2296 103.262 57.3099 103.448V103.499H56.695ZM55.7219 103.052C55.9057 103.052 56.0801 103.005 56.2449 102.909C56.4097 102.814 56.5291 102.691 56.6031 102.539V101.835H56.1435C55.425 101.835 55.0658 102.045 55.0658 102.466C55.0658 102.65 55.127 102.793 55.2496 102.897C55.3722 103 55.5296 103.052 55.7219 103.052ZM58.9043 99.2389V100.069H59.5446V100.523H58.9043V102.65C58.9043 102.787 58.9328 102.89 58.9899 102.96C59.047 103.028 59.1442 103.062 59.2815 103.062C59.3491 103.062 59.4421 103.049 59.5605 103.024V103.499C59.4062 103.541 59.2562 103.562 59.1104 103.562C58.8483 103.562 58.6507 103.483 58.5176 103.325C58.3845 103.166 58.3179 102.941 58.3179 102.65V100.523H57.6935V100.069H58.3179V99.2389H58.9043ZM62.3498 103.16C62.1216 103.428 61.7867 103.562 61.345 103.562C60.9794 103.562 60.7005 103.457 60.5082 103.245C60.318 103.032 60.2219 102.717 60.2198 102.301V100.069H60.8062V102.285C60.8062 102.805 61.0175 103.065 61.4401 103.065C61.8881 103.065 62.1861 102.898 62.334 102.564V100.069H62.9204V103.499H62.3625L62.3498 103.16ZM65.472 100.596C65.3833 100.581 65.2871 100.573 65.1836 100.573C64.799 100.573 64.538 100.737 64.4007 101.065V103.499H63.8143V100.069H64.3848L64.3943 100.466C64.5866 100.159 64.8592 100.006 65.2121 100.006C65.3262 100.006 65.4129 100.021 65.472 100.05V100.596ZM67.3739 103.562C66.909 103.562 66.5307 103.41 66.2391 103.106C65.9475 102.8 65.8017 102.391 65.8017 101.879V101.772C65.8017 101.431 65.8661 101.128 65.995 100.862C66.1261 100.593 66.3078 100.384 66.5402 100.234C66.7748 100.082 67.0284 100.006 67.301 100.006C67.7468 100.006 68.0934 100.153 68.3406 100.447C68.5879 100.74 68.7115 101.161 68.7115 101.708V101.952H66.3881C66.3965 102.29 66.4948 102.564 66.6829 102.773C66.8731 102.98 67.114 103.084 67.4056 103.084C67.6127 103.084 67.7881 103.042 67.9317 102.957C68.0754 102.872 68.2012 102.76 68.3089 102.621L68.6671 102.9C68.3797 103.342 67.9487 103.562 67.3739 103.562ZM67.301 100.488C67.0643 100.488 66.8657 100.574 66.7051 100.748C66.5445 100.919 66.4451 101.16 66.4071 101.47H68.1251V101.426C68.1082 101.128 68.0279 100.898 67.8842 100.735C67.7405 100.57 67.5461 100.488 67.301 100.488ZM71.3899 102.589C71.3899 102.431 71.3297 102.308 71.2093 102.222C71.0909 102.133 70.8828 102.057 70.5848 101.993C70.289 101.93 70.0534 101.854 69.878 101.765C69.7047 101.676 69.5758 101.571 69.4913 101.448C69.4089 101.326 69.3676 101.18 69.3676 101.011C69.3676 100.73 69.486 100.492 69.7227 100.298C69.9614 100.103 70.2657 100.006 70.6355 100.006C71.0244 100.006 71.3392 100.106 71.5801 100.307C71.8231 100.508 71.9446 100.765 71.9446 101.077H71.3551C71.3551 100.917 71.2864 100.778 71.149 100.662C71.0138 100.546 70.8426 100.488 70.6355 100.488C70.4221 100.488 70.2552 100.534 70.1347 100.627C70.0143 100.72 69.954 100.842 69.954 100.992C69.954 101.133 70.01 101.24 70.122 101.312C70.234 101.384 70.4358 101.452 70.7275 101.518C71.0212 101.583 71.2589 101.662 71.4407 101.752C71.6224 101.843 71.7566 101.953 71.8432 102.082C71.932 102.209 71.9763 102.364 71.9763 102.548C71.9763 102.855 71.8538 103.101 71.6087 103.287C71.3635 103.47 71.0455 103.562 70.6546 103.562C70.3798 103.562 70.1368 103.514 69.9255 103.417C69.7142 103.319 69.5483 103.184 69.4279 103.011C69.3095 102.835 69.2504 102.646 69.2504 102.443H69.8368C69.8473 102.64 69.9255 102.796 70.0713 102.913C70.2192 103.027 70.4137 103.084 70.6546 103.084C70.8764 103.084 71.0539 103.039 71.1871 102.951C71.3223 102.86 71.3899 102.739 71.3899 102.589ZM72.7529 103.192C72.7529 103.09 72.7825 103.006 72.8417 102.938C72.903 102.87 72.9938 102.837 73.1143 102.837C73.2347 102.837 73.3256 102.87 73.3869 102.938C73.4503 103.006 73.482 103.09 73.482 103.192C73.482 103.289 73.4503 103.37 73.3869 103.436C73.3256 103.501 73.2347 103.534 73.1143 103.534C72.9938 103.534 72.903 103.501 72.8417 103.436C72.7825 103.37 72.7529 103.289 72.7529 103.192Z" fill="black"/>
<rect x="20.5574" y="125.045" width="91.5321" height="16.8783" fill="#0579CE"/>
<rect x="20.5574" y="125.045" width="91.5321" height="16.8783" fill="#0579CE"/>
<rect x="20.5574" y="125.045" width="91.5321" height="16.8783" fill="#0579CE"/>
<rect x="20.5574" y="125.045" width="91.5321" height="16.8783" fill="#0579CE"/>
<path d="M58.9821 136.589H58.0311V131.974H58.9821V136.589ZM60.6493 133.16L60.6779 133.556C60.923 133.25 61.2516 133.096 61.6637 133.096C62.0271 133.096 62.2976 133.203 62.4751 133.416C62.6526 133.63 62.7435 133.949 62.7477 134.374V136.589H61.8317V134.396C61.8317 134.201 61.7894 134.061 61.7049 133.974C61.6203 133.886 61.4798 133.841 61.2833 133.841C61.0255 133.841 60.8321 133.951 60.7032 134.171V136.589H59.7872V133.16H60.6493ZM65.3025 135.642C65.3025 135.53 65.2465 135.442 65.1345 135.379C65.0246 135.313 64.8471 135.255 64.602 135.204C63.7863 135.033 63.3785 134.686 63.3785 134.165C63.3785 133.86 63.5042 133.607 63.7557 133.404C64.0093 133.199 64.34 133.096 64.7478 133.096C65.1831 133.096 65.5307 133.199 65.7907 133.404C66.0527 133.609 66.1837 133.875 66.1837 134.203H65.2677C65.2677 134.072 65.2254 133.964 65.1409 133.879C65.0563 133.793 64.9243 133.749 64.7446 133.749C64.5904 133.749 64.471 133.784 64.3865 133.854C64.3019 133.924 64.2597 134.012 64.2597 134.12C64.2597 134.222 64.3072 134.304 64.4023 134.367C64.4995 134.429 64.6622 134.483 64.8905 134.529C65.1187 134.573 65.311 134.624 65.4673 134.681C65.9513 134.859 66.1932 135.166 66.1932 135.604C66.1932 135.916 66.059 136.17 65.7907 136.364C65.5223 136.557 65.1757 136.653 64.751 136.653C64.4636 136.653 64.2079 136.602 63.9839 136.501C63.762 136.397 63.5877 136.257 63.4609 136.079C63.3341 135.899 63.2707 135.706 63.2707 135.499H64.1392C64.1477 135.662 64.2079 135.786 64.3199 135.873C64.4319 135.96 64.5819 136.003 64.77 136.003C64.9454 136.003 65.0775 135.97 65.1662 135.905C65.2571 135.837 65.3025 135.749 65.3025 135.642ZM67.8827 132.317V133.16H68.4691V133.832H67.8827V135.543C67.8827 135.67 67.907 135.761 67.9556 135.816C68.0042 135.871 68.0972 135.898 68.2345 135.898C68.336 135.898 68.4258 135.891 68.504 135.876V136.57C68.3243 136.625 68.1394 136.653 67.9493 136.653C67.3069 136.653 66.9793 136.328 66.9666 135.68V133.832H66.4658V133.16H66.9666V132.317H67.8827ZM70.9669 136.589C70.9246 136.507 70.894 136.404 70.8749 136.282C70.6531 136.529 70.3646 136.653 70.0096 136.653C69.6736 136.653 69.3947 136.556 69.1728 136.361C68.953 136.167 68.8431 135.922 68.8431 135.626C68.8431 135.262 68.9773 134.983 69.2457 134.789C69.5162 134.595 69.906 134.496 70.4153 134.494H70.8369V134.298C70.8369 134.139 70.7957 134.012 70.7133 133.917C70.633 133.822 70.5051 133.775 70.3297 133.775C70.1755 133.775 70.054 133.812 69.9652 133.886C69.8786 133.96 69.8353 134.061 69.8353 134.19H68.9192C68.9192 133.991 68.9805 133.807 69.103 133.638C69.2256 133.469 69.3989 133.337 69.6229 133.242C69.8469 133.145 70.0983 133.096 70.3773 133.096C70.7999 133.096 71.1349 133.203 71.3821 133.416C71.6314 133.628 71.7561 133.926 71.7561 134.31V135.797C71.7582 136.122 71.8037 136.369 71.8924 136.535V136.589H70.9669ZM70.2093 135.952C70.3445 135.952 70.4692 135.923 70.5833 135.863C70.6974 135.802 70.782 135.721 70.8369 135.619V135.03H70.4946C70.036 135.03 69.7919 135.188 69.7624 135.505L69.7592 135.559C69.7592 135.673 69.7993 135.767 69.8796 135.841C69.9599 135.915 70.0698 135.952 70.2093 135.952ZM73.4266 136.589H72.5074V131.721H73.4266V136.589ZM75.1509 136.589H74.2317V131.721H75.1509V136.589Z" fill="white"/>
<rect x="116.635" y="125.045" width="91.5321" height="16.8783" fill="#EFEFEF"/>
<path d="M153.905 136.589H152.954L151.103 133.553V136.589H150.152V131.974H151.103L152.957 135.017V131.974H153.905V136.589ZM154.533 134.843C154.533 134.503 154.598 134.199 154.729 133.933C154.86 133.667 155.048 133.461 155.293 133.315C155.541 133.169 155.827 133.096 156.152 133.096C156.615 133.096 156.992 133.238 157.284 133.521C157.578 133.804 157.741 134.189 157.775 134.675L157.782 134.909C157.782 135.436 157.635 135.858 157.341 136.177C157.047 136.494 156.653 136.653 156.159 136.653C155.664 136.653 155.269 136.494 154.973 136.177C154.68 135.86 154.533 135.429 154.533 134.884V134.843ZM155.449 134.909C155.449 135.235 155.51 135.484 155.633 135.657C155.755 135.829 155.931 135.914 156.159 135.914C156.381 135.914 156.554 135.83 156.679 135.661C156.803 135.489 156.866 135.217 156.866 134.843C156.866 134.524 156.803 134.276 156.679 134.101C156.554 133.926 156.378 133.838 156.152 133.838C155.928 133.838 155.755 133.926 155.633 134.101C155.51 134.274 155.449 134.544 155.449 134.909ZM159.443 132.317V133.16H160.029V133.832H159.443V135.543C159.443 135.67 159.467 135.761 159.515 135.816C159.564 135.871 159.657 135.898 159.794 135.898C159.896 135.898 159.986 135.891 160.064 135.876V136.57C159.884 136.625 159.699 136.653 159.509 136.653C158.867 136.653 158.539 136.328 158.527 135.68V133.832H158.026V133.16H158.527V132.317H159.443ZM165.969 136.589H165.018L163.167 133.553V136.589H162.216V131.974H163.167L165.021 135.017V131.974H165.969V136.589ZM166.597 134.843C166.597 134.503 166.662 134.199 166.793 133.933C166.924 133.667 167.112 133.461 167.357 133.315C167.605 133.169 167.891 133.096 168.216 133.096C168.679 133.096 169.056 133.238 169.348 133.521C169.642 133.804 169.806 134.189 169.839 134.675L169.846 134.909C169.846 135.436 169.699 135.858 169.405 136.177C169.111 136.494 168.717 136.653 168.223 136.653C167.728 136.653 167.333 136.494 167.037 136.177C166.744 135.86 166.597 135.429 166.597 134.884V134.843ZM167.513 134.909C167.513 135.235 167.574 135.484 167.697 135.657C167.819 135.829 167.995 135.914 168.223 135.914C168.445 135.914 168.618 135.83 168.743 135.661C168.867 135.489 168.93 135.217 168.93 134.843C168.93 134.524 168.867 134.276 168.743 134.101C168.618 133.926 168.443 133.838 168.216 133.838C167.992 133.838 167.819 133.926 167.697 134.101C167.574 134.274 167.513 134.544 167.513 134.909ZM173.393 135.344L173.843 133.16H174.727L173.852 136.589H173.085L172.435 134.431L171.786 136.589H171.022L170.147 133.16H171.031L171.478 135.34L172.106 133.16H172.768L173.393 135.344Z" fill="black"/>
</g>
</g>
<defs>
<filter id="filter0_d" x="0.281437" y="0" width="227.437" height="209.437" filterUnits="userSpaceOnUse" color-interpolation-filters="sRGB">
<feFlood flood-opacity="0" result="BackgroundImageFix"/>
<feColorMatrix in="SourceAlpha" type="matrix" values="0 0 0 0 0 0 0 0 0 0 0 0 0 0 0 0 0 0 127 0"/>
<feOffset dy="2.71856"/>
<feGaussianBlur stdDeviation="1.35928"/>
<feColorMatrix type="matrix" values="0 0 0 0 0 0 0 0 0 0 0 0 0 0 0 0 0 0 0.25 0"/>
<feBlend mode="normal" in2="BackgroundImageFix" result="effect1_dropShadow"/>
<feBlend mode="normal" in="SourceGraphic" in2="effect1_dropShadow" result="shape"/>
</filter>
<filter id="filter1_d" x="4.36078" y="-2.54865" width="292.925" height="25.8263" filterUnits="userSpaceOnUse" color-interpolation-filters="sRGB">
<feFlood flood-opacity="0" result="BackgroundImageFix"/>
<feColorMatrix in="SourceAlpha" type="matrix" values="0 0 0 0 0 0 0 0 0 0 0 0 0 0 0 0 0 0 127 0"/>
<feOffset dy="0.16991"/>
<feGaussianBlur stdDeviation="1.35928"/>
<feColorMatrix type="matrix" values="0 0 0 0 0 0 0 0 0 0 0 0 0 0 0 0 0 0 0.1 0"/>
<feBlend mode="normal" in2="BackgroundImageFix" result="effect1_dropShadow"/>
<feBlend mode="normal" in="SourceGraphic" in2="effect1_dropShadow" result="shape"/>
</filter>
<filter id="filter2_d" x="-57.7186" y="1.96108" width="285.437" height="45.4371" filterUnits="userSpaceOnUse" color-interpolation-filters="sRGB">
<feFlood flood-opacity="0" result="BackgroundImageFix"/>
<feColorMatrix in="SourceAlpha" type="matrix" values="0 0 0 0 0 0 0 0 0 0 0 0 0 0 0 0 0 0 127 0"/>
<feOffset dy="0.679641"/>
<feGaussianBlur stdDeviation="1.35928"/>
<feColorMatrix type="matrix" values="0 0 0 0 0 0 0 0 0 0 0 0 0 0 0 0 0 0 0.15 0"/>
<feBlend mode="normal" in2="BackgroundImageFix" result="effect1_dropShadow"/>
<feBlend mode="normal" in="SourceGraphic" in2="effect1_dropShadow" result="shape"/>
</filter>
<filter id="filter3_d" x="-10.7186" y="22.4279" width="234.476" height="19.0299" filterUnits="userSpaceOnUse" color-interpolation-filters="sRGB">
<feFlood flood-opacity="0" result="BackgroundImageFix"/>
<feColorMatrix in="SourceAlpha" type="matrix" values="0 0 0 0 0 0 0 0 0 0 0 0 0 0 0 0 0 0 127 0"/>
<feOffset dy="0.679641"/>
<feGaussianBlur stdDeviation="1.35928"/>
<feColorMatrix type="matrix" values="0 0 0 0 0 0 0 0 0 0 0 0 0 0 0 0 0 0 0.1 0"/>
<feBlend mode="normal" in2="BackgroundImageFix" result="effect1_dropShadow"/>
<feBlend mode="normal" in="SourceGraphic" in2="effect1_dropShadow" result="shape"/>
</filter>
<filter id="filter4_d" x="187.057" y="22.4279" width="21.7485" height="19.0299" filterUnits="userSpaceOnUse" color-interpolation-filters="sRGB">
<feFlood flood-opacity="0" result="BackgroundImageFix"/>
<feColorMatrix in="SourceAlpha" type="matrix" values="0 0 0 0 0 0 0 0 0 0 0 0 0 0 0 0 0 0 127 0"/>
<feOffset dy="0.679641"/>
<feGaussianBlur stdDeviation="1.35928"/>
<feColorMatrix type="matrix" values="0 0 0 0 0 0 0 0 0 0 0 0 0 0 0 0 0 0 0.1 0"/>
<feBlend mode="normal" in2="BackgroundImageFix" result="effect1_dropShadow"/>
<feBlend mode="normal" in="SourceGraphic" in2="effect1_dropShadow" result="shape"/>
</filter>
<filter id="filter5_d" x="5.40335" y="38" width="218.193" height="121.722" filterUnits="userSpaceOnUse" color-interpolation-filters="sRGB">
<feFlood flood-opacity="0" result="BackgroundImageFix"/>
<feColorMatrix in="SourceAlpha" type="matrix" values="0 0 0 0 0 0 0 0 0 0 0 0 0 0 0 0 0 0 127 0"/>
<feOffset dy="2.59665"/>
<feGaussianBlur stdDeviation="1.29833"/>
<feColorMatrix type="matrix" values="0 0 0 0 0 0 0 0 0 0 0 0 0 0 0 0 0 0 0.25 0"/>
<feBlend mode="normal" in2="BackgroundImageFix" result="effect1_dropShadow"/>
<feBlend mode="normal" in="SourceGraphic" in2="effect1_dropShadow" result="shape"/>
</filter>
<clipPath id="clip0">
<rect x="3" width="222" height="204" rx="2.71856" fill="white"/>
</clipPath>
</defs>
</svg>
