<svg id="svg" version="1.1" xmlns="http://www.w3.org/2000/svg" xmlns:xlink="http://www.w3.org/1999/xlink" width="400" height="450.73170731707313" viewBox="0, 0, 400,450.73170731707313"><g id="svgg"><path id="path0" d="M180.488 20.756 C 116.773 26.987,61.480 60.151,26.004 113.415 C 16.578 127.566,4.087 152.561,5.883 153.680 C 8.035 155.021,37.180 166.421,37.506 166.050 C 37.718 165.808,38.724 163.634,39.741 161.220 C 78.863 68.314,188.414 28.270,278.553 73.926 C 301.336 85.467,323.143 103.557,337.768 123.049 L 339.140 124.878 304.692 124.878 L 270.244 124.878 270.244 142.439 L 270.244 160.000 331.707 160.000 L 393.171 160.000 393.171 98.780 L 393.171 37.561 375.610 37.561 L 358.049 37.561 358.049 64.435 L 358.049 91.310 349.390 82.572 C 304.663 37.437,242.512 14.690,180.488 20.756 M362.254 295.277 C 361.893 296.131,360.994 298.256,360.257 300.000 C 316.524 403.500,185.982 438.035,95.366 370.078 C 83.166 360.929,60.976 338.648,60.976 335.548 C 60.976 335.309,76.218 335.122,95.610 335.122 L 130.244 335.122 130.244 317.805 L 130.244 300.488 68.780 300.488 L 7.317 300.488 7.317 361.707 L 7.317 422.927 24.878 422.927 L 42.439 422.927 42.439 396.042 L 42.439 369.157 50.611 377.384 C 156.594 484.075,333.716 450.643,392.734 312.808 C 394.065 309.699,394.983 307.002,394.772 306.815 C 394.562 306.628,390.439 304.878,385.610 302.927 C 380.780 300.975,373.698 298.106,369.871 296.552 L 362.912 293.726 362.254 295.277 " stroke="none" fill="#000000" fill-rule="evenodd"></path></g></svg>