<svg width="42" height="41" viewBox="0 0 42 41" fill="none" xmlns="http://www.w3.org/2000/svg">
<path d="M21 0C9.40312 0 0 9.41718 0 21.0216C0 30.3107 6.01875 38.1812 14.3625 40.9634C14.4795 40.9882 14.599 41.0005 14.7188 41C15.4969 41 15.7969 40.4417 15.7969 39.9567C15.7969 39.4533 15.7781 38.1355 15.7688 36.3783C15.0741 36.5373 14.3635 36.6202 13.65 36.6254C9.60938 36.6254 8.69063 33.5596 8.69063 33.5596C7.73438 31.1344 6.35625 30.4846 6.35625 30.4846C4.52813 29.2308 6.34687 29.1942 6.4875 29.1942H6.49688C8.60625 29.3772 9.7125 31.3723 9.7125 31.3723C10.7625 33.1661 12.1688 33.6694 13.425 33.6694C14.2557 33.6532 15.0735 33.4661 15.825 33.1203C16.0125 31.7658 16.5562 30.8415 17.1562 30.3107C12.4969 29.7799 7.59375 27.977 7.59375 19.9234C7.59375 17.6263 8.40938 15.7502 9.75 14.2859C9.53438 13.7551 8.8125 11.6136 9.95625 8.72165C10.1097 8.68581 10.2674 8.67042 10.425 8.67589C11.1844 8.67589 12.9 8.95959 15.7313 10.8815C19.1714 9.94186 22.8098 9.94186 26.25 10.8815C29.0813 8.95959 30.7969 8.67589 31.5563 8.67589C31.7139 8.67042 31.8716 8.68581 32.025 8.72165C33.1688 11.6136 32.4469 13.7551 32.2313 14.2859C33.5719 15.7594 34.3875 17.6355 34.3875 19.9234C34.3875 27.9953 29.475 29.7707 24.7969 30.2924C25.5469 30.9422 26.2219 32.2234 26.2219 34.1819C26.2219 36.9915 26.1938 39.2611 26.1938 39.9475C26.1938 40.4417 26.4844 41 27.2625 41C27.3885 41.0005 27.5141 40.9883 27.6375 40.9634C35.9906 38.1812 42 30.3016 42 21.0216C42 9.41718 32.5969 0 21 0Z" fill="#292C3A"/>
</svg>
