<svg width="203" height="203" viewBox="0 0 203 203" fill="none" xmlns="http://www.w3.org/2000/svg">
<path d="M97.5969 39.3113C99.8275 38.0309 102.57 38.0309 104.801 39.3113L152.948 66.9499C155.196 68.24 156.581 70.6333 156.581 73.2246V128.4C156.581 130.991 155.196 133.385 152.948 134.675L104.801 162.313C102.57 163.594 99.8275 163.594 97.5969 162.313L49.4493 134.675C47.202 133.385 45.8162 130.991 45.8162 128.4V73.2246C45.8162 70.6333 47.202 68.2399 49.4493 66.9499L97.5969 39.3113Z" fill="url(#paint0_linear_2311_42842)" stroke="url(#paint1_linear_2311_42842)" stroke-width="6.02917"/>
<path d="M97.5969 39.3113C99.8275 38.0309 102.57 38.0309 104.801 39.3113L152.948 66.9499C155.196 68.24 156.581 70.6333 156.581 73.2246V128.4C156.581 130.991 155.196 133.385 152.948 134.675L104.801 162.313C102.57 163.594 99.8275 163.594 97.5969 162.313L49.4493 134.675C47.202 133.385 45.8162 130.991 45.8162 128.4V73.2246C45.8162 70.6333 47.202 68.2399 49.4493 66.9499L97.5969 39.3113Z" stroke="url(#paint2_linear_2311_42842)" stroke-width="6.02917"/>
<path d="M54.5449 76.347L55.0763 104.002L113.254 59.0504L98.7843 50.2725L54.5449 76.347Z" fill="url(#paint3_linear_2311_42842)" fill-opacity="0.16"/>
<path opacity="0.2" d="M101.274 153.811V51.7346L146.203 74.3597L147.224 128.818L101.274 153.811Z" fill="url(#paint4_linear_2311_42842)"/>
<ellipse rx="0.427643" ry="0.425923" transform="matrix(0.922889 0.385066 -0.38885 0.921301 96.7051 147.944)" fill="white"/>
<ellipse rx="0.427643" ry="0.425923" transform="matrix(0.922889 0.385066 -0.38885 0.921301 96.7051 147.944)" fill="white"/>
<ellipse rx="0.427643" ry="0.425923" transform="matrix(0.922889 0.385066 -0.38885 0.921301 70.753 69.6541)" fill="white"/>
<ellipse rx="0.427643" ry="0.425923" transform="matrix(0.922889 0.385066 -0.38885 0.921301 70.753 69.6541)" fill="white"/>
<ellipse rx="0.427643" ry="0.425923" transform="matrix(0.922889 0.385066 -0.38885 0.921301 99.1123 53.7944)" fill="white"/>
<ellipse rx="0.427643" ry="0.425923" transform="matrix(0.922889 0.385066 -0.38885 0.921301 99.1123 53.7944)" fill="white"/>
<ellipse rx="0.427643" ry="0.425923" transform="matrix(0.922889 0.385066 -0.38885 0.921301 54.0503 76.2254)" fill="white"/>
<ellipse rx="0.427643" ry="0.425923" transform="matrix(0.922889 0.385066 -0.38885 0.921301 54.0503 76.2254)" fill="white"/>
<ellipse rx="0.427411" ry="0.426157" transform="matrix(-0.870427 -0.492297 0.496595 -0.867982 106.425 55.8815)" fill="white"/>
<ellipse rx="0.427411" ry="0.426157" transform="matrix(-0.870427 -0.492297 0.496595 -0.867982 106.425 55.8815)" fill="white"/>
<ellipse rx="0.427411" ry="0.426157" transform="matrix(-0.870427 -0.492297 0.496595 -0.867982 125.479 110.617)" fill="white"/>
<ellipse rx="0.427411" ry="0.426157" transform="matrix(-0.870427 -0.492297 0.496595 -0.867982 125.479 110.617)" fill="white"/>
<ellipse rx="0.427411" ry="0.426157" transform="matrix(-0.870427 -0.492297 0.496595 -0.867982 125.479 110.617)" fill="white"/>
<ellipse rx="0.427411" ry="0.426157" transform="matrix(-0.870427 -0.492297 0.496595 -0.867982 125.479 110.617)" fill="white"/>
<ellipse rx="0.42741" ry="0.426156" transform="matrix(-0.870427 -0.492298 0.496594 -0.867983 64.6335 98.5066)" fill="white"/>
<ellipse rx="0.42741" ry="0.426156" transform="matrix(-0.870427 -0.492298 0.496594 -0.867983 64.6335 98.5066)" fill="white"/>
<ellipse rx="0.427411" ry="0.426157" transform="matrix(-0.870427 -0.492297 0.496595 -0.867982 129.393 130.197)" fill="white"/>
<ellipse rx="0.427411" ry="0.426157" transform="matrix(-0.870427 -0.492297 0.496595 -0.867982 129.393 130.197)" fill="white"/>
<ellipse rx="0.427411" ry="0.426157" transform="matrix(-0.870427 -0.492297 0.496595 -0.867982 124.636 66.509)" fill="white"/>
<ellipse rx="0.427411" ry="0.426157" transform="matrix(-0.870427 -0.492297 0.496595 -0.867982 124.636 66.509)" fill="white"/>
<ellipse rx="0.42741" ry="0.426156" transform="matrix(-0.870427 -0.492298 0.496594 -0.867983 95.176 92.4588)" fill="white"/>
<ellipse rx="0.42741" ry="0.426156" transform="matrix(-0.870427 -0.492298 0.496594 -0.867983 95.176 92.4588)" fill="white"/>
<ellipse rx="0.427411" ry="0.426157" transform="matrix(-0.870427 -0.492298 0.496595 -0.867983 59.8171 124.125)" fill="white"/>
<ellipse rx="0.427411" ry="0.426157" transform="matrix(-0.870427 -0.492298 0.496595 -0.867983 59.8171 124.125)" fill="white"/>
<ellipse rx="0.427412" ry="0.426157" transform="matrix(-0.870428 -0.492296 0.496596 -0.867982 95.1243 137.064)" fill="white"/>
<ellipse rx="0.427412" ry="0.426157" transform="matrix(-0.870428 -0.492296 0.496596 -0.867982 95.1243 137.064)" fill="white"/>
<ellipse rx="0.427411" ry="0.426157" transform="matrix(-0.870427 -0.492297 0.496595 -0.867982 89.5535 134.476)" fill="white"/>
<ellipse rx="0.427411" ry="0.426157" transform="matrix(-0.870427 -0.492297 0.496595 -0.867982 89.5535 134.476)" fill="white"/>
<ellipse rx="0.427409" ry="0.426156" transform="matrix(-0.870426 -0.492299 0.496593 -0.867984 146.969 86.3623)" fill="white"/>
<ellipse rx="0.427409" ry="0.426156" transform="matrix(-0.870426 -0.492299 0.496593 -0.867984 146.969 86.3623)" fill="white"/>
<ellipse rx="0.42741" ry="0.426156" transform="matrix(-0.870427 -0.492298 0.496594 -0.867983 92.3196 96.7135)" fill="white"/>
<ellipse rx="0.42741" ry="0.426156" transform="matrix(-0.870427 -0.492298 0.496594 -0.867983 92.3196 96.7135)" fill="white"/>
<g style="mix-blend-mode:multiply" filter="url(#filter0_d_2311_42842)">
<path d="M58.2381 105.692V98.2517L85.1405 88.6553V96.4187L66.0554 101.972L85.1405 107.525V115.288L58.2381 105.692ZM87.4515 125.855L106.806 82.1857H115.001L95.5923 125.855H87.4515ZM141.896 98.2517V105.692L114.994 115.288V107.525L134.079 101.972L114.994 96.4187V88.6553L141.896 98.2517Z" fill="url(#paint5_linear_2311_42842)"/>
</g>
<g filter="url(#filter1_d_2311_42842)">
<path d="M59.427 104.464V97.0238L86.3294 87.4274V95.1908L67.2444 100.744L86.3294 106.297V114.06L59.427 104.464ZM88.6405 124.627L107.995 80.9579H116.19L96.7813 124.627H88.6405ZM143.085 97.0238V104.464L116.183 114.06V106.297L135.268 100.744L116.183 95.1908V87.4274L143.085 97.0238Z" fill="url(#paint6_linear_2311_42842)"/>
</g>
<g filter="url(#filter2_d_2311_42842)">
<path d="M97.5969 39.3113C99.8275 38.0309 102.57 38.0309 104.801 39.3113L152.948 66.9499C155.196 68.24 156.581 70.6333 156.581 73.2246V128.4C156.581 130.991 155.196 133.385 152.948 134.675L104.801 162.313C102.57 163.594 99.8275 163.594 97.5969 162.313L49.4493 134.675C47.202 133.385 45.8162 130.991 45.8162 128.4V73.2246C45.8162 70.6333 47.202 68.2399 49.4493 66.9499L97.5969 39.3113Z" stroke="url(#paint7_linear_2311_42842)" stroke-width="6.02917"/>
</g>
<g filter="url(#filter3_d_2311_42842)">
<path d="M97.8054 40.2928C100.036 39.0124 102.779 39.0124 105.009 40.2928L153.157 67.9314C155.404 69.2215 156.79 71.6148 156.79 74.2061V129.381C156.79 131.973 155.404 134.366 153.157 135.656L105.009 163.295C102.779 164.575 100.036 164.575 97.8054 163.295L49.6578 135.656C47.4105 134.366 46.0247 131.973 46.0247 129.381V74.2061C46.0247 71.6148 47.4105 69.2215 49.6578 67.9314L97.8054 40.2928Z" stroke="url(#paint8_linear_2311_42842)" stroke-width="6.02917"/>
</g>
<defs>
<filter id="filter0_d_2311_42842" x="50.5369" y="78.8851" width="99.0605" height="59.0719" filterUnits="userSpaceOnUse" color-interpolation-filters="sRGB">
<feFlood flood-opacity="0" result="BackgroundImageFix"/>
<feColorMatrix in="SourceAlpha" type="matrix" values="0 0 0 0 0 0 0 0 0 0 0 0 0 0 0 0 0 0 127 0" result="hardAlpha"/>
<feOffset dy="4.40078"/>
<feGaussianBlur stdDeviation="3.85068"/>
<feColorMatrix type="matrix" values="0 0 0 0 0 0 0 0 0 0 0 0 0 0 0 0 0 0 0.28 0"/>
<feBlend mode="normal" in2="BackgroundImageFix" result="effect1_dropShadow_2311_42842"/>
<feBlend mode="normal" in="SourceGraphic" in2="effect1_dropShadow_2311_42842" result="shape"/>
</filter>
<filter id="filter1_d_2311_42842" x="51.7259" y="77.6573" width="99.0605" height="59.0719" filterUnits="userSpaceOnUse" color-interpolation-filters="sRGB">
<feFlood flood-opacity="0" result="BackgroundImageFix"/>
<feColorMatrix in="SourceAlpha" type="matrix" values="0 0 0 0 0 0 0 0 0 0 0 0 0 0 0 0 0 0 127 0" result="hardAlpha"/>
<feOffset dy="4.40078"/>
<feGaussianBlur stdDeviation="3.85068"/>
<feColorMatrix type="matrix" values="0 0 0 0 0 0 0 0 0 0 0 0 0 0 0 0 0 0 0.28 0"/>
<feBlend mode="normal" in2="BackgroundImageFix" result="effect1_dropShadow_2311_42842"/>
<feBlend mode="normal" in="SourceGraphic" in2="effect1_dropShadow_2311_42842" result="shape"/>
</filter>
<filter id="filter2_d_2311_42842" x="40.3901" y="35.3364" width="121.618" height="135.775" filterUnits="userSpaceOnUse" color-interpolation-filters="sRGB">
<feFlood flood-opacity="0" result="BackgroundImageFix"/>
<feColorMatrix in="SourceAlpha" type="matrix" values="0 0 0 0 0 0 0 0 0 0 0 0 0 0 0 0 0 0 127 0" result="hardAlpha"/>
<feOffset dy="2.41167"/>
<feGaussianBlur stdDeviation="1.20583"/>
<feColorMatrix type="matrix" values="0 0 0 0 0 0 0 0 0 0 0 0 0 0 0 0 0 0 0.25 0"/>
<feBlend mode="normal" in2="BackgroundImageFix" result="effect1_dropShadow_2311_42842"/>
<feBlend mode="normal" in="SourceGraphic" in2="effect1_dropShadow_2311_42842" result="shape"/>
</filter>
<filter id="filter3_d_2311_42842" x="40.5986" y="36.3179" width="121.618" height="135.775" filterUnits="userSpaceOnUse" color-interpolation-filters="sRGB">
<feFlood flood-opacity="0" result="BackgroundImageFix"/>
<feColorMatrix in="SourceAlpha" type="matrix" values="0 0 0 0 0 0 0 0 0 0 0 0 0 0 0 0 0 0 127 0" result="hardAlpha"/>
<feOffset dy="2.41167"/>
<feGaussianBlur stdDeviation="1.20583"/>
<feColorMatrix type="matrix" values="0 0 0 0 0 0 0 0 0 0 0 0 0 0 0 0 0 0 0.25 0"/>
<feBlend mode="normal" in2="BackgroundImageFix" result="effect1_dropShadow_2311_42842"/>
<feBlend mode="normal" in="SourceGraphic" in2="effect1_dropShadow_2311_42842" result="shape"/>
</filter>
<linearGradient id="paint0_linear_2311_42842" x1="101.199" y1="33.7677" x2="101.199" y2="167.857" gradientUnits="userSpaceOnUse">
<stop stop-color="#080E77"/>
<stop offset="1" stop-color="#7743CA"/>
</linearGradient>
<linearGradient id="paint1_linear_2311_42842" x1="101.199" y1="33.7677" x2="101.199" y2="167.857" gradientUnits="userSpaceOnUse">
<stop stop-color="white"/>
<stop offset="1" stop-color="#D7D9EA"/>
</linearGradient>
<linearGradient id="paint2_linear_2311_42842" x1="101.199" y1="33.7677" x2="101.199" y2="167.857" gradientUnits="userSpaceOnUse">
<stop stop-color="white"/>
<stop offset="1" stop-color="#D7D9EA"/>
</linearGradient>
<linearGradient id="paint3_linear_2311_42842" x1="65.9111" y1="84.8205" x2="107.444" y2="61.0796" gradientUnits="userSpaceOnUse">
<stop stop-color="#C4C4C4"/>
<stop offset="1" stop-color="#C4C4C4" stop-opacity="0"/>
</linearGradient>
<linearGradient id="paint4_linear_2311_42842" x1="124.249" y1="51.7346" x2="121.886" y2="146.502" gradientUnits="userSpaceOnUse">
<stop offset="0.289595" stop-color="#2C2B2B"/>
<stop offset="1" stop-color="#2C2B2B" stop-opacity="0.54"/>
</linearGradient>
<linearGradient id="paint5_linear_2311_42842" x1="100.998" y1="58.3019" x2="100.998" y2="154.147" gradientUnits="userSpaceOnUse">
<stop stop-color="white"/>
<stop offset="1" stop-color="white" stop-opacity="0.65"/>
</linearGradient>
<linearGradient id="paint6_linear_2311_42842" x1="102.187" y1="57.0741" x2="102.187" y2="152.919" gradientUnits="userSpaceOnUse">
<stop stop-color="white"/>
<stop offset="1" stop-color="white" stop-opacity="0.65"/>
</linearGradient>
<linearGradient id="paint7_linear_2311_42842" x1="101.199" y1="33.7677" x2="101.199" y2="167.857" gradientUnits="userSpaceOnUse">
<stop stop-color="white"/>
<stop offset="1" stop-color="#D7D9EA"/>
</linearGradient>
<linearGradient id="paint8_linear_2311_42842" x1="43.9001" y1="55.1648" x2="157.335" y2="150.609" gradientUnits="userSpaceOnUse">
<stop stop-color="white"/>
<stop offset="1" stop-color="white" stop-opacity="0"/>
</linearGradient>
</defs>
</svg>
