<svg width="13" height="12" viewBox="0 0 13 12" fill="none" xmlns="http://www.w3.org/2000/svg">
<path d="M5.78131 0.182938C6.45546 -0.190449 7.29701 0.0265122 7.71052 0.662868L7.7642 0.752229L12.7947 9.8344C12.9145 10.0507 12.9773 10.2939 12.9773 10.5412C12.9773 11.3133 12.3776 11.9453 11.6185 11.9966L11.5186 12H1.45904C1.21182 12 0.968655 11.9372 0.75238 11.8174C0.0782065 11.4441 -0.184399 10.6156 0.135591 9.92744L0.182856 9.83453L5.21194 0.752378C5.34452 0.512906 5.54181 0.315576 5.78131 0.182938ZM6.48924 8.75381C6.13167 8.75381 5.8418 9.04368 5.8418 9.40124C5.8418 9.75887 6.13167 10.0487 6.48924 10.0487C6.84686 10.0487 7.13674 9.75887 7.13674 9.40124C7.13674 9.04368 6.84686 8.75381 6.48924 8.75381ZM6.48787 3.56463C6.15534 3.56476 5.88141 3.81514 5.84407 4.1376L5.83973 4.21321L5.84089 7.4555L5.8453 7.5311C5.88291 7.85352 6.15703 8.10371 6.4895 8.10358C6.82197 8.10352 7.09596 7.85313 7.1333 7.53064L7.13758 7.45505L7.13641 4.21274L7.13207 4.13713C7.09447 3.8147 6.82035 3.56452 6.48787 3.56463Z" fill="#EBC157"/>
</svg>
