<svg id="svg" xmlns="http://www.w3.org/2000/svg" xmlns:xlink="http://www.w3.org/1999/xlink" width="230" height="441" viewBox="0, 0, 400,765.6249999999999"><g id="svgg"><path id="path0" d="M52.344 1.174 C 27.137 6.273,7.051 26.132,2.006 50.944 C 0.243 59.615,0.122 703.461,1.882 712.627 C 6.605 737.221,24.838 756.934,49.219 763.804 C 57.116 766.029,342.884 766.029,350.781 763.804 C 375.162 756.934,393.395 737.221,398.118 712.627 C 399.878 703.461,399.757 59.615,397.994 50.944 C 392.887 25.826,372.659 6.056,347.002 1.106 C 338.812 -0.474,60.173 -0.410,52.344 1.174 M249.227 51.758 C 256.913 56.989,257.376 66.991,250.186 72.474 L 247.387 74.609 204.610 74.609 C 162.430 74.609,161.803 74.587,159.628 72.975 C 153.708 68.589,152.040 60.921,155.803 55.385 C 159.542 49.881,158.115 50.038,204.767 50.018 L 246.644 50.000 249.227 51.758 M368.750 375.391 L 368.750 628.125 200.000 628.125 L 31.250 628.125 31.250 375.391 L 31.250 122.656 200.000 122.656 L 368.750 122.656 368.750 375.391 M211.804 663.297 C 242.203 669.062,252.948 707.868,229.962 728.876 C 205.745 751.010,166.406 733.620,166.406 700.781 C 166.406 676.775,188.160 658.813,211.804 663.297 " stroke="none" fill="#D8D8D8" fill-rule="evenodd"></path></g></svg>