<svg id="svg" version="1.1" xmlns="http://www.w3.org/2000/svg" xmlns:xlink="http://www.w3.org/1999/xlink" width="250" height="30" viewBox="0, 0, 400,48.06408544726301"><g id="svgg"><path id="path0" d="M326.302 5.048 L 326.302 8.211 324.700 6.676 C 323.818 5.831,323.097 5.381,323.097 5.675 C 323.097 5.968,323.811 6.892,324.682 7.727 L 326.267 9.245 324.649 11.087 C 323.759 12.100,323.187 13.084,323.378 13.274 C 323.568 13.463,324.162 13.077,324.698 12.417 C 326.101 10.686,326.302 10.886,326.302 14.016 L 326.302 16.817 328.487 14.497 L 330.672 12.177 329.296 10.741 L 327.921 9.305 329.371 7.855 L 330.821 6.404 328.561 4.145 L 326.302 1.885 326.302 5.048 M20.294 9.346 C 20.294 14.401,20.298 14.419,21.629 14.419 C 22.959 14.419,22.964 14.401,22.964 9.346 C 22.964 4.290,22.959 4.272,21.629 4.272 C 20.298 4.272,20.294 4.290,20.294 9.346 M30.106 5.831 C 28.894 6.381,27.748 7.080,27.561 7.384 C 26.876 8.492,28.301 8.549,30.273 7.492 C 31.384 6.896,33.142 6.409,34.179 6.409 C 35.216 6.409,36.973 6.896,38.085 7.492 C 40.057 8.549,41.482 8.492,40.797 7.384 C 39.399 5.121,33.542 4.270,30.106 5.831 M328.285 7.324 C 327.421 8.189,327.370 8.138,327.370 6.409 C 327.370 4.679,327.421 4.628,328.285 5.493 C 329.150 6.358,329.150 6.459,328.285 7.324 M177.170 5.917 C 176.082 6.551,175.890 9.589,176.876 10.574 C 177.689 11.387,180.104 11.405,180.905 10.604 C 181.363 10.145,181.442 10.274,181.221 11.121 C 180.725 13.015,179.603 13.619,178.087 12.808 C 176.545 11.983,175.789 12.437,176.758 13.605 C 177.804 14.865,180.824 14.642,181.812 13.232 C 184.669 9.153,181.146 3.601,177.170 5.917 M190.426 8.481 C 187.971 12.522,188.005 12.817,190.921 12.817 C 192.701 12.817,193.324 13.025,193.324 13.618 C 193.324 14.059,193.565 14.419,193.858 14.419 C 194.152 14.419,194.393 14.059,194.393 13.618 C 194.393 13.178,194.753 12.817,195.194 12.817 C 195.634 12.817,195.995 12.457,195.995 12.016 C 195.995 11.575,195.634 11.215,195.194 11.215 C 194.579 11.215,194.393 10.533,194.393 8.278 C 194.393 4.141,193.019 4.212,190.426 8.481 M198.784 6.172 C 198.131 6.629,197.597 7.398,197.597 7.881 C 197.597 8.563,197.739 8.616,198.238 8.117 C 199.438 6.917,199.733 7.474,199.733 10.948 C 199.733 13.677,199.904 14.419,200.534 14.419 C 201.183 14.419,201.335 13.559,201.335 9.880 C 201.335 5.014,201.043 4.589,198.784 6.172 M208.589 9.481 C 207.830 11.758,207.210 13.801,207.210 14.021 C 207.210 14.913,208.707 14.342,208.966 13.351 C 209.363 11.834,212.533 11.834,212.929 13.351 C 213.083 13.939,213.624 14.419,214.132 14.419 C 214.955 14.419,214.883 13.926,213.468 9.880 C 211.363 3.861,210.484 3.789,208.589 9.481 M216.822 9.841 C 216.822 12.537,217.042 14.419,217.356 14.419 C 217.650 14.419,217.891 13.057,217.891 11.393 C 217.891 8.055,218.257 8.055,219.561 11.393 C 220.800 14.566,221.784 14.486,223.116 11.105 L 224.230 8.278 224.264 11.348 C 224.291 13.707,224.485 14.419,225.100 14.419 C 225.749 14.419,225.901 13.559,225.901 9.880 C 225.901 4.028,224.730 3.536,222.738 8.551 C 221.297 12.180,221.267 12.178,219.741 8.381 C 217.892 3.783,216.822 4.318,216.822 9.841 M336.038 6.168 C 334.532 7.223,334.433 8.269,335.915 7.477 C 336.936 6.930,336.983 7.070,336.983 10.662 C 336.983 13.690,337.142 14.419,337.805 14.419 C 338.492 14.419,338.602 13.696,338.473 10.056 C 338.308 5.423,337.940 4.836,336.038 6.168 M341.721 6.224 C 339.656 8.712,341.228 14.419,343.978 14.419 C 346.877 14.419,348.286 8.822,346.062 6.142 C 345.175 5.074,342.635 5.122,341.721 6.224 M350.097 6.527 C 348.087 9.398,349.514 14.419,352.340 14.419 C 354.576 14.419,355.475 12.540,355.150 8.545 C 354.907 5.550,351.683 4.263,350.097 6.527 M357.298 6.116 C 356.470 7.113,356.756 8.538,357.934 9.280 C 359.291 10.134,360.733 8.557,360.273 6.721 C 359.885 5.177,358.338 4.862,357.298 6.116 M360.839 9.674 C 359.127 12.042,357.865 14.118,358.035 14.288 C 358.205 14.458,358.430 14.497,358.534 14.375 C 359.508 13.233,364.753 5.863,364.753 5.636 C 364.753 4.669,363.590 5.868,360.839 9.674 M359.413 7.508 C 359.413 8.078,359.052 8.545,358.611 8.545 C 357.819 8.545,357.492 6.905,358.152 6.245 C 358.709 5.688,359.413 6.393,359.413 7.508 M180.502 7.203 C 181.291 8.154,180.872 9.506,179.641 9.979 C 178.377 10.464,177.176 8.712,177.877 7.403 C 178.518 6.205,179.605 6.122,180.502 7.203 M345.509 7.442 C 346.749 9.760,345.787 13.351,343.925 13.351 C 342.711 13.351,341.789 11.852,341.789 9.880 C 341.789 7.907,342.711 6.409,343.925 6.409 C 344.492 6.409,345.205 6.873,345.509 7.442 M353.832 7.661 C 354.518 10.393,353.896 13.071,352.530 13.264 C 350.599 13.537,349.545 10.153,350.658 7.253 C 351.178 5.898,353.463 6.191,353.832 7.661 M371.919 7.131 C 371.761 7.543,371.706 9.050,371.797 10.482 L 371.963 13.084 381.308 13.084 L 390.654 13.084 390.654 9.880 L 390.654 6.676 381.430 6.529 C 373.915 6.410,372.153 6.522,371.919 7.131 M16.021 10.681 C 16.021 14.312,16.060 14.419,17.356 14.419 C 18.653 14.419,18.692 14.312,18.692 10.681 C 18.692 7.049,18.653 6.943,17.356 6.943 C 16.060 6.943,16.021 7.049,16.021 10.681 M185.025 7.512 C 184.533 8.307,185.103 8.740,186.126 8.347 C 186.598 8.166,186.834 7.776,186.651 7.480 C 186.218 6.780,185.468 6.795,185.025 7.512 M193.324 9.079 C 193.324 11.001,193.191 11.215,191.989 11.215 C 190.369 11.215,190.352 11.028,191.766 8.741 C 193.182 6.451,193.324 6.482,193.324 9.079 M211.725 9.479 C 212.020 10.455,211.880 10.681,210.984 10.681 C 209.788 10.681,209.725 10.511,210.226 8.643 C 210.588 7.290,211.160 7.609,211.725 9.479 M31.551 8.657 C 29.733 9.625,29.345 10.974,31.037 10.445 C 33.926 9.542,35.289 9.518,36.555 10.347 C 37.448 10.932,37.975 11.020,38.220 10.624 C 39.274 8.918,33.988 7.359,31.551 8.657 M394.126 10.147 C 394.126 11.121,394.347 11.675,394.660 11.482 C 394.953 11.300,395.194 10.700,395.194 10.147 C 395.194 9.594,394.953 8.993,394.660 8.812 C 394.347 8.619,394.126 9.173,394.126 10.147 M11.749 11.749 C 11.749 14.241,11.838 14.419,13.084 14.419 C 14.330 14.419,14.419 14.241,14.419 11.749 C 14.419 9.257,14.330 9.079,13.084 9.079 C 11.838 9.079,11.749 9.257,11.749 11.749 M362.660 10.896 C 361.571 12.209,362.147 14.152,363.627 14.152 C 365.290 14.152,366.302 12.632,365.494 11.348 C 364.715 10.111,363.476 9.913,362.660 10.896 M7.477 12.817 C 7.477 14.170,7.684 14.419,8.812 14.419 C 9.939 14.419,10.147 14.170,10.147 12.817 C 10.147 11.464,9.939 11.215,8.812 11.215 C 7.684 11.215,7.477 11.464,7.477 12.817 M32.577 11.761 C 31.898 12.210,31.980 12.450,33.111 13.331 C 34.435 14.364,34.454 14.364,35.514 13.310 C 37.122 11.711,34.636 10.399,32.577 11.761 M328.011 12.924 C 327.512 13.422,327.370 13.280,327.370 12.283 C 327.370 11.286,327.512 11.144,328.011 11.642 C 328.509 12.141,328.509 12.425,328.011 12.924 M364.657 12.417 C 364.563 13.077,364.246 13.618,363.952 13.618 C 363.658 13.618,363.341 13.077,363.247 12.417 C 363.130 11.590,363.350 11.215,363.952 11.215 C 364.554 11.215,364.774 11.590,364.657 12.417 M184.896 12.366 C 185.173 13.197,186.368 13.343,186.410 12.550 C 186.426 12.256,186.037 11.933,185.547 11.832 C 184.991 11.716,184.746 11.916,184.896 12.366 M0.000 44.860 L 0.000 48.064 10.147 48.064 C 16.555 48.064,20.294 47.867,20.294 47.530 C 20.294 47.236,20.895 46.996,21.629 46.996 C 22.363 46.996,22.964 47.229,22.964 47.514 C 22.964 47.848,76.959 48.041,174.633 48.056 L 326.302 48.079 326.302 46.365 L 326.302 44.650 328.063 46.357 L 329.824 48.064 364.912 48.064 L 400.000 48.064 400.000 44.860 L 400.000 41.656 200.000 41.656 L 0.000 41.656 0.000 44.860 " stroke="none" fill="#000000" fill-rule="evenodd"></path></g></svg>